M48
; DRILL file {KiCad (5.1.2)-2} date 25.02.2021 21:09:17
; FORMAT={-:-/ absolute / inch / decimal}
; #@! TF.CreationDate,2021-02-25T21:09:17+01:00
; #@! TF.GenerationSoftware,Kicad,Pcbnew,(5.1.2)-2
FMAT,2
INCH
T1C0.0080
T2C0.0098
T3C0.0236
T4C0.0394
T5C0.0512
T6C0.1575
%
G90
G05
T1
X3.5964Y-6.86
X3.8516Y-6.8839
X3.8516Y-6.9184
X3.89Y-6.8667
X3.89Y-6.9011
X3.89Y-6.9356
X3.9284Y-6.8839
X3.9284Y-6.9184
X3.8569Y-6.715
X3.8741Y-6.6766
X3.8741Y-6.7534
X3.8914Y-6.715
X3.9086Y-6.6766
X3.9086Y-6.7534
X3.9258Y-6.715
X3.62Y-6.8167
X3.62Y-6.9033
X3.6436Y-6.86
T2
X1.5884Y-5.6612
X1.5888Y-5.6136
X1.5892Y-5.5622
X1.59Y-5.415
X1.59Y-5.465
X1.59Y-5.515
X1.625Y-5.47
X1.625Y-5.5
X1.625Y-5.53
X1.625Y-5.885
X1.625Y-6.215
X1.6643Y-6.1
X1.693Y-6.18
X1.72Y-6.11
X1.74Y-6.395
X1.815Y-7.095
X1.865Y-6.335
X1.88Y-6.22
X1.915Y-6.685
X1.93Y-7.015
X1.93Y-7.17
X2.035Y-7.095
X2.175Y-6.845
X2.175Y-6.92
X2.298Y-5.7105
X2.353Y-5.6225
X2.375Y-6.639
X2.375Y-6.669
X2.375Y-6.699
X2.375Y-6.729
X2.441Y-6.589
X2.647Y-5.619
X2.724Y-7.333
X2.849Y-7.131
X2.888Y-7.131
X2.925Y-7.131
X3.03Y-7.33
X3.05Y-7.349
X3.075Y-7.33
X3.095Y-7.349
X3.115Y-7.33
X3.148Y-5.618
X3.15Y-7.199
X3.2675Y-6.72
X3.2975Y-6.72
X3.33Y-6.72
X3.45Y-6.7625
X3.5025Y-6.6375
X3.55Y-6.98
X3.5875Y-6.905
X3.59Y-6.83
X3.62Y-6.845
X3.62Y-6.8775
X3.625Y-5.54
X3.6261Y-5.4761
X3.65Y-6.83
X3.6525Y-6.905
X3.7104Y-6.7504
X3.7273Y-6.9097
X3.7375Y-7.0625
X3.785Y-6.79
X3.7855Y-6.8326
X3.8Y-6.9425
X3.955Y-5.63
X3.9775Y-6.645
X4.091Y-5.544
X4.093Y-5.483
X4.15Y-6.405
X4.15Y-6.4675
X4.19Y-6.435
X4.2275Y-6.4675
X4.23Y-6.405
X4.2855Y-5.724
X4.287Y-5.6665
X4.525Y-5.615
X4.54Y-5.595
X4.54Y-5.635
X4.59Y-6.98
T3
X1.4567Y-7.3228
X1.4913Y-7.2393
X1.4913Y-7.4064
X1.5748Y-7.2047
X1.5748Y-7.4409
X1.6583Y-7.2393
X1.6583Y-7.4064
X1.6929Y-7.3228
X1.4567Y-5.0787
X1.4913Y-4.9952
X1.4913Y-5.1623
X1.5748Y-4.9606
X1.5748Y-5.1969
X1.6583Y-4.9952
X1.6583Y-5.1623
X1.6929Y-5.0787
X4.2913Y-7.3228
X4.3259Y-7.2393
X4.3259Y-7.4064
X4.4094Y-7.2047
X4.4094Y-7.4409
X4.493Y-7.2393
X4.493Y-7.4064
X4.5276Y-7.3228
X4.2913Y-5.0787
X4.3259Y-4.9952
X4.3259Y-5.1623
X4.4094Y-4.9606
X4.4094Y-5.1969
X4.493Y-4.9952
X4.493Y-5.1623
X4.5276Y-5.0787
T4
X2.048Y-5.243
X2.048Y-5.843
X2.148Y-5.243
X2.148Y-5.843
X2.248Y-5.243
X2.248Y-5.843
X2.348Y-5.243
X2.348Y-5.843
X2.448Y-5.243
X2.448Y-5.843
X2.548Y-5.243
X2.548Y-5.843
X2.648Y-5.243
X2.648Y-5.843
X2.748Y-5.243
X2.748Y-5.843
X2.848Y-5.243
X2.848Y-5.843
X2.948Y-5.243
X2.948Y-5.843
X3.048Y-5.243
X3.048Y-5.843
X3.148Y-5.243
X3.148Y-5.843
X3.248Y-5.243
X3.248Y-5.843
X3.348Y-5.243
X3.348Y-5.843
X3.448Y-5.243
X3.448Y-5.843
X3.548Y-5.243
X3.548Y-5.843
X3.648Y-5.243
X3.648Y-5.843
X3.748Y-5.243
X3.748Y-5.843
X3.848Y-5.243
X3.848Y-5.843
X3.948Y-5.243
X3.948Y-5.843
X2.012Y-4.954
X2.112Y-4.954
X2.212Y-4.954
X2.312Y-4.954
X2.412Y-4.954
X2.512Y-4.954
X2.612Y-4.954
X2.712Y-4.954
X2.812Y-4.954
X2.912Y-4.954
X3.012Y-4.954
X1.475Y-6.845
X1.475Y-6.945
X2.0128Y-6.1284
X2.1128Y-6.1284
X2.2128Y-6.1284
X2.3128Y-6.1284
X2.4128Y-6.1284
X2.5128Y-6.1284
X2.6128Y-6.1284
X2.7128Y-6.1284
X2.8128Y-6.1284
X2.9128Y-6.1284
X3.0128Y-6.1284
T5
X4.46Y-6.4613
X4.46Y-6.6581
X4.46Y-6.855
T6
X1.5748Y-7.3228
X1.5748Y-5.0787
X4.4094Y-7.3228
X4.4094Y-5.0787
T0
M30
