G04 #@! TF.GenerationSoftware,KiCad,Pcbnew,(5.1.12)-1*
G04 #@! TF.CreationDate,2022-07-24T10:45:22+02:00*
G04 #@! TF.ProjectId,telemetria tyl,74656c65-6d65-4747-9269-612074796c2e,rev?*
G04 #@! TF.SameCoordinates,Original*
G04 #@! TF.FileFunction,Soldermask,Bot*
G04 #@! TF.FilePolarity,Negative*
%FSLAX46Y46*%
G04 Gerber Fmt 4.6, Leading zero omitted, Abs format (unit mm)*
G04 Created by KiCad (PCBNEW (5.1.12)-1) date 2022-07-24 10:45:22*
%MOMM*%
%LPD*%
G01*
G04 APERTURE LIST*
%ADD10R,2.250000X2.250000*%
%ADD11C,2.250000*%
%ADD12C,5.100000*%
%ADD13C,10.000000*%
%ADD14C,0.900000*%
%ADD15R,1.700000X1.700000*%
%ADD16O,1.700000X1.700000*%
%ADD17R,1.500000X1.200000*%
%ADD18C,1.440000*%
G04 APERTURE END LIST*
D10*
X209550000Y-127000000D03*
D11*
X209550000Y-124000000D03*
X209550000Y-121000000D03*
X209550000Y-118000000D03*
X209550000Y-115000000D03*
X209550000Y-112000000D03*
X209550000Y-109000000D03*
X207050000Y-110500000D03*
X207050000Y-113500000D03*
X207050000Y-116500000D03*
X207050000Y-119500000D03*
X207050000Y-122500000D03*
X207050000Y-125500000D03*
X204050000Y-125500000D03*
X204050000Y-122500000D03*
X204050000Y-119500000D03*
X204050000Y-116500000D03*
X204050000Y-113500000D03*
X204050000Y-110500000D03*
X201550000Y-109000000D03*
X201550000Y-112000000D03*
X201550000Y-115000000D03*
X201550000Y-118000000D03*
X201550000Y-121000000D03*
X201550000Y-124000000D03*
X201550000Y-127000000D03*
D12*
X216050000Y-134250000D03*
X216050000Y-101750000D03*
G36*
G01*
X175912800Y-132950800D02*
X174962800Y-132950800D01*
G75*
G02*
X174712800Y-132700800I0J250000D01*
G01*
X174712800Y-132025800D01*
G75*
G02*
X174962800Y-131775800I250000J0D01*
G01*
X175912800Y-131775800D01*
G75*
G02*
X176162800Y-132025800I0J-250000D01*
G01*
X176162800Y-132700800D01*
G75*
G02*
X175912800Y-132950800I-250000J0D01*
G01*
G37*
G36*
G01*
X175912800Y-135025800D02*
X174962800Y-135025800D01*
G75*
G02*
X174712800Y-134775800I0J250000D01*
G01*
X174712800Y-134100800D01*
G75*
G02*
X174962800Y-133850800I250000J0D01*
G01*
X175912800Y-133850800D01*
G75*
G02*
X176162800Y-134100800I0J-250000D01*
G01*
X176162800Y-134775800D01*
G75*
G02*
X175912800Y-135025800I-250000J0D01*
G01*
G37*
G36*
G01*
X173398200Y-135000400D02*
X172448200Y-135000400D01*
G75*
G02*
X172198200Y-134750400I0J250000D01*
G01*
X172198200Y-134075400D01*
G75*
G02*
X172448200Y-133825400I250000J0D01*
G01*
X173398200Y-133825400D01*
G75*
G02*
X173648200Y-134075400I0J-250000D01*
G01*
X173648200Y-134750400D01*
G75*
G02*
X173398200Y-135000400I-250000J0D01*
G01*
G37*
G36*
G01*
X173398200Y-132925400D02*
X172448200Y-132925400D01*
G75*
G02*
X172198200Y-132675400I0J250000D01*
G01*
X172198200Y-132000400D01*
G75*
G02*
X172448200Y-131750400I250000J0D01*
G01*
X173398200Y-131750400D01*
G75*
G02*
X173648200Y-132000400I0J-250000D01*
G01*
X173648200Y-132675400D01*
G75*
G02*
X173398200Y-132925400I-250000J0D01*
G01*
G37*
G36*
G01*
X156871000Y-123665000D02*
X156871000Y-122715000D01*
G75*
G02*
X157121000Y-122465000I250000J0D01*
G01*
X157796000Y-122465000D01*
G75*
G02*
X158046000Y-122715000I0J-250000D01*
G01*
X158046000Y-123665000D01*
G75*
G02*
X157796000Y-123915000I-250000J0D01*
G01*
X157121000Y-123915000D01*
G75*
G02*
X156871000Y-123665000I0J250000D01*
G01*
G37*
G36*
G01*
X158946000Y-123665000D02*
X158946000Y-122715000D01*
G75*
G02*
X159196000Y-122465000I250000J0D01*
G01*
X159871000Y-122465000D01*
G75*
G02*
X160121000Y-122715000I0J-250000D01*
G01*
X160121000Y-123665000D01*
G75*
G02*
X159871000Y-123915000I-250000J0D01*
G01*
X159196000Y-123915000D01*
G75*
G02*
X158946000Y-123665000I0J250000D01*
G01*
G37*
G36*
G01*
X158946000Y-118585000D02*
X158946000Y-117635000D01*
G75*
G02*
X159196000Y-117385000I250000J0D01*
G01*
X159871000Y-117385000D01*
G75*
G02*
X160121000Y-117635000I0J-250000D01*
G01*
X160121000Y-118585000D01*
G75*
G02*
X159871000Y-118835000I-250000J0D01*
G01*
X159196000Y-118835000D01*
G75*
G02*
X158946000Y-118585000I0J250000D01*
G01*
G37*
G36*
G01*
X156871000Y-118585000D02*
X156871000Y-117635000D01*
G75*
G02*
X157121000Y-117385000I250000J0D01*
G01*
X157796000Y-117385000D01*
G75*
G02*
X158046000Y-117635000I0J-250000D01*
G01*
X158046000Y-118585000D01*
G75*
G02*
X157796000Y-118835000I-250000J0D01*
G01*
X157121000Y-118835000D01*
G75*
G02*
X156871000Y-118585000I0J250000D01*
G01*
G37*
G36*
G01*
X175840501Y-101186000D02*
X175840501Y-100236000D01*
G75*
G02*
X176090501Y-99986000I250000J0D01*
G01*
X176765501Y-99986000D01*
G75*
G02*
X177015501Y-100236000I0J-250000D01*
G01*
X177015501Y-101186000D01*
G75*
G02*
X176765501Y-101436000I-250000J0D01*
G01*
X176090501Y-101436000D01*
G75*
G02*
X175840501Y-101186000I0J250000D01*
G01*
G37*
G36*
G01*
X173765501Y-101186000D02*
X173765501Y-100236000D01*
G75*
G02*
X174015501Y-99986000I250000J0D01*
G01*
X174690501Y-99986000D01*
G75*
G02*
X174940501Y-100236000I0J-250000D01*
G01*
X174940501Y-101186000D01*
G75*
G02*
X174690501Y-101436000I-250000J0D01*
G01*
X174015501Y-101436000D01*
G75*
G02*
X173765501Y-101186000I0J250000D01*
G01*
G37*
G36*
G01*
X172630500Y-102649000D02*
X172630500Y-103599000D01*
G75*
G02*
X172380500Y-103849000I-250000J0D01*
G01*
X171705500Y-103849000D01*
G75*
G02*
X171455500Y-103599000I0J250000D01*
G01*
X171455500Y-102649000D01*
G75*
G02*
X171705500Y-102399000I250000J0D01*
G01*
X172380500Y-102399000D01*
G75*
G02*
X172630500Y-102649000I0J-250000D01*
G01*
G37*
G36*
G01*
X170555500Y-102649000D02*
X170555500Y-103599000D01*
G75*
G02*
X170305500Y-103849000I-250000J0D01*
G01*
X169630500Y-103849000D01*
G75*
G02*
X169380500Y-103599000I0J250000D01*
G01*
X169380500Y-102649000D01*
G75*
G02*
X169630500Y-102399000I250000J0D01*
G01*
X170305500Y-102399000D01*
G75*
G02*
X170555500Y-102649000I0J-250000D01*
G01*
G37*
G36*
G01*
X173765501Y-98489999D02*
X173765501Y-97539999D01*
G75*
G02*
X174015501Y-97289999I250000J0D01*
G01*
X174690501Y-97289999D01*
G75*
G02*
X174940501Y-97539999I0J-250000D01*
G01*
X174940501Y-98489999D01*
G75*
G02*
X174690501Y-98739999I-250000J0D01*
G01*
X174015501Y-98739999D01*
G75*
G02*
X173765501Y-98489999I0J250000D01*
G01*
G37*
G36*
G01*
X175840501Y-98489999D02*
X175840501Y-97539999D01*
G75*
G02*
X176090501Y-97289999I250000J0D01*
G01*
X176765501Y-97289999D01*
G75*
G02*
X177015501Y-97539999I0J-250000D01*
G01*
X177015501Y-98489999D01*
G75*
G02*
X176765501Y-98739999I-250000J0D01*
G01*
X176090501Y-98739999D01*
G75*
G02*
X175840501Y-98489999I0J250000D01*
G01*
G37*
G36*
G01*
X172567000Y-97632500D02*
X172567000Y-98582500D01*
G75*
G02*
X172317000Y-98832500I-250000J0D01*
G01*
X171642000Y-98832500D01*
G75*
G02*
X171392000Y-98582500I0J250000D01*
G01*
X171392000Y-97632500D01*
G75*
G02*
X171642000Y-97382500I250000J0D01*
G01*
X172317000Y-97382500D01*
G75*
G02*
X172567000Y-97632500I0J-250000D01*
G01*
G37*
G36*
G01*
X170492000Y-97632500D02*
X170492000Y-98582500D01*
G75*
G02*
X170242000Y-98832500I-250000J0D01*
G01*
X169567000Y-98832500D01*
G75*
G02*
X169317000Y-98582500I0J250000D01*
G01*
X169317000Y-97632500D01*
G75*
G02*
X169567000Y-97382500I250000J0D01*
G01*
X170242000Y-97382500D01*
G75*
G02*
X170492000Y-97632500I0J-250000D01*
G01*
G37*
G36*
G01*
X175837000Y-106266000D02*
X175837000Y-105316000D01*
G75*
G02*
X176087000Y-105066000I250000J0D01*
G01*
X176762000Y-105066000D01*
G75*
G02*
X177012000Y-105316000I0J-250000D01*
G01*
X177012000Y-106266000D01*
G75*
G02*
X176762000Y-106516000I-250000J0D01*
G01*
X176087000Y-106516000D01*
G75*
G02*
X175837000Y-106266000I0J250000D01*
G01*
G37*
G36*
G01*
X173762000Y-106266000D02*
X173762000Y-105316000D01*
G75*
G02*
X174012000Y-105066000I250000J0D01*
G01*
X174687000Y-105066000D01*
G75*
G02*
X174937000Y-105316000I0J-250000D01*
G01*
X174937000Y-106266000D01*
G75*
G02*
X174687000Y-106516000I-250000J0D01*
G01*
X174012000Y-106516000D01*
G75*
G02*
X173762000Y-106266000I0J250000D01*
G01*
G37*
G36*
G01*
X173847000Y-103599000D02*
X173847000Y-102649000D01*
G75*
G02*
X174097000Y-102399000I250000J0D01*
G01*
X174772000Y-102399000D01*
G75*
G02*
X175022000Y-102649000I0J-250000D01*
G01*
X175022000Y-103599000D01*
G75*
G02*
X174772000Y-103849000I-250000J0D01*
G01*
X174097000Y-103849000D01*
G75*
G02*
X173847000Y-103599000I0J250000D01*
G01*
G37*
G36*
G01*
X175922000Y-103599000D02*
X175922000Y-102649000D01*
G75*
G02*
X176172000Y-102399000I250000J0D01*
G01*
X176847000Y-102399000D01*
G75*
G02*
X177097000Y-102649000I0J-250000D01*
G01*
X177097000Y-103599000D01*
G75*
G02*
X176847000Y-103849000I-250000J0D01*
G01*
X176172000Y-103849000D01*
G75*
G02*
X175922000Y-103599000I0J250000D01*
G01*
G37*
G36*
G01*
X170619000Y-100236000D02*
X170619000Y-101186000D01*
G75*
G02*
X170369000Y-101436000I-250000J0D01*
G01*
X169694000Y-101436000D01*
G75*
G02*
X169444000Y-101186000I0J250000D01*
G01*
X169444000Y-100236000D01*
G75*
G02*
X169694000Y-99986000I250000J0D01*
G01*
X170369000Y-99986000D01*
G75*
G02*
X170619000Y-100236000I0J-250000D01*
G01*
G37*
G36*
G01*
X172694000Y-100236000D02*
X172694000Y-101186000D01*
G75*
G02*
X172444000Y-101436000I-250000J0D01*
G01*
X171769000Y-101436000D01*
G75*
G02*
X171519000Y-101186000I0J250000D01*
G01*
X171519000Y-100236000D01*
G75*
G02*
X171769000Y-99986000I250000J0D01*
G01*
X172444000Y-99986000D01*
G75*
G02*
X172694000Y-100236000I0J-250000D01*
G01*
G37*
G36*
G01*
X172694001Y-105387499D02*
X172694001Y-106337499D01*
G75*
G02*
X172444001Y-106587499I-250000J0D01*
G01*
X171769001Y-106587499D01*
G75*
G02*
X171519001Y-106337499I0J250000D01*
G01*
X171519001Y-105387499D01*
G75*
G02*
X171769001Y-105137499I250000J0D01*
G01*
X172444001Y-105137499D01*
G75*
G02*
X172694001Y-105387499I0J-250000D01*
G01*
G37*
G36*
G01*
X170619001Y-105387499D02*
X170619001Y-106337499D01*
G75*
G02*
X170369001Y-106587499I-250000J0D01*
G01*
X169694001Y-106587499D01*
G75*
G02*
X169444001Y-106337499I0J250000D01*
G01*
X169444001Y-105387499D01*
G75*
G02*
X169694001Y-105137499I250000J0D01*
G01*
X170369001Y-105137499D01*
G75*
G02*
X170619001Y-105387499I0J-250000D01*
G01*
G37*
D13*
X205232000Y-146304000D03*
D14*
X208982000Y-146304000D03*
X207883650Y-148955650D03*
X205232000Y-150054000D03*
X202580350Y-148955650D03*
X201482000Y-146304000D03*
X202580350Y-143652350D03*
X205232000Y-142554000D03*
X207883650Y-143652350D03*
X141843650Y-85930850D03*
X139192000Y-84832500D03*
X136540350Y-85930850D03*
X135442000Y-88582500D03*
X136540350Y-91234150D03*
X139192000Y-92332500D03*
X141843650Y-91234150D03*
X142942000Y-88582500D03*
D13*
X139192000Y-88582500D03*
X205232000Y-88582500D03*
D14*
X208982000Y-88582500D03*
X207883650Y-91234150D03*
X205232000Y-92332500D03*
X202580350Y-91234150D03*
X201482000Y-88582500D03*
X202580350Y-85930850D03*
X205232000Y-84832500D03*
X207883650Y-85930850D03*
D15*
X179070000Y-90170000D03*
D16*
X179070000Y-87630000D03*
X181610000Y-90170000D03*
X181610000Y-87630000D03*
X184150000Y-90170000D03*
X184150000Y-87630000D03*
X186690000Y-90170000D03*
X186690000Y-87630000D03*
X189230000Y-90170000D03*
X189230000Y-87630000D03*
D15*
X165100000Y-90170000D03*
D16*
X165100000Y-87630000D03*
X167640000Y-90170000D03*
X167640000Y-87630000D03*
X170180000Y-90170000D03*
X170180000Y-87630000D03*
D17*
X172995600Y-137464800D03*
X175695600Y-137464800D03*
D18*
X151853900Y-140246100D03*
X154393900Y-140246100D03*
X156933900Y-140246100D03*
D13*
X139192000Y-146304000D03*
D14*
X142942000Y-146304000D03*
X141843650Y-148955650D03*
X139192000Y-150054000D03*
X136540350Y-148955650D03*
X135442000Y-146304000D03*
X136540350Y-143652350D03*
X139192000Y-142554000D03*
X141843650Y-143652350D03*
M02*
