G04 #@! TF.GenerationSoftware,KiCad,Pcbnew,(5.1.12)-1*
G04 #@! TF.CreationDate,2022-07-24T10:45:22+02:00*
G04 #@! TF.ProjectId,telemetria tyl,74656c65-6d65-4747-9269-612074796c2e,rev?*
G04 #@! TF.SameCoordinates,Original*
G04 #@! TF.FileFunction,Copper,L2,Bot*
G04 #@! TF.FilePolarity,Positive*
%FSLAX46Y46*%
G04 Gerber Fmt 4.6, Leading zero omitted, Abs format (unit mm)*
G04 Created by KiCad (PCBNEW (5.1.12)-1) date 2022-07-24 10:45:22*
%MOMM*%
%LPD*%
G01*
G04 APERTURE LIST*
G04 #@! TA.AperFunction,ComponentPad*
%ADD10R,2.250000X2.250000*%
G04 #@! TD*
G04 #@! TA.AperFunction,ComponentPad*
%ADD11C,2.250000*%
G04 #@! TD*
G04 #@! TA.AperFunction,ComponentPad*
%ADD12C,5.100000*%
G04 #@! TD*
G04 #@! TA.AperFunction,ComponentPad*
%ADD13C,10.000000*%
G04 #@! TD*
G04 #@! TA.AperFunction,ComponentPad*
%ADD14C,0.900000*%
G04 #@! TD*
G04 #@! TA.AperFunction,ComponentPad*
%ADD15R,1.700000X1.700000*%
G04 #@! TD*
G04 #@! TA.AperFunction,ComponentPad*
%ADD16O,1.700000X1.700000*%
G04 #@! TD*
G04 #@! TA.AperFunction,SMDPad,CuDef*
%ADD17R,1.500000X1.200000*%
G04 #@! TD*
G04 #@! TA.AperFunction,ComponentPad*
%ADD18C,1.440000*%
G04 #@! TD*
G04 #@! TA.AperFunction,ViaPad*
%ADD19C,0.800000*%
G04 #@! TD*
G04 #@! TA.AperFunction,Conductor*
%ADD20C,0.300000*%
G04 #@! TD*
G04 #@! TA.AperFunction,Conductor*
%ADD21C,0.250000*%
G04 #@! TD*
G04 #@! TA.AperFunction,Conductor*
%ADD22C,0.500000*%
G04 #@! TD*
G04 APERTURE END LIST*
D10*
X209550000Y-127000000D03*
D11*
X209550000Y-124000000D03*
X209550000Y-121000000D03*
X209550000Y-118000000D03*
X209550000Y-115000000D03*
X209550000Y-112000000D03*
X209550000Y-109000000D03*
X207050000Y-110500000D03*
X207050000Y-113500000D03*
X207050000Y-116500000D03*
X207050000Y-119500000D03*
X207050000Y-122500000D03*
X207050000Y-125500000D03*
X204050000Y-125500000D03*
X204050000Y-122500000D03*
X204050000Y-119500000D03*
X204050000Y-116500000D03*
X204050000Y-113500000D03*
X204050000Y-110500000D03*
X201550000Y-109000000D03*
X201550000Y-112000000D03*
X201550000Y-115000000D03*
X201550000Y-118000000D03*
X201550000Y-121000000D03*
X201550000Y-124000000D03*
X201550000Y-127000000D03*
D12*
X216050000Y-134250000D03*
X216050000Y-101750000D03*
G04 #@! TA.AperFunction,SMDPad,CuDef*
G36*
G01*
X175912800Y-132950800D02*
X174962800Y-132950800D01*
G75*
G02*
X174712800Y-132700800I0J250000D01*
G01*
X174712800Y-132025800D01*
G75*
G02*
X174962800Y-131775800I250000J0D01*
G01*
X175912800Y-131775800D01*
G75*
G02*
X176162800Y-132025800I0J-250000D01*
G01*
X176162800Y-132700800D01*
G75*
G02*
X175912800Y-132950800I-250000J0D01*
G01*
G37*
G04 #@! TD.AperFunction*
G04 #@! TA.AperFunction,SMDPad,CuDef*
G36*
G01*
X175912800Y-135025800D02*
X174962800Y-135025800D01*
G75*
G02*
X174712800Y-134775800I0J250000D01*
G01*
X174712800Y-134100800D01*
G75*
G02*
X174962800Y-133850800I250000J0D01*
G01*
X175912800Y-133850800D01*
G75*
G02*
X176162800Y-134100800I0J-250000D01*
G01*
X176162800Y-134775800D01*
G75*
G02*
X175912800Y-135025800I-250000J0D01*
G01*
G37*
G04 #@! TD.AperFunction*
G04 #@! TA.AperFunction,SMDPad,CuDef*
G36*
G01*
X173398200Y-135000400D02*
X172448200Y-135000400D01*
G75*
G02*
X172198200Y-134750400I0J250000D01*
G01*
X172198200Y-134075400D01*
G75*
G02*
X172448200Y-133825400I250000J0D01*
G01*
X173398200Y-133825400D01*
G75*
G02*
X173648200Y-134075400I0J-250000D01*
G01*
X173648200Y-134750400D01*
G75*
G02*
X173398200Y-135000400I-250000J0D01*
G01*
G37*
G04 #@! TD.AperFunction*
G04 #@! TA.AperFunction,SMDPad,CuDef*
G36*
G01*
X173398200Y-132925400D02*
X172448200Y-132925400D01*
G75*
G02*
X172198200Y-132675400I0J250000D01*
G01*
X172198200Y-132000400D01*
G75*
G02*
X172448200Y-131750400I250000J0D01*
G01*
X173398200Y-131750400D01*
G75*
G02*
X173648200Y-132000400I0J-250000D01*
G01*
X173648200Y-132675400D01*
G75*
G02*
X173398200Y-132925400I-250000J0D01*
G01*
G37*
G04 #@! TD.AperFunction*
G04 #@! TA.AperFunction,SMDPad,CuDef*
G36*
G01*
X156871000Y-123665000D02*
X156871000Y-122715000D01*
G75*
G02*
X157121000Y-122465000I250000J0D01*
G01*
X157796000Y-122465000D01*
G75*
G02*
X158046000Y-122715000I0J-250000D01*
G01*
X158046000Y-123665000D01*
G75*
G02*
X157796000Y-123915000I-250000J0D01*
G01*
X157121000Y-123915000D01*
G75*
G02*
X156871000Y-123665000I0J250000D01*
G01*
G37*
G04 #@! TD.AperFunction*
G04 #@! TA.AperFunction,SMDPad,CuDef*
G36*
G01*
X158946000Y-123665000D02*
X158946000Y-122715000D01*
G75*
G02*
X159196000Y-122465000I250000J0D01*
G01*
X159871000Y-122465000D01*
G75*
G02*
X160121000Y-122715000I0J-250000D01*
G01*
X160121000Y-123665000D01*
G75*
G02*
X159871000Y-123915000I-250000J0D01*
G01*
X159196000Y-123915000D01*
G75*
G02*
X158946000Y-123665000I0J250000D01*
G01*
G37*
G04 #@! TD.AperFunction*
G04 #@! TA.AperFunction,SMDPad,CuDef*
G36*
G01*
X158946000Y-118585000D02*
X158946000Y-117635000D01*
G75*
G02*
X159196000Y-117385000I250000J0D01*
G01*
X159871000Y-117385000D01*
G75*
G02*
X160121000Y-117635000I0J-250000D01*
G01*
X160121000Y-118585000D01*
G75*
G02*
X159871000Y-118835000I-250000J0D01*
G01*
X159196000Y-118835000D01*
G75*
G02*
X158946000Y-118585000I0J250000D01*
G01*
G37*
G04 #@! TD.AperFunction*
G04 #@! TA.AperFunction,SMDPad,CuDef*
G36*
G01*
X156871000Y-118585000D02*
X156871000Y-117635000D01*
G75*
G02*
X157121000Y-117385000I250000J0D01*
G01*
X157796000Y-117385000D01*
G75*
G02*
X158046000Y-117635000I0J-250000D01*
G01*
X158046000Y-118585000D01*
G75*
G02*
X157796000Y-118835000I-250000J0D01*
G01*
X157121000Y-118835000D01*
G75*
G02*
X156871000Y-118585000I0J250000D01*
G01*
G37*
G04 #@! TD.AperFunction*
G04 #@! TA.AperFunction,SMDPad,CuDef*
G36*
G01*
X175840501Y-101186000D02*
X175840501Y-100236000D01*
G75*
G02*
X176090501Y-99986000I250000J0D01*
G01*
X176765501Y-99986000D01*
G75*
G02*
X177015501Y-100236000I0J-250000D01*
G01*
X177015501Y-101186000D01*
G75*
G02*
X176765501Y-101436000I-250000J0D01*
G01*
X176090501Y-101436000D01*
G75*
G02*
X175840501Y-101186000I0J250000D01*
G01*
G37*
G04 #@! TD.AperFunction*
G04 #@! TA.AperFunction,SMDPad,CuDef*
G36*
G01*
X173765501Y-101186000D02*
X173765501Y-100236000D01*
G75*
G02*
X174015501Y-99986000I250000J0D01*
G01*
X174690501Y-99986000D01*
G75*
G02*
X174940501Y-100236000I0J-250000D01*
G01*
X174940501Y-101186000D01*
G75*
G02*
X174690501Y-101436000I-250000J0D01*
G01*
X174015501Y-101436000D01*
G75*
G02*
X173765501Y-101186000I0J250000D01*
G01*
G37*
G04 #@! TD.AperFunction*
G04 #@! TA.AperFunction,SMDPad,CuDef*
G36*
G01*
X172630500Y-102649000D02*
X172630500Y-103599000D01*
G75*
G02*
X172380500Y-103849000I-250000J0D01*
G01*
X171705500Y-103849000D01*
G75*
G02*
X171455500Y-103599000I0J250000D01*
G01*
X171455500Y-102649000D01*
G75*
G02*
X171705500Y-102399000I250000J0D01*
G01*
X172380500Y-102399000D01*
G75*
G02*
X172630500Y-102649000I0J-250000D01*
G01*
G37*
G04 #@! TD.AperFunction*
G04 #@! TA.AperFunction,SMDPad,CuDef*
G36*
G01*
X170555500Y-102649000D02*
X170555500Y-103599000D01*
G75*
G02*
X170305500Y-103849000I-250000J0D01*
G01*
X169630500Y-103849000D01*
G75*
G02*
X169380500Y-103599000I0J250000D01*
G01*
X169380500Y-102649000D01*
G75*
G02*
X169630500Y-102399000I250000J0D01*
G01*
X170305500Y-102399000D01*
G75*
G02*
X170555500Y-102649000I0J-250000D01*
G01*
G37*
G04 #@! TD.AperFunction*
G04 #@! TA.AperFunction,SMDPad,CuDef*
G36*
G01*
X173765501Y-98489999D02*
X173765501Y-97539999D01*
G75*
G02*
X174015501Y-97289999I250000J0D01*
G01*
X174690501Y-97289999D01*
G75*
G02*
X174940501Y-97539999I0J-250000D01*
G01*
X174940501Y-98489999D01*
G75*
G02*
X174690501Y-98739999I-250000J0D01*
G01*
X174015501Y-98739999D01*
G75*
G02*
X173765501Y-98489999I0J250000D01*
G01*
G37*
G04 #@! TD.AperFunction*
G04 #@! TA.AperFunction,SMDPad,CuDef*
G36*
G01*
X175840501Y-98489999D02*
X175840501Y-97539999D01*
G75*
G02*
X176090501Y-97289999I250000J0D01*
G01*
X176765501Y-97289999D01*
G75*
G02*
X177015501Y-97539999I0J-250000D01*
G01*
X177015501Y-98489999D01*
G75*
G02*
X176765501Y-98739999I-250000J0D01*
G01*
X176090501Y-98739999D01*
G75*
G02*
X175840501Y-98489999I0J250000D01*
G01*
G37*
G04 #@! TD.AperFunction*
G04 #@! TA.AperFunction,SMDPad,CuDef*
G36*
G01*
X172567000Y-97632500D02*
X172567000Y-98582500D01*
G75*
G02*
X172317000Y-98832500I-250000J0D01*
G01*
X171642000Y-98832500D01*
G75*
G02*
X171392000Y-98582500I0J250000D01*
G01*
X171392000Y-97632500D01*
G75*
G02*
X171642000Y-97382500I250000J0D01*
G01*
X172317000Y-97382500D01*
G75*
G02*
X172567000Y-97632500I0J-250000D01*
G01*
G37*
G04 #@! TD.AperFunction*
G04 #@! TA.AperFunction,SMDPad,CuDef*
G36*
G01*
X170492000Y-97632500D02*
X170492000Y-98582500D01*
G75*
G02*
X170242000Y-98832500I-250000J0D01*
G01*
X169567000Y-98832500D01*
G75*
G02*
X169317000Y-98582500I0J250000D01*
G01*
X169317000Y-97632500D01*
G75*
G02*
X169567000Y-97382500I250000J0D01*
G01*
X170242000Y-97382500D01*
G75*
G02*
X170492000Y-97632500I0J-250000D01*
G01*
G37*
G04 #@! TD.AperFunction*
G04 #@! TA.AperFunction,SMDPad,CuDef*
G36*
G01*
X175837000Y-106266000D02*
X175837000Y-105316000D01*
G75*
G02*
X176087000Y-105066000I250000J0D01*
G01*
X176762000Y-105066000D01*
G75*
G02*
X177012000Y-105316000I0J-250000D01*
G01*
X177012000Y-106266000D01*
G75*
G02*
X176762000Y-106516000I-250000J0D01*
G01*
X176087000Y-106516000D01*
G75*
G02*
X175837000Y-106266000I0J250000D01*
G01*
G37*
G04 #@! TD.AperFunction*
G04 #@! TA.AperFunction,SMDPad,CuDef*
G36*
G01*
X173762000Y-106266000D02*
X173762000Y-105316000D01*
G75*
G02*
X174012000Y-105066000I250000J0D01*
G01*
X174687000Y-105066000D01*
G75*
G02*
X174937000Y-105316000I0J-250000D01*
G01*
X174937000Y-106266000D01*
G75*
G02*
X174687000Y-106516000I-250000J0D01*
G01*
X174012000Y-106516000D01*
G75*
G02*
X173762000Y-106266000I0J250000D01*
G01*
G37*
G04 #@! TD.AperFunction*
G04 #@! TA.AperFunction,SMDPad,CuDef*
G36*
G01*
X173847000Y-103599000D02*
X173847000Y-102649000D01*
G75*
G02*
X174097000Y-102399000I250000J0D01*
G01*
X174772000Y-102399000D01*
G75*
G02*
X175022000Y-102649000I0J-250000D01*
G01*
X175022000Y-103599000D01*
G75*
G02*
X174772000Y-103849000I-250000J0D01*
G01*
X174097000Y-103849000D01*
G75*
G02*
X173847000Y-103599000I0J250000D01*
G01*
G37*
G04 #@! TD.AperFunction*
G04 #@! TA.AperFunction,SMDPad,CuDef*
G36*
G01*
X175922000Y-103599000D02*
X175922000Y-102649000D01*
G75*
G02*
X176172000Y-102399000I250000J0D01*
G01*
X176847000Y-102399000D01*
G75*
G02*
X177097000Y-102649000I0J-250000D01*
G01*
X177097000Y-103599000D01*
G75*
G02*
X176847000Y-103849000I-250000J0D01*
G01*
X176172000Y-103849000D01*
G75*
G02*
X175922000Y-103599000I0J250000D01*
G01*
G37*
G04 #@! TD.AperFunction*
G04 #@! TA.AperFunction,SMDPad,CuDef*
G36*
G01*
X170619000Y-100236000D02*
X170619000Y-101186000D01*
G75*
G02*
X170369000Y-101436000I-250000J0D01*
G01*
X169694000Y-101436000D01*
G75*
G02*
X169444000Y-101186000I0J250000D01*
G01*
X169444000Y-100236000D01*
G75*
G02*
X169694000Y-99986000I250000J0D01*
G01*
X170369000Y-99986000D01*
G75*
G02*
X170619000Y-100236000I0J-250000D01*
G01*
G37*
G04 #@! TD.AperFunction*
G04 #@! TA.AperFunction,SMDPad,CuDef*
G36*
G01*
X172694000Y-100236000D02*
X172694000Y-101186000D01*
G75*
G02*
X172444000Y-101436000I-250000J0D01*
G01*
X171769000Y-101436000D01*
G75*
G02*
X171519000Y-101186000I0J250000D01*
G01*
X171519000Y-100236000D01*
G75*
G02*
X171769000Y-99986000I250000J0D01*
G01*
X172444000Y-99986000D01*
G75*
G02*
X172694000Y-100236000I0J-250000D01*
G01*
G37*
G04 #@! TD.AperFunction*
G04 #@! TA.AperFunction,SMDPad,CuDef*
G36*
G01*
X172694001Y-105387499D02*
X172694001Y-106337499D01*
G75*
G02*
X172444001Y-106587499I-250000J0D01*
G01*
X171769001Y-106587499D01*
G75*
G02*
X171519001Y-106337499I0J250000D01*
G01*
X171519001Y-105387499D01*
G75*
G02*
X171769001Y-105137499I250000J0D01*
G01*
X172444001Y-105137499D01*
G75*
G02*
X172694001Y-105387499I0J-250000D01*
G01*
G37*
G04 #@! TD.AperFunction*
G04 #@! TA.AperFunction,SMDPad,CuDef*
G36*
G01*
X170619001Y-105387499D02*
X170619001Y-106337499D01*
G75*
G02*
X170369001Y-106587499I-250000J0D01*
G01*
X169694001Y-106587499D01*
G75*
G02*
X169444001Y-106337499I0J250000D01*
G01*
X169444001Y-105387499D01*
G75*
G02*
X169694001Y-105137499I250000J0D01*
G01*
X170369001Y-105137499D01*
G75*
G02*
X170619001Y-105387499I0J-250000D01*
G01*
G37*
G04 #@! TD.AperFunction*
D13*
X205232000Y-146304000D03*
D14*
X208982000Y-146304000D03*
X207883650Y-148955650D03*
X205232000Y-150054000D03*
X202580350Y-148955650D03*
X201482000Y-146304000D03*
X202580350Y-143652350D03*
X205232000Y-142554000D03*
X207883650Y-143652350D03*
X141843650Y-85930850D03*
X139192000Y-84832500D03*
X136540350Y-85930850D03*
X135442000Y-88582500D03*
X136540350Y-91234150D03*
X139192000Y-92332500D03*
X141843650Y-91234150D03*
X142942000Y-88582500D03*
D13*
X139192000Y-88582500D03*
X205232000Y-88582500D03*
D14*
X208982000Y-88582500D03*
X207883650Y-91234150D03*
X205232000Y-92332500D03*
X202580350Y-91234150D03*
X201482000Y-88582500D03*
X202580350Y-85930850D03*
X205232000Y-84832500D03*
X207883650Y-85930850D03*
D15*
X179070000Y-90170000D03*
D16*
X179070000Y-87630000D03*
X181610000Y-90170000D03*
X181610000Y-87630000D03*
X184150000Y-90170000D03*
X184150000Y-87630000D03*
X186690000Y-90170000D03*
X186690000Y-87630000D03*
X189230000Y-90170000D03*
X189230000Y-87630000D03*
D15*
X165100000Y-90170000D03*
D16*
X165100000Y-87630000D03*
X167640000Y-90170000D03*
X167640000Y-87630000D03*
X170180000Y-90170000D03*
X170180000Y-87630000D03*
D17*
X172995600Y-137464800D03*
X175695600Y-137464800D03*
D18*
X151853900Y-140246100D03*
X154393900Y-140246100D03*
X156933900Y-140246100D03*
D13*
X139192000Y-146304000D03*
D14*
X142942000Y-146304000D03*
X141843650Y-148955650D03*
X139192000Y-150054000D03*
X136540350Y-148955650D03*
X135442000Y-146304000D03*
X136540350Y-143652350D03*
X139192000Y-142554000D03*
X141843650Y-143652350D03*
D19*
X184277000Y-121539000D03*
X184277000Y-140716000D03*
X187198000Y-137668000D03*
X145796000Y-118491000D03*
X154432000Y-122682000D03*
X147193000Y-121666000D03*
X178816000Y-103124000D03*
X170815000Y-95504000D03*
X186690000Y-139700000D03*
X182499000Y-139700000D03*
X186980977Y-121702977D03*
X151257000Y-126492000D03*
X191135000Y-127635000D03*
X193929000Y-127635000D03*
X165735000Y-95123000D03*
X169672000Y-93091000D03*
X164592000Y-94742000D03*
X169799000Y-92202000D03*
X172466000Y-130937000D03*
X155194000Y-123952000D03*
X159766000Y-124714000D03*
X160782000Y-118364000D03*
X173355000Y-116586000D03*
X190182500Y-114744500D03*
X187960000Y-119380000D03*
X190500000Y-133350000D03*
X188087000Y-138557000D03*
X177292000Y-131064000D03*
X180594000Y-115824000D03*
X185928000Y-114554000D03*
X180467000Y-134874000D03*
X185928000Y-133477000D03*
X183896000Y-92329000D03*
X167640000Y-112014000D03*
X154432000Y-119380000D03*
X155638500Y-113093500D03*
X152577800Y-111582200D03*
X169545000Y-132715000D03*
X169608500Y-129857500D03*
X196469000Y-109601000D03*
X156464000Y-107569000D03*
X195135500Y-109664500D03*
X155384500Y-107696000D03*
X207391000Y-129349500D03*
X147320000Y-126174500D03*
X148526500Y-125984000D03*
X155321000Y-131064000D03*
X154368500Y-131508500D03*
X160108900Y-129451100D03*
X199136000Y-112268000D03*
X156870400Y-112941100D03*
X167957500Y-144780000D03*
X178435000Y-108077000D03*
X150368000Y-114046000D03*
X174625000Y-142557500D03*
X164084000Y-142367000D03*
X168148000Y-147066000D03*
X158369000Y-112585500D03*
X197675500Y-111823500D03*
X160299400Y-128435100D03*
D20*
X157458500Y-123190000D02*
X155194000Y-123190000D01*
X155194000Y-123190000D02*
X154940000Y-122936000D01*
X154686000Y-122936000D02*
X154432000Y-122682000D01*
X154940000Y-122936000D02*
X154686000Y-122936000D01*
D21*
X147193000Y-119888000D02*
X145796000Y-118491000D01*
X147193000Y-121666000D02*
X147193000Y-119888000D01*
X176424500Y-103209000D02*
X176509500Y-103124000D01*
X176424500Y-105791000D02*
X176424500Y-103209000D01*
X176509500Y-100792499D02*
X176428001Y-100711000D01*
X176509500Y-103124000D02*
X176509500Y-100792499D01*
X176428001Y-100711000D02*
X176428001Y-98014999D01*
X176509500Y-103124000D02*
X178816000Y-103124000D01*
X170031501Y-103187501D02*
X169968000Y-103124000D01*
X170031501Y-105862499D02*
X170031501Y-103187501D01*
X169968000Y-100774500D02*
X170031500Y-100711000D01*
X169968000Y-103124000D02*
X169968000Y-100774500D01*
X170031500Y-98234500D02*
X169904500Y-98107500D01*
X170031500Y-100711000D02*
X170031500Y-98234500D01*
X169904500Y-98107500D02*
X169904500Y-96668500D01*
X170815000Y-95758000D02*
X170815000Y-95504000D01*
X169904500Y-96668500D02*
X170815000Y-95758000D01*
D22*
X175177991Y-107037509D02*
X176424500Y-105791000D01*
X171206511Y-107037509D02*
X175177991Y-107037509D01*
X170031501Y-105862499D02*
X171206511Y-107037509D01*
X170031501Y-98234501D02*
X169904500Y-98107500D01*
X170031501Y-105862499D02*
X170031501Y-98234501D01*
X176424500Y-98018500D02*
X176428001Y-98014999D01*
X176424500Y-105791000D02*
X176424500Y-98018500D01*
D20*
X186690000Y-139700000D02*
X182499000Y-139700000D01*
X187198000Y-139192000D02*
X186690000Y-139700000D01*
X187198000Y-137668000D02*
X187198000Y-139192000D01*
X183515000Y-140716000D02*
X182499000Y-139700000D01*
X184277000Y-140716000D02*
X183515000Y-140716000D01*
X204866998Y-122500000D02*
X204050000Y-122500000D01*
X206366998Y-124000000D02*
X204866998Y-122500000D01*
X209550000Y-124000000D02*
X206366998Y-124000000D01*
X186817000Y-121539000D02*
X186980977Y-121702977D01*
X184277000Y-121539000D02*
X186817000Y-121539000D01*
D21*
X151257000Y-125730000D02*
X147193000Y-121666000D01*
X151257000Y-126492000D02*
X151257000Y-125730000D01*
X191135000Y-127635000D02*
X193929000Y-127635000D01*
X157458500Y-123190000D02*
X157458500Y-118110000D01*
X167640000Y-95123000D02*
X169672000Y-93091000D01*
X165735000Y-95123000D02*
X167640000Y-95123000D01*
X167259000Y-94742000D02*
X169799000Y-92202000D01*
X164592000Y-94742000D02*
X167259000Y-94742000D01*
X172948600Y-132363300D02*
X172923200Y-132337900D01*
X175437800Y-132363300D02*
X172948600Y-132363300D01*
X172923200Y-132337900D02*
X172923200Y-131394200D01*
X172923200Y-131394200D02*
X172466000Y-130937000D01*
X172466000Y-130937000D02*
X172466000Y-130937000D01*
D20*
X175695600Y-134696100D02*
X175437800Y-134438300D01*
X175695600Y-137464800D02*
X175695600Y-134696100D01*
X172948600Y-134438300D02*
X172923200Y-134412900D01*
X175437800Y-134438300D02*
X172948600Y-134438300D01*
D21*
X172923200Y-134412900D02*
X170169898Y-134412900D01*
X159760899Y-130176101D02*
X158750000Y-129165202D01*
X169972900Y-134412900D02*
X165486110Y-129926110D01*
X170169898Y-134412900D02*
X169972900Y-134412900D01*
X159760899Y-130176101D02*
X155194000Y-125609202D01*
X160456901Y-130176101D02*
X159760899Y-130176101D01*
X160706892Y-129926110D02*
X160456901Y-130176101D01*
X165486110Y-129926110D02*
X160706892Y-129926110D01*
X155194000Y-125609202D02*
X155194000Y-123952000D01*
X155194000Y-123952000D02*
X155194000Y-123952000D01*
X159766000Y-123422500D02*
X159533500Y-123190000D01*
X159766000Y-124714000D02*
X159766000Y-123422500D01*
X159787500Y-118364000D02*
X159533500Y-118110000D01*
X160782000Y-118364000D02*
X159787500Y-118364000D01*
D22*
X209550000Y-127000000D02*
X212090000Y-127000000D01*
X212090000Y-127000000D02*
X212852000Y-126238000D01*
X180370001Y-86329999D02*
X179070000Y-87630000D01*
X192754497Y-86329999D02*
X180370001Y-86329999D01*
X208532498Y-102108000D02*
X192754497Y-86329999D01*
X208534000Y-102108000D02*
X212852000Y-106426000D01*
X208532498Y-102108000D02*
X208534000Y-102108000D01*
X212852000Y-126238000D02*
X212852000Y-106426000D01*
D20*
X190182500Y-117157500D02*
X187960000Y-119380000D01*
X190182500Y-114744500D02*
X190182500Y-117157500D01*
X187960000Y-119380000D02*
X178435000Y-119380000D01*
X175641000Y-116586000D02*
X173355000Y-116586000D01*
X178435000Y-119380000D02*
X175641000Y-116586000D01*
D21*
X188214000Y-131064000D02*
X190500000Y-133350000D01*
X177292000Y-131064000D02*
X188214000Y-131064000D01*
D20*
X190500000Y-136144000D02*
X188087000Y-138557000D01*
X190500000Y-133350000D02*
X190500000Y-136144000D01*
X181864000Y-114554000D02*
X180594000Y-115824000D01*
X185928000Y-114554000D02*
X181864000Y-114554000D01*
X181864000Y-133477000D02*
X180467000Y-134874000D01*
X185928000Y-133477000D02*
X181864000Y-133477000D01*
X181737000Y-90170000D02*
X181610000Y-90170000D01*
X183896000Y-92329000D02*
X181737000Y-90170000D01*
D21*
X167640000Y-112014000D02*
X167132000Y-112522000D01*
X167132000Y-112522000D02*
X167132000Y-115824000D01*
X167132000Y-115824000D02*
X166624000Y-116332000D01*
X166624000Y-116332000D02*
X166370000Y-116586000D01*
X166370000Y-116586000D02*
X156464000Y-116586000D01*
X156464000Y-116586000D02*
X154432000Y-118618000D01*
X154432000Y-118618000D02*
X154432000Y-119380000D01*
X154432000Y-119380000D02*
X154432000Y-119380000D01*
X155829000Y-111887000D02*
X155524200Y-111582200D01*
X155524200Y-111582200D02*
X152577800Y-111582200D01*
X152577800Y-111582200D02*
X152552400Y-111582200D01*
X155829000Y-112903000D02*
X155638500Y-113093500D01*
X155829000Y-111887000D02*
X155829000Y-112903000D01*
D20*
X201550000Y-115000000D02*
X199707000Y-113157000D01*
X199707000Y-113157000D02*
X169689240Y-113157000D01*
X168775010Y-114071230D02*
X168775010Y-129103490D01*
X169689240Y-113157000D02*
X168775010Y-114071230D01*
X168858499Y-129678999D02*
X168858499Y-132028499D01*
X168775010Y-129595510D02*
X168858499Y-129678999D01*
X168775010Y-129103490D02*
X168775010Y-129595510D01*
X168858499Y-132028499D02*
X169545000Y-132715000D01*
X169545000Y-132715000D02*
X169545000Y-132715000D01*
X201550000Y-118000000D02*
X200025000Y-116475000D01*
X200025000Y-114236500D02*
X199445510Y-113657010D01*
X200025000Y-116475000D02*
X200025000Y-114236500D01*
X199445510Y-113657010D02*
X191523990Y-113657010D01*
X191523990Y-113657010D02*
X169896350Y-113657010D01*
X169896350Y-113657010D02*
X169275020Y-114278340D01*
X169608500Y-128841500D02*
X169275020Y-128508020D01*
X169608500Y-129857500D02*
X169608500Y-128841500D01*
X169275020Y-114278340D02*
X169275020Y-128508020D01*
X195782499Y-108914499D02*
X157618999Y-108914499D01*
X196469000Y-109601000D02*
X195782499Y-108914499D01*
X157618999Y-108914499D02*
X156464000Y-107759500D01*
X156464000Y-107759500D02*
X156464000Y-107569000D01*
X156464000Y-107569000D02*
X156464000Y-107569000D01*
X195135500Y-109664500D02*
X157353000Y-109664500D01*
X157353000Y-109664500D02*
X155384500Y-107696000D01*
X155384500Y-107696000D02*
X155384500Y-107696000D01*
X147320000Y-128723120D02*
X164525291Y-145928411D01*
X147320000Y-126174500D02*
X147320000Y-126174500D01*
X190381311Y-145928411D02*
X206134722Y-130175000D01*
X164525291Y-145928411D02*
X190381311Y-145928411D01*
X206565500Y-130175000D02*
X207391000Y-129349500D01*
X206134722Y-130175000D02*
X206565500Y-130175000D01*
X147320000Y-126174500D02*
X147320000Y-128723120D01*
X148082000Y-128778000D02*
X148082000Y-126428500D01*
X164732401Y-145428401D02*
X148082000Y-128778000D01*
X190174201Y-145428401D02*
X164732401Y-145428401D01*
X207050000Y-128552602D02*
X190174201Y-145428401D01*
X148082000Y-126428500D02*
X148526500Y-125984000D01*
X207050000Y-125500000D02*
X207050000Y-128552602D01*
X201550000Y-121000000D02*
X199481983Y-123068017D01*
X199481983Y-133131017D02*
X189039500Y-143573500D01*
X199481983Y-123068017D02*
X199481983Y-133131017D01*
X189039500Y-143573500D02*
X164291740Y-143573500D01*
X155257500Y-134539260D02*
X155257500Y-132397500D01*
X164291740Y-143573500D02*
X155257500Y-134539260D01*
X155257500Y-132397500D02*
X155257500Y-131953000D01*
X155257500Y-131953000D02*
X155257500Y-131381500D01*
X155257500Y-131381500D02*
X155257500Y-131064000D01*
X155257500Y-131064000D02*
X155257500Y-131064000D01*
X155257500Y-131064000D02*
X155257500Y-131064000D01*
X200074999Y-125475001D02*
X200074999Y-133363501D01*
X201550000Y-124000000D02*
X200074999Y-125475001D01*
X200019097Y-133363501D02*
X189301098Y-144081500D01*
X200074999Y-133363501D02*
X200019097Y-133363501D01*
X189301098Y-144081500D02*
X164092620Y-144081500D01*
X164092620Y-144081500D02*
X154749500Y-134738380D01*
X154749500Y-134738380D02*
X154749500Y-131953000D01*
X154749500Y-131953000D02*
X154749500Y-131889500D01*
X154749500Y-131889500D02*
X154368500Y-131508500D01*
X154368500Y-131508500D02*
X154368500Y-131508500D01*
X198830499Y-112573501D02*
X199136000Y-112268000D01*
X169565619Y-112573501D02*
X198830499Y-112573501D01*
X168275000Y-113864120D02*
X169565619Y-112573501D01*
X168275000Y-126627620D02*
X168275000Y-113864120D01*
X165451520Y-129451100D02*
X168275000Y-126627620D01*
X160108900Y-129451100D02*
X165451520Y-129451100D01*
X159311500Y-110500000D02*
X156870400Y-112941100D01*
X159311500Y-110500000D02*
X157575250Y-112236250D01*
X204050000Y-110500000D02*
X159311500Y-110500000D01*
X157575250Y-112236250D02*
X156870400Y-112941100D01*
D22*
X201550000Y-127000000D02*
X201550000Y-132942600D01*
X189814200Y-144678400D02*
X189814200Y-144678400D01*
X189814200Y-144678400D02*
X189552740Y-144678400D01*
X189811090Y-144681510D02*
X190074550Y-144418050D01*
X168246490Y-144681510D02*
X189811090Y-144681510D01*
X168148000Y-144780000D02*
X168246490Y-144681510D01*
X167957500Y-144780000D02*
X168148000Y-144780000D01*
X190074550Y-144418050D02*
X189814200Y-144678400D01*
X201550000Y-132942600D02*
X190074550Y-144418050D01*
D20*
X171979500Y-100584000D02*
X172106500Y-100711000D01*
X171979500Y-98107500D02*
X171979500Y-100584000D01*
X172106500Y-103060500D02*
X172043000Y-103124000D01*
X172106500Y-100711000D02*
X172106500Y-103060500D01*
X172043000Y-105798998D02*
X172106501Y-105862499D01*
X172043000Y-103124000D02*
X172043000Y-105798998D01*
X174353001Y-98014999D02*
X174353001Y-100711000D01*
X174353001Y-103042501D02*
X174434500Y-103124000D01*
X174353001Y-100711000D02*
X174353001Y-103042501D01*
X174434500Y-105706000D02*
X174349500Y-105791000D01*
X174434500Y-103124000D02*
X174434500Y-105706000D01*
X174260500Y-98107500D02*
X174353001Y-98014999D01*
X171979500Y-98107500D02*
X174260500Y-98107500D01*
X188029999Y-88830001D02*
X189230000Y-87630000D01*
X167640000Y-87630000D02*
X168840001Y-88830001D01*
X210233002Y-119500000D02*
X210240002Y-119507000D01*
X207050000Y-119500000D02*
X210233002Y-119500000D01*
X211391500Y-119507000D02*
X212251990Y-118646510D01*
X210240002Y-119507000D02*
X211391500Y-119507000D01*
X212251990Y-118646510D02*
X212251990Y-106674532D01*
X212251990Y-106674532D02*
X210173479Y-104596021D01*
X207050000Y-108909010D02*
X210173479Y-105785531D01*
X207050000Y-110500000D02*
X207050000Y-108909010D01*
D22*
X210173479Y-105040521D02*
X210173479Y-104738943D01*
D20*
X210173479Y-105785531D02*
X210173479Y-105040521D01*
X210173479Y-105040521D02*
X210173479Y-104596021D01*
D22*
X193064536Y-87630000D02*
X189230000Y-87630000D01*
X210173479Y-104738943D02*
X193064536Y-87630000D01*
X178060499Y-88830001D02*
X178117500Y-88773000D01*
X171126001Y-88830001D02*
X178060499Y-88830001D01*
D20*
X168840001Y-88830001D02*
X171126001Y-88830001D01*
D22*
X174745501Y-97622499D02*
X174353001Y-98014999D01*
D20*
X171126001Y-88830001D02*
X174745501Y-88830001D01*
X174745501Y-88830001D02*
X188029999Y-88830001D01*
D22*
X178308000Y-108204000D02*
X178435000Y-108077000D01*
X176762500Y-108204000D02*
X178308000Y-108204000D01*
X178435000Y-108077000D02*
X158623000Y-108077000D01*
X158623000Y-108077000D02*
X156908500Y-106362500D01*
X156908500Y-106362500D02*
X155459998Y-106362500D01*
X155459998Y-106362500D02*
X153733500Y-106362500D01*
X153733500Y-106362500D02*
X150368000Y-109728000D01*
X150368000Y-109728000D02*
X150368000Y-114046000D01*
X150368000Y-114046000D02*
X150368000Y-114046000D01*
D20*
X150368000Y-121454967D02*
X150368000Y-114046000D01*
X166377833Y-137464800D02*
X150368000Y-121454967D01*
X172995600Y-137464800D02*
X166377833Y-137464800D01*
D22*
X179666001Y-99450533D02*
X176862468Y-96647000D01*
X179666001Y-106845999D02*
X179666001Y-99450533D01*
X178435000Y-108077000D02*
X179666001Y-106845999D01*
X175374002Y-96647000D02*
X174745501Y-96018499D01*
X176862468Y-96647000D02*
X175374002Y-96647000D01*
X174745501Y-96018499D02*
X174745501Y-97622499D01*
X174745501Y-88830001D02*
X174745501Y-96018499D01*
X163753800Y-147066000D02*
X156933900Y-140246100D01*
X168148000Y-147066000D02*
X163753800Y-147066000D01*
X174561500Y-142494000D02*
X174625000Y-142557500D01*
X164084000Y-142494000D02*
X174561500Y-142494000D01*
D21*
X199861001Y-111919999D02*
X199066002Y-111125000D01*
X200745000Y-113500000D02*
X199861001Y-112616001D01*
X199066002Y-111125000D02*
X198882000Y-111125000D01*
X204050000Y-113500000D02*
X200745000Y-113500000D01*
X199861001Y-112616001D02*
X199861001Y-111919999D01*
D20*
X159829500Y-111125000D02*
X198882000Y-111125000D01*
D21*
X159829500Y-111125000D02*
X158369000Y-112585500D01*
D20*
X197675500Y-111823500D02*
X169608500Y-111823500D01*
X169608500Y-111823500D02*
X167767000Y-113665000D01*
X167767000Y-113665000D02*
X167767000Y-126428500D01*
X165760400Y-128435100D02*
X160299400Y-128435100D01*
X167767000Y-126428500D02*
X165760400Y-128435100D01*
M02*
