%FSLAX45Y45*%
G04 Gerber Fmt 4.5, Leading zero omitted, Abs format (unit mm)*
G04 Created by KiCad (PCBNEW (5.1.12)-1) date 2022-07-24 10:45:52*
%MOMM*%
%LPD*%
G01*
G04 APERTURE LIST*
%TA.AperFunction,Profile*%
%ADD10C,0.050000*%
%TD*%
%ADD11C,0.200000*%
%ADD12C,0.300000*%
G04 APERTURE END LIST*
D10*
X12954000Y-8890000D02*
X12954000Y-8636000D01*
X12954000Y-14732000D02*
X12954000Y-8890000D01*
X21590000Y-15494000D02*
X13716000Y-15494000D01*
X13716000Y-15494000D02*
G75*
G02*
X12954000Y-14732000I0J762000D01*
G01*
X12954000Y-8636000D02*
G75*
G02*
X13716000Y-7874000I762000J0D01*
G01*
X21082000Y-7874000D02*
X13716000Y-7874000D01*
X21082000Y-7874000D02*
G75*
G02*
X22352000Y-9144000I0J-1270000D01*
G01*
X22383269Y-14478000D02*
X22352000Y-9144000D01*
X22383269Y-14478000D02*
G75*
G02*
X21590000Y-15494000I-1047269J0D01*
G01*
D11*
X14559600Y-11829100D02*
X14599600Y-11869100D01*
X14599600Y-11829100D02*
X14559600Y-11869100D01*
X14699300Y-12146600D02*
X14739300Y-12186600D01*
X14739300Y-12146600D02*
X14699300Y-12186600D01*
X14712000Y-12597450D02*
X14752000Y-12637450D01*
X14752000Y-12597450D02*
X14712000Y-12637450D01*
X14832650Y-12578400D02*
X14872650Y-12618400D01*
X14872650Y-12578400D02*
X14832650Y-12618400D01*
X15016800Y-11384600D02*
X15056800Y-11424600D01*
X15056800Y-11384600D02*
X15016800Y-11424600D01*
X15105700Y-12629200D02*
X15145700Y-12669200D01*
X15145700Y-12629200D02*
X15105700Y-12669200D01*
X15237780Y-11138220D02*
X15277780Y-11178220D01*
X15277780Y-11138220D02*
X15237780Y-11178220D01*
X15416850Y-13130850D02*
X15456850Y-13170850D01*
X15456850Y-13130850D02*
X15416850Y-13170850D01*
X15423200Y-11918000D02*
X15463200Y-11958000D01*
X15463200Y-11918000D02*
X15423200Y-11958000D01*
X15423200Y-12248200D02*
X15463200Y-12288200D01*
X15463200Y-12248200D02*
X15423200Y-12288200D01*
X15499400Y-12375200D02*
X15539400Y-12415200D01*
X15539400Y-12375200D02*
X15499400Y-12415200D01*
X15512100Y-13086400D02*
X15552100Y-13126400D01*
X15552100Y-13086400D02*
X15512100Y-13126400D01*
X15518450Y-10749600D02*
X15558450Y-10789600D01*
X15558450Y-10749600D02*
X15518450Y-10789600D01*
X15543850Y-11289350D02*
X15583850Y-11329350D01*
X15583850Y-11289350D02*
X15543850Y-11329350D01*
X15626400Y-10736900D02*
X15666400Y-10776900D01*
X15666400Y-10736900D02*
X15626400Y-10776900D01*
X15667040Y-11274110D02*
X15707040Y-11314110D01*
X15707040Y-11274110D02*
X15667040Y-11314110D01*
X15816900Y-11238550D02*
X15856900Y-11278550D01*
X15856900Y-11238550D02*
X15816900Y-11278550D01*
X15956600Y-12451400D02*
X15996600Y-12491400D01*
X15996600Y-12451400D02*
X15956600Y-12491400D01*
X15990890Y-12925110D02*
X16030890Y-12965110D01*
X16030890Y-12925110D02*
X15990890Y-12965110D01*
X16009940Y-12823510D02*
X16049940Y-12863510D01*
X16049940Y-12823510D02*
X16009940Y-12863510D01*
X16058200Y-11816400D02*
X16098200Y-11856400D01*
X16098200Y-11816400D02*
X16058200Y-11856400D01*
X16388400Y-14216700D02*
X16428400Y-14256700D01*
X16428400Y-14216700D02*
X16388400Y-14256700D01*
X16439200Y-9454200D02*
X16479200Y-9494200D01*
X16479200Y-9454200D02*
X16439200Y-9494200D01*
X16553500Y-9492300D02*
X16593500Y-9532300D01*
X16593500Y-9492300D02*
X16553500Y-9532300D01*
X16744000Y-11181400D02*
X16784000Y-11221400D01*
X16784000Y-11181400D02*
X16744000Y-11221400D01*
X16775750Y-14458000D02*
X16815750Y-14498000D01*
X16815750Y-14458000D02*
X16775750Y-14498000D01*
X16794800Y-14686600D02*
X16834800Y-14726600D01*
X16834800Y-14686600D02*
X16794800Y-14726600D01*
X16934500Y-13251500D02*
X16974500Y-13291500D01*
X16974500Y-13251500D02*
X16934500Y-13291500D01*
X16940850Y-12965750D02*
X16980850Y-13005750D01*
X16980850Y-12965750D02*
X16940850Y-13005750D01*
X16947200Y-9289100D02*
X16987200Y-9329100D01*
X16987200Y-9289100D02*
X16947200Y-9329100D01*
X16959900Y-9200200D02*
X16999900Y-9240200D01*
X16999900Y-9200200D02*
X16959900Y-9240200D01*
X17061500Y-9530400D02*
X17101500Y-9570400D01*
X17101500Y-9530400D02*
X17061500Y-9570400D01*
X17226600Y-13073700D02*
X17266600Y-13113700D01*
X17266600Y-13073700D02*
X17226600Y-13113700D01*
X17315500Y-11638600D02*
X17355500Y-11678600D01*
X17355500Y-11638600D02*
X17315500Y-11678600D01*
X17442500Y-14235750D02*
X17482500Y-14275750D01*
X17482500Y-14235750D02*
X17442500Y-14275750D01*
X17709200Y-13086400D02*
X17749200Y-13126400D01*
X17749200Y-13086400D02*
X17709200Y-13126400D01*
X17823500Y-10787700D02*
X17863500Y-10827700D01*
X17863500Y-10787700D02*
X17823500Y-10827700D01*
X17861600Y-10292400D02*
X17901600Y-10332400D01*
X17901600Y-10292400D02*
X17861600Y-10332400D01*
X18026700Y-13467400D02*
X18066700Y-13507400D01*
X18066700Y-13467400D02*
X18026700Y-13507400D01*
X18039400Y-11562400D02*
X18079400Y-11602400D01*
X18079400Y-11562400D02*
X18039400Y-11602400D01*
X18229900Y-13950000D02*
X18269900Y-13990000D01*
X18269900Y-13950000D02*
X18229900Y-13990000D01*
X18369600Y-9212900D02*
X18409600Y-9252900D01*
X18409600Y-9212900D02*
X18369600Y-9252900D01*
X18407700Y-12133900D02*
X18447700Y-12173900D01*
X18447700Y-12133900D02*
X18407700Y-12173900D01*
X18407700Y-14051600D02*
X18447700Y-14091600D01*
X18447700Y-14051600D02*
X18407700Y-14091600D01*
X18572800Y-11435400D02*
X18612800Y-11475400D01*
X18612800Y-11435400D02*
X18572800Y-11475400D01*
X18572800Y-13327700D02*
X18612800Y-13367700D01*
X18612800Y-13327700D02*
X18572800Y-13367700D01*
X18649000Y-13950000D02*
X18689000Y-13990000D01*
X18689000Y-13950000D02*
X18649000Y-13990000D01*
X18678098Y-12150298D02*
X18718098Y-12190298D01*
X18718098Y-12150298D02*
X18678098Y-12190298D01*
X18699800Y-13746800D02*
X18739800Y-13786800D01*
X18739800Y-13746800D02*
X18699800Y-13786800D01*
X18776000Y-11918000D02*
X18816000Y-11958000D01*
X18816000Y-11918000D02*
X18776000Y-11958000D01*
X18788700Y-13835700D02*
X18828700Y-13875700D01*
X18828700Y-13835700D02*
X18788700Y-13875700D01*
X18998250Y-11454450D02*
X19038250Y-11494450D01*
X19038250Y-11454450D02*
X18998250Y-11494450D01*
X19030000Y-13315000D02*
X19070000Y-13355000D01*
X19070000Y-13315000D02*
X19030000Y-13355000D01*
X19093500Y-12743500D02*
X19133500Y-12783500D01*
X19133500Y-12743500D02*
X19093500Y-12783500D01*
X19372900Y-12743500D02*
X19412900Y-12783500D01*
X19412900Y-12743500D02*
X19372900Y-12783500D01*
X19493550Y-10946450D02*
X19533550Y-10986450D01*
X19533550Y-10946450D02*
X19493550Y-10986450D01*
X19626900Y-10940100D02*
X19666900Y-10980100D01*
X19666900Y-10940100D02*
X19626900Y-10980100D01*
X19747550Y-11162350D02*
X19787550Y-11202350D01*
X19787550Y-11162350D02*
X19747550Y-11202350D01*
X19893600Y-11206800D02*
X19933600Y-11246800D01*
X19933600Y-11206800D02*
X19893600Y-11246800D01*
X20719100Y-12914950D02*
X20759100Y-12954950D01*
X20759100Y-12914950D02*
X20719100Y-12954950D01*
X13574200Y-8858250D02*
G75*
G03*
X13574200Y-8858250I-30000J0D01*
G01*
X13574200Y-14630400D02*
G75*
G03*
X13574200Y-14630400I-30000J0D01*
G01*
X13684035Y-8593085D02*
G75*
G03*
X13684035Y-8593085I-30000J0D01*
G01*
X13684035Y-9123415D02*
G75*
G03*
X13684035Y-9123415I-30000J0D01*
G01*
X13684035Y-14365235D02*
G75*
G03*
X13684035Y-14365235I-30000J0D01*
G01*
X13684035Y-14895565D02*
G75*
G03*
X13684035Y-14895565I-30000J0D01*
G01*
X13949200Y-8483250D02*
G75*
G03*
X13949200Y-8483250I-30000J0D01*
G01*
X13949200Y-9233250D02*
G75*
G03*
X13949200Y-9233250I-30000J0D01*
G01*
X13949200Y-14255400D02*
G75*
G03*
X13949200Y-14255400I-30000J0D01*
G01*
X13949200Y-15005400D02*
G75*
G03*
X13949200Y-15005400I-30000J0D01*
G01*
X14214365Y-8593085D02*
G75*
G03*
X14214365Y-8593085I-30000J0D01*
G01*
X14214365Y-9123415D02*
G75*
G03*
X14214365Y-9123415I-30000J0D01*
G01*
X14214365Y-14365235D02*
G75*
G03*
X14214365Y-14365235I-30000J0D01*
G01*
X14214365Y-14895565D02*
G75*
G03*
X14214365Y-14895565I-30000J0D01*
G01*
X14324200Y-8858250D02*
G75*
G03*
X14324200Y-8858250I-30000J0D01*
G01*
X14324200Y-14630400D02*
G75*
G03*
X14324200Y-14630400I-30000J0D01*
G01*
X20178200Y-8858250D02*
G75*
G03*
X20178200Y-8858250I-30000J0D01*
G01*
X20178200Y-14630400D02*
G75*
G03*
X20178200Y-14630400I-30000J0D01*
G01*
X20288035Y-8593085D02*
G75*
G03*
X20288035Y-8593085I-30000J0D01*
G01*
X20288035Y-9123415D02*
G75*
G03*
X20288035Y-9123415I-30000J0D01*
G01*
X20288035Y-14365235D02*
G75*
G03*
X20288035Y-14365235I-30000J0D01*
G01*
X20288035Y-14895565D02*
G75*
G03*
X20288035Y-14895565I-30000J0D01*
G01*
X20553200Y-8483250D02*
G75*
G03*
X20553200Y-8483250I-30000J0D01*
G01*
X20553200Y-9233250D02*
G75*
G03*
X20553200Y-9233250I-30000J0D01*
G01*
X20553200Y-14255400D02*
G75*
G03*
X20553200Y-14255400I-30000J0D01*
G01*
X20553200Y-15005400D02*
G75*
G03*
X20553200Y-15005400I-30000J0D01*
G01*
X20818365Y-8593085D02*
G75*
G03*
X20818365Y-8593085I-30000J0D01*
G01*
X20818365Y-9123415D02*
G75*
G03*
X20818365Y-9123415I-30000J0D01*
G01*
X20818365Y-14365235D02*
G75*
G03*
X20818365Y-14365235I-30000J0D01*
G01*
X20818365Y-14895565D02*
G75*
G03*
X20818365Y-14895565I-30000J0D01*
G01*
X20928200Y-8858250D02*
G75*
G03*
X20928200Y-8858250I-30000J0D01*
G01*
X20928200Y-14630400D02*
G75*
G03*
X20928200Y-14630400I-30000J0D01*
G01*
X15185390Y-13984610D02*
X15185390Y-14064610D01*
X15145390Y-14024610D02*
X15225390Y-14024610D01*
X15439390Y-13984610D02*
X15439390Y-14064610D01*
X15399390Y-14024610D02*
X15479390Y-14024610D01*
X15693390Y-13984610D02*
X15693390Y-14064610D01*
X15653390Y-14024610D02*
X15733390Y-14024610D01*
X16545356Y-8798356D02*
X16545356Y-8727644D01*
X16474644Y-8727644D01*
X16474644Y-8798356D01*
X16545356Y-8798356D01*
X16545356Y-9052356D02*
X16545356Y-8981644D01*
X16474644Y-8981644D01*
X16474644Y-9052356D01*
X16545356Y-9052356D01*
X16799356Y-8798356D02*
X16799356Y-8727644D01*
X16728644Y-8727644D01*
X16728644Y-8798356D01*
X16799356Y-8798356D01*
X16799356Y-9052356D02*
X16799356Y-8981644D01*
X16728644Y-8981644D01*
X16728644Y-9052356D01*
X16799356Y-9052356D01*
X17053356Y-8798356D02*
X17053356Y-8727644D01*
X16982644Y-8727644D01*
X16982644Y-8798356D01*
X17053356Y-8798356D01*
X17053356Y-9052356D02*
X17053356Y-8981644D01*
X16982644Y-8981644D01*
X16982644Y-9052356D01*
X17053356Y-9052356D01*
X17942356Y-8798356D02*
X17942356Y-8727644D01*
X17871644Y-8727644D01*
X17871644Y-8798356D01*
X17942356Y-8798356D01*
X17942356Y-9052356D02*
X17942356Y-8981644D01*
X17871644Y-8981644D01*
X17871644Y-9052356D01*
X17942356Y-9052356D01*
X18196356Y-8798356D02*
X18196356Y-8727644D01*
X18125644Y-8727644D01*
X18125644Y-8798356D01*
X18196356Y-8798356D01*
X18196356Y-9052356D02*
X18196356Y-8981644D01*
X18125644Y-8981644D01*
X18125644Y-9052356D01*
X18196356Y-9052356D01*
X18450356Y-8798356D02*
X18450356Y-8727644D01*
X18379644Y-8727644D01*
X18379644Y-8798356D01*
X18450356Y-8798356D01*
X18450356Y-9052356D02*
X18450356Y-8981644D01*
X18379644Y-8981644D01*
X18379644Y-9052356D01*
X18450356Y-9052356D01*
X18704356Y-8798356D02*
X18704356Y-8727644D01*
X18633644Y-8727644D01*
X18633644Y-8798356D01*
X18704356Y-8798356D01*
X18704356Y-9052356D02*
X18704356Y-8981644D01*
X18633644Y-8981644D01*
X18633644Y-9052356D01*
X18704356Y-9052356D01*
X18958356Y-8798356D02*
X18958356Y-8727644D01*
X18887644Y-8727644D01*
X18887644Y-8798356D01*
X18958356Y-8798356D01*
X18958356Y-9052356D02*
X18958356Y-8981644D01*
X18887644Y-8981644D01*
X18887644Y-9052356D01*
X18958356Y-9052356D01*
X20155000Y-10975000D02*
X20230000Y-10900000D01*
X20155000Y-10825000D01*
X20080000Y-10900000D01*
X20155000Y-10975000D01*
X20155000Y-11275000D02*
X20230000Y-11200000D01*
X20155000Y-11125000D01*
X20080000Y-11200000D01*
X20155000Y-11275000D01*
X20155000Y-11575000D02*
X20230000Y-11500000D01*
X20155000Y-11425000D01*
X20080000Y-11500000D01*
X20155000Y-11575000D01*
X20155000Y-11875000D02*
X20230000Y-11800000D01*
X20155000Y-11725000D01*
X20080000Y-11800000D01*
X20155000Y-11875000D01*
X20155000Y-12175000D02*
X20230000Y-12100000D01*
X20155000Y-12025000D01*
X20080000Y-12100000D01*
X20155000Y-12175000D01*
X20155000Y-12475000D02*
X20230000Y-12400000D01*
X20155000Y-12325000D01*
X20080000Y-12400000D01*
X20155000Y-12475000D01*
X20155000Y-12775000D02*
X20230000Y-12700000D01*
X20155000Y-12625000D01*
X20080000Y-12700000D01*
X20155000Y-12775000D01*
X20405000Y-11125000D02*
X20480000Y-11050000D01*
X20405000Y-10975000D01*
X20330000Y-11050000D01*
X20405000Y-11125000D01*
X20405000Y-11425000D02*
X20480000Y-11350000D01*
X20405000Y-11275000D01*
X20330000Y-11350000D01*
X20405000Y-11425000D01*
X20405000Y-11725000D02*
X20480000Y-11650000D01*
X20405000Y-11575000D01*
X20330000Y-11650000D01*
X20405000Y-11725000D01*
X20405000Y-12025000D02*
X20480000Y-11950000D01*
X20405000Y-11875000D01*
X20330000Y-11950000D01*
X20405000Y-12025000D01*
X20405000Y-12325000D02*
X20480000Y-12250000D01*
X20405000Y-12175000D01*
X20330000Y-12250000D01*
X20405000Y-12325000D01*
X20405000Y-12625000D02*
X20480000Y-12550000D01*
X20405000Y-12475000D01*
X20330000Y-12550000D01*
X20405000Y-12625000D01*
X20705000Y-11125000D02*
X20780000Y-11050000D01*
X20705000Y-10975000D01*
X20630000Y-11050000D01*
X20705000Y-11125000D01*
X20705000Y-11425000D02*
X20780000Y-11350000D01*
X20705000Y-11275000D01*
X20630000Y-11350000D01*
X20705000Y-11425000D01*
X20705000Y-11725000D02*
X20780000Y-11650000D01*
X20705000Y-11575000D01*
X20630000Y-11650000D01*
X20705000Y-11725000D01*
X20705000Y-12025000D02*
X20780000Y-11950000D01*
X20705000Y-11875000D01*
X20630000Y-11950000D01*
X20705000Y-12025000D01*
X20705000Y-12325000D02*
X20780000Y-12250000D01*
X20705000Y-12175000D01*
X20630000Y-12250000D01*
X20705000Y-12325000D01*
X20705000Y-12625000D02*
X20780000Y-12550000D01*
X20705000Y-12475000D01*
X20630000Y-12550000D01*
X20705000Y-12625000D01*
X20955000Y-10975000D02*
X21030000Y-10900000D01*
X20955000Y-10825000D01*
X20880000Y-10900000D01*
X20955000Y-10975000D01*
X20955000Y-11275000D02*
X21030000Y-11200000D01*
X20955000Y-11125000D01*
X20880000Y-11200000D01*
X20955000Y-11275000D01*
X20955000Y-11575000D02*
X21030000Y-11500000D01*
X20955000Y-11425000D01*
X20880000Y-11500000D01*
X20955000Y-11575000D01*
X20955000Y-11875000D02*
X21030000Y-11800000D01*
X20955000Y-11725000D01*
X20880000Y-11800000D01*
X20955000Y-11875000D01*
X20955000Y-12175000D02*
X21030000Y-12100000D01*
X20955000Y-12025000D01*
X20880000Y-12100000D01*
X20955000Y-12175000D01*
X20955000Y-12475000D02*
X21030000Y-12400000D01*
X20955000Y-12325000D01*
X20880000Y-12400000D01*
X20955000Y-12475000D01*
X20955000Y-12775000D02*
X21030000Y-12700000D01*
X20955000Y-12625000D01*
X20880000Y-12700000D01*
X20955000Y-12775000D01*
X21435000Y-10005000D02*
X21775000Y-10345000D01*
X21775000Y-10005000D02*
X21435000Y-10345000D01*
X21775000Y-10175000D02*
G75*
G03*
X21775000Y-10175000I-170000J0D01*
G01*
X21435000Y-13255000D02*
X21775000Y-13595000D01*
X21775000Y-13255000D02*
X21435000Y-13595000D01*
X21775000Y-13425000D02*
G75*
G03*
X21775000Y-13425000I-170000J0D01*
G01*
X13669200Y-8608250D02*
X14169200Y-9108250D01*
X14169200Y-8608250D02*
X13669200Y-9108250D01*
X13919200Y-8608250D02*
X13919200Y-9108250D01*
X13669200Y-8858250D02*
X14169200Y-8858250D01*
X13669200Y-14380400D02*
X14169200Y-14880400D01*
X14169200Y-14380400D02*
X13669200Y-14880400D01*
X13919200Y-14380400D02*
X13919200Y-14880400D01*
X13669200Y-14630400D02*
X14169200Y-14630400D01*
X20273200Y-8608250D02*
X20773200Y-9108250D01*
X20773200Y-8608250D02*
X20273200Y-9108250D01*
X20523200Y-8608250D02*
X20523200Y-9108250D01*
X20273200Y-8858250D02*
X20773200Y-8858250D01*
X20273200Y-14380400D02*
X20773200Y-14880400D01*
X20773200Y-14380400D02*
X20273200Y-14880400D01*
X20523200Y-14380400D02*
X20523200Y-14880400D01*
X20273200Y-14630400D02*
X20773200Y-14630400D01*
D12*
X13237928Y-15962214D02*
X13237928Y-15662214D01*
X13309357Y-15662214D01*
X13352214Y-15676500D01*
X13380786Y-15705071D01*
X13395071Y-15733643D01*
X13409357Y-15790786D01*
X13409357Y-15833643D01*
X13395071Y-15890786D01*
X13380786Y-15919357D01*
X13352214Y-15947929D01*
X13309357Y-15962214D01*
X13237928Y-15962214D01*
X13537928Y-15962214D02*
X13537928Y-15762214D01*
X13537928Y-15819357D02*
X13552214Y-15790786D01*
X13566500Y-15776500D01*
X13595071Y-15762214D01*
X13623643Y-15762214D01*
X13723643Y-15962214D02*
X13723643Y-15762214D01*
X13723643Y-15662214D02*
X13709357Y-15676500D01*
X13723643Y-15690786D01*
X13737928Y-15676500D01*
X13723643Y-15662214D01*
X13723643Y-15690786D01*
X13909357Y-15962214D02*
X13880786Y-15947929D01*
X13866500Y-15919357D01*
X13866500Y-15662214D01*
X14066500Y-15962214D02*
X14037928Y-15947929D01*
X14023643Y-15919357D01*
X14023643Y-15662214D01*
X14409357Y-15962214D02*
X14409357Y-15662214D01*
X14509357Y-15876500D01*
X14609357Y-15662214D01*
X14609357Y-15962214D01*
X14880786Y-15962214D02*
X14880786Y-15805071D01*
X14866500Y-15776500D01*
X14837928Y-15762214D01*
X14780786Y-15762214D01*
X14752214Y-15776500D01*
X14880786Y-15947929D02*
X14852214Y-15962214D01*
X14780786Y-15962214D01*
X14752214Y-15947929D01*
X14737928Y-15919357D01*
X14737928Y-15890786D01*
X14752214Y-15862214D01*
X14780786Y-15847929D01*
X14852214Y-15847929D01*
X14880786Y-15833643D01*
X15023643Y-15762214D02*
X15023643Y-16062214D01*
X15023643Y-15776500D02*
X15052214Y-15762214D01*
X15109357Y-15762214D01*
X15137928Y-15776500D01*
X15152214Y-15790786D01*
X15166500Y-15819357D01*
X15166500Y-15905071D01*
X15152214Y-15933643D01*
X15137928Y-15947929D01*
X15109357Y-15962214D01*
X15052214Y-15962214D01*
X15023643Y-15947929D01*
X15295071Y-15933643D02*
X15309357Y-15947929D01*
X15295071Y-15962214D01*
X15280786Y-15947929D01*
X15295071Y-15933643D01*
X15295071Y-15962214D01*
X15295071Y-15776500D02*
X15309357Y-15790786D01*
X15295071Y-15805071D01*
X15280786Y-15790786D01*
X15295071Y-15776500D01*
X15295071Y-15805071D01*
X12911500Y-16436500D02*
X12951500Y-16476500D01*
X12951500Y-16436500D02*
X12911500Y-16476500D01*
X13295071Y-16292214D02*
X13323643Y-16292214D01*
X13352214Y-16306500D01*
X13366500Y-16320786D01*
X13380786Y-16349357D01*
X13395071Y-16406500D01*
X13395071Y-16477929D01*
X13380786Y-16535071D01*
X13366500Y-16563643D01*
X13352214Y-16577929D01*
X13323643Y-16592214D01*
X13295071Y-16592214D01*
X13266500Y-16577929D01*
X13252214Y-16563643D01*
X13237928Y-16535071D01*
X13223643Y-16477929D01*
X13223643Y-16406500D01*
X13237928Y-16349357D01*
X13252214Y-16320786D01*
X13266500Y-16306500D01*
X13295071Y-16292214D01*
X13523643Y-16563643D02*
X13537928Y-16577929D01*
X13523643Y-16592214D01*
X13509357Y-16577929D01*
X13523643Y-16563643D01*
X13523643Y-16592214D01*
X13795071Y-16392214D02*
X13795071Y-16592214D01*
X13723643Y-16277929D02*
X13652214Y-16492214D01*
X13837928Y-16492214D01*
X14009357Y-16292214D02*
X14037928Y-16292214D01*
X14066500Y-16306500D01*
X14080786Y-16320786D01*
X14095071Y-16349357D01*
X14109357Y-16406500D01*
X14109357Y-16477929D01*
X14095071Y-16535071D01*
X14080786Y-16563643D01*
X14066500Y-16577929D01*
X14037928Y-16592214D01*
X14009357Y-16592214D01*
X13980786Y-16577929D01*
X13966500Y-16563643D01*
X13952214Y-16535071D01*
X13937928Y-16477929D01*
X13937928Y-16406500D01*
X13952214Y-16349357D01*
X13966500Y-16320786D01*
X13980786Y-16306500D01*
X14009357Y-16292214D01*
X14295071Y-16292214D02*
X14323643Y-16292214D01*
X14352214Y-16306500D01*
X14366500Y-16320786D01*
X14380786Y-16349357D01*
X14395071Y-16406500D01*
X14395071Y-16477929D01*
X14380786Y-16535071D01*
X14366500Y-16563643D01*
X14352214Y-16577929D01*
X14323643Y-16592214D01*
X14295071Y-16592214D01*
X14266500Y-16577929D01*
X14252214Y-16563643D01*
X14237928Y-16535071D01*
X14223643Y-16477929D01*
X14223643Y-16406500D01*
X14237928Y-16349357D01*
X14252214Y-16320786D01*
X14266500Y-16306500D01*
X14295071Y-16292214D01*
X14523643Y-16592214D02*
X14523643Y-16392214D01*
X14523643Y-16420786D02*
X14537928Y-16406500D01*
X14566500Y-16392214D01*
X14609357Y-16392214D01*
X14637928Y-16406500D01*
X14652214Y-16435071D01*
X14652214Y-16592214D01*
X14652214Y-16435071D02*
X14666500Y-16406500D01*
X14695071Y-16392214D01*
X14737928Y-16392214D01*
X14766500Y-16406500D01*
X14780786Y-16435071D01*
X14780786Y-16592214D01*
X14923643Y-16592214D02*
X14923643Y-16392214D01*
X14923643Y-16420786D02*
X14937928Y-16406500D01*
X14966500Y-16392214D01*
X15009357Y-16392214D01*
X15037928Y-16406500D01*
X15052214Y-16435071D01*
X15052214Y-16592214D01*
X15052214Y-16435071D02*
X15066500Y-16406500D01*
X15095071Y-16392214D01*
X15137928Y-16392214D01*
X15166500Y-16406500D01*
X15180786Y-16435071D01*
X15180786Y-16592214D01*
X15766500Y-16277929D02*
X15509357Y-16663643D01*
X16152214Y-16292214D02*
X16180786Y-16292214D01*
X16209357Y-16306500D01*
X16223643Y-16320786D01*
X16237928Y-16349357D01*
X16252214Y-16406500D01*
X16252214Y-16477929D01*
X16237928Y-16535071D01*
X16223643Y-16563643D01*
X16209357Y-16577929D01*
X16180786Y-16592214D01*
X16152214Y-16592214D01*
X16123643Y-16577929D01*
X16109357Y-16563643D01*
X16095071Y-16535071D01*
X16080786Y-16477929D01*
X16080786Y-16406500D01*
X16095071Y-16349357D01*
X16109357Y-16320786D01*
X16123643Y-16306500D01*
X16152214Y-16292214D01*
X16380786Y-16563643D02*
X16395071Y-16577929D01*
X16380786Y-16592214D01*
X16366500Y-16577929D01*
X16380786Y-16563643D01*
X16380786Y-16592214D01*
X16580786Y-16292214D02*
X16609357Y-16292214D01*
X16637928Y-16306500D01*
X16652214Y-16320786D01*
X16666500Y-16349357D01*
X16680786Y-16406500D01*
X16680786Y-16477929D01*
X16666500Y-16535071D01*
X16652214Y-16563643D01*
X16637928Y-16577929D01*
X16609357Y-16592214D01*
X16580786Y-16592214D01*
X16552214Y-16577929D01*
X16537928Y-16563643D01*
X16523643Y-16535071D01*
X16509357Y-16477929D01*
X16509357Y-16406500D01*
X16523643Y-16349357D01*
X16537928Y-16320786D01*
X16552214Y-16306500D01*
X16580786Y-16292214D01*
X16966500Y-16592214D02*
X16795071Y-16592214D01*
X16880786Y-16592214D02*
X16880786Y-16292214D01*
X16852214Y-16335071D01*
X16823643Y-16363643D01*
X16795071Y-16377929D01*
X17237928Y-16292214D02*
X17095071Y-16292214D01*
X17080786Y-16435071D01*
X17095071Y-16420786D01*
X17123643Y-16406500D01*
X17195071Y-16406500D01*
X17223643Y-16420786D01*
X17237928Y-16435071D01*
X17252214Y-16463643D01*
X17252214Y-16535071D01*
X17237928Y-16563643D01*
X17223643Y-16577929D01*
X17195071Y-16592214D01*
X17123643Y-16592214D01*
X17095071Y-16577929D01*
X17080786Y-16563643D01*
X17352214Y-16292214D02*
X17552214Y-16292214D01*
X17423643Y-16592214D01*
X17652214Y-16292214D02*
X17652214Y-16349357D01*
X17766500Y-16292214D02*
X17766500Y-16349357D01*
X18209357Y-16706500D02*
X18195071Y-16692214D01*
X18166500Y-16649357D01*
X18152214Y-16620786D01*
X18137928Y-16577929D01*
X18123643Y-16506500D01*
X18123643Y-16449357D01*
X18137928Y-16377929D01*
X18152214Y-16335071D01*
X18166500Y-16306500D01*
X18195071Y-16263643D01*
X18209357Y-16249357D01*
X18452214Y-16292214D02*
X18395071Y-16292214D01*
X18366500Y-16306500D01*
X18352214Y-16320786D01*
X18323643Y-16363643D01*
X18309357Y-16420786D01*
X18309357Y-16535071D01*
X18323643Y-16563643D01*
X18337928Y-16577929D01*
X18366500Y-16592214D01*
X18423643Y-16592214D01*
X18452214Y-16577929D01*
X18466500Y-16563643D01*
X18480786Y-16535071D01*
X18480786Y-16463643D01*
X18466500Y-16435071D01*
X18452214Y-16420786D01*
X18423643Y-16406500D01*
X18366500Y-16406500D01*
X18337928Y-16420786D01*
X18323643Y-16435071D01*
X18309357Y-16463643D01*
X18666500Y-16292214D02*
X18695071Y-16292214D01*
X18723643Y-16306500D01*
X18737928Y-16320786D01*
X18752214Y-16349357D01*
X18766500Y-16406500D01*
X18766500Y-16477929D01*
X18752214Y-16535071D01*
X18737928Y-16563643D01*
X18723643Y-16577929D01*
X18695071Y-16592214D01*
X18666500Y-16592214D01*
X18637928Y-16577929D01*
X18623643Y-16563643D01*
X18609357Y-16535071D01*
X18595071Y-16477929D01*
X18595071Y-16406500D01*
X18609357Y-16349357D01*
X18623643Y-16320786D01*
X18637928Y-16306500D01*
X18666500Y-16292214D01*
X19123643Y-16592214D02*
X19123643Y-16292214D01*
X19252214Y-16592214D02*
X19252214Y-16435071D01*
X19237928Y-16406500D01*
X19209357Y-16392214D01*
X19166500Y-16392214D01*
X19137928Y-16406500D01*
X19123643Y-16420786D01*
X19437928Y-16592214D02*
X19409357Y-16577929D01*
X19395071Y-16563643D01*
X19380786Y-16535071D01*
X19380786Y-16449357D01*
X19395071Y-16420786D01*
X19409357Y-16406500D01*
X19437928Y-16392214D01*
X19480786Y-16392214D01*
X19509357Y-16406500D01*
X19523643Y-16420786D01*
X19537928Y-16449357D01*
X19537928Y-16535071D01*
X19523643Y-16563643D01*
X19509357Y-16577929D01*
X19480786Y-16592214D01*
X19437928Y-16592214D01*
X19709357Y-16592214D02*
X19680786Y-16577929D01*
X19666500Y-16549357D01*
X19666500Y-16292214D01*
X19937928Y-16577929D02*
X19909357Y-16592214D01*
X19852214Y-16592214D01*
X19823643Y-16577929D01*
X19809357Y-16549357D01*
X19809357Y-16435071D01*
X19823643Y-16406500D01*
X19852214Y-16392214D01*
X19909357Y-16392214D01*
X19937928Y-16406500D01*
X19952214Y-16435071D01*
X19952214Y-16463643D01*
X19809357Y-16492214D01*
X20066500Y-16577929D02*
X20095071Y-16592214D01*
X20152214Y-16592214D01*
X20180786Y-16577929D01*
X20195071Y-16549357D01*
X20195071Y-16535071D01*
X20180786Y-16506500D01*
X20152214Y-16492214D01*
X20109357Y-16492214D01*
X20080786Y-16477929D01*
X20066500Y-16449357D01*
X20066500Y-16435071D01*
X20080786Y-16406500D01*
X20109357Y-16392214D01*
X20152214Y-16392214D01*
X20180786Y-16406500D01*
X20295071Y-16706500D02*
X20309357Y-16692214D01*
X20337928Y-16649357D01*
X20352214Y-16620786D01*
X20366500Y-16577929D01*
X20380786Y-16506500D01*
X20380786Y-16449357D01*
X20366500Y-16377929D01*
X20352214Y-16335071D01*
X20337928Y-16306500D01*
X20309357Y-16263643D01*
X20295071Y-16249357D01*
X12951500Y-16852500D02*
G75*
G03*
X12951500Y-16852500I-30000J0D01*
G01*
X13295071Y-16688214D02*
X13323643Y-16688214D01*
X13352214Y-16702500D01*
X13366500Y-16716786D01*
X13380786Y-16745357D01*
X13395071Y-16802500D01*
X13395071Y-16873929D01*
X13380786Y-16931072D01*
X13366500Y-16959643D01*
X13352214Y-16973929D01*
X13323643Y-16988214D01*
X13295071Y-16988214D01*
X13266500Y-16973929D01*
X13252214Y-16959643D01*
X13237928Y-16931072D01*
X13223643Y-16873929D01*
X13223643Y-16802500D01*
X13237928Y-16745357D01*
X13252214Y-16716786D01*
X13266500Y-16702500D01*
X13295071Y-16688214D01*
X13523643Y-16959643D02*
X13537928Y-16973929D01*
X13523643Y-16988214D01*
X13509357Y-16973929D01*
X13523643Y-16959643D01*
X13523643Y-16988214D01*
X13795071Y-16688214D02*
X13737928Y-16688214D01*
X13709357Y-16702500D01*
X13695071Y-16716786D01*
X13666500Y-16759643D01*
X13652214Y-16816786D01*
X13652214Y-16931072D01*
X13666500Y-16959643D01*
X13680786Y-16973929D01*
X13709357Y-16988214D01*
X13766500Y-16988214D01*
X13795071Y-16973929D01*
X13809357Y-16959643D01*
X13823643Y-16931072D01*
X13823643Y-16859643D01*
X13809357Y-16831072D01*
X13795071Y-16816786D01*
X13766500Y-16802500D01*
X13709357Y-16802500D01*
X13680786Y-16816786D01*
X13666500Y-16831072D01*
X13652214Y-16859643D01*
X14009357Y-16688214D02*
X14037928Y-16688214D01*
X14066500Y-16702500D01*
X14080786Y-16716786D01*
X14095071Y-16745357D01*
X14109357Y-16802500D01*
X14109357Y-16873929D01*
X14095071Y-16931072D01*
X14080786Y-16959643D01*
X14066500Y-16973929D01*
X14037928Y-16988214D01*
X14009357Y-16988214D01*
X13980786Y-16973929D01*
X13966500Y-16959643D01*
X13952214Y-16931072D01*
X13937928Y-16873929D01*
X13937928Y-16802500D01*
X13952214Y-16745357D01*
X13966500Y-16716786D01*
X13980786Y-16702500D01*
X14009357Y-16688214D01*
X14295071Y-16688214D02*
X14323643Y-16688214D01*
X14352214Y-16702500D01*
X14366500Y-16716786D01*
X14380786Y-16745357D01*
X14395071Y-16802500D01*
X14395071Y-16873929D01*
X14380786Y-16931072D01*
X14366500Y-16959643D01*
X14352214Y-16973929D01*
X14323643Y-16988214D01*
X14295071Y-16988214D01*
X14266500Y-16973929D01*
X14252214Y-16959643D01*
X14237928Y-16931072D01*
X14223643Y-16873929D01*
X14223643Y-16802500D01*
X14237928Y-16745357D01*
X14252214Y-16716786D01*
X14266500Y-16702500D01*
X14295071Y-16688214D01*
X14523643Y-16988214D02*
X14523643Y-16788214D01*
X14523643Y-16816786D02*
X14537928Y-16802500D01*
X14566500Y-16788214D01*
X14609357Y-16788214D01*
X14637928Y-16802500D01*
X14652214Y-16831072D01*
X14652214Y-16988214D01*
X14652214Y-16831072D02*
X14666500Y-16802500D01*
X14695071Y-16788214D01*
X14737928Y-16788214D01*
X14766500Y-16802500D01*
X14780786Y-16831072D01*
X14780786Y-16988214D01*
X14923643Y-16988214D02*
X14923643Y-16788214D01*
X14923643Y-16816786D02*
X14937928Y-16802500D01*
X14966500Y-16788214D01*
X15009357Y-16788214D01*
X15037928Y-16802500D01*
X15052214Y-16831072D01*
X15052214Y-16988214D01*
X15052214Y-16831072D02*
X15066500Y-16802500D01*
X15095071Y-16788214D01*
X15137928Y-16788214D01*
X15166500Y-16802500D01*
X15180786Y-16831072D01*
X15180786Y-16988214D01*
X15766500Y-16673929D02*
X15509357Y-17059643D01*
X16152214Y-16688214D02*
X16180786Y-16688214D01*
X16209357Y-16702500D01*
X16223643Y-16716786D01*
X16237928Y-16745357D01*
X16252214Y-16802500D01*
X16252214Y-16873929D01*
X16237928Y-16931072D01*
X16223643Y-16959643D01*
X16209357Y-16973929D01*
X16180786Y-16988214D01*
X16152214Y-16988214D01*
X16123643Y-16973929D01*
X16109357Y-16959643D01*
X16095071Y-16931072D01*
X16080786Y-16873929D01*
X16080786Y-16802500D01*
X16095071Y-16745357D01*
X16109357Y-16716786D01*
X16123643Y-16702500D01*
X16152214Y-16688214D01*
X16380786Y-16959643D02*
X16395071Y-16973929D01*
X16380786Y-16988214D01*
X16366500Y-16973929D01*
X16380786Y-16959643D01*
X16380786Y-16988214D01*
X16580786Y-16688214D02*
X16609357Y-16688214D01*
X16637928Y-16702500D01*
X16652214Y-16716786D01*
X16666500Y-16745357D01*
X16680786Y-16802500D01*
X16680786Y-16873929D01*
X16666500Y-16931072D01*
X16652214Y-16959643D01*
X16637928Y-16973929D01*
X16609357Y-16988214D01*
X16580786Y-16988214D01*
X16552214Y-16973929D01*
X16537928Y-16959643D01*
X16523643Y-16931072D01*
X16509357Y-16873929D01*
X16509357Y-16802500D01*
X16523643Y-16745357D01*
X16537928Y-16716786D01*
X16552214Y-16702500D01*
X16580786Y-16688214D01*
X16795071Y-16716786D02*
X16809357Y-16702500D01*
X16837928Y-16688214D01*
X16909357Y-16688214D01*
X16937928Y-16702500D01*
X16952214Y-16716786D01*
X16966500Y-16745357D01*
X16966500Y-16773929D01*
X16952214Y-16816786D01*
X16780786Y-16988214D01*
X16966500Y-16988214D01*
X17066500Y-16688214D02*
X17252214Y-16688214D01*
X17152214Y-16802500D01*
X17195071Y-16802500D01*
X17223643Y-16816786D01*
X17237928Y-16831072D01*
X17252214Y-16859643D01*
X17252214Y-16931072D01*
X17237928Y-16959643D01*
X17223643Y-16973929D01*
X17195071Y-16988214D01*
X17109357Y-16988214D01*
X17080786Y-16973929D01*
X17066500Y-16959643D01*
X17509357Y-16688214D02*
X17452214Y-16688214D01*
X17423643Y-16702500D01*
X17409357Y-16716786D01*
X17380786Y-16759643D01*
X17366500Y-16816786D01*
X17366500Y-16931072D01*
X17380786Y-16959643D01*
X17395071Y-16973929D01*
X17423643Y-16988214D01*
X17480786Y-16988214D01*
X17509357Y-16973929D01*
X17523643Y-16959643D01*
X17537928Y-16931072D01*
X17537928Y-16859643D01*
X17523643Y-16831072D01*
X17509357Y-16816786D01*
X17480786Y-16802500D01*
X17423643Y-16802500D01*
X17395071Y-16816786D01*
X17380786Y-16831072D01*
X17366500Y-16859643D01*
X17652214Y-16688214D02*
X17652214Y-16745357D01*
X17766500Y-16688214D02*
X17766500Y-16745357D01*
X18209357Y-17102500D02*
X18195071Y-17088214D01*
X18166500Y-17045357D01*
X18152214Y-17016786D01*
X18137928Y-16973929D01*
X18123643Y-16902500D01*
X18123643Y-16845357D01*
X18137928Y-16773929D01*
X18152214Y-16731071D01*
X18166500Y-16702500D01*
X18195071Y-16659643D01*
X18209357Y-16645357D01*
X18295071Y-16688214D02*
X18480786Y-16688214D01*
X18380786Y-16802500D01*
X18423643Y-16802500D01*
X18452214Y-16816786D01*
X18466500Y-16831072D01*
X18480786Y-16859643D01*
X18480786Y-16931072D01*
X18466500Y-16959643D01*
X18452214Y-16973929D01*
X18423643Y-16988214D01*
X18337928Y-16988214D01*
X18309357Y-16973929D01*
X18295071Y-16959643D01*
X18595071Y-16716786D02*
X18609357Y-16702500D01*
X18637928Y-16688214D01*
X18709357Y-16688214D01*
X18737928Y-16702500D01*
X18752214Y-16716786D01*
X18766500Y-16745357D01*
X18766500Y-16773929D01*
X18752214Y-16816786D01*
X18580786Y-16988214D01*
X18766500Y-16988214D01*
X19123643Y-16988214D02*
X19123643Y-16688214D01*
X19252214Y-16988214D02*
X19252214Y-16831072D01*
X19237928Y-16802500D01*
X19209357Y-16788214D01*
X19166500Y-16788214D01*
X19137928Y-16802500D01*
X19123643Y-16816786D01*
X19437928Y-16988214D02*
X19409357Y-16973929D01*
X19395071Y-16959643D01*
X19380786Y-16931072D01*
X19380786Y-16845357D01*
X19395071Y-16816786D01*
X19409357Y-16802500D01*
X19437928Y-16788214D01*
X19480786Y-16788214D01*
X19509357Y-16802500D01*
X19523643Y-16816786D01*
X19537928Y-16845357D01*
X19537928Y-16931072D01*
X19523643Y-16959643D01*
X19509357Y-16973929D01*
X19480786Y-16988214D01*
X19437928Y-16988214D01*
X19709357Y-16988214D02*
X19680786Y-16973929D01*
X19666500Y-16945357D01*
X19666500Y-16688214D01*
X19937928Y-16973929D02*
X19909357Y-16988214D01*
X19852214Y-16988214D01*
X19823643Y-16973929D01*
X19809357Y-16945357D01*
X19809357Y-16831072D01*
X19823643Y-16802500D01*
X19852214Y-16788214D01*
X19909357Y-16788214D01*
X19937928Y-16802500D01*
X19952214Y-16831072D01*
X19952214Y-16859643D01*
X19809357Y-16888214D01*
X20066500Y-16973929D02*
X20095071Y-16988214D01*
X20152214Y-16988214D01*
X20180786Y-16973929D01*
X20195071Y-16945357D01*
X20195071Y-16931072D01*
X20180786Y-16902500D01*
X20152214Y-16888214D01*
X20109357Y-16888214D01*
X20080786Y-16873929D01*
X20066500Y-16845357D01*
X20066500Y-16831072D01*
X20080786Y-16802500D01*
X20109357Y-16788214D01*
X20152214Y-16788214D01*
X20180786Y-16802500D01*
X20295071Y-17102500D02*
X20309357Y-17088214D01*
X20337928Y-17045357D01*
X20352214Y-17016786D01*
X20366500Y-16973929D01*
X20380786Y-16902500D01*
X20380786Y-16845357D01*
X20366500Y-16773929D01*
X20352214Y-16731071D01*
X20337928Y-16702500D01*
X20309357Y-16659643D01*
X20295071Y-16645357D01*
X12911500Y-17208500D02*
X12911500Y-17288500D01*
X12871500Y-17248500D02*
X12951500Y-17248500D01*
X13295071Y-17084214D02*
X13323643Y-17084214D01*
X13352214Y-17098500D01*
X13366500Y-17112786D01*
X13380786Y-17141357D01*
X13395071Y-17198500D01*
X13395071Y-17269929D01*
X13380786Y-17327072D01*
X13366500Y-17355643D01*
X13352214Y-17369929D01*
X13323643Y-17384214D01*
X13295071Y-17384214D01*
X13266500Y-17369929D01*
X13252214Y-17355643D01*
X13237928Y-17327072D01*
X13223643Y-17269929D01*
X13223643Y-17198500D01*
X13237928Y-17141357D01*
X13252214Y-17112786D01*
X13266500Y-17098500D01*
X13295071Y-17084214D01*
X13523643Y-17355643D02*
X13537928Y-17369929D01*
X13523643Y-17384214D01*
X13509357Y-17369929D01*
X13523643Y-17355643D01*
X13523643Y-17384214D01*
X13709357Y-17212786D02*
X13680786Y-17198500D01*
X13666500Y-17184214D01*
X13652214Y-17155643D01*
X13652214Y-17141357D01*
X13666500Y-17112786D01*
X13680786Y-17098500D01*
X13709357Y-17084214D01*
X13766500Y-17084214D01*
X13795071Y-17098500D01*
X13809357Y-17112786D01*
X13823643Y-17141357D01*
X13823643Y-17155643D01*
X13809357Y-17184214D01*
X13795071Y-17198500D01*
X13766500Y-17212786D01*
X13709357Y-17212786D01*
X13680786Y-17227072D01*
X13666500Y-17241357D01*
X13652214Y-17269929D01*
X13652214Y-17327072D01*
X13666500Y-17355643D01*
X13680786Y-17369929D01*
X13709357Y-17384214D01*
X13766500Y-17384214D01*
X13795071Y-17369929D01*
X13809357Y-17355643D01*
X13823643Y-17327072D01*
X13823643Y-17269929D01*
X13809357Y-17241357D01*
X13795071Y-17227072D01*
X13766500Y-17212786D01*
X14009357Y-17084214D02*
X14037928Y-17084214D01*
X14066500Y-17098500D01*
X14080786Y-17112786D01*
X14095071Y-17141357D01*
X14109357Y-17198500D01*
X14109357Y-17269929D01*
X14095071Y-17327072D01*
X14080786Y-17355643D01*
X14066500Y-17369929D01*
X14037928Y-17384214D01*
X14009357Y-17384214D01*
X13980786Y-17369929D01*
X13966500Y-17355643D01*
X13952214Y-17327072D01*
X13937928Y-17269929D01*
X13937928Y-17198500D01*
X13952214Y-17141357D01*
X13966500Y-17112786D01*
X13980786Y-17098500D01*
X14009357Y-17084214D01*
X14295071Y-17084214D02*
X14323643Y-17084214D01*
X14352214Y-17098500D01*
X14366500Y-17112786D01*
X14380786Y-17141357D01*
X14395071Y-17198500D01*
X14395071Y-17269929D01*
X14380786Y-17327072D01*
X14366500Y-17355643D01*
X14352214Y-17369929D01*
X14323643Y-17384214D01*
X14295071Y-17384214D01*
X14266500Y-17369929D01*
X14252214Y-17355643D01*
X14237928Y-17327072D01*
X14223643Y-17269929D01*
X14223643Y-17198500D01*
X14237928Y-17141357D01*
X14252214Y-17112786D01*
X14266500Y-17098500D01*
X14295071Y-17084214D01*
X14523643Y-17384214D02*
X14523643Y-17184214D01*
X14523643Y-17212786D02*
X14537928Y-17198500D01*
X14566500Y-17184214D01*
X14609357Y-17184214D01*
X14637928Y-17198500D01*
X14652214Y-17227072D01*
X14652214Y-17384214D01*
X14652214Y-17227072D02*
X14666500Y-17198500D01*
X14695071Y-17184214D01*
X14737928Y-17184214D01*
X14766500Y-17198500D01*
X14780786Y-17227072D01*
X14780786Y-17384214D01*
X14923643Y-17384214D02*
X14923643Y-17184214D01*
X14923643Y-17212786D02*
X14937928Y-17198500D01*
X14966500Y-17184214D01*
X15009357Y-17184214D01*
X15037928Y-17198500D01*
X15052214Y-17227072D01*
X15052214Y-17384214D01*
X15052214Y-17227072D02*
X15066500Y-17198500D01*
X15095071Y-17184214D01*
X15137928Y-17184214D01*
X15166500Y-17198500D01*
X15180786Y-17227072D01*
X15180786Y-17384214D01*
X15766500Y-17069929D02*
X15509357Y-17455643D01*
X16152214Y-17084214D02*
X16180786Y-17084214D01*
X16209357Y-17098500D01*
X16223643Y-17112786D01*
X16237928Y-17141357D01*
X16252214Y-17198500D01*
X16252214Y-17269929D01*
X16237928Y-17327072D01*
X16223643Y-17355643D01*
X16209357Y-17369929D01*
X16180786Y-17384214D01*
X16152214Y-17384214D01*
X16123643Y-17369929D01*
X16109357Y-17355643D01*
X16095071Y-17327072D01*
X16080786Y-17269929D01*
X16080786Y-17198500D01*
X16095071Y-17141357D01*
X16109357Y-17112786D01*
X16123643Y-17098500D01*
X16152214Y-17084214D01*
X16380786Y-17355643D02*
X16395071Y-17369929D01*
X16380786Y-17384214D01*
X16366500Y-17369929D01*
X16380786Y-17355643D01*
X16380786Y-17384214D01*
X16580786Y-17084214D02*
X16609357Y-17084214D01*
X16637928Y-17098500D01*
X16652214Y-17112786D01*
X16666500Y-17141357D01*
X16680786Y-17198500D01*
X16680786Y-17269929D01*
X16666500Y-17327072D01*
X16652214Y-17355643D01*
X16637928Y-17369929D01*
X16609357Y-17384214D01*
X16580786Y-17384214D01*
X16552214Y-17369929D01*
X16537928Y-17355643D01*
X16523643Y-17327072D01*
X16509357Y-17269929D01*
X16509357Y-17198500D01*
X16523643Y-17141357D01*
X16537928Y-17112786D01*
X16552214Y-17098500D01*
X16580786Y-17084214D01*
X16780786Y-17084214D02*
X16966500Y-17084214D01*
X16866500Y-17198500D01*
X16909357Y-17198500D01*
X16937928Y-17212786D01*
X16952214Y-17227072D01*
X16966500Y-17255643D01*
X16966500Y-17327072D01*
X16952214Y-17355643D01*
X16937928Y-17369929D01*
X16909357Y-17384214D01*
X16823643Y-17384214D01*
X16795071Y-17369929D01*
X16780786Y-17355643D01*
X17252214Y-17384214D02*
X17080786Y-17384214D01*
X17166500Y-17384214D02*
X17166500Y-17084214D01*
X17137928Y-17127072D01*
X17109357Y-17155643D01*
X17080786Y-17169929D01*
X17523643Y-17084214D02*
X17380786Y-17084214D01*
X17366500Y-17227072D01*
X17380786Y-17212786D01*
X17409357Y-17198500D01*
X17480786Y-17198500D01*
X17509357Y-17212786D01*
X17523643Y-17227072D01*
X17537928Y-17255643D01*
X17537928Y-17327072D01*
X17523643Y-17355643D01*
X17509357Y-17369929D01*
X17480786Y-17384214D01*
X17409357Y-17384214D01*
X17380786Y-17369929D01*
X17366500Y-17355643D01*
X17652214Y-17084214D02*
X17652214Y-17141357D01*
X17766500Y-17084214D02*
X17766500Y-17141357D01*
X18209357Y-17498500D02*
X18195071Y-17484214D01*
X18166500Y-17441357D01*
X18152214Y-17412786D01*
X18137928Y-17369929D01*
X18123643Y-17298500D01*
X18123643Y-17241357D01*
X18137928Y-17169929D01*
X18152214Y-17127072D01*
X18166500Y-17098500D01*
X18195071Y-17055643D01*
X18209357Y-17041357D01*
X18295071Y-17084214D02*
X18480786Y-17084214D01*
X18380786Y-17198500D01*
X18423643Y-17198500D01*
X18452214Y-17212786D01*
X18466500Y-17227072D01*
X18480786Y-17255643D01*
X18480786Y-17327072D01*
X18466500Y-17355643D01*
X18452214Y-17369929D01*
X18423643Y-17384214D01*
X18337928Y-17384214D01*
X18309357Y-17369929D01*
X18295071Y-17355643D01*
X18837928Y-17384214D02*
X18837928Y-17084214D01*
X18966500Y-17384214D02*
X18966500Y-17227072D01*
X18952214Y-17198500D01*
X18923643Y-17184214D01*
X18880786Y-17184214D01*
X18852214Y-17198500D01*
X18837928Y-17212786D01*
X19152214Y-17384214D02*
X19123643Y-17369929D01*
X19109357Y-17355643D01*
X19095071Y-17327072D01*
X19095071Y-17241357D01*
X19109357Y-17212786D01*
X19123643Y-17198500D01*
X19152214Y-17184214D01*
X19195071Y-17184214D01*
X19223643Y-17198500D01*
X19237928Y-17212786D01*
X19252214Y-17241357D01*
X19252214Y-17327072D01*
X19237928Y-17355643D01*
X19223643Y-17369929D01*
X19195071Y-17384214D01*
X19152214Y-17384214D01*
X19423643Y-17384214D02*
X19395071Y-17369929D01*
X19380786Y-17341357D01*
X19380786Y-17084214D01*
X19652214Y-17369929D02*
X19623643Y-17384214D01*
X19566500Y-17384214D01*
X19537928Y-17369929D01*
X19523643Y-17341357D01*
X19523643Y-17227072D01*
X19537928Y-17198500D01*
X19566500Y-17184214D01*
X19623643Y-17184214D01*
X19652214Y-17198500D01*
X19666500Y-17227072D01*
X19666500Y-17255643D01*
X19523643Y-17284214D01*
X19780786Y-17369929D02*
X19809357Y-17384214D01*
X19866500Y-17384214D01*
X19895071Y-17369929D01*
X19909357Y-17341357D01*
X19909357Y-17327072D01*
X19895071Y-17298500D01*
X19866500Y-17284214D01*
X19823643Y-17284214D01*
X19795071Y-17269929D01*
X19780786Y-17241357D01*
X19780786Y-17227072D01*
X19795071Y-17198500D01*
X19823643Y-17184214D01*
X19866500Y-17184214D01*
X19895071Y-17198500D01*
X20009357Y-17498500D02*
X20023643Y-17484214D01*
X20052214Y-17441357D01*
X20066500Y-17412786D01*
X20080786Y-17369929D01*
X20095071Y-17298500D01*
X20095071Y-17241357D01*
X20080786Y-17169929D01*
X20066500Y-17127072D01*
X20052214Y-17098500D01*
X20023643Y-17055643D01*
X20009357Y-17041357D01*
X12936856Y-17679856D02*
X12936856Y-17609144D01*
X12866144Y-17609144D01*
X12866144Y-17679856D01*
X12936856Y-17679856D01*
X13395071Y-17780214D02*
X13223643Y-17780214D01*
X13309357Y-17780214D02*
X13309357Y-17480214D01*
X13280786Y-17523072D01*
X13252214Y-17551643D01*
X13223643Y-17565929D01*
X13523643Y-17751643D02*
X13537928Y-17765929D01*
X13523643Y-17780214D01*
X13509357Y-17765929D01*
X13523643Y-17751643D01*
X13523643Y-17780214D01*
X13723643Y-17480214D02*
X13752214Y-17480214D01*
X13780786Y-17494500D01*
X13795071Y-17508786D01*
X13809357Y-17537357D01*
X13823643Y-17594500D01*
X13823643Y-17665929D01*
X13809357Y-17723072D01*
X13795071Y-17751643D01*
X13780786Y-17765929D01*
X13752214Y-17780214D01*
X13723643Y-17780214D01*
X13695071Y-17765929D01*
X13680786Y-17751643D01*
X13666500Y-17723072D01*
X13652214Y-17665929D01*
X13652214Y-17594500D01*
X13666500Y-17537357D01*
X13680786Y-17508786D01*
X13695071Y-17494500D01*
X13723643Y-17480214D01*
X14009357Y-17480214D02*
X14037928Y-17480214D01*
X14066500Y-17494500D01*
X14080786Y-17508786D01*
X14095071Y-17537357D01*
X14109357Y-17594500D01*
X14109357Y-17665929D01*
X14095071Y-17723072D01*
X14080786Y-17751643D01*
X14066500Y-17765929D01*
X14037928Y-17780214D01*
X14009357Y-17780214D01*
X13980786Y-17765929D01*
X13966500Y-17751643D01*
X13952214Y-17723072D01*
X13937928Y-17665929D01*
X13937928Y-17594500D01*
X13952214Y-17537357D01*
X13966500Y-17508786D01*
X13980786Y-17494500D01*
X14009357Y-17480214D01*
X14295071Y-17480214D02*
X14323643Y-17480214D01*
X14352214Y-17494500D01*
X14366500Y-17508786D01*
X14380786Y-17537357D01*
X14395071Y-17594500D01*
X14395071Y-17665929D01*
X14380786Y-17723072D01*
X14366500Y-17751643D01*
X14352214Y-17765929D01*
X14323643Y-17780214D01*
X14295071Y-17780214D01*
X14266500Y-17765929D01*
X14252214Y-17751643D01*
X14237928Y-17723072D01*
X14223643Y-17665929D01*
X14223643Y-17594500D01*
X14237928Y-17537357D01*
X14252214Y-17508786D01*
X14266500Y-17494500D01*
X14295071Y-17480214D01*
X14523643Y-17780214D02*
X14523643Y-17580214D01*
X14523643Y-17608786D02*
X14537928Y-17594500D01*
X14566500Y-17580214D01*
X14609357Y-17580214D01*
X14637928Y-17594500D01*
X14652214Y-17623072D01*
X14652214Y-17780214D01*
X14652214Y-17623072D02*
X14666500Y-17594500D01*
X14695071Y-17580214D01*
X14737928Y-17580214D01*
X14766500Y-17594500D01*
X14780786Y-17623072D01*
X14780786Y-17780214D01*
X14923643Y-17780214D02*
X14923643Y-17580214D01*
X14923643Y-17608786D02*
X14937928Y-17594500D01*
X14966500Y-17580214D01*
X15009357Y-17580214D01*
X15037928Y-17594500D01*
X15052214Y-17623072D01*
X15052214Y-17780214D01*
X15052214Y-17623072D02*
X15066500Y-17594500D01*
X15095071Y-17580214D01*
X15137928Y-17580214D01*
X15166500Y-17594500D01*
X15180786Y-17623072D01*
X15180786Y-17780214D01*
X15766500Y-17465929D02*
X15509357Y-17851643D01*
X16152214Y-17480214D02*
X16180786Y-17480214D01*
X16209357Y-17494500D01*
X16223643Y-17508786D01*
X16237928Y-17537357D01*
X16252214Y-17594500D01*
X16252214Y-17665929D01*
X16237928Y-17723072D01*
X16223643Y-17751643D01*
X16209357Y-17765929D01*
X16180786Y-17780214D01*
X16152214Y-17780214D01*
X16123643Y-17765929D01*
X16109357Y-17751643D01*
X16095071Y-17723072D01*
X16080786Y-17665929D01*
X16080786Y-17594500D01*
X16095071Y-17537357D01*
X16109357Y-17508786D01*
X16123643Y-17494500D01*
X16152214Y-17480214D01*
X16380786Y-17751643D02*
X16395071Y-17765929D01*
X16380786Y-17780214D01*
X16366500Y-17765929D01*
X16380786Y-17751643D01*
X16380786Y-17780214D01*
X16580786Y-17480214D02*
X16609357Y-17480214D01*
X16637928Y-17494500D01*
X16652214Y-17508786D01*
X16666500Y-17537357D01*
X16680786Y-17594500D01*
X16680786Y-17665929D01*
X16666500Y-17723072D01*
X16652214Y-17751643D01*
X16637928Y-17765929D01*
X16609357Y-17780214D01*
X16580786Y-17780214D01*
X16552214Y-17765929D01*
X16537928Y-17751643D01*
X16523643Y-17723072D01*
X16509357Y-17665929D01*
X16509357Y-17594500D01*
X16523643Y-17537357D01*
X16537928Y-17508786D01*
X16552214Y-17494500D01*
X16580786Y-17480214D01*
X16780786Y-17480214D02*
X16966500Y-17480214D01*
X16866500Y-17594500D01*
X16909357Y-17594500D01*
X16937928Y-17608786D01*
X16952214Y-17623072D01*
X16966500Y-17651643D01*
X16966500Y-17723072D01*
X16952214Y-17751643D01*
X16937928Y-17765929D01*
X16909357Y-17780214D01*
X16823643Y-17780214D01*
X16795071Y-17765929D01*
X16780786Y-17751643D01*
X17109357Y-17780214D02*
X17166500Y-17780214D01*
X17195071Y-17765929D01*
X17209357Y-17751643D01*
X17237928Y-17708786D01*
X17252214Y-17651643D01*
X17252214Y-17537357D01*
X17237928Y-17508786D01*
X17223643Y-17494500D01*
X17195071Y-17480214D01*
X17137928Y-17480214D01*
X17109357Y-17494500D01*
X17095071Y-17508786D01*
X17080786Y-17537357D01*
X17080786Y-17608786D01*
X17095071Y-17637357D01*
X17109357Y-17651643D01*
X17137928Y-17665929D01*
X17195071Y-17665929D01*
X17223643Y-17651643D01*
X17237928Y-17637357D01*
X17252214Y-17608786D01*
X17509357Y-17580214D02*
X17509357Y-17780214D01*
X17437928Y-17465929D02*
X17366500Y-17680214D01*
X17552214Y-17680214D01*
X17652214Y-17480214D02*
X17652214Y-17537357D01*
X17766500Y-17480214D02*
X17766500Y-17537357D01*
X18209357Y-17894500D02*
X18195071Y-17880214D01*
X18166500Y-17837357D01*
X18152214Y-17808786D01*
X18137928Y-17765929D01*
X18123643Y-17694500D01*
X18123643Y-17637357D01*
X18137928Y-17565929D01*
X18152214Y-17523072D01*
X18166500Y-17494500D01*
X18195071Y-17451643D01*
X18209357Y-17437357D01*
X18480786Y-17780214D02*
X18309357Y-17780214D01*
X18395071Y-17780214D02*
X18395071Y-17480214D01*
X18366500Y-17523072D01*
X18337928Y-17551643D01*
X18309357Y-17565929D01*
X18737928Y-17480214D02*
X18680786Y-17480214D01*
X18652214Y-17494500D01*
X18637928Y-17508786D01*
X18609357Y-17551643D01*
X18595071Y-17608786D01*
X18595071Y-17723072D01*
X18609357Y-17751643D01*
X18623643Y-17765929D01*
X18652214Y-17780214D01*
X18709357Y-17780214D01*
X18737928Y-17765929D01*
X18752214Y-17751643D01*
X18766500Y-17723072D01*
X18766500Y-17651643D01*
X18752214Y-17623072D01*
X18737928Y-17608786D01*
X18709357Y-17594500D01*
X18652214Y-17594500D01*
X18623643Y-17608786D01*
X18609357Y-17623072D01*
X18595071Y-17651643D01*
X19123643Y-17780214D02*
X19123643Y-17480214D01*
X19252214Y-17780214D02*
X19252214Y-17623072D01*
X19237928Y-17594500D01*
X19209357Y-17580214D01*
X19166500Y-17580214D01*
X19137928Y-17594500D01*
X19123643Y-17608786D01*
X19437928Y-17780214D02*
X19409357Y-17765929D01*
X19395071Y-17751643D01*
X19380786Y-17723072D01*
X19380786Y-17637357D01*
X19395071Y-17608786D01*
X19409357Y-17594500D01*
X19437928Y-17580214D01*
X19480786Y-17580214D01*
X19509357Y-17594500D01*
X19523643Y-17608786D01*
X19537928Y-17637357D01*
X19537928Y-17723072D01*
X19523643Y-17751643D01*
X19509357Y-17765929D01*
X19480786Y-17780214D01*
X19437928Y-17780214D01*
X19709357Y-17780214D02*
X19680786Y-17765929D01*
X19666500Y-17737357D01*
X19666500Y-17480214D01*
X19937928Y-17765929D02*
X19909357Y-17780214D01*
X19852214Y-17780214D01*
X19823643Y-17765929D01*
X19809357Y-17737357D01*
X19809357Y-17623072D01*
X19823643Y-17594500D01*
X19852214Y-17580214D01*
X19909357Y-17580214D01*
X19937928Y-17594500D01*
X19952214Y-17623072D01*
X19952214Y-17651643D01*
X19809357Y-17680214D01*
X20066500Y-17765929D02*
X20095071Y-17780214D01*
X20152214Y-17780214D01*
X20180786Y-17765929D01*
X20195071Y-17737357D01*
X20195071Y-17723072D01*
X20180786Y-17694500D01*
X20152214Y-17680214D01*
X20109357Y-17680214D01*
X20080786Y-17665929D01*
X20066500Y-17637357D01*
X20066500Y-17623072D01*
X20080786Y-17594500D01*
X20109357Y-17580214D01*
X20152214Y-17580214D01*
X20180786Y-17594500D01*
X20295071Y-17894500D02*
X20309357Y-17880214D01*
X20337928Y-17837357D01*
X20352214Y-17808786D01*
X20366500Y-17765929D01*
X20380786Y-17694500D01*
X20380786Y-17637357D01*
X20366500Y-17565929D01*
X20352214Y-17523072D01*
X20337928Y-17494500D01*
X20309357Y-17451643D01*
X20295071Y-17437357D01*
X12876500Y-18115500D02*
X12951500Y-18040500D01*
X12876500Y-17965500D01*
X12801500Y-18040500D01*
X12876500Y-18115500D01*
X13395071Y-18176214D02*
X13223643Y-18176214D01*
X13309357Y-18176214D02*
X13309357Y-17876214D01*
X13280786Y-17919072D01*
X13252214Y-17947643D01*
X13223643Y-17961929D01*
X13523643Y-18147643D02*
X13537928Y-18161929D01*
X13523643Y-18176214D01*
X13509357Y-18161929D01*
X13523643Y-18147643D01*
X13523643Y-18176214D01*
X13809357Y-17876214D02*
X13666500Y-17876214D01*
X13652214Y-18019072D01*
X13666500Y-18004786D01*
X13695071Y-17990500D01*
X13766500Y-17990500D01*
X13795071Y-18004786D01*
X13809357Y-18019072D01*
X13823643Y-18047643D01*
X13823643Y-18119072D01*
X13809357Y-18147643D01*
X13795071Y-18161929D01*
X13766500Y-18176214D01*
X13695071Y-18176214D01*
X13666500Y-18161929D01*
X13652214Y-18147643D01*
X14009357Y-17876214D02*
X14037928Y-17876214D01*
X14066500Y-17890500D01*
X14080786Y-17904786D01*
X14095071Y-17933357D01*
X14109357Y-17990500D01*
X14109357Y-18061929D01*
X14095071Y-18119072D01*
X14080786Y-18147643D01*
X14066500Y-18161929D01*
X14037928Y-18176214D01*
X14009357Y-18176214D01*
X13980786Y-18161929D01*
X13966500Y-18147643D01*
X13952214Y-18119072D01*
X13937928Y-18061929D01*
X13937928Y-17990500D01*
X13952214Y-17933357D01*
X13966500Y-17904786D01*
X13980786Y-17890500D01*
X14009357Y-17876214D01*
X14295071Y-17876214D02*
X14323643Y-17876214D01*
X14352214Y-17890500D01*
X14366500Y-17904786D01*
X14380786Y-17933357D01*
X14395071Y-17990500D01*
X14395071Y-18061929D01*
X14380786Y-18119072D01*
X14366500Y-18147643D01*
X14352214Y-18161929D01*
X14323643Y-18176214D01*
X14295071Y-18176214D01*
X14266500Y-18161929D01*
X14252214Y-18147643D01*
X14237928Y-18119072D01*
X14223643Y-18061929D01*
X14223643Y-17990500D01*
X14237928Y-17933357D01*
X14252214Y-17904786D01*
X14266500Y-17890500D01*
X14295071Y-17876214D01*
X14523643Y-18176214D02*
X14523643Y-17976214D01*
X14523643Y-18004786D02*
X14537928Y-17990500D01*
X14566500Y-17976214D01*
X14609357Y-17976214D01*
X14637928Y-17990500D01*
X14652214Y-18019072D01*
X14652214Y-18176214D01*
X14652214Y-18019072D02*
X14666500Y-17990500D01*
X14695071Y-17976214D01*
X14737928Y-17976214D01*
X14766500Y-17990500D01*
X14780786Y-18019072D01*
X14780786Y-18176214D01*
X14923643Y-18176214D02*
X14923643Y-17976214D01*
X14923643Y-18004786D02*
X14937928Y-17990500D01*
X14966500Y-17976214D01*
X15009357Y-17976214D01*
X15037928Y-17990500D01*
X15052214Y-18019072D01*
X15052214Y-18176214D01*
X15052214Y-18019072D02*
X15066500Y-17990500D01*
X15095071Y-17976214D01*
X15137928Y-17976214D01*
X15166500Y-17990500D01*
X15180786Y-18019072D01*
X15180786Y-18176214D01*
X15766500Y-17861929D02*
X15509357Y-18247643D01*
X16152214Y-17876214D02*
X16180786Y-17876214D01*
X16209357Y-17890500D01*
X16223643Y-17904786D01*
X16237928Y-17933357D01*
X16252214Y-17990500D01*
X16252214Y-18061929D01*
X16237928Y-18119072D01*
X16223643Y-18147643D01*
X16209357Y-18161929D01*
X16180786Y-18176214D01*
X16152214Y-18176214D01*
X16123643Y-18161929D01*
X16109357Y-18147643D01*
X16095071Y-18119072D01*
X16080786Y-18061929D01*
X16080786Y-17990500D01*
X16095071Y-17933357D01*
X16109357Y-17904786D01*
X16123643Y-17890500D01*
X16152214Y-17876214D01*
X16380786Y-18147643D02*
X16395071Y-18161929D01*
X16380786Y-18176214D01*
X16366500Y-18161929D01*
X16380786Y-18147643D01*
X16380786Y-18176214D01*
X16580786Y-17876214D02*
X16609357Y-17876214D01*
X16637928Y-17890500D01*
X16652214Y-17904786D01*
X16666500Y-17933357D01*
X16680786Y-17990500D01*
X16680786Y-18061929D01*
X16666500Y-18119072D01*
X16652214Y-18147643D01*
X16637928Y-18161929D01*
X16609357Y-18176214D01*
X16580786Y-18176214D01*
X16552214Y-18161929D01*
X16537928Y-18147643D01*
X16523643Y-18119072D01*
X16509357Y-18061929D01*
X16509357Y-17990500D01*
X16523643Y-17933357D01*
X16537928Y-17904786D01*
X16552214Y-17890500D01*
X16580786Y-17876214D01*
X16952214Y-17876214D02*
X16809357Y-17876214D01*
X16795071Y-18019072D01*
X16809357Y-18004786D01*
X16837928Y-17990500D01*
X16909357Y-17990500D01*
X16937928Y-18004786D01*
X16952214Y-18019072D01*
X16966500Y-18047643D01*
X16966500Y-18119072D01*
X16952214Y-18147643D01*
X16937928Y-18161929D01*
X16909357Y-18176214D01*
X16837928Y-18176214D01*
X16809357Y-18161929D01*
X16795071Y-18147643D01*
X17109357Y-18176214D02*
X17166500Y-18176214D01*
X17195071Y-18161929D01*
X17209357Y-18147643D01*
X17237928Y-18104786D01*
X17252214Y-18047643D01*
X17252214Y-17933357D01*
X17237928Y-17904786D01*
X17223643Y-17890500D01*
X17195071Y-17876214D01*
X17137928Y-17876214D01*
X17109357Y-17890500D01*
X17095071Y-17904786D01*
X17080786Y-17933357D01*
X17080786Y-18004786D01*
X17095071Y-18033357D01*
X17109357Y-18047643D01*
X17137928Y-18061929D01*
X17195071Y-18061929D01*
X17223643Y-18047643D01*
X17237928Y-18033357D01*
X17252214Y-18004786D01*
X17537928Y-18176214D02*
X17366500Y-18176214D01*
X17452214Y-18176214D02*
X17452214Y-17876214D01*
X17423643Y-17919072D01*
X17395071Y-17947643D01*
X17366500Y-17961929D01*
X17652214Y-17876214D02*
X17652214Y-17933357D01*
X17766500Y-17876214D02*
X17766500Y-17933357D01*
X18209357Y-18290500D02*
X18195071Y-18276214D01*
X18166500Y-18233357D01*
X18152214Y-18204786D01*
X18137928Y-18161929D01*
X18123643Y-18090500D01*
X18123643Y-18033357D01*
X18137928Y-17961929D01*
X18152214Y-17919072D01*
X18166500Y-17890500D01*
X18195071Y-17847643D01*
X18209357Y-17833357D01*
X18309357Y-17904786D02*
X18323643Y-17890500D01*
X18352214Y-17876214D01*
X18423643Y-17876214D01*
X18452214Y-17890500D01*
X18466500Y-17904786D01*
X18480786Y-17933357D01*
X18480786Y-17961929D01*
X18466500Y-18004786D01*
X18295071Y-18176214D01*
X18480786Y-18176214D01*
X18737928Y-17876214D02*
X18680786Y-17876214D01*
X18652214Y-17890500D01*
X18637928Y-17904786D01*
X18609357Y-17947643D01*
X18595071Y-18004786D01*
X18595071Y-18119072D01*
X18609357Y-18147643D01*
X18623643Y-18161929D01*
X18652214Y-18176214D01*
X18709357Y-18176214D01*
X18737928Y-18161929D01*
X18752214Y-18147643D01*
X18766500Y-18119072D01*
X18766500Y-18047643D01*
X18752214Y-18019072D01*
X18737928Y-18004786D01*
X18709357Y-17990500D01*
X18652214Y-17990500D01*
X18623643Y-18004786D01*
X18609357Y-18019072D01*
X18595071Y-18047643D01*
X19123643Y-18176214D02*
X19123643Y-17876214D01*
X19252214Y-18176214D02*
X19252214Y-18019072D01*
X19237928Y-17990500D01*
X19209357Y-17976214D01*
X19166500Y-17976214D01*
X19137928Y-17990500D01*
X19123643Y-18004786D01*
X19437928Y-18176214D02*
X19409357Y-18161929D01*
X19395071Y-18147643D01*
X19380786Y-18119072D01*
X19380786Y-18033357D01*
X19395071Y-18004786D01*
X19409357Y-17990500D01*
X19437928Y-17976214D01*
X19480786Y-17976214D01*
X19509357Y-17990500D01*
X19523643Y-18004786D01*
X19537928Y-18033357D01*
X19537928Y-18119072D01*
X19523643Y-18147643D01*
X19509357Y-18161929D01*
X19480786Y-18176214D01*
X19437928Y-18176214D01*
X19709357Y-18176214D02*
X19680786Y-18161929D01*
X19666500Y-18133357D01*
X19666500Y-17876214D01*
X19937928Y-18161929D02*
X19909357Y-18176214D01*
X19852214Y-18176214D01*
X19823643Y-18161929D01*
X19809357Y-18133357D01*
X19809357Y-18019072D01*
X19823643Y-17990500D01*
X19852214Y-17976214D01*
X19909357Y-17976214D01*
X19937928Y-17990500D01*
X19952214Y-18019072D01*
X19952214Y-18047643D01*
X19809357Y-18076214D01*
X20066500Y-18161929D02*
X20095071Y-18176214D01*
X20152214Y-18176214D01*
X20180786Y-18161929D01*
X20195071Y-18133357D01*
X20195071Y-18119072D01*
X20180786Y-18090500D01*
X20152214Y-18076214D01*
X20109357Y-18076214D01*
X20080786Y-18061929D01*
X20066500Y-18033357D01*
X20066500Y-18019072D01*
X20080786Y-17990500D01*
X20109357Y-17976214D01*
X20152214Y-17976214D01*
X20180786Y-17990500D01*
X20295071Y-18290500D02*
X20309357Y-18276214D01*
X20337928Y-18233357D01*
X20352214Y-18204786D01*
X20366500Y-18161929D01*
X20380786Y-18090500D01*
X20380786Y-18033357D01*
X20366500Y-17961929D01*
X20352214Y-17919072D01*
X20337928Y-17890500D01*
X20309357Y-17847643D01*
X20295071Y-17833357D01*
X12611500Y-18266500D02*
X12951500Y-18606500D01*
X12951500Y-18266500D02*
X12611500Y-18606500D01*
X12951500Y-18436500D02*
G75*
G03*
X12951500Y-18436500I-170000J0D01*
G01*
X13209357Y-18272214D02*
X13395071Y-18272214D01*
X13295071Y-18386500D01*
X13337928Y-18386500D01*
X13366500Y-18400786D01*
X13380786Y-18415072D01*
X13395071Y-18443643D01*
X13395071Y-18515072D01*
X13380786Y-18543643D01*
X13366500Y-18557929D01*
X13337928Y-18572214D01*
X13252214Y-18572214D01*
X13223643Y-18557929D01*
X13209357Y-18543643D01*
X13523643Y-18543643D02*
X13537928Y-18557929D01*
X13523643Y-18572214D01*
X13509357Y-18557929D01*
X13523643Y-18543643D01*
X13523643Y-18572214D01*
X13795071Y-18372214D02*
X13795071Y-18572214D01*
X13723643Y-18257929D02*
X13652214Y-18472214D01*
X13837928Y-18472214D01*
X14009357Y-18272214D02*
X14037928Y-18272214D01*
X14066500Y-18286500D01*
X14080786Y-18300786D01*
X14095071Y-18329357D01*
X14109357Y-18386500D01*
X14109357Y-18457929D01*
X14095071Y-18515072D01*
X14080786Y-18543643D01*
X14066500Y-18557929D01*
X14037928Y-18572214D01*
X14009357Y-18572214D01*
X13980786Y-18557929D01*
X13966500Y-18543643D01*
X13952214Y-18515072D01*
X13937928Y-18457929D01*
X13937928Y-18386500D01*
X13952214Y-18329357D01*
X13966500Y-18300786D01*
X13980786Y-18286500D01*
X14009357Y-18272214D01*
X14295071Y-18272214D02*
X14323643Y-18272214D01*
X14352214Y-18286500D01*
X14366500Y-18300786D01*
X14380786Y-18329357D01*
X14395071Y-18386500D01*
X14395071Y-18457929D01*
X14380786Y-18515072D01*
X14366500Y-18543643D01*
X14352214Y-18557929D01*
X14323643Y-18572214D01*
X14295071Y-18572214D01*
X14266500Y-18557929D01*
X14252214Y-18543643D01*
X14237928Y-18515072D01*
X14223643Y-18457929D01*
X14223643Y-18386500D01*
X14237928Y-18329357D01*
X14252214Y-18300786D01*
X14266500Y-18286500D01*
X14295071Y-18272214D01*
X14523643Y-18572214D02*
X14523643Y-18372214D01*
X14523643Y-18400786D02*
X14537928Y-18386500D01*
X14566500Y-18372214D01*
X14609357Y-18372214D01*
X14637928Y-18386500D01*
X14652214Y-18415072D01*
X14652214Y-18572214D01*
X14652214Y-18415072D02*
X14666500Y-18386500D01*
X14695071Y-18372214D01*
X14737928Y-18372214D01*
X14766500Y-18386500D01*
X14780786Y-18415072D01*
X14780786Y-18572214D01*
X14923643Y-18572214D02*
X14923643Y-18372214D01*
X14923643Y-18400786D02*
X14937928Y-18386500D01*
X14966500Y-18372214D01*
X15009357Y-18372214D01*
X15037928Y-18386500D01*
X15052214Y-18415072D01*
X15052214Y-18572214D01*
X15052214Y-18415072D02*
X15066500Y-18386500D01*
X15095071Y-18372214D01*
X15137928Y-18372214D01*
X15166500Y-18386500D01*
X15180786Y-18415072D01*
X15180786Y-18572214D01*
X15766500Y-18257929D02*
X15509357Y-18643643D01*
X16152214Y-18272214D02*
X16180786Y-18272214D01*
X16209357Y-18286500D01*
X16223643Y-18300786D01*
X16237928Y-18329357D01*
X16252214Y-18386500D01*
X16252214Y-18457929D01*
X16237928Y-18515072D01*
X16223643Y-18543643D01*
X16209357Y-18557929D01*
X16180786Y-18572214D01*
X16152214Y-18572214D01*
X16123643Y-18557929D01*
X16109357Y-18543643D01*
X16095071Y-18515072D01*
X16080786Y-18457929D01*
X16080786Y-18386500D01*
X16095071Y-18329357D01*
X16109357Y-18300786D01*
X16123643Y-18286500D01*
X16152214Y-18272214D01*
X16380786Y-18543643D02*
X16395071Y-18557929D01*
X16380786Y-18572214D01*
X16366500Y-18557929D01*
X16380786Y-18543643D01*
X16380786Y-18572214D01*
X16680786Y-18572214D02*
X16509357Y-18572214D01*
X16595071Y-18572214D02*
X16595071Y-18272214D01*
X16566500Y-18315072D01*
X16537928Y-18343643D01*
X16509357Y-18357929D01*
X16780786Y-18272214D02*
X16966500Y-18272214D01*
X16866500Y-18386500D01*
X16909357Y-18386500D01*
X16937928Y-18400786D01*
X16952214Y-18415072D01*
X16966500Y-18443643D01*
X16966500Y-18515072D01*
X16952214Y-18543643D01*
X16937928Y-18557929D01*
X16909357Y-18572214D01*
X16823643Y-18572214D01*
X16795071Y-18557929D01*
X16780786Y-18543643D01*
X17066500Y-18272214D02*
X17252214Y-18272214D01*
X17152214Y-18386500D01*
X17195071Y-18386500D01*
X17223643Y-18400786D01*
X17237928Y-18415072D01*
X17252214Y-18443643D01*
X17252214Y-18515072D01*
X17237928Y-18543643D01*
X17223643Y-18557929D01*
X17195071Y-18572214D01*
X17109357Y-18572214D01*
X17080786Y-18557929D01*
X17066500Y-18543643D01*
X17395071Y-18572214D02*
X17452214Y-18572214D01*
X17480786Y-18557929D01*
X17495071Y-18543643D01*
X17523643Y-18500786D01*
X17537928Y-18443643D01*
X17537928Y-18329357D01*
X17523643Y-18300786D01*
X17509357Y-18286500D01*
X17480786Y-18272214D01*
X17423643Y-18272214D01*
X17395071Y-18286500D01*
X17380786Y-18300786D01*
X17366500Y-18329357D01*
X17366500Y-18400786D01*
X17380786Y-18429357D01*
X17395071Y-18443643D01*
X17423643Y-18457929D01*
X17480786Y-18457929D01*
X17509357Y-18443643D01*
X17523643Y-18429357D01*
X17537928Y-18400786D01*
X17652214Y-18272214D02*
X17652214Y-18329357D01*
X17766500Y-18272214D02*
X17766500Y-18329357D01*
X18209357Y-18686500D02*
X18195071Y-18672214D01*
X18166500Y-18629357D01*
X18152214Y-18600786D01*
X18137928Y-18557929D01*
X18123643Y-18486500D01*
X18123643Y-18429357D01*
X18137928Y-18357929D01*
X18152214Y-18315072D01*
X18166500Y-18286500D01*
X18195071Y-18243643D01*
X18209357Y-18229357D01*
X18309357Y-18300786D02*
X18323643Y-18286500D01*
X18352214Y-18272214D01*
X18423643Y-18272214D01*
X18452214Y-18286500D01*
X18466500Y-18300786D01*
X18480786Y-18329357D01*
X18480786Y-18357929D01*
X18466500Y-18400786D01*
X18295071Y-18572214D01*
X18480786Y-18572214D01*
X18837928Y-18572214D02*
X18837928Y-18272214D01*
X18966500Y-18572214D02*
X18966500Y-18415072D01*
X18952214Y-18386500D01*
X18923643Y-18372214D01*
X18880786Y-18372214D01*
X18852214Y-18386500D01*
X18837928Y-18400786D01*
X19152214Y-18572214D02*
X19123643Y-18557929D01*
X19109357Y-18543643D01*
X19095071Y-18515072D01*
X19095071Y-18429357D01*
X19109357Y-18400786D01*
X19123643Y-18386500D01*
X19152214Y-18372214D01*
X19195071Y-18372214D01*
X19223643Y-18386500D01*
X19237928Y-18400786D01*
X19252214Y-18429357D01*
X19252214Y-18515072D01*
X19237928Y-18543643D01*
X19223643Y-18557929D01*
X19195071Y-18572214D01*
X19152214Y-18572214D01*
X19423643Y-18572214D02*
X19395071Y-18557929D01*
X19380786Y-18529357D01*
X19380786Y-18272214D01*
X19652214Y-18557929D02*
X19623643Y-18572214D01*
X19566500Y-18572214D01*
X19537928Y-18557929D01*
X19523643Y-18529357D01*
X19523643Y-18415072D01*
X19537928Y-18386500D01*
X19566500Y-18372214D01*
X19623643Y-18372214D01*
X19652214Y-18386500D01*
X19666500Y-18415072D01*
X19666500Y-18443643D01*
X19523643Y-18472214D01*
X19780786Y-18557929D02*
X19809357Y-18572214D01*
X19866500Y-18572214D01*
X19895071Y-18557929D01*
X19909357Y-18529357D01*
X19909357Y-18515072D01*
X19895071Y-18486500D01*
X19866500Y-18472214D01*
X19823643Y-18472214D01*
X19795071Y-18457929D01*
X19780786Y-18429357D01*
X19780786Y-18415072D01*
X19795071Y-18386500D01*
X19823643Y-18372214D01*
X19866500Y-18372214D01*
X19895071Y-18386500D01*
X20009357Y-18686500D02*
X20023643Y-18672214D01*
X20052214Y-18629357D01*
X20066500Y-18600786D01*
X20080786Y-18557929D01*
X20095071Y-18486500D01*
X20095071Y-18429357D01*
X20080786Y-18357929D01*
X20066500Y-18315072D01*
X20052214Y-18286500D01*
X20023643Y-18243643D01*
X20009357Y-18229357D01*
X12451500Y-18656500D02*
X12951500Y-19156500D01*
X12951500Y-18656500D02*
X12451500Y-19156500D01*
X12701500Y-18656500D02*
X12701500Y-19156500D01*
X12451500Y-18906500D02*
X12951500Y-18906500D01*
X13380786Y-18742214D02*
X13237928Y-18742214D01*
X13223643Y-18885072D01*
X13237928Y-18870786D01*
X13266500Y-18856500D01*
X13337928Y-18856500D01*
X13366500Y-18870786D01*
X13380786Y-18885072D01*
X13395071Y-18913643D01*
X13395071Y-18985072D01*
X13380786Y-19013643D01*
X13366500Y-19027929D01*
X13337928Y-19042214D01*
X13266500Y-19042214D01*
X13237928Y-19027929D01*
X13223643Y-19013643D01*
X13523643Y-19013643D02*
X13537928Y-19027929D01*
X13523643Y-19042214D01*
X13509357Y-19027929D01*
X13523643Y-19013643D01*
X13523643Y-19042214D01*
X13723643Y-18742214D02*
X13752214Y-18742214D01*
X13780786Y-18756500D01*
X13795071Y-18770786D01*
X13809357Y-18799357D01*
X13823643Y-18856500D01*
X13823643Y-18927929D01*
X13809357Y-18985072D01*
X13795071Y-19013643D01*
X13780786Y-19027929D01*
X13752214Y-19042214D01*
X13723643Y-19042214D01*
X13695071Y-19027929D01*
X13680786Y-19013643D01*
X13666500Y-18985072D01*
X13652214Y-18927929D01*
X13652214Y-18856500D01*
X13666500Y-18799357D01*
X13680786Y-18770786D01*
X13695071Y-18756500D01*
X13723643Y-18742214D01*
X14009357Y-18742214D02*
X14037928Y-18742214D01*
X14066500Y-18756500D01*
X14080786Y-18770786D01*
X14095071Y-18799357D01*
X14109357Y-18856500D01*
X14109357Y-18927929D01*
X14095071Y-18985072D01*
X14080786Y-19013643D01*
X14066500Y-19027929D01*
X14037928Y-19042214D01*
X14009357Y-19042214D01*
X13980786Y-19027929D01*
X13966500Y-19013643D01*
X13952214Y-18985072D01*
X13937928Y-18927929D01*
X13937928Y-18856500D01*
X13952214Y-18799357D01*
X13966500Y-18770786D01*
X13980786Y-18756500D01*
X14009357Y-18742214D01*
X14295071Y-18742214D02*
X14323643Y-18742214D01*
X14352214Y-18756500D01*
X14366500Y-18770786D01*
X14380786Y-18799357D01*
X14395071Y-18856500D01*
X14395071Y-18927929D01*
X14380786Y-18985072D01*
X14366500Y-19013643D01*
X14352214Y-19027929D01*
X14323643Y-19042214D01*
X14295071Y-19042214D01*
X14266500Y-19027929D01*
X14252214Y-19013643D01*
X14237928Y-18985072D01*
X14223643Y-18927929D01*
X14223643Y-18856500D01*
X14237928Y-18799357D01*
X14252214Y-18770786D01*
X14266500Y-18756500D01*
X14295071Y-18742214D01*
X14523643Y-19042214D02*
X14523643Y-18842214D01*
X14523643Y-18870786D02*
X14537928Y-18856500D01*
X14566500Y-18842214D01*
X14609357Y-18842214D01*
X14637928Y-18856500D01*
X14652214Y-18885072D01*
X14652214Y-19042214D01*
X14652214Y-18885072D02*
X14666500Y-18856500D01*
X14695071Y-18842214D01*
X14737928Y-18842214D01*
X14766500Y-18856500D01*
X14780786Y-18885072D01*
X14780786Y-19042214D01*
X14923643Y-19042214D02*
X14923643Y-18842214D01*
X14923643Y-18870786D02*
X14937928Y-18856500D01*
X14966500Y-18842214D01*
X15009357Y-18842214D01*
X15037928Y-18856500D01*
X15052214Y-18885072D01*
X15052214Y-19042214D01*
X15052214Y-18885072D02*
X15066500Y-18856500D01*
X15095071Y-18842214D01*
X15137928Y-18842214D01*
X15166500Y-18856500D01*
X15180786Y-18885072D01*
X15180786Y-19042214D01*
X15766500Y-18727929D02*
X15509357Y-19113643D01*
X16152214Y-18742214D02*
X16180786Y-18742214D01*
X16209357Y-18756500D01*
X16223643Y-18770786D01*
X16237928Y-18799357D01*
X16252214Y-18856500D01*
X16252214Y-18927929D01*
X16237928Y-18985072D01*
X16223643Y-19013643D01*
X16209357Y-19027929D01*
X16180786Y-19042214D01*
X16152214Y-19042214D01*
X16123643Y-19027929D01*
X16109357Y-19013643D01*
X16095071Y-18985072D01*
X16080786Y-18927929D01*
X16080786Y-18856500D01*
X16095071Y-18799357D01*
X16109357Y-18770786D01*
X16123643Y-18756500D01*
X16152214Y-18742214D01*
X16380786Y-19013643D02*
X16395071Y-19027929D01*
X16380786Y-19042214D01*
X16366500Y-19027929D01*
X16380786Y-19013643D01*
X16380786Y-19042214D01*
X16680786Y-19042214D02*
X16509357Y-19042214D01*
X16595071Y-19042214D02*
X16595071Y-18742214D01*
X16566500Y-18785072D01*
X16537928Y-18813643D01*
X16509357Y-18827929D01*
X16823643Y-19042214D02*
X16880786Y-19042214D01*
X16909357Y-19027929D01*
X16923643Y-19013643D01*
X16952214Y-18970786D01*
X16966500Y-18913643D01*
X16966500Y-18799357D01*
X16952214Y-18770786D01*
X16937928Y-18756500D01*
X16909357Y-18742214D01*
X16852214Y-18742214D01*
X16823643Y-18756500D01*
X16809357Y-18770786D01*
X16795071Y-18799357D01*
X16795071Y-18870786D01*
X16809357Y-18899357D01*
X16823643Y-18913643D01*
X16852214Y-18927929D01*
X16909357Y-18927929D01*
X16937928Y-18913643D01*
X16952214Y-18899357D01*
X16966500Y-18870786D01*
X17223643Y-18742214D02*
X17166500Y-18742214D01*
X17137928Y-18756500D01*
X17123643Y-18770786D01*
X17095071Y-18813643D01*
X17080786Y-18870786D01*
X17080786Y-18985072D01*
X17095071Y-19013643D01*
X17109357Y-19027929D01*
X17137928Y-19042214D01*
X17195071Y-19042214D01*
X17223643Y-19027929D01*
X17237928Y-19013643D01*
X17252214Y-18985072D01*
X17252214Y-18913643D01*
X17237928Y-18885072D01*
X17223643Y-18870786D01*
X17195071Y-18856500D01*
X17137928Y-18856500D01*
X17109357Y-18870786D01*
X17095071Y-18885072D01*
X17080786Y-18913643D01*
X17395071Y-19042214D02*
X17452214Y-19042214D01*
X17480786Y-19027929D01*
X17495071Y-19013643D01*
X17523643Y-18970786D01*
X17537928Y-18913643D01*
X17537928Y-18799357D01*
X17523643Y-18770786D01*
X17509357Y-18756500D01*
X17480786Y-18742214D01*
X17423643Y-18742214D01*
X17395071Y-18756500D01*
X17380786Y-18770786D01*
X17366500Y-18799357D01*
X17366500Y-18870786D01*
X17380786Y-18899357D01*
X17395071Y-18913643D01*
X17423643Y-18927929D01*
X17480786Y-18927929D01*
X17509357Y-18913643D01*
X17523643Y-18899357D01*
X17537928Y-18870786D01*
X17652214Y-18742214D02*
X17652214Y-18799357D01*
X17766500Y-18742214D02*
X17766500Y-18799357D01*
X18209357Y-19156500D02*
X18195071Y-19142214D01*
X18166500Y-19099357D01*
X18152214Y-19070786D01*
X18137928Y-19027929D01*
X18123643Y-18956500D01*
X18123643Y-18899357D01*
X18137928Y-18827929D01*
X18152214Y-18785072D01*
X18166500Y-18756500D01*
X18195071Y-18713643D01*
X18209357Y-18699357D01*
X18452214Y-18842214D02*
X18452214Y-19042214D01*
X18380786Y-18727929D02*
X18309357Y-18942214D01*
X18495071Y-18942214D01*
X18837928Y-19042214D02*
X18837928Y-18742214D01*
X18966500Y-19042214D02*
X18966500Y-18885072D01*
X18952214Y-18856500D01*
X18923643Y-18842214D01*
X18880786Y-18842214D01*
X18852214Y-18856500D01*
X18837928Y-18870786D01*
X19152214Y-19042214D02*
X19123643Y-19027929D01*
X19109357Y-19013643D01*
X19095071Y-18985072D01*
X19095071Y-18899357D01*
X19109357Y-18870786D01*
X19123643Y-18856500D01*
X19152214Y-18842214D01*
X19195071Y-18842214D01*
X19223643Y-18856500D01*
X19237928Y-18870786D01*
X19252214Y-18899357D01*
X19252214Y-18985072D01*
X19237928Y-19013643D01*
X19223643Y-19027929D01*
X19195071Y-19042214D01*
X19152214Y-19042214D01*
X19423643Y-19042214D02*
X19395071Y-19027929D01*
X19380786Y-18999357D01*
X19380786Y-18742214D01*
X19652214Y-19027929D02*
X19623643Y-19042214D01*
X19566500Y-19042214D01*
X19537928Y-19027929D01*
X19523643Y-18999357D01*
X19523643Y-18885072D01*
X19537928Y-18856500D01*
X19566500Y-18842214D01*
X19623643Y-18842214D01*
X19652214Y-18856500D01*
X19666500Y-18885072D01*
X19666500Y-18913643D01*
X19523643Y-18942214D01*
X19780786Y-19027929D02*
X19809357Y-19042214D01*
X19866500Y-19042214D01*
X19895071Y-19027929D01*
X19909357Y-18999357D01*
X19909357Y-18985072D01*
X19895071Y-18956500D01*
X19866500Y-18942214D01*
X19823643Y-18942214D01*
X19795071Y-18927929D01*
X19780786Y-18899357D01*
X19780786Y-18885072D01*
X19795071Y-18856500D01*
X19823643Y-18842214D01*
X19866500Y-18842214D01*
X19895071Y-18856500D01*
X20009357Y-19156500D02*
X20023643Y-19142214D01*
X20052214Y-19099357D01*
X20066500Y-19070786D01*
X20080786Y-19027929D01*
X20095071Y-18956500D01*
X20095071Y-18899357D01*
X20080786Y-18827929D01*
X20066500Y-18785072D01*
X20052214Y-18756500D01*
X20023643Y-18713643D01*
X20009357Y-18699357D01*
M02*
