G04 #@! TF.GenerationSoftware,KiCad,Pcbnew,(5.1.12)-1*
G04 #@! TF.CreationDate,2022-07-24T10:45:22+02:00*
G04 #@! TF.ProjectId,telemetria tyl,74656c65-6d65-4747-9269-612074796c2e,rev?*
G04 #@! TF.SameCoordinates,Original*
G04 #@! TF.FileFunction,Soldermask,Top*
G04 #@! TF.FilePolarity,Negative*
%FSLAX46Y46*%
G04 Gerber Fmt 4.6, Leading zero omitted, Abs format (unit mm)*
G04 Created by KiCad (PCBNEW (5.1.12)-1) date 2022-07-24 10:45:22*
%MOMM*%
%LPD*%
G01*
G04 APERTURE LIST*
%ADD10R,2.250000X2.250000*%
%ADD11C,2.250000*%
%ADD12C,5.100000*%
%ADD13R,0.250000X0.600000*%
%ADD14C,10.000000*%
%ADD15C,0.900000*%
%ADD16R,1.700000X1.700000*%
%ADD17O,1.700000X1.700000*%
%ADD18R,1.500000X1.200000*%
%ADD19C,1.440000*%
%ADD20R,2.100000X1.800000*%
%ADD21R,1.000000X0.550000*%
%ADD22R,1.050000X0.400000*%
%ADD23R,1.300000X0.600000*%
G04 APERTURE END LIST*
D10*
X209550000Y-127000000D03*
D11*
X209550000Y-124000000D03*
X209550000Y-121000000D03*
X209550000Y-118000000D03*
X209550000Y-115000000D03*
X209550000Y-112000000D03*
X209550000Y-109000000D03*
X207050000Y-110500000D03*
X207050000Y-113500000D03*
X207050000Y-116500000D03*
X207050000Y-119500000D03*
X207050000Y-122500000D03*
X207050000Y-125500000D03*
X204050000Y-125500000D03*
X204050000Y-122500000D03*
X204050000Y-119500000D03*
X204050000Y-116500000D03*
X204050000Y-113500000D03*
X204050000Y-110500000D03*
X201550000Y-109000000D03*
X201550000Y-112000000D03*
X201550000Y-115000000D03*
X201550000Y-118000000D03*
X201550000Y-121000000D03*
X201550000Y-124000000D03*
X201550000Y-127000000D03*
D12*
X216050000Y-134250000D03*
X216050000Y-101750000D03*
D13*
X184670000Y-136590000D03*
X185170000Y-136590000D03*
X185670000Y-136590000D03*
X186170000Y-136590000D03*
X186170000Y-135190000D03*
X185670000Y-135190000D03*
X185170000Y-135190000D03*
X184670000Y-135190000D03*
G36*
G01*
X183795000Y-142715000D02*
X183795000Y-141765000D01*
G75*
G02*
X184045000Y-141515000I250000J0D01*
G01*
X184720000Y-141515000D01*
G75*
G02*
X184970000Y-141765000I0J-250000D01*
G01*
X184970000Y-142715000D01*
G75*
G02*
X184720000Y-142965000I-250000J0D01*
G01*
X184045000Y-142965000D01*
G75*
G02*
X183795000Y-142715000I0J250000D01*
G01*
G37*
G36*
G01*
X185870000Y-142715000D02*
X185870000Y-141765000D01*
G75*
G02*
X186120000Y-141515000I250000J0D01*
G01*
X186795000Y-141515000D01*
G75*
G02*
X187045000Y-141765000I0J-250000D01*
G01*
X187045000Y-142715000D01*
G75*
G02*
X186795000Y-142965000I-250000J0D01*
G01*
X186120000Y-142965000D01*
G75*
G02*
X185870000Y-142715000I0J250000D01*
G01*
G37*
G36*
G01*
X185870000Y-123665000D02*
X185870000Y-122715000D01*
G75*
G02*
X186120000Y-122465000I250000J0D01*
G01*
X186795000Y-122465000D01*
G75*
G02*
X187045000Y-122715000I0J-250000D01*
G01*
X187045000Y-123665000D01*
G75*
G02*
X186795000Y-123915000I-250000J0D01*
G01*
X186120000Y-123915000D01*
G75*
G02*
X185870000Y-123665000I0J250000D01*
G01*
G37*
G36*
G01*
X183795000Y-123665000D02*
X183795000Y-122715000D01*
G75*
G02*
X184045000Y-122465000I250000J0D01*
G01*
X184720000Y-122465000D01*
G75*
G02*
X184970000Y-122715000I0J-250000D01*
G01*
X184970000Y-123665000D01*
G75*
G02*
X184720000Y-123915000I-250000J0D01*
G01*
X184045000Y-123915000D01*
G75*
G02*
X183795000Y-123665000I0J250000D01*
G01*
G37*
G36*
G01*
X179752500Y-123665000D02*
X179752500Y-122715000D01*
G75*
G02*
X180002500Y-122465000I250000J0D01*
G01*
X180677500Y-122465000D01*
G75*
G02*
X180927500Y-122715000I0J-250000D01*
G01*
X180927500Y-123665000D01*
G75*
G02*
X180677500Y-123915000I-250000J0D01*
G01*
X180002500Y-123915000D01*
G75*
G02*
X179752500Y-123665000I0J250000D01*
G01*
G37*
G36*
G01*
X181827500Y-123665000D02*
X181827500Y-122715000D01*
G75*
G02*
X182077500Y-122465000I250000J0D01*
G01*
X182752500Y-122465000D01*
G75*
G02*
X183002500Y-122715000I0J-250000D01*
G01*
X183002500Y-123665000D01*
G75*
G02*
X182752500Y-123915000I-250000J0D01*
G01*
X182077500Y-123915000D01*
G75*
G02*
X181827500Y-123665000I0J250000D01*
G01*
G37*
G36*
G01*
X179731000Y-142715000D02*
X179731000Y-141765000D01*
G75*
G02*
X179981000Y-141515000I250000J0D01*
G01*
X180656000Y-141515000D01*
G75*
G02*
X180906000Y-141765000I0J-250000D01*
G01*
X180906000Y-142715000D01*
G75*
G02*
X180656000Y-142965000I-250000J0D01*
G01*
X179981000Y-142965000D01*
G75*
G02*
X179731000Y-142715000I0J250000D01*
G01*
G37*
G36*
G01*
X181806000Y-142715000D02*
X181806000Y-141765000D01*
G75*
G02*
X182056000Y-141515000I250000J0D01*
G01*
X182731000Y-141515000D01*
G75*
G02*
X182981000Y-141765000I0J-250000D01*
G01*
X182981000Y-142715000D01*
G75*
G02*
X182731000Y-142965000I-250000J0D01*
G01*
X182056000Y-142965000D01*
G75*
G02*
X181806000Y-142715000I0J250000D01*
G01*
G37*
G36*
G01*
X188755000Y-122602500D02*
X189705000Y-122602500D01*
G75*
G02*
X189955000Y-122852500I0J-250000D01*
G01*
X189955000Y-123527500D01*
G75*
G02*
X189705000Y-123777500I-250000J0D01*
G01*
X188755000Y-123777500D01*
G75*
G02*
X188505000Y-123527500I0J250000D01*
G01*
X188505000Y-122852500D01*
G75*
G02*
X188755000Y-122602500I250000J0D01*
G01*
G37*
G36*
G01*
X188755000Y-120527500D02*
X189705000Y-120527500D01*
G75*
G02*
X189955000Y-120777500I0J-250000D01*
G01*
X189955000Y-121452500D01*
G75*
G02*
X189705000Y-121702500I-250000J0D01*
G01*
X188755000Y-121702500D01*
G75*
G02*
X188505000Y-121452500I0J250000D01*
G01*
X188505000Y-120777500D01*
G75*
G02*
X188755000Y-120527500I250000J0D01*
G01*
G37*
G36*
G01*
X188755000Y-141652500D02*
X189705000Y-141652500D01*
G75*
G02*
X189955000Y-141902500I0J-250000D01*
G01*
X189955000Y-142577500D01*
G75*
G02*
X189705000Y-142827500I-250000J0D01*
G01*
X188755000Y-142827500D01*
G75*
G02*
X188505000Y-142577500I0J250000D01*
G01*
X188505000Y-141902500D01*
G75*
G02*
X188755000Y-141652500I250000J0D01*
G01*
G37*
G36*
G01*
X188755000Y-139577500D02*
X189705000Y-139577500D01*
G75*
G02*
X189955000Y-139827500I0J-250000D01*
G01*
X189955000Y-140502500D01*
G75*
G02*
X189705000Y-140752500I-250000J0D01*
G01*
X188755000Y-140752500D01*
G75*
G02*
X188505000Y-140502500I0J250000D01*
G01*
X188505000Y-139827500D01*
G75*
G02*
X188755000Y-139577500I250000J0D01*
G01*
G37*
G36*
G01*
X189585000Y-110015000D02*
X189585000Y-110965000D01*
G75*
G02*
X189335000Y-111215000I-250000J0D01*
G01*
X188660000Y-111215000D01*
G75*
G02*
X188410000Y-110965000I0J250000D01*
G01*
X188410000Y-110015000D01*
G75*
G02*
X188660000Y-109765000I250000J0D01*
G01*
X189335000Y-109765000D01*
G75*
G02*
X189585000Y-110015000I0J-250000D01*
G01*
G37*
G36*
G01*
X187510000Y-110015000D02*
X187510000Y-110965000D01*
G75*
G02*
X187260000Y-111215000I-250000J0D01*
G01*
X186585000Y-111215000D01*
G75*
G02*
X186335000Y-110965000I0J250000D01*
G01*
X186335000Y-110015000D01*
G75*
G02*
X186585000Y-109765000I250000J0D01*
G01*
X187260000Y-109765000D01*
G75*
G02*
X187510000Y-110015000I0J-250000D01*
G01*
G37*
G36*
G01*
X187510000Y-129065000D02*
X187510000Y-130015000D01*
G75*
G02*
X187260000Y-130265000I-250000J0D01*
G01*
X186585000Y-130265000D01*
G75*
G02*
X186335000Y-130015000I0J250000D01*
G01*
X186335000Y-129065000D01*
G75*
G02*
X186585000Y-128815000I250000J0D01*
G01*
X187260000Y-128815000D01*
G75*
G02*
X187510000Y-129065000I0J-250000D01*
G01*
G37*
G36*
G01*
X189585000Y-129065000D02*
X189585000Y-130015000D01*
G75*
G02*
X189335000Y-130265000I-250000J0D01*
G01*
X188660000Y-130265000D01*
G75*
G02*
X188410000Y-130015000I0J250000D01*
G01*
X188410000Y-129065000D01*
G75*
G02*
X188660000Y-128815000I250000J0D01*
G01*
X189335000Y-128815000D01*
G75*
G02*
X189585000Y-129065000I0J-250000D01*
G01*
G37*
G36*
G01*
X174440000Y-118585000D02*
X174440000Y-117635000D01*
G75*
G02*
X174690000Y-117385000I250000J0D01*
G01*
X175365000Y-117385000D01*
G75*
G02*
X175615000Y-117635000I0J-250000D01*
G01*
X175615000Y-118585000D01*
G75*
G02*
X175365000Y-118835000I-250000J0D01*
G01*
X174690000Y-118835000D01*
G75*
G02*
X174440000Y-118585000I0J250000D01*
G01*
G37*
G36*
G01*
X172365000Y-118585000D02*
X172365000Y-117635000D01*
G75*
G02*
X172615000Y-117385000I250000J0D01*
G01*
X173290000Y-117385000D01*
G75*
G02*
X173540000Y-117635000I0J-250000D01*
G01*
X173540000Y-118585000D01*
G75*
G02*
X173290000Y-118835000I-250000J0D01*
G01*
X172615000Y-118835000D01*
G75*
G02*
X172365000Y-118585000I0J250000D01*
G01*
G37*
G36*
G01*
X174440000Y-137635000D02*
X174440000Y-136685000D01*
G75*
G02*
X174690000Y-136435000I250000J0D01*
G01*
X175365000Y-136435000D01*
G75*
G02*
X175615000Y-136685000I0J-250000D01*
G01*
X175615000Y-137635000D01*
G75*
G02*
X175365000Y-137885000I-250000J0D01*
G01*
X174690000Y-137885000D01*
G75*
G02*
X174440000Y-137635000I0J250000D01*
G01*
G37*
G36*
G01*
X172365000Y-137635000D02*
X172365000Y-136685000D01*
G75*
G02*
X172615000Y-136435000I250000J0D01*
G01*
X173290000Y-136435000D01*
G75*
G02*
X173540000Y-136685000I0J-250000D01*
G01*
X173540000Y-137635000D01*
G75*
G02*
X173290000Y-137885000I-250000J0D01*
G01*
X172615000Y-137885000D01*
G75*
G02*
X172365000Y-137635000I0J250000D01*
G01*
G37*
G36*
G01*
X178715000Y-130015000D02*
X178715000Y-129065000D01*
G75*
G02*
X178965000Y-128815000I250000J0D01*
G01*
X179640000Y-128815000D01*
G75*
G02*
X179890000Y-129065000I0J-250000D01*
G01*
X179890000Y-130015000D01*
G75*
G02*
X179640000Y-130265000I-250000J0D01*
G01*
X178965000Y-130265000D01*
G75*
G02*
X178715000Y-130015000I0J250000D01*
G01*
G37*
G36*
G01*
X180790000Y-130015000D02*
X180790000Y-129065000D01*
G75*
G02*
X181040000Y-128815000I250000J0D01*
G01*
X181715000Y-128815000D01*
G75*
G02*
X181965000Y-129065000I0J-250000D01*
G01*
X181965000Y-130015000D01*
G75*
G02*
X181715000Y-130265000I-250000J0D01*
G01*
X181040000Y-130265000D01*
G75*
G02*
X180790000Y-130015000I0J250000D01*
G01*
G37*
G36*
G01*
X190533000Y-137885500D02*
X191483000Y-137885500D01*
G75*
G02*
X191733000Y-138135500I0J-250000D01*
G01*
X191733000Y-138810500D01*
G75*
G02*
X191483000Y-139060500I-250000J0D01*
G01*
X190533000Y-139060500D01*
G75*
G02*
X190283000Y-138810500I0J250000D01*
G01*
X190283000Y-138135500D01*
G75*
G02*
X190533000Y-137885500I250000J0D01*
G01*
G37*
G36*
G01*
X190533000Y-135810500D02*
X191483000Y-135810500D01*
G75*
G02*
X191733000Y-136060500I0J-250000D01*
G01*
X191733000Y-136735500D01*
G75*
G02*
X191483000Y-136985500I-250000J0D01*
G01*
X190533000Y-136985500D01*
G75*
G02*
X190283000Y-136735500I0J250000D01*
G01*
X190283000Y-136060500D01*
G75*
G02*
X190533000Y-135810500I250000J0D01*
G01*
G37*
G36*
G01*
X178715000Y-110965000D02*
X178715000Y-110015000D01*
G75*
G02*
X178965000Y-109765000I250000J0D01*
G01*
X179640000Y-109765000D01*
G75*
G02*
X179890000Y-110015000I0J-250000D01*
G01*
X179890000Y-110965000D01*
G75*
G02*
X179640000Y-111215000I-250000J0D01*
G01*
X178965000Y-111215000D01*
G75*
G02*
X178715000Y-110965000I0J250000D01*
G01*
G37*
G36*
G01*
X180790000Y-110965000D02*
X180790000Y-110015000D01*
G75*
G02*
X181040000Y-109765000I250000J0D01*
G01*
X181715000Y-109765000D01*
G75*
G02*
X181965000Y-110015000I0J-250000D01*
G01*
X181965000Y-110965000D01*
G75*
G02*
X181715000Y-111215000I-250000J0D01*
G01*
X181040000Y-111215000D01*
G75*
G02*
X180790000Y-110965000I0J250000D01*
G01*
G37*
G36*
G01*
X144279600Y-116562200D02*
X145229600Y-116562200D01*
G75*
G02*
X145479600Y-116812200I0J-250000D01*
G01*
X145479600Y-117487200D01*
G75*
G02*
X145229600Y-117737200I-250000J0D01*
G01*
X144279600Y-117737200D01*
G75*
G02*
X144029600Y-117487200I0J250000D01*
G01*
X144029600Y-116812200D01*
G75*
G02*
X144279600Y-116562200I250000J0D01*
G01*
G37*
G36*
G01*
X144279600Y-114487200D02*
X145229600Y-114487200D01*
G75*
G02*
X145479600Y-114737200I0J-250000D01*
G01*
X145479600Y-115412200D01*
G75*
G02*
X145229600Y-115662200I-250000J0D01*
G01*
X144279600Y-115662200D01*
G75*
G02*
X144029600Y-115412200I0J250000D01*
G01*
X144029600Y-114737200D01*
G75*
G02*
X144279600Y-114487200I250000J0D01*
G01*
G37*
G36*
G01*
X142050100Y-120312200D02*
X142050100Y-119362200D01*
G75*
G02*
X142300100Y-119112200I250000J0D01*
G01*
X142975100Y-119112200D01*
G75*
G02*
X143225100Y-119362200I0J-250000D01*
G01*
X143225100Y-120312200D01*
G75*
G02*
X142975100Y-120562200I-250000J0D01*
G01*
X142300100Y-120562200D01*
G75*
G02*
X142050100Y-120312200I0J250000D01*
G01*
G37*
G36*
G01*
X144125100Y-120312200D02*
X144125100Y-119362200D01*
G75*
G02*
X144375100Y-119112200I250000J0D01*
G01*
X145050100Y-119112200D01*
G75*
G02*
X145300100Y-119362200I0J-250000D01*
G01*
X145300100Y-120312200D01*
G75*
G02*
X145050100Y-120562200I-250000J0D01*
G01*
X144375100Y-120562200D01*
G75*
G02*
X144125100Y-120312200I0J250000D01*
G01*
G37*
G36*
G01*
X146022701Y-131562802D02*
X146022701Y-130662800D01*
G75*
G02*
X146272700Y-130412801I249999J0D01*
G01*
X146922702Y-130412801D01*
G75*
G02*
X147172701Y-130662800I0J-249999D01*
G01*
X147172701Y-131562802D01*
G75*
G02*
X146922702Y-131812801I-249999J0D01*
G01*
X146272700Y-131812801D01*
G75*
G02*
X146022701Y-131562802I0J249999D01*
G01*
G37*
G36*
G01*
X148072701Y-131562802D02*
X148072701Y-130662800D01*
G75*
G02*
X148322700Y-130412801I249999J0D01*
G01*
X148972702Y-130412801D01*
G75*
G02*
X149222701Y-130662800I0J-249999D01*
G01*
X149222701Y-131562802D01*
G75*
G02*
X148972702Y-131812801I-249999J0D01*
G01*
X148322700Y-131812801D01*
G75*
G02*
X148072701Y-131562802I0J249999D01*
G01*
G37*
G36*
G01*
X193933301Y-101831402D02*
X193933301Y-100931400D01*
G75*
G02*
X194183300Y-100681401I249999J0D01*
G01*
X194833302Y-100681401D01*
G75*
G02*
X195083301Y-100931400I0J-249999D01*
G01*
X195083301Y-101831402D01*
G75*
G02*
X194833302Y-102081401I-249999J0D01*
G01*
X194183300Y-102081401D01*
G75*
G02*
X193933301Y-101831402I0J249999D01*
G01*
G37*
G36*
G01*
X191883301Y-101831402D02*
X191883301Y-100931400D01*
G75*
G02*
X192133300Y-100681401I249999J0D01*
G01*
X192783302Y-100681401D01*
G75*
G02*
X193033301Y-100931400I0J-249999D01*
G01*
X193033301Y-101831402D01*
G75*
G02*
X192783302Y-102081401I-249999J0D01*
G01*
X192133300Y-102081401D01*
G75*
G02*
X191883301Y-101831402I0J249999D01*
G01*
G37*
G36*
G01*
X191779200Y-104844001D02*
X191779200Y-103943999D01*
G75*
G02*
X192029199Y-103694000I249999J0D01*
G01*
X192679201Y-103694000D01*
G75*
G02*
X192929200Y-103943999I0J-249999D01*
G01*
X192929200Y-104844001D01*
G75*
G02*
X192679201Y-105094000I-249999J0D01*
G01*
X192029199Y-105094000D01*
G75*
G02*
X191779200Y-104844001I0J249999D01*
G01*
G37*
G36*
G01*
X193829200Y-104844001D02*
X193829200Y-103943999D01*
G75*
G02*
X194079199Y-103694000I249999J0D01*
G01*
X194729201Y-103694000D01*
G75*
G02*
X194979200Y-103943999I0J-249999D01*
G01*
X194979200Y-104844001D01*
G75*
G02*
X194729201Y-105094000I-249999J0D01*
G01*
X194079199Y-105094000D01*
G75*
G02*
X193829200Y-104844001I0J249999D01*
G01*
G37*
G36*
G01*
X191787500Y-134800001D02*
X191787500Y-131899999D01*
G75*
G02*
X192037499Y-131650000I249999J0D01*
G01*
X193112501Y-131650000D01*
G75*
G02*
X193362500Y-131899999I0J-249999D01*
G01*
X193362500Y-134800001D01*
G75*
G02*
X193112501Y-135050000I-249999J0D01*
G01*
X192037499Y-135050000D01*
G75*
G02*
X191787500Y-134800001I0J249999D01*
G01*
G37*
G36*
G01*
X196062500Y-134800001D02*
X196062500Y-131899999D01*
G75*
G02*
X196312499Y-131650000I249999J0D01*
G01*
X197387501Y-131650000D01*
G75*
G02*
X197637500Y-131899999I0J-249999D01*
G01*
X197637500Y-134800001D01*
G75*
G02*
X197387501Y-135050000I-249999J0D01*
G01*
X196312499Y-135050000D01*
G75*
G02*
X196062500Y-134800001I0J249999D01*
G01*
G37*
D14*
X205232000Y-146304000D03*
D15*
X208982000Y-146304000D03*
X207883650Y-148955650D03*
X205232000Y-150054000D03*
X202580350Y-148955650D03*
X201482000Y-146304000D03*
X202580350Y-143652350D03*
X205232000Y-142554000D03*
X207883650Y-143652350D03*
X141843650Y-85930850D03*
X139192000Y-84832500D03*
X136540350Y-85930850D03*
X135442000Y-88582500D03*
X136540350Y-91234150D03*
X139192000Y-92332500D03*
X141843650Y-91234150D03*
X142942000Y-88582500D03*
D14*
X139192000Y-88582500D03*
X205232000Y-88582500D03*
D15*
X208982000Y-88582500D03*
X207883650Y-91234150D03*
X205232000Y-92332500D03*
X202580350Y-91234150D03*
X201482000Y-88582500D03*
X202580350Y-85930850D03*
X205232000Y-84832500D03*
X207883650Y-85930850D03*
D13*
X184670000Y-116140000D03*
X185170000Y-116140000D03*
X185670000Y-116140000D03*
X186170000Y-116140000D03*
X186170000Y-117540000D03*
X185670000Y-117540000D03*
X185170000Y-117540000D03*
X184670000Y-117540000D03*
D16*
X179070000Y-90170000D03*
D17*
X179070000Y-87630000D03*
X181610000Y-90170000D03*
X181610000Y-87630000D03*
X184150000Y-90170000D03*
X184150000Y-87630000D03*
X186690000Y-90170000D03*
X186690000Y-87630000D03*
X189230000Y-90170000D03*
X189230000Y-87630000D03*
D16*
X165100000Y-90170000D03*
D17*
X165100000Y-87630000D03*
X167640000Y-90170000D03*
X167640000Y-87630000D03*
X170180000Y-90170000D03*
X170180000Y-87630000D03*
D18*
X175340000Y-114300000D03*
X172640000Y-114300000D03*
X172640000Y-133350000D03*
X175340000Y-133350000D03*
G36*
G01*
X150235499Y-110572500D02*
X151135501Y-110572500D01*
G75*
G02*
X151385500Y-110822499I0J-249999D01*
G01*
X151385500Y-111522501D01*
G75*
G02*
X151135501Y-111772500I-249999J0D01*
G01*
X150235499Y-111772500D01*
G75*
G02*
X149985500Y-111522501I0J249999D01*
G01*
X149985500Y-110822499D01*
G75*
G02*
X150235499Y-110572500I249999J0D01*
G01*
G37*
G36*
G01*
X150235499Y-108572500D02*
X151135501Y-108572500D01*
G75*
G02*
X151385500Y-108822499I0J-249999D01*
G01*
X151385500Y-109522501D01*
G75*
G02*
X151135501Y-109772500I-249999J0D01*
G01*
X150235499Y-109772500D01*
G75*
G02*
X149985500Y-109522501I0J249999D01*
G01*
X149985500Y-108822499D01*
G75*
G02*
X150235499Y-108572500I249999J0D01*
G01*
G37*
G36*
G01*
X179520001Y-116440000D02*
X178619999Y-116440000D01*
G75*
G02*
X178370000Y-116190001I0J249999D01*
G01*
X178370000Y-115489999D01*
G75*
G02*
X178619999Y-115240000I249999J0D01*
G01*
X179520001Y-115240000D01*
G75*
G02*
X179770000Y-115489999I0J-249999D01*
G01*
X179770000Y-116190001D01*
G75*
G02*
X179520001Y-116440000I-249999J0D01*
G01*
G37*
G36*
G01*
X179520001Y-118440000D02*
X178619999Y-118440000D01*
G75*
G02*
X178370000Y-118190001I0J249999D01*
G01*
X178370000Y-117489999D01*
G75*
G02*
X178619999Y-117240000I249999J0D01*
G01*
X179520001Y-117240000D01*
G75*
G02*
X179770000Y-117489999I0J-249999D01*
G01*
X179770000Y-118190001D01*
G75*
G02*
X179520001Y-118440000I-249999J0D01*
G01*
G37*
G36*
G01*
X179520001Y-135490000D02*
X178619999Y-135490000D01*
G75*
G02*
X178370000Y-135240001I0J249999D01*
G01*
X178370000Y-134539999D01*
G75*
G02*
X178619999Y-134290000I249999J0D01*
G01*
X179520001Y-134290000D01*
G75*
G02*
X179770000Y-134539999I0J-249999D01*
G01*
X179770000Y-135240001D01*
G75*
G02*
X179520001Y-135490000I-249999J0D01*
G01*
G37*
G36*
G01*
X179520001Y-137490000D02*
X178619999Y-137490000D01*
G75*
G02*
X178370000Y-137240001I0J249999D01*
G01*
X178370000Y-136539999D01*
G75*
G02*
X178619999Y-136290000I249999J0D01*
G01*
X179520001Y-136290000D01*
G75*
G02*
X179770000Y-136539999I0J-249999D01*
G01*
X179770000Y-137240001D01*
G75*
G02*
X179520001Y-137490000I-249999J0D01*
G01*
G37*
G36*
G01*
X186360000Y-113480001D02*
X186360000Y-112579999D01*
G75*
G02*
X186609999Y-112330000I249999J0D01*
G01*
X187310001Y-112330000D01*
G75*
G02*
X187560000Y-112579999I0J-249999D01*
G01*
X187560000Y-113480001D01*
G75*
G02*
X187310001Y-113730000I-249999J0D01*
G01*
X186609999Y-113730000D01*
G75*
G02*
X186360000Y-113480001I0J249999D01*
G01*
G37*
G36*
G01*
X188360000Y-113480001D02*
X188360000Y-112579999D01*
G75*
G02*
X188609999Y-112330000I249999J0D01*
G01*
X189310001Y-112330000D01*
G75*
G02*
X189560000Y-112579999I0J-249999D01*
G01*
X189560000Y-113480001D01*
G75*
G02*
X189310001Y-113730000I-249999J0D01*
G01*
X188609999Y-113730000D01*
G75*
G02*
X188360000Y-113480001I0J249999D01*
G01*
G37*
G36*
G01*
X188360000Y-132530001D02*
X188360000Y-131629999D01*
G75*
G02*
X188609999Y-131380000I249999J0D01*
G01*
X189310001Y-131380000D01*
G75*
G02*
X189560000Y-131629999I0J-249999D01*
G01*
X189560000Y-132530001D01*
G75*
G02*
X189310001Y-132780000I-249999J0D01*
G01*
X188609999Y-132780000D01*
G75*
G02*
X188360000Y-132530001I0J249999D01*
G01*
G37*
G36*
G01*
X186360000Y-132530001D02*
X186360000Y-131629999D01*
G75*
G02*
X186609999Y-131380000I249999J0D01*
G01*
X187310001Y-131380000D01*
G75*
G02*
X187560000Y-131629999I0J-249999D01*
G01*
X187560000Y-132530001D01*
G75*
G02*
X187310001Y-132780000I-249999J0D01*
G01*
X186609999Y-132780000D01*
G75*
G02*
X186360000Y-132530001I0J249999D01*
G01*
G37*
G36*
G01*
X184550000Y-132530001D02*
X184550000Y-131629999D01*
G75*
G02*
X184799999Y-131380000I249999J0D01*
G01*
X185500001Y-131380000D01*
G75*
G02*
X185750000Y-131629999I0J-249999D01*
G01*
X185750000Y-132530001D01*
G75*
G02*
X185500001Y-132780000I-249999J0D01*
G01*
X184799999Y-132780000D01*
G75*
G02*
X184550000Y-132530001I0J249999D01*
G01*
G37*
G36*
G01*
X182550000Y-132530001D02*
X182550000Y-131629999D01*
G75*
G02*
X182799999Y-131380000I249999J0D01*
G01*
X183500001Y-131380000D01*
G75*
G02*
X183750000Y-131629999I0J-249999D01*
G01*
X183750000Y-132530001D01*
G75*
G02*
X183500001Y-132780000I-249999J0D01*
G01*
X182799999Y-132780000D01*
G75*
G02*
X182550000Y-132530001I0J249999D01*
G01*
G37*
G36*
G01*
X182550000Y-113480001D02*
X182550000Y-112579999D01*
G75*
G02*
X182799999Y-112330000I249999J0D01*
G01*
X183500001Y-112330000D01*
G75*
G02*
X183750000Y-112579999I0J-249999D01*
G01*
X183750000Y-113480001D01*
G75*
G02*
X183500001Y-113730000I-249999J0D01*
G01*
X182799999Y-113730000D01*
G75*
G02*
X182550000Y-113480001I0J249999D01*
G01*
G37*
G36*
G01*
X184550000Y-113480001D02*
X184550000Y-112579999D01*
G75*
G02*
X184799999Y-112330000I249999J0D01*
G01*
X185500001Y-112330000D01*
G75*
G02*
X185750000Y-112579999I0J-249999D01*
G01*
X185750000Y-113480001D01*
G75*
G02*
X185500001Y-113730000I-249999J0D01*
G01*
X184799999Y-113730000D01*
G75*
G02*
X184550000Y-113480001I0J249999D01*
G01*
G37*
G36*
G01*
X182550000Y-130015401D02*
X182550000Y-129115399D01*
G75*
G02*
X182799999Y-128865400I249999J0D01*
G01*
X183500001Y-128865400D01*
G75*
G02*
X183750000Y-129115399I0J-249999D01*
G01*
X183750000Y-130015401D01*
G75*
G02*
X183500001Y-130265400I-249999J0D01*
G01*
X182799999Y-130265400D01*
G75*
G02*
X182550000Y-130015401I0J249999D01*
G01*
G37*
G36*
G01*
X184550000Y-130015401D02*
X184550000Y-129115399D01*
G75*
G02*
X184799999Y-128865400I249999J0D01*
G01*
X185500001Y-128865400D01*
G75*
G02*
X185750000Y-129115399I0J-249999D01*
G01*
X185750000Y-130015401D01*
G75*
G02*
X185500001Y-130265400I-249999J0D01*
G01*
X184799999Y-130265400D01*
G75*
G02*
X184550000Y-130015401I0J249999D01*
G01*
G37*
G36*
G01*
X182550000Y-110940001D02*
X182550000Y-110039999D01*
G75*
G02*
X182799999Y-109790000I249999J0D01*
G01*
X183500001Y-109790000D01*
G75*
G02*
X183750000Y-110039999I0J-249999D01*
G01*
X183750000Y-110940001D01*
G75*
G02*
X183500001Y-111190000I-249999J0D01*
G01*
X182799999Y-111190000D01*
G75*
G02*
X182550000Y-110940001I0J249999D01*
G01*
G37*
G36*
G01*
X184550000Y-110940001D02*
X184550000Y-110039999D01*
G75*
G02*
X184799999Y-109790000I249999J0D01*
G01*
X185500001Y-109790000D01*
G75*
G02*
X185750000Y-110039999I0J-249999D01*
G01*
X185750000Y-110940001D01*
G75*
G02*
X185500001Y-111190000I-249999J0D01*
G01*
X184799999Y-111190000D01*
G75*
G02*
X184550000Y-110940001I0J249999D01*
G01*
G37*
G36*
G01*
X178740000Y-132530001D02*
X178740000Y-131629999D01*
G75*
G02*
X178989999Y-131380000I249999J0D01*
G01*
X179690001Y-131380000D01*
G75*
G02*
X179940000Y-131629999I0J-249999D01*
G01*
X179940000Y-132530001D01*
G75*
G02*
X179690001Y-132780000I-249999J0D01*
G01*
X178989999Y-132780000D01*
G75*
G02*
X178740000Y-132530001I0J249999D01*
G01*
G37*
G36*
G01*
X180740000Y-132530001D02*
X180740000Y-131629999D01*
G75*
G02*
X180989999Y-131380000I249999J0D01*
G01*
X181690001Y-131380000D01*
G75*
G02*
X181940000Y-131629999I0J-249999D01*
G01*
X181940000Y-132530001D01*
G75*
G02*
X181690001Y-132780000I-249999J0D01*
G01*
X180989999Y-132780000D01*
G75*
G02*
X180740000Y-132530001I0J249999D01*
G01*
G37*
G36*
G01*
X148024800Y-134181001D02*
X148024800Y-133280999D01*
G75*
G02*
X148274799Y-133031000I249999J0D01*
G01*
X148974801Y-133031000D01*
G75*
G02*
X149224800Y-133280999I0J-249999D01*
G01*
X149224800Y-134181001D01*
G75*
G02*
X148974801Y-134431000I-249999J0D01*
G01*
X148274799Y-134431000D01*
G75*
G02*
X148024800Y-134181001I0J249999D01*
G01*
G37*
G36*
G01*
X146024800Y-134181001D02*
X146024800Y-133280999D01*
G75*
G02*
X146274799Y-133031000I249999J0D01*
G01*
X146974801Y-133031000D01*
G75*
G02*
X147224800Y-133280999I0J-249999D01*
G01*
X147224800Y-134181001D01*
G75*
G02*
X146974801Y-134431000I-249999J0D01*
G01*
X146274799Y-134431000D01*
G75*
G02*
X146024800Y-134181001I0J249999D01*
G01*
G37*
G36*
G01*
X190880800Y-100819799D02*
X190880800Y-101719801D01*
G75*
G02*
X190630801Y-101969800I-249999J0D01*
G01*
X189930799Y-101969800D01*
G75*
G02*
X189680800Y-101719801I0J249999D01*
G01*
X189680800Y-100819799D01*
G75*
G02*
X189930799Y-100569800I249999J0D01*
G01*
X190630801Y-100569800D01*
G75*
G02*
X190880800Y-100819799I0J-249999D01*
G01*
G37*
G36*
G01*
X188880800Y-100819799D02*
X188880800Y-101719801D01*
G75*
G02*
X188630801Y-101969800I-249999J0D01*
G01*
X187930799Y-101969800D01*
G75*
G02*
X187680800Y-101719801I0J249999D01*
G01*
X187680800Y-100819799D01*
G75*
G02*
X187930799Y-100569800I249999J0D01*
G01*
X188630801Y-100569800D01*
G75*
G02*
X188880800Y-100819799I0J-249999D01*
G01*
G37*
G36*
G01*
X190855400Y-103943999D02*
X190855400Y-104844001D01*
G75*
G02*
X190605401Y-105094000I-249999J0D01*
G01*
X189905399Y-105094000D01*
G75*
G02*
X189655400Y-104844001I0J249999D01*
G01*
X189655400Y-103943999D01*
G75*
G02*
X189905399Y-103694000I249999J0D01*
G01*
X190605401Y-103694000D01*
G75*
G02*
X190855400Y-103943999I0J-249999D01*
G01*
G37*
G36*
G01*
X188855400Y-103943999D02*
X188855400Y-104844001D01*
G75*
G02*
X188605401Y-105094000I-249999J0D01*
G01*
X187905399Y-105094000D01*
G75*
G02*
X187655400Y-104844001I0J249999D01*
G01*
X187655400Y-103943999D01*
G75*
G02*
X187905399Y-103694000I249999J0D01*
G01*
X188605401Y-103694000D01*
G75*
G02*
X188855400Y-103943999I0J-249999D01*
G01*
G37*
G36*
G01*
X180740000Y-113480001D02*
X180740000Y-112579999D01*
G75*
G02*
X180989999Y-112330000I249999J0D01*
G01*
X181690001Y-112330000D01*
G75*
G02*
X181940000Y-112579999I0J-249999D01*
G01*
X181940000Y-113480001D01*
G75*
G02*
X181690001Y-113730000I-249999J0D01*
G01*
X180989999Y-113730000D01*
G75*
G02*
X180740000Y-113480001I0J249999D01*
G01*
G37*
G36*
G01*
X178740000Y-113480001D02*
X178740000Y-112579999D01*
G75*
G02*
X178989999Y-112330000I249999J0D01*
G01*
X179690001Y-112330000D01*
G75*
G02*
X179940000Y-112579999I0J-249999D01*
G01*
X179940000Y-113480001D01*
G75*
G02*
X179690001Y-113730000I-249999J0D01*
G01*
X178989999Y-113730000D01*
G75*
G02*
X178740000Y-113480001I0J249999D01*
G01*
G37*
G36*
G01*
X143694100Y-123843201D02*
X143694100Y-122943199D01*
G75*
G02*
X143944099Y-122693200I249999J0D01*
G01*
X144644101Y-122693200D01*
G75*
G02*
X144894100Y-122943199I0J-249999D01*
G01*
X144894100Y-123843201D01*
G75*
G02*
X144644101Y-124093200I-249999J0D01*
G01*
X143944099Y-124093200D01*
G75*
G02*
X143694100Y-123843201I0J249999D01*
G01*
G37*
G36*
G01*
X141694100Y-123843201D02*
X141694100Y-122943199D01*
G75*
G02*
X141944099Y-122693200I249999J0D01*
G01*
X142644101Y-122693200D01*
G75*
G02*
X142894100Y-122943199I0J-249999D01*
G01*
X142894100Y-123843201D01*
G75*
G02*
X142644101Y-124093200I-249999J0D01*
G01*
X141944099Y-124093200D01*
G75*
G02*
X141694100Y-123843201I0J249999D01*
G01*
G37*
G36*
G01*
X163906000Y-133915999D02*
X163906000Y-134816001D01*
G75*
G02*
X163656001Y-135066000I-249999J0D01*
G01*
X162955999Y-135066000D01*
G75*
G02*
X162706000Y-134816001I0J249999D01*
G01*
X162706000Y-133915999D01*
G75*
G02*
X162955999Y-133666000I249999J0D01*
G01*
X163656001Y-133666000D01*
G75*
G02*
X163906000Y-133915999I0J-249999D01*
G01*
G37*
G36*
G01*
X161906000Y-133915999D02*
X161906000Y-134816001D01*
G75*
G02*
X161656001Y-135066000I-249999J0D01*
G01*
X160955999Y-135066000D01*
G75*
G02*
X160706000Y-134816001I0J249999D01*
G01*
X160706000Y-133915999D01*
G75*
G02*
X160955999Y-133666000I249999J0D01*
G01*
X161656001Y-133666000D01*
G75*
G02*
X161906000Y-133915999I0J-249999D01*
G01*
G37*
G36*
G01*
X161826500Y-131185499D02*
X161826500Y-132085501D01*
G75*
G02*
X161576501Y-132335500I-249999J0D01*
G01*
X160876499Y-132335500D01*
G75*
G02*
X160626500Y-132085501I0J249999D01*
G01*
X160626500Y-131185499D01*
G75*
G02*
X160876499Y-130935500I249999J0D01*
G01*
X161576501Y-130935500D01*
G75*
G02*
X161826500Y-131185499I0J-249999D01*
G01*
G37*
G36*
G01*
X163826500Y-131185499D02*
X163826500Y-132085501D01*
G75*
G02*
X163576501Y-132335500I-249999J0D01*
G01*
X162876499Y-132335500D01*
G75*
G02*
X162626500Y-132085501I0J249999D01*
G01*
X162626500Y-131185499D01*
G75*
G02*
X162876499Y-130935500I249999J0D01*
G01*
X163576501Y-130935500D01*
G75*
G02*
X163826500Y-131185499I0J-249999D01*
G01*
G37*
G36*
G01*
X168668500Y-133915999D02*
X168668500Y-134816001D01*
G75*
G02*
X168418501Y-135066000I-249999J0D01*
G01*
X167718499Y-135066000D01*
G75*
G02*
X167468500Y-134816001I0J249999D01*
G01*
X167468500Y-133915999D01*
G75*
G02*
X167718499Y-133666000I249999J0D01*
G01*
X168418501Y-133666000D01*
G75*
G02*
X168668500Y-133915999I0J-249999D01*
G01*
G37*
G36*
G01*
X166668500Y-133915999D02*
X166668500Y-134816001D01*
G75*
G02*
X166418501Y-135066000I-249999J0D01*
G01*
X165718499Y-135066000D01*
G75*
G02*
X165468500Y-134816001I0J249999D01*
G01*
X165468500Y-133915999D01*
G75*
G02*
X165718499Y-133666000I249999J0D01*
G01*
X166418501Y-133666000D01*
G75*
G02*
X166668500Y-133915999I0J-249999D01*
G01*
G37*
G36*
G01*
X168668500Y-131248999D02*
X168668500Y-132149001D01*
G75*
G02*
X168418501Y-132399000I-249999J0D01*
G01*
X167718499Y-132399000D01*
G75*
G02*
X167468500Y-132149001I0J249999D01*
G01*
X167468500Y-131248999D01*
G75*
G02*
X167718499Y-130999000I249999J0D01*
G01*
X168418501Y-130999000D01*
G75*
G02*
X168668500Y-131248999I0J-249999D01*
G01*
G37*
G36*
G01*
X166668500Y-131248999D02*
X166668500Y-132149001D01*
G75*
G02*
X166418501Y-132399000I-249999J0D01*
G01*
X165718499Y-132399000D01*
G75*
G02*
X165468500Y-132149001I0J249999D01*
G01*
X165468500Y-131248999D01*
G75*
G02*
X165718499Y-130999000I249999J0D01*
G01*
X166418501Y-130999000D01*
G75*
G02*
X166668500Y-131248999I0J-249999D01*
G01*
G37*
G36*
G01*
X140973100Y-125927699D02*
X140973100Y-126827701D01*
G75*
G02*
X140723101Y-127077700I-249999J0D01*
G01*
X140023099Y-127077700D01*
G75*
G02*
X139773100Y-126827701I0J249999D01*
G01*
X139773100Y-125927699D01*
G75*
G02*
X140023099Y-125677700I249999J0D01*
G01*
X140723101Y-125677700D01*
G75*
G02*
X140973100Y-125927699I0J-249999D01*
G01*
G37*
G36*
G01*
X138973100Y-125927699D02*
X138973100Y-126827701D01*
G75*
G02*
X138723101Y-127077700I-249999J0D01*
G01*
X138023099Y-127077700D01*
G75*
G02*
X137773100Y-126827701I0J249999D01*
G01*
X137773100Y-125927699D01*
G75*
G02*
X138023099Y-125677700I249999J0D01*
G01*
X138723101Y-125677700D01*
G75*
G02*
X138973100Y-125927699I0J-249999D01*
G01*
G37*
G36*
G01*
X154396900Y-133901601D02*
X154396900Y-133001599D01*
G75*
G02*
X154646899Y-132751600I249999J0D01*
G01*
X155346901Y-132751600D01*
G75*
G02*
X155596900Y-133001599I0J-249999D01*
G01*
X155596900Y-133901601D01*
G75*
G02*
X155346901Y-134151600I-249999J0D01*
G01*
X154646899Y-134151600D01*
G75*
G02*
X154396900Y-133901601I0J249999D01*
G01*
G37*
G36*
G01*
X152396900Y-133901601D02*
X152396900Y-133001599D01*
G75*
G02*
X152646899Y-132751600I249999J0D01*
G01*
X153346901Y-132751600D01*
G75*
G02*
X153596900Y-133001599I0J-249999D01*
G01*
X153596900Y-133901601D01*
G75*
G02*
X153346901Y-134151600I-249999J0D01*
G01*
X152646899Y-134151600D01*
G75*
G02*
X152396900Y-133901601I0J249999D01*
G01*
G37*
G36*
G01*
X156372000Y-102964401D02*
X156372000Y-102064399D01*
G75*
G02*
X156621999Y-101814400I249999J0D01*
G01*
X157322001Y-101814400D01*
G75*
G02*
X157572000Y-102064399I0J-249999D01*
G01*
X157572000Y-102964401D01*
G75*
G02*
X157322001Y-103214400I-249999J0D01*
G01*
X156621999Y-103214400D01*
G75*
G02*
X156372000Y-102964401I0J249999D01*
G01*
G37*
G36*
G01*
X154372000Y-102964401D02*
X154372000Y-102064399D01*
G75*
G02*
X154621999Y-101814400I249999J0D01*
G01*
X155322001Y-101814400D01*
G75*
G02*
X155572000Y-102064399I0J-249999D01*
G01*
X155572000Y-102964401D01*
G75*
G02*
X155322001Y-103214400I-249999J0D01*
G01*
X154621999Y-103214400D01*
G75*
G02*
X154372000Y-102964401I0J249999D01*
G01*
G37*
G36*
G01*
X138011100Y-120287201D02*
X138011100Y-119387199D01*
G75*
G02*
X138261099Y-119137200I249999J0D01*
G01*
X138961101Y-119137200D01*
G75*
G02*
X139211100Y-119387199I0J-249999D01*
G01*
X139211100Y-120287201D01*
G75*
G02*
X138961101Y-120537200I-249999J0D01*
G01*
X138261099Y-120537200D01*
G75*
G02*
X138011100Y-120287201I0J249999D01*
G01*
G37*
G36*
G01*
X140011100Y-120287201D02*
X140011100Y-119387199D01*
G75*
G02*
X140261099Y-119137200I249999J0D01*
G01*
X140961101Y-119137200D01*
G75*
G02*
X141211100Y-119387199I0J-249999D01*
G01*
X141211100Y-120287201D01*
G75*
G02*
X140961101Y-120537200I-249999J0D01*
G01*
X140261099Y-120537200D01*
G75*
G02*
X140011100Y-120287201I0J249999D01*
G01*
G37*
D19*
X151853900Y-140246100D03*
X154393900Y-140246100D03*
X156933900Y-140246100D03*
G36*
G01*
X150674400Y-117457600D02*
X150674400Y-117307600D01*
G75*
G02*
X150749400Y-117232600I75000J0D01*
G01*
X152149400Y-117232600D01*
G75*
G02*
X152224400Y-117307600I0J-75000D01*
G01*
X152224400Y-117457600D01*
G75*
G02*
X152149400Y-117532600I-75000J0D01*
G01*
X150749400Y-117532600D01*
G75*
G02*
X150674400Y-117457600I0J75000D01*
G01*
G37*
G36*
G01*
X150674400Y-117957600D02*
X150674400Y-117807600D01*
G75*
G02*
X150749400Y-117732600I75000J0D01*
G01*
X152149400Y-117732600D01*
G75*
G02*
X152224400Y-117807600I0J-75000D01*
G01*
X152224400Y-117957600D01*
G75*
G02*
X152149400Y-118032600I-75000J0D01*
G01*
X150749400Y-118032600D01*
G75*
G02*
X150674400Y-117957600I0J75000D01*
G01*
G37*
G36*
G01*
X150674400Y-118457600D02*
X150674400Y-118307600D01*
G75*
G02*
X150749400Y-118232600I75000J0D01*
G01*
X152149400Y-118232600D01*
G75*
G02*
X152224400Y-118307600I0J-75000D01*
G01*
X152224400Y-118457600D01*
G75*
G02*
X152149400Y-118532600I-75000J0D01*
G01*
X150749400Y-118532600D01*
G75*
G02*
X150674400Y-118457600I0J75000D01*
G01*
G37*
G36*
G01*
X150674400Y-118957600D02*
X150674400Y-118807600D01*
G75*
G02*
X150749400Y-118732600I75000J0D01*
G01*
X152149400Y-118732600D01*
G75*
G02*
X152224400Y-118807600I0J-75000D01*
G01*
X152224400Y-118957600D01*
G75*
G02*
X152149400Y-119032600I-75000J0D01*
G01*
X150749400Y-119032600D01*
G75*
G02*
X150674400Y-118957600I0J75000D01*
G01*
G37*
G36*
G01*
X150674400Y-119457600D02*
X150674400Y-119307600D01*
G75*
G02*
X150749400Y-119232600I75000J0D01*
G01*
X152149400Y-119232600D01*
G75*
G02*
X152224400Y-119307600I0J-75000D01*
G01*
X152224400Y-119457600D01*
G75*
G02*
X152149400Y-119532600I-75000J0D01*
G01*
X150749400Y-119532600D01*
G75*
G02*
X150674400Y-119457600I0J75000D01*
G01*
G37*
G36*
G01*
X150674400Y-119957600D02*
X150674400Y-119807600D01*
G75*
G02*
X150749400Y-119732600I75000J0D01*
G01*
X152149400Y-119732600D01*
G75*
G02*
X152224400Y-119807600I0J-75000D01*
G01*
X152224400Y-119957600D01*
G75*
G02*
X152149400Y-120032600I-75000J0D01*
G01*
X150749400Y-120032600D01*
G75*
G02*
X150674400Y-119957600I0J75000D01*
G01*
G37*
G36*
G01*
X150674400Y-120457600D02*
X150674400Y-120307600D01*
G75*
G02*
X150749400Y-120232600I75000J0D01*
G01*
X152149400Y-120232600D01*
G75*
G02*
X152224400Y-120307600I0J-75000D01*
G01*
X152224400Y-120457600D01*
G75*
G02*
X152149400Y-120532600I-75000J0D01*
G01*
X150749400Y-120532600D01*
G75*
G02*
X150674400Y-120457600I0J75000D01*
G01*
G37*
G36*
G01*
X150674400Y-120957600D02*
X150674400Y-120807600D01*
G75*
G02*
X150749400Y-120732600I75000J0D01*
G01*
X152149400Y-120732600D01*
G75*
G02*
X152224400Y-120807600I0J-75000D01*
G01*
X152224400Y-120957600D01*
G75*
G02*
X152149400Y-121032600I-75000J0D01*
G01*
X150749400Y-121032600D01*
G75*
G02*
X150674400Y-120957600I0J75000D01*
G01*
G37*
G36*
G01*
X150674400Y-121457600D02*
X150674400Y-121307600D01*
G75*
G02*
X150749400Y-121232600I75000J0D01*
G01*
X152149400Y-121232600D01*
G75*
G02*
X152224400Y-121307600I0J-75000D01*
G01*
X152224400Y-121457600D01*
G75*
G02*
X152149400Y-121532600I-75000J0D01*
G01*
X150749400Y-121532600D01*
G75*
G02*
X150674400Y-121457600I0J75000D01*
G01*
G37*
G36*
G01*
X150674400Y-121957600D02*
X150674400Y-121807600D01*
G75*
G02*
X150749400Y-121732600I75000J0D01*
G01*
X152149400Y-121732600D01*
G75*
G02*
X152224400Y-121807600I0J-75000D01*
G01*
X152224400Y-121957600D01*
G75*
G02*
X152149400Y-122032600I-75000J0D01*
G01*
X150749400Y-122032600D01*
G75*
G02*
X150674400Y-121957600I0J75000D01*
G01*
G37*
G36*
G01*
X150674400Y-122457600D02*
X150674400Y-122307600D01*
G75*
G02*
X150749400Y-122232600I75000J0D01*
G01*
X152149400Y-122232600D01*
G75*
G02*
X152224400Y-122307600I0J-75000D01*
G01*
X152224400Y-122457600D01*
G75*
G02*
X152149400Y-122532600I-75000J0D01*
G01*
X150749400Y-122532600D01*
G75*
G02*
X150674400Y-122457600I0J75000D01*
G01*
G37*
G36*
G01*
X150674400Y-122957600D02*
X150674400Y-122807600D01*
G75*
G02*
X150749400Y-122732600I75000J0D01*
G01*
X152149400Y-122732600D01*
G75*
G02*
X152224400Y-122807600I0J-75000D01*
G01*
X152224400Y-122957600D01*
G75*
G02*
X152149400Y-123032600I-75000J0D01*
G01*
X150749400Y-123032600D01*
G75*
G02*
X150674400Y-122957600I0J75000D01*
G01*
G37*
G36*
G01*
X150674400Y-123457600D02*
X150674400Y-123307600D01*
G75*
G02*
X150749400Y-123232600I75000J0D01*
G01*
X152149400Y-123232600D01*
G75*
G02*
X152224400Y-123307600I0J-75000D01*
G01*
X152224400Y-123457600D01*
G75*
G02*
X152149400Y-123532600I-75000J0D01*
G01*
X150749400Y-123532600D01*
G75*
G02*
X150674400Y-123457600I0J75000D01*
G01*
G37*
G36*
G01*
X150674400Y-123957600D02*
X150674400Y-123807600D01*
G75*
G02*
X150749400Y-123732600I75000J0D01*
G01*
X152149400Y-123732600D01*
G75*
G02*
X152224400Y-123807600I0J-75000D01*
G01*
X152224400Y-123957600D01*
G75*
G02*
X152149400Y-124032600I-75000J0D01*
G01*
X150749400Y-124032600D01*
G75*
G02*
X150674400Y-123957600I0J75000D01*
G01*
G37*
G36*
G01*
X150674400Y-124457600D02*
X150674400Y-124307600D01*
G75*
G02*
X150749400Y-124232600I75000J0D01*
G01*
X152149400Y-124232600D01*
G75*
G02*
X152224400Y-124307600I0J-75000D01*
G01*
X152224400Y-124457600D01*
G75*
G02*
X152149400Y-124532600I-75000J0D01*
G01*
X150749400Y-124532600D01*
G75*
G02*
X150674400Y-124457600I0J75000D01*
G01*
G37*
G36*
G01*
X150674400Y-124957600D02*
X150674400Y-124807600D01*
G75*
G02*
X150749400Y-124732600I75000J0D01*
G01*
X152149400Y-124732600D01*
G75*
G02*
X152224400Y-124807600I0J-75000D01*
G01*
X152224400Y-124957600D01*
G75*
G02*
X152149400Y-125032600I-75000J0D01*
G01*
X150749400Y-125032600D01*
G75*
G02*
X150674400Y-124957600I0J75000D01*
G01*
G37*
G36*
G01*
X153224400Y-127507600D02*
X153224400Y-126107600D01*
G75*
G02*
X153299400Y-126032600I75000J0D01*
G01*
X153449400Y-126032600D01*
G75*
G02*
X153524400Y-126107600I0J-75000D01*
G01*
X153524400Y-127507600D01*
G75*
G02*
X153449400Y-127582600I-75000J0D01*
G01*
X153299400Y-127582600D01*
G75*
G02*
X153224400Y-127507600I0J75000D01*
G01*
G37*
G36*
G01*
X153724400Y-127507600D02*
X153724400Y-126107600D01*
G75*
G02*
X153799400Y-126032600I75000J0D01*
G01*
X153949400Y-126032600D01*
G75*
G02*
X154024400Y-126107600I0J-75000D01*
G01*
X154024400Y-127507600D01*
G75*
G02*
X153949400Y-127582600I-75000J0D01*
G01*
X153799400Y-127582600D01*
G75*
G02*
X153724400Y-127507600I0J75000D01*
G01*
G37*
G36*
G01*
X154224400Y-127507600D02*
X154224400Y-126107600D01*
G75*
G02*
X154299400Y-126032600I75000J0D01*
G01*
X154449400Y-126032600D01*
G75*
G02*
X154524400Y-126107600I0J-75000D01*
G01*
X154524400Y-127507600D01*
G75*
G02*
X154449400Y-127582600I-75000J0D01*
G01*
X154299400Y-127582600D01*
G75*
G02*
X154224400Y-127507600I0J75000D01*
G01*
G37*
G36*
G01*
X154724400Y-127507600D02*
X154724400Y-126107600D01*
G75*
G02*
X154799400Y-126032600I75000J0D01*
G01*
X154949400Y-126032600D01*
G75*
G02*
X155024400Y-126107600I0J-75000D01*
G01*
X155024400Y-127507600D01*
G75*
G02*
X154949400Y-127582600I-75000J0D01*
G01*
X154799400Y-127582600D01*
G75*
G02*
X154724400Y-127507600I0J75000D01*
G01*
G37*
G36*
G01*
X155224400Y-127507600D02*
X155224400Y-126107600D01*
G75*
G02*
X155299400Y-126032600I75000J0D01*
G01*
X155449400Y-126032600D01*
G75*
G02*
X155524400Y-126107600I0J-75000D01*
G01*
X155524400Y-127507600D01*
G75*
G02*
X155449400Y-127582600I-75000J0D01*
G01*
X155299400Y-127582600D01*
G75*
G02*
X155224400Y-127507600I0J75000D01*
G01*
G37*
G36*
G01*
X155724400Y-127507600D02*
X155724400Y-126107600D01*
G75*
G02*
X155799400Y-126032600I75000J0D01*
G01*
X155949400Y-126032600D01*
G75*
G02*
X156024400Y-126107600I0J-75000D01*
G01*
X156024400Y-127507600D01*
G75*
G02*
X155949400Y-127582600I-75000J0D01*
G01*
X155799400Y-127582600D01*
G75*
G02*
X155724400Y-127507600I0J75000D01*
G01*
G37*
G36*
G01*
X156224400Y-127507600D02*
X156224400Y-126107600D01*
G75*
G02*
X156299400Y-126032600I75000J0D01*
G01*
X156449400Y-126032600D01*
G75*
G02*
X156524400Y-126107600I0J-75000D01*
G01*
X156524400Y-127507600D01*
G75*
G02*
X156449400Y-127582600I-75000J0D01*
G01*
X156299400Y-127582600D01*
G75*
G02*
X156224400Y-127507600I0J75000D01*
G01*
G37*
G36*
G01*
X156724400Y-127507600D02*
X156724400Y-126107600D01*
G75*
G02*
X156799400Y-126032600I75000J0D01*
G01*
X156949400Y-126032600D01*
G75*
G02*
X157024400Y-126107600I0J-75000D01*
G01*
X157024400Y-127507600D01*
G75*
G02*
X156949400Y-127582600I-75000J0D01*
G01*
X156799400Y-127582600D01*
G75*
G02*
X156724400Y-127507600I0J75000D01*
G01*
G37*
G36*
G01*
X157224400Y-127507600D02*
X157224400Y-126107600D01*
G75*
G02*
X157299400Y-126032600I75000J0D01*
G01*
X157449400Y-126032600D01*
G75*
G02*
X157524400Y-126107600I0J-75000D01*
G01*
X157524400Y-127507600D01*
G75*
G02*
X157449400Y-127582600I-75000J0D01*
G01*
X157299400Y-127582600D01*
G75*
G02*
X157224400Y-127507600I0J75000D01*
G01*
G37*
G36*
G01*
X157724400Y-127507600D02*
X157724400Y-126107600D01*
G75*
G02*
X157799400Y-126032600I75000J0D01*
G01*
X157949400Y-126032600D01*
G75*
G02*
X158024400Y-126107600I0J-75000D01*
G01*
X158024400Y-127507600D01*
G75*
G02*
X157949400Y-127582600I-75000J0D01*
G01*
X157799400Y-127582600D01*
G75*
G02*
X157724400Y-127507600I0J75000D01*
G01*
G37*
G36*
G01*
X158224400Y-127507600D02*
X158224400Y-126107600D01*
G75*
G02*
X158299400Y-126032600I75000J0D01*
G01*
X158449400Y-126032600D01*
G75*
G02*
X158524400Y-126107600I0J-75000D01*
G01*
X158524400Y-127507600D01*
G75*
G02*
X158449400Y-127582600I-75000J0D01*
G01*
X158299400Y-127582600D01*
G75*
G02*
X158224400Y-127507600I0J75000D01*
G01*
G37*
G36*
G01*
X158724400Y-127507600D02*
X158724400Y-126107600D01*
G75*
G02*
X158799400Y-126032600I75000J0D01*
G01*
X158949400Y-126032600D01*
G75*
G02*
X159024400Y-126107600I0J-75000D01*
G01*
X159024400Y-127507600D01*
G75*
G02*
X158949400Y-127582600I-75000J0D01*
G01*
X158799400Y-127582600D01*
G75*
G02*
X158724400Y-127507600I0J75000D01*
G01*
G37*
G36*
G01*
X159224400Y-127507600D02*
X159224400Y-126107600D01*
G75*
G02*
X159299400Y-126032600I75000J0D01*
G01*
X159449400Y-126032600D01*
G75*
G02*
X159524400Y-126107600I0J-75000D01*
G01*
X159524400Y-127507600D01*
G75*
G02*
X159449400Y-127582600I-75000J0D01*
G01*
X159299400Y-127582600D01*
G75*
G02*
X159224400Y-127507600I0J75000D01*
G01*
G37*
G36*
G01*
X159724400Y-127507600D02*
X159724400Y-126107600D01*
G75*
G02*
X159799400Y-126032600I75000J0D01*
G01*
X159949400Y-126032600D01*
G75*
G02*
X160024400Y-126107600I0J-75000D01*
G01*
X160024400Y-127507600D01*
G75*
G02*
X159949400Y-127582600I-75000J0D01*
G01*
X159799400Y-127582600D01*
G75*
G02*
X159724400Y-127507600I0J75000D01*
G01*
G37*
G36*
G01*
X160224400Y-127507600D02*
X160224400Y-126107600D01*
G75*
G02*
X160299400Y-126032600I75000J0D01*
G01*
X160449400Y-126032600D01*
G75*
G02*
X160524400Y-126107600I0J-75000D01*
G01*
X160524400Y-127507600D01*
G75*
G02*
X160449400Y-127582600I-75000J0D01*
G01*
X160299400Y-127582600D01*
G75*
G02*
X160224400Y-127507600I0J75000D01*
G01*
G37*
G36*
G01*
X160724400Y-127507600D02*
X160724400Y-126107600D01*
G75*
G02*
X160799400Y-126032600I75000J0D01*
G01*
X160949400Y-126032600D01*
G75*
G02*
X161024400Y-126107600I0J-75000D01*
G01*
X161024400Y-127507600D01*
G75*
G02*
X160949400Y-127582600I-75000J0D01*
G01*
X160799400Y-127582600D01*
G75*
G02*
X160724400Y-127507600I0J75000D01*
G01*
G37*
G36*
G01*
X162024400Y-124957600D02*
X162024400Y-124807600D01*
G75*
G02*
X162099400Y-124732600I75000J0D01*
G01*
X163499400Y-124732600D01*
G75*
G02*
X163574400Y-124807600I0J-75000D01*
G01*
X163574400Y-124957600D01*
G75*
G02*
X163499400Y-125032600I-75000J0D01*
G01*
X162099400Y-125032600D01*
G75*
G02*
X162024400Y-124957600I0J75000D01*
G01*
G37*
G36*
G01*
X162024400Y-124457600D02*
X162024400Y-124307600D01*
G75*
G02*
X162099400Y-124232600I75000J0D01*
G01*
X163499400Y-124232600D01*
G75*
G02*
X163574400Y-124307600I0J-75000D01*
G01*
X163574400Y-124457600D01*
G75*
G02*
X163499400Y-124532600I-75000J0D01*
G01*
X162099400Y-124532600D01*
G75*
G02*
X162024400Y-124457600I0J75000D01*
G01*
G37*
G36*
G01*
X162024400Y-123957600D02*
X162024400Y-123807600D01*
G75*
G02*
X162099400Y-123732600I75000J0D01*
G01*
X163499400Y-123732600D01*
G75*
G02*
X163574400Y-123807600I0J-75000D01*
G01*
X163574400Y-123957600D01*
G75*
G02*
X163499400Y-124032600I-75000J0D01*
G01*
X162099400Y-124032600D01*
G75*
G02*
X162024400Y-123957600I0J75000D01*
G01*
G37*
G36*
G01*
X162024400Y-123457600D02*
X162024400Y-123307600D01*
G75*
G02*
X162099400Y-123232600I75000J0D01*
G01*
X163499400Y-123232600D01*
G75*
G02*
X163574400Y-123307600I0J-75000D01*
G01*
X163574400Y-123457600D01*
G75*
G02*
X163499400Y-123532600I-75000J0D01*
G01*
X162099400Y-123532600D01*
G75*
G02*
X162024400Y-123457600I0J75000D01*
G01*
G37*
G36*
G01*
X162024400Y-122957600D02*
X162024400Y-122807600D01*
G75*
G02*
X162099400Y-122732600I75000J0D01*
G01*
X163499400Y-122732600D01*
G75*
G02*
X163574400Y-122807600I0J-75000D01*
G01*
X163574400Y-122957600D01*
G75*
G02*
X163499400Y-123032600I-75000J0D01*
G01*
X162099400Y-123032600D01*
G75*
G02*
X162024400Y-122957600I0J75000D01*
G01*
G37*
G36*
G01*
X162024400Y-122457600D02*
X162024400Y-122307600D01*
G75*
G02*
X162099400Y-122232600I75000J0D01*
G01*
X163499400Y-122232600D01*
G75*
G02*
X163574400Y-122307600I0J-75000D01*
G01*
X163574400Y-122457600D01*
G75*
G02*
X163499400Y-122532600I-75000J0D01*
G01*
X162099400Y-122532600D01*
G75*
G02*
X162024400Y-122457600I0J75000D01*
G01*
G37*
G36*
G01*
X162024400Y-121957600D02*
X162024400Y-121807600D01*
G75*
G02*
X162099400Y-121732600I75000J0D01*
G01*
X163499400Y-121732600D01*
G75*
G02*
X163574400Y-121807600I0J-75000D01*
G01*
X163574400Y-121957600D01*
G75*
G02*
X163499400Y-122032600I-75000J0D01*
G01*
X162099400Y-122032600D01*
G75*
G02*
X162024400Y-121957600I0J75000D01*
G01*
G37*
G36*
G01*
X162024400Y-121457600D02*
X162024400Y-121307600D01*
G75*
G02*
X162099400Y-121232600I75000J0D01*
G01*
X163499400Y-121232600D01*
G75*
G02*
X163574400Y-121307600I0J-75000D01*
G01*
X163574400Y-121457600D01*
G75*
G02*
X163499400Y-121532600I-75000J0D01*
G01*
X162099400Y-121532600D01*
G75*
G02*
X162024400Y-121457600I0J75000D01*
G01*
G37*
G36*
G01*
X162024400Y-120957600D02*
X162024400Y-120807600D01*
G75*
G02*
X162099400Y-120732600I75000J0D01*
G01*
X163499400Y-120732600D01*
G75*
G02*
X163574400Y-120807600I0J-75000D01*
G01*
X163574400Y-120957600D01*
G75*
G02*
X163499400Y-121032600I-75000J0D01*
G01*
X162099400Y-121032600D01*
G75*
G02*
X162024400Y-120957600I0J75000D01*
G01*
G37*
G36*
G01*
X162024400Y-120457600D02*
X162024400Y-120307600D01*
G75*
G02*
X162099400Y-120232600I75000J0D01*
G01*
X163499400Y-120232600D01*
G75*
G02*
X163574400Y-120307600I0J-75000D01*
G01*
X163574400Y-120457600D01*
G75*
G02*
X163499400Y-120532600I-75000J0D01*
G01*
X162099400Y-120532600D01*
G75*
G02*
X162024400Y-120457600I0J75000D01*
G01*
G37*
G36*
G01*
X162024400Y-119957600D02*
X162024400Y-119807600D01*
G75*
G02*
X162099400Y-119732600I75000J0D01*
G01*
X163499400Y-119732600D01*
G75*
G02*
X163574400Y-119807600I0J-75000D01*
G01*
X163574400Y-119957600D01*
G75*
G02*
X163499400Y-120032600I-75000J0D01*
G01*
X162099400Y-120032600D01*
G75*
G02*
X162024400Y-119957600I0J75000D01*
G01*
G37*
G36*
G01*
X162024400Y-119457600D02*
X162024400Y-119307600D01*
G75*
G02*
X162099400Y-119232600I75000J0D01*
G01*
X163499400Y-119232600D01*
G75*
G02*
X163574400Y-119307600I0J-75000D01*
G01*
X163574400Y-119457600D01*
G75*
G02*
X163499400Y-119532600I-75000J0D01*
G01*
X162099400Y-119532600D01*
G75*
G02*
X162024400Y-119457600I0J75000D01*
G01*
G37*
G36*
G01*
X162024400Y-118957600D02*
X162024400Y-118807600D01*
G75*
G02*
X162099400Y-118732600I75000J0D01*
G01*
X163499400Y-118732600D01*
G75*
G02*
X163574400Y-118807600I0J-75000D01*
G01*
X163574400Y-118957600D01*
G75*
G02*
X163499400Y-119032600I-75000J0D01*
G01*
X162099400Y-119032600D01*
G75*
G02*
X162024400Y-118957600I0J75000D01*
G01*
G37*
G36*
G01*
X162024400Y-118457600D02*
X162024400Y-118307600D01*
G75*
G02*
X162099400Y-118232600I75000J0D01*
G01*
X163499400Y-118232600D01*
G75*
G02*
X163574400Y-118307600I0J-75000D01*
G01*
X163574400Y-118457600D01*
G75*
G02*
X163499400Y-118532600I-75000J0D01*
G01*
X162099400Y-118532600D01*
G75*
G02*
X162024400Y-118457600I0J75000D01*
G01*
G37*
G36*
G01*
X162024400Y-117957600D02*
X162024400Y-117807600D01*
G75*
G02*
X162099400Y-117732600I75000J0D01*
G01*
X163499400Y-117732600D01*
G75*
G02*
X163574400Y-117807600I0J-75000D01*
G01*
X163574400Y-117957600D01*
G75*
G02*
X163499400Y-118032600I-75000J0D01*
G01*
X162099400Y-118032600D01*
G75*
G02*
X162024400Y-117957600I0J75000D01*
G01*
G37*
G36*
G01*
X162024400Y-117457600D02*
X162024400Y-117307600D01*
G75*
G02*
X162099400Y-117232600I75000J0D01*
G01*
X163499400Y-117232600D01*
G75*
G02*
X163574400Y-117307600I0J-75000D01*
G01*
X163574400Y-117457600D01*
G75*
G02*
X163499400Y-117532600I-75000J0D01*
G01*
X162099400Y-117532600D01*
G75*
G02*
X162024400Y-117457600I0J75000D01*
G01*
G37*
G36*
G01*
X160724400Y-116157600D02*
X160724400Y-114757600D01*
G75*
G02*
X160799400Y-114682600I75000J0D01*
G01*
X160949400Y-114682600D01*
G75*
G02*
X161024400Y-114757600I0J-75000D01*
G01*
X161024400Y-116157600D01*
G75*
G02*
X160949400Y-116232600I-75000J0D01*
G01*
X160799400Y-116232600D01*
G75*
G02*
X160724400Y-116157600I0J75000D01*
G01*
G37*
G36*
G01*
X160224400Y-116157600D02*
X160224400Y-114757600D01*
G75*
G02*
X160299400Y-114682600I75000J0D01*
G01*
X160449400Y-114682600D01*
G75*
G02*
X160524400Y-114757600I0J-75000D01*
G01*
X160524400Y-116157600D01*
G75*
G02*
X160449400Y-116232600I-75000J0D01*
G01*
X160299400Y-116232600D01*
G75*
G02*
X160224400Y-116157600I0J75000D01*
G01*
G37*
G36*
G01*
X159724400Y-116157600D02*
X159724400Y-114757600D01*
G75*
G02*
X159799400Y-114682600I75000J0D01*
G01*
X159949400Y-114682600D01*
G75*
G02*
X160024400Y-114757600I0J-75000D01*
G01*
X160024400Y-116157600D01*
G75*
G02*
X159949400Y-116232600I-75000J0D01*
G01*
X159799400Y-116232600D01*
G75*
G02*
X159724400Y-116157600I0J75000D01*
G01*
G37*
G36*
G01*
X159224400Y-116157600D02*
X159224400Y-114757600D01*
G75*
G02*
X159299400Y-114682600I75000J0D01*
G01*
X159449400Y-114682600D01*
G75*
G02*
X159524400Y-114757600I0J-75000D01*
G01*
X159524400Y-116157600D01*
G75*
G02*
X159449400Y-116232600I-75000J0D01*
G01*
X159299400Y-116232600D01*
G75*
G02*
X159224400Y-116157600I0J75000D01*
G01*
G37*
G36*
G01*
X158724400Y-116157600D02*
X158724400Y-114757600D01*
G75*
G02*
X158799400Y-114682600I75000J0D01*
G01*
X158949400Y-114682600D01*
G75*
G02*
X159024400Y-114757600I0J-75000D01*
G01*
X159024400Y-116157600D01*
G75*
G02*
X158949400Y-116232600I-75000J0D01*
G01*
X158799400Y-116232600D01*
G75*
G02*
X158724400Y-116157600I0J75000D01*
G01*
G37*
G36*
G01*
X158224400Y-116157600D02*
X158224400Y-114757600D01*
G75*
G02*
X158299400Y-114682600I75000J0D01*
G01*
X158449400Y-114682600D01*
G75*
G02*
X158524400Y-114757600I0J-75000D01*
G01*
X158524400Y-116157600D01*
G75*
G02*
X158449400Y-116232600I-75000J0D01*
G01*
X158299400Y-116232600D01*
G75*
G02*
X158224400Y-116157600I0J75000D01*
G01*
G37*
G36*
G01*
X157724400Y-116157600D02*
X157724400Y-114757600D01*
G75*
G02*
X157799400Y-114682600I75000J0D01*
G01*
X157949400Y-114682600D01*
G75*
G02*
X158024400Y-114757600I0J-75000D01*
G01*
X158024400Y-116157600D01*
G75*
G02*
X157949400Y-116232600I-75000J0D01*
G01*
X157799400Y-116232600D01*
G75*
G02*
X157724400Y-116157600I0J75000D01*
G01*
G37*
G36*
G01*
X157224400Y-116157600D02*
X157224400Y-114757600D01*
G75*
G02*
X157299400Y-114682600I75000J0D01*
G01*
X157449400Y-114682600D01*
G75*
G02*
X157524400Y-114757600I0J-75000D01*
G01*
X157524400Y-116157600D01*
G75*
G02*
X157449400Y-116232600I-75000J0D01*
G01*
X157299400Y-116232600D01*
G75*
G02*
X157224400Y-116157600I0J75000D01*
G01*
G37*
G36*
G01*
X156724400Y-116157600D02*
X156724400Y-114757600D01*
G75*
G02*
X156799400Y-114682600I75000J0D01*
G01*
X156949400Y-114682600D01*
G75*
G02*
X157024400Y-114757600I0J-75000D01*
G01*
X157024400Y-116157600D01*
G75*
G02*
X156949400Y-116232600I-75000J0D01*
G01*
X156799400Y-116232600D01*
G75*
G02*
X156724400Y-116157600I0J75000D01*
G01*
G37*
G36*
G01*
X156224400Y-116157600D02*
X156224400Y-114757600D01*
G75*
G02*
X156299400Y-114682600I75000J0D01*
G01*
X156449400Y-114682600D01*
G75*
G02*
X156524400Y-114757600I0J-75000D01*
G01*
X156524400Y-116157600D01*
G75*
G02*
X156449400Y-116232600I-75000J0D01*
G01*
X156299400Y-116232600D01*
G75*
G02*
X156224400Y-116157600I0J75000D01*
G01*
G37*
G36*
G01*
X155724400Y-116157600D02*
X155724400Y-114757600D01*
G75*
G02*
X155799400Y-114682600I75000J0D01*
G01*
X155949400Y-114682600D01*
G75*
G02*
X156024400Y-114757600I0J-75000D01*
G01*
X156024400Y-116157600D01*
G75*
G02*
X155949400Y-116232600I-75000J0D01*
G01*
X155799400Y-116232600D01*
G75*
G02*
X155724400Y-116157600I0J75000D01*
G01*
G37*
G36*
G01*
X155224400Y-116157600D02*
X155224400Y-114757600D01*
G75*
G02*
X155299400Y-114682600I75000J0D01*
G01*
X155449400Y-114682600D01*
G75*
G02*
X155524400Y-114757600I0J-75000D01*
G01*
X155524400Y-116157600D01*
G75*
G02*
X155449400Y-116232600I-75000J0D01*
G01*
X155299400Y-116232600D01*
G75*
G02*
X155224400Y-116157600I0J75000D01*
G01*
G37*
G36*
G01*
X154724400Y-116157600D02*
X154724400Y-114757600D01*
G75*
G02*
X154799400Y-114682600I75000J0D01*
G01*
X154949400Y-114682600D01*
G75*
G02*
X155024400Y-114757600I0J-75000D01*
G01*
X155024400Y-116157600D01*
G75*
G02*
X154949400Y-116232600I-75000J0D01*
G01*
X154799400Y-116232600D01*
G75*
G02*
X154724400Y-116157600I0J75000D01*
G01*
G37*
G36*
G01*
X154224400Y-116157600D02*
X154224400Y-114757600D01*
G75*
G02*
X154299400Y-114682600I75000J0D01*
G01*
X154449400Y-114682600D01*
G75*
G02*
X154524400Y-114757600I0J-75000D01*
G01*
X154524400Y-116157600D01*
G75*
G02*
X154449400Y-116232600I-75000J0D01*
G01*
X154299400Y-116232600D01*
G75*
G02*
X154224400Y-116157600I0J75000D01*
G01*
G37*
G36*
G01*
X153724400Y-116157600D02*
X153724400Y-114757600D01*
G75*
G02*
X153799400Y-114682600I75000J0D01*
G01*
X153949400Y-114682600D01*
G75*
G02*
X154024400Y-114757600I0J-75000D01*
G01*
X154024400Y-116157600D01*
G75*
G02*
X153949400Y-116232600I-75000J0D01*
G01*
X153799400Y-116232600D01*
G75*
G02*
X153724400Y-116157600I0J75000D01*
G01*
G37*
G36*
G01*
X153224400Y-116157600D02*
X153224400Y-114757600D01*
G75*
G02*
X153299400Y-114682600I75000J0D01*
G01*
X153449400Y-114682600D01*
G75*
G02*
X153524400Y-114757600I0J-75000D01*
G01*
X153524400Y-116157600D01*
G75*
G02*
X153449400Y-116232600I-75000J0D01*
G01*
X153299400Y-116232600D01*
G75*
G02*
X153224400Y-116157600I0J75000D01*
G01*
G37*
G36*
G01*
X154201000Y-111146000D02*
X153901000Y-111146000D01*
G75*
G02*
X153751000Y-110996000I0J150000D01*
G01*
X153751000Y-109346000D01*
G75*
G02*
X153901000Y-109196000I150000J0D01*
G01*
X154201000Y-109196000D01*
G75*
G02*
X154351000Y-109346000I0J-150000D01*
G01*
X154351000Y-110996000D01*
G75*
G02*
X154201000Y-111146000I-150000J0D01*
G01*
G37*
G36*
G01*
X155471000Y-111146000D02*
X155171000Y-111146000D01*
G75*
G02*
X155021000Y-110996000I0J150000D01*
G01*
X155021000Y-109346000D01*
G75*
G02*
X155171000Y-109196000I150000J0D01*
G01*
X155471000Y-109196000D01*
G75*
G02*
X155621000Y-109346000I0J-150000D01*
G01*
X155621000Y-110996000D01*
G75*
G02*
X155471000Y-111146000I-150000J0D01*
G01*
G37*
G36*
G01*
X156741000Y-111146000D02*
X156441000Y-111146000D01*
G75*
G02*
X156291000Y-110996000I0J150000D01*
G01*
X156291000Y-109346000D01*
G75*
G02*
X156441000Y-109196000I150000J0D01*
G01*
X156741000Y-109196000D01*
G75*
G02*
X156891000Y-109346000I0J-150000D01*
G01*
X156891000Y-110996000D01*
G75*
G02*
X156741000Y-111146000I-150000J0D01*
G01*
G37*
G36*
G01*
X158011000Y-111146000D02*
X157711000Y-111146000D01*
G75*
G02*
X157561000Y-110996000I0J150000D01*
G01*
X157561000Y-109346000D01*
G75*
G02*
X157711000Y-109196000I150000J0D01*
G01*
X158011000Y-109196000D01*
G75*
G02*
X158161000Y-109346000I0J-150000D01*
G01*
X158161000Y-110996000D01*
G75*
G02*
X158011000Y-111146000I-150000J0D01*
G01*
G37*
G36*
G01*
X158011000Y-106196000D02*
X157711000Y-106196000D01*
G75*
G02*
X157561000Y-106046000I0J150000D01*
G01*
X157561000Y-104396000D01*
G75*
G02*
X157711000Y-104246000I150000J0D01*
G01*
X158011000Y-104246000D01*
G75*
G02*
X158161000Y-104396000I0J-150000D01*
G01*
X158161000Y-106046000D01*
G75*
G02*
X158011000Y-106196000I-150000J0D01*
G01*
G37*
G36*
G01*
X156741000Y-106196000D02*
X156441000Y-106196000D01*
G75*
G02*
X156291000Y-106046000I0J150000D01*
G01*
X156291000Y-104396000D01*
G75*
G02*
X156441000Y-104246000I150000J0D01*
G01*
X156741000Y-104246000D01*
G75*
G02*
X156891000Y-104396000I0J-150000D01*
G01*
X156891000Y-106046000D01*
G75*
G02*
X156741000Y-106196000I-150000J0D01*
G01*
G37*
G36*
G01*
X155471000Y-106196000D02*
X155171000Y-106196000D01*
G75*
G02*
X155021000Y-106046000I0J150000D01*
G01*
X155021000Y-104396000D01*
G75*
G02*
X155171000Y-104246000I150000J0D01*
G01*
X155471000Y-104246000D01*
G75*
G02*
X155621000Y-104396000I0J-150000D01*
G01*
X155621000Y-106046000D01*
G75*
G02*
X155471000Y-106196000I-150000J0D01*
G01*
G37*
G36*
G01*
X154201000Y-106196000D02*
X153901000Y-106196000D01*
G75*
G02*
X153751000Y-106046000I0J150000D01*
G01*
X153751000Y-104396000D01*
G75*
G02*
X153901000Y-104246000I150000J0D01*
G01*
X154201000Y-104246000D01*
G75*
G02*
X154351000Y-104396000I0J-150000D01*
G01*
X154351000Y-106046000D01*
G75*
G02*
X154201000Y-106196000I-150000J0D01*
G01*
G37*
D20*
X142024100Y-114933700D03*
X139124100Y-114933700D03*
X139124100Y-117233700D03*
X142024100Y-117233700D03*
D21*
X140243600Y-124487700D03*
X140243600Y-123187700D03*
X138343600Y-123837700D03*
D22*
X153028900Y-135453600D03*
X153028900Y-136103600D03*
X153028900Y-136753600D03*
X155028900Y-136753600D03*
X155028900Y-135453600D03*
D23*
X157217400Y-134089100D03*
X157217400Y-135989100D03*
X159317400Y-135039100D03*
G36*
G01*
X172365000Y-121125000D02*
X172365000Y-120175000D01*
G75*
G02*
X172615000Y-119925000I250000J0D01*
G01*
X173290000Y-119925000D01*
G75*
G02*
X173540000Y-120175000I0J-250000D01*
G01*
X173540000Y-121125000D01*
G75*
G02*
X173290000Y-121375000I-250000J0D01*
G01*
X172615000Y-121375000D01*
G75*
G02*
X172365000Y-121125000I0J250000D01*
G01*
G37*
G36*
G01*
X174440000Y-121125000D02*
X174440000Y-120175000D01*
G75*
G02*
X174690000Y-119925000I250000J0D01*
G01*
X175365000Y-119925000D01*
G75*
G02*
X175615000Y-120175000I0J-250000D01*
G01*
X175615000Y-121125000D01*
G75*
G02*
X175365000Y-121375000I-250000J0D01*
G01*
X174690000Y-121375000D01*
G75*
G02*
X174440000Y-121125000I0J250000D01*
G01*
G37*
G36*
G01*
X174440000Y-140175000D02*
X174440000Y-139225000D01*
G75*
G02*
X174690000Y-138975000I250000J0D01*
G01*
X175365000Y-138975000D01*
G75*
G02*
X175615000Y-139225000I0J-250000D01*
G01*
X175615000Y-140175000D01*
G75*
G02*
X175365000Y-140425000I-250000J0D01*
G01*
X174690000Y-140425000D01*
G75*
G02*
X174440000Y-140175000I0J250000D01*
G01*
G37*
G36*
G01*
X172365000Y-140175000D02*
X172365000Y-139225000D01*
G75*
G02*
X172615000Y-138975000I250000J0D01*
G01*
X173290000Y-138975000D01*
G75*
G02*
X173540000Y-139225000I0J-250000D01*
G01*
X173540000Y-140175000D01*
G75*
G02*
X173290000Y-140425000I-250000J0D01*
G01*
X172615000Y-140425000D01*
G75*
G02*
X172365000Y-140175000I0J250000D01*
G01*
G37*
D14*
X139192000Y-146304000D03*
D15*
X142942000Y-146304000D03*
X141843650Y-148955650D03*
X139192000Y-150054000D03*
X136540350Y-148955650D03*
X135442000Y-146304000D03*
X136540350Y-143652350D03*
X139192000Y-142554000D03*
X141843650Y-143652350D03*
M02*
