G04 #@! TF.GenerationSoftware,KiCad,Pcbnew,(5.1.12)-1*
G04 #@! TF.CreationDate,2022-07-24T10:45:22+02:00*
G04 #@! TF.ProjectId,telemetria tyl,74656c65-6d65-4747-9269-612074796c2e,rev?*
G04 #@! TF.SameCoordinates,Original*
G04 #@! TF.FileFunction,Legend,Bot*
G04 #@! TF.FilePolarity,Positive*
%FSLAX46Y46*%
G04 Gerber Fmt 4.6, Leading zero omitted, Abs format (unit mm)*
G04 Created by KiCad (PCBNEW (5.1.12)-1) date 2022-07-24 10:45:22*
%MOMM*%
%LPD*%
G01*
G04 APERTURE LIST*
%ADD10C,0.300000*%
%ADD11C,0.010000*%
%ADD12C,0.120000*%
%ADD13C,0.150000*%
%ADD14R,2.250000X2.250000*%
%ADD15C,2.250000*%
%ADD16C,5.100000*%
%ADD17C,10.000000*%
%ADD18C,0.900000*%
%ADD19R,1.700000X1.700000*%
%ADD20O,1.700000X1.700000*%
%ADD21R,1.500000X1.200000*%
%ADD22C,1.440000*%
G04 APERTURE END LIST*
D10*
X148698571Y-154686928D02*
X149555714Y-154686928D01*
X149127142Y-153186928D02*
X149127142Y-154686928D01*
X150627142Y-153258357D02*
X150484285Y-153186928D01*
X150198571Y-153186928D01*
X150055714Y-153258357D01*
X149984285Y-153401214D01*
X149984285Y-153972642D01*
X150055714Y-154115500D01*
X150198571Y-154186928D01*
X150484285Y-154186928D01*
X150627142Y-154115500D01*
X150698571Y-153972642D01*
X150698571Y-153829785D01*
X149984285Y-153686928D01*
X151555714Y-153186928D02*
X151412857Y-153258357D01*
X151341428Y-153401214D01*
X151341428Y-154686928D01*
X152698571Y-153258357D02*
X152555714Y-153186928D01*
X152270000Y-153186928D01*
X152127142Y-153258357D01*
X152055714Y-153401214D01*
X152055714Y-153972642D01*
X152127142Y-154115500D01*
X152270000Y-154186928D01*
X152555714Y-154186928D01*
X152698571Y-154115500D01*
X152770000Y-153972642D01*
X152770000Y-153829785D01*
X152055714Y-153686928D01*
X153412857Y-153186928D02*
X153412857Y-154186928D01*
X153412857Y-154044071D02*
X153484285Y-154115500D01*
X153627142Y-154186928D01*
X153841428Y-154186928D01*
X153984285Y-154115500D01*
X154055714Y-153972642D01*
X154055714Y-153186928D01*
X154055714Y-153972642D02*
X154127142Y-154115500D01*
X154270000Y-154186928D01*
X154484285Y-154186928D01*
X154627142Y-154115500D01*
X154698571Y-153972642D01*
X154698571Y-153186928D01*
X155984285Y-153258357D02*
X155841428Y-153186928D01*
X155555714Y-153186928D01*
X155412857Y-153258357D01*
X155341428Y-153401214D01*
X155341428Y-153972642D01*
X155412857Y-154115500D01*
X155555714Y-154186928D01*
X155841428Y-154186928D01*
X155984285Y-154115500D01*
X156055714Y-153972642D01*
X156055714Y-153829785D01*
X155341428Y-153686928D01*
X156484285Y-154186928D02*
X157055714Y-154186928D01*
X156698571Y-154686928D02*
X156698571Y-153401214D01*
X156770000Y-153258357D01*
X156912857Y-153186928D01*
X157055714Y-153186928D01*
X157555714Y-153186928D02*
X157555714Y-154186928D01*
X157555714Y-153901214D02*
X157627142Y-154044071D01*
X157698571Y-154115500D01*
X157841428Y-154186928D01*
X157984285Y-154186928D01*
X158341428Y-154186928D02*
X158698571Y-153186928D01*
X159055714Y-154186928D02*
X158698571Y-153186928D01*
X158555714Y-152829785D01*
X158484285Y-152758357D01*
X158341428Y-152686928D01*
X160770000Y-153186928D02*
X160770000Y-154686928D01*
X160770000Y-154115500D02*
X160912857Y-154186928D01*
X161198571Y-154186928D01*
X161341428Y-154115500D01*
X161412857Y-154044071D01*
X161484285Y-153901214D01*
X161484285Y-153472642D01*
X161412857Y-153329785D01*
X161341428Y-153258357D01*
X161198571Y-153186928D01*
X160912857Y-153186928D01*
X160770000Y-153258357D01*
X162770000Y-153186928D02*
X162770000Y-153972642D01*
X162698571Y-154115500D01*
X162555714Y-154186928D01*
X162270000Y-154186928D01*
X162127142Y-154115500D01*
X162770000Y-153258357D02*
X162627142Y-153186928D01*
X162270000Y-153186928D01*
X162127142Y-153258357D01*
X162055714Y-153401214D01*
X162055714Y-153544071D01*
X162127142Y-153686928D01*
X162270000Y-153758357D01*
X162627142Y-153758357D01*
X162770000Y-153829785D01*
X164127142Y-153258357D02*
X163984285Y-153186928D01*
X163698571Y-153186928D01*
X163555714Y-153258357D01*
X163484285Y-153329785D01*
X163412857Y-153472642D01*
X163412857Y-153901214D01*
X163484285Y-154044071D01*
X163555714Y-154115500D01*
X163698571Y-154186928D01*
X163984285Y-154186928D01*
X164127142Y-154115500D01*
X164770000Y-153186928D02*
X164770000Y-154686928D01*
X164912857Y-153758357D02*
X165341428Y-153186928D01*
X165341428Y-154186928D02*
X164770000Y-153615500D01*
X166984285Y-154186928D02*
X167341428Y-153186928D01*
X167698571Y-154186928D01*
X168198571Y-154544071D02*
X168270000Y-154615500D01*
X168412857Y-154686928D01*
X168770000Y-154686928D01*
X168912857Y-154615500D01*
X168984285Y-154544071D01*
X169055714Y-154401214D01*
X169055714Y-154258357D01*
X168984285Y-154044071D01*
X168127142Y-153186928D01*
X169055714Y-153186928D01*
X169698571Y-153329785D02*
X169770000Y-153258357D01*
X169698571Y-153186928D01*
X169627142Y-153258357D01*
X169698571Y-153329785D01*
X169698571Y-153186928D01*
X170698571Y-154686928D02*
X170841428Y-154686928D01*
X170984285Y-154615500D01*
X171055714Y-154544071D01*
X171127142Y-154401214D01*
X171198571Y-154115500D01*
X171198571Y-153758357D01*
X171127142Y-153472642D01*
X171055714Y-153329785D01*
X170984285Y-153258357D01*
X170841428Y-153186928D01*
X170698571Y-153186928D01*
X170555714Y-153258357D01*
X170484285Y-153329785D01*
X170412857Y-153472642D01*
X170341428Y-153758357D01*
X170341428Y-154115500D01*
X170412857Y-154401214D01*
X170484285Y-154544071D01*
X170555714Y-154615500D01*
X170698571Y-154686928D01*
X152198571Y-151422642D02*
X152412857Y-151351214D01*
X152484285Y-151279785D01*
X152555714Y-151136928D01*
X152555714Y-150922642D01*
X152484285Y-150779785D01*
X152412857Y-150708357D01*
X152270000Y-150636928D01*
X151698571Y-150636928D01*
X151698571Y-152136928D01*
X152198571Y-152136928D01*
X152341428Y-152065500D01*
X152412857Y-151994071D01*
X152484285Y-151851214D01*
X152484285Y-151708357D01*
X152412857Y-151565500D01*
X152341428Y-151494071D01*
X152198571Y-151422642D01*
X151698571Y-151422642D01*
X153841428Y-150636928D02*
X153841428Y-151422642D01*
X153770000Y-151565500D01*
X153627142Y-151636928D01*
X153341428Y-151636928D01*
X153198571Y-151565500D01*
X153841428Y-150708357D02*
X153698571Y-150636928D01*
X153341428Y-150636928D01*
X153198571Y-150708357D01*
X153127142Y-150851214D01*
X153127142Y-150994071D01*
X153198571Y-151136928D01*
X153341428Y-151208357D01*
X153698571Y-151208357D01*
X153841428Y-151279785D01*
X154555714Y-150636928D02*
X154555714Y-151636928D01*
X154555714Y-151351214D02*
X154627142Y-151494071D01*
X154698571Y-151565500D01*
X154841428Y-151636928D01*
X154984285Y-151636928D01*
X155270000Y-151636928D02*
X155841428Y-151636928D01*
X155484285Y-152136928D02*
X155484285Y-150851214D01*
X155555714Y-150708357D01*
X155698571Y-150636928D01*
X155841428Y-150636928D01*
X156555714Y-150636928D02*
X156412857Y-150708357D01*
X156341428Y-150779785D01*
X156270000Y-150922642D01*
X156270000Y-151351214D01*
X156341428Y-151494071D01*
X156412857Y-151565500D01*
X156555714Y-151636928D01*
X156770000Y-151636928D01*
X156912857Y-151565500D01*
X156984285Y-151494071D01*
X157055714Y-151351214D01*
X157055714Y-150922642D01*
X156984285Y-150779785D01*
X156912857Y-150708357D01*
X156770000Y-150636928D01*
X156555714Y-150636928D01*
X157627142Y-150708357D02*
X157770000Y-150636928D01*
X158055714Y-150636928D01*
X158198571Y-150708357D01*
X158270000Y-150851214D01*
X158270000Y-150922642D01*
X158198571Y-151065500D01*
X158055714Y-151136928D01*
X157841428Y-151136928D01*
X157698571Y-151208357D01*
X157627142Y-151351214D01*
X157627142Y-151422642D01*
X157698571Y-151565500D01*
X157841428Y-151636928D01*
X158055714Y-151636928D01*
X158198571Y-151565500D01*
X158770000Y-151636928D02*
X159555714Y-151636928D01*
X158770000Y-150636928D01*
X159555714Y-150636928D01*
X161698571Y-152136928D02*
X161698571Y-151065500D01*
X161627142Y-150851214D01*
X161484285Y-150708357D01*
X161270000Y-150636928D01*
X161127142Y-150636928D01*
X163055714Y-150636928D02*
X163055714Y-151422642D01*
X162984285Y-151565500D01*
X162841428Y-151636928D01*
X162555714Y-151636928D01*
X162412857Y-151565500D01*
X163055714Y-150708357D02*
X162912857Y-150636928D01*
X162555714Y-150636928D01*
X162412857Y-150708357D01*
X162341428Y-150851214D01*
X162341428Y-150994071D01*
X162412857Y-151136928D01*
X162555714Y-151208357D01*
X162912857Y-151208357D01*
X163055714Y-151279785D01*
X163770000Y-151636928D02*
X163770000Y-150636928D01*
X163770000Y-151494071D02*
X163841428Y-151565500D01*
X163984285Y-151636928D01*
X164198571Y-151636928D01*
X164341428Y-151565500D01*
X164412857Y-151422642D01*
X164412857Y-150636928D01*
X165127142Y-150636928D02*
X165127142Y-151636928D01*
X165127142Y-152136928D02*
X165055714Y-152065500D01*
X165127142Y-151994071D01*
X165198571Y-152065500D01*
X165127142Y-152136928D01*
X165127142Y-151994071D01*
X166484285Y-150708357D02*
X166341428Y-150636928D01*
X166055714Y-150636928D01*
X165912857Y-150708357D01*
X165841428Y-150779785D01*
X165770000Y-150922642D01*
X165770000Y-151351214D01*
X165841428Y-151494071D01*
X165912857Y-151565500D01*
X166055714Y-151636928D01*
X166341428Y-151636928D01*
X166484285Y-151565500D01*
X167127142Y-150636928D02*
X167127142Y-152136928D01*
X167270000Y-151208357D02*
X167698571Y-150636928D01*
X167698571Y-151636928D02*
X167127142Y-151065500D01*
X168341428Y-150636928D02*
X168341428Y-151636928D01*
X168341428Y-152136928D02*
X168270000Y-152065500D01*
X168341428Y-151994071D01*
X168412857Y-152065500D01*
X168341428Y-152136928D01*
X168341428Y-151994071D01*
D11*
G36*
X180432048Y-155223521D02*
G01*
X180481650Y-155041025D01*
X180543779Y-154741208D01*
X180613026Y-154349267D01*
X180659298Y-154056999D01*
X180730199Y-153608479D01*
X180796153Y-153225658D01*
X180851856Y-152936773D01*
X180892005Y-152770064D01*
X180906576Y-152740429D01*
X180972243Y-152806664D01*
X181105039Y-152981160D01*
X181279734Y-153230246D01*
X181334833Y-153311929D01*
X181715833Y-153881667D01*
X181758167Y-153423086D01*
X181787163Y-153167072D01*
X181820768Y-153054068D01*
X181872021Y-153057962D01*
X181916700Y-153105586D01*
X182042817Y-153219768D01*
X182110291Y-153246667D01*
X182107187Y-153185720D01*
X182020388Y-153023461D01*
X181872032Y-152790762D01*
X181684258Y-152518496D01*
X181479205Y-152237535D01*
X181279012Y-151978751D01*
X181105819Y-151773017D01*
X180981764Y-151651204D01*
X180953833Y-151634019D01*
X180837540Y-151574907D01*
X180826833Y-151552222D01*
X180936558Y-151528166D01*
X181023577Y-151511097D01*
X181159681Y-151453411D01*
X181395285Y-151323318D01*
X181689979Y-151143801D01*
X181845470Y-151043602D01*
X182512953Y-150605387D01*
X182332074Y-150360735D01*
X182223568Y-150190109D01*
X182188251Y-150083523D01*
X182192302Y-150074976D01*
X182259535Y-150115272D01*
X182278622Y-150135918D01*
X182603582Y-150135918D01*
X182669994Y-150055204D01*
X182816500Y-150029333D01*
X182975661Y-150055234D01*
X182982303Y-150061523D01*
X183366833Y-150061523D01*
X183419010Y-150066094D01*
X183530831Y-150151505D01*
X183572303Y-150174398D01*
X183973148Y-150174398D01*
X183993748Y-150127082D01*
X184078999Y-150036188D01*
X184128009Y-150054834D01*
X184128833Y-150066670D01*
X184068696Y-150138283D01*
X184031085Y-150164418D01*
X183973148Y-150174398D01*
X183572303Y-150174398D01*
X183702386Y-150246203D01*
X183805998Y-150233042D01*
X183874146Y-150203611D01*
X183825308Y-150279547D01*
X183812068Y-150296038D01*
X183749825Y-150426314D01*
X183762679Y-150481624D01*
X183756263Y-150534005D01*
X183729348Y-150537333D01*
X183629693Y-150473304D01*
X183502650Y-150325588D01*
X183398933Y-150160749D01*
X183366833Y-150061523D01*
X182982303Y-150061523D01*
X183028167Y-150104942D01*
X182958763Y-150197526D01*
X182811538Y-150252024D01*
X182681859Y-150236278D01*
X182603582Y-150135918D01*
X182278622Y-150135918D01*
X182394292Y-150261029D01*
X182549852Y-150457734D01*
X182606385Y-150537333D01*
X183112833Y-150537333D01*
X183143811Y-150467643D01*
X183169278Y-150480889D01*
X183179411Y-150581369D01*
X183169278Y-150593778D01*
X183118943Y-150582156D01*
X183112833Y-150537333D01*
X182606385Y-150537333D01*
X182765627Y-150761547D01*
X182898151Y-150980183D01*
X182939957Y-151098779D01*
X182883581Y-151102469D01*
X182869513Y-151094267D01*
X182727710Y-151088774D01*
X182622291Y-151142419D01*
X182533484Y-151205752D01*
X182555401Y-151164587D01*
X182628136Y-151077181D01*
X182724868Y-150935854D01*
X182702447Y-150842155D01*
X182658966Y-150801126D01*
X182572425Y-150771595D01*
X182433922Y-150806330D01*
X182216063Y-150916808D01*
X181891456Y-151114508D01*
X181853381Y-151138682D01*
X181167270Y-151575391D01*
X181448278Y-151966529D01*
X181546270Y-152103667D01*
X182012167Y-152103667D01*
X182054500Y-152061333D01*
X182096833Y-152103667D01*
X182054500Y-152146000D01*
X182012167Y-152103667D01*
X181546270Y-152103667D01*
X181671020Y-152278250D01*
X181912813Y-152619068D01*
X182012079Y-152759833D01*
X182193220Y-153006114D01*
X182316710Y-153126759D01*
X182416497Y-153138551D01*
X182526529Y-153058273D01*
X182556452Y-153028953D01*
X182658306Y-152957891D01*
X182689500Y-152981818D01*
X182627108Y-153091072D01*
X182513948Y-153190693D01*
X182410884Y-153304871D01*
X182441968Y-153375661D01*
X182572904Y-153376978D01*
X182695001Y-153328389D01*
X182847733Y-153270295D01*
X182915669Y-153275281D01*
X182885335Y-153341053D01*
X182781418Y-153412119D01*
X182638352Y-153516631D01*
X182626503Y-153635285D01*
X182745793Y-153810844D01*
X182780599Y-153851120D01*
X182900997Y-153983049D01*
X182937736Y-153990312D01*
X182918875Y-153875492D01*
X182916339Y-153863613D01*
X182920038Y-153689198D01*
X182987728Y-153577157D01*
X183079641Y-153560672D01*
X183153752Y-153665543D01*
X183231960Y-153800291D01*
X183320127Y-153838537D01*
X183366480Y-153760341D01*
X183366833Y-153747610D01*
X183320568Y-153647507D01*
X183193957Y-153438448D01*
X183005277Y-153149126D01*
X182772805Y-152808236D01*
X182723431Y-152737491D01*
X182407240Y-152302711D01*
X182171377Y-152015642D01*
X182016151Y-151876636D01*
X181961431Y-151864607D01*
X181853758Y-151876995D01*
X181864842Y-151795408D01*
X181985989Y-151637363D01*
X182160156Y-151464109D01*
X182477478Y-151172333D01*
X182228982Y-151447500D01*
X182088263Y-151625303D01*
X182076304Y-151702167D01*
X182187752Y-151680534D01*
X182417254Y-151562844D01*
X182759458Y-151351541D01*
X183209012Y-151049065D01*
X183409167Y-150909111D01*
X183872438Y-150578298D01*
X184209143Y-150327192D01*
X184434329Y-150142659D01*
X184563041Y-150011565D01*
X184610328Y-149920775D01*
X184600297Y-149869380D01*
X184618189Y-149796183D01*
X184737670Y-149778561D01*
X184824350Y-149793145D01*
X184825705Y-149847933D01*
X184728105Y-149965663D01*
X184517920Y-150169074D01*
X184485331Y-150199531D01*
X184226933Y-150419776D01*
X183875378Y-150691442D01*
X183481275Y-150976482D01*
X183172998Y-151186184D01*
X182838807Y-151406142D01*
X182559930Y-151589753D01*
X182364637Y-151718403D01*
X182281193Y-151773475D01*
X182280493Y-151773943D01*
X182301907Y-151830674D01*
X182689701Y-151830674D01*
X182758857Y-151759679D01*
X182938119Y-151642238D01*
X183137954Y-151530905D01*
X183456303Y-151338238D01*
X183800523Y-151090595D01*
X184005586Y-150920865D01*
X184243481Y-150719067D01*
X184420965Y-150589370D01*
X184520263Y-150540591D01*
X184523600Y-150581548D01*
X184458384Y-150664333D01*
X185398833Y-150664333D01*
X185441167Y-150622000D01*
X185483500Y-150664333D01*
X185441167Y-150706667D01*
X185398833Y-150664333D01*
X184458384Y-150664333D01*
X184417122Y-150716709D01*
X184242213Y-150882069D01*
X183995350Y-151078513D01*
X183706673Y-151286604D01*
X183406323Y-151486906D01*
X183124439Y-151659983D01*
X182891162Y-151786398D01*
X182736633Y-151846714D01*
X182689701Y-151830674D01*
X182301907Y-151830674D01*
X182308899Y-151849197D01*
X182327270Y-151878876D01*
X183630714Y-151878876D01*
X183671986Y-151633274D01*
X183749308Y-151521620D01*
X183974326Y-151401684D01*
X184231397Y-151409010D01*
X184419119Y-151517048D01*
X184542639Y-151746202D01*
X184533739Y-152006086D01*
X184399847Y-152231954D01*
X184330744Y-152287178D01*
X184154845Y-152380403D01*
X184010327Y-152369133D01*
X183886244Y-152307656D01*
X183705946Y-152125556D01*
X183630714Y-151878876D01*
X182327270Y-151878876D01*
X182419621Y-152028064D01*
X182590816Y-152280646D01*
X182800643Y-152577046D01*
X183027259Y-152887368D01*
X183248821Y-153181715D01*
X183443486Y-153430190D01*
X183589414Y-153602895D01*
X183664760Y-153669934D01*
X183665737Y-153670000D01*
X183811109Y-153620099D01*
X184052431Y-153484142D01*
X184362337Y-153282754D01*
X184713463Y-153036556D01*
X185078443Y-152766170D01*
X185429913Y-152492219D01*
X185740508Y-152235326D01*
X185982864Y-152016113D01*
X186129615Y-151855202D01*
X186160833Y-151789664D01*
X186113927Y-151679840D01*
X185992124Y-151482499D01*
X185854368Y-151285531D01*
X185700399Y-151060178D01*
X185606641Y-150891838D01*
X185592163Y-150823781D01*
X185687365Y-150831172D01*
X185874522Y-150902056D01*
X185962129Y-150943897D01*
X186299390Y-151106688D01*
X186496445Y-151176959D01*
X186559413Y-151147406D01*
X186494415Y-151010726D01*
X186307572Y-150759616D01*
X186214274Y-150643034D01*
X185918168Y-150241832D01*
X185758444Y-149939375D01*
X185734831Y-149734406D01*
X185847059Y-149625670D01*
X185991500Y-149606000D01*
X186171408Y-149585021D01*
X186237718Y-149486060D01*
X186245500Y-149352000D01*
X186268281Y-149170473D01*
X186365121Y-149104066D01*
X186457167Y-149098000D01*
X186608439Y-149070663D01*
X186663778Y-148954455D01*
X186668833Y-148844000D01*
X186646052Y-148662473D01*
X186549212Y-148596066D01*
X186457167Y-148590000D01*
X186296045Y-148555031D01*
X186246394Y-148417340D01*
X186245500Y-148378333D01*
X186280469Y-148217212D01*
X186418160Y-148167561D01*
X186457167Y-148166667D01*
X186608439Y-148139329D01*
X186663778Y-148023121D01*
X186668833Y-147912667D01*
X186646052Y-147731140D01*
X186549212Y-147664733D01*
X186457167Y-147658667D01*
X186305894Y-147631329D01*
X186250555Y-147515121D01*
X186245500Y-147404667D01*
X186268281Y-147223140D01*
X186365121Y-147156733D01*
X186457167Y-147150667D01*
X186608439Y-147123329D01*
X186663778Y-147007121D01*
X186668833Y-146896667D01*
X186646052Y-146715140D01*
X186549212Y-146648733D01*
X186457167Y-146642667D01*
X186296045Y-146607697D01*
X186246394Y-146470007D01*
X186245500Y-146431000D01*
X186280469Y-146269878D01*
X186418160Y-146220227D01*
X186457167Y-146219333D01*
X186608439Y-146191996D01*
X186663778Y-146075788D01*
X186668833Y-145965333D01*
X186646052Y-145783807D01*
X186549212Y-145717399D01*
X186457167Y-145711333D01*
X186305894Y-145683996D01*
X186250555Y-145567788D01*
X186245500Y-145457333D01*
X186268281Y-145275807D01*
X186365121Y-145209399D01*
X186457167Y-145203333D01*
X186618288Y-145168364D01*
X186667939Y-145030674D01*
X186668833Y-144991667D01*
X186633864Y-144830545D01*
X186496173Y-144780894D01*
X186457167Y-144780000D01*
X186305894Y-144752663D01*
X186250555Y-144636455D01*
X186245500Y-144526000D01*
X186268281Y-144344473D01*
X186365121Y-144278066D01*
X186457167Y-144272000D01*
X186608439Y-144244663D01*
X186663778Y-144128455D01*
X186668833Y-144018000D01*
X186646052Y-143836473D01*
X186549212Y-143770066D01*
X186457167Y-143764000D01*
X186296045Y-143729031D01*
X186246394Y-143591340D01*
X186245500Y-143552333D01*
X186280469Y-143391212D01*
X186418160Y-143341561D01*
X186457167Y-143340667D01*
X186668833Y-143340667D01*
X186668833Y-140885333D01*
X186209055Y-140885333D01*
X185940523Y-140877550D01*
X185797477Y-140843216D01*
X185736371Y-140765853D01*
X185722222Y-140701121D01*
X185696393Y-140642421D01*
X185625330Y-140576519D01*
X185493367Y-140496425D01*
X185284837Y-140395146D01*
X184984072Y-140265692D01*
X184575406Y-140101071D01*
X184043170Y-139894293D01*
X183371699Y-139638366D01*
X183166769Y-139560791D01*
X182544326Y-139325882D01*
X181968859Y-139109598D01*
X181460513Y-138919440D01*
X181039436Y-138762911D01*
X180725774Y-138647512D01*
X180539673Y-138580745D01*
X180499769Y-138567674D01*
X180389608Y-138587877D01*
X180141266Y-138662342D01*
X179774487Y-138784225D01*
X179309014Y-138946687D01*
X178764591Y-139142886D01*
X178160963Y-139365981D01*
X177758524Y-139517504D01*
X177043260Y-139789603D01*
X176471104Y-140009998D01*
X176026366Y-140185785D01*
X175693356Y-140324057D01*
X175456385Y-140431911D01*
X175299764Y-140516440D01*
X175207802Y-140584740D01*
X175164812Y-140643906D01*
X175155024Y-140694833D01*
X175140554Y-140800679D01*
X175072014Y-140857844D01*
X174909884Y-140881124D01*
X174646167Y-140885333D01*
X174138167Y-140885333D01*
X174138167Y-141113056D01*
X176170167Y-141113056D01*
X176170167Y-140832778D01*
X178075167Y-140127076D01*
X178607116Y-139926115D01*
X179081829Y-139739298D01*
X179477488Y-139575828D01*
X179772272Y-139444907D01*
X179944362Y-139355738D01*
X179980167Y-139323621D01*
X180052019Y-139160163D01*
X180228897Y-139055625D01*
X180452777Y-139023214D01*
X180665638Y-139076137D01*
X180757286Y-139146729D01*
X180901627Y-139311001D01*
X180959864Y-139379562D01*
X181062529Y-139438115D01*
X181301441Y-139543455D01*
X181653103Y-139686199D01*
X182094016Y-139856962D01*
X182600684Y-140046360D01*
X182928212Y-140165667D01*
X184805863Y-140843000D01*
X184806015Y-141118167D01*
X184796426Y-141290222D01*
X184735899Y-141367131D01*
X184577173Y-141383180D01*
X184446333Y-141379101D01*
X184086500Y-141364868D01*
X184409178Y-141331348D01*
X184619813Y-141294872D01*
X184703274Y-141224767D01*
X184705512Y-141114357D01*
X184665813Y-141022731D01*
X184557460Y-140931475D01*
X184355007Y-140826557D01*
X184033004Y-140693948D01*
X183747833Y-140586366D01*
X182956846Y-140295915D01*
X182311569Y-140064086D01*
X181800272Y-139887159D01*
X181411225Y-139761416D01*
X181132698Y-139683137D01*
X180952960Y-139648605D01*
X180860282Y-139654099D01*
X180845285Y-139666159D01*
X180728227Y-139774359D01*
X180583844Y-139865073D01*
X180427689Y-139921588D01*
X180282949Y-139885143D01*
X180128841Y-139782781D01*
X179874494Y-139594734D01*
X178678497Y-140036218D01*
X178195716Y-140214282D01*
X177710480Y-140392999D01*
X177272507Y-140554072D01*
X176931516Y-140679205D01*
X176868667Y-140702210D01*
X176548882Y-140827284D01*
X176360811Y-140926693D01*
X176273337Y-141021240D01*
X176254833Y-141112582D01*
X176264787Y-141153445D01*
X177355500Y-141153445D01*
X177379970Y-140980218D01*
X177489253Y-140918930D01*
X177597016Y-140913556D01*
X177772620Y-140938948D01*
X177837361Y-141050688D01*
X177842609Y-141118167D01*
X177963709Y-141118167D01*
X177973690Y-140931711D01*
X178058321Y-140895009D01*
X178185233Y-140986933D01*
X178269128Y-141045838D01*
X178286833Y-140986933D01*
X178342196Y-140891644D01*
X178371500Y-140885333D01*
X178430447Y-140959032D01*
X178456128Y-141137144D01*
X178456138Y-141139333D01*
X178625500Y-141139333D01*
X178645916Y-140960268D01*
X178739604Y-140897709D01*
X178858333Y-140895155D01*
X178986399Y-140911632D01*
X178954614Y-140940495D01*
X178943000Y-140943696D01*
X178822981Y-141051516D01*
X178806618Y-141139333D01*
X179218167Y-141139333D01*
X179242691Y-140960992D01*
X179301780Y-140885353D01*
X179302833Y-140885333D01*
X179362280Y-140958906D01*
X179386437Y-141128750D01*
X179556833Y-141128750D01*
X179586806Y-140967111D01*
X179651413Y-140882335D01*
X179712685Y-140904100D01*
X179732851Y-140991167D01*
X179749869Y-141053559D01*
X179782240Y-140991167D01*
X179864030Y-140887293D01*
X179940145Y-140929134D01*
X179979388Y-141095004D01*
X179980167Y-141128750D01*
X179978657Y-141139333D01*
X180149500Y-141139333D01*
X180170479Y-140959425D01*
X180269440Y-140893115D01*
X180403500Y-140885333D01*
X180595488Y-140919063D01*
X180657500Y-140998222D01*
X180615928Y-141149947D01*
X180512820Y-141150401D01*
X180435731Y-141074517D01*
X180350486Y-140979445D01*
X180323984Y-141036214D01*
X180321526Y-141112278D01*
X180383122Y-141277781D01*
X180509333Y-141333581D01*
X180547917Y-141345143D01*
X181045227Y-141345143D01*
X181059667Y-141337260D01*
X181141503Y-141229002D01*
X181165500Y-141089945D01*
X181195390Y-140934237D01*
X181250167Y-140885333D01*
X181314597Y-140957568D01*
X181334833Y-141089945D01*
X181345883Y-141139333D01*
X181588833Y-141139333D01*
X181606492Y-140965122D01*
X181694622Y-140899437D01*
X181864000Y-140893773D01*
X182040266Y-140902734D01*
X182058871Y-140923057D01*
X181931467Y-140968729D01*
X181927500Y-140970000D01*
X181807064Y-141021546D01*
X181853705Y-141045535D01*
X181864000Y-141046227D01*
X181989863Y-141093528D01*
X182012167Y-141139333D01*
X182181500Y-141139333D01*
X182208353Y-140938339D01*
X182292225Y-140895286D01*
X182418567Y-140986933D01*
X182502461Y-141045838D01*
X182520167Y-140986933D01*
X182575530Y-140891644D01*
X182604833Y-140885333D01*
X182664280Y-140958906D01*
X182689493Y-141136173D01*
X182689500Y-141139333D01*
X182858833Y-141139333D01*
X182875353Y-140968681D01*
X182959143Y-140898686D01*
X183155167Y-140885333D01*
X183354261Y-140899493D01*
X183435922Y-140971313D01*
X183451500Y-141139333D01*
X183434980Y-141309986D01*
X183351190Y-141379981D01*
X183155167Y-141393333D01*
X182956072Y-141379174D01*
X182874411Y-141307354D01*
X182858833Y-141139333D01*
X182689500Y-141139333D01*
X182668521Y-141319242D01*
X182569560Y-141385552D01*
X182435500Y-141393333D01*
X182255592Y-141372354D01*
X182189281Y-141273394D01*
X182181500Y-141139333D01*
X182012167Y-141139333D01*
X181941935Y-141215256D01*
X181864000Y-141232440D01*
X181804756Y-141254351D01*
X181912589Y-141303818D01*
X181927500Y-141308667D01*
X182057712Y-141354990D01*
X182042149Y-141375683D01*
X181869158Y-141384735D01*
X181864000Y-141384894D01*
X181674684Y-141374400D01*
X181600597Y-141295321D01*
X181588833Y-141139333D01*
X181345883Y-141139333D01*
X181373749Y-141263865D01*
X181440667Y-141337260D01*
X181439131Y-141364647D01*
X181303047Y-141379231D01*
X181250167Y-141379965D01*
X181084915Y-141369963D01*
X181045227Y-141345143D01*
X180547917Y-141345143D01*
X180596369Y-141359662D01*
X180522429Y-141376190D01*
X180424667Y-141381803D01*
X180235480Y-141373725D01*
X180161375Y-141296377D01*
X180149500Y-141139333D01*
X179978657Y-141139333D01*
X179954967Y-141305352D01*
X179849621Y-141367703D01*
X179768500Y-141372167D01*
X179614933Y-141343188D01*
X179560715Y-141222040D01*
X179556833Y-141128750D01*
X179386437Y-141128750D01*
X179387493Y-141136173D01*
X179387500Y-141139333D01*
X179362976Y-141317675D01*
X179303887Y-141393314D01*
X179302833Y-141393333D01*
X179243386Y-141319761D01*
X179218173Y-141142494D01*
X179218167Y-141139333D01*
X178806618Y-141139333D01*
X178801517Y-141166708D01*
X178821503Y-141269399D01*
X178850906Y-141245167D01*
X178940810Y-141146166D01*
X179027690Y-141179590D01*
X179048833Y-141266333D01*
X178975232Y-141368477D01*
X178837167Y-141393333D01*
X178685894Y-141365996D01*
X178630555Y-141249788D01*
X178625500Y-141139333D01*
X178456138Y-141139333D01*
X178456167Y-141144957D01*
X178438761Y-141324707D01*
X178354849Y-141383729D01*
X178223333Y-141377791D01*
X178041992Y-141317151D01*
X177969033Y-141156991D01*
X177963709Y-141118167D01*
X177842609Y-141118167D01*
X177845354Y-141153445D01*
X177827722Y-141324643D01*
X177726207Y-141386805D01*
X177603837Y-141393333D01*
X177426198Y-141370646D01*
X177361940Y-141268064D01*
X177355500Y-141153445D01*
X176264787Y-141153445D01*
X176286123Y-141241033D01*
X176410156Y-141306722D01*
X176572333Y-141331657D01*
X176889833Y-141364868D01*
X176530000Y-141379101D01*
X176304512Y-141380724D01*
X176200817Y-141338375D01*
X176171615Y-141217083D01*
X176170167Y-141113056D01*
X174138167Y-141113056D01*
X174138167Y-142169445D01*
X174815500Y-142169445D01*
X174832829Y-141976485D01*
X174869552Y-141875504D01*
X174959164Y-141887636D01*
X175097133Y-141989067D01*
X175214855Y-142113000D01*
X175492833Y-142113000D01*
X175508647Y-141912602D01*
X175579813Y-141830563D01*
X175704500Y-141816667D01*
X175847641Y-141838807D01*
X175906241Y-141938438D01*
X175916167Y-142113000D01*
X176085500Y-142113000D01*
X176101314Y-141912602D01*
X176172479Y-141830563D01*
X176297167Y-141816667D01*
X176456281Y-141845649D01*
X176508833Y-141901333D01*
X176440257Y-141976448D01*
X176381833Y-141986000D01*
X176279690Y-142059601D01*
X176270976Y-142108003D01*
X176678167Y-142108003D01*
X176698222Y-141915355D01*
X176751276Y-141854081D01*
X176762833Y-141859000D01*
X176823833Y-141973456D01*
X176847500Y-142160330D01*
X176824201Y-142324667D01*
X176932167Y-142324667D01*
X176996596Y-142242460D01*
X177016833Y-142240000D01*
X177079939Y-142167394D01*
X177101500Y-142023337D01*
X177128376Y-141879286D01*
X177186167Y-141859000D01*
X177259869Y-141979632D01*
X177270833Y-142058730D01*
X177286954Y-142113000D01*
X177524833Y-142113000D01*
X177540911Y-141912340D01*
X177612162Y-141830245D01*
X177731503Y-141816667D01*
X177910776Y-141847885D01*
X177990500Y-141901333D01*
X177961737Y-141968994D01*
X177847330Y-141995822D01*
X177736346Y-142012691D01*
X177791311Y-142042690D01*
X177882084Y-142113000D01*
X178117500Y-142113000D01*
X178133578Y-141912340D01*
X178204829Y-141830245D01*
X178324170Y-141816667D01*
X178503443Y-141847885D01*
X178583167Y-141901333D01*
X178557243Y-141967974D01*
X178461163Y-141986000D01*
X178319345Y-142037776D01*
X178286833Y-142113000D01*
X178332551Y-142225672D01*
X178371500Y-142240000D01*
X178452913Y-142174912D01*
X178456167Y-142150337D01*
X178508036Y-142099771D01*
X178540833Y-142113000D01*
X178585532Y-142169445D01*
X178710167Y-142169445D01*
X178731352Y-141977152D01*
X178780287Y-141862346D01*
X178835045Y-141858175D01*
X178864541Y-141936071D01*
X178913106Y-142053604D01*
X178939874Y-142070667D01*
X179022993Y-142011573D01*
X179100307Y-141922500D01*
X179173132Y-141845549D01*
X179206098Y-141889051D01*
X179215333Y-142076723D01*
X179215412Y-142085215D01*
X179390141Y-142085215D01*
X179390193Y-142078949D01*
X179398607Y-141888208D01*
X179430821Y-141843454D01*
X179504490Y-141921450D01*
X179507179Y-141924989D01*
X179600116Y-142025107D01*
X179653812Y-141986962D01*
X179673222Y-141940789D01*
X179750976Y-141846243D01*
X179831983Y-141889678D01*
X179886941Y-142042901D01*
X179892309Y-142113000D01*
X179980167Y-142113000D01*
X180001432Y-141917133D01*
X180053722Y-141819226D01*
X180064833Y-141816667D01*
X180120795Y-141891096D01*
X180148769Y-142074110D01*
X180148982Y-142085483D01*
X180318833Y-142085483D01*
X180331175Y-141894803D01*
X180375252Y-141850560D01*
X180418419Y-141882386D01*
X180551762Y-141934012D01*
X180621804Y-141895825D01*
X180691731Y-141876384D01*
X180717565Y-141991227D01*
X180717406Y-142098922D01*
X180715685Y-142113000D01*
X180911500Y-142113000D01*
X180938234Y-141902128D01*
X181004687Y-141816344D01*
X181090232Y-141874851D01*
X181116111Y-141922500D01*
X181171733Y-141984519D01*
X181215065Y-141921973D01*
X181294018Y-141846225D01*
X181369427Y-141907952D01*
X181415254Y-142076798D01*
X181419500Y-142160330D01*
X181418387Y-142169445D01*
X181758167Y-142169445D01*
X181783649Y-141942777D01*
X181884601Y-141839188D01*
X182068611Y-141816667D01*
X182227235Y-141862440D01*
X182266167Y-141986000D01*
X182233437Y-142113000D01*
X182435500Y-142113000D01*
X182473022Y-141889867D01*
X182576650Y-141814544D01*
X182732975Y-141895149D01*
X182757233Y-141918267D01*
X182839256Y-142080451D01*
X182844006Y-142113000D01*
X183028167Y-142113000D01*
X183054901Y-141902128D01*
X183121353Y-141816344D01*
X183206898Y-141874851D01*
X183232778Y-141922500D01*
X183288399Y-141984519D01*
X183331731Y-141921973D01*
X183410685Y-141846225D01*
X183486094Y-141907952D01*
X183531921Y-142076798D01*
X183536167Y-142160330D01*
X183535746Y-142163782D01*
X183620833Y-142163782D01*
X183644451Y-141954957D01*
X183701949Y-141860751D01*
X183773289Y-141903956D01*
X183799593Y-141960430D01*
X183850799Y-142066880D01*
X183896344Y-142014244D01*
X183917137Y-141964833D01*
X184006263Y-141830036D01*
X184082596Y-141851214D01*
X184095714Y-141901333D01*
X184298167Y-141901333D01*
X184370623Y-141837688D01*
X184509833Y-141816667D01*
X184669498Y-141854335D01*
X184721500Y-141926733D01*
X184666326Y-142079733D01*
X184655122Y-142093892D01*
X184890833Y-142093892D01*
X184908567Y-141903227D01*
X184967924Y-141859505D01*
X184996667Y-141873057D01*
X185165340Y-141916536D01*
X185267869Y-141912151D01*
X185379963Y-141906489D01*
X185358177Y-141973409D01*
X185310202Y-142033866D01*
X185259341Y-142118627D01*
X185484235Y-142118627D01*
X185523227Y-141919927D01*
X185580368Y-141826108D01*
X185654271Y-141890119D01*
X185663834Y-141903706D01*
X185745993Y-141978761D01*
X185793334Y-141922500D01*
X185872609Y-141816604D01*
X185944495Y-141858010D01*
X185987338Y-142025287D01*
X185991500Y-142118624D01*
X185979337Y-142318271D01*
X185917010Y-142394920D01*
X185765757Y-142394518D01*
X185759390Y-142393791D01*
X185557946Y-142305808D01*
X185484235Y-142118627D01*
X185259341Y-142118627D01*
X185235779Y-142157893D01*
X185290351Y-142217583D01*
X185293000Y-142218491D01*
X185397210Y-142285828D01*
X185354684Y-142347636D01*
X185187039Y-142380189D01*
X185144833Y-142381111D01*
X184972326Y-142363765D01*
X184902996Y-142277085D01*
X184890833Y-142093892D01*
X184655122Y-142093892D01*
X184619900Y-142138400D01*
X184560995Y-142222295D01*
X184619900Y-142240000D01*
X184715189Y-142295363D01*
X184721500Y-142324667D01*
X184649044Y-142388313D01*
X184509833Y-142409333D01*
X184338873Y-142359018D01*
X184306656Y-142231834D01*
X184399767Y-142087600D01*
X184458671Y-142003705D01*
X184399767Y-141986000D01*
X184304477Y-141930637D01*
X184298167Y-141901333D01*
X184095714Y-141901333D01*
X184125516Y-142015188D01*
X184128833Y-142100116D01*
X184112304Y-142294273D01*
X184031500Y-142373581D01*
X183874833Y-142390786D01*
X183694798Y-142375200D01*
X183628321Y-142282312D01*
X183620833Y-142163782D01*
X183535746Y-142163782D01*
X183514606Y-142336821D01*
X183414041Y-142401847D01*
X183282167Y-142409333D01*
X183111514Y-142392814D01*
X183041519Y-142309024D01*
X183028167Y-142113000D01*
X182844006Y-142113000D01*
X182858833Y-142214600D01*
X182819326Y-142364121D01*
X182670784Y-142409005D01*
X182647167Y-142409333D01*
X182504025Y-142387193D01*
X182445426Y-142287562D01*
X182435500Y-142113000D01*
X182233437Y-142113000D01*
X182230710Y-142123581D01*
X182181500Y-142155333D01*
X182100087Y-142090246D01*
X182096833Y-142065670D01*
X182044963Y-142015104D01*
X182012167Y-142028333D01*
X181928852Y-142135547D01*
X181991411Y-142220867D01*
X182096833Y-142240000D01*
X182234414Y-142275456D01*
X182266167Y-142324667D01*
X182192594Y-142384114D01*
X182015327Y-142409327D01*
X182012167Y-142409333D01*
X181831871Y-142387878D01*
X181765507Y-142289905D01*
X181758167Y-142169445D01*
X181418387Y-142169445D01*
X181397939Y-142336821D01*
X181297375Y-142401847D01*
X181165500Y-142409333D01*
X180994847Y-142392814D01*
X180924852Y-142309024D01*
X180911500Y-142113000D01*
X180715685Y-142113000D01*
X180693076Y-142297939D01*
X180612938Y-142377517D01*
X180514020Y-142388167D01*
X180382397Y-142363396D01*
X180327887Y-142256832D01*
X180318833Y-142085483D01*
X180148982Y-142085483D01*
X180149500Y-142113000D01*
X180128234Y-142308868D01*
X180075945Y-142406774D01*
X180064833Y-142409333D01*
X180008871Y-142334905D01*
X179980898Y-142151890D01*
X179980167Y-142113000D01*
X179892309Y-142113000D01*
X179895500Y-142154668D01*
X179874209Y-142326298D01*
X179774614Y-142387114D01*
X179641500Y-142390786D01*
X179472486Y-142369766D01*
X179402675Y-142285250D01*
X179390141Y-142085215D01*
X179215412Y-142085215D01*
X179215474Y-142091833D01*
X179192201Y-142312176D01*
X179129856Y-142408676D01*
X179046665Y-142362227D01*
X179013555Y-142303500D01*
X178957952Y-142241236D01*
X178914778Y-142303500D01*
X178824784Y-142406686D01*
X178746636Y-142361192D01*
X178710362Y-142186695D01*
X178710167Y-142169445D01*
X178585532Y-142169445D01*
X178634188Y-142230886D01*
X178587492Y-142343219D01*
X178425685Y-142406351D01*
X178371500Y-142409333D01*
X178200847Y-142392814D01*
X178130852Y-142309024D01*
X178117500Y-142113000D01*
X177882084Y-142113000D01*
X177927147Y-142147904D01*
X177973884Y-142244535D01*
X177974885Y-142362756D01*
X177865107Y-142405970D01*
X177770907Y-142409333D01*
X177605450Y-142391981D01*
X177537592Y-142305814D01*
X177524833Y-142113000D01*
X177286954Y-142113000D01*
X177326284Y-142245398D01*
X177372433Y-142307733D01*
X177407507Y-142377880D01*
X177307407Y-142406482D01*
X177203100Y-142409333D01*
X177017569Y-142386227D01*
X176932715Y-142330062D01*
X176932167Y-142324667D01*
X176824201Y-142324667D01*
X176822523Y-142336500D01*
X176762833Y-142409333D01*
X176707244Y-142334816D01*
X176679040Y-142151205D01*
X176678167Y-142108003D01*
X176270976Y-142108003D01*
X176254833Y-142197667D01*
X176225851Y-142356782D01*
X176170167Y-142409333D01*
X176114204Y-142334905D01*
X176086231Y-142151890D01*
X176085500Y-142113000D01*
X175916167Y-142113000D01*
X175900352Y-142313398D01*
X175829187Y-142395438D01*
X175704500Y-142409333D01*
X175561358Y-142387193D01*
X175502759Y-142287562D01*
X175492833Y-142113000D01*
X175214855Y-142113000D01*
X175232708Y-142131794D01*
X175315139Y-142267813D01*
X175322037Y-142303500D01*
X175248419Y-142380702D01*
X175069500Y-142409333D01*
X174889204Y-142387878D01*
X174822840Y-142289905D01*
X174815500Y-142169445D01*
X174138167Y-142169445D01*
X174138167Y-142578667D01*
X183874833Y-142578667D01*
X183905811Y-142508977D01*
X183931278Y-142522222D01*
X183941411Y-142622702D01*
X183931278Y-142635111D01*
X183880943Y-142623489D01*
X183874833Y-142578667D01*
X174138167Y-142578667D01*
X174138167Y-143340667D01*
X174392167Y-143340667D01*
X174573693Y-143363448D01*
X174640101Y-143460288D01*
X174646167Y-143552333D01*
X174618829Y-143703606D01*
X174502621Y-143758945D01*
X174392167Y-143764000D01*
X174212258Y-143784979D01*
X174145948Y-143883940D01*
X174138167Y-144018000D01*
X174646167Y-144018000D01*
X174668948Y-143836473D01*
X174765788Y-143770066D01*
X174857833Y-143764000D01*
X175009105Y-143791338D01*
X175064445Y-143907546D01*
X175069500Y-144018000D01*
X175046719Y-144199527D01*
X174949879Y-144265934D01*
X174857833Y-144272000D01*
X174706561Y-144244663D01*
X174651221Y-144128455D01*
X174646167Y-144018000D01*
X174138167Y-144018000D01*
X174158452Y-144196579D01*
X174255121Y-144263477D01*
X174397790Y-144272000D01*
X174577540Y-144289406D01*
X174636562Y-144373318D01*
X174630624Y-144504833D01*
X174579640Y-144676656D01*
X174444714Y-144732561D01*
X174371000Y-144734329D01*
X174207172Y-144754339D01*
X174145628Y-144855681D01*
X174138167Y-144991667D01*
X174646167Y-144991667D01*
X174681136Y-144830545D01*
X174818826Y-144780894D01*
X174857833Y-144780000D01*
X175018955Y-144814970D01*
X175068606Y-144952660D01*
X175069500Y-144991667D01*
X175034530Y-145152789D01*
X174896840Y-145202440D01*
X174857833Y-145203333D01*
X174696711Y-145168364D01*
X174647060Y-145030674D01*
X174646167Y-144991667D01*
X174138167Y-144991667D01*
X174158137Y-145174799D01*
X174249443Y-145242393D01*
X174371000Y-145249004D01*
X174546855Y-145277697D01*
X174619359Y-145405151D01*
X174630624Y-145478500D01*
X174629970Y-145641497D01*
X174543490Y-145703088D01*
X174397790Y-145711333D01*
X174215258Y-145731179D01*
X174146879Y-145825755D01*
X174138167Y-145965333D01*
X174646167Y-145965333D01*
X174668948Y-145783807D01*
X174765788Y-145717399D01*
X174857833Y-145711333D01*
X175009105Y-145738671D01*
X175064445Y-145854879D01*
X175069500Y-145965333D01*
X175046719Y-146146860D01*
X174949879Y-146213268D01*
X174857833Y-146219333D01*
X174706561Y-146191996D01*
X174651221Y-146075788D01*
X174646167Y-145965333D01*
X174138167Y-145965333D01*
X174159146Y-146145242D01*
X174258106Y-146211552D01*
X174392167Y-146219333D01*
X174573693Y-146242115D01*
X174640101Y-146338955D01*
X174646167Y-146431000D01*
X174618829Y-146582272D01*
X174502621Y-146637612D01*
X174392167Y-146642667D01*
X174212258Y-146663646D01*
X174145948Y-146762607D01*
X174138167Y-146896667D01*
X174143103Y-146939000D01*
X174646167Y-146939000D01*
X174681136Y-146777878D01*
X174818826Y-146728227D01*
X174857833Y-146727333D01*
X175018955Y-146762303D01*
X175068606Y-146899993D01*
X175069500Y-146939000D01*
X175034530Y-147100122D01*
X174896840Y-147149773D01*
X174857833Y-147150667D01*
X174696711Y-147115697D01*
X174647060Y-146978007D01*
X174646167Y-146939000D01*
X174143103Y-146939000D01*
X174159146Y-147076575D01*
X174258106Y-147142885D01*
X174392167Y-147150667D01*
X174572075Y-147171646D01*
X174638385Y-147270607D01*
X174646167Y-147404667D01*
X174625187Y-147584575D01*
X174526227Y-147650885D01*
X174392167Y-147658667D01*
X174212258Y-147679646D01*
X174145948Y-147778607D01*
X174140625Y-147870333D01*
X174646167Y-147870333D01*
X174681136Y-147709212D01*
X174818826Y-147659561D01*
X174857833Y-147658667D01*
X175018955Y-147693636D01*
X175068606Y-147831327D01*
X175069500Y-147870333D01*
X175034530Y-148031455D01*
X174896840Y-148081106D01*
X174857833Y-148082000D01*
X174696711Y-148047031D01*
X174647060Y-147909340D01*
X174646167Y-147870333D01*
X174140625Y-147870333D01*
X174138167Y-147912667D01*
X174159146Y-148092575D01*
X174258106Y-148158885D01*
X174392167Y-148166667D01*
X174573693Y-148189448D01*
X174640101Y-148286288D01*
X174646167Y-148378333D01*
X174618829Y-148529606D01*
X174502621Y-148584945D01*
X174392167Y-148590000D01*
X174212258Y-148610979D01*
X174145948Y-148709940D01*
X174138167Y-148844000D01*
X174646167Y-148844000D01*
X174668948Y-148662473D01*
X174765788Y-148596066D01*
X174857833Y-148590000D01*
X175009105Y-148617338D01*
X175064445Y-148733546D01*
X175069500Y-148844000D01*
X175046719Y-149025527D01*
X174949879Y-149091934D01*
X174857833Y-149098000D01*
X174706561Y-149070663D01*
X174651221Y-148954455D01*
X174646167Y-148844000D01*
X174138167Y-148844000D01*
X174159146Y-149023908D01*
X174258106Y-149090219D01*
X174392167Y-149098000D01*
X174572075Y-149118979D01*
X174638385Y-149217940D01*
X174646167Y-149352000D01*
X174665912Y-149521333D01*
X175577500Y-149521333D01*
X175577500Y-143086667D01*
X176085500Y-143086667D01*
X176085500Y-148505333D01*
X176847500Y-148505333D01*
X176847500Y-143425333D01*
X177440167Y-143425333D01*
X177440167Y-145542000D01*
X177962666Y-145542000D01*
X178266951Y-145548748D01*
X178486303Y-145584843D01*
X178634601Y-145674064D01*
X178725723Y-145840192D01*
X178750280Y-145977198D01*
X179387500Y-145977198D01*
X179387984Y-145316384D01*
X179390539Y-144803733D01*
X179396818Y-144418077D01*
X179408477Y-144138246D01*
X179427170Y-143943072D01*
X179454549Y-143811385D01*
X179492271Y-143722017D01*
X179541988Y-143653797D01*
X179571592Y-143621290D01*
X179695121Y-143515038D01*
X179847805Y-143455442D01*
X180079887Y-143429843D01*
X180349302Y-143425333D01*
X182009647Y-143425333D01*
X182689500Y-143425333D01*
X182689500Y-145542000D01*
X183366833Y-145542000D01*
X183366833Y-143425333D01*
X183959500Y-143425333D01*
X183959500Y-144498167D01*
X183955683Y-144964698D01*
X183941948Y-145292024D01*
X183914872Y-145510152D01*
X183871029Y-145649085D01*
X183819378Y-145725833D01*
X183725727Y-145854850D01*
X183755461Y-145960007D01*
X183819378Y-146035500D01*
X183882748Y-146137693D01*
X183924430Y-146298433D01*
X183948347Y-146549321D01*
X183958424Y-146921959D01*
X183959500Y-147163742D01*
X183957259Y-147586610D01*
X183946541Y-147875009D01*
X183921353Y-148063784D01*
X183875704Y-148187783D01*
X183803600Y-148281850D01*
X183759848Y-148324713D01*
X183646885Y-148415106D01*
X183516533Y-148468587D01*
X183326253Y-148492431D01*
X183033508Y-148493915D01*
X182807348Y-148487638D01*
X182054500Y-148463000D01*
X182032073Y-145944167D01*
X182009647Y-143425333D01*
X180349302Y-143425333D01*
X180687282Y-143434649D01*
X180907563Y-143470521D01*
X181061142Y-143544840D01*
X181138876Y-143609425D01*
X181219568Y-143695120D01*
X181274449Y-143794693D01*
X181308466Y-143940314D01*
X181326567Y-144164155D01*
X181333699Y-144498388D01*
X181334833Y-144883651D01*
X181334833Y-145973784D01*
X180848000Y-145948392D01*
X180573734Y-145929555D01*
X180425713Y-145893324D01*
X180361004Y-145815083D01*
X180336674Y-145670220D01*
X180335122Y-145654361D01*
X180337236Y-145462246D01*
X180415864Y-145378270D01*
X180504456Y-145358028D01*
X180604120Y-145332496D01*
X180662509Y-145266256D01*
X180690583Y-145122128D01*
X180699303Y-144862936D01*
X180699833Y-144695333D01*
X180699833Y-144060333D01*
X180022500Y-144060333D01*
X179999713Y-145944167D01*
X179976927Y-147828000D01*
X180359547Y-147828000D01*
X180595285Y-147819313D01*
X180707218Y-147776551D01*
X180740635Y-147674659D01*
X180742167Y-147616333D01*
X180764307Y-147473192D01*
X180863938Y-147414593D01*
X181038500Y-147404667D01*
X181225266Y-147414064D01*
X181310384Y-147474095D01*
X181333791Y-147632518D01*
X181334833Y-147759043D01*
X181295237Y-148091736D01*
X181163090Y-148316051D01*
X180918354Y-148447537D01*
X180540990Y-148501742D01*
X180373031Y-148505333D01*
X180035051Y-148496018D01*
X179814770Y-148460146D01*
X179661191Y-148385827D01*
X179583457Y-148321242D01*
X179523634Y-148261351D01*
X179477424Y-148193957D01*
X179443069Y-148098038D01*
X179418812Y-147952576D01*
X179402896Y-147736552D01*
X179393563Y-147428946D01*
X179389057Y-147008738D01*
X179387620Y-146454909D01*
X179387500Y-145977198D01*
X178750280Y-145977198D01*
X178773547Y-146107004D01*
X178791952Y-146498279D01*
X178794833Y-146967832D01*
X178792894Y-147433731D01*
X178784198Y-147761800D01*
X178764423Y-147983524D01*
X178729248Y-148130390D01*
X178674354Y-148233882D01*
X178610741Y-148309377D01*
X178507929Y-148402387D01*
X178385368Y-148460352D01*
X178202723Y-148491390D01*
X177919659Y-148503618D01*
X177637075Y-148505333D01*
X176847500Y-148505333D01*
X176085500Y-148505333D01*
X176085500Y-149098000D01*
X178064800Y-149098000D01*
X178711097Y-149096462D01*
X179208125Y-149091035D01*
X179575925Y-149080496D01*
X179834539Y-149063626D01*
X180004011Y-149039203D01*
X180104382Y-149006006D01*
X180149500Y-148971000D01*
X180341192Y-148854782D01*
X180577116Y-148891096D01*
X180704818Y-148968307D01*
X180788775Y-149009563D01*
X180931114Y-149041121D01*
X181151986Y-149064182D01*
X181471543Y-149079946D01*
X181909937Y-149089612D01*
X182487319Y-149094380D01*
X182837667Y-149095307D01*
X184806167Y-149098000D01*
X184806167Y-143086667D01*
X185229500Y-143086667D01*
X185229500Y-144018000D01*
X185737500Y-144018000D01*
X185760281Y-143836473D01*
X185857121Y-143770066D01*
X185949167Y-143764000D01*
X186100439Y-143791338D01*
X186155778Y-143907546D01*
X186160833Y-144018000D01*
X186138052Y-144199527D01*
X186041212Y-144265934D01*
X185949167Y-144272000D01*
X185797894Y-144244663D01*
X185742555Y-144128455D01*
X185737500Y-144018000D01*
X185229500Y-144018000D01*
X185229500Y-144991667D01*
X185737500Y-144991667D01*
X185772469Y-144830545D01*
X185910160Y-144780894D01*
X185949167Y-144780000D01*
X186110288Y-144814970D01*
X186159939Y-144952660D01*
X186160833Y-144991667D01*
X186125864Y-145152789D01*
X185988173Y-145202440D01*
X185949167Y-145203333D01*
X185788045Y-145168364D01*
X185738394Y-145030674D01*
X185737500Y-144991667D01*
X185229500Y-144991667D01*
X185229500Y-145965333D01*
X185737500Y-145965333D01*
X185760281Y-145783807D01*
X185857121Y-145717399D01*
X185949167Y-145711333D01*
X186100439Y-145738671D01*
X186155778Y-145854879D01*
X186160833Y-145965333D01*
X186138052Y-146146860D01*
X186041212Y-146213268D01*
X185949167Y-146219333D01*
X185797894Y-146191996D01*
X185742555Y-146075788D01*
X185737500Y-145965333D01*
X185229500Y-145965333D01*
X185229500Y-146939000D01*
X185737500Y-146939000D01*
X185772469Y-146777878D01*
X185910160Y-146728227D01*
X185949167Y-146727333D01*
X186110288Y-146762303D01*
X186159939Y-146899993D01*
X186160833Y-146939000D01*
X186125864Y-147100122D01*
X185988173Y-147149773D01*
X185949167Y-147150667D01*
X185788045Y-147115697D01*
X185738394Y-146978007D01*
X185737500Y-146939000D01*
X185229500Y-146939000D01*
X185229500Y-147870333D01*
X185737500Y-147870333D01*
X185772469Y-147709212D01*
X185910160Y-147659561D01*
X185949167Y-147658667D01*
X186110288Y-147693636D01*
X186159939Y-147831327D01*
X186160833Y-147870333D01*
X186125864Y-148031455D01*
X185988173Y-148081106D01*
X185949167Y-148082000D01*
X185788045Y-148047031D01*
X185738394Y-147909340D01*
X185737500Y-147870333D01*
X185229500Y-147870333D01*
X185229500Y-148844000D01*
X185737500Y-148844000D01*
X185760281Y-148662473D01*
X185857121Y-148596066D01*
X185949167Y-148590000D01*
X186100439Y-148617338D01*
X186155778Y-148733546D01*
X186160833Y-148844000D01*
X186138052Y-149025527D01*
X186041212Y-149091934D01*
X185949167Y-149098000D01*
X185797894Y-149070663D01*
X185742555Y-148954455D01*
X185737500Y-148844000D01*
X185229500Y-148844000D01*
X185229500Y-149521333D01*
X183038533Y-149521333D01*
X182356252Y-149522658D01*
X181824249Y-149527333D01*
X181423489Y-149536413D01*
X181134933Y-149550949D01*
X180939544Y-149571994D01*
X180818282Y-149600602D01*
X180752111Y-149637825D01*
X180742167Y-149648333D01*
X180582713Y-149743929D01*
X180403500Y-149775333D01*
X180191715Y-149731715D01*
X180064833Y-149648333D01*
X180009214Y-149608849D01*
X179903148Y-149578236D01*
X179727599Y-149555442D01*
X179463528Y-149539415D01*
X179091898Y-149529102D01*
X178593671Y-149523449D01*
X177949808Y-149521404D01*
X177768466Y-149521333D01*
X175577500Y-149521333D01*
X174665912Y-149521333D01*
X174667146Y-149531908D01*
X174766106Y-149598219D01*
X174900167Y-149606000D01*
X175088550Y-149646557D01*
X175150636Y-149772222D01*
X175085701Y-149987000D01*
X175831500Y-149987000D01*
X175873833Y-149944667D01*
X175916167Y-149987000D01*
X175873833Y-150029333D01*
X175831500Y-149987000D01*
X175085701Y-149987000D01*
X175085101Y-149988984D01*
X174890621Y-150302834D01*
X174697587Y-150557103D01*
X176271915Y-150557103D01*
X176307512Y-150555244D01*
X176442999Y-150638835D01*
X176665684Y-150803637D01*
X176814197Y-150922031D01*
X177137479Y-151167547D01*
X177493372Y-151411265D01*
X177744334Y-151565113D01*
X178029601Y-151732800D01*
X178173804Y-151833359D01*
X178173879Y-151863709D01*
X178026764Y-151820770D01*
X177981929Y-151804075D01*
X177738883Y-151682613D01*
X177414566Y-151481348D01*
X177055366Y-151231726D01*
X176707671Y-150965195D01*
X176551167Y-150834141D01*
X176348903Y-150648655D01*
X176271915Y-150557103D01*
X174697587Y-150557103D01*
X174686769Y-150571352D01*
X174483113Y-150834795D01*
X174332999Y-151045083D01*
X174258481Y-151170538D01*
X174255489Y-151190878D01*
X174343453Y-151175022D01*
X174534358Y-151097530D01*
X174719600Y-151008693D01*
X174970415Y-150889295D01*
X175165386Y-150810346D01*
X175240354Y-150791333D01*
X175235247Y-150855030D01*
X175147247Y-151026495D01*
X174992696Y-151276291D01*
X174869521Y-151459184D01*
X174545828Y-151926447D01*
X176254438Y-151926447D01*
X176283161Y-151704275D01*
X176412946Y-151525003D01*
X176609906Y-151416547D01*
X176840152Y-151406822D01*
X177069796Y-151523743D01*
X177101500Y-151553333D01*
X177245840Y-151759144D01*
X177236801Y-151958001D01*
X177072142Y-152182890D01*
X177057757Y-152197440D01*
X176815863Y-152348059D01*
X176573361Y-152333816D01*
X176360667Y-152163602D01*
X176254438Y-151926447D01*
X174545828Y-151926447D01*
X174406871Y-152127035D01*
X174674686Y-152376349D01*
X174980817Y-152643615D01*
X175336755Y-152926382D01*
X175716029Y-153206866D01*
X176092169Y-153467280D01*
X176438704Y-153689842D01*
X176729164Y-153856765D01*
X176937079Y-153950265D01*
X177029507Y-153958501D01*
X177094263Y-153883024D01*
X177049613Y-153787253D01*
X176880427Y-153655042D01*
X176572333Y-153470674D01*
X176292749Y-153298890D01*
X175967695Y-153077477D01*
X175625793Y-152828735D01*
X175295665Y-152574966D01*
X175005935Y-152338472D01*
X174785224Y-152141552D01*
X174662155Y-152006509D01*
X174646167Y-151969909D01*
X174704201Y-151973862D01*
X174856948Y-152069737D01*
X175072369Y-152237168D01*
X175090667Y-152252469D01*
X175442483Y-152535228D01*
X175827007Y-152822989D01*
X176215511Y-153096609D01*
X176579268Y-153336948D01*
X176889549Y-153524863D01*
X177117628Y-153641214D01*
X177218090Y-153670000D01*
X177278740Y-153605303D01*
X177412344Y-153432269D01*
X177596483Y-153182483D01*
X177808740Y-152887529D01*
X178026697Y-152578993D01*
X178227937Y-152288459D01*
X178390042Y-152047511D01*
X178490594Y-151887736D01*
X178510363Y-151849281D01*
X178462239Y-151760438D01*
X178300368Y-151617334D01*
X178058354Y-151449150D01*
X178027168Y-151429683D01*
X177714727Y-151226693D01*
X177335603Y-150965671D01*
X176956499Y-150692899D01*
X176837575Y-150604282D01*
X176443498Y-150292162D01*
X176179680Y-150049024D01*
X176050360Y-149879838D01*
X176059782Y-149789571D01*
X176129851Y-149775334D01*
X176221984Y-149812519D01*
X176216895Y-149852888D01*
X176234164Y-149902333D01*
X176339500Y-149902333D01*
X176381833Y-149860000D01*
X176424167Y-149902333D01*
X184382833Y-149902333D01*
X184425167Y-149860000D01*
X184467500Y-149902333D01*
X184425167Y-149944667D01*
X184382833Y-149902333D01*
X176424167Y-149902333D01*
X176381833Y-149944667D01*
X176339500Y-149902333D01*
X176234164Y-149902333D01*
X176249223Y-149945450D01*
X176284258Y-149987000D01*
X176508833Y-149987000D01*
X176551167Y-149944667D01*
X176593500Y-149987000D01*
X184213500Y-149987000D01*
X184255833Y-149944667D01*
X184298167Y-149987000D01*
X184255833Y-150029333D01*
X184213500Y-149987000D01*
X176593500Y-149987000D01*
X176551167Y-150029333D01*
X176508833Y-149987000D01*
X176284258Y-149987000D01*
X176355650Y-150071667D01*
X176678167Y-150071667D01*
X176720500Y-150029333D01*
X176762833Y-150071667D01*
X176720500Y-150114000D01*
X176678167Y-150071667D01*
X176355650Y-150071667D01*
X176382680Y-150103723D01*
X176399521Y-150119513D01*
X176868258Y-150119513D01*
X176879840Y-150114000D01*
X176957105Y-150173604D01*
X176974500Y-150198667D01*
X176996075Y-150277821D01*
X176984493Y-150283333D01*
X176907228Y-150223730D01*
X176889833Y-150198667D01*
X176868258Y-150119513D01*
X176399521Y-150119513D01*
X176529399Y-150241282D01*
X176790988Y-150452073D01*
X176827062Y-150478732D01*
X177124299Y-150478732D01*
X177146136Y-150366927D01*
X177232152Y-150221256D01*
X177338127Y-150101408D01*
X177419843Y-150067070D01*
X177425948Y-150071559D01*
X177424894Y-150077436D01*
X177804129Y-150077436D01*
X177837938Y-150037410D01*
X178014168Y-150029348D01*
X178032833Y-150029333D01*
X178220174Y-150036073D01*
X178263309Y-150072991D01*
X178187287Y-150165136D01*
X178177976Y-150174476D01*
X178057741Y-150272570D01*
X177961501Y-150243691D01*
X177887690Y-150174476D01*
X177804129Y-150077436D01*
X177424894Y-150077436D01*
X177410188Y-150159363D01*
X177322064Y-150323671D01*
X177309948Y-150342462D01*
X177200103Y-150472844D01*
X177129526Y-150489042D01*
X177124299Y-150478732D01*
X176827062Y-150478732D01*
X176906358Y-150537333D01*
X177609500Y-150537333D01*
X177638387Y-150454868D01*
X177646836Y-150452667D01*
X177719122Y-150511996D01*
X177736500Y-150537333D01*
X177729787Y-150615352D01*
X177699163Y-150622000D01*
X177612945Y-150560540D01*
X177609500Y-150537333D01*
X176906358Y-150537333D01*
X177117312Y-150693229D01*
X177478835Y-150945495D01*
X177756351Y-151130000D01*
X178302922Y-151130000D01*
X178384580Y-151185641D01*
X178498500Y-151299333D01*
X178596277Y-151421984D01*
X178609411Y-151468667D01*
X178527753Y-151413026D01*
X178413833Y-151299333D01*
X178316056Y-151176683D01*
X178302922Y-151130000D01*
X177756351Y-151130000D01*
X177846022Y-151189617D01*
X178189336Y-151406341D01*
X178479244Y-151576412D01*
X178686209Y-151680577D01*
X178772384Y-151703489D01*
X178907890Y-151738803D01*
X178941272Y-151786167D01*
X178908341Y-151877628D01*
X178848039Y-151892000D01*
X178760393Y-151956836D01*
X178601315Y-152130494D01*
X178394488Y-152381702D01*
X178163597Y-152679186D01*
X177932324Y-152991675D01*
X177724354Y-153287895D01*
X177563370Y-153536574D01*
X177473056Y-153706438D01*
X177472152Y-153708769D01*
X177460158Y-153822285D01*
X177531693Y-153819132D01*
X177649452Y-153701266D01*
X177650822Y-153699399D01*
X177780145Y-153610360D01*
X177893208Y-153665223D01*
X177947957Y-153840531D01*
X177948612Y-153865497D01*
X177958320Y-153972495D01*
X178003027Y-153953815D01*
X178107312Y-153798931D01*
X178108525Y-153797000D01*
X178207269Y-153618846D01*
X178210360Y-153516116D01*
X178137940Y-153439879D01*
X177992160Y-153377688D01*
X177922612Y-153389461D01*
X177878347Y-153386722D01*
X177897890Y-153344186D01*
X177993382Y-153289096D01*
X178131728Y-153338948D01*
X178320345Y-153384399D01*
X178389679Y-153347021D01*
X178395527Y-153256422D01*
X178300493Y-153166918D01*
X178168295Y-153119358D01*
X178072725Y-153143812D01*
X178045135Y-153143510D01*
X178066731Y-153098271D01*
X178162517Y-153035690D01*
X178293721Y-153081020D01*
X178457001Y-153133006D01*
X178536327Y-153122452D01*
X178608830Y-153040759D01*
X178751062Y-152855601D01*
X178936989Y-152603165D01*
X179140575Y-152319638D01*
X179335785Y-152041209D01*
X179496584Y-151804065D01*
X179585325Y-151664406D01*
X179548157Y-151565944D01*
X179368407Y-151402454D01*
X179055878Y-151182754D01*
X179034004Y-151168551D01*
X178680085Y-150942384D01*
X178441537Y-150801469D01*
X178292956Y-150736949D01*
X178208938Y-150739968D01*
X178164079Y-150801670D01*
X178146439Y-150859147D01*
X178079283Y-150982885D01*
X177976185Y-151082135D01*
X177888422Y-151117128D01*
X177863500Y-151078579D01*
X177911489Y-150991256D01*
X178034546Y-150816373D01*
X178201302Y-150594349D01*
X178380391Y-150365603D01*
X178540444Y-150170553D01*
X178650094Y-150049618D01*
X178677778Y-150029334D01*
X178682642Y-150085997D01*
X178657901Y-150128000D01*
X179003965Y-150128000D01*
X179011983Y-150105128D01*
X179117288Y-150043134D01*
X179266694Y-150033935D01*
X179374875Y-150076651D01*
X179387500Y-150109003D01*
X179326399Y-150224712D01*
X179310474Y-150236278D01*
X179184534Y-150254607D01*
X179057372Y-150207533D01*
X179003965Y-150128000D01*
X178657901Y-150128000D01*
X178598568Y-150228730D01*
X178477328Y-150383832D01*
X178419259Y-150495000D01*
X178879500Y-150495000D01*
X178921833Y-150452667D01*
X178964167Y-150495000D01*
X178921833Y-150537333D01*
X178879500Y-150495000D01*
X178419259Y-150495000D01*
X178400752Y-150530430D01*
X178407200Y-150611267D01*
X178504612Y-150700766D01*
X178705879Y-150848951D01*
X178806117Y-150917267D01*
X179104205Y-150917267D01*
X179117527Y-150844492D01*
X179376728Y-150508601D01*
X179585247Y-150251266D01*
X179731391Y-150085411D01*
X179803468Y-150023959D01*
X179791785Y-150071667D01*
X181065671Y-150071667D01*
X181122988Y-150135167D01*
X181440667Y-150135167D01*
X181482344Y-150052834D01*
X181631167Y-150029333D01*
X181796010Y-150061734D01*
X181821667Y-150135167D01*
X181718487Y-150224934D01*
X181631167Y-150241000D01*
X181482859Y-150191052D01*
X181440667Y-150135167D01*
X181122988Y-150135167D01*
X181333152Y-150368000D01*
X181451946Y-150509111D01*
X181871055Y-150509111D01*
X181882678Y-150458777D01*
X181927500Y-150452667D01*
X181997190Y-150483645D01*
X181983944Y-150509111D01*
X181883465Y-150519244D01*
X181871055Y-150509111D01*
X181451946Y-150509111D01*
X181515985Y-150585180D01*
X181658299Y-150779599D01*
X181690869Y-150833667D01*
X181735404Y-150939273D01*
X181713006Y-150939315D01*
X181606847Y-150940181D01*
X181468704Y-151023982D01*
X181348508Y-151122743D01*
X181350287Y-151105393D01*
X181439782Y-150997311D01*
X181518784Y-150887617D01*
X181528437Y-150786424D01*
X181458242Y-150642784D01*
X181326368Y-150446977D01*
X181065671Y-150071667D01*
X179791785Y-150071667D01*
X179789784Y-150079834D01*
X179759289Y-150135167D01*
X179671813Y-150264054D01*
X179524918Y-150462513D01*
X179461473Y-150545081D01*
X179316935Y-150761636D01*
X179290942Y-150896975D01*
X179318543Y-150942510D01*
X179350217Y-151003238D01*
X179238709Y-150990533D01*
X179228578Y-150987922D01*
X179104205Y-150917267D01*
X178806117Y-150917267D01*
X178969086Y-151028335D01*
X179252322Y-151211428D01*
X179513675Y-151370743D01*
X179711233Y-151478791D01*
X179766508Y-151502779D01*
X179861235Y-151526445D01*
X179850499Y-151476981D01*
X179728514Y-151330120D01*
X179724175Y-151325201D01*
X179514500Y-151087667D01*
X179747333Y-151292925D01*
X179898768Y-151457483D01*
X179974543Y-151599824D01*
X179962394Y-151682695D01*
X179874333Y-151678751D01*
X179789398Y-151728112D01*
X179639788Y-151886153D01*
X179449881Y-152119153D01*
X179244058Y-152393392D01*
X179046697Y-152675149D01*
X178882176Y-152930703D01*
X178774875Y-153126333D01*
X178749174Y-153228318D01*
X178751622Y-153231678D01*
X178829770Y-153214850D01*
X178895742Y-153129970D01*
X178988195Y-153038792D01*
X179065249Y-153098849D01*
X179116563Y-153292119D01*
X179132203Y-153542096D01*
X179133500Y-153879859D01*
X179529834Y-153289064D01*
X179687216Y-153053708D01*
X179803764Y-152896776D01*
X179889769Y-152831515D01*
X179955523Y-152871171D01*
X180011318Y-153028992D01*
X180067447Y-153318226D01*
X180134200Y-153752119D01*
X180191539Y-154140772D01*
X180254657Y-154543622D01*
X180315190Y-154890000D01*
X180366204Y-155142625D01*
X180400380Y-155263499D01*
X180432048Y-155223521D01*
G37*
X180432048Y-155223521D02*
X180481650Y-155041025D01*
X180543779Y-154741208D01*
X180613026Y-154349267D01*
X180659298Y-154056999D01*
X180730199Y-153608479D01*
X180796153Y-153225658D01*
X180851856Y-152936773D01*
X180892005Y-152770064D01*
X180906576Y-152740429D01*
X180972243Y-152806664D01*
X181105039Y-152981160D01*
X181279734Y-153230246D01*
X181334833Y-153311929D01*
X181715833Y-153881667D01*
X181758167Y-153423086D01*
X181787163Y-153167072D01*
X181820768Y-153054068D01*
X181872021Y-153057962D01*
X181916700Y-153105586D01*
X182042817Y-153219768D01*
X182110291Y-153246667D01*
X182107187Y-153185720D01*
X182020388Y-153023461D01*
X181872032Y-152790762D01*
X181684258Y-152518496D01*
X181479205Y-152237535D01*
X181279012Y-151978751D01*
X181105819Y-151773017D01*
X180981764Y-151651204D01*
X180953833Y-151634019D01*
X180837540Y-151574907D01*
X180826833Y-151552222D01*
X180936558Y-151528166D01*
X181023577Y-151511097D01*
X181159681Y-151453411D01*
X181395285Y-151323318D01*
X181689979Y-151143801D01*
X181845470Y-151043602D01*
X182512953Y-150605387D01*
X182332074Y-150360735D01*
X182223568Y-150190109D01*
X182188251Y-150083523D01*
X182192302Y-150074976D01*
X182259535Y-150115272D01*
X182278622Y-150135918D01*
X182603582Y-150135918D01*
X182669994Y-150055204D01*
X182816500Y-150029333D01*
X182975661Y-150055234D01*
X182982303Y-150061523D01*
X183366833Y-150061523D01*
X183419010Y-150066094D01*
X183530831Y-150151505D01*
X183572303Y-150174398D01*
X183973148Y-150174398D01*
X183993748Y-150127082D01*
X184078999Y-150036188D01*
X184128009Y-150054834D01*
X184128833Y-150066670D01*
X184068696Y-150138283D01*
X184031085Y-150164418D01*
X183973148Y-150174398D01*
X183572303Y-150174398D01*
X183702386Y-150246203D01*
X183805998Y-150233042D01*
X183874146Y-150203611D01*
X183825308Y-150279547D01*
X183812068Y-150296038D01*
X183749825Y-150426314D01*
X183762679Y-150481624D01*
X183756263Y-150534005D01*
X183729348Y-150537333D01*
X183629693Y-150473304D01*
X183502650Y-150325588D01*
X183398933Y-150160749D01*
X183366833Y-150061523D01*
X182982303Y-150061523D01*
X183028167Y-150104942D01*
X182958763Y-150197526D01*
X182811538Y-150252024D01*
X182681859Y-150236278D01*
X182603582Y-150135918D01*
X182278622Y-150135918D01*
X182394292Y-150261029D01*
X182549852Y-150457734D01*
X182606385Y-150537333D01*
X183112833Y-150537333D01*
X183143811Y-150467643D01*
X183169278Y-150480889D01*
X183179411Y-150581369D01*
X183169278Y-150593778D01*
X183118943Y-150582156D01*
X183112833Y-150537333D01*
X182606385Y-150537333D01*
X182765627Y-150761547D01*
X182898151Y-150980183D01*
X182939957Y-151098779D01*
X182883581Y-151102469D01*
X182869513Y-151094267D01*
X182727710Y-151088774D01*
X182622291Y-151142419D01*
X182533484Y-151205752D01*
X182555401Y-151164587D01*
X182628136Y-151077181D01*
X182724868Y-150935854D01*
X182702447Y-150842155D01*
X182658966Y-150801126D01*
X182572425Y-150771595D01*
X182433922Y-150806330D01*
X182216063Y-150916808D01*
X181891456Y-151114508D01*
X181853381Y-151138682D01*
X181167270Y-151575391D01*
X181448278Y-151966529D01*
X181546270Y-152103667D01*
X182012167Y-152103667D01*
X182054500Y-152061333D01*
X182096833Y-152103667D01*
X182054500Y-152146000D01*
X182012167Y-152103667D01*
X181546270Y-152103667D01*
X181671020Y-152278250D01*
X181912813Y-152619068D01*
X182012079Y-152759833D01*
X182193220Y-153006114D01*
X182316710Y-153126759D01*
X182416497Y-153138551D01*
X182526529Y-153058273D01*
X182556452Y-153028953D01*
X182658306Y-152957891D01*
X182689500Y-152981818D01*
X182627108Y-153091072D01*
X182513948Y-153190693D01*
X182410884Y-153304871D01*
X182441968Y-153375661D01*
X182572904Y-153376978D01*
X182695001Y-153328389D01*
X182847733Y-153270295D01*
X182915669Y-153275281D01*
X182885335Y-153341053D01*
X182781418Y-153412119D01*
X182638352Y-153516631D01*
X182626503Y-153635285D01*
X182745793Y-153810844D01*
X182780599Y-153851120D01*
X182900997Y-153983049D01*
X182937736Y-153990312D01*
X182918875Y-153875492D01*
X182916339Y-153863613D01*
X182920038Y-153689198D01*
X182987728Y-153577157D01*
X183079641Y-153560672D01*
X183153752Y-153665543D01*
X183231960Y-153800291D01*
X183320127Y-153838537D01*
X183366480Y-153760341D01*
X183366833Y-153747610D01*
X183320568Y-153647507D01*
X183193957Y-153438448D01*
X183005277Y-153149126D01*
X182772805Y-152808236D01*
X182723431Y-152737491D01*
X182407240Y-152302711D01*
X182171377Y-152015642D01*
X182016151Y-151876636D01*
X181961431Y-151864607D01*
X181853758Y-151876995D01*
X181864842Y-151795408D01*
X181985989Y-151637363D01*
X182160156Y-151464109D01*
X182477478Y-151172333D01*
X182228982Y-151447500D01*
X182088263Y-151625303D01*
X182076304Y-151702167D01*
X182187752Y-151680534D01*
X182417254Y-151562844D01*
X182759458Y-151351541D01*
X183209012Y-151049065D01*
X183409167Y-150909111D01*
X183872438Y-150578298D01*
X184209143Y-150327192D01*
X184434329Y-150142659D01*
X184563041Y-150011565D01*
X184610328Y-149920775D01*
X184600297Y-149869380D01*
X184618189Y-149796183D01*
X184737670Y-149778561D01*
X184824350Y-149793145D01*
X184825705Y-149847933D01*
X184728105Y-149965663D01*
X184517920Y-150169074D01*
X184485331Y-150199531D01*
X184226933Y-150419776D01*
X183875378Y-150691442D01*
X183481275Y-150976482D01*
X183172998Y-151186184D01*
X182838807Y-151406142D01*
X182559930Y-151589753D01*
X182364637Y-151718403D01*
X182281193Y-151773475D01*
X182280493Y-151773943D01*
X182301907Y-151830674D01*
X182689701Y-151830674D01*
X182758857Y-151759679D01*
X182938119Y-151642238D01*
X183137954Y-151530905D01*
X183456303Y-151338238D01*
X183800523Y-151090595D01*
X184005586Y-150920865D01*
X184243481Y-150719067D01*
X184420965Y-150589370D01*
X184520263Y-150540591D01*
X184523600Y-150581548D01*
X184458384Y-150664333D01*
X185398833Y-150664333D01*
X185441167Y-150622000D01*
X185483500Y-150664333D01*
X185441167Y-150706667D01*
X185398833Y-150664333D01*
X184458384Y-150664333D01*
X184417122Y-150716709D01*
X184242213Y-150882069D01*
X183995350Y-151078513D01*
X183706673Y-151286604D01*
X183406323Y-151486906D01*
X183124439Y-151659983D01*
X182891162Y-151786398D01*
X182736633Y-151846714D01*
X182689701Y-151830674D01*
X182301907Y-151830674D01*
X182308899Y-151849197D01*
X182327270Y-151878876D01*
X183630714Y-151878876D01*
X183671986Y-151633274D01*
X183749308Y-151521620D01*
X183974326Y-151401684D01*
X184231397Y-151409010D01*
X184419119Y-151517048D01*
X184542639Y-151746202D01*
X184533739Y-152006086D01*
X184399847Y-152231954D01*
X184330744Y-152287178D01*
X184154845Y-152380403D01*
X184010327Y-152369133D01*
X183886244Y-152307656D01*
X183705946Y-152125556D01*
X183630714Y-151878876D01*
X182327270Y-151878876D01*
X182419621Y-152028064D01*
X182590816Y-152280646D01*
X182800643Y-152577046D01*
X183027259Y-152887368D01*
X183248821Y-153181715D01*
X183443486Y-153430190D01*
X183589414Y-153602895D01*
X183664760Y-153669934D01*
X183665737Y-153670000D01*
X183811109Y-153620099D01*
X184052431Y-153484142D01*
X184362337Y-153282754D01*
X184713463Y-153036556D01*
X185078443Y-152766170D01*
X185429913Y-152492219D01*
X185740508Y-152235326D01*
X185982864Y-152016113D01*
X186129615Y-151855202D01*
X186160833Y-151789664D01*
X186113927Y-151679840D01*
X185992124Y-151482499D01*
X185854368Y-151285531D01*
X185700399Y-151060178D01*
X185606641Y-150891838D01*
X185592163Y-150823781D01*
X185687365Y-150831172D01*
X185874522Y-150902056D01*
X185962129Y-150943897D01*
X186299390Y-151106688D01*
X186496445Y-151176959D01*
X186559413Y-151147406D01*
X186494415Y-151010726D01*
X186307572Y-150759616D01*
X186214274Y-150643034D01*
X185918168Y-150241832D01*
X185758444Y-149939375D01*
X185734831Y-149734406D01*
X185847059Y-149625670D01*
X185991500Y-149606000D01*
X186171408Y-149585021D01*
X186237718Y-149486060D01*
X186245500Y-149352000D01*
X186268281Y-149170473D01*
X186365121Y-149104066D01*
X186457167Y-149098000D01*
X186608439Y-149070663D01*
X186663778Y-148954455D01*
X186668833Y-148844000D01*
X186646052Y-148662473D01*
X186549212Y-148596066D01*
X186457167Y-148590000D01*
X186296045Y-148555031D01*
X186246394Y-148417340D01*
X186245500Y-148378333D01*
X186280469Y-148217212D01*
X186418160Y-148167561D01*
X186457167Y-148166667D01*
X186608439Y-148139329D01*
X186663778Y-148023121D01*
X186668833Y-147912667D01*
X186646052Y-147731140D01*
X186549212Y-147664733D01*
X186457167Y-147658667D01*
X186305894Y-147631329D01*
X186250555Y-147515121D01*
X186245500Y-147404667D01*
X186268281Y-147223140D01*
X186365121Y-147156733D01*
X186457167Y-147150667D01*
X186608439Y-147123329D01*
X186663778Y-147007121D01*
X186668833Y-146896667D01*
X186646052Y-146715140D01*
X186549212Y-146648733D01*
X186457167Y-146642667D01*
X186296045Y-146607697D01*
X186246394Y-146470007D01*
X186245500Y-146431000D01*
X186280469Y-146269878D01*
X186418160Y-146220227D01*
X186457167Y-146219333D01*
X186608439Y-146191996D01*
X186663778Y-146075788D01*
X186668833Y-145965333D01*
X186646052Y-145783807D01*
X186549212Y-145717399D01*
X186457167Y-145711333D01*
X186305894Y-145683996D01*
X186250555Y-145567788D01*
X186245500Y-145457333D01*
X186268281Y-145275807D01*
X186365121Y-145209399D01*
X186457167Y-145203333D01*
X186618288Y-145168364D01*
X186667939Y-145030674D01*
X186668833Y-144991667D01*
X186633864Y-144830545D01*
X186496173Y-144780894D01*
X186457167Y-144780000D01*
X186305894Y-144752663D01*
X186250555Y-144636455D01*
X186245500Y-144526000D01*
X186268281Y-144344473D01*
X186365121Y-144278066D01*
X186457167Y-144272000D01*
X186608439Y-144244663D01*
X186663778Y-144128455D01*
X186668833Y-144018000D01*
X186646052Y-143836473D01*
X186549212Y-143770066D01*
X186457167Y-143764000D01*
X186296045Y-143729031D01*
X186246394Y-143591340D01*
X186245500Y-143552333D01*
X186280469Y-143391212D01*
X186418160Y-143341561D01*
X186457167Y-143340667D01*
X186668833Y-143340667D01*
X186668833Y-140885333D01*
X186209055Y-140885333D01*
X185940523Y-140877550D01*
X185797477Y-140843216D01*
X185736371Y-140765853D01*
X185722222Y-140701121D01*
X185696393Y-140642421D01*
X185625330Y-140576519D01*
X185493367Y-140496425D01*
X185284837Y-140395146D01*
X184984072Y-140265692D01*
X184575406Y-140101071D01*
X184043170Y-139894293D01*
X183371699Y-139638366D01*
X183166769Y-139560791D01*
X182544326Y-139325882D01*
X181968859Y-139109598D01*
X181460513Y-138919440D01*
X181039436Y-138762911D01*
X180725774Y-138647512D01*
X180539673Y-138580745D01*
X180499769Y-138567674D01*
X180389608Y-138587877D01*
X180141266Y-138662342D01*
X179774487Y-138784225D01*
X179309014Y-138946687D01*
X178764591Y-139142886D01*
X178160963Y-139365981D01*
X177758524Y-139517504D01*
X177043260Y-139789603D01*
X176471104Y-140009998D01*
X176026366Y-140185785D01*
X175693356Y-140324057D01*
X175456385Y-140431911D01*
X175299764Y-140516440D01*
X175207802Y-140584740D01*
X175164812Y-140643906D01*
X175155024Y-140694833D01*
X175140554Y-140800679D01*
X175072014Y-140857844D01*
X174909884Y-140881124D01*
X174646167Y-140885333D01*
X174138167Y-140885333D01*
X174138167Y-141113056D01*
X176170167Y-141113056D01*
X176170167Y-140832778D01*
X178075167Y-140127076D01*
X178607116Y-139926115D01*
X179081829Y-139739298D01*
X179477488Y-139575828D01*
X179772272Y-139444907D01*
X179944362Y-139355738D01*
X179980167Y-139323621D01*
X180052019Y-139160163D01*
X180228897Y-139055625D01*
X180452777Y-139023214D01*
X180665638Y-139076137D01*
X180757286Y-139146729D01*
X180901627Y-139311001D01*
X180959864Y-139379562D01*
X181062529Y-139438115D01*
X181301441Y-139543455D01*
X181653103Y-139686199D01*
X182094016Y-139856962D01*
X182600684Y-140046360D01*
X182928212Y-140165667D01*
X184805863Y-140843000D01*
X184806015Y-141118167D01*
X184796426Y-141290222D01*
X184735899Y-141367131D01*
X184577173Y-141383180D01*
X184446333Y-141379101D01*
X184086500Y-141364868D01*
X184409178Y-141331348D01*
X184619813Y-141294872D01*
X184703274Y-141224767D01*
X184705512Y-141114357D01*
X184665813Y-141022731D01*
X184557460Y-140931475D01*
X184355007Y-140826557D01*
X184033004Y-140693948D01*
X183747833Y-140586366D01*
X182956846Y-140295915D01*
X182311569Y-140064086D01*
X181800272Y-139887159D01*
X181411225Y-139761416D01*
X181132698Y-139683137D01*
X180952960Y-139648605D01*
X180860282Y-139654099D01*
X180845285Y-139666159D01*
X180728227Y-139774359D01*
X180583844Y-139865073D01*
X180427689Y-139921588D01*
X180282949Y-139885143D01*
X180128841Y-139782781D01*
X179874494Y-139594734D01*
X178678497Y-140036218D01*
X178195716Y-140214282D01*
X177710480Y-140392999D01*
X177272507Y-140554072D01*
X176931516Y-140679205D01*
X176868667Y-140702210D01*
X176548882Y-140827284D01*
X176360811Y-140926693D01*
X176273337Y-141021240D01*
X176254833Y-141112582D01*
X176264787Y-141153445D01*
X177355500Y-141153445D01*
X177379970Y-140980218D01*
X177489253Y-140918930D01*
X177597016Y-140913556D01*
X177772620Y-140938948D01*
X177837361Y-141050688D01*
X177842609Y-141118167D01*
X177963709Y-141118167D01*
X177973690Y-140931711D01*
X178058321Y-140895009D01*
X178185233Y-140986933D01*
X178269128Y-141045838D01*
X178286833Y-140986933D01*
X178342196Y-140891644D01*
X178371500Y-140885333D01*
X178430447Y-140959032D01*
X178456128Y-141137144D01*
X178456138Y-141139333D01*
X178625500Y-141139333D01*
X178645916Y-140960268D01*
X178739604Y-140897709D01*
X178858333Y-140895155D01*
X178986399Y-140911632D01*
X178954614Y-140940495D01*
X178943000Y-140943696D01*
X178822981Y-141051516D01*
X178806618Y-141139333D01*
X179218167Y-141139333D01*
X179242691Y-140960992D01*
X179301780Y-140885353D01*
X179302833Y-140885333D01*
X179362280Y-140958906D01*
X179386437Y-141128750D01*
X179556833Y-141128750D01*
X179586806Y-140967111D01*
X179651413Y-140882335D01*
X179712685Y-140904100D01*
X179732851Y-140991167D01*
X179749869Y-141053559D01*
X179782240Y-140991167D01*
X179864030Y-140887293D01*
X179940145Y-140929134D01*
X179979388Y-141095004D01*
X179980167Y-141128750D01*
X179978657Y-141139333D01*
X180149500Y-141139333D01*
X180170479Y-140959425D01*
X180269440Y-140893115D01*
X180403500Y-140885333D01*
X180595488Y-140919063D01*
X180657500Y-140998222D01*
X180615928Y-141149947D01*
X180512820Y-141150401D01*
X180435731Y-141074517D01*
X180350486Y-140979445D01*
X180323984Y-141036214D01*
X180321526Y-141112278D01*
X180383122Y-141277781D01*
X180509333Y-141333581D01*
X180547917Y-141345143D01*
X181045227Y-141345143D01*
X181059667Y-141337260D01*
X181141503Y-141229002D01*
X181165500Y-141089945D01*
X181195390Y-140934237D01*
X181250167Y-140885333D01*
X181314597Y-140957568D01*
X181334833Y-141089945D01*
X181345883Y-141139333D01*
X181588833Y-141139333D01*
X181606492Y-140965122D01*
X181694622Y-140899437D01*
X181864000Y-140893773D01*
X182040266Y-140902734D01*
X182058871Y-140923057D01*
X181931467Y-140968729D01*
X181927500Y-140970000D01*
X181807064Y-141021546D01*
X181853705Y-141045535D01*
X181864000Y-141046227D01*
X181989863Y-141093528D01*
X182012167Y-141139333D01*
X182181500Y-141139333D01*
X182208353Y-140938339D01*
X182292225Y-140895286D01*
X182418567Y-140986933D01*
X182502461Y-141045838D01*
X182520167Y-140986933D01*
X182575530Y-140891644D01*
X182604833Y-140885333D01*
X182664280Y-140958906D01*
X182689493Y-141136173D01*
X182689500Y-141139333D01*
X182858833Y-141139333D01*
X182875353Y-140968681D01*
X182959143Y-140898686D01*
X183155167Y-140885333D01*
X183354261Y-140899493D01*
X183435922Y-140971313D01*
X183451500Y-141139333D01*
X183434980Y-141309986D01*
X183351190Y-141379981D01*
X183155167Y-141393333D01*
X182956072Y-141379174D01*
X182874411Y-141307354D01*
X182858833Y-141139333D01*
X182689500Y-141139333D01*
X182668521Y-141319242D01*
X182569560Y-141385552D01*
X182435500Y-141393333D01*
X182255592Y-141372354D01*
X182189281Y-141273394D01*
X182181500Y-141139333D01*
X182012167Y-141139333D01*
X181941935Y-141215256D01*
X181864000Y-141232440D01*
X181804756Y-141254351D01*
X181912589Y-141303818D01*
X181927500Y-141308667D01*
X182057712Y-141354990D01*
X182042149Y-141375683D01*
X181869158Y-141384735D01*
X181864000Y-141384894D01*
X181674684Y-141374400D01*
X181600597Y-141295321D01*
X181588833Y-141139333D01*
X181345883Y-141139333D01*
X181373749Y-141263865D01*
X181440667Y-141337260D01*
X181439131Y-141364647D01*
X181303047Y-141379231D01*
X181250167Y-141379965D01*
X181084915Y-141369963D01*
X181045227Y-141345143D01*
X180547917Y-141345143D01*
X180596369Y-141359662D01*
X180522429Y-141376190D01*
X180424667Y-141381803D01*
X180235480Y-141373725D01*
X180161375Y-141296377D01*
X180149500Y-141139333D01*
X179978657Y-141139333D01*
X179954967Y-141305352D01*
X179849621Y-141367703D01*
X179768500Y-141372167D01*
X179614933Y-141343188D01*
X179560715Y-141222040D01*
X179556833Y-141128750D01*
X179386437Y-141128750D01*
X179387493Y-141136173D01*
X179387500Y-141139333D01*
X179362976Y-141317675D01*
X179303887Y-141393314D01*
X179302833Y-141393333D01*
X179243386Y-141319761D01*
X179218173Y-141142494D01*
X179218167Y-141139333D01*
X178806618Y-141139333D01*
X178801517Y-141166708D01*
X178821503Y-141269399D01*
X178850906Y-141245167D01*
X178940810Y-141146166D01*
X179027690Y-141179590D01*
X179048833Y-141266333D01*
X178975232Y-141368477D01*
X178837167Y-141393333D01*
X178685894Y-141365996D01*
X178630555Y-141249788D01*
X178625500Y-141139333D01*
X178456138Y-141139333D01*
X178456167Y-141144957D01*
X178438761Y-141324707D01*
X178354849Y-141383729D01*
X178223333Y-141377791D01*
X178041992Y-141317151D01*
X177969033Y-141156991D01*
X177963709Y-141118167D01*
X177842609Y-141118167D01*
X177845354Y-141153445D01*
X177827722Y-141324643D01*
X177726207Y-141386805D01*
X177603837Y-141393333D01*
X177426198Y-141370646D01*
X177361940Y-141268064D01*
X177355500Y-141153445D01*
X176264787Y-141153445D01*
X176286123Y-141241033D01*
X176410156Y-141306722D01*
X176572333Y-141331657D01*
X176889833Y-141364868D01*
X176530000Y-141379101D01*
X176304512Y-141380724D01*
X176200817Y-141338375D01*
X176171615Y-141217083D01*
X176170167Y-141113056D01*
X174138167Y-141113056D01*
X174138167Y-142169445D01*
X174815500Y-142169445D01*
X174832829Y-141976485D01*
X174869552Y-141875504D01*
X174959164Y-141887636D01*
X175097133Y-141989067D01*
X175214855Y-142113000D01*
X175492833Y-142113000D01*
X175508647Y-141912602D01*
X175579813Y-141830563D01*
X175704500Y-141816667D01*
X175847641Y-141838807D01*
X175906241Y-141938438D01*
X175916167Y-142113000D01*
X176085500Y-142113000D01*
X176101314Y-141912602D01*
X176172479Y-141830563D01*
X176297167Y-141816667D01*
X176456281Y-141845649D01*
X176508833Y-141901333D01*
X176440257Y-141976448D01*
X176381833Y-141986000D01*
X176279690Y-142059601D01*
X176270976Y-142108003D01*
X176678167Y-142108003D01*
X176698222Y-141915355D01*
X176751276Y-141854081D01*
X176762833Y-141859000D01*
X176823833Y-141973456D01*
X176847500Y-142160330D01*
X176824201Y-142324667D01*
X176932167Y-142324667D01*
X176996596Y-142242460D01*
X177016833Y-142240000D01*
X177079939Y-142167394D01*
X177101500Y-142023337D01*
X177128376Y-141879286D01*
X177186167Y-141859000D01*
X177259869Y-141979632D01*
X177270833Y-142058730D01*
X177286954Y-142113000D01*
X177524833Y-142113000D01*
X177540911Y-141912340D01*
X177612162Y-141830245D01*
X177731503Y-141816667D01*
X177910776Y-141847885D01*
X177990500Y-141901333D01*
X177961737Y-141968994D01*
X177847330Y-141995822D01*
X177736346Y-142012691D01*
X177791311Y-142042690D01*
X177882084Y-142113000D01*
X178117500Y-142113000D01*
X178133578Y-141912340D01*
X178204829Y-141830245D01*
X178324170Y-141816667D01*
X178503443Y-141847885D01*
X178583167Y-141901333D01*
X178557243Y-141967974D01*
X178461163Y-141986000D01*
X178319345Y-142037776D01*
X178286833Y-142113000D01*
X178332551Y-142225672D01*
X178371500Y-142240000D01*
X178452913Y-142174912D01*
X178456167Y-142150337D01*
X178508036Y-142099771D01*
X178540833Y-142113000D01*
X178585532Y-142169445D01*
X178710167Y-142169445D01*
X178731352Y-141977152D01*
X178780287Y-141862346D01*
X178835045Y-141858175D01*
X178864541Y-141936071D01*
X178913106Y-142053604D01*
X178939874Y-142070667D01*
X179022993Y-142011573D01*
X179100307Y-141922500D01*
X179173132Y-141845549D01*
X179206098Y-141889051D01*
X179215333Y-142076723D01*
X179215412Y-142085215D01*
X179390141Y-142085215D01*
X179390193Y-142078949D01*
X179398607Y-141888208D01*
X179430821Y-141843454D01*
X179504490Y-141921450D01*
X179507179Y-141924989D01*
X179600116Y-142025107D01*
X179653812Y-141986962D01*
X179673222Y-141940789D01*
X179750976Y-141846243D01*
X179831983Y-141889678D01*
X179886941Y-142042901D01*
X179892309Y-142113000D01*
X179980167Y-142113000D01*
X180001432Y-141917133D01*
X180053722Y-141819226D01*
X180064833Y-141816667D01*
X180120795Y-141891096D01*
X180148769Y-142074110D01*
X180148982Y-142085483D01*
X180318833Y-142085483D01*
X180331175Y-141894803D01*
X180375252Y-141850560D01*
X180418419Y-141882386D01*
X180551762Y-141934012D01*
X180621804Y-141895825D01*
X180691731Y-141876384D01*
X180717565Y-141991227D01*
X180717406Y-142098922D01*
X180715685Y-142113000D01*
X180911500Y-142113000D01*
X180938234Y-141902128D01*
X181004687Y-141816344D01*
X181090232Y-141874851D01*
X181116111Y-141922500D01*
X181171733Y-141984519D01*
X181215065Y-141921973D01*
X181294018Y-141846225D01*
X181369427Y-141907952D01*
X181415254Y-142076798D01*
X181419500Y-142160330D01*
X181418387Y-142169445D01*
X181758167Y-142169445D01*
X181783649Y-141942777D01*
X181884601Y-141839188D01*
X182068611Y-141816667D01*
X182227235Y-141862440D01*
X182266167Y-141986000D01*
X182233437Y-142113000D01*
X182435500Y-142113000D01*
X182473022Y-141889867D01*
X182576650Y-141814544D01*
X182732975Y-141895149D01*
X182757233Y-141918267D01*
X182839256Y-142080451D01*
X182844006Y-142113000D01*
X183028167Y-142113000D01*
X183054901Y-141902128D01*
X183121353Y-141816344D01*
X183206898Y-141874851D01*
X183232778Y-141922500D01*
X183288399Y-141984519D01*
X183331731Y-141921973D01*
X183410685Y-141846225D01*
X183486094Y-141907952D01*
X183531921Y-142076798D01*
X183536167Y-142160330D01*
X183535746Y-142163782D01*
X183620833Y-142163782D01*
X183644451Y-141954957D01*
X183701949Y-141860751D01*
X183773289Y-141903956D01*
X183799593Y-141960430D01*
X183850799Y-142066880D01*
X183896344Y-142014244D01*
X183917137Y-141964833D01*
X184006263Y-141830036D01*
X184082596Y-141851214D01*
X184095714Y-141901333D01*
X184298167Y-141901333D01*
X184370623Y-141837688D01*
X184509833Y-141816667D01*
X184669498Y-141854335D01*
X184721500Y-141926733D01*
X184666326Y-142079733D01*
X184655122Y-142093892D01*
X184890833Y-142093892D01*
X184908567Y-141903227D01*
X184967924Y-141859505D01*
X184996667Y-141873057D01*
X185165340Y-141916536D01*
X185267869Y-141912151D01*
X185379963Y-141906489D01*
X185358177Y-141973409D01*
X185310202Y-142033866D01*
X185259341Y-142118627D01*
X185484235Y-142118627D01*
X185523227Y-141919927D01*
X185580368Y-141826108D01*
X185654271Y-141890119D01*
X185663834Y-141903706D01*
X185745993Y-141978761D01*
X185793334Y-141922500D01*
X185872609Y-141816604D01*
X185944495Y-141858010D01*
X185987338Y-142025287D01*
X185991500Y-142118624D01*
X185979337Y-142318271D01*
X185917010Y-142394920D01*
X185765757Y-142394518D01*
X185759390Y-142393791D01*
X185557946Y-142305808D01*
X185484235Y-142118627D01*
X185259341Y-142118627D01*
X185235779Y-142157893D01*
X185290351Y-142217583D01*
X185293000Y-142218491D01*
X185397210Y-142285828D01*
X185354684Y-142347636D01*
X185187039Y-142380189D01*
X185144833Y-142381111D01*
X184972326Y-142363765D01*
X184902996Y-142277085D01*
X184890833Y-142093892D01*
X184655122Y-142093892D01*
X184619900Y-142138400D01*
X184560995Y-142222295D01*
X184619900Y-142240000D01*
X184715189Y-142295363D01*
X184721500Y-142324667D01*
X184649044Y-142388313D01*
X184509833Y-142409333D01*
X184338873Y-142359018D01*
X184306656Y-142231834D01*
X184399767Y-142087600D01*
X184458671Y-142003705D01*
X184399767Y-141986000D01*
X184304477Y-141930637D01*
X184298167Y-141901333D01*
X184095714Y-141901333D01*
X184125516Y-142015188D01*
X184128833Y-142100116D01*
X184112304Y-142294273D01*
X184031500Y-142373581D01*
X183874833Y-142390786D01*
X183694798Y-142375200D01*
X183628321Y-142282312D01*
X183620833Y-142163782D01*
X183535746Y-142163782D01*
X183514606Y-142336821D01*
X183414041Y-142401847D01*
X183282167Y-142409333D01*
X183111514Y-142392814D01*
X183041519Y-142309024D01*
X183028167Y-142113000D01*
X182844006Y-142113000D01*
X182858833Y-142214600D01*
X182819326Y-142364121D01*
X182670784Y-142409005D01*
X182647167Y-142409333D01*
X182504025Y-142387193D01*
X182445426Y-142287562D01*
X182435500Y-142113000D01*
X182233437Y-142113000D01*
X182230710Y-142123581D01*
X182181500Y-142155333D01*
X182100087Y-142090246D01*
X182096833Y-142065670D01*
X182044963Y-142015104D01*
X182012167Y-142028333D01*
X181928852Y-142135547D01*
X181991411Y-142220867D01*
X182096833Y-142240000D01*
X182234414Y-142275456D01*
X182266167Y-142324667D01*
X182192594Y-142384114D01*
X182015327Y-142409327D01*
X182012167Y-142409333D01*
X181831871Y-142387878D01*
X181765507Y-142289905D01*
X181758167Y-142169445D01*
X181418387Y-142169445D01*
X181397939Y-142336821D01*
X181297375Y-142401847D01*
X181165500Y-142409333D01*
X180994847Y-142392814D01*
X180924852Y-142309024D01*
X180911500Y-142113000D01*
X180715685Y-142113000D01*
X180693076Y-142297939D01*
X180612938Y-142377517D01*
X180514020Y-142388167D01*
X180382397Y-142363396D01*
X180327887Y-142256832D01*
X180318833Y-142085483D01*
X180148982Y-142085483D01*
X180149500Y-142113000D01*
X180128234Y-142308868D01*
X180075945Y-142406774D01*
X180064833Y-142409333D01*
X180008871Y-142334905D01*
X179980898Y-142151890D01*
X179980167Y-142113000D01*
X179892309Y-142113000D01*
X179895500Y-142154668D01*
X179874209Y-142326298D01*
X179774614Y-142387114D01*
X179641500Y-142390786D01*
X179472486Y-142369766D01*
X179402675Y-142285250D01*
X179390141Y-142085215D01*
X179215412Y-142085215D01*
X179215474Y-142091833D01*
X179192201Y-142312176D01*
X179129856Y-142408676D01*
X179046665Y-142362227D01*
X179013555Y-142303500D01*
X178957952Y-142241236D01*
X178914778Y-142303500D01*
X178824784Y-142406686D01*
X178746636Y-142361192D01*
X178710362Y-142186695D01*
X178710167Y-142169445D01*
X178585532Y-142169445D01*
X178634188Y-142230886D01*
X178587492Y-142343219D01*
X178425685Y-142406351D01*
X178371500Y-142409333D01*
X178200847Y-142392814D01*
X178130852Y-142309024D01*
X178117500Y-142113000D01*
X177882084Y-142113000D01*
X177927147Y-142147904D01*
X177973884Y-142244535D01*
X177974885Y-142362756D01*
X177865107Y-142405970D01*
X177770907Y-142409333D01*
X177605450Y-142391981D01*
X177537592Y-142305814D01*
X177524833Y-142113000D01*
X177286954Y-142113000D01*
X177326284Y-142245398D01*
X177372433Y-142307733D01*
X177407507Y-142377880D01*
X177307407Y-142406482D01*
X177203100Y-142409333D01*
X177017569Y-142386227D01*
X176932715Y-142330062D01*
X176932167Y-142324667D01*
X176824201Y-142324667D01*
X176822523Y-142336500D01*
X176762833Y-142409333D01*
X176707244Y-142334816D01*
X176679040Y-142151205D01*
X176678167Y-142108003D01*
X176270976Y-142108003D01*
X176254833Y-142197667D01*
X176225851Y-142356782D01*
X176170167Y-142409333D01*
X176114204Y-142334905D01*
X176086231Y-142151890D01*
X176085500Y-142113000D01*
X175916167Y-142113000D01*
X175900352Y-142313398D01*
X175829187Y-142395438D01*
X175704500Y-142409333D01*
X175561358Y-142387193D01*
X175502759Y-142287562D01*
X175492833Y-142113000D01*
X175214855Y-142113000D01*
X175232708Y-142131794D01*
X175315139Y-142267813D01*
X175322037Y-142303500D01*
X175248419Y-142380702D01*
X175069500Y-142409333D01*
X174889204Y-142387878D01*
X174822840Y-142289905D01*
X174815500Y-142169445D01*
X174138167Y-142169445D01*
X174138167Y-142578667D01*
X183874833Y-142578667D01*
X183905811Y-142508977D01*
X183931278Y-142522222D01*
X183941411Y-142622702D01*
X183931278Y-142635111D01*
X183880943Y-142623489D01*
X183874833Y-142578667D01*
X174138167Y-142578667D01*
X174138167Y-143340667D01*
X174392167Y-143340667D01*
X174573693Y-143363448D01*
X174640101Y-143460288D01*
X174646167Y-143552333D01*
X174618829Y-143703606D01*
X174502621Y-143758945D01*
X174392167Y-143764000D01*
X174212258Y-143784979D01*
X174145948Y-143883940D01*
X174138167Y-144018000D01*
X174646167Y-144018000D01*
X174668948Y-143836473D01*
X174765788Y-143770066D01*
X174857833Y-143764000D01*
X175009105Y-143791338D01*
X175064445Y-143907546D01*
X175069500Y-144018000D01*
X175046719Y-144199527D01*
X174949879Y-144265934D01*
X174857833Y-144272000D01*
X174706561Y-144244663D01*
X174651221Y-144128455D01*
X174646167Y-144018000D01*
X174138167Y-144018000D01*
X174158452Y-144196579D01*
X174255121Y-144263477D01*
X174397790Y-144272000D01*
X174577540Y-144289406D01*
X174636562Y-144373318D01*
X174630624Y-144504833D01*
X174579640Y-144676656D01*
X174444714Y-144732561D01*
X174371000Y-144734329D01*
X174207172Y-144754339D01*
X174145628Y-144855681D01*
X174138167Y-144991667D01*
X174646167Y-144991667D01*
X174681136Y-144830545D01*
X174818826Y-144780894D01*
X174857833Y-144780000D01*
X175018955Y-144814970D01*
X175068606Y-144952660D01*
X175069500Y-144991667D01*
X175034530Y-145152789D01*
X174896840Y-145202440D01*
X174857833Y-145203333D01*
X174696711Y-145168364D01*
X174647060Y-145030674D01*
X174646167Y-144991667D01*
X174138167Y-144991667D01*
X174158137Y-145174799D01*
X174249443Y-145242393D01*
X174371000Y-145249004D01*
X174546855Y-145277697D01*
X174619359Y-145405151D01*
X174630624Y-145478500D01*
X174629970Y-145641497D01*
X174543490Y-145703088D01*
X174397790Y-145711333D01*
X174215258Y-145731179D01*
X174146879Y-145825755D01*
X174138167Y-145965333D01*
X174646167Y-145965333D01*
X174668948Y-145783807D01*
X174765788Y-145717399D01*
X174857833Y-145711333D01*
X175009105Y-145738671D01*
X175064445Y-145854879D01*
X175069500Y-145965333D01*
X175046719Y-146146860D01*
X174949879Y-146213268D01*
X174857833Y-146219333D01*
X174706561Y-146191996D01*
X174651221Y-146075788D01*
X174646167Y-145965333D01*
X174138167Y-145965333D01*
X174159146Y-146145242D01*
X174258106Y-146211552D01*
X174392167Y-146219333D01*
X174573693Y-146242115D01*
X174640101Y-146338955D01*
X174646167Y-146431000D01*
X174618829Y-146582272D01*
X174502621Y-146637612D01*
X174392167Y-146642667D01*
X174212258Y-146663646D01*
X174145948Y-146762607D01*
X174138167Y-146896667D01*
X174143103Y-146939000D01*
X174646167Y-146939000D01*
X174681136Y-146777878D01*
X174818826Y-146728227D01*
X174857833Y-146727333D01*
X175018955Y-146762303D01*
X175068606Y-146899993D01*
X175069500Y-146939000D01*
X175034530Y-147100122D01*
X174896840Y-147149773D01*
X174857833Y-147150667D01*
X174696711Y-147115697D01*
X174647060Y-146978007D01*
X174646167Y-146939000D01*
X174143103Y-146939000D01*
X174159146Y-147076575D01*
X174258106Y-147142885D01*
X174392167Y-147150667D01*
X174572075Y-147171646D01*
X174638385Y-147270607D01*
X174646167Y-147404667D01*
X174625187Y-147584575D01*
X174526227Y-147650885D01*
X174392167Y-147658667D01*
X174212258Y-147679646D01*
X174145948Y-147778607D01*
X174140625Y-147870333D01*
X174646167Y-147870333D01*
X174681136Y-147709212D01*
X174818826Y-147659561D01*
X174857833Y-147658667D01*
X175018955Y-147693636D01*
X175068606Y-147831327D01*
X175069500Y-147870333D01*
X175034530Y-148031455D01*
X174896840Y-148081106D01*
X174857833Y-148082000D01*
X174696711Y-148047031D01*
X174647060Y-147909340D01*
X174646167Y-147870333D01*
X174140625Y-147870333D01*
X174138167Y-147912667D01*
X174159146Y-148092575D01*
X174258106Y-148158885D01*
X174392167Y-148166667D01*
X174573693Y-148189448D01*
X174640101Y-148286288D01*
X174646167Y-148378333D01*
X174618829Y-148529606D01*
X174502621Y-148584945D01*
X174392167Y-148590000D01*
X174212258Y-148610979D01*
X174145948Y-148709940D01*
X174138167Y-148844000D01*
X174646167Y-148844000D01*
X174668948Y-148662473D01*
X174765788Y-148596066D01*
X174857833Y-148590000D01*
X175009105Y-148617338D01*
X175064445Y-148733546D01*
X175069500Y-148844000D01*
X175046719Y-149025527D01*
X174949879Y-149091934D01*
X174857833Y-149098000D01*
X174706561Y-149070663D01*
X174651221Y-148954455D01*
X174646167Y-148844000D01*
X174138167Y-148844000D01*
X174159146Y-149023908D01*
X174258106Y-149090219D01*
X174392167Y-149098000D01*
X174572075Y-149118979D01*
X174638385Y-149217940D01*
X174646167Y-149352000D01*
X174665912Y-149521333D01*
X175577500Y-149521333D01*
X175577500Y-143086667D01*
X176085500Y-143086667D01*
X176085500Y-148505333D01*
X176847500Y-148505333D01*
X176847500Y-143425333D01*
X177440167Y-143425333D01*
X177440167Y-145542000D01*
X177962666Y-145542000D01*
X178266951Y-145548748D01*
X178486303Y-145584843D01*
X178634601Y-145674064D01*
X178725723Y-145840192D01*
X178750280Y-145977198D01*
X179387500Y-145977198D01*
X179387984Y-145316384D01*
X179390539Y-144803733D01*
X179396818Y-144418077D01*
X179408477Y-144138246D01*
X179427170Y-143943072D01*
X179454549Y-143811385D01*
X179492271Y-143722017D01*
X179541988Y-143653797D01*
X179571592Y-143621290D01*
X179695121Y-143515038D01*
X179847805Y-143455442D01*
X180079887Y-143429843D01*
X180349302Y-143425333D01*
X182009647Y-143425333D01*
X182689500Y-143425333D01*
X182689500Y-145542000D01*
X183366833Y-145542000D01*
X183366833Y-143425333D01*
X183959500Y-143425333D01*
X183959500Y-144498167D01*
X183955683Y-144964698D01*
X183941948Y-145292024D01*
X183914872Y-145510152D01*
X183871029Y-145649085D01*
X183819378Y-145725833D01*
X183725727Y-145854850D01*
X183755461Y-145960007D01*
X183819378Y-146035500D01*
X183882748Y-146137693D01*
X183924430Y-146298433D01*
X183948347Y-146549321D01*
X183958424Y-146921959D01*
X183959500Y-147163742D01*
X183957259Y-147586610D01*
X183946541Y-147875009D01*
X183921353Y-148063784D01*
X183875704Y-148187783D01*
X183803600Y-148281850D01*
X183759848Y-148324713D01*
X183646885Y-148415106D01*
X183516533Y-148468587D01*
X183326253Y-148492431D01*
X183033508Y-148493915D01*
X182807348Y-148487638D01*
X182054500Y-148463000D01*
X182032073Y-145944167D01*
X182009647Y-143425333D01*
X180349302Y-143425333D01*
X180687282Y-143434649D01*
X180907563Y-143470521D01*
X181061142Y-143544840D01*
X181138876Y-143609425D01*
X181219568Y-143695120D01*
X181274449Y-143794693D01*
X181308466Y-143940314D01*
X181326567Y-144164155D01*
X181333699Y-144498388D01*
X181334833Y-144883651D01*
X181334833Y-145973784D01*
X180848000Y-145948392D01*
X180573734Y-145929555D01*
X180425713Y-145893324D01*
X180361004Y-145815083D01*
X180336674Y-145670220D01*
X180335122Y-145654361D01*
X180337236Y-145462246D01*
X180415864Y-145378270D01*
X180504456Y-145358028D01*
X180604120Y-145332496D01*
X180662509Y-145266256D01*
X180690583Y-145122128D01*
X180699303Y-144862936D01*
X180699833Y-144695333D01*
X180699833Y-144060333D01*
X180022500Y-144060333D01*
X179999713Y-145944167D01*
X179976927Y-147828000D01*
X180359547Y-147828000D01*
X180595285Y-147819313D01*
X180707218Y-147776551D01*
X180740635Y-147674659D01*
X180742167Y-147616333D01*
X180764307Y-147473192D01*
X180863938Y-147414593D01*
X181038500Y-147404667D01*
X181225266Y-147414064D01*
X181310384Y-147474095D01*
X181333791Y-147632518D01*
X181334833Y-147759043D01*
X181295237Y-148091736D01*
X181163090Y-148316051D01*
X180918354Y-148447537D01*
X180540990Y-148501742D01*
X180373031Y-148505333D01*
X180035051Y-148496018D01*
X179814770Y-148460146D01*
X179661191Y-148385827D01*
X179583457Y-148321242D01*
X179523634Y-148261351D01*
X179477424Y-148193957D01*
X179443069Y-148098038D01*
X179418812Y-147952576D01*
X179402896Y-147736552D01*
X179393563Y-147428946D01*
X179389057Y-147008738D01*
X179387620Y-146454909D01*
X179387500Y-145977198D01*
X178750280Y-145977198D01*
X178773547Y-146107004D01*
X178791952Y-146498279D01*
X178794833Y-146967832D01*
X178792894Y-147433731D01*
X178784198Y-147761800D01*
X178764423Y-147983524D01*
X178729248Y-148130390D01*
X178674354Y-148233882D01*
X178610741Y-148309377D01*
X178507929Y-148402387D01*
X178385368Y-148460352D01*
X178202723Y-148491390D01*
X177919659Y-148503618D01*
X177637075Y-148505333D01*
X176847500Y-148505333D01*
X176085500Y-148505333D01*
X176085500Y-149098000D01*
X178064800Y-149098000D01*
X178711097Y-149096462D01*
X179208125Y-149091035D01*
X179575925Y-149080496D01*
X179834539Y-149063626D01*
X180004011Y-149039203D01*
X180104382Y-149006006D01*
X180149500Y-148971000D01*
X180341192Y-148854782D01*
X180577116Y-148891096D01*
X180704818Y-148968307D01*
X180788775Y-149009563D01*
X180931114Y-149041121D01*
X181151986Y-149064182D01*
X181471543Y-149079946D01*
X181909937Y-149089612D01*
X182487319Y-149094380D01*
X182837667Y-149095307D01*
X184806167Y-149098000D01*
X184806167Y-143086667D01*
X185229500Y-143086667D01*
X185229500Y-144018000D01*
X185737500Y-144018000D01*
X185760281Y-143836473D01*
X185857121Y-143770066D01*
X185949167Y-143764000D01*
X186100439Y-143791338D01*
X186155778Y-143907546D01*
X186160833Y-144018000D01*
X186138052Y-144199527D01*
X186041212Y-144265934D01*
X185949167Y-144272000D01*
X185797894Y-144244663D01*
X185742555Y-144128455D01*
X185737500Y-144018000D01*
X185229500Y-144018000D01*
X185229500Y-144991667D01*
X185737500Y-144991667D01*
X185772469Y-144830545D01*
X185910160Y-144780894D01*
X185949167Y-144780000D01*
X186110288Y-144814970D01*
X186159939Y-144952660D01*
X186160833Y-144991667D01*
X186125864Y-145152789D01*
X185988173Y-145202440D01*
X185949167Y-145203333D01*
X185788045Y-145168364D01*
X185738394Y-145030674D01*
X185737500Y-144991667D01*
X185229500Y-144991667D01*
X185229500Y-145965333D01*
X185737500Y-145965333D01*
X185760281Y-145783807D01*
X185857121Y-145717399D01*
X185949167Y-145711333D01*
X186100439Y-145738671D01*
X186155778Y-145854879D01*
X186160833Y-145965333D01*
X186138052Y-146146860D01*
X186041212Y-146213268D01*
X185949167Y-146219333D01*
X185797894Y-146191996D01*
X185742555Y-146075788D01*
X185737500Y-145965333D01*
X185229500Y-145965333D01*
X185229500Y-146939000D01*
X185737500Y-146939000D01*
X185772469Y-146777878D01*
X185910160Y-146728227D01*
X185949167Y-146727333D01*
X186110288Y-146762303D01*
X186159939Y-146899993D01*
X186160833Y-146939000D01*
X186125864Y-147100122D01*
X185988173Y-147149773D01*
X185949167Y-147150667D01*
X185788045Y-147115697D01*
X185738394Y-146978007D01*
X185737500Y-146939000D01*
X185229500Y-146939000D01*
X185229500Y-147870333D01*
X185737500Y-147870333D01*
X185772469Y-147709212D01*
X185910160Y-147659561D01*
X185949167Y-147658667D01*
X186110288Y-147693636D01*
X186159939Y-147831327D01*
X186160833Y-147870333D01*
X186125864Y-148031455D01*
X185988173Y-148081106D01*
X185949167Y-148082000D01*
X185788045Y-148047031D01*
X185738394Y-147909340D01*
X185737500Y-147870333D01*
X185229500Y-147870333D01*
X185229500Y-148844000D01*
X185737500Y-148844000D01*
X185760281Y-148662473D01*
X185857121Y-148596066D01*
X185949167Y-148590000D01*
X186100439Y-148617338D01*
X186155778Y-148733546D01*
X186160833Y-148844000D01*
X186138052Y-149025527D01*
X186041212Y-149091934D01*
X185949167Y-149098000D01*
X185797894Y-149070663D01*
X185742555Y-148954455D01*
X185737500Y-148844000D01*
X185229500Y-148844000D01*
X185229500Y-149521333D01*
X183038533Y-149521333D01*
X182356252Y-149522658D01*
X181824249Y-149527333D01*
X181423489Y-149536413D01*
X181134933Y-149550949D01*
X180939544Y-149571994D01*
X180818282Y-149600602D01*
X180752111Y-149637825D01*
X180742167Y-149648333D01*
X180582713Y-149743929D01*
X180403500Y-149775333D01*
X180191715Y-149731715D01*
X180064833Y-149648333D01*
X180009214Y-149608849D01*
X179903148Y-149578236D01*
X179727599Y-149555442D01*
X179463528Y-149539415D01*
X179091898Y-149529102D01*
X178593671Y-149523449D01*
X177949808Y-149521404D01*
X177768466Y-149521333D01*
X175577500Y-149521333D01*
X174665912Y-149521333D01*
X174667146Y-149531908D01*
X174766106Y-149598219D01*
X174900167Y-149606000D01*
X175088550Y-149646557D01*
X175150636Y-149772222D01*
X175085701Y-149987000D01*
X175831500Y-149987000D01*
X175873833Y-149944667D01*
X175916167Y-149987000D01*
X175873833Y-150029333D01*
X175831500Y-149987000D01*
X175085701Y-149987000D01*
X175085101Y-149988984D01*
X174890621Y-150302834D01*
X174697587Y-150557103D01*
X176271915Y-150557103D01*
X176307512Y-150555244D01*
X176442999Y-150638835D01*
X176665684Y-150803637D01*
X176814197Y-150922031D01*
X177137479Y-151167547D01*
X177493372Y-151411265D01*
X177744334Y-151565113D01*
X178029601Y-151732800D01*
X178173804Y-151833359D01*
X178173879Y-151863709D01*
X178026764Y-151820770D01*
X177981929Y-151804075D01*
X177738883Y-151682613D01*
X177414566Y-151481348D01*
X177055366Y-151231726D01*
X176707671Y-150965195D01*
X176551167Y-150834141D01*
X176348903Y-150648655D01*
X176271915Y-150557103D01*
X174697587Y-150557103D01*
X174686769Y-150571352D01*
X174483113Y-150834795D01*
X174332999Y-151045083D01*
X174258481Y-151170538D01*
X174255489Y-151190878D01*
X174343453Y-151175022D01*
X174534358Y-151097530D01*
X174719600Y-151008693D01*
X174970415Y-150889295D01*
X175165386Y-150810346D01*
X175240354Y-150791333D01*
X175235247Y-150855030D01*
X175147247Y-151026495D01*
X174992696Y-151276291D01*
X174869521Y-151459184D01*
X174545828Y-151926447D01*
X176254438Y-151926447D01*
X176283161Y-151704275D01*
X176412946Y-151525003D01*
X176609906Y-151416547D01*
X176840152Y-151406822D01*
X177069796Y-151523743D01*
X177101500Y-151553333D01*
X177245840Y-151759144D01*
X177236801Y-151958001D01*
X177072142Y-152182890D01*
X177057757Y-152197440D01*
X176815863Y-152348059D01*
X176573361Y-152333816D01*
X176360667Y-152163602D01*
X176254438Y-151926447D01*
X174545828Y-151926447D01*
X174406871Y-152127035D01*
X174674686Y-152376349D01*
X174980817Y-152643615D01*
X175336755Y-152926382D01*
X175716029Y-153206866D01*
X176092169Y-153467280D01*
X176438704Y-153689842D01*
X176729164Y-153856765D01*
X176937079Y-153950265D01*
X177029507Y-153958501D01*
X177094263Y-153883024D01*
X177049613Y-153787253D01*
X176880427Y-153655042D01*
X176572333Y-153470674D01*
X176292749Y-153298890D01*
X175967695Y-153077477D01*
X175625793Y-152828735D01*
X175295665Y-152574966D01*
X175005935Y-152338472D01*
X174785224Y-152141552D01*
X174662155Y-152006509D01*
X174646167Y-151969909D01*
X174704201Y-151973862D01*
X174856948Y-152069737D01*
X175072369Y-152237168D01*
X175090667Y-152252469D01*
X175442483Y-152535228D01*
X175827007Y-152822989D01*
X176215511Y-153096609D01*
X176579268Y-153336948D01*
X176889549Y-153524863D01*
X177117628Y-153641214D01*
X177218090Y-153670000D01*
X177278740Y-153605303D01*
X177412344Y-153432269D01*
X177596483Y-153182483D01*
X177808740Y-152887529D01*
X178026697Y-152578993D01*
X178227937Y-152288459D01*
X178390042Y-152047511D01*
X178490594Y-151887736D01*
X178510363Y-151849281D01*
X178462239Y-151760438D01*
X178300368Y-151617334D01*
X178058354Y-151449150D01*
X178027168Y-151429683D01*
X177714727Y-151226693D01*
X177335603Y-150965671D01*
X176956499Y-150692899D01*
X176837575Y-150604282D01*
X176443498Y-150292162D01*
X176179680Y-150049024D01*
X176050360Y-149879838D01*
X176059782Y-149789571D01*
X176129851Y-149775334D01*
X176221984Y-149812519D01*
X176216895Y-149852888D01*
X176234164Y-149902333D01*
X176339500Y-149902333D01*
X176381833Y-149860000D01*
X176424167Y-149902333D01*
X184382833Y-149902333D01*
X184425167Y-149860000D01*
X184467500Y-149902333D01*
X184425167Y-149944667D01*
X184382833Y-149902333D01*
X176424167Y-149902333D01*
X176381833Y-149944667D01*
X176339500Y-149902333D01*
X176234164Y-149902333D01*
X176249223Y-149945450D01*
X176284258Y-149987000D01*
X176508833Y-149987000D01*
X176551167Y-149944667D01*
X176593500Y-149987000D01*
X184213500Y-149987000D01*
X184255833Y-149944667D01*
X184298167Y-149987000D01*
X184255833Y-150029333D01*
X184213500Y-149987000D01*
X176593500Y-149987000D01*
X176551167Y-150029333D01*
X176508833Y-149987000D01*
X176284258Y-149987000D01*
X176355650Y-150071667D01*
X176678167Y-150071667D01*
X176720500Y-150029333D01*
X176762833Y-150071667D01*
X176720500Y-150114000D01*
X176678167Y-150071667D01*
X176355650Y-150071667D01*
X176382680Y-150103723D01*
X176399521Y-150119513D01*
X176868258Y-150119513D01*
X176879840Y-150114000D01*
X176957105Y-150173604D01*
X176974500Y-150198667D01*
X176996075Y-150277821D01*
X176984493Y-150283333D01*
X176907228Y-150223730D01*
X176889833Y-150198667D01*
X176868258Y-150119513D01*
X176399521Y-150119513D01*
X176529399Y-150241282D01*
X176790988Y-150452073D01*
X176827062Y-150478732D01*
X177124299Y-150478732D01*
X177146136Y-150366927D01*
X177232152Y-150221256D01*
X177338127Y-150101408D01*
X177419843Y-150067070D01*
X177425948Y-150071559D01*
X177424894Y-150077436D01*
X177804129Y-150077436D01*
X177837938Y-150037410D01*
X178014168Y-150029348D01*
X178032833Y-150029333D01*
X178220174Y-150036073D01*
X178263309Y-150072991D01*
X178187287Y-150165136D01*
X178177976Y-150174476D01*
X178057741Y-150272570D01*
X177961501Y-150243691D01*
X177887690Y-150174476D01*
X177804129Y-150077436D01*
X177424894Y-150077436D01*
X177410188Y-150159363D01*
X177322064Y-150323671D01*
X177309948Y-150342462D01*
X177200103Y-150472844D01*
X177129526Y-150489042D01*
X177124299Y-150478732D01*
X176827062Y-150478732D01*
X176906358Y-150537333D01*
X177609500Y-150537333D01*
X177638387Y-150454868D01*
X177646836Y-150452667D01*
X177719122Y-150511996D01*
X177736500Y-150537333D01*
X177729787Y-150615352D01*
X177699163Y-150622000D01*
X177612945Y-150560540D01*
X177609500Y-150537333D01*
X176906358Y-150537333D01*
X177117312Y-150693229D01*
X177478835Y-150945495D01*
X177756351Y-151130000D01*
X178302922Y-151130000D01*
X178384580Y-151185641D01*
X178498500Y-151299333D01*
X178596277Y-151421984D01*
X178609411Y-151468667D01*
X178527753Y-151413026D01*
X178413833Y-151299333D01*
X178316056Y-151176683D01*
X178302922Y-151130000D01*
X177756351Y-151130000D01*
X177846022Y-151189617D01*
X178189336Y-151406341D01*
X178479244Y-151576412D01*
X178686209Y-151680577D01*
X178772384Y-151703489D01*
X178907890Y-151738803D01*
X178941272Y-151786167D01*
X178908341Y-151877628D01*
X178848039Y-151892000D01*
X178760393Y-151956836D01*
X178601315Y-152130494D01*
X178394488Y-152381702D01*
X178163597Y-152679186D01*
X177932324Y-152991675D01*
X177724354Y-153287895D01*
X177563370Y-153536574D01*
X177473056Y-153706438D01*
X177472152Y-153708769D01*
X177460158Y-153822285D01*
X177531693Y-153819132D01*
X177649452Y-153701266D01*
X177650822Y-153699399D01*
X177780145Y-153610360D01*
X177893208Y-153665223D01*
X177947957Y-153840531D01*
X177948612Y-153865497D01*
X177958320Y-153972495D01*
X178003027Y-153953815D01*
X178107312Y-153798931D01*
X178108525Y-153797000D01*
X178207269Y-153618846D01*
X178210360Y-153516116D01*
X178137940Y-153439879D01*
X177992160Y-153377688D01*
X177922612Y-153389461D01*
X177878347Y-153386722D01*
X177897890Y-153344186D01*
X177993382Y-153289096D01*
X178131728Y-153338948D01*
X178320345Y-153384399D01*
X178389679Y-153347021D01*
X178395527Y-153256422D01*
X178300493Y-153166918D01*
X178168295Y-153119358D01*
X178072725Y-153143812D01*
X178045135Y-153143510D01*
X178066731Y-153098271D01*
X178162517Y-153035690D01*
X178293721Y-153081020D01*
X178457001Y-153133006D01*
X178536327Y-153122452D01*
X178608830Y-153040759D01*
X178751062Y-152855601D01*
X178936989Y-152603165D01*
X179140575Y-152319638D01*
X179335785Y-152041209D01*
X179496584Y-151804065D01*
X179585325Y-151664406D01*
X179548157Y-151565944D01*
X179368407Y-151402454D01*
X179055878Y-151182754D01*
X179034004Y-151168551D01*
X178680085Y-150942384D01*
X178441537Y-150801469D01*
X178292956Y-150736949D01*
X178208938Y-150739968D01*
X178164079Y-150801670D01*
X178146439Y-150859147D01*
X178079283Y-150982885D01*
X177976185Y-151082135D01*
X177888422Y-151117128D01*
X177863500Y-151078579D01*
X177911489Y-150991256D01*
X178034546Y-150816373D01*
X178201302Y-150594349D01*
X178380391Y-150365603D01*
X178540444Y-150170553D01*
X178650094Y-150049618D01*
X178677778Y-150029334D01*
X178682642Y-150085997D01*
X178657901Y-150128000D01*
X179003965Y-150128000D01*
X179011983Y-150105128D01*
X179117288Y-150043134D01*
X179266694Y-150033935D01*
X179374875Y-150076651D01*
X179387500Y-150109003D01*
X179326399Y-150224712D01*
X179310474Y-150236278D01*
X179184534Y-150254607D01*
X179057372Y-150207533D01*
X179003965Y-150128000D01*
X178657901Y-150128000D01*
X178598568Y-150228730D01*
X178477328Y-150383832D01*
X178419259Y-150495000D01*
X178879500Y-150495000D01*
X178921833Y-150452667D01*
X178964167Y-150495000D01*
X178921833Y-150537333D01*
X178879500Y-150495000D01*
X178419259Y-150495000D01*
X178400752Y-150530430D01*
X178407200Y-150611267D01*
X178504612Y-150700766D01*
X178705879Y-150848951D01*
X178806117Y-150917267D01*
X179104205Y-150917267D01*
X179117527Y-150844492D01*
X179376728Y-150508601D01*
X179585247Y-150251266D01*
X179731391Y-150085411D01*
X179803468Y-150023959D01*
X179791785Y-150071667D01*
X181065671Y-150071667D01*
X181122988Y-150135167D01*
X181440667Y-150135167D01*
X181482344Y-150052834D01*
X181631167Y-150029333D01*
X181796010Y-150061734D01*
X181821667Y-150135167D01*
X181718487Y-150224934D01*
X181631167Y-150241000D01*
X181482859Y-150191052D01*
X181440667Y-150135167D01*
X181122988Y-150135167D01*
X181333152Y-150368000D01*
X181451946Y-150509111D01*
X181871055Y-150509111D01*
X181882678Y-150458777D01*
X181927500Y-150452667D01*
X181997190Y-150483645D01*
X181983944Y-150509111D01*
X181883465Y-150519244D01*
X181871055Y-150509111D01*
X181451946Y-150509111D01*
X181515985Y-150585180D01*
X181658299Y-150779599D01*
X181690869Y-150833667D01*
X181735404Y-150939273D01*
X181713006Y-150939315D01*
X181606847Y-150940181D01*
X181468704Y-151023982D01*
X181348508Y-151122743D01*
X181350287Y-151105393D01*
X181439782Y-150997311D01*
X181518784Y-150887617D01*
X181528437Y-150786424D01*
X181458242Y-150642784D01*
X181326368Y-150446977D01*
X181065671Y-150071667D01*
X179791785Y-150071667D01*
X179789784Y-150079834D01*
X179759289Y-150135167D01*
X179671813Y-150264054D01*
X179524918Y-150462513D01*
X179461473Y-150545081D01*
X179316935Y-150761636D01*
X179290942Y-150896975D01*
X179318543Y-150942510D01*
X179350217Y-151003238D01*
X179238709Y-150990533D01*
X179228578Y-150987922D01*
X179104205Y-150917267D01*
X178806117Y-150917267D01*
X178969086Y-151028335D01*
X179252322Y-151211428D01*
X179513675Y-151370743D01*
X179711233Y-151478791D01*
X179766508Y-151502779D01*
X179861235Y-151526445D01*
X179850499Y-151476981D01*
X179728514Y-151330120D01*
X179724175Y-151325201D01*
X179514500Y-151087667D01*
X179747333Y-151292925D01*
X179898768Y-151457483D01*
X179974543Y-151599824D01*
X179962394Y-151682695D01*
X179874333Y-151678751D01*
X179789398Y-151728112D01*
X179639788Y-151886153D01*
X179449881Y-152119153D01*
X179244058Y-152393392D01*
X179046697Y-152675149D01*
X178882176Y-152930703D01*
X178774875Y-153126333D01*
X178749174Y-153228318D01*
X178751622Y-153231678D01*
X178829770Y-153214850D01*
X178895742Y-153129970D01*
X178988195Y-153038792D01*
X179065249Y-153098849D01*
X179116563Y-153292119D01*
X179132203Y-153542096D01*
X179133500Y-153879859D01*
X179529834Y-153289064D01*
X179687216Y-153053708D01*
X179803764Y-152896776D01*
X179889769Y-152831515D01*
X179955523Y-152871171D01*
X180011318Y-153028992D01*
X180067447Y-153318226D01*
X180134200Y-153752119D01*
X180191539Y-154140772D01*
X180254657Y-154543622D01*
X180315190Y-154890000D01*
X180366204Y-155142625D01*
X180400380Y-155263499D01*
X180432048Y-155223521D01*
G36*
X184115674Y-153850566D02*
G01*
X184463818Y-153650778D01*
X184929356Y-153338227D01*
X185356500Y-153029479D01*
X185790522Y-152692313D01*
X186113162Y-152406748D01*
X186314755Y-152182789D01*
X186385635Y-152030439D01*
X186367708Y-151982917D01*
X186265539Y-151996165D01*
X186072218Y-152123194D01*
X185822167Y-152337740D01*
X185600116Y-152526085D01*
X185294541Y-152761959D01*
X184941129Y-153020407D01*
X184575564Y-153276475D01*
X184233534Y-153505208D01*
X183950724Y-153681652D01*
X183762820Y-153780854D01*
X183752879Y-153784735D01*
X183712002Y-153853955D01*
X183758032Y-153919383D01*
X183881539Y-153939473D01*
X184115674Y-153850566D01*
G37*
X184115674Y-153850566D02*
X184463818Y-153650778D01*
X184929356Y-153338227D01*
X185356500Y-153029479D01*
X185790522Y-152692313D01*
X186113162Y-152406748D01*
X186314755Y-152182789D01*
X186385635Y-152030439D01*
X186367708Y-151982917D01*
X186265539Y-151996165D01*
X186072218Y-152123194D01*
X185822167Y-152337740D01*
X185600116Y-152526085D01*
X185294541Y-152761959D01*
X184941129Y-153020407D01*
X184575564Y-153276475D01*
X184233534Y-153505208D01*
X183950724Y-153681652D01*
X183762820Y-153780854D01*
X183752879Y-153784735D01*
X183712002Y-153853955D01*
X183758032Y-153919383D01*
X183881539Y-153939473D01*
X184115674Y-153850566D01*
G36*
X175623120Y-154367990D02*
G01*
X175649568Y-154354076D01*
X175835741Y-154218638D01*
X175910250Y-154142796D01*
X175995517Y-154070331D01*
X176107254Y-154073897D01*
X176300466Y-154158272D01*
X176344413Y-154180507D01*
X176604208Y-154302472D01*
X176757738Y-154338411D01*
X176842655Y-154291528D01*
X176876041Y-154225744D01*
X176836340Y-154111266D01*
X176641907Y-153953743D01*
X176442300Y-153833034D01*
X175803752Y-153432550D01*
X175158741Y-152957990D01*
X174668427Y-152541497D01*
X174462026Y-152361173D01*
X174341676Y-152289271D01*
X174276445Y-152311781D01*
X174254793Y-152354169D01*
X174282179Y-152499436D01*
X174427733Y-152714173D01*
X174668638Y-152974058D01*
X174982076Y-153254771D01*
X175345232Y-153531988D01*
X175387042Y-153561092D01*
X175831585Y-153867538D01*
X175663813Y-154151889D01*
X175563454Y-154330042D01*
X175550553Y-154392661D01*
X175623120Y-154367990D01*
G37*
X175623120Y-154367990D02*
X175649568Y-154354076D01*
X175835741Y-154218638D01*
X175910250Y-154142796D01*
X175995517Y-154070331D01*
X176107254Y-154073897D01*
X176300466Y-154158272D01*
X176344413Y-154180507D01*
X176604208Y-154302472D01*
X176757738Y-154338411D01*
X176842655Y-154291528D01*
X176876041Y-154225744D01*
X176836340Y-154111266D01*
X176641907Y-153953743D01*
X176442300Y-153833034D01*
X175803752Y-153432550D01*
X175158741Y-152957990D01*
X174668427Y-152541497D01*
X174462026Y-152361173D01*
X174341676Y-152289271D01*
X174276445Y-152311781D01*
X174254793Y-152354169D01*
X174282179Y-152499436D01*
X174427733Y-152714173D01*
X174668638Y-152974058D01*
X174982076Y-153254771D01*
X175345232Y-153531988D01*
X175387042Y-153561092D01*
X175831585Y-153867538D01*
X175663813Y-154151889D01*
X175563454Y-154330042D01*
X175550553Y-154392661D01*
X175623120Y-154367990D01*
G36*
X185213268Y-154225906D02*
G01*
X185006469Y-153892811D01*
X185667514Y-153394699D01*
X186068688Y-153079715D01*
X186342120Y-152831412D01*
X186505676Y-152630034D01*
X186577226Y-152455825D01*
X186584167Y-152381161D01*
X186570892Y-152278172D01*
X186517473Y-152251845D01*
X186403518Y-152312844D01*
X186208638Y-152471834D01*
X185930085Y-152723247D01*
X185614968Y-152989103D01*
X185219056Y-153289298D01*
X184808741Y-153574446D01*
X184639611Y-153683128D01*
X184297456Y-153901691D01*
X184084445Y-154054288D01*
X183981920Y-154157584D01*
X183971221Y-154228243D01*
X183996074Y-154257888D01*
X184109889Y-154303493D01*
X184278638Y-154265339D01*
X184471111Y-154176158D01*
X184826294Y-153994957D01*
X185123180Y-154276979D01*
X185420066Y-154559000D01*
X185213268Y-154225906D01*
G37*
X185213268Y-154225906D02*
X185006469Y-153892811D01*
X185667514Y-153394699D01*
X186068688Y-153079715D01*
X186342120Y-152831412D01*
X186505676Y-152630034D01*
X186577226Y-152455825D01*
X186584167Y-152381161D01*
X186570892Y-152278172D01*
X186517473Y-152251845D01*
X186403518Y-152312844D01*
X186208638Y-152471834D01*
X185930085Y-152723247D01*
X185614968Y-152989103D01*
X185219056Y-153289298D01*
X184808741Y-153574446D01*
X184639611Y-153683128D01*
X184297456Y-153901691D01*
X184084445Y-154054288D01*
X183981920Y-154157584D01*
X183971221Y-154228243D01*
X183996074Y-154257888D01*
X184109889Y-154303493D01*
X184278638Y-154265339D01*
X184471111Y-154176158D01*
X184826294Y-153994957D01*
X185123180Y-154276979D01*
X185420066Y-154559000D01*
X185213268Y-154225906D01*
G36*
X178707706Y-153436238D02*
G01*
X178710167Y-153416000D01*
X178645737Y-153333794D01*
X178625500Y-153331333D01*
X178543293Y-153395763D01*
X178540833Y-153416000D01*
X178605262Y-153498207D01*
X178625500Y-153500667D01*
X178707706Y-153436238D01*
G37*
X178707706Y-153436238D02*
X178710167Y-153416000D01*
X178645737Y-153333794D01*
X178625500Y-153331333D01*
X178543293Y-153395763D01*
X178540833Y-153416000D01*
X178605262Y-153498207D01*
X178625500Y-153500667D01*
X178707706Y-153436238D01*
G36*
X182322063Y-153448501D02*
G01*
X182308500Y-153416000D01*
X182196341Y-153334494D01*
X182171506Y-153331333D01*
X182125603Y-153383499D01*
X182139167Y-153416000D01*
X182251326Y-153497506D01*
X182276160Y-153500667D01*
X182322063Y-153448501D01*
G37*
X182322063Y-153448501D02*
X182308500Y-153416000D01*
X182196341Y-153334494D01*
X182171506Y-153331333D01*
X182125603Y-153383499D01*
X182139167Y-153416000D01*
X182251326Y-153497506D01*
X182276160Y-153500667D01*
X182322063Y-153448501D01*
G36*
X178515292Y-153736785D02*
G01*
X178540833Y-153665003D01*
X178487561Y-153590464D01*
X178380445Y-153616961D01*
X178325685Y-153675633D01*
X178302820Y-153789654D01*
X178315055Y-153811111D01*
X178414083Y-153817495D01*
X178515292Y-153736785D01*
G37*
X178515292Y-153736785D02*
X178540833Y-153665003D01*
X178487561Y-153590464D01*
X178380445Y-153616961D01*
X178325685Y-153675633D01*
X178302820Y-153789654D01*
X178315055Y-153811111D01*
X178414083Y-153817495D01*
X178515292Y-153736785D01*
G36*
X182500188Y-153710674D02*
G01*
X182414753Y-153612930D01*
X182335469Y-153585333D01*
X182301340Y-153633709D01*
X182352531Y-153714380D01*
X182456062Y-153803136D01*
X182498376Y-153804679D01*
X182500188Y-153710674D01*
G37*
X182500188Y-153710674D02*
X182414753Y-153612930D01*
X182335469Y-153585333D01*
X182301340Y-153633709D01*
X182352531Y-153714380D01*
X182456062Y-153803136D01*
X182498376Y-153804679D01*
X182500188Y-153710674D01*
G36*
X183608322Y-153991473D02*
G01*
X183561245Y-153915212D01*
X183455147Y-153873535D01*
X183417342Y-153910773D01*
X183424827Y-154025457D01*
X183455752Y-154053628D01*
X183575950Y-154073375D01*
X183608322Y-153991473D01*
G37*
X183608322Y-153991473D02*
X183561245Y-153915212D01*
X183455147Y-153873535D01*
X183417342Y-153910773D01*
X183424827Y-154025457D01*
X183455752Y-154053628D01*
X183575950Y-154073375D01*
X183608322Y-153991473D01*
G36*
X177424012Y-154049129D02*
G01*
X177440167Y-154008667D01*
X177379399Y-153926424D01*
X177360497Y-153924000D01*
X177245829Y-153985544D01*
X177228500Y-154008667D01*
X177247694Y-154081150D01*
X177308170Y-154093333D01*
X177424012Y-154049129D01*
G37*
X177424012Y-154049129D02*
X177440167Y-154008667D01*
X177379399Y-153926424D01*
X177360497Y-153924000D01*
X177245829Y-153985544D01*
X177228500Y-154008667D01*
X177247694Y-154081150D01*
X177308170Y-154093333D01*
X177424012Y-154049129D01*
G36*
X177179797Y-154363525D02*
G01*
X177216784Y-154305000D01*
X177223472Y-154195732D01*
X177193876Y-154178000D01*
X177085898Y-154235812D01*
X177016833Y-154305000D01*
X176956692Y-154405462D01*
X177030214Y-154431929D01*
X177039741Y-154432000D01*
X177179797Y-154363525D01*
G37*
X177179797Y-154363525D02*
X177216784Y-154305000D01*
X177223472Y-154195732D01*
X177193876Y-154178000D01*
X177085898Y-154235812D01*
X177016833Y-154305000D01*
X176956692Y-154405462D01*
X177030214Y-154431929D01*
X177039741Y-154432000D01*
X177179797Y-154363525D01*
G36*
X183838097Y-154386165D02*
G01*
X183823499Y-154312075D01*
X183744995Y-154205702D01*
X183660906Y-154181422D01*
X183632991Y-154250534D01*
X183640236Y-154278542D01*
X183743856Y-154398628D01*
X183774349Y-154412617D01*
X183838097Y-154386165D01*
G37*
X183838097Y-154386165D02*
X183823499Y-154312075D01*
X183744995Y-154205702D01*
X183660906Y-154181422D01*
X183632991Y-154250534D01*
X183640236Y-154278542D01*
X183743856Y-154398628D01*
X183774349Y-154412617D01*
X183838097Y-154386165D01*
G36*
X180653725Y-139465004D02*
G01*
X180628283Y-139322652D01*
X180510606Y-139208357D01*
X180435368Y-139192000D01*
X180344319Y-139205126D01*
X180368350Y-139271553D01*
X180446303Y-139361853D01*
X180586197Y-139480228D01*
X180653725Y-139465004D01*
G37*
X180653725Y-139465004D02*
X180628283Y-139322652D01*
X180510606Y-139208357D01*
X180435368Y-139192000D01*
X180344319Y-139205126D01*
X180368350Y-139271553D01*
X180446303Y-139361853D01*
X180586197Y-139480228D01*
X180653725Y-139465004D01*
G36*
X180554678Y-139657341D02*
G01*
X180453645Y-139539299D01*
X180288149Y-139393622D01*
X180184050Y-139376387D01*
X180161998Y-139489727D01*
X180165323Y-139509500D01*
X180262756Y-139634566D01*
X180404132Y-139687465D01*
X180547795Y-139701142D01*
X180554678Y-139657341D01*
G37*
X180554678Y-139657341D02*
X180453645Y-139539299D01*
X180288149Y-139393622D01*
X180184050Y-139376387D01*
X180161998Y-139489727D01*
X180165323Y-139509500D01*
X180262756Y-139634566D01*
X180404132Y-139687465D01*
X180547795Y-139701142D01*
X180554678Y-139657341D01*
G36*
X177609500Y-141266333D02*
G01*
X177567167Y-141224000D01*
X177524833Y-141266333D01*
X177567167Y-141308667D01*
X177609500Y-141266333D01*
G37*
X177609500Y-141266333D02*
X177567167Y-141224000D01*
X177524833Y-141266333D01*
X177567167Y-141308667D01*
X177609500Y-141266333D01*
G36*
X178285862Y-141243161D02*
G01*
X178286833Y-141224000D01*
X178221745Y-141142587D01*
X178197170Y-141139333D01*
X178146604Y-141191203D01*
X178159833Y-141224000D01*
X178235915Y-141304771D01*
X178249497Y-141308667D01*
X178285862Y-141243161D01*
G37*
X178285862Y-141243161D02*
X178286833Y-141224000D01*
X178221745Y-141142587D01*
X178197170Y-141139333D01*
X178146604Y-141191203D01*
X178159833Y-141224000D01*
X178235915Y-141304771D01*
X178249497Y-141308667D01*
X178285862Y-141243161D01*
G36*
X182519196Y-141243161D02*
G01*
X182520167Y-141224000D01*
X182455079Y-141142587D01*
X182430503Y-141139333D01*
X182379937Y-141191203D01*
X182393167Y-141224000D01*
X182469249Y-141304771D01*
X182482830Y-141308667D01*
X182519196Y-141243161D01*
G37*
X182519196Y-141243161D02*
X182520167Y-141224000D01*
X182455079Y-141142587D01*
X182430503Y-141139333D01*
X182379937Y-141191203D01*
X182393167Y-141224000D01*
X182469249Y-141304771D01*
X182482830Y-141308667D01*
X182519196Y-141243161D01*
G36*
X175720003Y-142171208D02*
G01*
X175730097Y-142038885D01*
X175713319Y-142008931D01*
X175674837Y-142034182D01*
X175668851Y-142120056D01*
X175689528Y-142210398D01*
X175720003Y-142171208D01*
G37*
X175720003Y-142171208D02*
X175730097Y-142038885D01*
X175713319Y-142008931D01*
X175674837Y-142034182D01*
X175668851Y-142120056D01*
X175689528Y-142210398D01*
X175720003Y-142171208D01*
G36*
X181221944Y-142211778D02*
G01*
X181210322Y-142161444D01*
X181165500Y-142155333D01*
X181095810Y-142186312D01*
X181109055Y-142211778D01*
X181209535Y-142221911D01*
X181221944Y-142211778D01*
G37*
X181221944Y-142211778D02*
X181210322Y-142161444D01*
X181165500Y-142155333D01*
X181095810Y-142186312D01*
X181109055Y-142211778D01*
X181209535Y-142221911D01*
X181221944Y-142211778D01*
G36*
X182662670Y-142171208D02*
G01*
X182672764Y-142038885D01*
X182655986Y-142008931D01*
X182617504Y-142034182D01*
X182611517Y-142120056D01*
X182632195Y-142210398D01*
X182662670Y-142171208D01*
G37*
X182662670Y-142171208D02*
X182672764Y-142038885D01*
X182655986Y-142008931D01*
X182617504Y-142034182D01*
X182611517Y-142120056D01*
X182632195Y-142210398D01*
X182662670Y-142171208D01*
G36*
X183338611Y-142211778D02*
G01*
X183326989Y-142161444D01*
X183282167Y-142155333D01*
X183212476Y-142186312D01*
X183225722Y-142211778D01*
X183326202Y-142221911D01*
X183338611Y-142211778D01*
G37*
X183338611Y-142211778D02*
X183326989Y-142161444D01*
X183282167Y-142155333D01*
X183212476Y-142186312D01*
X183225722Y-142211778D01*
X183326202Y-142221911D01*
X183338611Y-142211778D01*
G36*
X185793944Y-142211778D02*
G01*
X185782322Y-142161444D01*
X185737500Y-142155333D01*
X185667810Y-142186312D01*
X185681055Y-142211778D01*
X185781535Y-142221911D01*
X185793944Y-142211778D01*
G37*
X185793944Y-142211778D02*
X185782322Y-142161444D01*
X185737500Y-142155333D01*
X185667810Y-142186312D01*
X185681055Y-142211778D01*
X185781535Y-142221911D01*
X185793944Y-142211778D01*
G36*
X175856790Y-148929476D02*
G01*
X175877793Y-148681037D01*
X175894371Y-148272719D01*
X175906384Y-147709224D01*
X175913696Y-146995252D01*
X175916166Y-146135506D01*
X175916167Y-146134667D01*
X175913700Y-145274791D01*
X175906393Y-144560686D01*
X175894384Y-143997053D01*
X175877810Y-143588593D01*
X175856811Y-143340008D01*
X175831525Y-143256000D01*
X175831500Y-143256000D01*
X175806209Y-143339858D01*
X175785206Y-143588296D01*
X175768629Y-143996614D01*
X175756615Y-144560110D01*
X175749304Y-145274082D01*
X175746833Y-146133828D01*
X175746833Y-146134667D01*
X175749300Y-146994542D01*
X175756607Y-147708648D01*
X175768616Y-148272281D01*
X175785189Y-148680741D01*
X175806189Y-148929325D01*
X175831475Y-149013333D01*
X175831500Y-149013333D01*
X175856790Y-148929476D01*
G37*
X175856790Y-148929476D02*
X175877793Y-148681037D01*
X175894371Y-148272719D01*
X175906384Y-147709224D01*
X175913696Y-146995252D01*
X175916166Y-146135506D01*
X175916167Y-146134667D01*
X175913700Y-145274791D01*
X175906393Y-144560686D01*
X175894384Y-143997053D01*
X175877810Y-143588593D01*
X175856811Y-143340008D01*
X175831525Y-143256000D01*
X175831500Y-143256000D01*
X175806209Y-143339858D01*
X175785206Y-143588296D01*
X175768629Y-143996614D01*
X175756615Y-144560110D01*
X175749304Y-145274082D01*
X175746833Y-146133828D01*
X175746833Y-146134667D01*
X175749300Y-146994542D01*
X175756607Y-147708648D01*
X175768616Y-148272281D01*
X175785189Y-148680741D01*
X175806189Y-148929325D01*
X175831475Y-149013333D01*
X175831500Y-149013333D01*
X175856790Y-148929476D01*
G36*
X185001339Y-148904051D02*
G01*
X185022558Y-148669638D01*
X185039105Y-148269566D01*
X185050923Y-147705645D01*
X185057960Y-146979680D01*
X185060167Y-146139664D01*
X185059370Y-145460026D01*
X185057105Y-144837441D01*
X185053564Y-144291331D01*
X185048936Y-143841119D01*
X185043411Y-143506228D01*
X185037179Y-143306081D01*
X185031944Y-143256000D01*
X184955685Y-143304330D01*
X184947278Y-143312445D01*
X184928797Y-143412855D01*
X184913979Y-143657186D01*
X184902702Y-144021142D01*
X184894845Y-144480427D01*
X184890286Y-145010747D01*
X184888905Y-145587804D01*
X184890580Y-146187304D01*
X184895191Y-146784952D01*
X184902616Y-147356451D01*
X184912733Y-147877507D01*
X184925422Y-148323823D01*
X184940562Y-148671105D01*
X184958031Y-148895057D01*
X184975500Y-148971000D01*
X185001339Y-148904051D01*
G37*
X185001339Y-148904051D02*
X185022558Y-148669638D01*
X185039105Y-148269566D01*
X185050923Y-147705645D01*
X185057960Y-146979680D01*
X185060167Y-146139664D01*
X185059370Y-145460026D01*
X185057105Y-144837441D01*
X185053564Y-144291331D01*
X185048936Y-143841119D01*
X185043411Y-143506228D01*
X185037179Y-143306081D01*
X185031944Y-143256000D01*
X184955685Y-143304330D01*
X184947278Y-143312445D01*
X184928797Y-143412855D01*
X184913979Y-143657186D01*
X184902702Y-144021142D01*
X184894845Y-144480427D01*
X184890286Y-145010747D01*
X184888905Y-145587804D01*
X184890580Y-146187304D01*
X184895191Y-146784952D01*
X184902616Y-147356451D01*
X184912733Y-147877507D01*
X184925422Y-148323823D01*
X184940562Y-148671105D01*
X184958031Y-148895057D01*
X184975500Y-148971000D01*
X185001339Y-148904051D01*
G36*
X180653725Y-149371004D02*
G01*
X180628283Y-149228652D01*
X180510606Y-149114357D01*
X180435368Y-149098000D01*
X180344319Y-149111126D01*
X180368350Y-149177553D01*
X180446303Y-149267853D01*
X180586197Y-149386228D01*
X180653725Y-149371004D01*
G37*
X180653725Y-149371004D02*
X180628283Y-149228652D01*
X180510606Y-149114357D01*
X180435368Y-149098000D01*
X180344319Y-149111126D01*
X180368350Y-149177553D01*
X180446303Y-149267853D01*
X180586197Y-149386228D01*
X180653725Y-149371004D01*
G36*
X180464342Y-149573380D02*
G01*
X180451500Y-149481874D01*
X180342581Y-149338206D01*
X180335296Y-149330833D01*
X180206108Y-149217670D01*
X180154849Y-149228386D01*
X180149500Y-149280485D01*
X180199001Y-149424872D01*
X180309957Y-149545871D01*
X180426049Y-149591089D01*
X180464342Y-149573380D01*
G37*
X180464342Y-149573380D02*
X180451500Y-149481874D01*
X180342581Y-149338206D01*
X180335296Y-149330833D01*
X180206108Y-149217670D01*
X180154849Y-149228386D01*
X180149500Y-149280485D01*
X180199001Y-149424872D01*
X180309957Y-149545871D01*
X180426049Y-149591089D01*
X180464342Y-149573380D01*
G36*
X178263219Y-149334823D02*
G01*
X178435000Y-149330513D01*
X178616520Y-149322910D01*
X178639144Y-149316126D01*
X178513308Y-149310473D01*
X178249448Y-149306262D01*
X177858000Y-149303806D01*
X177524833Y-149303297D01*
X177052711Y-149304384D01*
X176701091Y-149307438D01*
X176480410Y-149312146D01*
X176401104Y-149318196D01*
X176473609Y-149325277D01*
X176614667Y-149330513D01*
X177129219Y-149339898D01*
X177712282Y-149341335D01*
X178263219Y-149334823D01*
G37*
X178263219Y-149334823D02*
X178435000Y-149330513D01*
X178616520Y-149322910D01*
X178639144Y-149316126D01*
X178513308Y-149310473D01*
X178249448Y-149306262D01*
X177858000Y-149303806D01*
X177524833Y-149303297D01*
X177052711Y-149304384D01*
X176701091Y-149307438D01*
X176480410Y-149312146D01*
X176401104Y-149318196D01*
X176473609Y-149325277D01*
X176614667Y-149330513D01*
X177129219Y-149339898D01*
X177712282Y-149341335D01*
X178263219Y-149334823D01*
G36*
X184020552Y-149334823D02*
G01*
X184192333Y-149330513D01*
X184373853Y-149322910D01*
X184396477Y-149316126D01*
X184270641Y-149310473D01*
X184006781Y-149306262D01*
X183615333Y-149303806D01*
X183282167Y-149303297D01*
X182810044Y-149304384D01*
X182458425Y-149307438D01*
X182237744Y-149312146D01*
X182158438Y-149318196D01*
X182230942Y-149325277D01*
X182372000Y-149330513D01*
X182886552Y-149339898D01*
X183469615Y-149341335D01*
X184020552Y-149334823D01*
G37*
X184020552Y-149334823D02*
X184192333Y-149330513D01*
X184373853Y-149322910D01*
X184396477Y-149316126D01*
X184270641Y-149310473D01*
X184006781Y-149306262D01*
X183615333Y-149303806D01*
X183282167Y-149303297D01*
X182810044Y-149304384D01*
X182458425Y-149307438D01*
X182237744Y-149312146D01*
X182158438Y-149318196D01*
X182230942Y-149325277D01*
X182372000Y-149330513D01*
X182886552Y-149339898D01*
X183469615Y-149341335D01*
X184020552Y-149334823D01*
G36*
X178202167Y-146219333D02*
G01*
X177440167Y-146219333D01*
X177440167Y-147828000D01*
X178202167Y-147828000D01*
X178202167Y-146219333D01*
G37*
X178202167Y-146219333D02*
X177440167Y-146219333D01*
X177440167Y-147828000D01*
X178202167Y-147828000D01*
X178202167Y-146219333D01*
G36*
X183366833Y-146219333D02*
G01*
X182689500Y-146219333D01*
X182689500Y-147828000D01*
X183366833Y-147828000D01*
X183366833Y-146219333D01*
G37*
X183366833Y-146219333D02*
X182689500Y-146219333D01*
X182689500Y-147828000D01*
X183366833Y-147828000D01*
X183366833Y-146219333D01*
G36*
X176936204Y-152078590D02*
G01*
X177007886Y-151918101D01*
X176960759Y-151737365D01*
X176811750Y-151590228D01*
X176649476Y-151610895D01*
X176561162Y-151682433D01*
X176482738Y-151855381D01*
X176533933Y-152027144D01*
X176686650Y-152134894D01*
X176768469Y-152146000D01*
X176936204Y-152078590D01*
G37*
X176936204Y-152078590D02*
X177007886Y-151918101D01*
X176960759Y-151737365D01*
X176811750Y-151590228D01*
X176649476Y-151610895D01*
X176561162Y-151682433D01*
X176482738Y-151855381D01*
X176533933Y-152027144D01*
X176686650Y-152134894D01*
X176768469Y-152146000D01*
X176936204Y-152078590D01*
G36*
X184173057Y-152104472D02*
G01*
X184325632Y-151989378D01*
X184382833Y-151842279D01*
X184313012Y-151695618D01*
X184150008Y-151620749D01*
X183963513Y-151643137D01*
X183915106Y-151671371D01*
X183814642Y-151826971D01*
X183851392Y-151997699D01*
X184000991Y-152115059D01*
X184173057Y-152104472D01*
G37*
X184173057Y-152104472D02*
X184325632Y-151989378D01*
X184382833Y-151842279D01*
X184313012Y-151695618D01*
X184150008Y-151620749D01*
X183963513Y-151643137D01*
X183915106Y-151671371D01*
X183814642Y-151826971D01*
X183851392Y-151997699D01*
X184000991Y-152115059D01*
X184173057Y-152104472D01*
D12*
X174702800Y-133662052D02*
X174702800Y-133139548D01*
X176172800Y-133662052D02*
X176172800Y-133139548D01*
X173658200Y-133636652D02*
X173658200Y-133114148D01*
X172188200Y-133636652D02*
X172188200Y-133114148D01*
X158234748Y-123925000D02*
X158757252Y-123925000D01*
X158234748Y-122455000D02*
X158757252Y-122455000D01*
X158234748Y-117375000D02*
X158757252Y-117375000D01*
X158234748Y-118845000D02*
X158757252Y-118845000D01*
X175129249Y-99976000D02*
X175651753Y-99976000D01*
X175129249Y-101446000D02*
X175651753Y-101446000D01*
X171266752Y-102389000D02*
X170744248Y-102389000D01*
X171266752Y-103859000D02*
X170744248Y-103859000D01*
X175129249Y-98749999D02*
X175651753Y-98749999D01*
X175129249Y-97279999D02*
X175651753Y-97279999D01*
X171203252Y-97372500D02*
X170680748Y-97372500D01*
X171203252Y-98842500D02*
X170680748Y-98842500D01*
X175125748Y-105056000D02*
X175648252Y-105056000D01*
X175125748Y-106526000D02*
X175648252Y-106526000D01*
X175210748Y-103859000D02*
X175733252Y-103859000D01*
X175210748Y-102389000D02*
X175733252Y-102389000D01*
X171330252Y-101446000D02*
X170807748Y-101446000D01*
X171330252Y-99976000D02*
X170807748Y-99976000D01*
X171330253Y-105127499D02*
X170807749Y-105127499D01*
X171330253Y-106597499D02*
X170807749Y-106597499D01*
X172721600Y-138364800D02*
X172721600Y-139088800D01*
X172721600Y-139088800D02*
X175969600Y-139088800D01*
X175969600Y-139088800D02*
X175969600Y-138364800D01*
X172721600Y-136564800D02*
X172721600Y-135840800D01*
X172721600Y-135840800D02*
X175969600Y-135840800D01*
X175969600Y-135840800D02*
X175969600Y-136564800D01*
D13*
X176760657Y-134043657D02*
X176713038Y-134091276D01*
X176665419Y-134234133D01*
X176665419Y-134329371D01*
X176713038Y-134472228D01*
X176808276Y-134567466D01*
X176903514Y-134615085D01*
X177093990Y-134662704D01*
X177236847Y-134662704D01*
X177427323Y-134615085D01*
X177522561Y-134567466D01*
X177617800Y-134472228D01*
X177665419Y-134329371D01*
X177665419Y-134234133D01*
X177617800Y-134091276D01*
X177570180Y-134043657D01*
X177570180Y-133662704D02*
X177617800Y-133615085D01*
X177665419Y-133519847D01*
X177665419Y-133281752D01*
X177617800Y-133186514D01*
X177570180Y-133138895D01*
X177474942Y-133091276D01*
X177379704Y-133091276D01*
X177236847Y-133138895D01*
X176665419Y-133710323D01*
X176665419Y-133091276D01*
X177665419Y-132757942D02*
X177665419Y-132091276D01*
X176665419Y-132519847D01*
X174246057Y-134018257D02*
X174198438Y-134065876D01*
X174150819Y-134208733D01*
X174150819Y-134303971D01*
X174198438Y-134446828D01*
X174293676Y-134542066D01*
X174388914Y-134589685D01*
X174579390Y-134637304D01*
X174722247Y-134637304D01*
X174912723Y-134589685D01*
X175007961Y-134542066D01*
X175103200Y-134446828D01*
X175150819Y-134303971D01*
X175150819Y-134208733D01*
X175103200Y-134065876D01*
X175055580Y-134018257D01*
X175055580Y-133637304D02*
X175103200Y-133589685D01*
X175150819Y-133494447D01*
X175150819Y-133256352D01*
X175103200Y-133161114D01*
X175055580Y-133113495D01*
X174960342Y-133065876D01*
X174865104Y-133065876D01*
X174722247Y-133113495D01*
X174150819Y-133684923D01*
X174150819Y-133065876D01*
X175150819Y-132208733D02*
X175150819Y-132399209D01*
X175103200Y-132494447D01*
X175055580Y-132542066D01*
X174912723Y-132637304D01*
X174722247Y-132684923D01*
X174341295Y-132684923D01*
X174246057Y-132637304D01*
X174198438Y-132589685D01*
X174150819Y-132494447D01*
X174150819Y-132303971D01*
X174198438Y-132208733D01*
X174246057Y-132161114D01*
X174341295Y-132113495D01*
X174579390Y-132113495D01*
X174674628Y-132161114D01*
X174722247Y-132208733D01*
X174769866Y-132303971D01*
X174769866Y-132494447D01*
X174722247Y-132589685D01*
X174674628Y-132637304D01*
X174579390Y-132684923D01*
X160853142Y-124417619D02*
X160805523Y-124370000D01*
X160710285Y-124322380D01*
X160472190Y-124322380D01*
X160376952Y-124370000D01*
X160329333Y-124417619D01*
X160281714Y-124512857D01*
X160281714Y-124608095D01*
X160329333Y-124750952D01*
X160900761Y-125322380D01*
X160281714Y-125322380D01*
X159853142Y-125227142D02*
X159805523Y-125274761D01*
X159853142Y-125322380D01*
X159900761Y-125274761D01*
X159853142Y-125227142D01*
X159853142Y-125322380D01*
X159424571Y-124417619D02*
X159376952Y-124370000D01*
X159281714Y-124322380D01*
X159043619Y-124322380D01*
X158948380Y-124370000D01*
X158900761Y-124417619D01*
X158853142Y-124512857D01*
X158853142Y-124608095D01*
X158900761Y-124750952D01*
X159472190Y-125322380D01*
X158853142Y-125322380D01*
X157996000Y-124655714D02*
X157996000Y-125322380D01*
X158424571Y-124655714D02*
X158424571Y-125179523D01*
X158376952Y-125274761D01*
X158281714Y-125322380D01*
X158138857Y-125322380D01*
X158043619Y-125274761D01*
X157996000Y-125227142D01*
X157186476Y-124798571D02*
X157519809Y-124798571D01*
X157519809Y-125322380D02*
X157519809Y-124322380D01*
X157043619Y-124322380D01*
X156138857Y-125322380D02*
X156710285Y-125322380D01*
X156424571Y-125322380D02*
X156424571Y-124322380D01*
X156519809Y-124465238D01*
X156615047Y-124560476D01*
X156710285Y-124608095D01*
X160853142Y-119337619D02*
X160805523Y-119290000D01*
X160710285Y-119242380D01*
X160472190Y-119242380D01*
X160376952Y-119290000D01*
X160329333Y-119337619D01*
X160281714Y-119432857D01*
X160281714Y-119528095D01*
X160329333Y-119670952D01*
X160900761Y-120242380D01*
X160281714Y-120242380D01*
X159853142Y-120147142D02*
X159805523Y-120194761D01*
X159853142Y-120242380D01*
X159900761Y-120194761D01*
X159853142Y-120147142D01*
X159853142Y-120242380D01*
X159424571Y-119337619D02*
X159376952Y-119290000D01*
X159281714Y-119242380D01*
X159043619Y-119242380D01*
X158948380Y-119290000D01*
X158900761Y-119337619D01*
X158853142Y-119432857D01*
X158853142Y-119528095D01*
X158900761Y-119670952D01*
X159472190Y-120242380D01*
X158853142Y-120242380D01*
X157996000Y-119575714D02*
X157996000Y-120242380D01*
X158424571Y-119575714D02*
X158424571Y-120099523D01*
X158376952Y-120194761D01*
X158281714Y-120242380D01*
X158138857Y-120242380D01*
X158043619Y-120194761D01*
X157996000Y-120147142D01*
X157186476Y-119718571D02*
X157519809Y-119718571D01*
X157519809Y-120242380D02*
X157519809Y-119242380D01*
X157043619Y-119242380D01*
X156710285Y-119337619D02*
X156662666Y-119290000D01*
X156567428Y-119242380D01*
X156329333Y-119242380D01*
X156234095Y-119290000D01*
X156186476Y-119337619D01*
X156138857Y-119432857D01*
X156138857Y-119528095D01*
X156186476Y-119670952D01*
X156757904Y-120242380D01*
X156138857Y-120242380D01*
X176033358Y-102748142D02*
X176080977Y-102795761D01*
X176223834Y-102843380D01*
X176319072Y-102843380D01*
X176461929Y-102795761D01*
X176557167Y-102700523D01*
X176604786Y-102605285D01*
X176652405Y-102414809D01*
X176652405Y-102271952D01*
X176604786Y-102081476D01*
X176557167Y-101986238D01*
X176461929Y-101891000D01*
X176319072Y-101843380D01*
X176223834Y-101843380D01*
X176080977Y-101891000D01*
X176033358Y-101938619D01*
X175080977Y-102843380D02*
X175652405Y-102843380D01*
X175366691Y-102843380D02*
X175366691Y-101843380D01*
X175461929Y-101986238D01*
X175557167Y-102081476D01*
X175652405Y-102129095D01*
X174747643Y-101843380D02*
X174128596Y-101843380D01*
X174461929Y-102224333D01*
X174319072Y-102224333D01*
X174223834Y-102271952D01*
X174176215Y-102319571D01*
X174128596Y-102414809D01*
X174128596Y-102652904D01*
X174176215Y-102748142D01*
X174223834Y-102795761D01*
X174319072Y-102843380D01*
X174604786Y-102843380D01*
X174700024Y-102795761D01*
X174747643Y-102748142D01*
X171648357Y-101801142D02*
X171695976Y-101848761D01*
X171838833Y-101896380D01*
X171934071Y-101896380D01*
X172076928Y-101848761D01*
X172172166Y-101753523D01*
X172219785Y-101658285D01*
X172267404Y-101467809D01*
X172267404Y-101324952D01*
X172219785Y-101134476D01*
X172172166Y-101039238D01*
X172076928Y-100944000D01*
X171934071Y-100896380D01*
X171838833Y-100896380D01*
X171695976Y-100944000D01*
X171648357Y-100991619D01*
X170695976Y-101896380D02*
X171267404Y-101896380D01*
X170981690Y-101896380D02*
X170981690Y-100896380D01*
X171076928Y-101039238D01*
X171172166Y-101134476D01*
X171267404Y-101182095D01*
X169838833Y-101229714D02*
X169838833Y-101896380D01*
X170076928Y-100848761D02*
X170315023Y-101563047D01*
X169695976Y-101563047D01*
X176033358Y-100052141D02*
X176080977Y-100099760D01*
X176223834Y-100147379D01*
X176319072Y-100147379D01*
X176461929Y-100099760D01*
X176557167Y-100004522D01*
X176604786Y-99909284D01*
X176652405Y-99718808D01*
X176652405Y-99575951D01*
X176604786Y-99385475D01*
X176557167Y-99290237D01*
X176461929Y-99194999D01*
X176319072Y-99147379D01*
X176223834Y-99147379D01*
X176080977Y-99194999D01*
X176033358Y-99242618D01*
X175080977Y-100147379D02*
X175652405Y-100147379D01*
X175366691Y-100147379D02*
X175366691Y-99147379D01*
X175461929Y-99290237D01*
X175557167Y-99385475D01*
X175652405Y-99433094D01*
X174176215Y-99147379D02*
X174652405Y-99147379D01*
X174700024Y-99623570D01*
X174652405Y-99575951D01*
X174557167Y-99528332D01*
X174319072Y-99528332D01*
X174223834Y-99575951D01*
X174176215Y-99623570D01*
X174128596Y-99718808D01*
X174128596Y-99956903D01*
X174176215Y-100052141D01*
X174223834Y-100099760D01*
X174319072Y-100147379D01*
X174557167Y-100147379D01*
X174652405Y-100099760D01*
X174700024Y-100052141D01*
X171584857Y-96784642D02*
X171632476Y-96832261D01*
X171775333Y-96879880D01*
X171870571Y-96879880D01*
X172013428Y-96832261D01*
X172108666Y-96737023D01*
X172156285Y-96641785D01*
X172203904Y-96451309D01*
X172203904Y-96308452D01*
X172156285Y-96117976D01*
X172108666Y-96022738D01*
X172013428Y-95927500D01*
X171870571Y-95879880D01*
X171775333Y-95879880D01*
X171632476Y-95927500D01*
X171584857Y-95975119D01*
X170632476Y-96879880D02*
X171203904Y-96879880D01*
X170918190Y-96879880D02*
X170918190Y-95879880D01*
X171013428Y-96022738D01*
X171108666Y-96117976D01*
X171203904Y-96165595D01*
X169775333Y-95879880D02*
X169965809Y-95879880D01*
X170061047Y-95927500D01*
X170108666Y-95975119D01*
X170203904Y-96117976D01*
X170251523Y-96308452D01*
X170251523Y-96689404D01*
X170203904Y-96784642D01*
X170156285Y-96832261D01*
X170061047Y-96879880D01*
X169870571Y-96879880D01*
X169775333Y-96832261D01*
X169727714Y-96784642D01*
X169680095Y-96689404D01*
X169680095Y-96451309D01*
X169727714Y-96356071D01*
X169775333Y-96308452D01*
X169870571Y-96260833D01*
X170061047Y-96260833D01*
X170156285Y-96308452D01*
X170203904Y-96356071D01*
X170251523Y-96451309D01*
X176029857Y-107828142D02*
X176077476Y-107875761D01*
X176220333Y-107923380D01*
X176315571Y-107923380D01*
X176458428Y-107875761D01*
X176553666Y-107780523D01*
X176601285Y-107685285D01*
X176648904Y-107494809D01*
X176648904Y-107351952D01*
X176601285Y-107161476D01*
X176553666Y-107066238D01*
X176458428Y-106971000D01*
X176315571Y-106923380D01*
X176220333Y-106923380D01*
X176077476Y-106971000D01*
X176029857Y-107018619D01*
X175077476Y-107923380D02*
X175648904Y-107923380D01*
X175363190Y-107923380D02*
X175363190Y-106923380D01*
X175458428Y-107066238D01*
X175553666Y-107161476D01*
X175648904Y-107209095D01*
X174744142Y-106923380D02*
X174077476Y-106923380D01*
X174506047Y-107923380D01*
X176114857Y-105161142D02*
X176162476Y-105208761D01*
X176305333Y-105256380D01*
X176400571Y-105256380D01*
X176543428Y-105208761D01*
X176638666Y-105113523D01*
X176686285Y-105018285D01*
X176733904Y-104827809D01*
X176733904Y-104684952D01*
X176686285Y-104494476D01*
X176638666Y-104399238D01*
X176543428Y-104304000D01*
X176400571Y-104256380D01*
X176305333Y-104256380D01*
X176162476Y-104304000D01*
X176114857Y-104351619D01*
X175162476Y-105256380D02*
X175733904Y-105256380D01*
X175448190Y-105256380D02*
X175448190Y-104256380D01*
X175543428Y-104399238D01*
X175638666Y-104494476D01*
X175733904Y-104542095D01*
X174591047Y-104684952D02*
X174686285Y-104637333D01*
X174733904Y-104589714D01*
X174781523Y-104494476D01*
X174781523Y-104446857D01*
X174733904Y-104351619D01*
X174686285Y-104304000D01*
X174591047Y-104256380D01*
X174400571Y-104256380D01*
X174305333Y-104304000D01*
X174257714Y-104351619D01*
X174210095Y-104446857D01*
X174210095Y-104494476D01*
X174257714Y-104589714D01*
X174305333Y-104637333D01*
X174400571Y-104684952D01*
X174591047Y-104684952D01*
X174686285Y-104732571D01*
X174733904Y-104780190D01*
X174781523Y-104875428D01*
X174781523Y-105065904D01*
X174733904Y-105161142D01*
X174686285Y-105208761D01*
X174591047Y-105256380D01*
X174400571Y-105256380D01*
X174305333Y-105208761D01*
X174257714Y-105161142D01*
X174210095Y-105065904D01*
X174210095Y-104875428D01*
X174257714Y-104780190D01*
X174305333Y-104732571D01*
X174400571Y-104684952D01*
X171711857Y-99388142D02*
X171759476Y-99435761D01*
X171902333Y-99483380D01*
X171997571Y-99483380D01*
X172140428Y-99435761D01*
X172235666Y-99340523D01*
X172283285Y-99245285D01*
X172330904Y-99054809D01*
X172330904Y-98911952D01*
X172283285Y-98721476D01*
X172235666Y-98626238D01*
X172140428Y-98531000D01*
X171997571Y-98483380D01*
X171902333Y-98483380D01*
X171759476Y-98531000D01*
X171711857Y-98578619D01*
X170759476Y-99483380D02*
X171330904Y-99483380D01*
X171045190Y-99483380D02*
X171045190Y-98483380D01*
X171140428Y-98626238D01*
X171235666Y-98721476D01*
X171330904Y-98769095D01*
X170283285Y-99483380D02*
X170092809Y-99483380D01*
X169997571Y-99435761D01*
X169949952Y-99388142D01*
X169854714Y-99245285D01*
X169807095Y-99054809D01*
X169807095Y-98673857D01*
X169854714Y-98578619D01*
X169902333Y-98531000D01*
X169997571Y-98483380D01*
X170188047Y-98483380D01*
X170283285Y-98531000D01*
X170330904Y-98578619D01*
X170378523Y-98673857D01*
X170378523Y-98911952D01*
X170330904Y-99007190D01*
X170283285Y-99054809D01*
X170188047Y-99102428D01*
X169997571Y-99102428D01*
X169902333Y-99054809D01*
X169854714Y-99007190D01*
X169807095Y-98911952D01*
X171711858Y-104539641D02*
X171759477Y-104587260D01*
X171902334Y-104634879D01*
X171997572Y-104634879D01*
X172140429Y-104587260D01*
X172235667Y-104492022D01*
X172283286Y-104396784D01*
X172330905Y-104206308D01*
X172330905Y-104063451D01*
X172283286Y-103872975D01*
X172235667Y-103777737D01*
X172140429Y-103682499D01*
X171997572Y-103634879D01*
X171902334Y-103634879D01*
X171759477Y-103682499D01*
X171711858Y-103730118D01*
X171330905Y-103730118D02*
X171283286Y-103682499D01*
X171188048Y-103634879D01*
X170949953Y-103634879D01*
X170854715Y-103682499D01*
X170807096Y-103730118D01*
X170759477Y-103825356D01*
X170759477Y-103920594D01*
X170807096Y-104063451D01*
X171378524Y-104634879D01*
X170759477Y-104634879D01*
X170140429Y-103634879D02*
X170045191Y-103634879D01*
X169949953Y-103682499D01*
X169902334Y-103730118D01*
X169854715Y-103825356D01*
X169807096Y-104015832D01*
X169807096Y-104253927D01*
X169854715Y-104444403D01*
X169902334Y-104539641D01*
X169949953Y-104587260D01*
X170045191Y-104634879D01*
X170140429Y-104634879D01*
X170235667Y-104587260D01*
X170283286Y-104539641D01*
X170330905Y-104444403D01*
X170378524Y-104253927D01*
X170378524Y-104015832D01*
X170330905Y-103825356D01*
X170283286Y-103730118D01*
X170235667Y-103682499D01*
X170140429Y-103634879D01*
X174512266Y-140441180D02*
X174988457Y-140441180D01*
X174988457Y-139441180D01*
X173655123Y-140441180D02*
X174226552Y-140441180D01*
X173940838Y-140441180D02*
X173940838Y-139441180D01*
X174036076Y-139584038D01*
X174131314Y-139679276D01*
X174226552Y-139726895D01*
%LPC*%
D14*
X209550000Y-127000000D03*
D15*
X209550000Y-124000000D03*
X209550000Y-121000000D03*
X209550000Y-118000000D03*
X209550000Y-115000000D03*
X209550000Y-112000000D03*
X209550000Y-109000000D03*
X207050000Y-110500000D03*
X207050000Y-113500000D03*
X207050000Y-116500000D03*
X207050000Y-119500000D03*
X207050000Y-122500000D03*
X207050000Y-125500000D03*
X204050000Y-125500000D03*
X204050000Y-122500000D03*
X204050000Y-119500000D03*
X204050000Y-116500000D03*
X204050000Y-113500000D03*
X204050000Y-110500000D03*
X201550000Y-109000000D03*
X201550000Y-112000000D03*
X201550000Y-115000000D03*
X201550000Y-118000000D03*
X201550000Y-121000000D03*
X201550000Y-124000000D03*
X201550000Y-127000000D03*
D16*
X216050000Y-134250000D03*
X216050000Y-101750000D03*
G36*
G01*
X175912800Y-132950800D02*
X174962800Y-132950800D01*
G75*
G02*
X174712800Y-132700800I0J250000D01*
G01*
X174712800Y-132025800D01*
G75*
G02*
X174962800Y-131775800I250000J0D01*
G01*
X175912800Y-131775800D01*
G75*
G02*
X176162800Y-132025800I0J-250000D01*
G01*
X176162800Y-132700800D01*
G75*
G02*
X175912800Y-132950800I-250000J0D01*
G01*
G37*
G36*
G01*
X175912800Y-135025800D02*
X174962800Y-135025800D01*
G75*
G02*
X174712800Y-134775800I0J250000D01*
G01*
X174712800Y-134100800D01*
G75*
G02*
X174962800Y-133850800I250000J0D01*
G01*
X175912800Y-133850800D01*
G75*
G02*
X176162800Y-134100800I0J-250000D01*
G01*
X176162800Y-134775800D01*
G75*
G02*
X175912800Y-135025800I-250000J0D01*
G01*
G37*
G36*
G01*
X173398200Y-135000400D02*
X172448200Y-135000400D01*
G75*
G02*
X172198200Y-134750400I0J250000D01*
G01*
X172198200Y-134075400D01*
G75*
G02*
X172448200Y-133825400I250000J0D01*
G01*
X173398200Y-133825400D01*
G75*
G02*
X173648200Y-134075400I0J-250000D01*
G01*
X173648200Y-134750400D01*
G75*
G02*
X173398200Y-135000400I-250000J0D01*
G01*
G37*
G36*
G01*
X173398200Y-132925400D02*
X172448200Y-132925400D01*
G75*
G02*
X172198200Y-132675400I0J250000D01*
G01*
X172198200Y-132000400D01*
G75*
G02*
X172448200Y-131750400I250000J0D01*
G01*
X173398200Y-131750400D01*
G75*
G02*
X173648200Y-132000400I0J-250000D01*
G01*
X173648200Y-132675400D01*
G75*
G02*
X173398200Y-132925400I-250000J0D01*
G01*
G37*
G36*
G01*
X156871000Y-123665000D02*
X156871000Y-122715000D01*
G75*
G02*
X157121000Y-122465000I250000J0D01*
G01*
X157796000Y-122465000D01*
G75*
G02*
X158046000Y-122715000I0J-250000D01*
G01*
X158046000Y-123665000D01*
G75*
G02*
X157796000Y-123915000I-250000J0D01*
G01*
X157121000Y-123915000D01*
G75*
G02*
X156871000Y-123665000I0J250000D01*
G01*
G37*
G36*
G01*
X158946000Y-123665000D02*
X158946000Y-122715000D01*
G75*
G02*
X159196000Y-122465000I250000J0D01*
G01*
X159871000Y-122465000D01*
G75*
G02*
X160121000Y-122715000I0J-250000D01*
G01*
X160121000Y-123665000D01*
G75*
G02*
X159871000Y-123915000I-250000J0D01*
G01*
X159196000Y-123915000D01*
G75*
G02*
X158946000Y-123665000I0J250000D01*
G01*
G37*
G36*
G01*
X158946000Y-118585000D02*
X158946000Y-117635000D01*
G75*
G02*
X159196000Y-117385000I250000J0D01*
G01*
X159871000Y-117385000D01*
G75*
G02*
X160121000Y-117635000I0J-250000D01*
G01*
X160121000Y-118585000D01*
G75*
G02*
X159871000Y-118835000I-250000J0D01*
G01*
X159196000Y-118835000D01*
G75*
G02*
X158946000Y-118585000I0J250000D01*
G01*
G37*
G36*
G01*
X156871000Y-118585000D02*
X156871000Y-117635000D01*
G75*
G02*
X157121000Y-117385000I250000J0D01*
G01*
X157796000Y-117385000D01*
G75*
G02*
X158046000Y-117635000I0J-250000D01*
G01*
X158046000Y-118585000D01*
G75*
G02*
X157796000Y-118835000I-250000J0D01*
G01*
X157121000Y-118835000D01*
G75*
G02*
X156871000Y-118585000I0J250000D01*
G01*
G37*
G36*
G01*
X175840501Y-101186000D02*
X175840501Y-100236000D01*
G75*
G02*
X176090501Y-99986000I250000J0D01*
G01*
X176765501Y-99986000D01*
G75*
G02*
X177015501Y-100236000I0J-250000D01*
G01*
X177015501Y-101186000D01*
G75*
G02*
X176765501Y-101436000I-250000J0D01*
G01*
X176090501Y-101436000D01*
G75*
G02*
X175840501Y-101186000I0J250000D01*
G01*
G37*
G36*
G01*
X173765501Y-101186000D02*
X173765501Y-100236000D01*
G75*
G02*
X174015501Y-99986000I250000J0D01*
G01*
X174690501Y-99986000D01*
G75*
G02*
X174940501Y-100236000I0J-250000D01*
G01*
X174940501Y-101186000D01*
G75*
G02*
X174690501Y-101436000I-250000J0D01*
G01*
X174015501Y-101436000D01*
G75*
G02*
X173765501Y-101186000I0J250000D01*
G01*
G37*
G36*
G01*
X172630500Y-102649000D02*
X172630500Y-103599000D01*
G75*
G02*
X172380500Y-103849000I-250000J0D01*
G01*
X171705500Y-103849000D01*
G75*
G02*
X171455500Y-103599000I0J250000D01*
G01*
X171455500Y-102649000D01*
G75*
G02*
X171705500Y-102399000I250000J0D01*
G01*
X172380500Y-102399000D01*
G75*
G02*
X172630500Y-102649000I0J-250000D01*
G01*
G37*
G36*
G01*
X170555500Y-102649000D02*
X170555500Y-103599000D01*
G75*
G02*
X170305500Y-103849000I-250000J0D01*
G01*
X169630500Y-103849000D01*
G75*
G02*
X169380500Y-103599000I0J250000D01*
G01*
X169380500Y-102649000D01*
G75*
G02*
X169630500Y-102399000I250000J0D01*
G01*
X170305500Y-102399000D01*
G75*
G02*
X170555500Y-102649000I0J-250000D01*
G01*
G37*
G36*
G01*
X173765501Y-98489999D02*
X173765501Y-97539999D01*
G75*
G02*
X174015501Y-97289999I250000J0D01*
G01*
X174690501Y-97289999D01*
G75*
G02*
X174940501Y-97539999I0J-250000D01*
G01*
X174940501Y-98489999D01*
G75*
G02*
X174690501Y-98739999I-250000J0D01*
G01*
X174015501Y-98739999D01*
G75*
G02*
X173765501Y-98489999I0J250000D01*
G01*
G37*
G36*
G01*
X175840501Y-98489999D02*
X175840501Y-97539999D01*
G75*
G02*
X176090501Y-97289999I250000J0D01*
G01*
X176765501Y-97289999D01*
G75*
G02*
X177015501Y-97539999I0J-250000D01*
G01*
X177015501Y-98489999D01*
G75*
G02*
X176765501Y-98739999I-250000J0D01*
G01*
X176090501Y-98739999D01*
G75*
G02*
X175840501Y-98489999I0J250000D01*
G01*
G37*
G36*
G01*
X172567000Y-97632500D02*
X172567000Y-98582500D01*
G75*
G02*
X172317000Y-98832500I-250000J0D01*
G01*
X171642000Y-98832500D01*
G75*
G02*
X171392000Y-98582500I0J250000D01*
G01*
X171392000Y-97632500D01*
G75*
G02*
X171642000Y-97382500I250000J0D01*
G01*
X172317000Y-97382500D01*
G75*
G02*
X172567000Y-97632500I0J-250000D01*
G01*
G37*
G36*
G01*
X170492000Y-97632500D02*
X170492000Y-98582500D01*
G75*
G02*
X170242000Y-98832500I-250000J0D01*
G01*
X169567000Y-98832500D01*
G75*
G02*
X169317000Y-98582500I0J250000D01*
G01*
X169317000Y-97632500D01*
G75*
G02*
X169567000Y-97382500I250000J0D01*
G01*
X170242000Y-97382500D01*
G75*
G02*
X170492000Y-97632500I0J-250000D01*
G01*
G37*
G36*
G01*
X175837000Y-106266000D02*
X175837000Y-105316000D01*
G75*
G02*
X176087000Y-105066000I250000J0D01*
G01*
X176762000Y-105066000D01*
G75*
G02*
X177012000Y-105316000I0J-250000D01*
G01*
X177012000Y-106266000D01*
G75*
G02*
X176762000Y-106516000I-250000J0D01*
G01*
X176087000Y-106516000D01*
G75*
G02*
X175837000Y-106266000I0J250000D01*
G01*
G37*
G36*
G01*
X173762000Y-106266000D02*
X173762000Y-105316000D01*
G75*
G02*
X174012000Y-105066000I250000J0D01*
G01*
X174687000Y-105066000D01*
G75*
G02*
X174937000Y-105316000I0J-250000D01*
G01*
X174937000Y-106266000D01*
G75*
G02*
X174687000Y-106516000I-250000J0D01*
G01*
X174012000Y-106516000D01*
G75*
G02*
X173762000Y-106266000I0J250000D01*
G01*
G37*
G36*
G01*
X173847000Y-103599000D02*
X173847000Y-102649000D01*
G75*
G02*
X174097000Y-102399000I250000J0D01*
G01*
X174772000Y-102399000D01*
G75*
G02*
X175022000Y-102649000I0J-250000D01*
G01*
X175022000Y-103599000D01*
G75*
G02*
X174772000Y-103849000I-250000J0D01*
G01*
X174097000Y-103849000D01*
G75*
G02*
X173847000Y-103599000I0J250000D01*
G01*
G37*
G36*
G01*
X175922000Y-103599000D02*
X175922000Y-102649000D01*
G75*
G02*
X176172000Y-102399000I250000J0D01*
G01*
X176847000Y-102399000D01*
G75*
G02*
X177097000Y-102649000I0J-250000D01*
G01*
X177097000Y-103599000D01*
G75*
G02*
X176847000Y-103849000I-250000J0D01*
G01*
X176172000Y-103849000D01*
G75*
G02*
X175922000Y-103599000I0J250000D01*
G01*
G37*
G36*
G01*
X170619000Y-100236000D02*
X170619000Y-101186000D01*
G75*
G02*
X170369000Y-101436000I-250000J0D01*
G01*
X169694000Y-101436000D01*
G75*
G02*
X169444000Y-101186000I0J250000D01*
G01*
X169444000Y-100236000D01*
G75*
G02*
X169694000Y-99986000I250000J0D01*
G01*
X170369000Y-99986000D01*
G75*
G02*
X170619000Y-100236000I0J-250000D01*
G01*
G37*
G36*
G01*
X172694000Y-100236000D02*
X172694000Y-101186000D01*
G75*
G02*
X172444000Y-101436000I-250000J0D01*
G01*
X171769000Y-101436000D01*
G75*
G02*
X171519000Y-101186000I0J250000D01*
G01*
X171519000Y-100236000D01*
G75*
G02*
X171769000Y-99986000I250000J0D01*
G01*
X172444000Y-99986000D01*
G75*
G02*
X172694000Y-100236000I0J-250000D01*
G01*
G37*
G36*
G01*
X172694001Y-105387499D02*
X172694001Y-106337499D01*
G75*
G02*
X172444001Y-106587499I-250000J0D01*
G01*
X171769001Y-106587499D01*
G75*
G02*
X171519001Y-106337499I0J250000D01*
G01*
X171519001Y-105387499D01*
G75*
G02*
X171769001Y-105137499I250000J0D01*
G01*
X172444001Y-105137499D01*
G75*
G02*
X172694001Y-105387499I0J-250000D01*
G01*
G37*
G36*
G01*
X170619001Y-105387499D02*
X170619001Y-106337499D01*
G75*
G02*
X170369001Y-106587499I-250000J0D01*
G01*
X169694001Y-106587499D01*
G75*
G02*
X169444001Y-106337499I0J250000D01*
G01*
X169444001Y-105387499D01*
G75*
G02*
X169694001Y-105137499I250000J0D01*
G01*
X170369001Y-105137499D01*
G75*
G02*
X170619001Y-105387499I0J-250000D01*
G01*
G37*
D17*
X205232000Y-146304000D03*
D18*
X208982000Y-146304000D03*
X207883650Y-148955650D03*
X205232000Y-150054000D03*
X202580350Y-148955650D03*
X201482000Y-146304000D03*
X202580350Y-143652350D03*
X205232000Y-142554000D03*
X207883650Y-143652350D03*
X141843650Y-85930850D03*
X139192000Y-84832500D03*
X136540350Y-85930850D03*
X135442000Y-88582500D03*
X136540350Y-91234150D03*
X139192000Y-92332500D03*
X141843650Y-91234150D03*
X142942000Y-88582500D03*
D17*
X139192000Y-88582500D03*
X205232000Y-88582500D03*
D18*
X208982000Y-88582500D03*
X207883650Y-91234150D03*
X205232000Y-92332500D03*
X202580350Y-91234150D03*
X201482000Y-88582500D03*
X202580350Y-85930850D03*
X205232000Y-84832500D03*
X207883650Y-85930850D03*
D19*
X179070000Y-90170000D03*
D20*
X179070000Y-87630000D03*
X181610000Y-90170000D03*
X181610000Y-87630000D03*
X184150000Y-90170000D03*
X184150000Y-87630000D03*
X186690000Y-90170000D03*
X186690000Y-87630000D03*
X189230000Y-90170000D03*
X189230000Y-87630000D03*
D19*
X165100000Y-90170000D03*
D20*
X165100000Y-87630000D03*
X167640000Y-90170000D03*
X167640000Y-87630000D03*
X170180000Y-90170000D03*
X170180000Y-87630000D03*
D21*
X172995600Y-137464800D03*
X175695600Y-137464800D03*
D22*
X151853900Y-140246100D03*
X154393900Y-140246100D03*
X156933900Y-140246100D03*
D17*
X139192000Y-146304000D03*
D18*
X142942000Y-146304000D03*
X141843650Y-148955650D03*
X139192000Y-150054000D03*
X136540350Y-148955650D03*
X135442000Y-146304000D03*
X136540350Y-143652350D03*
X139192000Y-142554000D03*
X141843650Y-143652350D03*
M02*
