%FSLAX45Y45*%
G04 Gerber Fmt 4.5, Leading zero omitted, Abs format (unit mm)*
G04 Created by KiCad (PCBNEW (5.1.12)-1) date 2022-07-24 10:45:52*
%MOMM*%
%LPD*%
G01*
G04 APERTURE LIST*
%TA.AperFunction,Profile*%
%ADD10C,0.050000*%
%TD*%
%ADD11C,0.200000*%
%ADD12C,0.300000*%
G04 APERTURE END LIST*
D10*
X12954000Y-8890000D02*
X12954000Y-8636000D01*
X12954000Y-14732000D02*
X12954000Y-8890000D01*
X21590000Y-15494000D02*
X13716000Y-15494000D01*
X13716000Y-15494000D02*
G75*
G02*
X12954000Y-14732000I0J762000D01*
G01*
X12954000Y-8636000D02*
G75*
G02*
X13716000Y-7874000I762000J0D01*
G01*
X21082000Y-7874000D02*
X13716000Y-7874000D01*
X21082000Y-7874000D02*
G75*
G02*
X22352000Y-9144000I0J-1270000D01*
G01*
X22383269Y-14478000D02*
X22352000Y-9144000D01*
X22383269Y-14478000D02*
G75*
G02*
X21590000Y-15494000I-1047269J0D01*
G01*
D11*
D12*
X13237928Y-15962214D02*
X13237928Y-15662214D01*
X13309357Y-15662214D01*
X13352214Y-15676500D01*
X13380786Y-15705071D01*
X13395071Y-15733643D01*
X13409357Y-15790786D01*
X13409357Y-15833643D01*
X13395071Y-15890786D01*
X13380786Y-15919357D01*
X13352214Y-15947929D01*
X13309357Y-15962214D01*
X13237928Y-15962214D01*
X13537928Y-15962214D02*
X13537928Y-15762214D01*
X13537928Y-15819357D02*
X13552214Y-15790786D01*
X13566500Y-15776500D01*
X13595071Y-15762214D01*
X13623643Y-15762214D01*
X13723643Y-15962214D02*
X13723643Y-15762214D01*
X13723643Y-15662214D02*
X13709357Y-15676500D01*
X13723643Y-15690786D01*
X13737928Y-15676500D01*
X13723643Y-15662214D01*
X13723643Y-15690786D01*
X13909357Y-15962214D02*
X13880786Y-15947929D01*
X13866500Y-15919357D01*
X13866500Y-15662214D01*
X14066500Y-15962214D02*
X14037928Y-15947929D01*
X14023643Y-15919357D01*
X14023643Y-15662214D01*
X14409357Y-15962214D02*
X14409357Y-15662214D01*
X14509357Y-15876500D01*
X14609357Y-15662214D01*
X14609357Y-15962214D01*
X14880786Y-15962214D02*
X14880786Y-15805071D01*
X14866500Y-15776500D01*
X14837928Y-15762214D01*
X14780786Y-15762214D01*
X14752214Y-15776500D01*
X14880786Y-15947929D02*
X14852214Y-15962214D01*
X14780786Y-15962214D01*
X14752214Y-15947929D01*
X14737928Y-15919357D01*
X14737928Y-15890786D01*
X14752214Y-15862214D01*
X14780786Y-15847929D01*
X14852214Y-15847929D01*
X14880786Y-15833643D01*
X15023643Y-15762214D02*
X15023643Y-16062214D01*
X15023643Y-15776500D02*
X15052214Y-15762214D01*
X15109357Y-15762214D01*
X15137928Y-15776500D01*
X15152214Y-15790786D01*
X15166500Y-15819357D01*
X15166500Y-15905071D01*
X15152214Y-15933643D01*
X15137928Y-15947929D01*
X15109357Y-15962214D01*
X15052214Y-15962214D01*
X15023643Y-15947929D01*
X15295071Y-15933643D02*
X15309357Y-15947929D01*
X15295071Y-15962214D01*
X15280786Y-15947929D01*
X15295071Y-15933643D01*
X15295071Y-15962214D01*
X15295071Y-15776500D02*
X15309357Y-15790786D01*
X15295071Y-15805071D01*
X15280786Y-15790786D01*
X15295071Y-15776500D01*
X15295071Y-15805071D01*
M02*
