M48
; DRILL file {KiCad (5.1.12)-1} date 07/24/22 10:45:45
; FORMAT={-:-/ absolute / metric / decimal}
; #@! TF.CreationDate,2022-07-24T10:45:45+02:00
; #@! TF.GenerationSoftware,Kicad,Pcbnew,(5.1.12)-1
; #@! TF.FileFunction,Plated,1,2,PTH
FMAT,2
METRIC
T1C0.400
T2C0.600
T3C0.800
T4C1.000
T5C1.500
T6C3.400
T7C5.000
%
G90
G05
T1
X145.796Y-118.491
X147.193Y-121.666
X147.32Y-126.174
X148.526Y-125.984
X150.368Y-114.046
X151.257Y-126.492
X152.578Y-111.582
X154.368Y-131.508
X154.432Y-119.38
X154.432Y-122.682
X155.194Y-123.952
X155.321Y-131.064
X155.385Y-107.696
X155.638Y-113.093
X156.464Y-107.569
X156.87Y-112.941
X158.369Y-112.585
X159.766Y-124.714
X160.109Y-129.451
X160.299Y-128.435
X160.782Y-118.364
X164.084Y-142.367
X164.592Y-94.742
X165.735Y-95.123
X167.64Y-112.014
X167.957Y-144.78
X168.148Y-147.066
X169.545Y-132.715
X169.608Y-129.857
X169.672Y-93.091
X169.799Y-92.202
X170.815Y-95.504
X172.466Y-130.937
X173.355Y-116.586
X174.625Y-142.558
X177.292Y-131.064
X178.435Y-108.077
X178.816Y-103.124
X180.467Y-134.874
X180.594Y-115.824
X182.499Y-139.7
X183.896Y-92.329
X184.277Y-121.539
X184.277Y-140.716
X185.928Y-114.554
X185.928Y-133.477
X186.69Y-139.7
X186.981Y-121.703
X187.198Y-137.668
X187.96Y-119.38
X188.087Y-138.557
X190.183Y-114.744
X190.5Y-133.35
X191.135Y-127.635
X193.929Y-127.635
X195.135Y-109.664
X196.469Y-109.601
X197.675Y-111.823
X199.136Y-112.268
X207.391Y-129.35
T2
X135.442Y-88.582
X135.442Y-146.304
X136.54Y-85.931
X136.54Y-91.234
X136.54Y-143.652
X136.54Y-148.956
X139.192Y-84.832
X139.192Y-92.332
X139.192Y-142.554
X139.192Y-150.054
X141.844Y-85.931
X141.844Y-91.234
X141.844Y-143.652
X141.844Y-148.956
X142.942Y-88.582
X142.942Y-146.304
X201.482Y-88.582
X201.482Y-146.304
X202.58Y-85.931
X202.58Y-91.234
X202.58Y-143.652
X202.58Y-148.956
X205.232Y-84.832
X205.232Y-92.332
X205.232Y-142.554
X205.232Y-150.054
X207.884Y-85.931
X207.884Y-91.234
X207.884Y-143.652
X207.884Y-148.956
X208.982Y-88.582
X208.982Y-146.304
T3
X151.854Y-140.246
X154.394Y-140.246
X156.934Y-140.246
T4
X165.1Y-87.63
X165.1Y-90.17
X167.64Y-87.63
X167.64Y-90.17
X170.18Y-87.63
X170.18Y-90.17
X179.07Y-87.63
X179.07Y-90.17
X181.61Y-87.63
X181.61Y-90.17
X184.15Y-87.63
X184.15Y-90.17
X186.69Y-87.63
X186.69Y-90.17
X189.23Y-87.63
X189.23Y-90.17
T5
X201.55Y-109.0
X201.55Y-112.0
X201.55Y-115.0
X201.55Y-118.0
X201.55Y-121.0
X201.55Y-124.0
X201.55Y-127.0
X204.05Y-110.5
X204.05Y-113.5
X204.05Y-116.5
X204.05Y-119.5
X204.05Y-122.5
X204.05Y-125.5
X207.05Y-110.5
X207.05Y-113.5
X207.05Y-116.5
X207.05Y-119.5
X207.05Y-122.5
X207.05Y-125.5
X209.55Y-109.0
X209.55Y-112.0
X209.55Y-115.0
X209.55Y-118.0
X209.55Y-121.0
X209.55Y-124.0
X209.55Y-127.0
T6
X216.05Y-101.75
X216.05Y-134.25
T7
X139.192Y-88.582
X139.192Y-146.304
X205.232Y-88.582
X205.232Y-146.304
T0
M30
