%TF.GenerationSoftware,KiCad,Pcbnew,(5.1.8)-1*%
%TF.CreationDate,2021-11-01T21:13:11+01:00*%
%TF.ProjectId,Dashboard,44617368-626f-4617-9264-2e6b69636164,rev?*%
%TF.SameCoordinates,Original*%
%TF.FileFunction,Soldermask,Bot*%
%TF.FilePolarity,Negative*%
%FSLAX46Y46*%
G04 Gerber Fmt 4.6, Leading zero omitted, Abs format (unit mm)*
G04 Created by KiCad (PCBNEW (5.1.8)-1) date 2021-11-01 21:13:11*
%MOMM*%
%LPD*%
G01*
G04 APERTURE LIST*
%ADD10O,1.700000X1.700000*%
%ADD11R,1.700000X1.700000*%
%ADD12R,1.600000X1.600000*%
%ADD13C,1.600000*%
%ADD14C,10.000000*%
%ADD15C,0.900000*%
%ADD16C,3.900000*%
%ADD17C,3.500000*%
%ADD18C,3.200000*%
%ADD19R,2.200000X1.800000*%
%ADD20R,1.300000X0.300000*%
%ADD21R,0.900000X0.800000*%
%ADD22C,2.000000*%
%ADD23O,1.600000X1.600000*%
%ADD24R,2.000000X2.000000*%
G04 APERTURE END LIST*
D10*
%TO.C,J2*%
X241808000Y-26162000D03*
X239268000Y-26162000D03*
X236728000Y-26162000D03*
X234188000Y-26162000D03*
D11*
X231648000Y-26162000D03*
%TD*%
%TO.C,J1*%
X215138000Y-26162000D03*
D10*
X217678000Y-26162000D03*
X220218000Y-26162000D03*
X222758000Y-26162000D03*
X225298000Y-26162000D03*
%TD*%
D12*
%TO.C,C6*%
X214376000Y-92456000D03*
D13*
X216876000Y-92456000D03*
%TD*%
%TO.C,C1*%
G36*
G01*
X205174000Y-33241000D02*
X205174000Y-32291000D01*
G75*
G02*
X205424000Y-32041000I250000J0D01*
G01*
X205924000Y-32041000D01*
G75*
G02*
X206174000Y-32291000I0J-250000D01*
G01*
X206174000Y-33241000D01*
G75*
G02*
X205924000Y-33491000I-250000J0D01*
G01*
X205424000Y-33491000D01*
G75*
G02*
X205174000Y-33241000I0J250000D01*
G01*
G37*
G36*
G01*
X203274000Y-33241000D02*
X203274000Y-32291000D01*
G75*
G02*
X203524000Y-32041000I250000J0D01*
G01*
X204024000Y-32041000D01*
G75*
G02*
X204274000Y-32291000I0J-250000D01*
G01*
X204274000Y-33241000D01*
G75*
G02*
X204024000Y-33491000I-250000J0D01*
G01*
X203524000Y-33491000D01*
G75*
G02*
X203274000Y-33241000I0J250000D01*
G01*
G37*
%TD*%
%TO.C,C3*%
G36*
G01*
X188648000Y-40673000D02*
X188648000Y-41623000D01*
G75*
G02*
X188398000Y-41873000I-250000J0D01*
G01*
X187898000Y-41873000D01*
G75*
G02*
X187648000Y-41623000I0J250000D01*
G01*
X187648000Y-40673000D01*
G75*
G02*
X187898000Y-40423000I250000J0D01*
G01*
X188398000Y-40423000D01*
G75*
G02*
X188648000Y-40673000I0J-250000D01*
G01*
G37*
G36*
G01*
X186748000Y-40673000D02*
X186748000Y-41623000D01*
G75*
G02*
X186498000Y-41873000I-250000J0D01*
G01*
X185998000Y-41873000D01*
G75*
G02*
X185748000Y-41623000I0J250000D01*
G01*
X185748000Y-40673000D01*
G75*
G02*
X185998000Y-40423000I250000J0D01*
G01*
X186498000Y-40423000D01*
G75*
G02*
X186748000Y-40673000I0J-250000D01*
G01*
G37*
%TD*%
%TO.C,C4*%
G36*
G01*
X213688000Y-95471000D02*
X213688000Y-94521000D01*
G75*
G02*
X213938000Y-94271000I250000J0D01*
G01*
X214438000Y-94271000D01*
G75*
G02*
X214688000Y-94521000I0J-250000D01*
G01*
X214688000Y-95471000D01*
G75*
G02*
X214438000Y-95721000I-250000J0D01*
G01*
X213938000Y-95721000D01*
G75*
G02*
X213688000Y-95471000I0J250000D01*
G01*
G37*
G36*
G01*
X215588000Y-95471000D02*
X215588000Y-94521000D01*
G75*
G02*
X215838000Y-94271000I250000J0D01*
G01*
X216338000Y-94271000D01*
G75*
G02*
X216588000Y-94521000I0J-250000D01*
G01*
X216588000Y-95471000D01*
G75*
G02*
X216338000Y-95721000I-250000J0D01*
G01*
X215838000Y-95721000D01*
G75*
G02*
X215588000Y-95471000I0J250000D01*
G01*
G37*
%TD*%
%TO.C,C5*%
G36*
G01*
X206916000Y-56203000D02*
X207866000Y-56203000D01*
G75*
G02*
X208116000Y-56453000I0J-250000D01*
G01*
X208116000Y-56953000D01*
G75*
G02*
X207866000Y-57203000I-250000J0D01*
G01*
X206916000Y-57203000D01*
G75*
G02*
X206666000Y-56953000I0J250000D01*
G01*
X206666000Y-56453000D01*
G75*
G02*
X206916000Y-56203000I250000J0D01*
G01*
G37*
G36*
G01*
X206916000Y-54303000D02*
X207866000Y-54303000D01*
G75*
G02*
X208116000Y-54553000I0J-250000D01*
G01*
X208116000Y-55053000D01*
G75*
G02*
X207866000Y-55303000I-250000J0D01*
G01*
X206916000Y-55303000D01*
G75*
G02*
X206666000Y-55053000I0J250000D01*
G01*
X206666000Y-54553000D01*
G75*
G02*
X206916000Y-54303000I250000J0D01*
G01*
G37*
%TD*%
%TO.C,C8*%
G36*
G01*
X188648000Y-43213000D02*
X188648000Y-44163000D01*
G75*
G02*
X188398000Y-44413000I-250000J0D01*
G01*
X187898000Y-44413000D01*
G75*
G02*
X187648000Y-44163000I0J250000D01*
G01*
X187648000Y-43213000D01*
G75*
G02*
X187898000Y-42963000I250000J0D01*
G01*
X188398000Y-42963000D01*
G75*
G02*
X188648000Y-43213000I0J-250000D01*
G01*
G37*
G36*
G01*
X186748000Y-43213000D02*
X186748000Y-44163000D01*
G75*
G02*
X186498000Y-44413000I-250000J0D01*
G01*
X185998000Y-44413000D01*
G75*
G02*
X185748000Y-44163000I0J250000D01*
G01*
X185748000Y-43213000D01*
G75*
G02*
X185998000Y-42963000I250000J0D01*
G01*
X186498000Y-42963000D01*
G75*
G02*
X186748000Y-43213000I0J-250000D01*
G01*
G37*
%TD*%
%TO.C,C9*%
G36*
G01*
X205174000Y-35527000D02*
X205174000Y-34577000D01*
G75*
G02*
X205424000Y-34327000I250000J0D01*
G01*
X205924000Y-34327000D01*
G75*
G02*
X206174000Y-34577000I0J-250000D01*
G01*
X206174000Y-35527000D01*
G75*
G02*
X205924000Y-35777000I-250000J0D01*
G01*
X205424000Y-35777000D01*
G75*
G02*
X205174000Y-35527000I0J250000D01*
G01*
G37*
G36*
G01*
X203274000Y-35527000D02*
X203274000Y-34577000D01*
G75*
G02*
X203524000Y-34327000I250000J0D01*
G01*
X204024000Y-34327000D01*
G75*
G02*
X204274000Y-34577000I0J-250000D01*
G01*
X204274000Y-35527000D01*
G75*
G02*
X204024000Y-35777000I-250000J0D01*
G01*
X203524000Y-35777000D01*
G75*
G02*
X203274000Y-35527000I0J250000D01*
G01*
G37*
%TD*%
%TO.C,C10*%
G36*
G01*
X205494000Y-65499000D02*
X205494000Y-64549000D01*
G75*
G02*
X205744000Y-64299000I250000J0D01*
G01*
X206244000Y-64299000D01*
G75*
G02*
X206494000Y-64549000I0J-250000D01*
G01*
X206494000Y-65499000D01*
G75*
G02*
X206244000Y-65749000I-250000J0D01*
G01*
X205744000Y-65749000D01*
G75*
G02*
X205494000Y-65499000I0J250000D01*
G01*
G37*
G36*
G01*
X207394000Y-65499000D02*
X207394000Y-64549000D01*
G75*
G02*
X207644000Y-64299000I250000J0D01*
G01*
X208144000Y-64299000D01*
G75*
G02*
X208394000Y-64549000I0J-250000D01*
G01*
X208394000Y-65499000D01*
G75*
G02*
X208144000Y-65749000I-250000J0D01*
G01*
X207644000Y-65749000D01*
G75*
G02*
X207394000Y-65499000I0J250000D01*
G01*
G37*
%TD*%
%TO.C,C11*%
G36*
G01*
X209202000Y-56203000D02*
X210152000Y-56203000D01*
G75*
G02*
X210402000Y-56453000I0J-250000D01*
G01*
X210402000Y-56953000D01*
G75*
G02*
X210152000Y-57203000I-250000J0D01*
G01*
X209202000Y-57203000D01*
G75*
G02*
X208952000Y-56953000I0J250000D01*
G01*
X208952000Y-56453000D01*
G75*
G02*
X209202000Y-56203000I250000J0D01*
G01*
G37*
G36*
G01*
X209202000Y-54303000D02*
X210152000Y-54303000D01*
G75*
G02*
X210402000Y-54553000I0J-250000D01*
G01*
X210402000Y-55053000D01*
G75*
G02*
X210152000Y-55303000I-250000J0D01*
G01*
X209202000Y-55303000D01*
G75*
G02*
X208952000Y-55053000I0J250000D01*
G01*
X208952000Y-54553000D01*
G75*
G02*
X209202000Y-54303000I250000J0D01*
G01*
G37*
%TD*%
%TO.C,C12*%
G36*
G01*
X189959000Y-56446000D02*
X189009000Y-56446000D01*
G75*
G02*
X188759000Y-56196000I0J250000D01*
G01*
X188759000Y-55696000D01*
G75*
G02*
X189009000Y-55446000I250000J0D01*
G01*
X189959000Y-55446000D01*
G75*
G02*
X190209000Y-55696000I0J-250000D01*
G01*
X190209000Y-56196000D01*
G75*
G02*
X189959000Y-56446000I-250000J0D01*
G01*
G37*
G36*
G01*
X189959000Y-58346000D02*
X189009000Y-58346000D01*
G75*
G02*
X188759000Y-58096000I0J250000D01*
G01*
X188759000Y-57596000D01*
G75*
G02*
X189009000Y-57346000I250000J0D01*
G01*
X189959000Y-57346000D01*
G75*
G02*
X190209000Y-57596000I0J-250000D01*
G01*
X190209000Y-58096000D01*
G75*
G02*
X189959000Y-58346000I-250000J0D01*
G01*
G37*
%TD*%
%TO.C,C13*%
G36*
G01*
X205494000Y-63467000D02*
X205494000Y-62517000D01*
G75*
G02*
X205744000Y-62267000I250000J0D01*
G01*
X206244000Y-62267000D01*
G75*
G02*
X206494000Y-62517000I0J-250000D01*
G01*
X206494000Y-63467000D01*
G75*
G02*
X206244000Y-63717000I-250000J0D01*
G01*
X205744000Y-63717000D01*
G75*
G02*
X205494000Y-63467000I0J250000D01*
G01*
G37*
G36*
G01*
X207394000Y-63467000D02*
X207394000Y-62517000D01*
G75*
G02*
X207644000Y-62267000I250000J0D01*
G01*
X208144000Y-62267000D01*
G75*
G02*
X208394000Y-62517000I0J-250000D01*
G01*
X208394000Y-63467000D01*
G75*
G02*
X208144000Y-63717000I-250000J0D01*
G01*
X207644000Y-63717000D01*
G75*
G02*
X207394000Y-63467000I0J250000D01*
G01*
G37*
%TD*%
%TO.C,C14*%
G36*
G01*
X192499000Y-58346000D02*
X191549000Y-58346000D01*
G75*
G02*
X191299000Y-58096000I0J250000D01*
G01*
X191299000Y-57596000D01*
G75*
G02*
X191549000Y-57346000I250000J0D01*
G01*
X192499000Y-57346000D01*
G75*
G02*
X192749000Y-57596000I0J-250000D01*
G01*
X192749000Y-58096000D01*
G75*
G02*
X192499000Y-58346000I-250000J0D01*
G01*
G37*
G36*
G01*
X192499000Y-56446000D02*
X191549000Y-56446000D01*
G75*
G02*
X191299000Y-56196000I0J250000D01*
G01*
X191299000Y-55696000D01*
G75*
G02*
X191549000Y-55446000I250000J0D01*
G01*
X192499000Y-55446000D01*
G75*
G02*
X192749000Y-55696000I0J-250000D01*
G01*
X192749000Y-56196000D01*
G75*
G02*
X192499000Y-56446000I-250000J0D01*
G01*
G37*
%TD*%
%TO.C,C19*%
G36*
G01*
X193388000Y-85844000D02*
X192438000Y-85844000D01*
G75*
G02*
X192188000Y-85594000I0J250000D01*
G01*
X192188000Y-85094000D01*
G75*
G02*
X192438000Y-84844000I250000J0D01*
G01*
X193388000Y-84844000D01*
G75*
G02*
X193638000Y-85094000I0J-250000D01*
G01*
X193638000Y-85594000D01*
G75*
G02*
X193388000Y-85844000I-250000J0D01*
G01*
G37*
G36*
G01*
X193388000Y-87744000D02*
X192438000Y-87744000D01*
G75*
G02*
X192188000Y-87494000I0J250000D01*
G01*
X192188000Y-86994000D01*
G75*
G02*
X192438000Y-86744000I250000J0D01*
G01*
X193388000Y-86744000D01*
G75*
G02*
X193638000Y-86994000I0J-250000D01*
G01*
X193638000Y-87494000D01*
G75*
G02*
X193388000Y-87744000I-250000J0D01*
G01*
G37*
%TD*%
%TO.C,C20*%
G36*
G01*
X195928000Y-87744000D02*
X194978000Y-87744000D01*
G75*
G02*
X194728000Y-87494000I0J250000D01*
G01*
X194728000Y-86994000D01*
G75*
G02*
X194978000Y-86744000I250000J0D01*
G01*
X195928000Y-86744000D01*
G75*
G02*
X196178000Y-86994000I0J-250000D01*
G01*
X196178000Y-87494000D01*
G75*
G02*
X195928000Y-87744000I-250000J0D01*
G01*
G37*
G36*
G01*
X195928000Y-85844000D02*
X194978000Y-85844000D01*
G75*
G02*
X194728000Y-85594000I0J250000D01*
G01*
X194728000Y-85094000D01*
G75*
G02*
X194978000Y-84844000I250000J0D01*
G01*
X195928000Y-84844000D01*
G75*
G02*
X196178000Y-85094000I0J-250000D01*
G01*
X196178000Y-85594000D01*
G75*
G02*
X195928000Y-85844000I-250000J0D01*
G01*
G37*
%TD*%
%TO.C,C21*%
G36*
G01*
X198468000Y-87744000D02*
X197518000Y-87744000D01*
G75*
G02*
X197268000Y-87494000I0J250000D01*
G01*
X197268000Y-86994000D01*
G75*
G02*
X197518000Y-86744000I250000J0D01*
G01*
X198468000Y-86744000D01*
G75*
G02*
X198718000Y-86994000I0J-250000D01*
G01*
X198718000Y-87494000D01*
G75*
G02*
X198468000Y-87744000I-250000J0D01*
G01*
G37*
G36*
G01*
X198468000Y-85844000D02*
X197518000Y-85844000D01*
G75*
G02*
X197268000Y-85594000I0J250000D01*
G01*
X197268000Y-85094000D01*
G75*
G02*
X197518000Y-84844000I250000J0D01*
G01*
X198468000Y-84844000D01*
G75*
G02*
X198718000Y-85094000I0J-250000D01*
G01*
X198718000Y-85594000D01*
G75*
G02*
X198468000Y-85844000I-250000J0D01*
G01*
G37*
%TD*%
%TO.C,C22*%
G36*
G01*
X201008000Y-87744000D02*
X200058000Y-87744000D01*
G75*
G02*
X199808000Y-87494000I0J250000D01*
G01*
X199808000Y-86994000D01*
G75*
G02*
X200058000Y-86744000I250000J0D01*
G01*
X201008000Y-86744000D01*
G75*
G02*
X201258000Y-86994000I0J-250000D01*
G01*
X201258000Y-87494000D01*
G75*
G02*
X201008000Y-87744000I-250000J0D01*
G01*
G37*
G36*
G01*
X201008000Y-85844000D02*
X200058000Y-85844000D01*
G75*
G02*
X199808000Y-85594000I0J250000D01*
G01*
X199808000Y-85094000D01*
G75*
G02*
X200058000Y-84844000I250000J0D01*
G01*
X201008000Y-84844000D01*
G75*
G02*
X201258000Y-85094000I0J-250000D01*
G01*
X201258000Y-85594000D01*
G75*
G02*
X201008000Y-85844000I-250000J0D01*
G01*
G37*
%TD*%
%TO.C,C23*%
G36*
G01*
X205138000Y-82812000D02*
X206088000Y-82812000D01*
G75*
G02*
X206338000Y-83062000I0J-250000D01*
G01*
X206338000Y-83562000D01*
G75*
G02*
X206088000Y-83812000I-250000J0D01*
G01*
X205138000Y-83812000D01*
G75*
G02*
X204888000Y-83562000I0J250000D01*
G01*
X204888000Y-83062000D01*
G75*
G02*
X205138000Y-82812000I250000J0D01*
G01*
G37*
G36*
G01*
X205138000Y-80912000D02*
X206088000Y-80912000D01*
G75*
G02*
X206338000Y-81162000I0J-250000D01*
G01*
X206338000Y-81662000D01*
G75*
G02*
X206088000Y-81912000I-250000J0D01*
G01*
X205138000Y-81912000D01*
G75*
G02*
X204888000Y-81662000I0J250000D01*
G01*
X204888000Y-81162000D01*
G75*
G02*
X205138000Y-80912000I250000J0D01*
G01*
G37*
%TD*%
%TO.C,C24*%
G36*
G01*
X203548000Y-85844000D02*
X202598000Y-85844000D01*
G75*
G02*
X202348000Y-85594000I0J250000D01*
G01*
X202348000Y-85094000D01*
G75*
G02*
X202598000Y-84844000I250000J0D01*
G01*
X203548000Y-84844000D01*
G75*
G02*
X203798000Y-85094000I0J-250000D01*
G01*
X203798000Y-85594000D01*
G75*
G02*
X203548000Y-85844000I-250000J0D01*
G01*
G37*
G36*
G01*
X203548000Y-87744000D02*
X202598000Y-87744000D01*
G75*
G02*
X202348000Y-87494000I0J250000D01*
G01*
X202348000Y-86994000D01*
G75*
G02*
X202598000Y-86744000I250000J0D01*
G01*
X203548000Y-86744000D01*
G75*
G02*
X203798000Y-86994000I0J-250000D01*
G01*
X203798000Y-87494000D01*
G75*
G02*
X203548000Y-87744000I-250000J0D01*
G01*
G37*
%TD*%
%TO.C,C25*%
G36*
G01*
X202598000Y-80912000D02*
X203548000Y-80912000D01*
G75*
G02*
X203798000Y-81162000I0J-250000D01*
G01*
X203798000Y-81662000D01*
G75*
G02*
X203548000Y-81912000I-250000J0D01*
G01*
X202598000Y-81912000D01*
G75*
G02*
X202348000Y-81662000I0J250000D01*
G01*
X202348000Y-81162000D01*
G75*
G02*
X202598000Y-80912000I250000J0D01*
G01*
G37*
G36*
G01*
X202598000Y-82812000D02*
X203548000Y-82812000D01*
G75*
G02*
X203798000Y-83062000I0J-250000D01*
G01*
X203798000Y-83562000D01*
G75*
G02*
X203548000Y-83812000I-250000J0D01*
G01*
X202598000Y-83812000D01*
G75*
G02*
X202348000Y-83562000I0J250000D01*
G01*
X202348000Y-83062000D01*
G75*
G02*
X202598000Y-82812000I250000J0D01*
G01*
G37*
%TD*%
%TO.C,C26*%
G36*
G01*
X206088000Y-87744000D02*
X205138000Y-87744000D01*
G75*
G02*
X204888000Y-87494000I0J250000D01*
G01*
X204888000Y-86994000D01*
G75*
G02*
X205138000Y-86744000I250000J0D01*
G01*
X206088000Y-86744000D01*
G75*
G02*
X206338000Y-86994000I0J-250000D01*
G01*
X206338000Y-87494000D01*
G75*
G02*
X206088000Y-87744000I-250000J0D01*
G01*
G37*
G36*
G01*
X206088000Y-85844000D02*
X205138000Y-85844000D01*
G75*
G02*
X204888000Y-85594000I0J250000D01*
G01*
X204888000Y-85094000D01*
G75*
G02*
X205138000Y-84844000I250000J0D01*
G01*
X206088000Y-84844000D01*
G75*
G02*
X206338000Y-85094000I0J-250000D01*
G01*
X206338000Y-85594000D01*
G75*
G02*
X206088000Y-85844000I-250000J0D01*
G01*
G37*
%TD*%
%TO.C,C27*%
G36*
G01*
X200058000Y-82812000D02*
X201008000Y-82812000D01*
G75*
G02*
X201258000Y-83062000I0J-250000D01*
G01*
X201258000Y-83562000D01*
G75*
G02*
X201008000Y-83812000I-250000J0D01*
G01*
X200058000Y-83812000D01*
G75*
G02*
X199808000Y-83562000I0J250000D01*
G01*
X199808000Y-83062000D01*
G75*
G02*
X200058000Y-82812000I250000J0D01*
G01*
G37*
G36*
G01*
X200058000Y-80912000D02*
X201008000Y-80912000D01*
G75*
G02*
X201258000Y-81162000I0J-250000D01*
G01*
X201258000Y-81662000D01*
G75*
G02*
X201008000Y-81912000I-250000J0D01*
G01*
X200058000Y-81912000D01*
G75*
G02*
X199808000Y-81662000I0J250000D01*
G01*
X199808000Y-81162000D01*
G75*
G02*
X200058000Y-80912000I250000J0D01*
G01*
G37*
%TD*%
%TO.C,C28*%
G36*
G01*
X208628000Y-85844000D02*
X207678000Y-85844000D01*
G75*
G02*
X207428000Y-85594000I0J250000D01*
G01*
X207428000Y-85094000D01*
G75*
G02*
X207678000Y-84844000I250000J0D01*
G01*
X208628000Y-84844000D01*
G75*
G02*
X208878000Y-85094000I0J-250000D01*
G01*
X208878000Y-85594000D01*
G75*
G02*
X208628000Y-85844000I-250000J0D01*
G01*
G37*
G36*
G01*
X208628000Y-87744000D02*
X207678000Y-87744000D01*
G75*
G02*
X207428000Y-87494000I0J250000D01*
G01*
X207428000Y-86994000D01*
G75*
G02*
X207678000Y-86744000I250000J0D01*
G01*
X208628000Y-86744000D01*
G75*
G02*
X208878000Y-86994000I0J-250000D01*
G01*
X208878000Y-87494000D01*
G75*
G02*
X208628000Y-87744000I-250000J0D01*
G01*
G37*
%TD*%
%TO.C,C29*%
G36*
G01*
X197518000Y-80912000D02*
X198468000Y-80912000D01*
G75*
G02*
X198718000Y-81162000I0J-250000D01*
G01*
X198718000Y-81662000D01*
G75*
G02*
X198468000Y-81912000I-250000J0D01*
G01*
X197518000Y-81912000D01*
G75*
G02*
X197268000Y-81662000I0J250000D01*
G01*
X197268000Y-81162000D01*
G75*
G02*
X197518000Y-80912000I250000J0D01*
G01*
G37*
G36*
G01*
X197518000Y-82812000D02*
X198468000Y-82812000D01*
G75*
G02*
X198718000Y-83062000I0J-250000D01*
G01*
X198718000Y-83562000D01*
G75*
G02*
X198468000Y-83812000I-250000J0D01*
G01*
X197518000Y-83812000D01*
G75*
G02*
X197268000Y-83562000I0J250000D01*
G01*
X197268000Y-83062000D01*
G75*
G02*
X197518000Y-82812000I250000J0D01*
G01*
G37*
%TD*%
%TO.C,C30*%
G36*
G01*
X211168000Y-85844000D02*
X210218000Y-85844000D01*
G75*
G02*
X209968000Y-85594000I0J250000D01*
G01*
X209968000Y-85094000D01*
G75*
G02*
X210218000Y-84844000I250000J0D01*
G01*
X211168000Y-84844000D01*
G75*
G02*
X211418000Y-85094000I0J-250000D01*
G01*
X211418000Y-85594000D01*
G75*
G02*
X211168000Y-85844000I-250000J0D01*
G01*
G37*
G36*
G01*
X211168000Y-87744000D02*
X210218000Y-87744000D01*
G75*
G02*
X209968000Y-87494000I0J250000D01*
G01*
X209968000Y-86994000D01*
G75*
G02*
X210218000Y-86744000I250000J0D01*
G01*
X211168000Y-86744000D01*
G75*
G02*
X211418000Y-86994000I0J-250000D01*
G01*
X211418000Y-87494000D01*
G75*
G02*
X211168000Y-87744000I-250000J0D01*
G01*
G37*
%TD*%
D14*
%TO.C,H1*%
X173228000Y-20828000D03*
D15*
X176978000Y-20828000D03*
X175879650Y-23479650D03*
X173228000Y-24578000D03*
X170576350Y-23479650D03*
X169478000Y-20828000D03*
X170576350Y-18176350D03*
X173228000Y-17078000D03*
X175879650Y-18176350D03*
%TD*%
%TO.C,H2*%
X175879650Y-95900350D03*
X173228000Y-94802000D03*
X170576350Y-95900350D03*
X169478000Y-98552000D03*
X170576350Y-101203650D03*
X173228000Y-102302000D03*
X175879650Y-101203650D03*
X176978000Y-98552000D03*
D14*
X173228000Y-98552000D03*
%TD*%
D15*
%TO.C,H3*%
X260969650Y-18176350D03*
X258318000Y-17078000D03*
X255666350Y-18176350D03*
X254568000Y-20828000D03*
X255666350Y-23479650D03*
X258318000Y-24578000D03*
X260969650Y-23479650D03*
X262068000Y-20828000D03*
D14*
X258318000Y-20828000D03*
%TD*%
%TO.C,H4*%
X258318000Y-98552000D03*
D15*
X262068000Y-98552000D03*
X260969650Y-101203650D03*
X258318000Y-102302000D03*
X255666350Y-101203650D03*
X254568000Y-98552000D03*
X255666350Y-95900350D03*
X258318000Y-94802000D03*
X260969650Y-95900350D03*
%TD*%
%TO.C,J3*%
G36*
G01*
X192360000Y-102029999D02*
X192360000Y-98630001D01*
G75*
G02*
X192610001Y-98380000I250001J0D01*
G01*
X196009999Y-98380000D01*
G75*
G02*
X196260000Y-98630001I0J-250001D01*
G01*
X196260000Y-102029999D01*
G75*
G02*
X196009999Y-102280000I-250001J0D01*
G01*
X192610001Y-102280000D01*
G75*
G02*
X192360000Y-102029999I0J250001D01*
G01*
G37*
D16*
X202110000Y-100330000D03*
X209910000Y-100330000D03*
%TD*%
D17*
%TO.C,J4*%
X253873000Y-39954000D03*
X247523000Y-39954000D03*
X253873000Y-44394000D03*
X247523000Y-44394000D03*
X253873000Y-48834000D03*
X247523000Y-48834000D03*
X253873000Y-53274000D03*
X247523000Y-53274000D03*
X253873000Y-57714000D03*
X247523000Y-57714000D03*
X253873000Y-62154000D03*
X247523000Y-62154000D03*
D18*
X248524000Y-68584000D03*
X248524000Y-33524000D03*
X259763000Y-51054000D03*
%TD*%
D10*
%TO.C,J5*%
X194818000Y-25908000D03*
X194818000Y-28448000D03*
X197358000Y-25908000D03*
X197358000Y-28448000D03*
X199898000Y-25908000D03*
X199898000Y-28448000D03*
X202438000Y-25908000D03*
X202438000Y-28448000D03*
X204978000Y-25908000D03*
D11*
X204978000Y-28448000D03*
%TD*%
D19*
%TO.C,J6*%
X172844000Y-36784000D03*
X172844000Y-50084000D03*
D20*
X176094000Y-48184000D03*
X176094000Y-47684000D03*
X176094000Y-47184000D03*
X176094000Y-46684000D03*
X176094000Y-46184000D03*
X176094000Y-45684000D03*
X176094000Y-45184000D03*
X176094000Y-44684000D03*
X176094000Y-44184000D03*
X176094000Y-43684000D03*
X176094000Y-43184000D03*
X176094000Y-42684000D03*
X176094000Y-42184000D03*
X176094000Y-41684000D03*
X176094000Y-41184000D03*
X176094000Y-40684000D03*
X176094000Y-40184000D03*
X176094000Y-39684000D03*
X176094000Y-39184000D03*
X176094000Y-38684000D03*
%TD*%
D11*
%TO.C,JP1*%
X193040000Y-36068000D03*
D10*
X190500000Y-36068000D03*
X187960000Y-36068000D03*
%TD*%
%TO.C,JP2*%
X229743000Y-76454000D03*
D11*
X227203000Y-76454000D03*
%TD*%
D10*
%TO.C,JP3*%
X244221000Y-76200000D03*
D11*
X241681000Y-76200000D03*
%TD*%
D21*
%TO.C,Q1*%
X230378000Y-96774000D03*
X230378000Y-98674000D03*
X228378000Y-97724000D03*
%TD*%
%TO.C,Q2*%
X224568000Y-98674000D03*
X224568000Y-96774000D03*
X226568000Y-97724000D03*
%TD*%
%TO.C,Q3*%
X244221000Y-97470000D03*
X246221000Y-98420000D03*
X246221000Y-96520000D03*
%TD*%
%TO.C,Q4*%
X242411000Y-97470000D03*
X240411000Y-96520000D03*
X240411000Y-98420000D03*
%TD*%
%TO.C,R5*%
G36*
G01*
X191107000Y-33470001D02*
X191107000Y-32569999D01*
G75*
G02*
X191356999Y-32320000I249999J0D01*
G01*
X191882001Y-32320000D01*
G75*
G02*
X192132000Y-32569999I0J-249999D01*
G01*
X192132000Y-33470001D01*
G75*
G02*
X191882001Y-33720000I-249999J0D01*
G01*
X191356999Y-33720000D01*
G75*
G02*
X191107000Y-33470001I0J249999D01*
G01*
G37*
G36*
G01*
X192932000Y-33470001D02*
X192932000Y-32569999D01*
G75*
G02*
X193181999Y-32320000I249999J0D01*
G01*
X193707001Y-32320000D01*
G75*
G02*
X193957000Y-32569999I0J-249999D01*
G01*
X193957000Y-33470001D01*
G75*
G02*
X193707001Y-33720000I-249999J0D01*
G01*
X193181999Y-33720000D01*
G75*
G02*
X192932000Y-33470001I0J249999D01*
G01*
G37*
%TD*%
%TO.C,R6*%
G36*
G01*
X229865500Y-102304001D02*
X229865500Y-101403999D01*
G75*
G02*
X230115499Y-101154000I249999J0D01*
G01*
X230640501Y-101154000D01*
G75*
G02*
X230890500Y-101403999I0J-249999D01*
G01*
X230890500Y-102304001D01*
G75*
G02*
X230640501Y-102554000I-249999J0D01*
G01*
X230115499Y-102554000D01*
G75*
G02*
X229865500Y-102304001I0J249999D01*
G01*
G37*
G36*
G01*
X228040500Y-102304001D02*
X228040500Y-101403999D01*
G75*
G02*
X228290499Y-101154000I249999J0D01*
G01*
X228815501Y-101154000D01*
G75*
G02*
X229065500Y-101403999I0J-249999D01*
G01*
X229065500Y-102304001D01*
G75*
G02*
X228815501Y-102554000I-249999J0D01*
G01*
X228290499Y-102554000D01*
G75*
G02*
X228040500Y-102304001I0J249999D01*
G01*
G37*
%TD*%
%TO.C,R7*%
G36*
G01*
X225175500Y-101403999D02*
X225175500Y-102304001D01*
G75*
G02*
X224925501Y-102554000I-249999J0D01*
G01*
X224400499Y-102554000D01*
G75*
G02*
X224150500Y-102304001I0J249999D01*
G01*
X224150500Y-101403999D01*
G75*
G02*
X224400499Y-101154000I249999J0D01*
G01*
X224925501Y-101154000D01*
G75*
G02*
X225175500Y-101403999I0J-249999D01*
G01*
G37*
G36*
G01*
X227000500Y-101403999D02*
X227000500Y-102304001D01*
G75*
G02*
X226750501Y-102554000I-249999J0D01*
G01*
X226225499Y-102554000D01*
G75*
G02*
X225975500Y-102304001I0J249999D01*
G01*
X225975500Y-101403999D01*
G75*
G02*
X226225499Y-101154000I249999J0D01*
G01*
X226750501Y-101154000D01*
G75*
G02*
X227000500Y-101403999I0J-249999D01*
G01*
G37*
%TD*%
%TO.C,R8*%
G36*
G01*
X245891000Y-102685001D02*
X245891000Y-101784999D01*
G75*
G02*
X246140999Y-101535000I249999J0D01*
G01*
X246666001Y-101535000D01*
G75*
G02*
X246916000Y-101784999I0J-249999D01*
G01*
X246916000Y-102685001D01*
G75*
G02*
X246666001Y-102935000I-249999J0D01*
G01*
X246140999Y-102935000D01*
G75*
G02*
X245891000Y-102685001I0J249999D01*
G01*
G37*
G36*
G01*
X244066000Y-102685001D02*
X244066000Y-101784999D01*
G75*
G02*
X244315999Y-101535000I249999J0D01*
G01*
X244841001Y-101535000D01*
G75*
G02*
X245091000Y-101784999I0J-249999D01*
G01*
X245091000Y-102685001D01*
G75*
G02*
X244841001Y-102935000I-249999J0D01*
G01*
X244315999Y-102935000D01*
G75*
G02*
X244066000Y-102685001I0J249999D01*
G01*
G37*
%TD*%
%TO.C,R9*%
G36*
G01*
X240923500Y-101784999D02*
X240923500Y-102685001D01*
G75*
G02*
X240673501Y-102935000I-249999J0D01*
G01*
X240148499Y-102935000D01*
G75*
G02*
X239898500Y-102685001I0J249999D01*
G01*
X239898500Y-101784999D01*
G75*
G02*
X240148499Y-101535000I249999J0D01*
G01*
X240673501Y-101535000D01*
G75*
G02*
X240923500Y-101784999I0J-249999D01*
G01*
G37*
G36*
G01*
X242748500Y-101784999D02*
X242748500Y-102685001D01*
G75*
G02*
X242498501Y-102935000I-249999J0D01*
G01*
X241973499Y-102935000D01*
G75*
G02*
X241723500Y-102685001I0J249999D01*
G01*
X241723500Y-101784999D01*
G75*
G02*
X241973499Y-101535000I249999J0D01*
G01*
X242498501Y-101535000D01*
G75*
G02*
X242748500Y-101784999I0J-249999D01*
G01*
G37*
%TD*%
%TO.C,R10*%
G36*
G01*
X189376000Y-33470001D02*
X189376000Y-32569999D01*
G75*
G02*
X189625999Y-32320000I249999J0D01*
G01*
X190151001Y-32320000D01*
G75*
G02*
X190401000Y-32569999I0J-249999D01*
G01*
X190401000Y-33470001D01*
G75*
G02*
X190151001Y-33720000I-249999J0D01*
G01*
X189625999Y-33720000D01*
G75*
G02*
X189376000Y-33470001I0J249999D01*
G01*
G37*
G36*
G01*
X187551000Y-33470001D02*
X187551000Y-32569999D01*
G75*
G02*
X187800999Y-32320000I249999J0D01*
G01*
X188326001Y-32320000D01*
G75*
G02*
X188576000Y-32569999I0J-249999D01*
G01*
X188576000Y-33470001D01*
G75*
G02*
X188326001Y-33720000I-249999J0D01*
G01*
X187800999Y-33720000D01*
G75*
G02*
X187551000Y-33470001I0J249999D01*
G01*
G37*
%TD*%
%TO.C,R11*%
G36*
G01*
X228040500Y-93414001D02*
X228040500Y-92513999D01*
G75*
G02*
X228290499Y-92264000I249999J0D01*
G01*
X228815501Y-92264000D01*
G75*
G02*
X229065500Y-92513999I0J-249999D01*
G01*
X229065500Y-93414001D01*
G75*
G02*
X228815501Y-93664000I-249999J0D01*
G01*
X228290499Y-93664000D01*
G75*
G02*
X228040500Y-93414001I0J249999D01*
G01*
G37*
G36*
G01*
X229865500Y-93414001D02*
X229865500Y-92513999D01*
G75*
G02*
X230115499Y-92264000I249999J0D01*
G01*
X230640501Y-92264000D01*
G75*
G02*
X230890500Y-92513999I0J-249999D01*
G01*
X230890500Y-93414001D01*
G75*
G02*
X230640501Y-93664000I-249999J0D01*
G01*
X230115499Y-93664000D01*
G75*
G02*
X229865500Y-93414001I0J249999D01*
G01*
G37*
%TD*%
%TO.C,R12*%
G36*
G01*
X226723000Y-92513999D02*
X226723000Y-93414001D01*
G75*
G02*
X226473001Y-93664000I-249999J0D01*
G01*
X225947999Y-93664000D01*
G75*
G02*
X225698000Y-93414001I0J249999D01*
G01*
X225698000Y-92513999D01*
G75*
G02*
X225947999Y-92264000I249999J0D01*
G01*
X226473001Y-92264000D01*
G75*
G02*
X226723000Y-92513999I0J-249999D01*
G01*
G37*
G36*
G01*
X224898000Y-92513999D02*
X224898000Y-93414001D01*
G75*
G02*
X224648001Y-93664000I-249999J0D01*
G01*
X224122999Y-93664000D01*
G75*
G02*
X223873000Y-93414001I0J249999D01*
G01*
X223873000Y-92513999D01*
G75*
G02*
X224122999Y-92264000I249999J0D01*
G01*
X224648001Y-92264000D01*
G75*
G02*
X224898000Y-92513999I0J-249999D01*
G01*
G37*
%TD*%
%TO.C,R13*%
G36*
G01*
X243788500Y-93160001D02*
X243788500Y-92259999D01*
G75*
G02*
X244038499Y-92010000I249999J0D01*
G01*
X244563501Y-92010000D01*
G75*
G02*
X244813500Y-92259999I0J-249999D01*
G01*
X244813500Y-93160001D01*
G75*
G02*
X244563501Y-93410000I-249999J0D01*
G01*
X244038499Y-93410000D01*
G75*
G02*
X243788500Y-93160001I0J249999D01*
G01*
G37*
G36*
G01*
X245613500Y-93160001D02*
X245613500Y-92259999D01*
G75*
G02*
X245863499Y-92010000I249999J0D01*
G01*
X246388501Y-92010000D01*
G75*
G02*
X246638500Y-92259999I0J-249999D01*
G01*
X246638500Y-93160001D01*
G75*
G02*
X246388501Y-93410000I-249999J0D01*
G01*
X245863499Y-93410000D01*
G75*
G02*
X245613500Y-93160001I0J249999D01*
G01*
G37*
%TD*%
%TO.C,R14*%
G36*
G01*
X242748500Y-92259999D02*
X242748500Y-93160001D01*
G75*
G02*
X242498501Y-93410000I-249999J0D01*
G01*
X241973499Y-93410000D01*
G75*
G02*
X241723500Y-93160001I0J249999D01*
G01*
X241723500Y-92259999D01*
G75*
G02*
X241973499Y-92010000I249999J0D01*
G01*
X242498501Y-92010000D01*
G75*
G02*
X242748500Y-92259999I0J-249999D01*
G01*
G37*
G36*
G01*
X240923500Y-92259999D02*
X240923500Y-93160001D01*
G75*
G02*
X240673501Y-93410000I-249999J0D01*
G01*
X240148499Y-93410000D01*
G75*
G02*
X239898500Y-93160001I0J249999D01*
G01*
X239898500Y-92259999D01*
G75*
G02*
X240148499Y-92010000I249999J0D01*
G01*
X240673501Y-92010000D01*
G75*
G02*
X240923500Y-92259999I0J-249999D01*
G01*
G37*
%TD*%
%TO.C,R15*%
G36*
G01*
X251021001Y-83420000D02*
X250120999Y-83420000D01*
G75*
G02*
X249871000Y-83170001I0J249999D01*
G01*
X249871000Y-82644999D01*
G75*
G02*
X250120999Y-82395000I249999J0D01*
G01*
X251021001Y-82395000D01*
G75*
G02*
X251271000Y-82644999I0J-249999D01*
G01*
X251271000Y-83170001D01*
G75*
G02*
X251021001Y-83420000I-249999J0D01*
G01*
G37*
G36*
G01*
X251021001Y-85245000D02*
X250120999Y-85245000D01*
G75*
G02*
X249871000Y-84995001I0J249999D01*
G01*
X249871000Y-84469999D01*
G75*
G02*
X250120999Y-84220000I249999J0D01*
G01*
X251021001Y-84220000D01*
G75*
G02*
X251271000Y-84469999I0J-249999D01*
G01*
X251271000Y-84995001D01*
G75*
G02*
X251021001Y-85245000I-249999J0D01*
G01*
G37*
%TD*%
%TO.C,R16*%
G36*
G01*
X236543001Y-83951500D02*
X235642999Y-83951500D01*
G75*
G02*
X235393000Y-83701501I0J249999D01*
G01*
X235393000Y-83176499D01*
G75*
G02*
X235642999Y-82926500I249999J0D01*
G01*
X236543001Y-82926500D01*
G75*
G02*
X236793000Y-83176499I0J-249999D01*
G01*
X236793000Y-83701501D01*
G75*
G02*
X236543001Y-83951500I-249999J0D01*
G01*
G37*
G36*
G01*
X236543001Y-85776500D02*
X235642999Y-85776500D01*
G75*
G02*
X235393000Y-85526501I0J249999D01*
G01*
X235393000Y-85001499D01*
G75*
G02*
X235642999Y-84751500I249999J0D01*
G01*
X236543001Y-84751500D01*
G75*
G02*
X236793000Y-85001499I0J-249999D01*
G01*
X236793000Y-85526501D01*
G75*
G02*
X236543001Y-85776500I-249999J0D01*
G01*
G37*
%TD*%
%TO.C,R17*%
G36*
G01*
X222942999Y-75306500D02*
X223843001Y-75306500D01*
G75*
G02*
X224093000Y-75556499I0J-249999D01*
G01*
X224093000Y-76081501D01*
G75*
G02*
X223843001Y-76331500I-249999J0D01*
G01*
X222942999Y-76331500D01*
G75*
G02*
X222693000Y-76081501I0J249999D01*
G01*
X222693000Y-75556499D01*
G75*
G02*
X222942999Y-75306500I249999J0D01*
G01*
G37*
G36*
G01*
X222942999Y-77131500D02*
X223843001Y-77131500D01*
G75*
G02*
X224093000Y-77381499I0J-249999D01*
G01*
X224093000Y-77906501D01*
G75*
G02*
X223843001Y-78156500I-249999J0D01*
G01*
X222942999Y-78156500D01*
G75*
G02*
X222693000Y-77906501I0J249999D01*
G01*
X222693000Y-77381499D01*
G75*
G02*
X222942999Y-77131500I249999J0D01*
G01*
G37*
%TD*%
%TO.C,R18*%
G36*
G01*
X237420999Y-74775000D02*
X238321001Y-74775000D01*
G75*
G02*
X238571000Y-75024999I0J-249999D01*
G01*
X238571000Y-75550001D01*
G75*
G02*
X238321001Y-75800000I-249999J0D01*
G01*
X237420999Y-75800000D01*
G75*
G02*
X237171000Y-75550001I0J249999D01*
G01*
X237171000Y-75024999D01*
G75*
G02*
X237420999Y-74775000I249999J0D01*
G01*
G37*
G36*
G01*
X237420999Y-76600000D02*
X238321001Y-76600000D01*
G75*
G02*
X238571000Y-76849999I0J-249999D01*
G01*
X238571000Y-77375001D01*
G75*
G02*
X238321001Y-77625000I-249999J0D01*
G01*
X237420999Y-77625000D01*
G75*
G02*
X237171000Y-77375001I0J249999D01*
G01*
X237171000Y-76849999D01*
G75*
G02*
X237420999Y-76600000I249999J0D01*
G01*
G37*
%TD*%
D22*
%TO.C,SW1*%
X169926000Y-67619000D03*
X169926000Y-63119000D03*
X176426000Y-67619000D03*
X176426000Y-63119000D03*
%TD*%
D23*
%TO.C,U2*%
X232283000Y-80264000D03*
X224663000Y-87884000D03*
X229743000Y-80264000D03*
X227203000Y-87884000D03*
X227203000Y-80264000D03*
X229743000Y-87884000D03*
X224663000Y-80264000D03*
D12*
X232283000Y-87884000D03*
%TD*%
%TO.C,U3*%
X246761000Y-87630000D03*
D23*
X239141000Y-80010000D03*
X244221000Y-87630000D03*
X241681000Y-80010000D03*
X241681000Y-87630000D03*
X244221000Y-80010000D03*
X239141000Y-87630000D03*
X246761000Y-80010000D03*
%TD*%
D22*
%TO.C,C16*%
X181610000Y-26536000D03*
D24*
X181610000Y-34036000D03*
%TD*%
%TO.C,C18*%
X187452000Y-17018000D03*
D22*
X187452000Y-24518000D03*
%TD*%
D11*
%TO.C,J7*%
X224282000Y-38989000D03*
D10*
X221742000Y-38989000D03*
X224282000Y-41529000D03*
X221742000Y-41529000D03*
X224282000Y-44069000D03*
X221742000Y-44069000D03*
%TD*%
M02*
