G04 #@! TF.GenerationSoftware,KiCad,Pcbnew,(5.1.8)-1*
G04 #@! TF.CreationDate,2022-07-24T23:30:39+02:00*
G04 #@! TF.ProjectId,Dashboard,44617368-626f-4617-9264-2e6b69636164,rev?*
G04 #@! TF.SameCoordinates,Original*
G04 #@! TF.FileFunction,Soldermask,Bot*
G04 #@! TF.FilePolarity,Negative*
%FSLAX46Y46*%
G04 Gerber Fmt 4.6, Leading zero omitted, Abs format (unit mm)*
G04 Created by KiCad (PCBNEW (5.1.8)-1) date 2022-07-24 23:30:39*
%MOMM*%
%LPD*%
G01*
G04 APERTURE LIST*
%ADD10C,0.800000*%
%ADD11C,6.400000*%
%ADD12R,2.600000X1.100000*%
%ADD13R,3.200000X3.200000*%
%ADD14R,0.475000X0.300000*%
%ADD15R,1.854500X2.286000*%
%ADD16R,1.500000X1.000000*%
%ADD17O,2.000000X1.905000*%
%ADD18R,2.000000X1.905000*%
%ADD19R,1.700000X1.700000*%
%ADD20O,1.700000X1.700000*%
%ADD21C,2.000000*%
G04 APERTURE END LIST*
D10*
X90597056Y-125302944D03*
X88900000Y-124600000D03*
X87202944Y-125302944D03*
X86500000Y-127000000D03*
X87202944Y-128697056D03*
X88900000Y-129400000D03*
X90597056Y-128697056D03*
X91300000Y-127000000D03*
D11*
X88900000Y-127000000D03*
D10*
X182672056Y-125302944D03*
X180975000Y-124600000D03*
X179277944Y-125302944D03*
X178575000Y-127000000D03*
X179277944Y-128697056D03*
X180975000Y-129400000D03*
X182672056Y-128697056D03*
X183375000Y-127000000D03*
D11*
X180975000Y-127000000D03*
D10*
X182672056Y-75899944D03*
X180975000Y-75197000D03*
X179277944Y-75899944D03*
X178575000Y-77597000D03*
X179277944Y-79294056D03*
X180975000Y-79997000D03*
X182672056Y-79294056D03*
X183375000Y-77597000D03*
D11*
X180975000Y-77597000D03*
D10*
X90597056Y-75899944D03*
X88900000Y-75197000D03*
X87202944Y-75899944D03*
X86500000Y-77597000D03*
X87202944Y-79294056D03*
X88900000Y-79997000D03*
X90597056Y-79294056D03*
X91300000Y-77597000D03*
D11*
X88900000Y-77597000D03*
D12*
X177672000Y-109022000D03*
X177672000Y-111022000D03*
X177672000Y-113022000D03*
X177672000Y-115022000D03*
X177672000Y-117022000D03*
X177672000Y-119022000D03*
X177672000Y-121022000D03*
X177672000Y-123022000D03*
X161672000Y-123022000D03*
X161672000Y-121022000D03*
X161672000Y-119022000D03*
X161672000Y-117022000D03*
X161672000Y-115022000D03*
X161672000Y-113022000D03*
X161672000Y-111022000D03*
X161672000Y-109022000D03*
D13*
X169672000Y-113722000D03*
G36*
G01*
X90096001Y-112315000D02*
X87195999Y-112315000D01*
G75*
G02*
X86946000Y-112065001I0J249999D01*
G01*
X86946000Y-111164999D01*
G75*
G02*
X87195999Y-110915000I249999J0D01*
G01*
X90096001Y-110915000D01*
G75*
G02*
X90346000Y-111164999I0J-249999D01*
G01*
X90346000Y-112065001D01*
G75*
G02*
X90096001Y-112315000I-249999J0D01*
G01*
G37*
G36*
G01*
X90096001Y-116415000D02*
X87195999Y-116415000D01*
G75*
G02*
X86946000Y-116165001I0J249999D01*
G01*
X86946000Y-115264999D01*
G75*
G02*
X87195999Y-115015000I249999J0D01*
G01*
X90096001Y-115015000D01*
G75*
G02*
X90346000Y-115264999I0J-249999D01*
G01*
X90346000Y-116165001D01*
G75*
G02*
X90096001Y-116415000I-249999J0D01*
G01*
G37*
G36*
G01*
X113849999Y-106167500D02*
X114750001Y-106167500D01*
G75*
G02*
X115000000Y-106417499I0J-249999D01*
G01*
X115000000Y-106942501D01*
G75*
G02*
X114750001Y-107192500I-249999J0D01*
G01*
X113849999Y-107192500D01*
G75*
G02*
X113600000Y-106942501I0J249999D01*
G01*
X113600000Y-106417499D01*
G75*
G02*
X113849999Y-106167500I249999J0D01*
G01*
G37*
G36*
G01*
X113849999Y-104342500D02*
X114750001Y-104342500D01*
G75*
G02*
X115000000Y-104592499I0J-249999D01*
G01*
X115000000Y-105117501D01*
G75*
G02*
X114750001Y-105367500I-249999J0D01*
G01*
X113849999Y-105367500D01*
G75*
G02*
X113600000Y-105117501I0J249999D01*
G01*
X113600000Y-104592499D01*
G75*
G02*
X113849999Y-104342500I249999J0D01*
G01*
G37*
G36*
G01*
X147861000Y-117036000D02*
X148811000Y-117036000D01*
G75*
G02*
X149061000Y-117286000I0J-250000D01*
G01*
X149061000Y-117786000D01*
G75*
G02*
X148811000Y-118036000I-250000J0D01*
G01*
X147861000Y-118036000D01*
G75*
G02*
X147611000Y-117786000I0J250000D01*
G01*
X147611000Y-117286000D01*
G75*
G02*
X147861000Y-117036000I250000J0D01*
G01*
G37*
G36*
G01*
X147861000Y-115136000D02*
X148811000Y-115136000D01*
G75*
G02*
X149061000Y-115386000I0J-250000D01*
G01*
X149061000Y-115886000D01*
G75*
G02*
X148811000Y-116136000I-250000J0D01*
G01*
X147861000Y-116136000D01*
G75*
G02*
X147611000Y-115886000I0J250000D01*
G01*
X147611000Y-115386000D01*
G75*
G02*
X147861000Y-115136000I250000J0D01*
G01*
G37*
G36*
G01*
X121216000Y-118397000D02*
X121216000Y-119347000D01*
G75*
G02*
X120966000Y-119597000I-250000J0D01*
G01*
X120466000Y-119597000D01*
G75*
G02*
X120216000Y-119347000I0J250000D01*
G01*
X120216000Y-118397000D01*
G75*
G02*
X120466000Y-118147000I250000J0D01*
G01*
X120966000Y-118147000D01*
G75*
G02*
X121216000Y-118397000I0J-250000D01*
G01*
G37*
G36*
G01*
X123116000Y-118397000D02*
X123116000Y-119347000D01*
G75*
G02*
X122866000Y-119597000I-250000J0D01*
G01*
X122366000Y-119597000D01*
G75*
G02*
X122116000Y-119347000I0J250000D01*
G01*
X122116000Y-118397000D01*
G75*
G02*
X122366000Y-118147000I250000J0D01*
G01*
X122866000Y-118147000D01*
G75*
G02*
X123116000Y-118397000I0J-250000D01*
G01*
G37*
G36*
G01*
X150147000Y-117036000D02*
X151097000Y-117036000D01*
G75*
G02*
X151347000Y-117286000I0J-250000D01*
G01*
X151347000Y-117786000D01*
G75*
G02*
X151097000Y-118036000I-250000J0D01*
G01*
X150147000Y-118036000D01*
G75*
G02*
X149897000Y-117786000I0J250000D01*
G01*
X149897000Y-117286000D01*
G75*
G02*
X150147000Y-117036000I250000J0D01*
G01*
G37*
G36*
G01*
X150147000Y-115136000D02*
X151097000Y-115136000D01*
G75*
G02*
X151347000Y-115386000I0J-250000D01*
G01*
X151347000Y-115886000D01*
G75*
G02*
X151097000Y-116136000I-250000J0D01*
G01*
X150147000Y-116136000D01*
G75*
G02*
X149897000Y-115886000I0J250000D01*
G01*
X149897000Y-115386000D01*
G75*
G02*
X150147000Y-115136000I250000J0D01*
G01*
G37*
G36*
G01*
X121216000Y-116111000D02*
X121216000Y-117061000D01*
G75*
G02*
X120966000Y-117311000I-250000J0D01*
G01*
X120466000Y-117311000D01*
G75*
G02*
X120216000Y-117061000I0J250000D01*
G01*
X120216000Y-116111000D01*
G75*
G02*
X120466000Y-115861000I250000J0D01*
G01*
X120966000Y-115861000D01*
G75*
G02*
X121216000Y-116111000I0J-250000D01*
G01*
G37*
G36*
G01*
X123116000Y-116111000D02*
X123116000Y-117061000D01*
G75*
G02*
X122866000Y-117311000I-250000J0D01*
G01*
X122366000Y-117311000D01*
G75*
G02*
X122116000Y-117061000I0J250000D01*
G01*
X122116000Y-116111000D01*
G75*
G02*
X122366000Y-115861000I250000J0D01*
G01*
X122866000Y-115861000D01*
G75*
G02*
X123116000Y-116111000I0J-250000D01*
G01*
G37*
G36*
G01*
X139951000Y-82837000D02*
X139951000Y-83787000D01*
G75*
G02*
X139701000Y-84037000I-250000J0D01*
G01*
X139201000Y-84037000D01*
G75*
G02*
X138951000Y-83787000I0J250000D01*
G01*
X138951000Y-82837000D01*
G75*
G02*
X139201000Y-82587000I250000J0D01*
G01*
X139701000Y-82587000D01*
G75*
G02*
X139951000Y-82837000I0J-250000D01*
G01*
G37*
G36*
G01*
X141851000Y-82837000D02*
X141851000Y-83787000D01*
G75*
G02*
X141601000Y-84037000I-250000J0D01*
G01*
X141101000Y-84037000D01*
G75*
G02*
X140851000Y-83787000I0J250000D01*
G01*
X140851000Y-82837000D01*
G75*
G02*
X141101000Y-82587000I250000J0D01*
G01*
X141601000Y-82587000D01*
G75*
G02*
X141851000Y-82837000I0J-250000D01*
G01*
G37*
G36*
G01*
X88527000Y-118839000D02*
X88527000Y-117889000D01*
G75*
G02*
X88777000Y-117639000I250000J0D01*
G01*
X89277000Y-117639000D01*
G75*
G02*
X89527000Y-117889000I0J-250000D01*
G01*
X89527000Y-118839000D01*
G75*
G02*
X89277000Y-119089000I-250000J0D01*
G01*
X88777000Y-119089000D01*
G75*
G02*
X88527000Y-118839000I0J250000D01*
G01*
G37*
G36*
G01*
X86627000Y-118839000D02*
X86627000Y-117889000D01*
G75*
G02*
X86877000Y-117639000I250000J0D01*
G01*
X87377000Y-117639000D01*
G75*
G02*
X87627000Y-117889000I0J-250000D01*
G01*
X87627000Y-118839000D01*
G75*
G02*
X87377000Y-119089000I-250000J0D01*
G01*
X86877000Y-119089000D01*
G75*
G02*
X86627000Y-118839000I0J250000D01*
G01*
G37*
G36*
G01*
X144305000Y-108781000D02*
X145255000Y-108781000D01*
G75*
G02*
X145505000Y-109031000I0J-250000D01*
G01*
X145505000Y-109531000D01*
G75*
G02*
X145255000Y-109781000I-250000J0D01*
G01*
X144305000Y-109781000D01*
G75*
G02*
X144055000Y-109531000I0J250000D01*
G01*
X144055000Y-109031000D01*
G75*
G02*
X144305000Y-108781000I250000J0D01*
G01*
G37*
G36*
G01*
X144305000Y-106881000D02*
X145255000Y-106881000D01*
G75*
G02*
X145505000Y-107131000I0J-250000D01*
G01*
X145505000Y-107631000D01*
G75*
G02*
X145255000Y-107881000I-250000J0D01*
G01*
X144305000Y-107881000D01*
G75*
G02*
X144055000Y-107631000I0J250000D01*
G01*
X144055000Y-107131000D01*
G75*
G02*
X144305000Y-106881000I250000J0D01*
G01*
G37*
G36*
G01*
X124366000Y-113734000D02*
X125316000Y-113734000D01*
G75*
G02*
X125566000Y-113984000I0J-250000D01*
G01*
X125566000Y-114484000D01*
G75*
G02*
X125316000Y-114734000I-250000J0D01*
G01*
X124366000Y-114734000D01*
G75*
G02*
X124116000Y-114484000I0J250000D01*
G01*
X124116000Y-113984000D01*
G75*
G02*
X124366000Y-113734000I250000J0D01*
G01*
G37*
G36*
G01*
X124366000Y-111834000D02*
X125316000Y-111834000D01*
G75*
G02*
X125566000Y-112084000I0J-250000D01*
G01*
X125566000Y-112584000D01*
G75*
G02*
X125316000Y-112834000I-250000J0D01*
G01*
X124366000Y-112834000D01*
G75*
G02*
X124116000Y-112584000I0J250000D01*
G01*
X124116000Y-112084000D01*
G75*
G02*
X124366000Y-111834000I250000J0D01*
G01*
G37*
G36*
G01*
X149675000Y-91661000D02*
X149675000Y-90711000D01*
G75*
G02*
X149925000Y-90461000I250000J0D01*
G01*
X150425000Y-90461000D01*
G75*
G02*
X150675000Y-90711000I0J-250000D01*
G01*
X150675000Y-91661000D01*
G75*
G02*
X150425000Y-91911000I-250000J0D01*
G01*
X149925000Y-91911000D01*
G75*
G02*
X149675000Y-91661000I0J250000D01*
G01*
G37*
G36*
G01*
X147775000Y-91661000D02*
X147775000Y-90711000D01*
G75*
G02*
X148025000Y-90461000I250000J0D01*
G01*
X148525000Y-90461000D01*
G75*
G02*
X148775000Y-90711000I0J-250000D01*
G01*
X148775000Y-91661000D01*
G75*
G02*
X148525000Y-91911000I-250000J0D01*
G01*
X148025000Y-91911000D01*
G75*
G02*
X147775000Y-91661000I0J250000D01*
G01*
G37*
G36*
G01*
X125443000Y-108516000D02*
X124493000Y-108516000D01*
G75*
G02*
X124243000Y-108266000I0J250000D01*
G01*
X124243000Y-107766000D01*
G75*
G02*
X124493000Y-107516000I250000J0D01*
G01*
X125443000Y-107516000D01*
G75*
G02*
X125693000Y-107766000I0J-250000D01*
G01*
X125693000Y-108266000D01*
G75*
G02*
X125443000Y-108516000I-250000J0D01*
G01*
G37*
G36*
G01*
X125443000Y-110416000D02*
X124493000Y-110416000D01*
G75*
G02*
X124243000Y-110166000I0J250000D01*
G01*
X124243000Y-109666000D01*
G75*
G02*
X124493000Y-109416000I250000J0D01*
G01*
X125443000Y-109416000D01*
G75*
G02*
X125693000Y-109666000I0J-250000D01*
G01*
X125693000Y-110166000D01*
G75*
G02*
X125443000Y-110416000I-250000J0D01*
G01*
G37*
G36*
G01*
X140647000Y-98966000D02*
X140647000Y-99916000D01*
G75*
G02*
X140397000Y-100166000I-250000J0D01*
G01*
X139897000Y-100166000D01*
G75*
G02*
X139647000Y-99916000I0J250000D01*
G01*
X139647000Y-98966000D01*
G75*
G02*
X139897000Y-98716000I250000J0D01*
G01*
X140397000Y-98716000D01*
G75*
G02*
X140647000Y-98966000I0J-250000D01*
G01*
G37*
G36*
G01*
X142547000Y-98966000D02*
X142547000Y-99916000D01*
G75*
G02*
X142297000Y-100166000I-250000J0D01*
G01*
X141797000Y-100166000D01*
G75*
G02*
X141547000Y-99916000I0J250000D01*
G01*
X141547000Y-98966000D01*
G75*
G02*
X141797000Y-98716000I250000J0D01*
G01*
X142297000Y-98716000D01*
G75*
G02*
X142547000Y-98966000I0J-250000D01*
G01*
G37*
G36*
G01*
X143035000Y-84585000D02*
X143985000Y-84585000D01*
G75*
G02*
X144235000Y-84835000I0J-250000D01*
G01*
X144235000Y-85335000D01*
G75*
G02*
X143985000Y-85585000I-250000J0D01*
G01*
X143035000Y-85585000D01*
G75*
G02*
X142785000Y-85335000I0J250000D01*
G01*
X142785000Y-84835000D01*
G75*
G02*
X143035000Y-84585000I250000J0D01*
G01*
G37*
G36*
G01*
X143035000Y-82685000D02*
X143985000Y-82685000D01*
G75*
G02*
X144235000Y-82935000I0J-250000D01*
G01*
X144235000Y-83435000D01*
G75*
G02*
X143985000Y-83685000I-250000J0D01*
G01*
X143035000Y-83685000D01*
G75*
G02*
X142785000Y-83435000I0J250000D01*
G01*
X142785000Y-82935000D01*
G75*
G02*
X143035000Y-82685000I250000J0D01*
G01*
G37*
G36*
G01*
X128593000Y-93439000D02*
X128593000Y-92489000D01*
G75*
G02*
X128843000Y-92239000I250000J0D01*
G01*
X129343000Y-92239000D01*
G75*
G02*
X129593000Y-92489000I0J-250000D01*
G01*
X129593000Y-93439000D01*
G75*
G02*
X129343000Y-93689000I-250000J0D01*
G01*
X128843000Y-93689000D01*
G75*
G02*
X128593000Y-93439000I0J250000D01*
G01*
G37*
G36*
G01*
X126693000Y-93439000D02*
X126693000Y-92489000D01*
G75*
G02*
X126943000Y-92239000I250000J0D01*
G01*
X127443000Y-92239000D01*
G75*
G02*
X127693000Y-92489000I0J-250000D01*
G01*
X127693000Y-93439000D01*
G75*
G02*
X127443000Y-93689000I-250000J0D01*
G01*
X126943000Y-93689000D01*
G75*
G02*
X126693000Y-93439000I0J250000D01*
G01*
G37*
G36*
G01*
X132392000Y-102268000D02*
X132392000Y-103218000D01*
G75*
G02*
X132142000Y-103468000I-250000J0D01*
G01*
X131642000Y-103468000D01*
G75*
G02*
X131392000Y-103218000I0J250000D01*
G01*
X131392000Y-102268000D01*
G75*
G02*
X131642000Y-102018000I250000J0D01*
G01*
X132142000Y-102018000D01*
G75*
G02*
X132392000Y-102268000I0J-250000D01*
G01*
G37*
G36*
G01*
X134292000Y-102268000D02*
X134292000Y-103218000D01*
G75*
G02*
X134042000Y-103468000I-250000J0D01*
G01*
X133542000Y-103468000D01*
G75*
G02*
X133292000Y-103218000I0J250000D01*
G01*
X133292000Y-102268000D01*
G75*
G02*
X133542000Y-102018000I250000J0D01*
G01*
X134042000Y-102018000D01*
G75*
G02*
X134292000Y-102268000I0J-250000D01*
G01*
G37*
G36*
G01*
X119946000Y-101379000D02*
X119946000Y-102329000D01*
G75*
G02*
X119696000Y-102579000I-250000J0D01*
G01*
X119196000Y-102579000D01*
G75*
G02*
X118946000Y-102329000I0J250000D01*
G01*
X118946000Y-101379000D01*
G75*
G02*
X119196000Y-101129000I250000J0D01*
G01*
X119696000Y-101129000D01*
G75*
G02*
X119946000Y-101379000I0J-250000D01*
G01*
G37*
G36*
G01*
X121846000Y-101379000D02*
X121846000Y-102329000D01*
G75*
G02*
X121596000Y-102579000I-250000J0D01*
G01*
X121096000Y-102579000D01*
G75*
G02*
X120846000Y-102329000I0J250000D01*
G01*
X120846000Y-101379000D01*
G75*
G02*
X121096000Y-101129000I250000J0D01*
G01*
X121596000Y-101129000D01*
G75*
G02*
X121846000Y-101379000I0J-250000D01*
G01*
G37*
G36*
G01*
X134054000Y-80739000D02*
X134054000Y-79789000D01*
G75*
G02*
X134304000Y-79539000I250000J0D01*
G01*
X134804000Y-79539000D01*
G75*
G02*
X135054000Y-79789000I0J-250000D01*
G01*
X135054000Y-80739000D01*
G75*
G02*
X134804000Y-80989000I-250000J0D01*
G01*
X134304000Y-80989000D01*
G75*
G02*
X134054000Y-80739000I0J250000D01*
G01*
G37*
G36*
G01*
X132154000Y-80739000D02*
X132154000Y-79789000D01*
G75*
G02*
X132404000Y-79539000I250000J0D01*
G01*
X132904000Y-79539000D01*
G75*
G02*
X133154000Y-79789000I0J-250000D01*
G01*
X133154000Y-80739000D01*
G75*
G02*
X132904000Y-80989000I-250000J0D01*
G01*
X132404000Y-80989000D01*
G75*
G02*
X132154000Y-80739000I0J250000D01*
G01*
G37*
G36*
G01*
X137406000Y-102268000D02*
X137406000Y-103218000D01*
G75*
G02*
X137156000Y-103468000I-250000J0D01*
G01*
X136656000Y-103468000D01*
G75*
G02*
X136406000Y-103218000I0J250000D01*
G01*
X136406000Y-102268000D01*
G75*
G02*
X136656000Y-102018000I250000J0D01*
G01*
X137156000Y-102018000D01*
G75*
G02*
X137406000Y-102268000I0J-250000D01*
G01*
G37*
G36*
G01*
X139306000Y-102268000D02*
X139306000Y-103218000D01*
G75*
G02*
X139056000Y-103468000I-250000J0D01*
G01*
X138556000Y-103468000D01*
G75*
G02*
X138306000Y-103218000I0J250000D01*
G01*
X138306000Y-102268000D01*
G75*
G02*
X138556000Y-102018000I250000J0D01*
G01*
X139056000Y-102018000D01*
G75*
G02*
X139306000Y-102268000I0J-250000D01*
G01*
G37*
D14*
X102540000Y-120916000D03*
X102540000Y-121416000D03*
X102540000Y-121916000D03*
X102540000Y-122416000D03*
X104216000Y-122416000D03*
X104216000Y-121916000D03*
X104216000Y-121416000D03*
X104216000Y-120916000D03*
G36*
G01*
X94088000Y-116389999D02*
X94088000Y-117290001D01*
G75*
G02*
X93838001Y-117540000I-249999J0D01*
G01*
X93312999Y-117540000D01*
G75*
G02*
X93063000Y-117290001I0J249999D01*
G01*
X93063000Y-116389999D01*
G75*
G02*
X93312999Y-116140000I249999J0D01*
G01*
X93838001Y-116140000D01*
G75*
G02*
X94088000Y-116389999I0J-249999D01*
G01*
G37*
G36*
G01*
X95913000Y-116389999D02*
X95913000Y-117290001D01*
G75*
G02*
X95663001Y-117540000I-249999J0D01*
G01*
X95137999Y-117540000D01*
G75*
G02*
X94888000Y-117290001I0J249999D01*
G01*
X94888000Y-116389999D01*
G75*
G02*
X95137999Y-116140000I249999J0D01*
G01*
X95663001Y-116140000D01*
G75*
G02*
X95913000Y-116389999I0J-249999D01*
G01*
G37*
G36*
G01*
X99460000Y-117290001D02*
X99460000Y-116389999D01*
G75*
G02*
X99709999Y-116140000I249999J0D01*
G01*
X100235001Y-116140000D01*
G75*
G02*
X100485000Y-116389999I0J-249999D01*
G01*
X100485000Y-117290001D01*
G75*
G02*
X100235001Y-117540000I-249999J0D01*
G01*
X99709999Y-117540000D01*
G75*
G02*
X99460000Y-117290001I0J249999D01*
G01*
G37*
G36*
G01*
X97635000Y-117290001D02*
X97635000Y-116389999D01*
G75*
G02*
X97884999Y-116140000I249999J0D01*
G01*
X98410001Y-116140000D01*
G75*
G02*
X98660000Y-116389999I0J-249999D01*
G01*
X98660000Y-117290001D01*
G75*
G02*
X98410001Y-117540000I-249999J0D01*
G01*
X97884999Y-117540000D01*
G75*
G02*
X97635000Y-117290001I0J249999D01*
G01*
G37*
G36*
G01*
X99460000Y-119576001D02*
X99460000Y-118675999D01*
G75*
G02*
X99709999Y-118426000I249999J0D01*
G01*
X100235001Y-118426000D01*
G75*
G02*
X100485000Y-118675999I0J-249999D01*
G01*
X100485000Y-119576001D01*
G75*
G02*
X100235001Y-119826000I-249999J0D01*
G01*
X99709999Y-119826000D01*
G75*
G02*
X99460000Y-119576001I0J249999D01*
G01*
G37*
G36*
G01*
X97635000Y-119576001D02*
X97635000Y-118675999D01*
G75*
G02*
X97884999Y-118426000I249999J0D01*
G01*
X98410001Y-118426000D01*
G75*
G02*
X98660000Y-118675999I0J-249999D01*
G01*
X98660000Y-119576001D01*
G75*
G02*
X98410001Y-119826000I-249999J0D01*
G01*
X97884999Y-119826000D01*
G75*
G02*
X97635000Y-119576001I0J249999D01*
G01*
G37*
G36*
G01*
X102978000Y-125025999D02*
X102978000Y-125926001D01*
G75*
G02*
X102728001Y-126176000I-249999J0D01*
G01*
X102202999Y-126176000D01*
G75*
G02*
X101953000Y-125926001I0J249999D01*
G01*
X101953000Y-125025999D01*
G75*
G02*
X102202999Y-124776000I249999J0D01*
G01*
X102728001Y-124776000D01*
G75*
G02*
X102978000Y-125025999I0J-249999D01*
G01*
G37*
G36*
G01*
X104803000Y-125025999D02*
X104803000Y-125926001D01*
G75*
G02*
X104553001Y-126176000I-249999J0D01*
G01*
X104027999Y-126176000D01*
G75*
G02*
X103778000Y-125926001I0J249999D01*
G01*
X103778000Y-125025999D01*
G75*
G02*
X104027999Y-124776000I249999J0D01*
G01*
X104553001Y-124776000D01*
G75*
G02*
X104803000Y-125025999I0J-249999D01*
G01*
G37*
G36*
G01*
X99460000Y-124148001D02*
X99460000Y-123247999D01*
G75*
G02*
X99709999Y-122998000I249999J0D01*
G01*
X100235001Y-122998000D01*
G75*
G02*
X100485000Y-123247999I0J-249999D01*
G01*
X100485000Y-124148001D01*
G75*
G02*
X100235001Y-124398000I-249999J0D01*
G01*
X99709999Y-124398000D01*
G75*
G02*
X99460000Y-124148001I0J249999D01*
G01*
G37*
G36*
G01*
X97635000Y-124148001D02*
X97635000Y-123247999D01*
G75*
G02*
X97884999Y-122998000I249999J0D01*
G01*
X98410001Y-122998000D01*
G75*
G02*
X98660000Y-123247999I0J-249999D01*
G01*
X98660000Y-124148001D01*
G75*
G02*
X98410001Y-124398000I-249999J0D01*
G01*
X97884999Y-124398000D01*
G75*
G02*
X97635000Y-124148001I0J249999D01*
G01*
G37*
D15*
X112382250Y-121412000D03*
X108597750Y-121412000D03*
G36*
G01*
X109761000Y-116020000D02*
X110711000Y-116020000D01*
G75*
G02*
X110961000Y-116270000I0J-250000D01*
G01*
X110961000Y-116770000D01*
G75*
G02*
X110711000Y-117020000I-250000J0D01*
G01*
X109761000Y-117020000D01*
G75*
G02*
X109511000Y-116770000I0J250000D01*
G01*
X109511000Y-116270000D01*
G75*
G02*
X109761000Y-116020000I250000J0D01*
G01*
G37*
G36*
G01*
X109761000Y-114120000D02*
X110711000Y-114120000D01*
G75*
G02*
X110961000Y-114370000I0J-250000D01*
G01*
X110961000Y-114870000D01*
G75*
G02*
X110711000Y-115120000I-250000J0D01*
G01*
X109761000Y-115120000D01*
G75*
G02*
X109511000Y-114870000I0J250000D01*
G01*
X109511000Y-114370000D01*
G75*
G02*
X109761000Y-114120000I250000J0D01*
G01*
G37*
G36*
G01*
X112047000Y-116020000D02*
X112997000Y-116020000D01*
G75*
G02*
X113247000Y-116270000I0J-250000D01*
G01*
X113247000Y-116770000D01*
G75*
G02*
X112997000Y-117020000I-250000J0D01*
G01*
X112047000Y-117020000D01*
G75*
G02*
X111797000Y-116770000I0J250000D01*
G01*
X111797000Y-116270000D01*
G75*
G02*
X112047000Y-116020000I250000J0D01*
G01*
G37*
G36*
G01*
X112047000Y-114120000D02*
X112997000Y-114120000D01*
G75*
G02*
X113247000Y-114370000I0J-250000D01*
G01*
X113247000Y-114870000D01*
G75*
G02*
X112997000Y-115120000I-250000J0D01*
G01*
X112047000Y-115120000D01*
G75*
G02*
X111797000Y-114870000I0J250000D01*
G01*
X111797000Y-114370000D01*
G75*
G02*
X112047000Y-114120000I250000J0D01*
G01*
G37*
G36*
G01*
X94038000Y-118651000D02*
X94038000Y-119601000D01*
G75*
G02*
X93788000Y-119851000I-250000J0D01*
G01*
X93288000Y-119851000D01*
G75*
G02*
X93038000Y-119601000I0J250000D01*
G01*
X93038000Y-118651000D01*
G75*
G02*
X93288000Y-118401000I250000J0D01*
G01*
X93788000Y-118401000D01*
G75*
G02*
X94038000Y-118651000I0J-250000D01*
G01*
G37*
G36*
G01*
X95938000Y-118651000D02*
X95938000Y-119601000D01*
G75*
G02*
X95688000Y-119851000I-250000J0D01*
G01*
X95188000Y-119851000D01*
G75*
G02*
X94938000Y-119601000I0J250000D01*
G01*
X94938000Y-118651000D01*
G75*
G02*
X95188000Y-118401000I250000J0D01*
G01*
X95688000Y-118401000D01*
G75*
G02*
X95938000Y-118651000I0J-250000D01*
G01*
G37*
G36*
G01*
X108146000Y-125951000D02*
X108146000Y-125001000D01*
G75*
G02*
X108396000Y-124751000I250000J0D01*
G01*
X108896000Y-124751000D01*
G75*
G02*
X109146000Y-125001000I0J-250000D01*
G01*
X109146000Y-125951000D01*
G75*
G02*
X108896000Y-126201000I-250000J0D01*
G01*
X108396000Y-126201000D01*
G75*
G02*
X108146000Y-125951000I0J250000D01*
G01*
G37*
G36*
G01*
X106246000Y-125951000D02*
X106246000Y-125001000D01*
G75*
G02*
X106496000Y-124751000I250000J0D01*
G01*
X106996000Y-124751000D01*
G75*
G02*
X107246000Y-125001000I0J-250000D01*
G01*
X107246000Y-125951000D01*
G75*
G02*
X106996000Y-126201000I-250000J0D01*
G01*
X106496000Y-126201000D01*
G75*
G02*
X106246000Y-125951000I0J250000D01*
G01*
G37*
G36*
G01*
X99510000Y-121887000D02*
X99510000Y-120937000D01*
G75*
G02*
X99760000Y-120687000I250000J0D01*
G01*
X100260000Y-120687000D01*
G75*
G02*
X100510000Y-120937000I0J-250000D01*
G01*
X100510000Y-121887000D01*
G75*
G02*
X100260000Y-122137000I-250000J0D01*
G01*
X99760000Y-122137000D01*
G75*
G02*
X99510000Y-121887000I0J250000D01*
G01*
G37*
G36*
G01*
X97610000Y-121887000D02*
X97610000Y-120937000D01*
G75*
G02*
X97860000Y-120687000I250000J0D01*
G01*
X98360000Y-120687000D01*
G75*
G02*
X98610000Y-120937000I0J-250000D01*
G01*
X98610000Y-121887000D01*
G75*
G02*
X98360000Y-122137000I-250000J0D01*
G01*
X97860000Y-122137000D01*
G75*
G02*
X97610000Y-121887000I0J250000D01*
G01*
G37*
G36*
G01*
X103665000Y-118240000D02*
X104615000Y-118240000D01*
G75*
G02*
X104865000Y-118490000I0J-250000D01*
G01*
X104865000Y-118990000D01*
G75*
G02*
X104615000Y-119240000I-250000J0D01*
G01*
X103665000Y-119240000D01*
G75*
G02*
X103415000Y-118990000I0J250000D01*
G01*
X103415000Y-118490000D01*
G75*
G02*
X103665000Y-118240000I250000J0D01*
G01*
G37*
G36*
G01*
X103665000Y-116340000D02*
X104615000Y-116340000D01*
G75*
G02*
X104865000Y-116590000I0J-250000D01*
G01*
X104865000Y-117090000D01*
G75*
G02*
X104615000Y-117340000I-250000J0D01*
G01*
X103665000Y-117340000D01*
G75*
G02*
X103415000Y-117090000I0J250000D01*
G01*
X103415000Y-116590000D01*
G75*
G02*
X103665000Y-116340000I250000J0D01*
G01*
G37*
D16*
X87122000Y-102885000D03*
X87122000Y-101585000D03*
X87122000Y-91709000D03*
X87122000Y-90409000D03*
G36*
G01*
X91972000Y-102466000D02*
X91972000Y-102766000D01*
G75*
G02*
X91822000Y-102916000I-150000J0D01*
G01*
X90172000Y-102916000D01*
G75*
G02*
X90022000Y-102766000I0J150000D01*
G01*
X90022000Y-102466000D01*
G75*
G02*
X90172000Y-102316000I150000J0D01*
G01*
X91822000Y-102316000D01*
G75*
G02*
X91972000Y-102466000I0J-150000D01*
G01*
G37*
G36*
G01*
X91972000Y-103736000D02*
X91972000Y-104036000D01*
G75*
G02*
X91822000Y-104186000I-150000J0D01*
G01*
X90172000Y-104186000D01*
G75*
G02*
X90022000Y-104036000I0J150000D01*
G01*
X90022000Y-103736000D01*
G75*
G02*
X90172000Y-103586000I150000J0D01*
G01*
X91822000Y-103586000D01*
G75*
G02*
X91972000Y-103736000I0J-150000D01*
G01*
G37*
G36*
G01*
X91972000Y-105006000D02*
X91972000Y-105306000D01*
G75*
G02*
X91822000Y-105456000I-150000J0D01*
G01*
X90172000Y-105456000D01*
G75*
G02*
X90022000Y-105306000I0J150000D01*
G01*
X90022000Y-105006000D01*
G75*
G02*
X90172000Y-104856000I150000J0D01*
G01*
X91822000Y-104856000D01*
G75*
G02*
X91972000Y-105006000I0J-150000D01*
G01*
G37*
G36*
G01*
X91972000Y-106276000D02*
X91972000Y-106576000D01*
G75*
G02*
X91822000Y-106726000I-150000J0D01*
G01*
X90172000Y-106726000D01*
G75*
G02*
X90022000Y-106576000I0J150000D01*
G01*
X90022000Y-106276000D01*
G75*
G02*
X90172000Y-106126000I150000J0D01*
G01*
X91822000Y-106126000D01*
G75*
G02*
X91972000Y-106276000I0J-150000D01*
G01*
G37*
G36*
G01*
X96922000Y-106276000D02*
X96922000Y-106576000D01*
G75*
G02*
X96772000Y-106726000I-150000J0D01*
G01*
X95122000Y-106726000D01*
G75*
G02*
X94972000Y-106576000I0J150000D01*
G01*
X94972000Y-106276000D01*
G75*
G02*
X95122000Y-106126000I150000J0D01*
G01*
X96772000Y-106126000D01*
G75*
G02*
X96922000Y-106276000I0J-150000D01*
G01*
G37*
G36*
G01*
X96922000Y-105006000D02*
X96922000Y-105306000D01*
G75*
G02*
X96772000Y-105456000I-150000J0D01*
G01*
X95122000Y-105456000D01*
G75*
G02*
X94972000Y-105306000I0J150000D01*
G01*
X94972000Y-105006000D01*
G75*
G02*
X95122000Y-104856000I150000J0D01*
G01*
X96772000Y-104856000D01*
G75*
G02*
X96922000Y-105006000I0J-150000D01*
G01*
G37*
G36*
G01*
X96922000Y-103736000D02*
X96922000Y-104036000D01*
G75*
G02*
X96772000Y-104186000I-150000J0D01*
G01*
X95122000Y-104186000D01*
G75*
G02*
X94972000Y-104036000I0J150000D01*
G01*
X94972000Y-103736000D01*
G75*
G02*
X95122000Y-103586000I150000J0D01*
G01*
X96772000Y-103586000D01*
G75*
G02*
X96922000Y-103736000I0J-150000D01*
G01*
G37*
G36*
G01*
X96922000Y-102466000D02*
X96922000Y-102766000D01*
G75*
G02*
X96772000Y-102916000I-150000J0D01*
G01*
X95122000Y-102916000D01*
G75*
G02*
X94972000Y-102766000I0J150000D01*
G01*
X94972000Y-102466000D01*
G75*
G02*
X95122000Y-102316000I150000J0D01*
G01*
X96772000Y-102316000D01*
G75*
G02*
X96922000Y-102466000I0J-150000D01*
G01*
G37*
G36*
G01*
X91972000Y-90782000D02*
X91972000Y-91082000D01*
G75*
G02*
X91822000Y-91232000I-150000J0D01*
G01*
X90172000Y-91232000D01*
G75*
G02*
X90022000Y-91082000I0J150000D01*
G01*
X90022000Y-90782000D01*
G75*
G02*
X90172000Y-90632000I150000J0D01*
G01*
X91822000Y-90632000D01*
G75*
G02*
X91972000Y-90782000I0J-150000D01*
G01*
G37*
G36*
G01*
X91972000Y-92052000D02*
X91972000Y-92352000D01*
G75*
G02*
X91822000Y-92502000I-150000J0D01*
G01*
X90172000Y-92502000D01*
G75*
G02*
X90022000Y-92352000I0J150000D01*
G01*
X90022000Y-92052000D01*
G75*
G02*
X90172000Y-91902000I150000J0D01*
G01*
X91822000Y-91902000D01*
G75*
G02*
X91972000Y-92052000I0J-150000D01*
G01*
G37*
G36*
G01*
X91972000Y-93322000D02*
X91972000Y-93622000D01*
G75*
G02*
X91822000Y-93772000I-150000J0D01*
G01*
X90172000Y-93772000D01*
G75*
G02*
X90022000Y-93622000I0J150000D01*
G01*
X90022000Y-93322000D01*
G75*
G02*
X90172000Y-93172000I150000J0D01*
G01*
X91822000Y-93172000D01*
G75*
G02*
X91972000Y-93322000I0J-150000D01*
G01*
G37*
G36*
G01*
X91972000Y-94592000D02*
X91972000Y-94892000D01*
G75*
G02*
X91822000Y-95042000I-150000J0D01*
G01*
X90172000Y-95042000D01*
G75*
G02*
X90022000Y-94892000I0J150000D01*
G01*
X90022000Y-94592000D01*
G75*
G02*
X90172000Y-94442000I150000J0D01*
G01*
X91822000Y-94442000D01*
G75*
G02*
X91972000Y-94592000I0J-150000D01*
G01*
G37*
G36*
G01*
X96922000Y-94592000D02*
X96922000Y-94892000D01*
G75*
G02*
X96772000Y-95042000I-150000J0D01*
G01*
X95122000Y-95042000D01*
G75*
G02*
X94972000Y-94892000I0J150000D01*
G01*
X94972000Y-94592000D01*
G75*
G02*
X95122000Y-94442000I150000J0D01*
G01*
X96772000Y-94442000D01*
G75*
G02*
X96922000Y-94592000I0J-150000D01*
G01*
G37*
G36*
G01*
X96922000Y-93322000D02*
X96922000Y-93622000D01*
G75*
G02*
X96772000Y-93772000I-150000J0D01*
G01*
X95122000Y-93772000D01*
G75*
G02*
X94972000Y-93622000I0J150000D01*
G01*
X94972000Y-93322000D01*
G75*
G02*
X95122000Y-93172000I150000J0D01*
G01*
X96772000Y-93172000D01*
G75*
G02*
X96922000Y-93322000I0J-150000D01*
G01*
G37*
G36*
G01*
X96922000Y-92052000D02*
X96922000Y-92352000D01*
G75*
G02*
X96772000Y-92502000I-150000J0D01*
G01*
X95122000Y-92502000D01*
G75*
G02*
X94972000Y-92352000I0J150000D01*
G01*
X94972000Y-92052000D01*
G75*
G02*
X95122000Y-91902000I150000J0D01*
G01*
X96772000Y-91902000D01*
G75*
G02*
X96922000Y-92052000I0J-150000D01*
G01*
G37*
G36*
G01*
X96922000Y-90782000D02*
X96922000Y-91082000D01*
G75*
G02*
X96772000Y-91232000I-150000J0D01*
G01*
X95122000Y-91232000D01*
G75*
G02*
X94972000Y-91082000I0J150000D01*
G01*
X94972000Y-90782000D01*
G75*
G02*
X95122000Y-90632000I150000J0D01*
G01*
X96772000Y-90632000D01*
G75*
G02*
X96922000Y-90782000I0J-150000D01*
G01*
G37*
D17*
X157226000Y-126492000D03*
X157226000Y-123952000D03*
D18*
X157226000Y-121412000D03*
D19*
X151130000Y-120904000D03*
D20*
X151130000Y-123444000D03*
X151130000Y-125984000D03*
X151130000Y-128524000D03*
G36*
G01*
X180448000Y-102419999D02*
X180448000Y-103320001D01*
G75*
G02*
X180198001Y-103570000I-249999J0D01*
G01*
X179672999Y-103570000D01*
G75*
G02*
X179423000Y-103320001I0J249999D01*
G01*
X179423000Y-102419999D01*
G75*
G02*
X179672999Y-102170000I249999J0D01*
G01*
X180198001Y-102170000D01*
G75*
G02*
X180448000Y-102419999I0J-249999D01*
G01*
G37*
G36*
G01*
X182273000Y-102419999D02*
X182273000Y-103320001D01*
G75*
G02*
X182023001Y-103570000I-249999J0D01*
G01*
X181497999Y-103570000D01*
G75*
G02*
X181248000Y-103320001I0J249999D01*
G01*
X181248000Y-102419999D01*
G75*
G02*
X181497999Y-102170000I249999J0D01*
G01*
X182023001Y-102170000D01*
G75*
G02*
X182273000Y-102419999I0J-249999D01*
G01*
G37*
D19*
X154432000Y-76454000D03*
D20*
X154432000Y-78994000D03*
X156972000Y-76454000D03*
X156972000Y-78994000D03*
X159512000Y-76454000D03*
X159512000Y-78994000D03*
D16*
X99822000Y-91537000D03*
X99822000Y-92837000D03*
X99822000Y-94137000D03*
X99822000Y-106329000D03*
X99822000Y-105029000D03*
X99822000Y-103729000D03*
G36*
G01*
X86671999Y-93190000D02*
X87572001Y-93190000D01*
G75*
G02*
X87822000Y-93439999I0J-249999D01*
G01*
X87822000Y-93965001D01*
G75*
G02*
X87572001Y-94215000I-249999J0D01*
G01*
X86671999Y-94215000D01*
G75*
G02*
X86422000Y-93965001I0J249999D01*
G01*
X86422000Y-93439999D01*
G75*
G02*
X86671999Y-93190000I249999J0D01*
G01*
G37*
G36*
G01*
X86671999Y-95015000D02*
X87572001Y-95015000D01*
G75*
G02*
X87822000Y-95264999I0J-249999D01*
G01*
X87822000Y-95790001D01*
G75*
G02*
X87572001Y-96040000I-249999J0D01*
G01*
X86671999Y-96040000D01*
G75*
G02*
X86422000Y-95790001I0J249999D01*
G01*
X86422000Y-95264999D01*
G75*
G02*
X86671999Y-95015000I249999J0D01*
G01*
G37*
G36*
G01*
X86671999Y-106191000D02*
X87572001Y-106191000D01*
G75*
G02*
X87822000Y-106440999I0J-249999D01*
G01*
X87822000Y-106966001D01*
G75*
G02*
X87572001Y-107216000I-249999J0D01*
G01*
X86671999Y-107216000D01*
G75*
G02*
X86422000Y-106966001I0J249999D01*
G01*
X86422000Y-106440999D01*
G75*
G02*
X86671999Y-106191000I249999J0D01*
G01*
G37*
G36*
G01*
X86671999Y-104366000D02*
X87572001Y-104366000D01*
G75*
G02*
X87822000Y-104615999I0J-249999D01*
G01*
X87822000Y-105141001D01*
G75*
G02*
X87572001Y-105391000I-249999J0D01*
G01*
X86671999Y-105391000D01*
G75*
G02*
X86422000Y-105141001I0J249999D01*
G01*
X86422000Y-104615999D01*
G75*
G02*
X86671999Y-104366000I249999J0D01*
G01*
G37*
D21*
X103124000Y-108132000D03*
X103124000Y-103632000D03*
X109624000Y-108132000D03*
X109624000Y-103632000D03*
M02*
