M48
; DRILL file {KiCad (5.1.8)-1} date 07/24/22 23:31:17
; FORMAT={-:-/ absolute / metric / decimal}
; #@! TF.CreationDate,2022-07-24T23:31:17+02:00
; #@! TF.GenerationSoftware,Kicad,Pcbnew,(5.1.8)-1
; #@! TF.FileFunction,Plated,1,4,PTH
FMAT,2
METRIC
T1C0.400
T2C0.500
T3C0.800
T4C1.000
T5C1.100
T6C3.200
%
G90
G05
T1
X88.9Y-97.536
X90.17Y-83.312
X90.932Y-101.6
X92.202Y-119.126
X92.71Y-92.583
X92.71Y-94.869
X92.71Y-104.013
X92.71Y-105.537
X94.488Y-83.058
X94.488Y-103.378
X94.869Y-95.885
X96.393Y-87.503
X96.393Y-88.392
X96.774Y-84.074
X97.282Y-87.503
X97.282Y-88.392
X97.663Y-103.378
X98.044Y-83.312
X98.171Y-87.503
X98.171Y-88.392
X99.187Y-97.409
X99.695Y-96.139
X99.822Y-102.362
X100.203Y-98.044
X100.955Y-102.108
X101.346Y-90.424
X101.346Y-91.567
X101.346Y-116.586
X101.959Y-92.561
X103.378Y-123.19
X103.977Y-93.436
X104.534Y-123.161
X106.172Y-118.491
X106.426Y-96.012
X107.442Y-119.126
X107.581Y-92.71
X107.95Y-96.012
X108.458Y-119.126
X108.817Y-95.101
X109.474Y-99.314
X109.982Y-112.522
X110.871Y-125.603
X112.268Y-92.964
X113.05Y-97.721
X113.284Y-99.06
X113.792Y-100.584
X114.3Y-103.886
X114.552Y-102.404
X116.078Y-81.661
X116.574Y-106.68
X117.947Y-101.508
X118.11Y-107.696
X118.564Y-97.409
X118.618Y-80.772
X118.618Y-99.568
X120.39Y-83.052
X120.904Y-104.14
X121.412Y-83.09
X121.412Y-94.234
X121.501Y-95.48
X121.666Y-85.598
X122.398Y-94.01
X122.428Y-87.884
X122.428Y-92.98
X122.654Y-100.429
X122.936Y-112.141
X123.212Y-108.944
X123.242Y-106.803
X123.259Y-107.881
X123.317Y-110.109
X123.317Y-111.125
X123.698Y-116.078
X124.206Y-106.172
X125.07Y-124.46
X125.07Y-127.254
X125.222Y-83.058
X125.222Y-106.426
X125.476Y-119.38
X125.719Y-103.389
X125.73Y-78.486
X125.73Y-95.758
X125.73Y-97.282
X125.73Y-100.076
X125.984Y-93.345
X126.111Y-92.075
X126.238Y-98.298
X126.3Y-87.189
X126.374Y-86.106
X126.374Y-88.392
X127.0Y-99.822
X127.0Y-102.292
X127.0Y-119.634
X127.266Y-100.792
X127.42Y-127.166
X127.774Y-107.626
X128.016Y-102.362
X128.22Y-127.966
X128.524Y-108.458
X128.778Y-98.032
X128.99Y-115.522
X129.01Y-110.004
X129.01Y-116.564
X129.02Y-127.266
X129.032Y-102.616
X129.032Y-111.004
X129.74Y-101.654
X129.794Y-85.09
X129.82Y-127.99
X129.874Y-107.188
X130.302Y-81.788
X130.302Y-89.154
X130.727Y-103.05
X131.064Y-81.026
X131.318Y-91.694
X131.318Y-106.426
X131.318Y-107.696
X131.42Y-116.484
X131.492Y-99.822
X131.817Y-113.182
X132.064Y-98.822
X132.334Y-124.714
X132.461Y-102.743
X132.588Y-81.788
X132.682Y-112.682
X132.969Y-86.439
X133.126Y-127.284
X133.432Y-114.554
X133.494Y-81.364
X133.792Y-102.743
X134.112Y-76.962
X134.182Y-113.787
X134.62Y-127.0
X134.97Y-115.666
X135.362Y-111.623
X135.47Y-123.973
X135.836Y-115.165
X135.89Y-114.046
X136.398Y-125.73
X136.465Y-116.116
X136.884Y-91.716
X136.906Y-102.743
X136.906Y-112.776
X137.07Y-127.762
X137.16Y-118.872
X137.414Y-81.788
X137.668Y-85.344
X137.87Y-126.238
X137.922Y-114.554
X137.934Y-119.622
X138.374Y-106.426
X138.43Y-99.314
X138.43Y-113.03
X138.684Y-115.57
X138.754Y-124.253
X138.938Y-81.534
X138.938Y-90.678
X138.938Y-92.71
X139.446Y-116.586
X139.446Y-127.0
X139.563Y-85.06
X140.144Y-78.921
X140.273Y-102.672
X140.474Y-109.544
X140.716Y-119.126
X140.716Y-123.952
X141.224Y-102.362
X141.224Y-108.712
X141.478Y-81.921
X141.732Y-78.171
X141.87Y-127.762
X141.874Y-85.217
X141.874Y-94.234
X141.874Y-95.25
X141.974Y-115.812
X142.138Y-103.226
X142.24Y-87.404
X142.748Y-115.062
X142.912Y-81.921
X143.178Y-86.97
X143.49Y-97.79
X143.58Y-113.976
X143.637Y-94.234
X143.764Y-85.217
X143.828Y-98.731
X144.018Y-91.567
X144.17Y-127.0
X144.272Y-106.172
X144.525Y-114.411
X145.034Y-80.421
X145.161Y-84.201
X145.73Y-78.921
X146.05Y-116.586
X146.304Y-109.474
X146.549Y-79.765
X146.558Y-103.632
X147.072Y-101.086
X147.186Y-97.988
X147.25Y-107.903
X147.316Y-98.98
X147.32Y-94.234
X147.497Y-113.715
X147.574Y-84.074
X148.082Y-108.458
X148.1Y-99.804
X148.143Y-101.031
X148.568Y-86.128
X148.612Y-94.466
X148.844Y-83.312
X150.114Y-85.344
X150.304Y-81.09
X150.643Y-97.29
X150.643Y-100.838
X150.643Y-102.362
X150.755Y-104.769
X150.891Y-103.778
X151.298Y-80.559
X152.4Y-88.9
X152.755Y-108.458
X152.755Y-111.76
X152.908Y-110.236
X153.38Y-107.678
X153.416Y-104.394
X153.548Y-111.01
X153.615Y-109.486
X153.67Y-97.536
X154.7Y-97.506
X155.956Y-106.928
X156.21Y-105.41
X156.359Y-84.56
X157.226Y-106.172
X157.458Y-96.542
X157.48Y-104.648
X157.525Y-99.269
X157.988Y-106.928
X159.56Y-94.526
X160.252Y-91.716
X160.274Y-89.23
X161.268Y-98.32
X161.544Y-89.23
X161.965Y-96.896
X162.306Y-89.98
X162.807Y-97.609
X163.576Y-104.648
X164.084Y-99.314
X164.131Y-103.816
X164.655Y-93.663
X164.846Y-110.236
X165.075Y-91.505
X165.795Y-93.992
X166.114Y-91.482
X166.37Y-97.282
X166.37Y-98.806
X166.37Y-99.822
X166.37Y-115.57
X166.558Y-102.334
X167.307Y-98.027
X167.894Y-110.236
X167.999Y-101.834
X168.932Y-92.18
X169.164Y-93.472
X169.418Y-101.346
X170.244Y-90.614
X170.434Y-100.584
X170.688Y-109.22
X170.996Y-103.0
X171.41Y-90.718
X172.72Y-106.172
X173.841Y-101.451
X174.117Y-98.933
X174.741Y-100.48
X174.879Y-110.109
X175.514Y-122.936
X176.951Y-101.875
X177.307Y-99.822
X178.308Y-101.854
X178.562Y-97.409
X178.584Y-93.958
X179.324Y-107.188
X181.76Y-102.87
T2
X178.575Y-77.597
X179.278Y-75.9
X179.278Y-79.294
X180.975Y-75.197
X180.975Y-79.997
X182.672Y-75.9
X182.672Y-79.294
X183.375Y-77.597
X86.5Y-77.597
X87.203Y-75.9
X87.203Y-79.294
X88.9Y-75.197
X88.9Y-79.997
X90.597Y-75.9
X90.597Y-79.294
X91.3Y-77.597
X86.5Y-127.0
X87.203Y-125.303
X87.203Y-128.697
X88.9Y-124.6
X88.9Y-129.4
X90.597Y-125.303
X90.597Y-128.697
X91.3Y-127.0
X178.575Y-127.0
X179.278Y-125.303
X179.278Y-128.697
X180.975Y-124.6
X180.975Y-129.4
X182.672Y-125.303
X182.672Y-128.697
X183.375Y-127.0
T3
X87.122Y-108.585
X88.574Y-108.267
X95.123Y-97.409
X96.266Y-115.062
X97.79Y-115.062
X106.172Y-116.332
X114.808Y-121.412
X116.332Y-121.412
T4
X154.432Y-76.454
X154.432Y-78.994
X156.972Y-76.454
X156.972Y-78.994
X159.512Y-76.454
X159.512Y-78.994
X151.13Y-120.904
X151.13Y-123.444
X151.13Y-125.984
X151.13Y-128.524
T5
X157.226Y-121.412
X157.226Y-123.952
X157.226Y-126.492
X103.124Y-103.632
X103.124Y-108.132
X109.624Y-103.632
X109.624Y-108.132
T6
X180.975Y-77.597
X88.9Y-77.597
X88.9Y-127.0
X180.975Y-127.0
T0
M30
