%TF.GenerationSoftware,KiCad,Pcbnew,(5.1.12)-1*%
%TF.CreationDate,2022-03-21T20:12:08+01:00*%
%TF.ProjectId,TelemetryPrimePCB,54656c65-6d65-4747-9279-5072696d6550,rev?*%
%TF.SameCoordinates,Original*%
%TF.FileFunction,Legend,Bot*%
%TF.FilePolarity,Positive*%
%FSLAX46Y46*%
G04 Gerber Fmt 4.6, Leading zero omitted, Abs format (unit mm)*
G04 Created by KiCad (PCBNEW (5.1.12)-1) date 2022-03-21 20:12:08*
%MOMM*%
%LPD*%
G01*
G04 APERTURE LIST*
%ADD10C,0.150000*%
%ADD11C,0.120000*%
%ADD12C,0.010000*%
G04 APERTURE END LIST*
D10*
X180721428Y-120252380D02*
X180150000Y-120252380D01*
X180435714Y-121252380D02*
X180435714Y-120252380D01*
X179816666Y-120728571D02*
X179483333Y-120728571D01*
X179340476Y-121252380D02*
X179816666Y-121252380D01*
X179816666Y-120252380D01*
X179340476Y-120252380D01*
X178435714Y-121252380D02*
X178911904Y-121252380D01*
X178911904Y-120252380D01*
X178102380Y-120728571D02*
X177769047Y-120728571D01*
X177626190Y-121252380D02*
X178102380Y-121252380D01*
X178102380Y-120252380D01*
X177626190Y-120252380D01*
X177197619Y-121252380D02*
X177197619Y-120252380D01*
X176864285Y-120966666D01*
X176530952Y-120252380D01*
X176530952Y-121252380D01*
X176054761Y-120728571D02*
X175721428Y-120728571D01*
X175578571Y-121252380D02*
X176054761Y-121252380D01*
X176054761Y-120252380D01*
X175578571Y-120252380D01*
X175292857Y-120252380D02*
X174721428Y-120252380D01*
X175007142Y-121252380D02*
X175007142Y-120252380D01*
X173816666Y-121252380D02*
X174150000Y-120776190D01*
X174388095Y-121252380D02*
X174388095Y-120252380D01*
X174007142Y-120252380D01*
X173911904Y-120300000D01*
X173864285Y-120347619D01*
X173816666Y-120442857D01*
X173816666Y-120585714D01*
X173864285Y-120680952D01*
X173911904Y-120728571D01*
X174007142Y-120776190D01*
X174388095Y-120776190D01*
X173197619Y-120776190D02*
X173197619Y-121252380D01*
X173530952Y-120252380D02*
X173197619Y-120776190D01*
X172864285Y-120252380D01*
X171769047Y-121252380D02*
X171769047Y-120252380D01*
X171388095Y-120252380D01*
X171292857Y-120300000D01*
X171245238Y-120347619D01*
X171197619Y-120442857D01*
X171197619Y-120585714D01*
X171245238Y-120680952D01*
X171292857Y-120728571D01*
X171388095Y-120776190D01*
X171769047Y-120776190D01*
X170197619Y-121252380D02*
X170530952Y-120776190D01*
X170769047Y-121252380D02*
X170769047Y-120252380D01*
X170388095Y-120252380D01*
X170292857Y-120300000D01*
X170245238Y-120347619D01*
X170197619Y-120442857D01*
X170197619Y-120585714D01*
X170245238Y-120680952D01*
X170292857Y-120728571D01*
X170388095Y-120776190D01*
X170769047Y-120776190D01*
X169769047Y-121252380D02*
X169769047Y-120252380D01*
X169292857Y-121252380D02*
X169292857Y-120252380D01*
X168959523Y-120966666D01*
X168626190Y-120252380D01*
X168626190Y-121252380D01*
X168150000Y-120728571D02*
X167816666Y-120728571D01*
X167673809Y-121252380D02*
X168150000Y-121252380D01*
X168150000Y-120252380D01*
X167673809Y-120252380D01*
X166626190Y-120252380D02*
X166292857Y-121252380D01*
X165959523Y-120252380D01*
X165102380Y-121252380D02*
X165673809Y-121252380D01*
X165388095Y-121252380D02*
X165388095Y-120252380D01*
X165483333Y-120395238D01*
X165578571Y-120490476D01*
X165673809Y-120538095D01*
X164673809Y-121157142D02*
X164626190Y-121204761D01*
X164673809Y-121252380D01*
X164721428Y-121204761D01*
X164673809Y-121157142D01*
X164673809Y-121252380D01*
X164007142Y-120252380D02*
X163911904Y-120252380D01*
X163816666Y-120300000D01*
X163769047Y-120347619D01*
X163721428Y-120442857D01*
X163673809Y-120633333D01*
X163673809Y-120871428D01*
X163721428Y-121061904D01*
X163769047Y-121157142D01*
X163816666Y-121204761D01*
X163911904Y-121252380D01*
X164007142Y-121252380D01*
X164102380Y-121204761D01*
X164150000Y-121157142D01*
X164197619Y-121061904D01*
X164245238Y-120871428D01*
X164245238Y-120633333D01*
X164197619Y-120442857D01*
X164150000Y-120347619D01*
X164102380Y-120300000D01*
X164007142Y-120252380D01*
X188688095Y-56102380D02*
X188688095Y-55102380D01*
X188307142Y-55102380D01*
X188211904Y-55150000D01*
X188164285Y-55197619D01*
X188116666Y-55292857D01*
X188116666Y-55435714D01*
X188164285Y-55530952D01*
X188211904Y-55578571D01*
X188307142Y-55626190D01*
X188688095Y-55626190D01*
X187735714Y-55816666D02*
X187259523Y-55816666D01*
X187830952Y-56102380D02*
X187497619Y-55102380D01*
X187164285Y-56102380D01*
X186973809Y-55102380D02*
X186402380Y-55102380D01*
X186688095Y-56102380D02*
X186688095Y-55102380D01*
X185497619Y-56102380D02*
X185830952Y-55626190D01*
X186069047Y-56102380D02*
X186069047Y-55102380D01*
X185688095Y-55102380D01*
X185592857Y-55150000D01*
X185545238Y-55197619D01*
X185497619Y-55292857D01*
X185497619Y-55435714D01*
X185545238Y-55530952D01*
X185592857Y-55578571D01*
X185688095Y-55626190D01*
X186069047Y-55626190D01*
X184878571Y-55626190D02*
X184878571Y-56102380D01*
X185211904Y-55102380D02*
X184878571Y-55626190D01*
X184545238Y-55102380D01*
X184211904Y-56102380D02*
X184211904Y-55102380D01*
X183640476Y-56102380D02*
X184069047Y-55530952D01*
X183640476Y-55102380D02*
X184211904Y-55673809D01*
X181878571Y-56007142D02*
X181926190Y-56054761D01*
X182069047Y-56102380D01*
X182164285Y-56102380D01*
X182307142Y-56054761D01*
X182402380Y-55959523D01*
X182450000Y-55864285D01*
X182497619Y-55673809D01*
X182497619Y-55530952D01*
X182450000Y-55340476D01*
X182402380Y-55245238D01*
X182307142Y-55150000D01*
X182164285Y-55102380D01*
X182069047Y-55102380D01*
X181926190Y-55150000D01*
X181878571Y-55197619D01*
X181545238Y-55102380D02*
X180878571Y-55102380D01*
X181545238Y-56102380D01*
X180878571Y-56102380D01*
X180545238Y-55816666D02*
X180069047Y-55816666D01*
X180640476Y-56102380D02*
X180307142Y-55102380D01*
X179973809Y-56102380D01*
X179640476Y-56102380D02*
X179640476Y-55102380D01*
X179259523Y-55102380D01*
X179164285Y-55150000D01*
X179116666Y-55197619D01*
X179069047Y-55292857D01*
X179069047Y-55435714D01*
X179116666Y-55530952D01*
X179164285Y-55578571D01*
X179259523Y-55626190D01*
X179640476Y-55626190D01*
X178069047Y-56102380D02*
X178402380Y-55626190D01*
X178640476Y-56102380D02*
X178640476Y-55102380D01*
X178259523Y-55102380D01*
X178164285Y-55150000D01*
X178116666Y-55197619D01*
X178069047Y-55292857D01*
X178069047Y-55435714D01*
X178116666Y-55530952D01*
X178164285Y-55578571D01*
X178259523Y-55626190D01*
X178640476Y-55626190D01*
X177688095Y-55816666D02*
X177211904Y-55816666D01*
X177783333Y-56102380D02*
X177450000Y-55102380D01*
X177116666Y-56102380D01*
X176783333Y-56102380D02*
X176783333Y-55102380D01*
X176211904Y-56102380D01*
X176211904Y-55102380D01*
D11*
%TO.C,U6*%
X159560000Y-67550000D02*
X159560000Y-69350000D01*
X156340000Y-69350000D02*
X156340000Y-66900000D01*
%TO.C,R36*%
X178172936Y-60585000D02*
X178627064Y-60585000D01*
X178172936Y-59115000D02*
X178627064Y-59115000D01*
%TO.C,R35*%
X170815000Y-66477064D02*
X170815000Y-66022936D01*
X172285000Y-66477064D02*
X172285000Y-66022936D01*
%TO.C,R29*%
X161322936Y-65885000D02*
X161777064Y-65885000D01*
X161322936Y-64415000D02*
X161777064Y-64415000D01*
%TO.C,J7*%
X166000000Y-56750000D02*
X166000000Y-54850000D01*
X166000000Y-60650000D02*
X166000000Y-58650000D01*
X175400000Y-56750000D02*
X175400000Y-54850000D01*
X175400000Y-60650000D02*
X175400000Y-58650000D01*
X166000000Y-54850000D02*
X175400000Y-54850000D01*
%TO.C,D5*%
X184800000Y-60950000D02*
X184800000Y-62950000D01*
X184800000Y-62950000D02*
X180900000Y-62950000D01*
X184800000Y-60950000D02*
X180900000Y-60950000D01*
%TO.C,BT1*%
X118950000Y-80900000D02*
X118950000Y-86600000D01*
X118950000Y-80900000D02*
X112950000Y-80900000D01*
X112950000Y-80900000D02*
X112950000Y-86600000D01*
X115904719Y-109795671D02*
G75*
G03*
X119450000Y-87350000I45281J11495671D01*
G01*
X119476384Y-87351754D02*
G75*
G02*
X118950000Y-86600000I273616J751754D01*
G01*
X115995281Y-109795671D02*
G75*
G02*
X112450000Y-87350000I-45281J11495671D01*
G01*
X112423616Y-87351754D02*
G75*
G03*
X112950000Y-86600000I-273616J751754D01*
G01*
%TO.C,R25*%
X130322936Y-64185000D02*
X130777064Y-64185000D01*
X130322936Y-62715000D02*
X130777064Y-62715000D01*
%TO.C,R24*%
X121735000Y-72977064D02*
X121735000Y-72522936D01*
X120265000Y-72977064D02*
X120265000Y-72522936D01*
%TO.C,R23*%
X124015000Y-72977064D02*
X124015000Y-72522936D01*
X125485000Y-72977064D02*
X125485000Y-72522936D01*
%TO.C,R26*%
X113265000Y-72522936D02*
X113265000Y-72977064D01*
X114735000Y-72522936D02*
X114735000Y-72977064D01*
%TO.C,J6*%
X127660000Y-56690000D02*
X127660000Y-57090000D01*
X127660000Y-59610000D02*
X127660000Y-65390000D01*
X127660000Y-67910000D02*
X127660000Y-70610000D01*
X113840000Y-59610000D02*
X113840000Y-65390000D01*
X113840000Y-56690000D02*
X113840000Y-57090000D01*
X113840000Y-67910000D02*
X113840000Y-70610000D01*
X113840000Y-70610000D02*
X127660000Y-70610000D01*
X127660000Y-56690000D02*
X113840000Y-56690000D01*
X115250000Y-56690000D02*
X115250000Y-55690000D01*
X126250000Y-56690000D02*
X126250000Y-55690000D01*
X125750000Y-55190000D02*
X115750000Y-55190000D01*
X126250000Y-55790000D02*
X125450000Y-55990000D01*
X125450000Y-55990000D02*
X123750000Y-56290000D01*
X123750000Y-56290000D02*
X122950000Y-56390000D01*
X122950000Y-56390000D02*
X121650000Y-56490000D01*
X121650000Y-56490000D02*
X119850000Y-56490000D01*
X119850000Y-56490000D02*
X118550000Y-56390000D01*
X118550000Y-56390000D02*
X117050000Y-56190000D01*
X117050000Y-56190000D02*
X115750000Y-55890000D01*
X115750000Y-55890000D02*
X115250000Y-55790000D01*
X115250000Y-55690000D02*
G75*
G02*
X115750000Y-55190000I500000J0D01*
G01*
X125750000Y-55190000D02*
G75*
G02*
X126250000Y-55690000I0J-500000D01*
G01*
%TO.C,R27*%
X116765000Y-72977064D02*
X116765000Y-72522936D01*
X118235000Y-72977064D02*
X118235000Y-72522936D01*
D12*
%TO.C,G\u002A\u002A\u002A*%
G36*
X167729689Y-105037433D02*
G01*
X167636037Y-105198842D01*
X167631497Y-105368167D01*
X167735875Y-105450900D01*
X167867000Y-105474000D01*
X168035788Y-105433975D01*
X168102504Y-105368167D01*
X168096935Y-105195605D01*
X168002086Y-105035114D01*
X167867000Y-104966000D01*
X167729689Y-105037433D01*
G37*
X167729689Y-105037433D02*
X167636037Y-105198842D01*
X167631497Y-105368167D01*
X167735875Y-105450900D01*
X167867000Y-105474000D01*
X168035788Y-105433975D01*
X168102504Y-105368167D01*
X168096935Y-105195605D01*
X168002086Y-105035114D01*
X167867000Y-104966000D01*
X167729689Y-105037433D01*
G36*
X175133060Y-105022727D02*
G01*
X174997008Y-105137264D01*
X174954308Y-105300134D01*
X174964765Y-105340435D01*
X175081330Y-105446703D01*
X175259155Y-105472864D01*
X175388222Y-105417555D01*
X175445620Y-105260385D01*
X175394418Y-105090273D01*
X175302635Y-105014281D01*
X175133060Y-105022727D01*
G37*
X175133060Y-105022727D02*
X174997008Y-105137264D01*
X174954308Y-105300134D01*
X174964765Y-105340435D01*
X175081330Y-105446703D01*
X175259155Y-105472864D01*
X175388222Y-105417555D01*
X175445620Y-105260385D01*
X175394418Y-105090273D01*
X175302635Y-105014281D01*
X175133060Y-105022727D01*
G36*
X168586667Y-110892667D02*
G01*
X169264000Y-110892667D01*
X169264000Y-109284000D01*
X168586667Y-109284000D01*
X168586667Y-110892667D01*
G37*
X168586667Y-110892667D02*
X169264000Y-110892667D01*
X169264000Y-109284000D01*
X168586667Y-109284000D01*
X168586667Y-110892667D01*
G36*
X173836000Y-110892667D02*
G01*
X174428667Y-110892667D01*
X174428667Y-109284000D01*
X173836000Y-109284000D01*
X173836000Y-110892667D01*
G37*
X173836000Y-110892667D02*
X174428667Y-110892667D01*
X174428667Y-109284000D01*
X173836000Y-109284000D01*
X173836000Y-110892667D01*
G36*
X167932948Y-107777177D02*
G01*
X167761167Y-107781487D01*
X167579647Y-107789090D01*
X167557023Y-107795874D01*
X167682859Y-107801527D01*
X167946719Y-107805738D01*
X168338167Y-107808194D01*
X168671333Y-107808703D01*
X169143456Y-107807616D01*
X169495075Y-107804562D01*
X169715756Y-107799854D01*
X169795062Y-107793804D01*
X169722558Y-107786723D01*
X169581500Y-107781487D01*
X169066948Y-107772102D01*
X168483885Y-107770665D01*
X167932948Y-107777177D01*
G37*
X167932948Y-107777177D02*
X167761167Y-107781487D01*
X167579647Y-107789090D01*
X167557023Y-107795874D01*
X167682859Y-107801527D01*
X167946719Y-107805738D01*
X168338167Y-107808194D01*
X168671333Y-107808703D01*
X169143456Y-107807616D01*
X169495075Y-107804562D01*
X169715756Y-107799854D01*
X169795062Y-107793804D01*
X169722558Y-107786723D01*
X169581500Y-107781487D01*
X169066948Y-107772102D01*
X168483885Y-107770665D01*
X167932948Y-107777177D01*
G36*
X171473900Y-107615821D02*
G01*
X171566933Y-107743067D01*
X171706453Y-107836207D01*
X171793657Y-107811422D01*
X171804000Y-107762979D01*
X171737938Y-107662999D01*
X171634667Y-107590667D01*
X171496530Y-107550725D01*
X171473900Y-107615821D01*
G37*
X171473900Y-107615821D02*
X171566933Y-107743067D01*
X171706453Y-107836207D01*
X171793657Y-107811422D01*
X171804000Y-107762979D01*
X171737938Y-107662999D01*
X171634667Y-107590667D01*
X171496530Y-107550725D01*
X171473900Y-107615821D01*
G36*
X173650350Y-107776900D02*
G01*
X173471565Y-107781566D01*
X173300265Y-107789308D01*
X173287385Y-107796191D01*
X173422010Y-107801890D01*
X173693229Y-107806079D01*
X174090127Y-107808433D01*
X174386333Y-107808829D01*
X174850609Y-107807682D01*
X175192725Y-107804532D01*
X175402473Y-107799701D01*
X175469642Y-107793515D01*
X175384024Y-107786297D01*
X175249565Y-107781440D01*
X174743906Y-107772110D01*
X174179083Y-107770599D01*
X173650350Y-107776900D01*
G37*
X173650350Y-107776900D02*
X173471565Y-107781566D01*
X173300265Y-107789308D01*
X173287385Y-107796191D01*
X173422010Y-107801890D01*
X173693229Y-107806079D01*
X174090127Y-107808433D01*
X174386333Y-107808829D01*
X174850609Y-107807682D01*
X175192725Y-107804532D01*
X175402473Y-107799701D01*
X175469642Y-107793515D01*
X175384024Y-107786297D01*
X175249565Y-107781440D01*
X174743906Y-107772110D01*
X174179083Y-107770599D01*
X173650350Y-107776900D01*
G36*
X171299775Y-107740996D02*
G01*
X171325217Y-107883348D01*
X171442894Y-107997643D01*
X171518132Y-108014000D01*
X171609181Y-108000874D01*
X171585150Y-107934447D01*
X171507197Y-107844147D01*
X171367303Y-107725772D01*
X171299775Y-107740996D01*
G37*
X171299775Y-107740996D02*
X171325217Y-107883348D01*
X171442894Y-107997643D01*
X171518132Y-108014000D01*
X171609181Y-108000874D01*
X171585150Y-107934447D01*
X171507197Y-107844147D01*
X171367303Y-107725772D01*
X171299775Y-107740996D01*
G36*
X166921314Y-109235257D02*
G01*
X166915755Y-109455097D01*
X166914636Y-109516833D01*
X166907133Y-110154343D01*
X166904237Y-110881591D01*
X166905950Y-111619046D01*
X166912271Y-112287175D01*
X166914636Y-112437833D01*
X166920269Y-112689528D01*
X166925466Y-112780129D01*
X166930084Y-112717874D01*
X166933980Y-112511001D01*
X166937012Y-112167750D01*
X166939037Y-111696359D01*
X166939913Y-111105067D01*
X166939938Y-110977333D01*
X166939301Y-110363762D01*
X166937488Y-109868497D01*
X166934640Y-109499775D01*
X166930899Y-109265835D01*
X166926410Y-109174916D01*
X166921314Y-109235257D01*
G37*
X166921314Y-109235257D02*
X166915755Y-109455097D01*
X166914636Y-109516833D01*
X166907133Y-110154343D01*
X166904237Y-110881591D01*
X166905950Y-111619046D01*
X166912271Y-112287175D01*
X166914636Y-112437833D01*
X166920269Y-112689528D01*
X166925466Y-112780129D01*
X166930084Y-112717874D01*
X166933980Y-112511001D01*
X166937012Y-112167750D01*
X166939037Y-111696359D01*
X166939913Y-111105067D01*
X166939938Y-110977333D01*
X166939301Y-110363762D01*
X166937488Y-109868497D01*
X166934640Y-109499775D01*
X166930899Y-109265835D01*
X166926410Y-109174916D01*
X166921314Y-109235257D01*
G36*
X167175556Y-114900222D02*
G01*
X167165423Y-115000702D01*
X167175556Y-115013111D01*
X167225890Y-115001489D01*
X167232000Y-114956667D01*
X167201022Y-114886976D01*
X167175556Y-114900222D01*
G37*
X167175556Y-114900222D02*
X167165423Y-115000702D01*
X167175556Y-115013111D01*
X167225890Y-115001489D01*
X167232000Y-114956667D01*
X167201022Y-114886976D01*
X167175556Y-114900222D01*
G36*
X168671333Y-114914333D02*
G01*
X168713667Y-114956667D01*
X168756000Y-114914333D01*
X168713667Y-114872000D01*
X168671333Y-114914333D01*
G37*
X168671333Y-114914333D02*
X168713667Y-114956667D01*
X168756000Y-114914333D01*
X168713667Y-114872000D01*
X168671333Y-114914333D01*
G36*
X169602667Y-114914333D02*
G01*
X169645000Y-114956667D01*
X169687333Y-114914333D01*
X169645000Y-114872000D01*
X169602667Y-114914333D01*
G37*
X169602667Y-114914333D02*
X169645000Y-114956667D01*
X169687333Y-114914333D01*
X169645000Y-114872000D01*
X169602667Y-114914333D01*
G36*
X169292222Y-114900222D02*
G01*
X169282089Y-115000702D01*
X169292222Y-115013111D01*
X169342557Y-115001489D01*
X169348667Y-114956667D01*
X169317689Y-114886976D01*
X169292222Y-114900222D01*
G37*
X169292222Y-114900222D02*
X169282089Y-115000702D01*
X169292222Y-115013111D01*
X169342557Y-115001489D01*
X169348667Y-114956667D01*
X169317689Y-114886976D01*
X169292222Y-114900222D01*
G36*
X169884889Y-114900222D02*
G01*
X169874756Y-115000702D01*
X169884889Y-115013111D01*
X169935223Y-115001489D01*
X169941333Y-114956667D01*
X169910355Y-114886976D01*
X169884889Y-114900222D01*
G37*
X169884889Y-114900222D02*
X169874756Y-115000702D01*
X169884889Y-115013111D01*
X169935223Y-115001489D01*
X169941333Y-114956667D01*
X169910355Y-114886976D01*
X169884889Y-114900222D01*
G36*
X170788000Y-114914333D02*
G01*
X170830333Y-114956667D01*
X170872667Y-114914333D01*
X170830333Y-114872000D01*
X170788000Y-114914333D01*
G37*
X170788000Y-114914333D02*
X170830333Y-114956667D01*
X170872667Y-114914333D01*
X170830333Y-114872000D01*
X170788000Y-114914333D01*
G36*
X171127638Y-114937506D02*
G01*
X171126667Y-114956667D01*
X171191755Y-115038080D01*
X171216330Y-115041333D01*
X171266896Y-114989463D01*
X171253667Y-114956667D01*
X171177585Y-114875896D01*
X171164003Y-114872000D01*
X171127638Y-114937506D01*
G37*
X171127638Y-114937506D02*
X171126667Y-114956667D01*
X171191755Y-115038080D01*
X171216330Y-115041333D01*
X171266896Y-114989463D01*
X171253667Y-114956667D01*
X171177585Y-114875896D01*
X171164003Y-114872000D01*
X171127638Y-114937506D01*
G36*
X176234889Y-114900222D02*
G01*
X176224756Y-115000702D01*
X176234889Y-115013111D01*
X176285223Y-115001489D01*
X176291333Y-114956667D01*
X176260355Y-114886976D01*
X176234889Y-114900222D01*
G37*
X176234889Y-114900222D02*
X176224756Y-115000702D01*
X176234889Y-115013111D01*
X176285223Y-115001489D01*
X176291333Y-114956667D01*
X176260355Y-114886976D01*
X176234889Y-114900222D01*
G36*
X171578222Y-115916222D02*
G01*
X171568089Y-116016702D01*
X171578222Y-116029111D01*
X171628557Y-116017489D01*
X171634667Y-115972667D01*
X171603689Y-115902976D01*
X171578222Y-115916222D01*
G37*
X171578222Y-115916222D02*
X171568089Y-116016702D01*
X171578222Y-116029111D01*
X171628557Y-116017489D01*
X171634667Y-115972667D01*
X171603689Y-115902976D01*
X171578222Y-115916222D01*
G36*
X172820000Y-116015000D02*
G01*
X172862333Y-116057333D01*
X172904667Y-116015000D01*
X172862333Y-115972667D01*
X172820000Y-116015000D01*
G37*
X172820000Y-116015000D02*
X172862333Y-116057333D01*
X172904667Y-116015000D01*
X172862333Y-115972667D01*
X172820000Y-116015000D01*
G36*
X173102222Y-115916222D02*
G01*
X173092089Y-116016702D01*
X173102222Y-116029111D01*
X173152557Y-116017489D01*
X173158667Y-115972667D01*
X173127689Y-115902976D01*
X173102222Y-115916222D01*
G37*
X173102222Y-115916222D02*
X173092089Y-116016702D01*
X173102222Y-116029111D01*
X173152557Y-116017489D01*
X173158667Y-115972667D01*
X173127689Y-115902976D01*
X173102222Y-115916222D01*
G36*
X171505102Y-117428676D02*
G01*
X171529362Y-117507369D01*
X171634148Y-117623197D01*
X171755667Y-117706676D01*
X171804000Y-117689489D01*
X171751994Y-117577729D01*
X171639541Y-117468599D01*
X171531988Y-117419119D01*
X171505102Y-117428676D01*
G37*
X171505102Y-117428676D02*
X171529362Y-117507369D01*
X171634148Y-117623197D01*
X171755667Y-117706676D01*
X171804000Y-117689489D01*
X171751994Y-117577729D01*
X171639541Y-117468599D01*
X171531988Y-117419119D01*
X171505102Y-117428676D01*
G36*
X171299775Y-117646996D02*
G01*
X171325217Y-117789348D01*
X171442894Y-117903643D01*
X171518132Y-117920000D01*
X171609181Y-117906874D01*
X171585150Y-117840447D01*
X171507197Y-117750147D01*
X171367303Y-117631772D01*
X171299775Y-117646996D01*
G37*
X171299775Y-117646996D02*
X171325217Y-117789348D01*
X171442894Y-117903643D01*
X171518132Y-117920000D01*
X171609181Y-117906874D01*
X171585150Y-117840447D01*
X171507197Y-117750147D01*
X171367303Y-117631772D01*
X171299775Y-117646996D01*
G36*
X168107437Y-102732166D02*
G01*
X168121000Y-102764667D01*
X168233159Y-102846172D01*
X168257994Y-102849333D01*
X168303897Y-102797167D01*
X168290333Y-102764667D01*
X168178174Y-102683161D01*
X168153340Y-102680000D01*
X168107437Y-102732166D01*
G37*
X168107437Y-102732166D02*
X168121000Y-102764667D01*
X168233159Y-102846172D01*
X168257994Y-102849333D01*
X168303897Y-102797167D01*
X168290333Y-102764667D01*
X168178174Y-102683161D01*
X168153340Y-102680000D01*
X168107437Y-102732166D01*
G36*
X174836478Y-102746322D02*
G01*
X174771789Y-102854092D01*
X174780033Y-102890255D01*
X174868493Y-102887635D01*
X174880222Y-102877555D01*
X174936044Y-102747213D01*
X174936667Y-102733622D01*
X174893711Y-102702142D01*
X174836478Y-102746322D01*
G37*
X174836478Y-102746322D02*
X174771789Y-102854092D01*
X174780033Y-102890255D01*
X174868493Y-102887635D01*
X174880222Y-102877555D01*
X174936044Y-102747213D01*
X174936667Y-102733622D01*
X174893711Y-102702142D01*
X174836478Y-102746322D01*
G36*
X166621639Y-102722333D02*
G01*
X166795430Y-103008764D01*
X166928271Y-103138501D01*
X167015888Y-103110526D01*
X167056488Y-103008953D01*
X167049978Y-102991867D01*
X166972973Y-102931696D01*
X166819447Y-102802140D01*
X166776009Y-102764667D01*
X166627148Y-102642634D01*
X166582853Y-102632238D01*
X166621639Y-102722333D01*
G37*
X166621639Y-102722333D02*
X166795430Y-103008764D01*
X166928271Y-103138501D01*
X167015888Y-103110526D01*
X167056488Y-103008953D01*
X167049978Y-102991867D01*
X166972973Y-102931696D01*
X166819447Y-102802140D01*
X166776009Y-102764667D01*
X166627148Y-102642634D01*
X166582853Y-102632238D01*
X166621639Y-102722333D01*
G36*
X168361437Y-103070832D02*
G01*
X168375000Y-103103333D01*
X168487159Y-103184839D01*
X168511994Y-103188000D01*
X168557897Y-103135834D01*
X168544333Y-103103333D01*
X168432174Y-103021827D01*
X168407340Y-103018667D01*
X168361437Y-103070832D01*
G37*
X168361437Y-103070832D02*
X168375000Y-103103333D01*
X168487159Y-103184839D01*
X168511994Y-103188000D01*
X168557897Y-103135834D01*
X168544333Y-103103333D01*
X168432174Y-103021827D01*
X168407340Y-103018667D01*
X168361437Y-103070832D01*
G36*
X174598000Y-103061000D02*
G01*
X174517230Y-103137082D01*
X174513333Y-103150663D01*
X174578839Y-103187029D01*
X174598000Y-103188000D01*
X174679413Y-103122912D01*
X174682667Y-103098336D01*
X174630797Y-103047770D01*
X174598000Y-103061000D01*
G37*
X174598000Y-103061000D02*
X174517230Y-103137082D01*
X174513333Y-103150663D01*
X174578839Y-103187029D01*
X174598000Y-103188000D01*
X174679413Y-103122912D01*
X174682667Y-103098336D01*
X174630797Y-103047770D01*
X174598000Y-103061000D01*
G36*
X176374670Y-102652581D02*
G01*
X176186351Y-102826407D01*
X176174937Y-102838265D01*
X176034498Y-103008682D01*
X176021810Y-103101892D01*
X176056534Y-103125074D01*
X176175406Y-103088346D01*
X176324933Y-102931159D01*
X176358883Y-102882142D01*
X176470790Y-102682799D01*
X176472768Y-102605495D01*
X176374670Y-102652581D01*
G37*
X176374670Y-102652581D02*
X176186351Y-102826407D01*
X176174937Y-102838265D01*
X176034498Y-103008682D01*
X176021810Y-103101892D01*
X176056534Y-103125074D01*
X176175406Y-103088346D01*
X176324933Y-102931159D01*
X176358883Y-102882142D01*
X176470790Y-102682799D01*
X176472768Y-102605495D01*
X176374670Y-102652581D01*
G36*
X169012238Y-103120932D02*
G01*
X169011297Y-103166833D01*
X169042155Y-103315485D01*
X169094667Y-103357333D01*
X169175977Y-103308716D01*
X169178037Y-103293833D01*
X169135734Y-103175112D01*
X169094667Y-103103333D01*
X169032907Y-103036841D01*
X169012238Y-103120932D01*
G37*
X169012238Y-103120932D02*
X169011297Y-103166833D01*
X169042155Y-103315485D01*
X169094667Y-103357333D01*
X169175977Y-103308716D01*
X169178037Y-103293833D01*
X169135734Y-103175112D01*
X169094667Y-103103333D01*
X169032907Y-103036841D01*
X169012238Y-103120932D01*
G36*
X173924548Y-103180748D02*
G01*
X173880366Y-103314320D01*
X173908630Y-103357333D01*
X174002146Y-103289397D01*
X174040601Y-103218215D01*
X174070141Y-103069378D01*
X174018703Y-103055454D01*
X173924548Y-103180748D01*
G37*
X173924548Y-103180748D02*
X173880366Y-103314320D01*
X173908630Y-103357333D01*
X174002146Y-103289397D01*
X174040601Y-103218215D01*
X174070141Y-103069378D01*
X174018703Y-103055454D01*
X173924548Y-103180748D01*
G36*
X169462437Y-103409203D02*
G01*
X169475667Y-103442000D01*
X169551749Y-103522770D01*
X169565330Y-103526667D01*
X169601696Y-103461161D01*
X169602667Y-103442000D01*
X169537579Y-103360587D01*
X169513003Y-103357333D01*
X169462437Y-103409203D01*
G37*
X169462437Y-103409203D02*
X169475667Y-103442000D01*
X169551749Y-103522770D01*
X169565330Y-103526667D01*
X169601696Y-103461161D01*
X169602667Y-103442000D01*
X169537579Y-103360587D01*
X169513003Y-103357333D01*
X169462437Y-103409203D01*
G36*
X173510415Y-103391582D02*
G01*
X173420235Y-103470286D01*
X173412667Y-103489330D01*
X173452848Y-103524129D01*
X173536503Y-103446153D01*
X173547752Y-103428918D01*
X173557731Y-103370981D01*
X173510415Y-103391582D01*
G37*
X173510415Y-103391582D02*
X173420235Y-103470286D01*
X173412667Y-103489330D01*
X173452848Y-103524129D01*
X173536503Y-103446153D01*
X173547752Y-103428918D01*
X173557731Y-103370981D01*
X173510415Y-103391582D01*
G36*
X169715556Y-103639555D02*
G01*
X169705423Y-103740035D01*
X169715556Y-103752444D01*
X169765890Y-103740822D01*
X169772000Y-103696000D01*
X169741022Y-103626310D01*
X169715556Y-103639555D01*
G37*
X169715556Y-103639555D02*
X169705423Y-103740035D01*
X169715556Y-103752444D01*
X169765890Y-103740822D01*
X169772000Y-103696000D01*
X169741022Y-103626310D01*
X169715556Y-103639555D01*
G36*
X173341082Y-103645582D02*
G01*
X173250902Y-103724286D01*
X173243333Y-103743330D01*
X173283514Y-103778129D01*
X173367170Y-103700153D01*
X173378418Y-103682918D01*
X173388398Y-103624981D01*
X173341082Y-103645582D01*
G37*
X173341082Y-103645582D02*
X173250902Y-103724286D01*
X173243333Y-103743330D01*
X173283514Y-103778129D01*
X173367170Y-103700153D01*
X173378418Y-103682918D01*
X173388398Y-103624981D01*
X173341082Y-103645582D01*
G36*
X167773550Y-102834952D02*
G01*
X167566700Y-102910635D01*
X167279102Y-103068648D01*
X166938904Y-103287485D01*
X166574253Y-103545642D01*
X166213296Y-103821615D01*
X165884182Y-104093898D01*
X165615056Y-104340988D01*
X165434067Y-104541380D01*
X165369333Y-104671774D01*
X165414298Y-104810651D01*
X165518099Y-104807839D01*
X165600296Y-104717426D01*
X165720354Y-104587451D01*
X165949132Y-104389298D01*
X166253755Y-104147659D01*
X166601352Y-103887227D01*
X166959047Y-103632696D01*
X167293968Y-103408759D01*
X167548936Y-103253681D01*
X167796240Y-103091198D01*
X167936048Y-102952684D01*
X167957825Y-102857782D01*
X167851034Y-102826134D01*
X167773550Y-102834952D01*
G37*
X167773550Y-102834952D02*
X167566700Y-102910635D01*
X167279102Y-103068648D01*
X166938904Y-103287485D01*
X166574253Y-103545642D01*
X166213296Y-103821615D01*
X165884182Y-104093898D01*
X165615056Y-104340988D01*
X165434067Y-104541380D01*
X165369333Y-104671774D01*
X165414298Y-104810651D01*
X165518099Y-104807839D01*
X165600296Y-104717426D01*
X165720354Y-104587451D01*
X165949132Y-104389298D01*
X166253755Y-104147659D01*
X166601352Y-103887227D01*
X166959047Y-103632696D01*
X167293968Y-103408759D01*
X167548936Y-103253681D01*
X167796240Y-103091198D01*
X167936048Y-102952684D01*
X167957825Y-102857782D01*
X167851034Y-102826134D01*
X167773550Y-102834952D01*
G36*
X175121729Y-102867471D02*
G01*
X175115073Y-102944064D01*
X175229336Y-103058371D01*
X175479282Y-103223766D01*
X175582883Y-103285318D01*
X176248548Y-103707840D01*
X176831014Y-104157889D01*
X177232252Y-104521282D01*
X177447999Y-104718599D01*
X177577051Y-104806777D01*
X177648281Y-104800443D01*
X177679172Y-104747677D01*
X177651721Y-104603276D01*
X177504419Y-104397552D01*
X177263402Y-104149721D01*
X176954809Y-103879000D01*
X176604779Y-103604606D01*
X176239448Y-103345754D01*
X175884955Y-103121661D01*
X175567438Y-102951543D01*
X175313035Y-102854617D01*
X175147884Y-102850099D01*
X175121729Y-102867471D01*
G37*
X175121729Y-102867471D02*
X175115073Y-102944064D01*
X175229336Y-103058371D01*
X175479282Y-103223766D01*
X175582883Y-103285318D01*
X176248548Y-103707840D01*
X176831014Y-104157889D01*
X177232252Y-104521282D01*
X177447999Y-104718599D01*
X177577051Y-104806777D01*
X177648281Y-104800443D01*
X177679172Y-104747677D01*
X177651721Y-104603276D01*
X177504419Y-104397552D01*
X177263402Y-104149721D01*
X176954809Y-103879000D01*
X176604779Y-103604606D01*
X176239448Y-103345754D01*
X175884955Y-103121661D01*
X175567438Y-102951543D01*
X175313035Y-102854617D01*
X175147884Y-102850099D01*
X175121729Y-102867471D01*
G36*
X168068207Y-103187990D02*
G01*
X167872091Y-103280743D01*
X167579964Y-103451513D01*
X167228967Y-103678105D01*
X166726578Y-104025086D01*
X166296404Y-104343458D01*
X165953812Y-104620318D01*
X165714166Y-104842762D01*
X165592830Y-104997888D01*
X165585641Y-105058175D01*
X165653901Y-105123051D01*
X165750389Y-105101393D01*
X165903784Y-104978007D01*
X166092984Y-104789402D01*
X166302245Y-104600477D01*
X166610282Y-104356202D01*
X166972250Y-104090939D01*
X167274333Y-103884188D01*
X167604963Y-103665704D01*
X167880355Y-103483570D01*
X168071879Y-103356731D01*
X168150906Y-103304133D01*
X168150986Y-103304077D01*
X168157409Y-103219236D01*
X168147953Y-103184192D01*
X168068207Y-103187990D01*
G37*
X168068207Y-103187990D02*
X167872091Y-103280743D01*
X167579964Y-103451513D01*
X167228967Y-103678105D01*
X166726578Y-104025086D01*
X166296404Y-104343458D01*
X165953812Y-104620318D01*
X165714166Y-104842762D01*
X165592830Y-104997888D01*
X165585641Y-105058175D01*
X165653901Y-105123051D01*
X165750389Y-105101393D01*
X165903784Y-104978007D01*
X166092984Y-104789402D01*
X166302245Y-104600477D01*
X166610282Y-104356202D01*
X166972250Y-104090939D01*
X167274333Y-103884188D01*
X167604963Y-103665704D01*
X167880355Y-103483570D01*
X168071879Y-103356731D01*
X168150906Y-103304133D01*
X168150986Y-103304077D01*
X168157409Y-103219236D01*
X168147953Y-103184192D01*
X168068207Y-103187990D01*
G36*
X174889071Y-103196514D02*
G01*
X174857831Y-103292907D01*
X174864689Y-103305565D01*
X174948693Y-103355620D01*
X175135127Y-103462593D01*
X175317667Y-103566053D01*
X175692441Y-103795633D01*
X176105944Y-104077819D01*
X176510826Y-104377660D01*
X176859734Y-104660204D01*
X177090341Y-104874558D01*
X177299885Y-105070535D01*
X177425468Y-105127233D01*
X177475130Y-105047532D01*
X177476667Y-105012929D01*
X177412150Y-104898713D01*
X177235872Y-104720735D01*
X176973739Y-104497181D01*
X176651659Y-104246237D01*
X176295539Y-103986090D01*
X175931286Y-103734924D01*
X175584807Y-103510926D01*
X175282010Y-103332283D01*
X175048801Y-103217180D01*
X174911088Y-103183804D01*
X174889071Y-103196514D01*
G37*
X174889071Y-103196514D02*
X174857831Y-103292907D01*
X174864689Y-103305565D01*
X174948693Y-103355620D01*
X175135127Y-103462593D01*
X175317667Y-103566053D01*
X175692441Y-103795633D01*
X176105944Y-104077819D01*
X176510826Y-104377660D01*
X176859734Y-104660204D01*
X177090341Y-104874558D01*
X177299885Y-105070535D01*
X177425468Y-105127233D01*
X177475130Y-105047532D01*
X177476667Y-105012929D01*
X177412150Y-104898713D01*
X177235872Y-104720735D01*
X176973739Y-104497181D01*
X176651659Y-104246237D01*
X176295539Y-103986090D01*
X175931286Y-103734924D01*
X175584807Y-103510926D01*
X175282010Y-103332283D01*
X175048801Y-103217180D01*
X174911088Y-103183804D01*
X174889071Y-103196514D01*
G36*
X174384276Y-103387935D02*
G01*
X174267364Y-103516021D01*
X174266561Y-103517084D01*
X174155251Y-103644289D01*
X174092906Y-103639090D01*
X174063342Y-103579319D01*
X173969575Y-103474468D01*
X173843368Y-103443727D01*
X173758034Y-103497605D01*
X173751333Y-103534593D01*
X173822017Y-103628217D01*
X173920667Y-103671468D01*
X174057779Y-103732502D01*
X174090000Y-103776430D01*
X174036105Y-103885550D01*
X173888324Y-103867514D01*
X173791803Y-103813993D01*
X173625720Y-103742448D01*
X173546979Y-103768835D01*
X173578033Y-103850909D01*
X173712962Y-103923098D01*
X173929645Y-103995326D01*
X173499617Y-104607663D01*
X173316924Y-104878102D01*
X173189249Y-105087466D01*
X173134617Y-105205108D01*
X173139460Y-105220000D01*
X173211543Y-105154551D01*
X173359381Y-104975443D01*
X173562764Y-104708530D01*
X173801482Y-104379666D01*
X173850913Y-104309833D01*
X174085858Y-103969773D01*
X174276317Y-103681072D01*
X174405282Y-103470523D01*
X174455744Y-103364917D01*
X174454791Y-103358598D01*
X174384276Y-103387935D01*
G37*
X174384276Y-103387935D02*
X174267364Y-103516021D01*
X174266561Y-103517084D01*
X174155251Y-103644289D01*
X174092906Y-103639090D01*
X174063342Y-103579319D01*
X173969575Y-103474468D01*
X173843368Y-103443727D01*
X173758034Y-103497605D01*
X173751333Y-103534593D01*
X173822017Y-103628217D01*
X173920667Y-103671468D01*
X174057779Y-103732502D01*
X174090000Y-103776430D01*
X174036105Y-103885550D01*
X173888324Y-103867514D01*
X173791803Y-103813993D01*
X173625720Y-103742448D01*
X173546979Y-103768835D01*
X173578033Y-103850909D01*
X173712962Y-103923098D01*
X173929645Y-103995326D01*
X173499617Y-104607663D01*
X173316924Y-104878102D01*
X173189249Y-105087466D01*
X173134617Y-105205108D01*
X173139460Y-105220000D01*
X173211543Y-105154551D01*
X173359381Y-104975443D01*
X173562764Y-104708530D01*
X173801482Y-104379666D01*
X173850913Y-104309833D01*
X174085858Y-103969773D01*
X174276317Y-103681072D01*
X174405282Y-103470523D01*
X174455744Y-103364917D01*
X174454791Y-103358598D01*
X174384276Y-103387935D01*
G36*
X169876459Y-103901986D02*
G01*
X169904847Y-103982722D01*
X170012243Y-104166090D01*
X170178005Y-104417808D01*
X170246025Y-104515761D01*
X170532041Y-104919732D01*
X170734500Y-105198793D01*
X170865079Y-105368049D01*
X170935454Y-105442604D01*
X170957304Y-105437564D01*
X170957333Y-105435905D01*
X170912800Y-105340772D01*
X170794998Y-105150756D01*
X170627631Y-104899490D01*
X170434399Y-104620610D01*
X170239004Y-104347752D01*
X170065146Y-104114552D01*
X169936526Y-103954644D01*
X169876847Y-103901665D01*
X169876459Y-103901986D01*
G37*
X169876459Y-103901986D02*
X169904847Y-103982722D01*
X170012243Y-104166090D01*
X170178005Y-104417808D01*
X170246025Y-104515761D01*
X170532041Y-104919732D01*
X170734500Y-105198793D01*
X170865079Y-105368049D01*
X170935454Y-105442604D01*
X170957304Y-105437564D01*
X170957333Y-105435905D01*
X170912800Y-105340772D01*
X170794998Y-105150756D01*
X170627631Y-104899490D01*
X170434399Y-104620610D01*
X170239004Y-104347752D01*
X170065146Y-104114552D01*
X169936526Y-103954644D01*
X169876847Y-103901665D01*
X169876459Y-103901986D01*
G36*
X173146240Y-103929958D02*
G01*
X173008309Y-104104256D01*
X172818982Y-104358867D01*
X172671765Y-104563833D01*
X172409604Y-104934888D01*
X172232639Y-105189715D01*
X172127281Y-105349617D01*
X172079940Y-105435900D01*
X172077028Y-105469868D01*
X172091190Y-105474000D01*
X172155093Y-105409375D01*
X172293024Y-105235077D01*
X172482351Y-104980466D01*
X172629568Y-104775500D01*
X172891730Y-104404445D01*
X173068695Y-104149618D01*
X173174053Y-103989716D01*
X173221393Y-103903433D01*
X173224305Y-103869465D01*
X173210144Y-103865333D01*
X173146240Y-103929958D01*
G37*
X173146240Y-103929958D02*
X173008309Y-104104256D01*
X172818982Y-104358867D01*
X172671765Y-104563833D01*
X172409604Y-104934888D01*
X172232639Y-105189715D01*
X172127281Y-105349617D01*
X172079940Y-105435900D01*
X172077028Y-105469868D01*
X172091190Y-105474000D01*
X172155093Y-105409375D01*
X172293024Y-105235077D01*
X172482351Y-104980466D01*
X172629568Y-104775500D01*
X172891730Y-104404445D01*
X173068695Y-104149618D01*
X173174053Y-103989716D01*
X173221393Y-103903433D01*
X173224305Y-103869465D01*
X173210144Y-103865333D01*
X173146240Y-103929958D01*
G36*
X173487056Y-105724339D02*
G01*
X173729980Y-105938291D01*
X173885711Y-106042543D01*
X173982919Y-106050885D01*
X174041943Y-105991261D01*
X174009713Y-105889515D01*
X173818299Y-105742849D01*
X173471076Y-105553762D01*
X173412667Y-105525227D01*
X173116333Y-105382011D01*
X173487056Y-105724339D01*
G37*
X173487056Y-105724339D02*
X173729980Y-105938291D01*
X173885711Y-106042543D01*
X173982919Y-106050885D01*
X174041943Y-105991261D01*
X174009713Y-105889515D01*
X173818299Y-105742849D01*
X173471076Y-105553762D01*
X173412667Y-105525227D01*
X173116333Y-105382011D01*
X173487056Y-105724339D01*
G36*
X170661000Y-105762410D02*
G01*
X170389858Y-105907370D01*
X170253977Y-106003693D01*
X170232798Y-106069036D01*
X170266866Y-106100882D01*
X170376659Y-106081597D01*
X170550384Y-105968759D01*
X170635738Y-105894974D01*
X170915000Y-105633683D01*
X170661000Y-105762410D01*
G37*
X170661000Y-105762410D02*
X170389858Y-105907370D01*
X170253977Y-106003693D01*
X170232798Y-106069036D01*
X170266866Y-106100882D01*
X170376659Y-106081597D01*
X170550384Y-105968759D01*
X170635738Y-105894974D01*
X170915000Y-105633683D01*
X170661000Y-105762410D01*
G36*
X172215446Y-105729906D02*
G01*
X172342510Y-105851842D01*
X172510220Y-105989636D01*
X172669364Y-106102915D01*
X172770729Y-106151304D01*
X172772018Y-106151333D01*
X172819291Y-106086891D01*
X172820000Y-106073572D01*
X172756662Y-105987603D01*
X172604211Y-105868095D01*
X172418993Y-105750990D01*
X172257357Y-105672231D01*
X172178242Y-105664202D01*
X172215446Y-105729906D01*
G37*
X172215446Y-105729906D02*
X172342510Y-105851842D01*
X172510220Y-105989636D01*
X172669364Y-106102915D01*
X172770729Y-106151304D01*
X172772018Y-106151333D01*
X172819291Y-106086891D01*
X172820000Y-106073572D01*
X172756662Y-105987603D01*
X172604211Y-105868095D01*
X172418993Y-105750990D01*
X172257357Y-105672231D01*
X172178242Y-105664202D01*
X172215446Y-105729906D01*
G36*
X168664038Y-103447370D02*
G01*
X168774810Y-103640359D01*
X168951565Y-103916469D01*
X169177590Y-104248718D01*
X169229676Y-104322991D01*
X169470065Y-104656247D01*
X169676452Y-104927783D01*
X169829633Y-105113403D01*
X169910402Y-105188911D01*
X169916530Y-105188359D01*
X169893995Y-105102668D01*
X169790718Y-104923524D01*
X169645000Y-104712000D01*
X169486879Y-104483907D01*
X169386548Y-104314114D01*
X169365544Y-104243567D01*
X169425488Y-104289060D01*
X169547915Y-104437160D01*
X169704410Y-104647605D01*
X169866556Y-104880134D01*
X170005936Y-105094488D01*
X170094135Y-105250404D01*
X170110667Y-105299283D01*
X170053133Y-105386449D01*
X169902032Y-105551751D01*
X169689614Y-105759996D01*
X169681626Y-105767479D01*
X169454140Y-106002721D01*
X169320873Y-106188741D01*
X169297969Y-106287065D01*
X169337747Y-106361683D01*
X169400824Y-106382918D01*
X169515200Y-106339730D01*
X169708876Y-106221074D01*
X170009853Y-106015908D01*
X170041927Y-105993678D01*
X170311783Y-105804478D01*
X170526140Y-105650342D01*
X170648026Y-105557975D01*
X170660421Y-105546950D01*
X170635696Y-105460527D01*
X170528782Y-105267356D01*
X170357482Y-104997348D01*
X170171270Y-104725113D01*
X169933384Y-104391714D01*
X169768958Y-104177968D01*
X169655841Y-104063767D01*
X169571885Y-104029005D01*
X169494940Y-104053575D01*
X169458064Y-104077674D01*
X169309079Y-104150228D01*
X169232789Y-104144566D01*
X169185127Y-104026765D01*
X169301401Y-103939784D01*
X169348667Y-103925468D01*
X169486082Y-103850882D01*
X169518000Y-103788593D01*
X169469821Y-103702059D01*
X169354473Y-103737353D01*
X169263134Y-103824044D01*
X169144847Y-103904793D01*
X169041100Y-103856010D01*
X168949997Y-103745477D01*
X168928251Y-103654967D01*
X168984592Y-103640193D01*
X169009330Y-103653252D01*
X169145907Y-103660705D01*
X169231869Y-103627632D01*
X169313394Y-103544724D01*
X169270240Y-103488042D01*
X169146995Y-103479162D01*
X169016270Y-103523311D01*
X168867632Y-103564352D01*
X168768380Y-103467114D01*
X168766871Y-103464432D01*
X168680371Y-103364813D01*
X168635961Y-103364483D01*
X168664038Y-103447370D01*
G37*
X168664038Y-103447370D02*
X168774810Y-103640359D01*
X168951565Y-103916469D01*
X169177590Y-104248718D01*
X169229676Y-104322991D01*
X169470065Y-104656247D01*
X169676452Y-104927783D01*
X169829633Y-105113403D01*
X169910402Y-105188911D01*
X169916530Y-105188359D01*
X169893995Y-105102668D01*
X169790718Y-104923524D01*
X169645000Y-104712000D01*
X169486879Y-104483907D01*
X169386548Y-104314114D01*
X169365544Y-104243567D01*
X169425488Y-104289060D01*
X169547915Y-104437160D01*
X169704410Y-104647605D01*
X169866556Y-104880134D01*
X170005936Y-105094488D01*
X170094135Y-105250404D01*
X170110667Y-105299283D01*
X170053133Y-105386449D01*
X169902032Y-105551751D01*
X169689614Y-105759996D01*
X169681626Y-105767479D01*
X169454140Y-106002721D01*
X169320873Y-106188741D01*
X169297969Y-106287065D01*
X169337747Y-106361683D01*
X169400824Y-106382918D01*
X169515200Y-106339730D01*
X169708876Y-106221074D01*
X170009853Y-106015908D01*
X170041927Y-105993678D01*
X170311783Y-105804478D01*
X170526140Y-105650342D01*
X170648026Y-105557975D01*
X170660421Y-105546950D01*
X170635696Y-105460527D01*
X170528782Y-105267356D01*
X170357482Y-104997348D01*
X170171270Y-104725113D01*
X169933384Y-104391714D01*
X169768958Y-104177968D01*
X169655841Y-104063767D01*
X169571885Y-104029005D01*
X169494940Y-104053575D01*
X169458064Y-104077674D01*
X169309079Y-104150228D01*
X169232789Y-104144566D01*
X169185127Y-104026765D01*
X169301401Y-103939784D01*
X169348667Y-103925468D01*
X169486082Y-103850882D01*
X169518000Y-103788593D01*
X169469821Y-103702059D01*
X169354473Y-103737353D01*
X169263134Y-103824044D01*
X169144847Y-103904793D01*
X169041100Y-103856010D01*
X168949997Y-103745477D01*
X168928251Y-103654967D01*
X168984592Y-103640193D01*
X169009330Y-103653252D01*
X169145907Y-103660705D01*
X169231869Y-103627632D01*
X169313394Y-103544724D01*
X169270240Y-103488042D01*
X169146995Y-103479162D01*
X169016270Y-103523311D01*
X168867632Y-103564352D01*
X168768380Y-103467114D01*
X168766871Y-103464432D01*
X168680371Y-103364813D01*
X168635961Y-103364483D01*
X168664038Y-103447370D01*
G36*
X173436165Y-104054087D02*
G01*
X173249288Y-104249992D01*
X172988558Y-104592944D01*
X172915480Y-104696501D01*
X172702118Y-105004316D01*
X172527333Y-105260208D01*
X172412472Y-105432694D01*
X172378469Y-105488440D01*
X172435115Y-105549620D01*
X172596974Y-105676721D01*
X172826876Y-105844004D01*
X173087653Y-106025730D01*
X173342136Y-106196162D01*
X173553155Y-106329561D01*
X173683542Y-106400188D01*
X173702560Y-106405333D01*
X173755004Y-106339422D01*
X173780308Y-106282616D01*
X173743447Y-106154050D01*
X173573643Y-105957195D01*
X173408366Y-105809066D01*
X173190929Y-105607053D01*
X173039453Y-105428176D01*
X172989333Y-105321627D01*
X173035688Y-105186775D01*
X173157223Y-104964445D01*
X173327648Y-104702723D01*
X173328000Y-104702220D01*
X173529114Y-104404313D01*
X173633899Y-104211046D01*
X173651215Y-104094363D01*
X173589921Y-104026206D01*
X173547511Y-104007059D01*
X173436165Y-104054087D01*
G37*
X173436165Y-104054087D02*
X173249288Y-104249992D01*
X172988558Y-104592944D01*
X172915480Y-104696501D01*
X172702118Y-105004316D01*
X172527333Y-105260208D01*
X172412472Y-105432694D01*
X172378469Y-105488440D01*
X172435115Y-105549620D01*
X172596974Y-105676721D01*
X172826876Y-105844004D01*
X173087653Y-106025730D01*
X173342136Y-106196162D01*
X173553155Y-106329561D01*
X173683542Y-106400188D01*
X173702560Y-106405333D01*
X173755004Y-106339422D01*
X173780308Y-106282616D01*
X173743447Y-106154050D01*
X173573643Y-105957195D01*
X173408366Y-105809066D01*
X173190929Y-105607053D01*
X173039453Y-105428176D01*
X172989333Y-105321627D01*
X173035688Y-105186775D01*
X173157223Y-104964445D01*
X173327648Y-104702723D01*
X173328000Y-104702220D01*
X173529114Y-104404313D01*
X173633899Y-104211046D01*
X173651215Y-104094363D01*
X173589921Y-104026206D01*
X173547511Y-104007059D01*
X173436165Y-104054087D01*
G36*
X168218123Y-103489696D02*
G01*
X168007719Y-103613894D01*
X167721238Y-103797978D01*
X167388769Y-104021621D01*
X167040399Y-104264492D01*
X166706217Y-104506264D01*
X166416310Y-104726607D01*
X166358321Y-104772709D01*
X166103890Y-104991720D01*
X165916504Y-105181111D01*
X165824380Y-105311060D01*
X165820881Y-105340737D01*
X165890434Y-105465345D01*
X166031535Y-105681475D01*
X166221615Y-105957852D01*
X166438105Y-106263198D01*
X166658434Y-106566236D01*
X166860034Y-106835689D01*
X167020335Y-107040282D01*
X167116767Y-107148738D01*
X167132372Y-107158200D01*
X167223077Y-107097963D01*
X167381300Y-106958092D01*
X167443667Y-106897770D01*
X167713917Y-106659383D01*
X168087487Y-106369132D01*
X168520553Y-106058952D01*
X168969288Y-105760776D01*
X169202873Y-105615887D01*
X169672273Y-105333229D01*
X169614571Y-105249438D01*
X169347309Y-105249438D01*
X169296047Y-105329797D01*
X169111162Y-105449145D01*
X168942758Y-105533684D01*
X168681447Y-105681027D01*
X168358312Y-105898442D01*
X168037229Y-106142539D01*
X167993729Y-106178326D01*
X167739639Y-106381748D01*
X167536869Y-106528902D01*
X167417793Y-106596891D01*
X167401333Y-106597313D01*
X167437554Y-106525761D01*
X167572485Y-106373585D01*
X167777934Y-106172272D01*
X167801244Y-106150675D01*
X168074290Y-105920864D01*
X168389212Y-105688948D01*
X168707153Y-105479834D01*
X168989255Y-105318432D01*
X168990152Y-105318048D01*
X168374472Y-105318048D01*
X168291948Y-105543123D01*
X168119920Y-105697385D01*
X167896842Y-105761089D01*
X167661170Y-105714486D01*
X167451356Y-105537830D01*
X167428149Y-105504533D01*
X167344757Y-105325817D01*
X167365876Y-105144126D01*
X167400374Y-105052982D01*
X167567930Y-104824521D01*
X167796932Y-104722586D01*
X168039155Y-104747753D01*
X168246373Y-104900597D01*
X168329039Y-105041908D01*
X168374472Y-105318048D01*
X168990152Y-105318048D01*
X169196662Y-105229648D01*
X169253140Y-105220000D01*
X169347309Y-105249438D01*
X169614571Y-105249438D01*
X169023637Y-104391327D01*
X168782207Y-104045830D01*
X168573507Y-103756716D01*
X168416631Y-103549733D01*
X168330672Y-103450629D01*
X168322363Y-103445713D01*
X168218123Y-103489696D01*
G37*
X168218123Y-103489696D02*
X168007719Y-103613894D01*
X167721238Y-103797978D01*
X167388769Y-104021621D01*
X167040399Y-104264492D01*
X166706217Y-104506264D01*
X166416310Y-104726607D01*
X166358321Y-104772709D01*
X166103890Y-104991720D01*
X165916504Y-105181111D01*
X165824380Y-105311060D01*
X165820881Y-105340737D01*
X165890434Y-105465345D01*
X166031535Y-105681475D01*
X166221615Y-105957852D01*
X166438105Y-106263198D01*
X166658434Y-106566236D01*
X166860034Y-106835689D01*
X167020335Y-107040282D01*
X167116767Y-107148738D01*
X167132372Y-107158200D01*
X167223077Y-107097963D01*
X167381300Y-106958092D01*
X167443667Y-106897770D01*
X167713917Y-106659383D01*
X168087487Y-106369132D01*
X168520553Y-106058952D01*
X168969288Y-105760776D01*
X169202873Y-105615887D01*
X169672273Y-105333229D01*
X169614571Y-105249438D01*
X169347309Y-105249438D01*
X169296047Y-105329797D01*
X169111162Y-105449145D01*
X168942758Y-105533684D01*
X168681447Y-105681027D01*
X168358312Y-105898442D01*
X168037229Y-106142539D01*
X167993729Y-106178326D01*
X167739639Y-106381748D01*
X167536869Y-106528902D01*
X167417793Y-106596891D01*
X167401333Y-106597313D01*
X167437554Y-106525761D01*
X167572485Y-106373585D01*
X167777934Y-106172272D01*
X167801244Y-106150675D01*
X168074290Y-105920864D01*
X168389212Y-105688948D01*
X168707153Y-105479834D01*
X168989255Y-105318432D01*
X168990152Y-105318048D01*
X168374472Y-105318048D01*
X168291948Y-105543123D01*
X168119920Y-105697385D01*
X167896842Y-105761089D01*
X167661170Y-105714486D01*
X167451356Y-105537830D01*
X167428149Y-105504533D01*
X167344757Y-105325817D01*
X167365876Y-105144126D01*
X167400374Y-105052982D01*
X167567930Y-104824521D01*
X167796932Y-104722586D01*
X168039155Y-104747753D01*
X168246373Y-104900597D01*
X168329039Y-105041908D01*
X168374472Y-105318048D01*
X168990152Y-105318048D01*
X169196662Y-105229648D01*
X169253140Y-105220000D01*
X169347309Y-105249438D01*
X169614571Y-105249438D01*
X169023637Y-104391327D01*
X168782207Y-104045830D01*
X168573507Y-103756716D01*
X168416631Y-103549733D01*
X168330672Y-103450629D01*
X168322363Y-103445713D01*
X168218123Y-103489696D01*
G36*
X174727104Y-103554313D02*
G01*
X174575598Y-103719919D01*
X174380634Y-103962600D01*
X174163342Y-104252580D01*
X173944858Y-104560085D01*
X173746313Y-104855340D01*
X173588841Y-105108569D01*
X173493574Y-105289998D01*
X173481646Y-105369851D01*
X173483251Y-105370528D01*
X173630080Y-105446423D01*
X173877600Y-105601537D01*
X174191997Y-105812219D01*
X174539454Y-106054822D01*
X174886155Y-106305696D01*
X175198285Y-106541193D01*
X175442028Y-106737664D01*
X175459149Y-106752359D01*
X175693375Y-106951513D01*
X175873425Y-107098455D01*
X175965557Y-107165778D01*
X175970019Y-107167333D01*
X176026918Y-107101888D01*
X176161268Y-106922598D01*
X176354407Y-106655033D01*
X176408989Y-106577753D01*
X175698667Y-106577753D01*
X175687292Y-106638658D01*
X175637155Y-106638457D01*
X175524238Y-106562572D01*
X175324524Y-106396420D01*
X175149994Y-106244669D01*
X174833324Y-105991801D01*
X174482800Y-105748178D01*
X174213935Y-105588503D01*
X173940698Y-105432017D01*
X173777922Y-105309663D01*
X173741631Y-105235584D01*
X173796481Y-105220000D01*
X173953838Y-105268147D01*
X174199301Y-105397074D01*
X174500266Y-105583509D01*
X174824129Y-105804181D01*
X175138288Y-106035817D01*
X175410138Y-106255145D01*
X175607077Y-106438894D01*
X175696502Y-106563792D01*
X175698667Y-106577753D01*
X176408989Y-106577753D01*
X176587674Y-106324762D01*
X176647741Y-106238741D01*
X177294740Y-105310148D01*
X177203844Y-105227074D01*
X175698667Y-105227074D01*
X175629114Y-105490388D01*
X175451277Y-105665063D01*
X175211390Y-105731728D01*
X174955687Y-105671014D01*
X174837500Y-105587878D01*
X174702886Y-105365637D01*
X174711863Y-105108683D01*
X174852000Y-104881333D01*
X175090168Y-104739733D01*
X175338236Y-104738005D01*
X175550023Y-104857289D01*
X175679342Y-105078725D01*
X175698667Y-105227074D01*
X177203844Y-105227074D01*
X176831911Y-104887148D01*
X176579602Y-104672748D01*
X176262639Y-104426858D01*
X175913058Y-104171572D01*
X175562897Y-103928983D01*
X175244193Y-103721185D01*
X174988984Y-103570272D01*
X174829307Y-103498338D01*
X174814017Y-103495558D01*
X174727104Y-103554313D01*
G37*
X174727104Y-103554313D02*
X174575598Y-103719919D01*
X174380634Y-103962600D01*
X174163342Y-104252580D01*
X173944858Y-104560085D01*
X173746313Y-104855340D01*
X173588841Y-105108569D01*
X173493574Y-105289998D01*
X173481646Y-105369851D01*
X173483251Y-105370528D01*
X173630080Y-105446423D01*
X173877600Y-105601537D01*
X174191997Y-105812219D01*
X174539454Y-106054822D01*
X174886155Y-106305696D01*
X175198285Y-106541193D01*
X175442028Y-106737664D01*
X175459149Y-106752359D01*
X175693375Y-106951513D01*
X175873425Y-107098455D01*
X175965557Y-107165778D01*
X175970019Y-107167333D01*
X176026918Y-107101888D01*
X176161268Y-106922598D01*
X176354407Y-106655033D01*
X176408989Y-106577753D01*
X175698667Y-106577753D01*
X175687292Y-106638658D01*
X175637155Y-106638457D01*
X175524238Y-106562572D01*
X175324524Y-106396420D01*
X175149994Y-106244669D01*
X174833324Y-105991801D01*
X174482800Y-105748178D01*
X174213935Y-105588503D01*
X173940698Y-105432017D01*
X173777922Y-105309663D01*
X173741631Y-105235584D01*
X173796481Y-105220000D01*
X173953838Y-105268147D01*
X174199301Y-105397074D01*
X174500266Y-105583509D01*
X174824129Y-105804181D01*
X175138288Y-106035817D01*
X175410138Y-106255145D01*
X175607077Y-106438894D01*
X175696502Y-106563792D01*
X175698667Y-106577753D01*
X176408989Y-106577753D01*
X176587674Y-106324762D01*
X176647741Y-106238741D01*
X177294740Y-105310148D01*
X177203844Y-105227074D01*
X175698667Y-105227074D01*
X175629114Y-105490388D01*
X175451277Y-105665063D01*
X175211390Y-105731728D01*
X174955687Y-105671014D01*
X174837500Y-105587878D01*
X174702886Y-105365637D01*
X174711863Y-105108683D01*
X174852000Y-104881333D01*
X175090168Y-104739733D01*
X175338236Y-104738005D01*
X175550023Y-104857289D01*
X175679342Y-105078725D01*
X175698667Y-105227074D01*
X177203844Y-105227074D01*
X176831911Y-104887148D01*
X176579602Y-104672748D01*
X176262639Y-104426858D01*
X175913058Y-104171572D01*
X175562897Y-103928983D01*
X175244193Y-103721185D01*
X174988984Y-103570272D01*
X174829307Y-103498338D01*
X174814017Y-103495558D01*
X174727104Y-103554313D01*
G36*
X168029255Y-106595465D02*
G01*
X167831819Y-106738337D01*
X167828648Y-106740847D01*
X167610622Y-106924215D01*
X167434855Y-107090918D01*
X167331659Y-107210089D01*
X167327467Y-107251205D01*
X167411710Y-107212050D01*
X167598539Y-107111171D01*
X167800782Y-106997045D01*
X168071112Y-106820921D01*
X168191009Y-106686061D01*
X168193907Y-106616886D01*
X168138799Y-106558766D01*
X168029255Y-106595465D01*
G37*
X168029255Y-106595465D02*
X167831819Y-106738337D01*
X167828648Y-106740847D01*
X167610622Y-106924215D01*
X167434855Y-107090918D01*
X167331659Y-107210089D01*
X167327467Y-107251205D01*
X167411710Y-107212050D01*
X167598539Y-107111171D01*
X167800782Y-106997045D01*
X168071112Y-106820921D01*
X168191009Y-106686061D01*
X168193907Y-106616886D01*
X168138799Y-106558766D01*
X168029255Y-106595465D01*
G36*
X165345061Y-108041337D02*
G01*
X165289722Y-108157545D01*
X165284667Y-108268000D01*
X165307448Y-108449527D01*
X165404288Y-108515934D01*
X165496333Y-108522000D01*
X165647606Y-108494662D01*
X165702945Y-108378454D01*
X165708000Y-108268000D01*
X165685219Y-108086473D01*
X165588379Y-108020066D01*
X165496333Y-108014000D01*
X165345061Y-108041337D01*
G37*
X165345061Y-108041337D02*
X165289722Y-108157545D01*
X165284667Y-108268000D01*
X165307448Y-108449527D01*
X165404288Y-108515934D01*
X165496333Y-108522000D01*
X165647606Y-108494662D01*
X165702945Y-108378454D01*
X165708000Y-108268000D01*
X165685219Y-108086473D01*
X165588379Y-108020066D01*
X165496333Y-108014000D01*
X165345061Y-108041337D01*
G36*
X177582500Y-108029543D02*
G01*
X177408097Y-108083454D01*
X177351214Y-108220851D01*
X177349667Y-108268000D01*
X177386896Y-108430832D01*
X177530832Y-108499105D01*
X177582500Y-108506457D01*
X177744359Y-108506235D01*
X177806432Y-108421706D01*
X177815333Y-108268000D01*
X177798790Y-108085511D01*
X177718322Y-108024056D01*
X177582500Y-108029543D01*
G37*
X177582500Y-108029543D02*
X177408097Y-108083454D01*
X177351214Y-108220851D01*
X177349667Y-108268000D01*
X177386896Y-108430832D01*
X177530832Y-108499105D01*
X177582500Y-108506457D01*
X177744359Y-108506235D01*
X177806432Y-108421706D01*
X177815333Y-108268000D01*
X177798790Y-108085511D01*
X177718322Y-108024056D01*
X177582500Y-108029543D01*
G36*
X165335212Y-109064969D02*
G01*
X165285561Y-109202660D01*
X165284667Y-109241667D01*
X165319636Y-109402788D01*
X165457327Y-109452439D01*
X165496333Y-109453333D01*
X165657455Y-109418364D01*
X165707106Y-109280673D01*
X165708000Y-109241667D01*
X165673031Y-109080545D01*
X165535340Y-109030894D01*
X165496333Y-109030000D01*
X165335212Y-109064969D01*
G37*
X165335212Y-109064969D02*
X165285561Y-109202660D01*
X165284667Y-109241667D01*
X165319636Y-109402788D01*
X165457327Y-109452439D01*
X165496333Y-109453333D01*
X165657455Y-109418364D01*
X165707106Y-109280673D01*
X165708000Y-109241667D01*
X165673031Y-109080545D01*
X165535340Y-109030894D01*
X165496333Y-109030000D01*
X165335212Y-109064969D01*
G36*
X165335212Y-109996303D02*
G01*
X165285561Y-110133993D01*
X165284667Y-110173000D01*
X165319636Y-110334122D01*
X165457327Y-110383773D01*
X165496333Y-110384667D01*
X165657455Y-110349697D01*
X165707106Y-110212007D01*
X165708000Y-110173000D01*
X165673031Y-110011878D01*
X165535340Y-109962227D01*
X165496333Y-109961333D01*
X165335212Y-109996303D01*
G37*
X165335212Y-109996303D02*
X165285561Y-110133993D01*
X165284667Y-110173000D01*
X165319636Y-110334122D01*
X165457327Y-110383773D01*
X165496333Y-110384667D01*
X165657455Y-110349697D01*
X165707106Y-110212007D01*
X165708000Y-110173000D01*
X165673031Y-110011878D01*
X165535340Y-109962227D01*
X165496333Y-109961333D01*
X165335212Y-109996303D01*
G36*
X165335212Y-111012303D02*
G01*
X165285561Y-111149993D01*
X165284667Y-111189000D01*
X165319636Y-111350122D01*
X165457327Y-111399773D01*
X165496333Y-111400667D01*
X165657455Y-111365697D01*
X165707106Y-111228007D01*
X165708000Y-111189000D01*
X165673031Y-111027878D01*
X165535340Y-110978227D01*
X165496333Y-110977333D01*
X165335212Y-111012303D01*
G37*
X165335212Y-111012303D02*
X165285561Y-111149993D01*
X165284667Y-111189000D01*
X165319636Y-111350122D01*
X165457327Y-111399773D01*
X165496333Y-111400667D01*
X165657455Y-111365697D01*
X165707106Y-111228007D01*
X165708000Y-111189000D01*
X165673031Y-111027878D01*
X165535340Y-110978227D01*
X165496333Y-110977333D01*
X165335212Y-111012303D01*
G36*
X165335212Y-111943636D02*
G01*
X165285561Y-112081326D01*
X165284667Y-112120333D01*
X165319636Y-112281455D01*
X165457327Y-112331106D01*
X165496333Y-112332000D01*
X165657455Y-112297030D01*
X165707106Y-112159340D01*
X165708000Y-112120333D01*
X165673031Y-111959211D01*
X165535340Y-111909560D01*
X165496333Y-111908667D01*
X165335212Y-111943636D01*
G37*
X165335212Y-111943636D02*
X165285561Y-112081326D01*
X165284667Y-112120333D01*
X165319636Y-112281455D01*
X165457327Y-112331106D01*
X165496333Y-112332000D01*
X165657455Y-112297030D01*
X165707106Y-112159340D01*
X165708000Y-112120333D01*
X165673031Y-111959211D01*
X165535340Y-111909560D01*
X165496333Y-111908667D01*
X165335212Y-111943636D01*
G36*
X177379807Y-111931448D02*
G01*
X177313399Y-112028288D01*
X177307333Y-112120333D01*
X177334671Y-112271605D01*
X177450879Y-112326945D01*
X177561333Y-112332000D01*
X177742860Y-112309219D01*
X177809268Y-112212379D01*
X177815333Y-112120333D01*
X177787996Y-111969061D01*
X177671788Y-111913721D01*
X177561333Y-111908667D01*
X177379807Y-111931448D01*
G37*
X177379807Y-111931448D02*
X177313399Y-112028288D01*
X177307333Y-112120333D01*
X177334671Y-112271605D01*
X177450879Y-112326945D01*
X177561333Y-112332000D01*
X177742860Y-112309219D01*
X177809268Y-112212379D01*
X177815333Y-112120333D01*
X177787996Y-111969061D01*
X177671788Y-111913721D01*
X177561333Y-111908667D01*
X177379807Y-111931448D01*
G36*
X165345061Y-112867337D02*
G01*
X165289722Y-112983545D01*
X165284667Y-113094000D01*
X165307448Y-113275527D01*
X165404288Y-113341934D01*
X165496333Y-113348000D01*
X165647606Y-113320662D01*
X165702945Y-113204454D01*
X165708000Y-113094000D01*
X165685219Y-112912473D01*
X165588379Y-112846066D01*
X165496333Y-112840000D01*
X165345061Y-112867337D01*
G37*
X165345061Y-112867337D02*
X165289722Y-112983545D01*
X165284667Y-113094000D01*
X165307448Y-113275527D01*
X165404288Y-113341934D01*
X165496333Y-113348000D01*
X165647606Y-113320662D01*
X165702945Y-113204454D01*
X165708000Y-113094000D01*
X165685219Y-112912473D01*
X165588379Y-112846066D01*
X165496333Y-112840000D01*
X165345061Y-112867337D01*
G36*
X177582500Y-112855543D02*
G01*
X177408097Y-112909454D01*
X177351214Y-113046851D01*
X177349667Y-113094000D01*
X177386896Y-113256832D01*
X177530832Y-113325105D01*
X177582500Y-113332457D01*
X177744359Y-113332235D01*
X177806432Y-113247706D01*
X177815333Y-113094000D01*
X177798790Y-112911511D01*
X177718322Y-112850056D01*
X177582500Y-112855543D01*
G37*
X177582500Y-112855543D02*
X177408097Y-112909454D01*
X177351214Y-113046851D01*
X177349667Y-113094000D01*
X177386896Y-113256832D01*
X177530832Y-113325105D01*
X177582500Y-113332457D01*
X177744359Y-113332235D01*
X177806432Y-113247706D01*
X177815333Y-113094000D01*
X177798790Y-112911511D01*
X177718322Y-112850056D01*
X177582500Y-112855543D01*
G36*
X171521675Y-101803812D02*
G01*
X171471975Y-101986310D01*
X171409772Y-102286130D01*
X171340482Y-102678073D01*
X171294202Y-102970335D01*
X171223017Y-103419044D01*
X171156307Y-103802209D01*
X171099475Y-104091537D01*
X171057924Y-104258735D01*
X171042425Y-104288667D01*
X170972245Y-104224615D01*
X170833325Y-104055037D01*
X170653070Y-103813794D01*
X170614168Y-103759500D01*
X170237667Y-103230333D01*
X170212510Y-103662291D01*
X170207680Y-103873201D01*
X170233214Y-104047678D01*
X170306570Y-104229464D01*
X170445205Y-104462300D01*
X170657010Y-104776048D01*
X170857929Y-105075994D01*
X171015933Y-105327622D01*
X171109864Y-105496360D01*
X171126667Y-105543395D01*
X171067582Y-105641584D01*
X170914716Y-105807204D01*
X170755765Y-105955423D01*
X170384862Y-106281905D01*
X170669838Y-106618786D01*
X170831550Y-106820943D01*
X170935405Y-106971859D01*
X170956074Y-107019167D01*
X170916881Y-107087241D01*
X170836439Y-107038148D01*
X170586774Y-107038148D01*
X170527151Y-107077370D01*
X170389145Y-107082667D01*
X170191624Y-107065436D01*
X170082983Y-107026761D01*
X170099885Y-106943949D01*
X170201347Y-106848791D01*
X170338464Y-106767331D01*
X170394100Y-106756531D01*
X170454320Y-106839727D01*
X170525992Y-106934500D01*
X170586774Y-107038148D01*
X170836439Y-107038148D01*
X170798063Y-107014728D01*
X170606099Y-106806844D01*
X170456763Y-106617000D01*
X170423306Y-106574667D01*
X170110667Y-106574667D01*
X170046238Y-106656873D01*
X170026000Y-106659333D01*
X169943794Y-106594904D01*
X169941333Y-106574667D01*
X170005763Y-106492460D01*
X170026000Y-106490000D01*
X170108207Y-106554429D01*
X170110667Y-106574667D01*
X170423306Y-106574667D01*
X170273011Y-106384504D01*
X170125519Y-106217724D01*
X170045437Y-106151806D01*
X170044424Y-106151754D01*
X169944766Y-106200354D01*
X169774604Y-106320160D01*
X169730121Y-106355033D01*
X169571323Y-106494285D01*
X169531963Y-106589108D01*
X169594042Y-106693990D01*
X169611409Y-106714446D01*
X169776770Y-106930211D01*
X169826740Y-107055666D01*
X169789487Y-107082667D01*
X169712766Y-107024749D01*
X169391916Y-107024749D01*
X169336008Y-107072499D01*
X169146409Y-107082658D01*
X169134982Y-107082667D01*
X168941476Y-107062870D01*
X168877744Y-107010706D01*
X168882719Y-106998455D01*
X168995353Y-106891803D01*
X169095827Y-106828045D01*
X169239276Y-106792511D01*
X169341458Y-106900093D01*
X169348091Y-106912257D01*
X169391916Y-107024749D01*
X169712766Y-107024749D01*
X169707896Y-107021073D01*
X169558699Y-106862890D01*
X169374518Y-106648013D01*
X169315460Y-106574667D01*
X168925333Y-106574667D01*
X168856757Y-106649781D01*
X168798333Y-106659333D01*
X168685662Y-106613616D01*
X168671333Y-106574667D01*
X168739910Y-106499552D01*
X168798333Y-106490000D01*
X168911005Y-106535717D01*
X168925333Y-106574667D01*
X169315460Y-106574667D01*
X169187972Y-106416339D01*
X169031682Y-106207765D01*
X168938269Y-106062186D01*
X168925333Y-106025778D01*
X168991477Y-105999852D01*
X169073500Y-106015327D01*
X169238000Y-105983272D01*
X169483286Y-105821442D01*
X169602667Y-105720368D01*
X169983667Y-105380671D01*
X169602667Y-105566253D01*
X169324641Y-105716067D01*
X168990494Y-105916173D01*
X168731343Y-106084109D01*
X168241019Y-106416384D01*
X168423501Y-106711645D01*
X168518268Y-106905207D01*
X168546025Y-107044008D01*
X168511528Y-107095571D01*
X168419536Y-107027420D01*
X168383873Y-106982120D01*
X168309399Y-106905323D01*
X168214832Y-106899371D01*
X168052539Y-106971447D01*
X167903962Y-107054491D01*
X167575732Y-107238837D01*
X167351923Y-107334745D01*
X167188384Y-107335010D01*
X167040960Y-107232428D01*
X166865497Y-107019793D01*
X166750738Y-106866315D01*
X166490128Y-106544147D01*
X166247494Y-106320308D01*
X165962124Y-106143182D01*
X165813833Y-106069790D01*
X165552479Y-105952987D01*
X165363371Y-105881133D01*
X165285010Y-105868735D01*
X165284667Y-105870399D01*
X165334424Y-105954646D01*
X165467354Y-106136577D01*
X165658947Y-106383195D01*
X165750333Y-106497287D01*
X166035413Y-106885786D01*
X166191294Y-107183812D01*
X166216940Y-107387239D01*
X166111310Y-107491941D01*
X166004333Y-107506000D01*
X165853061Y-107533337D01*
X165797722Y-107649545D01*
X165792667Y-107760000D01*
X165815448Y-107941527D01*
X165912288Y-108007934D01*
X166004333Y-108014000D01*
X166155606Y-108041337D01*
X166210945Y-108157545D01*
X166216000Y-108268000D01*
X166193219Y-108449527D01*
X166096379Y-108515934D01*
X166004333Y-108522000D01*
X165843212Y-108556969D01*
X165793561Y-108694660D01*
X165792667Y-108733667D01*
X165827636Y-108894788D01*
X165965327Y-108944439D01*
X166004333Y-108945333D01*
X166155606Y-108972671D01*
X166210945Y-109088879D01*
X166216000Y-109199333D01*
X166193219Y-109380860D01*
X166096379Y-109447267D01*
X166004333Y-109453333D01*
X165853061Y-109480671D01*
X165797722Y-109596879D01*
X165792667Y-109707333D01*
X165815448Y-109888860D01*
X165912288Y-109955267D01*
X166004333Y-109961333D01*
X166155606Y-109988671D01*
X166210945Y-110104879D01*
X166216000Y-110215333D01*
X166193219Y-110396860D01*
X166096379Y-110463267D01*
X166004333Y-110469333D01*
X165843212Y-110504303D01*
X165793561Y-110641993D01*
X165792667Y-110681000D01*
X165827636Y-110842122D01*
X165965327Y-110891773D01*
X166004333Y-110892667D01*
X166155606Y-110920004D01*
X166210945Y-111036212D01*
X166216000Y-111146667D01*
X166193219Y-111328193D01*
X166096379Y-111394601D01*
X166004333Y-111400667D01*
X165843212Y-111435636D01*
X165793561Y-111573326D01*
X165792667Y-111612333D01*
X165827636Y-111773455D01*
X165965327Y-111823106D01*
X166004333Y-111824000D01*
X166147475Y-111846140D01*
X166206074Y-111945771D01*
X166216000Y-112120333D01*
X166200186Y-112320731D01*
X166129021Y-112402771D01*
X166004333Y-112416667D01*
X165843212Y-112451636D01*
X165793561Y-112589326D01*
X165792667Y-112628333D01*
X165827636Y-112789455D01*
X165965327Y-112839106D01*
X166004333Y-112840000D01*
X166155606Y-112867337D01*
X166210945Y-112983545D01*
X166216000Y-113094000D01*
X166192872Y-113275879D01*
X166096077Y-113342270D01*
X166009957Y-113348000D01*
X165850609Y-113386933D01*
X165783489Y-113535095D01*
X165777124Y-113580833D01*
X165716484Y-113762174D01*
X165556324Y-113835134D01*
X165517500Y-113840457D01*
X165284667Y-113867247D01*
X165284667Y-116226667D01*
X165750333Y-116226667D01*
X166017921Y-116233015D01*
X166157489Y-116263251D01*
X166210200Y-116334163D01*
X166217464Y-116417167D01*
X166230028Y-116473707D01*
X166277229Y-116532975D01*
X166374657Y-116601946D01*
X166537903Y-116687595D01*
X166782557Y-116796897D01*
X167124208Y-116936829D01*
X167578446Y-117114365D01*
X168160862Y-117336481D01*
X168866676Y-117602500D01*
X169498511Y-117839385D01*
X170078655Y-118055903D01*
X170588401Y-118245151D01*
X171009043Y-118400224D01*
X171321875Y-118514217D01*
X171508190Y-118580225D01*
X171553379Y-118594179D01*
X171639017Y-118564495D01*
X171864179Y-118481687D01*
X172210098Y-118352787D01*
X172658008Y-118184826D01*
X173189145Y-117984835D01*
X173784743Y-117759845D01*
X174217000Y-117596158D01*
X174941323Y-117320468D01*
X175522148Y-117096204D01*
X175974951Y-116916465D01*
X176315206Y-116774354D01*
X176558388Y-116662972D01*
X176719971Y-116575419D01*
X176815431Y-116504797D01*
X176860242Y-116444206D01*
X176868722Y-116413979D01*
X176903122Y-116305172D01*
X176994785Y-116249002D01*
X177187385Y-116228666D01*
X177355555Y-116226667D01*
X177815333Y-116226667D01*
X177815333Y-115634000D01*
X175868000Y-115634000D01*
X175868000Y-116286708D01*
X173963000Y-116992409D01*
X173431326Y-117192103D01*
X172956814Y-117375570D01*
X172561247Y-117533956D01*
X172266410Y-117658408D01*
X172094086Y-117740070D01*
X172058000Y-117766722D01*
X171991964Y-117897600D01*
X171837742Y-118044051D01*
X171661159Y-118151267D01*
X171568839Y-118174000D01*
X171386768Y-118127004D01*
X171230172Y-118042199D01*
X171089647Y-117910105D01*
X171041189Y-117809366D01*
X170964587Y-117753715D01*
X170749996Y-117651971D01*
X170419524Y-117513196D01*
X169995282Y-117346453D01*
X169499378Y-117160803D01*
X169157356Y-117037231D01*
X168620172Y-116843959D01*
X168133271Y-116665319D01*
X167720433Y-116510315D01*
X167405438Y-116387953D01*
X167212067Y-116307239D01*
X167164177Y-116282442D01*
X167093575Y-116145415D01*
X167079510Y-115937545D01*
X167107446Y-115778792D01*
X167182407Y-115697738D01*
X167352097Y-115662369D01*
X167507167Y-115650528D01*
X167761214Y-115651478D01*
X167896263Y-115689526D01*
X167909333Y-115714028D01*
X167834816Y-115772588D01*
X167651132Y-115802381D01*
X167607112Y-115803333D01*
X167406863Y-115817035D01*
X167331068Y-115878312D01*
X167331945Y-115992584D01*
X167358297Y-116060604D01*
X167430032Y-116130988D01*
X167566070Y-116212410D01*
X167785333Y-116313546D01*
X168106743Y-116443070D01*
X168549220Y-116609657D01*
X169131687Y-116821984D01*
X169175434Y-116837788D01*
X170991867Y-117493741D01*
X171170557Y-117325871D01*
X171426900Y-117178699D01*
X171689782Y-117194099D01*
X171886341Y-117325007D01*
X171943995Y-117377722D01*
X172008678Y-117409873D01*
X172101639Y-117416131D01*
X172244122Y-117391167D01*
X172457374Y-117329653D01*
X172762642Y-117226259D01*
X173181173Y-117075658D01*
X173734212Y-116872519D01*
X173827407Y-116838174D01*
X174413817Y-116620116D01*
X174859346Y-116448877D01*
X175183026Y-116315582D01*
X175403889Y-116211359D01*
X175540967Y-116127332D01*
X175613293Y-116054630D01*
X175638325Y-115993833D01*
X175639275Y-115972667D01*
X174598000Y-115972667D01*
X174579222Y-116184740D01*
X174532312Y-116302697D01*
X174513333Y-116311333D01*
X174433926Y-116244897D01*
X174428667Y-116209733D01*
X174403676Y-116150829D01*
X174327067Y-116209733D01*
X174204527Y-116300352D01*
X174135756Y-116255353D01*
X174129448Y-116211607D01*
X173989531Y-116211607D01*
X173933626Y-116302273D01*
X173883444Y-116311333D01*
X173766973Y-116256289D01*
X173750037Y-116205500D01*
X173726553Y-116148376D01*
X173686537Y-116194622D01*
X173573827Y-116245501D01*
X173342913Y-116280743D01*
X173095167Y-116292113D01*
X172566000Y-116294649D01*
X172566000Y-115655426D01*
X172481333Y-115655426D01*
X172481333Y-115983380D01*
X172458958Y-116214810D01*
X172385384Y-116307049D01*
X172354333Y-116311333D01*
X172241085Y-116254379D01*
X172226037Y-116205500D01*
X172201005Y-116149389D01*
X172162537Y-116192369D01*
X172047000Y-116250247D01*
X171826011Y-116290251D01*
X171703467Y-116298685D01*
X171306601Y-116312300D01*
X171311299Y-115971886D01*
X171314807Y-115717671D01*
X170939940Y-115717671D01*
X170913831Y-115899537D01*
X170911771Y-115909167D01*
X170849056Y-116157802D01*
X170786565Y-116278499D01*
X170703056Y-116311283D01*
X170698337Y-116311333D01*
X170638437Y-116238847D01*
X170618667Y-116099667D01*
X170595534Y-115972667D01*
X170364667Y-115972667D01*
X170354283Y-116190001D01*
X170300045Y-116286622D01*
X170167326Y-116310897D01*
X170122212Y-116311333D01*
X169966621Y-116296828D01*
X169897449Y-116221067D01*
X169896563Y-116211607D01*
X169756198Y-116211607D01*
X169700293Y-116302273D01*
X169650111Y-116311333D01*
X169530512Y-116255853D01*
X169511316Y-116205500D01*
X169494297Y-116143108D01*
X169461927Y-116205500D01*
X169384303Y-116312792D01*
X169314937Y-116271732D01*
X169271047Y-116103062D01*
X169264000Y-115967043D01*
X169272850Y-115748904D01*
X169320959Y-115655856D01*
X169440671Y-115643795D01*
X169496833Y-115649543D01*
X169654026Y-115690996D01*
X169728089Y-115802189D01*
X169755944Y-115993833D01*
X169756198Y-116211607D01*
X169896563Y-116211607D01*
X169880070Y-116035683D01*
X169879758Y-115972667D01*
X169890142Y-115755332D01*
X169944380Y-115658711D01*
X170077098Y-115634436D01*
X170122212Y-115634000D01*
X169179333Y-115634000D01*
X169179333Y-116311333D01*
X168417333Y-116311333D01*
X168417333Y-115634000D01*
X169179333Y-115634000D01*
X170122212Y-115634000D01*
X170277804Y-115648505D01*
X170346976Y-115724266D01*
X170364355Y-115909650D01*
X170364667Y-115972667D01*
X170595534Y-115972667D01*
X170589684Y-115940552D01*
X170534000Y-115888000D01*
X170458886Y-115819423D01*
X170449333Y-115761000D01*
X170523019Y-115661353D01*
X170710061Y-115634000D01*
X170884605Y-115646331D01*
X170939940Y-115717671D01*
X171314807Y-115717671D01*
X171315997Y-115631473D01*
X171898665Y-115643450D01*
X172481333Y-115655426D01*
X172566000Y-115655426D01*
X172566000Y-115651289D01*
X173963000Y-115676333D01*
X173989278Y-115993833D01*
X173989531Y-116211607D01*
X174129448Y-116211607D01*
X174107698Y-116060779D01*
X174105288Y-115972667D01*
X174112227Y-115755540D01*
X174164421Y-115658977D01*
X174296783Y-115634525D01*
X174349307Y-115634000D01*
X174508826Y-115647874D01*
X174579742Y-115721805D01*
X174597640Y-115904252D01*
X174598000Y-115972667D01*
X175639275Y-115972667D01*
X175643847Y-115870807D01*
X175568116Y-115816342D01*
X175369232Y-115803387D01*
X175343263Y-115803333D01*
X175134629Y-115784923D01*
X175058388Y-115735425D01*
X175063667Y-115718667D01*
X175173333Y-115667225D01*
X175388005Y-115637187D01*
X175491997Y-115634000D01*
X175868000Y-115634000D01*
X177815333Y-115634000D01*
X177815333Y-114702667D01*
X177138000Y-114702667D01*
X177138000Y-114999000D01*
X177112756Y-115218117D01*
X177029566Y-115282994D01*
X176877246Y-115196922D01*
X176778167Y-115104833D01*
X176587667Y-114914333D01*
X176561337Y-115099299D01*
X176536751Y-115189493D01*
X176471328Y-115244589D01*
X176330304Y-115273389D01*
X176078915Y-115284699D01*
X175820503Y-115286917D01*
X175473509Y-115286184D01*
X175262202Y-115274351D01*
X175152942Y-115241714D01*
X175112089Y-115178568D01*
X175106000Y-115080784D01*
X175076654Y-114923054D01*
X175021333Y-114872000D01*
X174957688Y-114944456D01*
X174936667Y-115083667D01*
X174892506Y-115253905D01*
X174809667Y-115295333D01*
X174707524Y-115221732D01*
X174682667Y-115083667D01*
X174653684Y-114924552D01*
X174598000Y-114872000D01*
X174534354Y-114944456D01*
X174513333Y-115083667D01*
X174490311Y-115228296D01*
X174387772Y-115286373D01*
X174225380Y-115295333D01*
X174032868Y-115282259D01*
X173955767Y-115208500D01*
X173945206Y-115022255D01*
X173945827Y-114999000D01*
X173836000Y-114999000D01*
X173821841Y-115198095D01*
X173750021Y-115279755D01*
X173582000Y-115295333D01*
X173411347Y-115278814D01*
X173341353Y-115195024D01*
X173328000Y-114999000D01*
X173243333Y-114999000D01*
X173215794Y-115218173D01*
X173127900Y-115294797D01*
X173116333Y-115295333D01*
X173003993Y-115225430D01*
X172979512Y-115147167D01*
X172967686Y-115042819D01*
X172942694Y-115102944D01*
X172930971Y-115147167D01*
X172838907Y-115245708D01*
X172672846Y-115294383D01*
X172502608Y-115287730D01*
X172398014Y-115220285D01*
X172389983Y-115189500D01*
X172372964Y-115127108D01*
X172340594Y-115189500D01*
X172247397Y-115303742D01*
X172146551Y-115278228D01*
X172073614Y-115136927D01*
X172058000Y-114999000D01*
X172058000Y-114718060D01*
X171973333Y-114718060D01*
X171973333Y-115295221D01*
X171444167Y-115278762D01*
X171157466Y-115256786D01*
X170941685Y-115216095D01*
X170852797Y-115172984D01*
X170797910Y-115139616D01*
X170789297Y-115189500D01*
X170719803Y-115283292D01*
X170661000Y-115295333D01*
X170195333Y-115295333D01*
X169704267Y-115295333D01*
X169419481Y-115278732D01*
X169198267Y-115235882D01*
X169111600Y-115193733D01*
X169027705Y-115134829D01*
X169010000Y-115193733D01*
X168951114Y-115280139D01*
X168835230Y-115286031D01*
X168753504Y-115212889D01*
X168749316Y-115189500D01*
X168732297Y-115127108D01*
X168699927Y-115189500D01*
X168606424Y-115303004D01*
X168504770Y-115277265D01*
X168431889Y-115136262D01*
X168417333Y-115005982D01*
X168417333Y-114993337D01*
X168332667Y-114993337D01*
X168318382Y-115189282D01*
X168245404Y-115266857D01*
X168078667Y-115276786D01*
X167900185Y-115250714D01*
X167832606Y-115150088D01*
X167823370Y-115007282D01*
X167807718Y-114843739D01*
X167761578Y-114842390D01*
X167749081Y-114860206D01*
X167707385Y-115034548D01*
X167718905Y-115139142D01*
X167728021Y-115224137D01*
X167677129Y-115271070D01*
X167532749Y-115288634D01*
X167261404Y-115285523D01*
X167167047Y-115282439D01*
X166572372Y-115262004D01*
X166579826Y-114999000D01*
X166470000Y-114999000D01*
X166455841Y-115198095D01*
X166384021Y-115279755D01*
X166216000Y-115295333D01*
X166045347Y-115278814D01*
X165975353Y-115195024D01*
X165962000Y-114999000D01*
X165976160Y-114799905D01*
X166047980Y-114718244D01*
X166216000Y-114702667D01*
X166386653Y-114719186D01*
X166456648Y-114802976D01*
X166470000Y-114999000D01*
X166579826Y-114999000D01*
X166580177Y-114986637D01*
X166587983Y-114711271D01*
X167329278Y-114728135D01*
X167696930Y-114728449D01*
X167923402Y-114710424D01*
X167996427Y-114675239D01*
X167989953Y-114664567D01*
X167912818Y-114531037D01*
X167978871Y-114455194D01*
X168036333Y-114448667D01*
X168148582Y-114516439D01*
X168163333Y-114575667D01*
X168209051Y-114688338D01*
X168248000Y-114702667D01*
X168304394Y-114776992D01*
X168332086Y-114959312D01*
X168332667Y-114993337D01*
X168417333Y-114993337D01*
X168417333Y-114716632D01*
X169306333Y-114709496D01*
X170195333Y-114702359D01*
X170195333Y-115295333D01*
X170661000Y-115295333D01*
X170565913Y-115229239D01*
X170534061Y-115020183D01*
X170534000Y-115006697D01*
X170534000Y-114718060D01*
X171973333Y-114718060D01*
X172058000Y-114718060D01*
X172058000Y-114702667D01*
X172481333Y-114702667D01*
X172771262Y-114723352D01*
X172903394Y-114784502D01*
X172911351Y-114808500D01*
X172928370Y-114870892D01*
X172960740Y-114808500D01*
X173053936Y-114694257D01*
X173154783Y-114719772D01*
X173227719Y-114861072D01*
X173243333Y-114999000D01*
X173328000Y-114999000D01*
X173342160Y-114799905D01*
X173413980Y-114718244D01*
X173582000Y-114702667D01*
X173752653Y-114719186D01*
X173822648Y-114802976D01*
X173836000Y-114999000D01*
X173945827Y-114999000D01*
X173954227Y-114702667D01*
X174657113Y-114702667D01*
X175000753Y-114704923D01*
X175208961Y-114718243D01*
X175315636Y-114752453D01*
X175354675Y-114817377D01*
X175360000Y-114906407D01*
X175388214Y-115053698D01*
X175498144Y-115073135D01*
X175529333Y-115065865D01*
X175667686Y-114962345D01*
X175698667Y-114862125D01*
X175714591Y-114784374D01*
X175784232Y-114736860D01*
X175940392Y-114712316D01*
X176215873Y-114703473D01*
X176418333Y-114702667D01*
X177138000Y-114702667D01*
X177815333Y-114702667D01*
X177815333Y-113856000D01*
X177561333Y-113856000D01*
X177381425Y-113835021D01*
X177315115Y-113736060D01*
X177307333Y-113602000D01*
X177286354Y-113422092D01*
X177187394Y-113355781D01*
X177053333Y-113348000D01*
X176873425Y-113327021D01*
X176807115Y-113228060D01*
X176799333Y-113094000D01*
X176820313Y-112914092D01*
X176919273Y-112847781D01*
X177053333Y-112840000D01*
X177235213Y-112816872D01*
X177301604Y-112720076D01*
X177307333Y-112633957D01*
X177268400Y-112474609D01*
X177120238Y-112407489D01*
X177074500Y-112401124D01*
X176907011Y-112353675D01*
X176846718Y-112227069D01*
X176841667Y-112120333D01*
X176867496Y-111934645D01*
X176977192Y-111856250D01*
X177074500Y-111839543D01*
X177249505Y-111784952D01*
X177306087Y-111647328D01*
X177307333Y-111606709D01*
X177335845Y-111459170D01*
X177455169Y-111405315D01*
X177561333Y-111400667D01*
X177742860Y-111377885D01*
X177809268Y-111281045D01*
X177815333Y-111189000D01*
X177787996Y-111037728D01*
X177671788Y-110982388D01*
X177561333Y-110977333D01*
X177379807Y-111000114D01*
X177313399Y-111096954D01*
X177307333Y-111189000D01*
X177279996Y-111340272D01*
X177163788Y-111395612D01*
X177053333Y-111400667D01*
X176873425Y-111379687D01*
X176807115Y-111280727D01*
X176799333Y-111146667D01*
X176820313Y-110966758D01*
X176919273Y-110900448D01*
X177053333Y-110892667D01*
X177234860Y-110869885D01*
X177301268Y-110773045D01*
X177307333Y-110681000D01*
X177279996Y-110529728D01*
X177163788Y-110474388D01*
X177053333Y-110469333D01*
X176873425Y-110448354D01*
X176807115Y-110349393D01*
X176799333Y-110215333D01*
X176820313Y-110035425D01*
X176919273Y-109969115D01*
X177053333Y-109961333D01*
X177234860Y-109984114D01*
X177301268Y-110080954D01*
X177307333Y-110173000D01*
X177334671Y-110324272D01*
X177450879Y-110379612D01*
X177561333Y-110384667D01*
X177742860Y-110361885D01*
X177809268Y-110265045D01*
X177815333Y-110173000D01*
X177787996Y-110021728D01*
X177671788Y-109966388D01*
X177561333Y-109961333D01*
X177381425Y-109940354D01*
X177315115Y-109841393D01*
X177307333Y-109707333D01*
X177328313Y-109527425D01*
X177427273Y-109461115D01*
X177561333Y-109453333D01*
X177742860Y-109430552D01*
X177809268Y-109333712D01*
X177815333Y-109241667D01*
X177787996Y-109090394D01*
X177671788Y-109035055D01*
X177561333Y-109030000D01*
X177379807Y-109052781D01*
X177313399Y-109149621D01*
X177307333Y-109241667D01*
X177279996Y-109392939D01*
X177163788Y-109448278D01*
X177053333Y-109453333D01*
X176873425Y-109432354D01*
X176807115Y-109333393D01*
X176799333Y-109199333D01*
X176820313Y-109019425D01*
X176919273Y-108953115D01*
X177053333Y-108945333D01*
X177234860Y-108922552D01*
X177301268Y-108825712D01*
X177307333Y-108733667D01*
X177279996Y-108582394D01*
X177163788Y-108527055D01*
X177053333Y-108522000D01*
X176873425Y-108501021D01*
X176807115Y-108402060D01*
X176799333Y-108268000D01*
X176820313Y-108088092D01*
X176919273Y-108021781D01*
X177053333Y-108014000D01*
X177233242Y-107993021D01*
X177299552Y-107894060D01*
X177307333Y-107760000D01*
X177284552Y-107578473D01*
X177187712Y-107512066D01*
X177095667Y-107506000D01*
X176376000Y-107506000D01*
X176376000Y-114110000D01*
X175868000Y-114110000D01*
X175868000Y-108606667D01*
X175106000Y-108606667D01*
X175106000Y-113686667D01*
X174428667Y-113686667D01*
X174428667Y-111570000D01*
X173948500Y-111570000D01*
X173659589Y-111562358D01*
X173451298Y-111523600D01*
X173310472Y-111429980D01*
X173223955Y-111257750D01*
X173203645Y-111134802D01*
X172566000Y-111134802D01*
X172565516Y-111795616D01*
X172562961Y-112308267D01*
X172556682Y-112693923D01*
X172545023Y-112973754D01*
X172526330Y-113168928D01*
X172498951Y-113300615D01*
X172461229Y-113389983D01*
X172411512Y-113458203D01*
X172381908Y-113490710D01*
X172263953Y-113593570D01*
X172119614Y-113652917D01*
X171901259Y-113680149D01*
X171563075Y-113686667D01*
X171184591Y-113674373D01*
X170937445Y-113633173D01*
X170785132Y-113556589D01*
X170773500Y-113546544D01*
X170709769Y-113469822D01*
X170666096Y-113355464D01*
X170638844Y-113173634D01*
X170624374Y-112894498D01*
X170619051Y-112488222D01*
X170618667Y-112276544D01*
X170618667Y-111146667D01*
X171634667Y-111146667D01*
X171634667Y-111485333D01*
X171620467Y-111706901D01*
X171563072Y-111804826D01*
X171465333Y-111824000D01*
X171376344Y-111839989D01*
X171325363Y-111912096D01*
X171302045Y-112076528D01*
X171296047Y-112369490D01*
X171296000Y-112416667D01*
X171296000Y-113009333D01*
X171888667Y-113009333D01*
X171888667Y-109284000D01*
X171597957Y-109284000D01*
X171397065Y-109302284D01*
X171308000Y-109384492D01*
X171280457Y-109516833D01*
X171239004Y-109674026D01*
X171127811Y-109748089D01*
X170936167Y-109775944D01*
X170618667Y-109802222D01*
X170618667Y-109400401D01*
X170653461Y-109049392D01*
X170772551Y-108813339D01*
X170997996Y-108674036D01*
X171351855Y-108613280D01*
X171580469Y-108606667D01*
X169941333Y-108606667D01*
X169941333Y-113686667D01*
X169264000Y-113686667D01*
X169264000Y-111570000D01*
X168586667Y-111570000D01*
X168586667Y-113686667D01*
X167909333Y-113686667D01*
X167909333Y-112590801D01*
X167911057Y-112139708D01*
X167919316Y-111827373D01*
X167938739Y-111623230D01*
X167973957Y-111496715D01*
X168029600Y-111417263D01*
X168095045Y-111364858D01*
X168280756Y-111234781D01*
X168095045Y-111037100D01*
X168012152Y-110933346D01*
X167958229Y-110809257D01*
X167927182Y-110628144D01*
X167912917Y-110353318D01*
X167909341Y-109948089D01*
X167909333Y-109919000D01*
X167912510Y-109504502D01*
X167926067Y-109222664D01*
X167956041Y-109036868D01*
X168008471Y-108910497D01*
X168089395Y-108806932D01*
X168093425Y-108802623D01*
X168193123Y-108711759D01*
X168311377Y-108654223D01*
X168487014Y-108622525D01*
X168758859Y-108609179D01*
X169109425Y-108606667D01*
X169941333Y-108606667D01*
X171580469Y-108606667D01*
X171918449Y-108615982D01*
X172138730Y-108651854D01*
X172292309Y-108726173D01*
X172370043Y-108790758D01*
X172429866Y-108850649D01*
X172476076Y-108918043D01*
X172510431Y-109013962D01*
X172534688Y-109159424D01*
X172550604Y-109375448D01*
X172559937Y-109683054D01*
X172564443Y-110103262D01*
X172565880Y-110657091D01*
X172566000Y-111134802D01*
X173203645Y-111134802D01*
X173178595Y-110983163D01*
X173161235Y-110582472D01*
X173158667Y-110144168D01*
X173160606Y-109678269D01*
X173169302Y-109350200D01*
X173189077Y-109128476D01*
X173224252Y-108981610D01*
X173279146Y-108878118D01*
X173342759Y-108802623D01*
X173445571Y-108709613D01*
X173568132Y-108651648D01*
X173750777Y-108620610D01*
X174033841Y-108608382D01*
X174316425Y-108606667D01*
X175106000Y-108606667D01*
X175868000Y-108606667D01*
X175868000Y-108014000D01*
X173941833Y-108016693D01*
X173293883Y-108019522D01*
X172794867Y-108026795D01*
X172424416Y-108039750D01*
X172162160Y-108059624D01*
X171987731Y-108087655D01*
X171880760Y-108125080D01*
X171851318Y-108143693D01*
X171606958Y-108253016D01*
X171364986Y-108241945D01*
X171211333Y-108141000D01*
X171152399Y-108099185D01*
X171040483Y-108067367D01*
X170855320Y-108044284D01*
X170576640Y-108028676D01*
X170184177Y-108019282D01*
X169657662Y-108014840D01*
X169170036Y-108014000D01*
X167234139Y-108014000D01*
X167211903Y-111040833D01*
X167189667Y-114067667D01*
X166956833Y-114094457D01*
X166724000Y-114121247D01*
X166724000Y-107506000D01*
X168869992Y-107506000D01*
X169553782Y-107504457D01*
X170089368Y-107499046D01*
X170497862Y-107488587D01*
X170800371Y-107471905D01*
X171018004Y-107447821D01*
X171171872Y-107415160D01*
X171283083Y-107372743D01*
X171286056Y-107371270D01*
X171481542Y-107288011D01*
X171617073Y-107291594D01*
X171761752Y-107371270D01*
X171847273Y-107413117D01*
X171974075Y-107445536D01*
X172162428Y-107469660D01*
X172432601Y-107486624D01*
X172804861Y-107497560D01*
X173299479Y-107503601D01*
X173936723Y-107505880D01*
X174171688Y-107506000D01*
X176376000Y-107506000D01*
X177095667Y-107506000D01*
X176920314Y-107453014D01*
X176873853Y-107298184D01*
X176954782Y-107047695D01*
X177161600Y-106707736D01*
X177350139Y-106457561D01*
X177557598Y-106194937D01*
X177717396Y-105987454D01*
X177805486Y-105866570D01*
X177815333Y-105848949D01*
X177744935Y-105867667D01*
X177559929Y-105941346D01*
X177299596Y-106054295D01*
X177286167Y-106060307D01*
X176969626Y-106221623D01*
X176722452Y-106405981D01*
X176484407Y-106663305D01*
X176347465Y-106838252D01*
X176093560Y-107145596D01*
X175901773Y-107317347D01*
X175797132Y-107351351D01*
X175649107Y-107296501D01*
X175414088Y-107183785D01*
X175219303Y-107079676D01*
X175217829Y-107078901D01*
X174301667Y-107078901D01*
X173984167Y-107080784D01*
X173780043Y-107064491D01*
X173671874Y-107021734D01*
X173666667Y-107008367D01*
X173728201Y-106863666D01*
X173880349Y-106825670D01*
X174074427Y-106904801D01*
X174091492Y-106917412D01*
X174301667Y-107078901D01*
X175217829Y-107078901D01*
X174966715Y-106946873D01*
X174814877Y-106896131D01*
X174721989Y-106918113D01*
X174679769Y-106959158D01*
X174546867Y-107077383D01*
X174486137Y-107057831D01*
X174518957Y-106924257D01*
X174568519Y-106835522D01*
X174713072Y-106651949D01*
X174829543Y-106582220D01*
X174890781Y-106639253D01*
X174894333Y-106680500D01*
X174964226Y-106771914D01*
X175146035Y-106903420D01*
X175360000Y-107024987D01*
X175825667Y-107263641D01*
X175487000Y-106961701D01*
X175229560Y-106746103D01*
X175009312Y-106574667D01*
X174344000Y-106574667D01*
X174279571Y-106656873D01*
X174259333Y-106659333D01*
X174177127Y-106594904D01*
X174174667Y-106574667D01*
X174239096Y-106492460D01*
X174259333Y-106490000D01*
X174341540Y-106554429D01*
X174344000Y-106574667D01*
X175009312Y-106574667D01*
X174910927Y-106498087D01*
X174668578Y-106320438D01*
X174188823Y-105981115D01*
X173784416Y-106531891D01*
X173588329Y-106788188D01*
X173425800Y-106980955D01*
X173324982Y-107077393D01*
X173311671Y-107082667D01*
X173249232Y-107049519D01*
X173271096Y-106984046D01*
X172982260Y-106984046D01*
X172921926Y-107061241D01*
X172732355Y-107082667D01*
X172560120Y-107070233D01*
X172523612Y-107010502D01*
X172566000Y-106913333D01*
X172681487Y-106765132D01*
X172805276Y-106776398D01*
X172887733Y-106845600D01*
X172982260Y-106984046D01*
X173271096Y-106984046D01*
X173287603Y-106934618D01*
X173411140Y-106746144D01*
X173533242Y-106574667D01*
X173116333Y-106574667D01*
X173109621Y-106652685D01*
X173078997Y-106659333D01*
X172992779Y-106597873D01*
X172989333Y-106574667D01*
X173018220Y-106492201D01*
X173026670Y-106490000D01*
X173098956Y-106549329D01*
X173116333Y-106574667D01*
X173533242Y-106574667D01*
X173578947Y-106510481D01*
X173261838Y-106300629D01*
X172944729Y-106090776D01*
X172749963Y-106396221D01*
X172525926Y-106725891D01*
X172342784Y-106952410D01*
X172215849Y-107058269D01*
X172172683Y-107056238D01*
X172190143Y-106966294D01*
X172288851Y-106788878D01*
X172389586Y-106642322D01*
X172656907Y-106278822D01*
X172265458Y-105914230D01*
X172054515Y-105709234D01*
X171952695Y-105575991D01*
X171940035Y-105476660D01*
X171987171Y-105386710D01*
X172308780Y-104923817D01*
X172546590Y-104577646D01*
X172712271Y-104325063D01*
X172817492Y-104142933D01*
X172873923Y-104008122D01*
X172893232Y-103897495D01*
X172887088Y-103787919D01*
X172867162Y-103656258D01*
X172865517Y-103645381D01*
X172807358Y-103257552D01*
X172438446Y-103781454D01*
X172256762Y-104037534D01*
X172113951Y-104235229D01*
X172036855Y-104337457D01*
X172032264Y-104342625D01*
X172007334Y-104277128D01*
X171963333Y-104071931D01*
X171905501Y-103754911D01*
X171839081Y-103353946D01*
X171803843Y-103127781D01*
X171732768Y-102679962D01*
X171665384Y-102287443D01*
X171607672Y-101982800D01*
X171565612Y-101798608D01*
X171553457Y-101763835D01*
X171521675Y-101803812D01*
G37*
X171521675Y-101803812D02*
X171471975Y-101986310D01*
X171409772Y-102286130D01*
X171340482Y-102678073D01*
X171294202Y-102970335D01*
X171223017Y-103419044D01*
X171156307Y-103802209D01*
X171099475Y-104091537D01*
X171057924Y-104258735D01*
X171042425Y-104288667D01*
X170972245Y-104224615D01*
X170833325Y-104055037D01*
X170653070Y-103813794D01*
X170614168Y-103759500D01*
X170237667Y-103230333D01*
X170212510Y-103662291D01*
X170207680Y-103873201D01*
X170233214Y-104047678D01*
X170306570Y-104229464D01*
X170445205Y-104462300D01*
X170657010Y-104776048D01*
X170857929Y-105075994D01*
X171015933Y-105327622D01*
X171109864Y-105496360D01*
X171126667Y-105543395D01*
X171067582Y-105641584D01*
X170914716Y-105807204D01*
X170755765Y-105955423D01*
X170384862Y-106281905D01*
X170669838Y-106618786D01*
X170831550Y-106820943D01*
X170935405Y-106971859D01*
X170956074Y-107019167D01*
X170916881Y-107087241D01*
X170836439Y-107038148D01*
X170586774Y-107038148D01*
X170527151Y-107077370D01*
X170389145Y-107082667D01*
X170191624Y-107065436D01*
X170082983Y-107026761D01*
X170099885Y-106943949D01*
X170201347Y-106848791D01*
X170338464Y-106767331D01*
X170394100Y-106756531D01*
X170454320Y-106839727D01*
X170525992Y-106934500D01*
X170586774Y-107038148D01*
X170836439Y-107038148D01*
X170798063Y-107014728D01*
X170606099Y-106806844D01*
X170456763Y-106617000D01*
X170423306Y-106574667D01*
X170110667Y-106574667D01*
X170046238Y-106656873D01*
X170026000Y-106659333D01*
X169943794Y-106594904D01*
X169941333Y-106574667D01*
X170005763Y-106492460D01*
X170026000Y-106490000D01*
X170108207Y-106554429D01*
X170110667Y-106574667D01*
X170423306Y-106574667D01*
X170273011Y-106384504D01*
X170125519Y-106217724D01*
X170045437Y-106151806D01*
X170044424Y-106151754D01*
X169944766Y-106200354D01*
X169774604Y-106320160D01*
X169730121Y-106355033D01*
X169571323Y-106494285D01*
X169531963Y-106589108D01*
X169594042Y-106693990D01*
X169611409Y-106714446D01*
X169776770Y-106930211D01*
X169826740Y-107055666D01*
X169789487Y-107082667D01*
X169712766Y-107024749D01*
X169391916Y-107024749D01*
X169336008Y-107072499D01*
X169146409Y-107082658D01*
X169134982Y-107082667D01*
X168941476Y-107062870D01*
X168877744Y-107010706D01*
X168882719Y-106998455D01*
X168995353Y-106891803D01*
X169095827Y-106828045D01*
X169239276Y-106792511D01*
X169341458Y-106900093D01*
X169348091Y-106912257D01*
X169391916Y-107024749D01*
X169712766Y-107024749D01*
X169707896Y-107021073D01*
X169558699Y-106862890D01*
X169374518Y-106648013D01*
X169315460Y-106574667D01*
X168925333Y-106574667D01*
X168856757Y-106649781D01*
X168798333Y-106659333D01*
X168685662Y-106613616D01*
X168671333Y-106574667D01*
X168739910Y-106499552D01*
X168798333Y-106490000D01*
X168911005Y-106535717D01*
X168925333Y-106574667D01*
X169315460Y-106574667D01*
X169187972Y-106416339D01*
X169031682Y-106207765D01*
X168938269Y-106062186D01*
X168925333Y-106025778D01*
X168991477Y-105999852D01*
X169073500Y-106015327D01*
X169238000Y-105983272D01*
X169483286Y-105821442D01*
X169602667Y-105720368D01*
X169983667Y-105380671D01*
X169602667Y-105566253D01*
X169324641Y-105716067D01*
X168990494Y-105916173D01*
X168731343Y-106084109D01*
X168241019Y-106416384D01*
X168423501Y-106711645D01*
X168518268Y-106905207D01*
X168546025Y-107044008D01*
X168511528Y-107095571D01*
X168419536Y-107027420D01*
X168383873Y-106982120D01*
X168309399Y-106905323D01*
X168214832Y-106899371D01*
X168052539Y-106971447D01*
X167903962Y-107054491D01*
X167575732Y-107238837D01*
X167351923Y-107334745D01*
X167188384Y-107335010D01*
X167040960Y-107232428D01*
X166865497Y-107019793D01*
X166750738Y-106866315D01*
X166490128Y-106544147D01*
X166247494Y-106320308D01*
X165962124Y-106143182D01*
X165813833Y-106069790D01*
X165552479Y-105952987D01*
X165363371Y-105881133D01*
X165285010Y-105868735D01*
X165284667Y-105870399D01*
X165334424Y-105954646D01*
X165467354Y-106136577D01*
X165658947Y-106383195D01*
X165750333Y-106497287D01*
X166035413Y-106885786D01*
X166191294Y-107183812D01*
X166216940Y-107387239D01*
X166111310Y-107491941D01*
X166004333Y-107506000D01*
X165853061Y-107533337D01*
X165797722Y-107649545D01*
X165792667Y-107760000D01*
X165815448Y-107941527D01*
X165912288Y-108007934D01*
X166004333Y-108014000D01*
X166155606Y-108041337D01*
X166210945Y-108157545D01*
X166216000Y-108268000D01*
X166193219Y-108449527D01*
X166096379Y-108515934D01*
X166004333Y-108522000D01*
X165843212Y-108556969D01*
X165793561Y-108694660D01*
X165792667Y-108733667D01*
X165827636Y-108894788D01*
X165965327Y-108944439D01*
X166004333Y-108945333D01*
X166155606Y-108972671D01*
X166210945Y-109088879D01*
X166216000Y-109199333D01*
X166193219Y-109380860D01*
X166096379Y-109447267D01*
X166004333Y-109453333D01*
X165853061Y-109480671D01*
X165797722Y-109596879D01*
X165792667Y-109707333D01*
X165815448Y-109888860D01*
X165912288Y-109955267D01*
X166004333Y-109961333D01*
X166155606Y-109988671D01*
X166210945Y-110104879D01*
X166216000Y-110215333D01*
X166193219Y-110396860D01*
X166096379Y-110463267D01*
X166004333Y-110469333D01*
X165843212Y-110504303D01*
X165793561Y-110641993D01*
X165792667Y-110681000D01*
X165827636Y-110842122D01*
X165965327Y-110891773D01*
X166004333Y-110892667D01*
X166155606Y-110920004D01*
X166210945Y-111036212D01*
X166216000Y-111146667D01*
X166193219Y-111328193D01*
X166096379Y-111394601D01*
X166004333Y-111400667D01*
X165843212Y-111435636D01*
X165793561Y-111573326D01*
X165792667Y-111612333D01*
X165827636Y-111773455D01*
X165965327Y-111823106D01*
X166004333Y-111824000D01*
X166147475Y-111846140D01*
X166206074Y-111945771D01*
X166216000Y-112120333D01*
X166200186Y-112320731D01*
X166129021Y-112402771D01*
X166004333Y-112416667D01*
X165843212Y-112451636D01*
X165793561Y-112589326D01*
X165792667Y-112628333D01*
X165827636Y-112789455D01*
X165965327Y-112839106D01*
X166004333Y-112840000D01*
X166155606Y-112867337D01*
X166210945Y-112983545D01*
X166216000Y-113094000D01*
X166192872Y-113275879D01*
X166096077Y-113342270D01*
X166009957Y-113348000D01*
X165850609Y-113386933D01*
X165783489Y-113535095D01*
X165777124Y-113580833D01*
X165716484Y-113762174D01*
X165556324Y-113835134D01*
X165517500Y-113840457D01*
X165284667Y-113867247D01*
X165284667Y-116226667D01*
X165750333Y-116226667D01*
X166017921Y-116233015D01*
X166157489Y-116263251D01*
X166210200Y-116334163D01*
X166217464Y-116417167D01*
X166230028Y-116473707D01*
X166277229Y-116532975D01*
X166374657Y-116601946D01*
X166537903Y-116687595D01*
X166782557Y-116796897D01*
X167124208Y-116936829D01*
X167578446Y-117114365D01*
X168160862Y-117336481D01*
X168866676Y-117602500D01*
X169498511Y-117839385D01*
X170078655Y-118055903D01*
X170588401Y-118245151D01*
X171009043Y-118400224D01*
X171321875Y-118514217D01*
X171508190Y-118580225D01*
X171553379Y-118594179D01*
X171639017Y-118564495D01*
X171864179Y-118481687D01*
X172210098Y-118352787D01*
X172658008Y-118184826D01*
X173189145Y-117984835D01*
X173784743Y-117759845D01*
X174217000Y-117596158D01*
X174941323Y-117320468D01*
X175522148Y-117096204D01*
X175974951Y-116916465D01*
X176315206Y-116774354D01*
X176558388Y-116662972D01*
X176719971Y-116575419D01*
X176815431Y-116504797D01*
X176860242Y-116444206D01*
X176868722Y-116413979D01*
X176903122Y-116305172D01*
X176994785Y-116249002D01*
X177187385Y-116228666D01*
X177355555Y-116226667D01*
X177815333Y-116226667D01*
X177815333Y-115634000D01*
X175868000Y-115634000D01*
X175868000Y-116286708D01*
X173963000Y-116992409D01*
X173431326Y-117192103D01*
X172956814Y-117375570D01*
X172561247Y-117533956D01*
X172266410Y-117658408D01*
X172094086Y-117740070D01*
X172058000Y-117766722D01*
X171991964Y-117897600D01*
X171837742Y-118044051D01*
X171661159Y-118151267D01*
X171568839Y-118174000D01*
X171386768Y-118127004D01*
X171230172Y-118042199D01*
X171089647Y-117910105D01*
X171041189Y-117809366D01*
X170964587Y-117753715D01*
X170749996Y-117651971D01*
X170419524Y-117513196D01*
X169995282Y-117346453D01*
X169499378Y-117160803D01*
X169157356Y-117037231D01*
X168620172Y-116843959D01*
X168133271Y-116665319D01*
X167720433Y-116510315D01*
X167405438Y-116387953D01*
X167212067Y-116307239D01*
X167164177Y-116282442D01*
X167093575Y-116145415D01*
X167079510Y-115937545D01*
X167107446Y-115778792D01*
X167182407Y-115697738D01*
X167352097Y-115662369D01*
X167507167Y-115650528D01*
X167761214Y-115651478D01*
X167896263Y-115689526D01*
X167909333Y-115714028D01*
X167834816Y-115772588D01*
X167651132Y-115802381D01*
X167607112Y-115803333D01*
X167406863Y-115817035D01*
X167331068Y-115878312D01*
X167331945Y-115992584D01*
X167358297Y-116060604D01*
X167430032Y-116130988D01*
X167566070Y-116212410D01*
X167785333Y-116313546D01*
X168106743Y-116443070D01*
X168549220Y-116609657D01*
X169131687Y-116821984D01*
X169175434Y-116837788D01*
X170991867Y-117493741D01*
X171170557Y-117325871D01*
X171426900Y-117178699D01*
X171689782Y-117194099D01*
X171886341Y-117325007D01*
X171943995Y-117377722D01*
X172008678Y-117409873D01*
X172101639Y-117416131D01*
X172244122Y-117391167D01*
X172457374Y-117329653D01*
X172762642Y-117226259D01*
X173181173Y-117075658D01*
X173734212Y-116872519D01*
X173827407Y-116838174D01*
X174413817Y-116620116D01*
X174859346Y-116448877D01*
X175183026Y-116315582D01*
X175403889Y-116211359D01*
X175540967Y-116127332D01*
X175613293Y-116054630D01*
X175638325Y-115993833D01*
X175639275Y-115972667D01*
X174598000Y-115972667D01*
X174579222Y-116184740D01*
X174532312Y-116302697D01*
X174513333Y-116311333D01*
X174433926Y-116244897D01*
X174428667Y-116209733D01*
X174403676Y-116150829D01*
X174327067Y-116209733D01*
X174204527Y-116300352D01*
X174135756Y-116255353D01*
X174129448Y-116211607D01*
X173989531Y-116211607D01*
X173933626Y-116302273D01*
X173883444Y-116311333D01*
X173766973Y-116256289D01*
X173750037Y-116205500D01*
X173726553Y-116148376D01*
X173686537Y-116194622D01*
X173573827Y-116245501D01*
X173342913Y-116280743D01*
X173095167Y-116292113D01*
X172566000Y-116294649D01*
X172566000Y-115655426D01*
X172481333Y-115655426D01*
X172481333Y-115983380D01*
X172458958Y-116214810D01*
X172385384Y-116307049D01*
X172354333Y-116311333D01*
X172241085Y-116254379D01*
X172226037Y-116205500D01*
X172201005Y-116149389D01*
X172162537Y-116192369D01*
X172047000Y-116250247D01*
X171826011Y-116290251D01*
X171703467Y-116298685D01*
X171306601Y-116312300D01*
X171311299Y-115971886D01*
X171314807Y-115717671D01*
X170939940Y-115717671D01*
X170913831Y-115899537D01*
X170911771Y-115909167D01*
X170849056Y-116157802D01*
X170786565Y-116278499D01*
X170703056Y-116311283D01*
X170698337Y-116311333D01*
X170638437Y-116238847D01*
X170618667Y-116099667D01*
X170595534Y-115972667D01*
X170364667Y-115972667D01*
X170354283Y-116190001D01*
X170300045Y-116286622D01*
X170167326Y-116310897D01*
X170122212Y-116311333D01*
X169966621Y-116296828D01*
X169897449Y-116221067D01*
X169896563Y-116211607D01*
X169756198Y-116211607D01*
X169700293Y-116302273D01*
X169650111Y-116311333D01*
X169530512Y-116255853D01*
X169511316Y-116205500D01*
X169494297Y-116143108D01*
X169461927Y-116205500D01*
X169384303Y-116312792D01*
X169314937Y-116271732D01*
X169271047Y-116103062D01*
X169264000Y-115967043D01*
X169272850Y-115748904D01*
X169320959Y-115655856D01*
X169440671Y-115643795D01*
X169496833Y-115649543D01*
X169654026Y-115690996D01*
X169728089Y-115802189D01*
X169755944Y-115993833D01*
X169756198Y-116211607D01*
X169896563Y-116211607D01*
X169880070Y-116035683D01*
X169879758Y-115972667D01*
X169890142Y-115755332D01*
X169944380Y-115658711D01*
X170077098Y-115634436D01*
X170122212Y-115634000D01*
X169179333Y-115634000D01*
X169179333Y-116311333D01*
X168417333Y-116311333D01*
X168417333Y-115634000D01*
X169179333Y-115634000D01*
X170122212Y-115634000D01*
X170277804Y-115648505D01*
X170346976Y-115724266D01*
X170364355Y-115909650D01*
X170364667Y-115972667D01*
X170595534Y-115972667D01*
X170589684Y-115940552D01*
X170534000Y-115888000D01*
X170458886Y-115819423D01*
X170449333Y-115761000D01*
X170523019Y-115661353D01*
X170710061Y-115634000D01*
X170884605Y-115646331D01*
X170939940Y-115717671D01*
X171314807Y-115717671D01*
X171315997Y-115631473D01*
X171898665Y-115643450D01*
X172481333Y-115655426D01*
X172566000Y-115655426D01*
X172566000Y-115651289D01*
X173963000Y-115676333D01*
X173989278Y-115993833D01*
X173989531Y-116211607D01*
X174129448Y-116211607D01*
X174107698Y-116060779D01*
X174105288Y-115972667D01*
X174112227Y-115755540D01*
X174164421Y-115658977D01*
X174296783Y-115634525D01*
X174349307Y-115634000D01*
X174508826Y-115647874D01*
X174579742Y-115721805D01*
X174597640Y-115904252D01*
X174598000Y-115972667D01*
X175639275Y-115972667D01*
X175643847Y-115870807D01*
X175568116Y-115816342D01*
X175369232Y-115803387D01*
X175343263Y-115803333D01*
X175134629Y-115784923D01*
X175058388Y-115735425D01*
X175063667Y-115718667D01*
X175173333Y-115667225D01*
X175388005Y-115637187D01*
X175491997Y-115634000D01*
X175868000Y-115634000D01*
X177815333Y-115634000D01*
X177815333Y-114702667D01*
X177138000Y-114702667D01*
X177138000Y-114999000D01*
X177112756Y-115218117D01*
X177029566Y-115282994D01*
X176877246Y-115196922D01*
X176778167Y-115104833D01*
X176587667Y-114914333D01*
X176561337Y-115099299D01*
X176536751Y-115189493D01*
X176471328Y-115244589D01*
X176330304Y-115273389D01*
X176078915Y-115284699D01*
X175820503Y-115286917D01*
X175473509Y-115286184D01*
X175262202Y-115274351D01*
X175152942Y-115241714D01*
X175112089Y-115178568D01*
X175106000Y-115080784D01*
X175076654Y-114923054D01*
X175021333Y-114872000D01*
X174957688Y-114944456D01*
X174936667Y-115083667D01*
X174892506Y-115253905D01*
X174809667Y-115295333D01*
X174707524Y-115221732D01*
X174682667Y-115083667D01*
X174653684Y-114924552D01*
X174598000Y-114872000D01*
X174534354Y-114944456D01*
X174513333Y-115083667D01*
X174490311Y-115228296D01*
X174387772Y-115286373D01*
X174225380Y-115295333D01*
X174032868Y-115282259D01*
X173955767Y-115208500D01*
X173945206Y-115022255D01*
X173945827Y-114999000D01*
X173836000Y-114999000D01*
X173821841Y-115198095D01*
X173750021Y-115279755D01*
X173582000Y-115295333D01*
X173411347Y-115278814D01*
X173341353Y-115195024D01*
X173328000Y-114999000D01*
X173243333Y-114999000D01*
X173215794Y-115218173D01*
X173127900Y-115294797D01*
X173116333Y-115295333D01*
X173003993Y-115225430D01*
X172979512Y-115147167D01*
X172967686Y-115042819D01*
X172942694Y-115102944D01*
X172930971Y-115147167D01*
X172838907Y-115245708D01*
X172672846Y-115294383D01*
X172502608Y-115287730D01*
X172398014Y-115220285D01*
X172389983Y-115189500D01*
X172372964Y-115127108D01*
X172340594Y-115189500D01*
X172247397Y-115303742D01*
X172146551Y-115278228D01*
X172073614Y-115136927D01*
X172058000Y-114999000D01*
X172058000Y-114718060D01*
X171973333Y-114718060D01*
X171973333Y-115295221D01*
X171444167Y-115278762D01*
X171157466Y-115256786D01*
X170941685Y-115216095D01*
X170852797Y-115172984D01*
X170797910Y-115139616D01*
X170789297Y-115189500D01*
X170719803Y-115283292D01*
X170661000Y-115295333D01*
X170195333Y-115295333D01*
X169704267Y-115295333D01*
X169419481Y-115278732D01*
X169198267Y-115235882D01*
X169111600Y-115193733D01*
X169027705Y-115134829D01*
X169010000Y-115193733D01*
X168951114Y-115280139D01*
X168835230Y-115286031D01*
X168753504Y-115212889D01*
X168749316Y-115189500D01*
X168732297Y-115127108D01*
X168699927Y-115189500D01*
X168606424Y-115303004D01*
X168504770Y-115277265D01*
X168431889Y-115136262D01*
X168417333Y-115005982D01*
X168417333Y-114993337D01*
X168332667Y-114993337D01*
X168318382Y-115189282D01*
X168245404Y-115266857D01*
X168078667Y-115276786D01*
X167900185Y-115250714D01*
X167832606Y-115150088D01*
X167823370Y-115007282D01*
X167807718Y-114843739D01*
X167761578Y-114842390D01*
X167749081Y-114860206D01*
X167707385Y-115034548D01*
X167718905Y-115139142D01*
X167728021Y-115224137D01*
X167677129Y-115271070D01*
X167532749Y-115288634D01*
X167261404Y-115285523D01*
X167167047Y-115282439D01*
X166572372Y-115262004D01*
X166579826Y-114999000D01*
X166470000Y-114999000D01*
X166455841Y-115198095D01*
X166384021Y-115279755D01*
X166216000Y-115295333D01*
X166045347Y-115278814D01*
X165975353Y-115195024D01*
X165962000Y-114999000D01*
X165976160Y-114799905D01*
X166047980Y-114718244D01*
X166216000Y-114702667D01*
X166386653Y-114719186D01*
X166456648Y-114802976D01*
X166470000Y-114999000D01*
X166579826Y-114999000D01*
X166580177Y-114986637D01*
X166587983Y-114711271D01*
X167329278Y-114728135D01*
X167696930Y-114728449D01*
X167923402Y-114710424D01*
X167996427Y-114675239D01*
X167989953Y-114664567D01*
X167912818Y-114531037D01*
X167978871Y-114455194D01*
X168036333Y-114448667D01*
X168148582Y-114516439D01*
X168163333Y-114575667D01*
X168209051Y-114688338D01*
X168248000Y-114702667D01*
X168304394Y-114776992D01*
X168332086Y-114959312D01*
X168332667Y-114993337D01*
X168417333Y-114993337D01*
X168417333Y-114716632D01*
X169306333Y-114709496D01*
X170195333Y-114702359D01*
X170195333Y-115295333D01*
X170661000Y-115295333D01*
X170565913Y-115229239D01*
X170534061Y-115020183D01*
X170534000Y-115006697D01*
X170534000Y-114718060D01*
X171973333Y-114718060D01*
X172058000Y-114718060D01*
X172058000Y-114702667D01*
X172481333Y-114702667D01*
X172771262Y-114723352D01*
X172903394Y-114784502D01*
X172911351Y-114808500D01*
X172928370Y-114870892D01*
X172960740Y-114808500D01*
X173053936Y-114694257D01*
X173154783Y-114719772D01*
X173227719Y-114861072D01*
X173243333Y-114999000D01*
X173328000Y-114999000D01*
X173342160Y-114799905D01*
X173413980Y-114718244D01*
X173582000Y-114702667D01*
X173752653Y-114719186D01*
X173822648Y-114802976D01*
X173836000Y-114999000D01*
X173945827Y-114999000D01*
X173954227Y-114702667D01*
X174657113Y-114702667D01*
X175000753Y-114704923D01*
X175208961Y-114718243D01*
X175315636Y-114752453D01*
X175354675Y-114817377D01*
X175360000Y-114906407D01*
X175388214Y-115053698D01*
X175498144Y-115073135D01*
X175529333Y-115065865D01*
X175667686Y-114962345D01*
X175698667Y-114862125D01*
X175714591Y-114784374D01*
X175784232Y-114736860D01*
X175940392Y-114712316D01*
X176215873Y-114703473D01*
X176418333Y-114702667D01*
X177138000Y-114702667D01*
X177815333Y-114702667D01*
X177815333Y-113856000D01*
X177561333Y-113856000D01*
X177381425Y-113835021D01*
X177315115Y-113736060D01*
X177307333Y-113602000D01*
X177286354Y-113422092D01*
X177187394Y-113355781D01*
X177053333Y-113348000D01*
X176873425Y-113327021D01*
X176807115Y-113228060D01*
X176799333Y-113094000D01*
X176820313Y-112914092D01*
X176919273Y-112847781D01*
X177053333Y-112840000D01*
X177235213Y-112816872D01*
X177301604Y-112720076D01*
X177307333Y-112633957D01*
X177268400Y-112474609D01*
X177120238Y-112407489D01*
X177074500Y-112401124D01*
X176907011Y-112353675D01*
X176846718Y-112227069D01*
X176841667Y-112120333D01*
X176867496Y-111934645D01*
X176977192Y-111856250D01*
X177074500Y-111839543D01*
X177249505Y-111784952D01*
X177306087Y-111647328D01*
X177307333Y-111606709D01*
X177335845Y-111459170D01*
X177455169Y-111405315D01*
X177561333Y-111400667D01*
X177742860Y-111377885D01*
X177809268Y-111281045D01*
X177815333Y-111189000D01*
X177787996Y-111037728D01*
X177671788Y-110982388D01*
X177561333Y-110977333D01*
X177379807Y-111000114D01*
X177313399Y-111096954D01*
X177307333Y-111189000D01*
X177279996Y-111340272D01*
X177163788Y-111395612D01*
X177053333Y-111400667D01*
X176873425Y-111379687D01*
X176807115Y-111280727D01*
X176799333Y-111146667D01*
X176820313Y-110966758D01*
X176919273Y-110900448D01*
X177053333Y-110892667D01*
X177234860Y-110869885D01*
X177301268Y-110773045D01*
X177307333Y-110681000D01*
X177279996Y-110529728D01*
X177163788Y-110474388D01*
X177053333Y-110469333D01*
X176873425Y-110448354D01*
X176807115Y-110349393D01*
X176799333Y-110215333D01*
X176820313Y-110035425D01*
X176919273Y-109969115D01*
X177053333Y-109961333D01*
X177234860Y-109984114D01*
X177301268Y-110080954D01*
X177307333Y-110173000D01*
X177334671Y-110324272D01*
X177450879Y-110379612D01*
X177561333Y-110384667D01*
X177742860Y-110361885D01*
X177809268Y-110265045D01*
X177815333Y-110173000D01*
X177787996Y-110021728D01*
X177671788Y-109966388D01*
X177561333Y-109961333D01*
X177381425Y-109940354D01*
X177315115Y-109841393D01*
X177307333Y-109707333D01*
X177328313Y-109527425D01*
X177427273Y-109461115D01*
X177561333Y-109453333D01*
X177742860Y-109430552D01*
X177809268Y-109333712D01*
X177815333Y-109241667D01*
X177787996Y-109090394D01*
X177671788Y-109035055D01*
X177561333Y-109030000D01*
X177379807Y-109052781D01*
X177313399Y-109149621D01*
X177307333Y-109241667D01*
X177279996Y-109392939D01*
X177163788Y-109448278D01*
X177053333Y-109453333D01*
X176873425Y-109432354D01*
X176807115Y-109333393D01*
X176799333Y-109199333D01*
X176820313Y-109019425D01*
X176919273Y-108953115D01*
X177053333Y-108945333D01*
X177234860Y-108922552D01*
X177301268Y-108825712D01*
X177307333Y-108733667D01*
X177279996Y-108582394D01*
X177163788Y-108527055D01*
X177053333Y-108522000D01*
X176873425Y-108501021D01*
X176807115Y-108402060D01*
X176799333Y-108268000D01*
X176820313Y-108088092D01*
X176919273Y-108021781D01*
X177053333Y-108014000D01*
X177233242Y-107993021D01*
X177299552Y-107894060D01*
X177307333Y-107760000D01*
X177284552Y-107578473D01*
X177187712Y-107512066D01*
X177095667Y-107506000D01*
X176376000Y-107506000D01*
X176376000Y-114110000D01*
X175868000Y-114110000D01*
X175868000Y-108606667D01*
X175106000Y-108606667D01*
X175106000Y-113686667D01*
X174428667Y-113686667D01*
X174428667Y-111570000D01*
X173948500Y-111570000D01*
X173659589Y-111562358D01*
X173451298Y-111523600D01*
X173310472Y-111429980D01*
X173223955Y-111257750D01*
X173203645Y-111134802D01*
X172566000Y-111134802D01*
X172565516Y-111795616D01*
X172562961Y-112308267D01*
X172556682Y-112693923D01*
X172545023Y-112973754D01*
X172526330Y-113168928D01*
X172498951Y-113300615D01*
X172461229Y-113389983D01*
X172411512Y-113458203D01*
X172381908Y-113490710D01*
X172263953Y-113593570D01*
X172119614Y-113652917D01*
X171901259Y-113680149D01*
X171563075Y-113686667D01*
X171184591Y-113674373D01*
X170937445Y-113633173D01*
X170785132Y-113556589D01*
X170773500Y-113546544D01*
X170709769Y-113469822D01*
X170666096Y-113355464D01*
X170638844Y-113173634D01*
X170624374Y-112894498D01*
X170619051Y-112488222D01*
X170618667Y-112276544D01*
X170618667Y-111146667D01*
X171634667Y-111146667D01*
X171634667Y-111485333D01*
X171620467Y-111706901D01*
X171563072Y-111804826D01*
X171465333Y-111824000D01*
X171376344Y-111839989D01*
X171325363Y-111912096D01*
X171302045Y-112076528D01*
X171296047Y-112369490D01*
X171296000Y-112416667D01*
X171296000Y-113009333D01*
X171888667Y-113009333D01*
X171888667Y-109284000D01*
X171597957Y-109284000D01*
X171397065Y-109302284D01*
X171308000Y-109384492D01*
X171280457Y-109516833D01*
X171239004Y-109674026D01*
X171127811Y-109748089D01*
X170936167Y-109775944D01*
X170618667Y-109802222D01*
X170618667Y-109400401D01*
X170653461Y-109049392D01*
X170772551Y-108813339D01*
X170997996Y-108674036D01*
X171351855Y-108613280D01*
X171580469Y-108606667D01*
X169941333Y-108606667D01*
X169941333Y-113686667D01*
X169264000Y-113686667D01*
X169264000Y-111570000D01*
X168586667Y-111570000D01*
X168586667Y-113686667D01*
X167909333Y-113686667D01*
X167909333Y-112590801D01*
X167911057Y-112139708D01*
X167919316Y-111827373D01*
X167938739Y-111623230D01*
X167973957Y-111496715D01*
X168029600Y-111417263D01*
X168095045Y-111364858D01*
X168280756Y-111234781D01*
X168095045Y-111037100D01*
X168012152Y-110933346D01*
X167958229Y-110809257D01*
X167927182Y-110628144D01*
X167912917Y-110353318D01*
X167909341Y-109948089D01*
X167909333Y-109919000D01*
X167912510Y-109504502D01*
X167926067Y-109222664D01*
X167956041Y-109036868D01*
X168008471Y-108910497D01*
X168089395Y-108806932D01*
X168093425Y-108802623D01*
X168193123Y-108711759D01*
X168311377Y-108654223D01*
X168487014Y-108622525D01*
X168758859Y-108609179D01*
X169109425Y-108606667D01*
X169941333Y-108606667D01*
X171580469Y-108606667D01*
X171918449Y-108615982D01*
X172138730Y-108651854D01*
X172292309Y-108726173D01*
X172370043Y-108790758D01*
X172429866Y-108850649D01*
X172476076Y-108918043D01*
X172510431Y-109013962D01*
X172534688Y-109159424D01*
X172550604Y-109375448D01*
X172559937Y-109683054D01*
X172564443Y-110103262D01*
X172565880Y-110657091D01*
X172566000Y-111134802D01*
X173203645Y-111134802D01*
X173178595Y-110983163D01*
X173161235Y-110582472D01*
X173158667Y-110144168D01*
X173160606Y-109678269D01*
X173169302Y-109350200D01*
X173189077Y-109128476D01*
X173224252Y-108981610D01*
X173279146Y-108878118D01*
X173342759Y-108802623D01*
X173445571Y-108709613D01*
X173568132Y-108651648D01*
X173750777Y-108620610D01*
X174033841Y-108608382D01*
X174316425Y-108606667D01*
X175106000Y-108606667D01*
X175868000Y-108606667D01*
X175868000Y-108014000D01*
X173941833Y-108016693D01*
X173293883Y-108019522D01*
X172794867Y-108026795D01*
X172424416Y-108039750D01*
X172162160Y-108059624D01*
X171987731Y-108087655D01*
X171880760Y-108125080D01*
X171851318Y-108143693D01*
X171606958Y-108253016D01*
X171364986Y-108241945D01*
X171211333Y-108141000D01*
X171152399Y-108099185D01*
X171040483Y-108067367D01*
X170855320Y-108044284D01*
X170576640Y-108028676D01*
X170184177Y-108019282D01*
X169657662Y-108014840D01*
X169170036Y-108014000D01*
X167234139Y-108014000D01*
X167211903Y-111040833D01*
X167189667Y-114067667D01*
X166956833Y-114094457D01*
X166724000Y-114121247D01*
X166724000Y-107506000D01*
X168869992Y-107506000D01*
X169553782Y-107504457D01*
X170089368Y-107499046D01*
X170497862Y-107488587D01*
X170800371Y-107471905D01*
X171018004Y-107447821D01*
X171171872Y-107415160D01*
X171283083Y-107372743D01*
X171286056Y-107371270D01*
X171481542Y-107288011D01*
X171617073Y-107291594D01*
X171761752Y-107371270D01*
X171847273Y-107413117D01*
X171974075Y-107445536D01*
X172162428Y-107469660D01*
X172432601Y-107486624D01*
X172804861Y-107497560D01*
X173299479Y-107503601D01*
X173936723Y-107505880D01*
X174171688Y-107506000D01*
X176376000Y-107506000D01*
X177095667Y-107506000D01*
X176920314Y-107453014D01*
X176873853Y-107298184D01*
X176954782Y-107047695D01*
X177161600Y-106707736D01*
X177350139Y-106457561D01*
X177557598Y-106194937D01*
X177717396Y-105987454D01*
X177805486Y-105866570D01*
X177815333Y-105848949D01*
X177744935Y-105867667D01*
X177559929Y-105941346D01*
X177299596Y-106054295D01*
X177286167Y-106060307D01*
X176969626Y-106221623D01*
X176722452Y-106405981D01*
X176484407Y-106663305D01*
X176347465Y-106838252D01*
X176093560Y-107145596D01*
X175901773Y-107317347D01*
X175797132Y-107351351D01*
X175649107Y-107296501D01*
X175414088Y-107183785D01*
X175219303Y-107079676D01*
X175217829Y-107078901D01*
X174301667Y-107078901D01*
X173984167Y-107080784D01*
X173780043Y-107064491D01*
X173671874Y-107021734D01*
X173666667Y-107008367D01*
X173728201Y-106863666D01*
X173880349Y-106825670D01*
X174074427Y-106904801D01*
X174091492Y-106917412D01*
X174301667Y-107078901D01*
X175217829Y-107078901D01*
X174966715Y-106946873D01*
X174814877Y-106896131D01*
X174721989Y-106918113D01*
X174679769Y-106959158D01*
X174546867Y-107077383D01*
X174486137Y-107057831D01*
X174518957Y-106924257D01*
X174568519Y-106835522D01*
X174713072Y-106651949D01*
X174829543Y-106582220D01*
X174890781Y-106639253D01*
X174894333Y-106680500D01*
X174964226Y-106771914D01*
X175146035Y-106903420D01*
X175360000Y-107024987D01*
X175825667Y-107263641D01*
X175487000Y-106961701D01*
X175229560Y-106746103D01*
X175009312Y-106574667D01*
X174344000Y-106574667D01*
X174279571Y-106656873D01*
X174259333Y-106659333D01*
X174177127Y-106594904D01*
X174174667Y-106574667D01*
X174239096Y-106492460D01*
X174259333Y-106490000D01*
X174341540Y-106554429D01*
X174344000Y-106574667D01*
X175009312Y-106574667D01*
X174910927Y-106498087D01*
X174668578Y-106320438D01*
X174188823Y-105981115D01*
X173784416Y-106531891D01*
X173588329Y-106788188D01*
X173425800Y-106980955D01*
X173324982Y-107077393D01*
X173311671Y-107082667D01*
X173249232Y-107049519D01*
X173271096Y-106984046D01*
X172982260Y-106984046D01*
X172921926Y-107061241D01*
X172732355Y-107082667D01*
X172560120Y-107070233D01*
X172523612Y-107010502D01*
X172566000Y-106913333D01*
X172681487Y-106765132D01*
X172805276Y-106776398D01*
X172887733Y-106845600D01*
X172982260Y-106984046D01*
X173271096Y-106984046D01*
X173287603Y-106934618D01*
X173411140Y-106746144D01*
X173533242Y-106574667D01*
X173116333Y-106574667D01*
X173109621Y-106652685D01*
X173078997Y-106659333D01*
X172992779Y-106597873D01*
X172989333Y-106574667D01*
X173018220Y-106492201D01*
X173026670Y-106490000D01*
X173098956Y-106549329D01*
X173116333Y-106574667D01*
X173533242Y-106574667D01*
X173578947Y-106510481D01*
X173261838Y-106300629D01*
X172944729Y-106090776D01*
X172749963Y-106396221D01*
X172525926Y-106725891D01*
X172342784Y-106952410D01*
X172215849Y-107058269D01*
X172172683Y-107056238D01*
X172190143Y-106966294D01*
X172288851Y-106788878D01*
X172389586Y-106642322D01*
X172656907Y-106278822D01*
X172265458Y-105914230D01*
X172054515Y-105709234D01*
X171952695Y-105575991D01*
X171940035Y-105476660D01*
X171987171Y-105386710D01*
X172308780Y-104923817D01*
X172546590Y-104577646D01*
X172712271Y-104325063D01*
X172817492Y-104142933D01*
X172873923Y-104008122D01*
X172893232Y-103897495D01*
X172887088Y-103787919D01*
X172867162Y-103656258D01*
X172865517Y-103645381D01*
X172807358Y-103257552D01*
X172438446Y-103781454D01*
X172256762Y-104037534D01*
X172113951Y-104235229D01*
X172036855Y-104337457D01*
X172032264Y-104342625D01*
X172007334Y-104277128D01*
X171963333Y-104071931D01*
X171905501Y-103754911D01*
X171839081Y-103353946D01*
X171803843Y-103127781D01*
X171732768Y-102679962D01*
X171665384Y-102287443D01*
X171607672Y-101982800D01*
X171565612Y-101798608D01*
X171553457Y-101763835D01*
X171521675Y-101803812D01*
%TO.C,U6*%
D10*
X154502380Y-67688095D02*
X155311904Y-67688095D01*
X155407142Y-67735714D01*
X155454761Y-67783333D01*
X155502380Y-67878571D01*
X155502380Y-68069047D01*
X155454761Y-68164285D01*
X155407142Y-68211904D01*
X155311904Y-68259523D01*
X154502380Y-68259523D01*
X154502380Y-69164285D02*
X154502380Y-68973809D01*
X154550000Y-68878571D01*
X154597619Y-68830952D01*
X154740476Y-68735714D01*
X154930952Y-68688095D01*
X155311904Y-68688095D01*
X155407142Y-68735714D01*
X155454761Y-68783333D01*
X155502380Y-68878571D01*
X155502380Y-69069047D01*
X155454761Y-69164285D01*
X155407142Y-69211904D01*
X155311904Y-69259523D01*
X155073809Y-69259523D01*
X154978571Y-69211904D01*
X154930952Y-69164285D01*
X154883333Y-69069047D01*
X154883333Y-68878571D01*
X154930952Y-68783333D01*
X154978571Y-68735714D01*
X155073809Y-68688095D01*
%TO.C,R36*%
X179042857Y-61952380D02*
X179376190Y-61476190D01*
X179614285Y-61952380D02*
X179614285Y-60952380D01*
X179233333Y-60952380D01*
X179138095Y-61000000D01*
X179090476Y-61047619D01*
X179042857Y-61142857D01*
X179042857Y-61285714D01*
X179090476Y-61380952D01*
X179138095Y-61428571D01*
X179233333Y-61476190D01*
X179614285Y-61476190D01*
X178709523Y-60952380D02*
X178090476Y-60952380D01*
X178423809Y-61333333D01*
X178280952Y-61333333D01*
X178185714Y-61380952D01*
X178138095Y-61428571D01*
X178090476Y-61523809D01*
X178090476Y-61761904D01*
X178138095Y-61857142D01*
X178185714Y-61904761D01*
X178280952Y-61952380D01*
X178566666Y-61952380D01*
X178661904Y-61904761D01*
X178709523Y-61857142D01*
X177233333Y-60952380D02*
X177423809Y-60952380D01*
X177519047Y-61000000D01*
X177566666Y-61047619D01*
X177661904Y-61190476D01*
X177709523Y-61380952D01*
X177709523Y-61761904D01*
X177661904Y-61857142D01*
X177614285Y-61904761D01*
X177519047Y-61952380D01*
X177328571Y-61952380D01*
X177233333Y-61904761D01*
X177185714Y-61857142D01*
X177138095Y-61761904D01*
X177138095Y-61523809D01*
X177185714Y-61428571D01*
X177233333Y-61380952D01*
X177328571Y-61333333D01*
X177519047Y-61333333D01*
X177614285Y-61380952D01*
X177661904Y-61428571D01*
X177709523Y-61523809D01*
%TO.C,R35*%
X173652380Y-65607142D02*
X173176190Y-65273809D01*
X173652380Y-65035714D02*
X172652380Y-65035714D01*
X172652380Y-65416666D01*
X172700000Y-65511904D01*
X172747619Y-65559523D01*
X172842857Y-65607142D01*
X172985714Y-65607142D01*
X173080952Y-65559523D01*
X173128571Y-65511904D01*
X173176190Y-65416666D01*
X173176190Y-65035714D01*
X172652380Y-65940476D02*
X172652380Y-66559523D01*
X173033333Y-66226190D01*
X173033333Y-66369047D01*
X173080952Y-66464285D01*
X173128571Y-66511904D01*
X173223809Y-66559523D01*
X173461904Y-66559523D01*
X173557142Y-66511904D01*
X173604761Y-66464285D01*
X173652380Y-66369047D01*
X173652380Y-66083333D01*
X173604761Y-65988095D01*
X173557142Y-65940476D01*
X172652380Y-67464285D02*
X172652380Y-66988095D01*
X173128571Y-66940476D01*
X173080952Y-66988095D01*
X173033333Y-67083333D01*
X173033333Y-67321428D01*
X173080952Y-67416666D01*
X173128571Y-67464285D01*
X173223809Y-67511904D01*
X173461904Y-67511904D01*
X173557142Y-67464285D01*
X173604761Y-67416666D01*
X173652380Y-67321428D01*
X173652380Y-67083333D01*
X173604761Y-66988095D01*
X173557142Y-66940476D01*
%TO.C,R29*%
X162192857Y-67252380D02*
X162526190Y-66776190D01*
X162764285Y-67252380D02*
X162764285Y-66252380D01*
X162383333Y-66252380D01*
X162288095Y-66300000D01*
X162240476Y-66347619D01*
X162192857Y-66442857D01*
X162192857Y-66585714D01*
X162240476Y-66680952D01*
X162288095Y-66728571D01*
X162383333Y-66776190D01*
X162764285Y-66776190D01*
X161811904Y-66347619D02*
X161764285Y-66300000D01*
X161669047Y-66252380D01*
X161430952Y-66252380D01*
X161335714Y-66300000D01*
X161288095Y-66347619D01*
X161240476Y-66442857D01*
X161240476Y-66538095D01*
X161288095Y-66680952D01*
X161859523Y-67252380D01*
X161240476Y-67252380D01*
X160764285Y-67252380D02*
X160573809Y-67252380D01*
X160478571Y-67204761D01*
X160430952Y-67157142D01*
X160335714Y-67014285D01*
X160288095Y-66823809D01*
X160288095Y-66442857D01*
X160335714Y-66347619D01*
X160383333Y-66300000D01*
X160478571Y-66252380D01*
X160669047Y-66252380D01*
X160764285Y-66300000D01*
X160811904Y-66347619D01*
X160859523Y-66442857D01*
X160859523Y-66680952D01*
X160811904Y-66776190D01*
X160764285Y-66823809D01*
X160669047Y-66871428D01*
X160478571Y-66871428D01*
X160383333Y-66823809D01*
X160335714Y-66776190D01*
X160288095Y-66680952D01*
%TO.C,J7*%
X171033333Y-63847380D02*
X171033333Y-64561666D01*
X171080952Y-64704523D01*
X171176190Y-64799761D01*
X171319047Y-64847380D01*
X171414285Y-64847380D01*
X170652380Y-63847380D02*
X169985714Y-63847380D01*
X170414285Y-64847380D01*
%TO.C,D5*%
X183288095Y-60402380D02*
X183288095Y-59402380D01*
X183050000Y-59402380D01*
X182907142Y-59450000D01*
X182811904Y-59545238D01*
X182764285Y-59640476D01*
X182716666Y-59830952D01*
X182716666Y-59973809D01*
X182764285Y-60164285D01*
X182811904Y-60259523D01*
X182907142Y-60354761D01*
X183050000Y-60402380D01*
X183288095Y-60402380D01*
X181811904Y-59402380D02*
X182288095Y-59402380D01*
X182335714Y-59878571D01*
X182288095Y-59830952D01*
X182192857Y-59783333D01*
X181954761Y-59783333D01*
X181859523Y-59830952D01*
X181811904Y-59878571D01*
X181764285Y-59973809D01*
X181764285Y-60211904D01*
X181811904Y-60307142D01*
X181859523Y-60354761D01*
X181954761Y-60402380D01*
X182192857Y-60402380D01*
X182288095Y-60354761D01*
X182335714Y-60307142D01*
%TO.C,BT1*%
X111578571Y-82314285D02*
X111626190Y-82457142D01*
X111673809Y-82504761D01*
X111769047Y-82552380D01*
X111911904Y-82552380D01*
X112007142Y-82504761D01*
X112054761Y-82457142D01*
X112102380Y-82361904D01*
X112102380Y-81980952D01*
X111102380Y-81980952D01*
X111102380Y-82314285D01*
X111150000Y-82409523D01*
X111197619Y-82457142D01*
X111292857Y-82504761D01*
X111388095Y-82504761D01*
X111483333Y-82457142D01*
X111530952Y-82409523D01*
X111578571Y-82314285D01*
X111578571Y-81980952D01*
X111102380Y-82838095D02*
X111102380Y-83409523D01*
X112102380Y-83123809D02*
X111102380Y-83123809D01*
X112102380Y-84266666D02*
X112102380Y-83695238D01*
X112102380Y-83980952D02*
X111102380Y-83980952D01*
X111245238Y-83885714D01*
X111340476Y-83790476D01*
X111388095Y-83695238D01*
X116057142Y-85278571D02*
X116057142Y-86421428D01*
X116628571Y-85850000D02*
X115485714Y-85850000D01*
%TO.C,R25*%
X131192857Y-62378380D02*
X131526190Y-61902190D01*
X131764285Y-62378380D02*
X131764285Y-61378380D01*
X131383333Y-61378380D01*
X131288095Y-61426000D01*
X131240476Y-61473619D01*
X131192857Y-61568857D01*
X131192857Y-61711714D01*
X131240476Y-61806952D01*
X131288095Y-61854571D01*
X131383333Y-61902190D01*
X131764285Y-61902190D01*
X130811904Y-61473619D02*
X130764285Y-61426000D01*
X130669047Y-61378380D01*
X130430952Y-61378380D01*
X130335714Y-61426000D01*
X130288095Y-61473619D01*
X130240476Y-61568857D01*
X130240476Y-61664095D01*
X130288095Y-61806952D01*
X130859523Y-62378380D01*
X130240476Y-62378380D01*
X129335714Y-61378380D02*
X129811904Y-61378380D01*
X129859523Y-61854571D01*
X129811904Y-61806952D01*
X129716666Y-61759333D01*
X129478571Y-61759333D01*
X129383333Y-61806952D01*
X129335714Y-61854571D01*
X129288095Y-61949809D01*
X129288095Y-62187904D01*
X129335714Y-62283142D01*
X129383333Y-62330761D01*
X129478571Y-62378380D01*
X129716666Y-62378380D01*
X129811904Y-62330761D01*
X129859523Y-62283142D01*
%TO.C,R24*%
X123102380Y-72107142D02*
X122626190Y-71773809D01*
X123102380Y-71535714D02*
X122102380Y-71535714D01*
X122102380Y-71916666D01*
X122150000Y-72011904D01*
X122197619Y-72059523D01*
X122292857Y-72107142D01*
X122435714Y-72107142D01*
X122530952Y-72059523D01*
X122578571Y-72011904D01*
X122626190Y-71916666D01*
X122626190Y-71535714D01*
X122197619Y-72488095D02*
X122150000Y-72535714D01*
X122102380Y-72630952D01*
X122102380Y-72869047D01*
X122150000Y-72964285D01*
X122197619Y-73011904D01*
X122292857Y-73059523D01*
X122388095Y-73059523D01*
X122530952Y-73011904D01*
X123102380Y-72440476D01*
X123102380Y-73059523D01*
X122435714Y-73916666D02*
X123102380Y-73916666D01*
X122054761Y-73678571D02*
X122769047Y-73440476D01*
X122769047Y-74059523D01*
%TO.C,R23*%
X126852380Y-72107142D02*
X126376190Y-71773809D01*
X126852380Y-71535714D02*
X125852380Y-71535714D01*
X125852380Y-71916666D01*
X125900000Y-72011904D01*
X125947619Y-72059523D01*
X126042857Y-72107142D01*
X126185714Y-72107142D01*
X126280952Y-72059523D01*
X126328571Y-72011904D01*
X126376190Y-71916666D01*
X126376190Y-71535714D01*
X125947619Y-72488095D02*
X125900000Y-72535714D01*
X125852380Y-72630952D01*
X125852380Y-72869047D01*
X125900000Y-72964285D01*
X125947619Y-73011904D01*
X126042857Y-73059523D01*
X126138095Y-73059523D01*
X126280952Y-73011904D01*
X126852380Y-72440476D01*
X126852380Y-73059523D01*
X125852380Y-73392857D02*
X125852380Y-74011904D01*
X126233333Y-73678571D01*
X126233333Y-73821428D01*
X126280952Y-73916666D01*
X126328571Y-73964285D01*
X126423809Y-74011904D01*
X126661904Y-74011904D01*
X126757142Y-73964285D01*
X126804761Y-73916666D01*
X126852380Y-73821428D01*
X126852380Y-73535714D01*
X126804761Y-73440476D01*
X126757142Y-73392857D01*
%TO.C,R26*%
X116252380Y-72107142D02*
X115776190Y-71773809D01*
X116252380Y-71535714D02*
X115252380Y-71535714D01*
X115252380Y-71916666D01*
X115300000Y-72011904D01*
X115347619Y-72059523D01*
X115442857Y-72107142D01*
X115585714Y-72107142D01*
X115680952Y-72059523D01*
X115728571Y-72011904D01*
X115776190Y-71916666D01*
X115776190Y-71535714D01*
X115347619Y-72488095D02*
X115300000Y-72535714D01*
X115252380Y-72630952D01*
X115252380Y-72869047D01*
X115300000Y-72964285D01*
X115347619Y-73011904D01*
X115442857Y-73059523D01*
X115538095Y-73059523D01*
X115680952Y-73011904D01*
X116252380Y-72440476D01*
X116252380Y-73059523D01*
X115252380Y-73916666D02*
X115252380Y-73726190D01*
X115300000Y-73630952D01*
X115347619Y-73583333D01*
X115490476Y-73488095D01*
X115680952Y-73440476D01*
X116061904Y-73440476D01*
X116157142Y-73488095D01*
X116204761Y-73535714D01*
X116252380Y-73630952D01*
X116252380Y-73821428D01*
X116204761Y-73916666D01*
X116157142Y-73964285D01*
X116061904Y-74011904D01*
X115823809Y-74011904D01*
X115728571Y-73964285D01*
X115680952Y-73916666D01*
X115633333Y-73821428D01*
X115633333Y-73630952D01*
X115680952Y-73535714D01*
X115728571Y-73488095D01*
X115823809Y-73440476D01*
%TO.C,J6*%
X121083333Y-53962380D02*
X121083333Y-54676666D01*
X121130952Y-54819523D01*
X121226190Y-54914761D01*
X121369047Y-54962380D01*
X121464285Y-54962380D01*
X120178571Y-53962380D02*
X120369047Y-53962380D01*
X120464285Y-54010000D01*
X120511904Y-54057619D01*
X120607142Y-54200476D01*
X120654761Y-54390952D01*
X120654761Y-54771904D01*
X120607142Y-54867142D01*
X120559523Y-54914761D01*
X120464285Y-54962380D01*
X120273809Y-54962380D01*
X120178571Y-54914761D01*
X120130952Y-54867142D01*
X120083333Y-54771904D01*
X120083333Y-54533809D01*
X120130952Y-54438571D01*
X120178571Y-54390952D01*
X120273809Y-54343333D01*
X120464285Y-54343333D01*
X120559523Y-54390952D01*
X120607142Y-54438571D01*
X120654761Y-54533809D01*
%TO.C,R27*%
X119602380Y-72107142D02*
X119126190Y-71773809D01*
X119602380Y-71535714D02*
X118602380Y-71535714D01*
X118602380Y-71916666D01*
X118650000Y-72011904D01*
X118697619Y-72059523D01*
X118792857Y-72107142D01*
X118935714Y-72107142D01*
X119030952Y-72059523D01*
X119078571Y-72011904D01*
X119126190Y-71916666D01*
X119126190Y-71535714D01*
X118697619Y-72488095D02*
X118650000Y-72535714D01*
X118602380Y-72630952D01*
X118602380Y-72869047D01*
X118650000Y-72964285D01*
X118697619Y-73011904D01*
X118792857Y-73059523D01*
X118888095Y-73059523D01*
X119030952Y-73011904D01*
X119602380Y-72440476D01*
X119602380Y-73059523D01*
X118602380Y-73392857D02*
X118602380Y-74059523D01*
X119602380Y-73630952D01*
%TD*%
M02*
