%TF.GenerationSoftware,KiCad,Pcbnew,(5.1.12)-1*%
%TF.CreationDate,2022-03-21T20:12:08+01:00*%
%TF.ProjectId,TelemetryPrimePCB,54656c65-6d65-4747-9279-5072696d6550,rev?*%
%TF.SameCoordinates,Original*%
%TF.FileFunction,Soldermask,Bot*%
%TF.FilePolarity,Negative*%
%FSLAX46Y46*%
G04 Gerber Fmt 4.6, Leading zero omitted, Abs format (unit mm)*
G04 Created by KiCad (PCBNEW (5.1.12)-1) date 2022-03-21 20:12:08*
%MOMM*%
%LPD*%
G01*
G04 APERTURE LIST*
%ADD10O,1.700000X1.700000*%
%ADD11R,1.700000X1.700000*%
%ADD12R,0.650000X1.060000*%
%ADD13O,1.000000X1.600000*%
%ADD14C,0.650000*%
%ADD15O,1.000000X2.100000*%
%ADD16R,0.300000X1.450000*%
%ADD17R,0.600000X1.450000*%
%ADD18R,0.900000X1.200000*%
%ADD19C,3.000000*%
%ADD20R,3.000000X3.000000*%
%ADD21R,1.338000X1.338000*%
%ADD22C,1.338000*%
%ADD23C,0.900000*%
%ADD24C,2.000000*%
%ADD25C,1.524000*%
%ADD26R,1.524000X1.524000*%
%ADD27C,8.600000*%
%ADD28R,1.450000X2.000000*%
%ADD29R,0.800000X1.500000*%
%ADD30C,1.950000*%
G04 APERTURE END LIST*
D10*
%TO.C,J8*%
X154160000Y-119600000D03*
X151620000Y-119600000D03*
X149080000Y-119600000D03*
X146540000Y-119600000D03*
D11*
X144000000Y-119600000D03*
%TD*%
D12*
%TO.C,U6*%
X157000000Y-67350000D03*
X157950000Y-67350000D03*
X158900000Y-67350000D03*
X158900000Y-69550000D03*
X157000000Y-69550000D03*
X157950000Y-69550000D03*
%TD*%
%TO.C,R36*%
G36*
G01*
X176975000Y-60300001D02*
X176975000Y-59399999D01*
G75*
G02*
X177224999Y-59150000I249999J0D01*
G01*
X177750001Y-59150000D01*
G75*
G02*
X178000000Y-59399999I0J-249999D01*
G01*
X178000000Y-60300001D01*
G75*
G02*
X177750001Y-60550000I-249999J0D01*
G01*
X177224999Y-60550000D01*
G75*
G02*
X176975000Y-60300001I0J249999D01*
G01*
G37*
G36*
G01*
X178800000Y-60300001D02*
X178800000Y-59399999D01*
G75*
G02*
X179049999Y-59150000I249999J0D01*
G01*
X179575001Y-59150000D01*
G75*
G02*
X179825000Y-59399999I0J-249999D01*
G01*
X179825000Y-60300001D01*
G75*
G02*
X179575001Y-60550000I-249999J0D01*
G01*
X179049999Y-60550000D01*
G75*
G02*
X178800000Y-60300001I0J249999D01*
G01*
G37*
%TD*%
%TO.C,R35*%
G36*
G01*
X172000001Y-65850000D02*
X171099999Y-65850000D01*
G75*
G02*
X170850000Y-65600001I0J249999D01*
G01*
X170850000Y-65074999D01*
G75*
G02*
X171099999Y-64825000I249999J0D01*
G01*
X172000001Y-64825000D01*
G75*
G02*
X172250000Y-65074999I0J-249999D01*
G01*
X172250000Y-65600001D01*
G75*
G02*
X172000001Y-65850000I-249999J0D01*
G01*
G37*
G36*
G01*
X172000001Y-67675000D02*
X171099999Y-67675000D01*
G75*
G02*
X170850000Y-67425001I0J249999D01*
G01*
X170850000Y-66899999D01*
G75*
G02*
X171099999Y-66650000I249999J0D01*
G01*
X172000001Y-66650000D01*
G75*
G02*
X172250000Y-66899999I0J-249999D01*
G01*
X172250000Y-67425001D01*
G75*
G02*
X172000001Y-67675000I-249999J0D01*
G01*
G37*
%TD*%
%TO.C,R29*%
G36*
G01*
X160125000Y-65600001D02*
X160125000Y-64699999D01*
G75*
G02*
X160374999Y-64450000I249999J0D01*
G01*
X160900001Y-64450000D01*
G75*
G02*
X161150000Y-64699999I0J-249999D01*
G01*
X161150000Y-65600001D01*
G75*
G02*
X160900001Y-65850000I-249999J0D01*
G01*
X160374999Y-65850000D01*
G75*
G02*
X160125000Y-65600001I0J249999D01*
G01*
G37*
G36*
G01*
X161950000Y-65600001D02*
X161950000Y-64699999D01*
G75*
G02*
X162199999Y-64450000I249999J0D01*
G01*
X162725001Y-64450000D01*
G75*
G02*
X162975000Y-64699999I0J-249999D01*
G01*
X162975000Y-65600001D01*
G75*
G02*
X162725001Y-65850000I-249999J0D01*
G01*
X162199999Y-65850000D01*
G75*
G02*
X161950000Y-65600001I0J249999D01*
G01*
G37*
%TD*%
D13*
%TO.C,J7*%
X175020000Y-57700000D03*
D14*
X173590000Y-61350000D03*
D13*
X166380000Y-57700000D03*
D14*
X167810000Y-61350000D03*
D15*
X166380000Y-61880000D03*
X175020000Y-61880000D03*
D16*
X170450000Y-62795000D03*
X172450000Y-62795000D03*
X171950000Y-62795000D03*
X171450000Y-62795000D03*
X170950000Y-62795000D03*
X169950000Y-62795000D03*
X169450000Y-62795000D03*
X168950000Y-62795000D03*
D17*
X173950000Y-62795000D03*
X173150000Y-62795000D03*
X168250000Y-62795000D03*
X167450000Y-62795000D03*
X167450000Y-62795000D03*
X168250000Y-62795000D03*
X173150000Y-62795000D03*
X173950000Y-62795000D03*
%TD*%
D18*
%TO.C,D5*%
X184200000Y-61950000D03*
X180900000Y-61950000D03*
%TD*%
D19*
%TO.C,BT1*%
X115950000Y-103590000D03*
D20*
X115950000Y-83100000D03*
%TD*%
D21*
%TO.C,U4*%
X160813000Y-72090000D03*
D22*
X160813000Y-74630000D03*
X160813000Y-77170000D03*
X160813000Y-79710000D03*
X168687000Y-79710000D03*
X168687000Y-77170000D03*
X168687000Y-74630000D03*
X168687000Y-72090000D03*
%TD*%
D11*
%TO.C,J5*%
X139000000Y-119600000D03*
D10*
X136460000Y-119600000D03*
X133920000Y-119600000D03*
X131380000Y-119600000D03*
%TD*%
D11*
%TO.C,J2*%
X154500000Y-57000000D03*
D10*
X154500000Y-59540000D03*
X151960000Y-57000000D03*
X151960000Y-59540000D03*
X149420000Y-57000000D03*
X149420000Y-59540000D03*
X146880000Y-57000000D03*
X146880000Y-59540000D03*
X144340000Y-57000000D03*
X144340000Y-59540000D03*
%TD*%
%TO.C,R25*%
G36*
G01*
X129125000Y-63900001D02*
X129125000Y-62999999D01*
G75*
G02*
X129374999Y-62750000I249999J0D01*
G01*
X129900001Y-62750000D01*
G75*
G02*
X130150000Y-62999999I0J-249999D01*
G01*
X130150000Y-63900001D01*
G75*
G02*
X129900001Y-64150000I-249999J0D01*
G01*
X129374999Y-64150000D01*
G75*
G02*
X129125000Y-63900001I0J249999D01*
G01*
G37*
G36*
G01*
X130950000Y-63900001D02*
X130950000Y-62999999D01*
G75*
G02*
X131199999Y-62750000I249999J0D01*
G01*
X131725001Y-62750000D01*
G75*
G02*
X131975000Y-62999999I0J-249999D01*
G01*
X131975000Y-63900001D01*
G75*
G02*
X131725001Y-64150000I-249999J0D01*
G01*
X131199999Y-64150000D01*
G75*
G02*
X130950000Y-63900001I0J249999D01*
G01*
G37*
%TD*%
%TO.C,R24*%
G36*
G01*
X121450001Y-74175000D02*
X120549999Y-74175000D01*
G75*
G02*
X120300000Y-73925001I0J249999D01*
G01*
X120300000Y-73399999D01*
G75*
G02*
X120549999Y-73150000I249999J0D01*
G01*
X121450001Y-73150000D01*
G75*
G02*
X121700000Y-73399999I0J-249999D01*
G01*
X121700000Y-73925001D01*
G75*
G02*
X121450001Y-74175000I-249999J0D01*
G01*
G37*
G36*
G01*
X121450001Y-72350000D02*
X120549999Y-72350000D01*
G75*
G02*
X120300000Y-72100001I0J249999D01*
G01*
X120300000Y-71574999D01*
G75*
G02*
X120549999Y-71325000I249999J0D01*
G01*
X121450001Y-71325000D01*
G75*
G02*
X121700000Y-71574999I0J-249999D01*
G01*
X121700000Y-72100001D01*
G75*
G02*
X121450001Y-72350000I-249999J0D01*
G01*
G37*
%TD*%
%TO.C,R23*%
G36*
G01*
X125200001Y-72350000D02*
X124299999Y-72350000D01*
G75*
G02*
X124050000Y-72100001I0J249999D01*
G01*
X124050000Y-71574999D01*
G75*
G02*
X124299999Y-71325000I249999J0D01*
G01*
X125200001Y-71325000D01*
G75*
G02*
X125450000Y-71574999I0J-249999D01*
G01*
X125450000Y-72100001D01*
G75*
G02*
X125200001Y-72350000I-249999J0D01*
G01*
G37*
G36*
G01*
X125200001Y-74175000D02*
X124299999Y-74175000D01*
G75*
G02*
X124050000Y-73925001I0J249999D01*
G01*
X124050000Y-73399999D01*
G75*
G02*
X124299999Y-73150000I249999J0D01*
G01*
X125200001Y-73150000D01*
G75*
G02*
X125450000Y-73399999I0J-249999D01*
G01*
X125450000Y-73925001D01*
G75*
G02*
X125200001Y-74175000I-249999J0D01*
G01*
G37*
%TD*%
D23*
%TO.C,SW2*%
X135500000Y-57670000D03*
X132500000Y-57670000D03*
%TD*%
D24*
%TO.C,SW1*%
X124450000Y-115500000D03*
X124450000Y-120000000D03*
X117950000Y-115500000D03*
X117950000Y-120000000D03*
%TD*%
D25*
%TO.C,J4*%
X106050000Y-96850000D03*
X106050000Y-98850000D03*
X106050000Y-100850000D03*
D26*
X106050000Y-102850000D03*
%TD*%
%TO.C,J3*%
X107200000Y-72000000D03*
D25*
X107200000Y-74000000D03*
X107200000Y-76000000D03*
X107200000Y-78000000D03*
%TD*%
D23*
%TO.C,H1*%
X109380419Y-115419581D03*
X107100000Y-114475000D03*
X104819581Y-115419581D03*
X103875000Y-117700000D03*
X104819581Y-119980419D03*
X107100000Y-120925000D03*
X109380419Y-119980419D03*
X110325000Y-117700000D03*
D27*
X107100000Y-117700000D03*
%TD*%
D23*
%TO.C,H2*%
X194830419Y-115519581D03*
X192550000Y-114575000D03*
X190269581Y-115519581D03*
X189325000Y-117800000D03*
X190269581Y-120080419D03*
X192550000Y-121025000D03*
X194830419Y-120080419D03*
X195775000Y-117800000D03*
D27*
X192550000Y-117800000D03*
%TD*%
D23*
%TO.C,H3*%
X194830419Y-56819581D03*
X192550000Y-55875000D03*
X190269581Y-56819581D03*
X189325000Y-59100000D03*
X190269581Y-61380419D03*
X192550000Y-62325000D03*
X194830419Y-61380419D03*
X195775000Y-59100000D03*
D27*
X192550000Y-59100000D03*
%TD*%
D23*
%TO.C,H4*%
X109380419Y-57019581D03*
X107100000Y-56075000D03*
X104819581Y-57019581D03*
X103875000Y-59300000D03*
X104819581Y-61580419D03*
X107100000Y-62525000D03*
X109380419Y-61580419D03*
X110325000Y-59300000D03*
D27*
X107100000Y-59300000D03*
%TD*%
%TO.C,R26*%
G36*
G01*
X113549999Y-71325000D02*
X114450001Y-71325000D01*
G75*
G02*
X114700000Y-71574999I0J-249999D01*
G01*
X114700000Y-72100001D01*
G75*
G02*
X114450001Y-72350000I-249999J0D01*
G01*
X113549999Y-72350000D01*
G75*
G02*
X113300000Y-72100001I0J249999D01*
G01*
X113300000Y-71574999D01*
G75*
G02*
X113549999Y-71325000I249999J0D01*
G01*
G37*
G36*
G01*
X113549999Y-73150000D02*
X114450001Y-73150000D01*
G75*
G02*
X114700000Y-73399999I0J-249999D01*
G01*
X114700000Y-73925001D01*
G75*
G02*
X114450001Y-74175000I-249999J0D01*
G01*
X113549999Y-74175000D01*
G75*
G02*
X113300000Y-73925001I0J249999D01*
G01*
X113300000Y-73399999D01*
G75*
G02*
X113549999Y-73150000I249999J0D01*
G01*
G37*
%TD*%
D28*
%TO.C,J6*%
X113875000Y-58350000D03*
X127625000Y-58350000D03*
X127625000Y-66650000D03*
X113875000Y-66650000D03*
D29*
X116250000Y-60950000D03*
X117350000Y-60950000D03*
X118450000Y-60950000D03*
X119550000Y-60950000D03*
X120650000Y-60950000D03*
X121750000Y-60950000D03*
X122850000Y-60950000D03*
X123950000Y-60950000D03*
%TD*%
%TO.C,R27*%
G36*
G01*
X117950001Y-72350000D02*
X117049999Y-72350000D01*
G75*
G02*
X116800000Y-72100001I0J249999D01*
G01*
X116800000Y-71574999D01*
G75*
G02*
X117049999Y-71325000I249999J0D01*
G01*
X117950001Y-71325000D01*
G75*
G02*
X118200000Y-71574999I0J-249999D01*
G01*
X118200000Y-72100001D01*
G75*
G02*
X117950001Y-72350000I-249999J0D01*
G01*
G37*
G36*
G01*
X117950001Y-74175000D02*
X117049999Y-74175000D01*
G75*
G02*
X116800000Y-73925001I0J249999D01*
G01*
X116800000Y-73399999D01*
G75*
G02*
X117049999Y-73150000I249999J0D01*
G01*
X117950001Y-73150000D01*
G75*
G02*
X118200000Y-73399999I0J-249999D01*
G01*
X118200000Y-73925001D01*
G75*
G02*
X117950001Y-74175000I-249999J0D01*
G01*
G37*
%TD*%
D22*
%TO.C,U5*%
X167187000Y-91690000D03*
X167187000Y-94230000D03*
X167187000Y-96770000D03*
X167187000Y-99310000D03*
X159313000Y-99310000D03*
X159313000Y-96770000D03*
X159313000Y-94230000D03*
D21*
X159313000Y-91690000D03*
%TD*%
D30*
%TO.C,J1*%
X187400000Y-74400000D03*
X187400000Y-77400000D03*
X187400000Y-80400000D03*
X187400000Y-83400000D03*
X187400000Y-86400000D03*
X187400000Y-89400000D03*
X187400000Y-92400000D03*
X187400000Y-95400000D03*
X187400000Y-98400000D03*
X184900000Y-75900000D03*
X184900000Y-78900000D03*
X184900000Y-81900000D03*
X184900000Y-84900000D03*
X184900000Y-87900000D03*
X184900000Y-90900000D03*
X184900000Y-93900000D03*
X184900000Y-96900000D03*
X181900000Y-75900000D03*
X181900000Y-78900000D03*
X181900000Y-81900000D03*
X181900000Y-84900000D03*
X181900000Y-87900000D03*
X181900000Y-90900000D03*
X181900000Y-93900000D03*
X181900000Y-96900000D03*
X179400000Y-74400000D03*
X179400000Y-77400000D03*
X179400000Y-80400000D03*
X179400000Y-83400000D03*
X179400000Y-86400000D03*
X179400000Y-89400000D03*
X179400000Y-92400000D03*
X179400000Y-95400000D03*
X179400000Y-98400000D03*
%TD*%
M02*
