%TF.GenerationSoftware,KiCad,Pcbnew,(5.1.12)-1*%
%TF.CreationDate,2022-03-21T20:12:08+01:00*%
%TF.ProjectId,TelemetryPrimePCB,54656c65-6d65-4747-9279-5072696d6550,rev?*%
%TF.SameCoordinates,Original*%
%TF.FileFunction,Copper,L4,Bot*%
%TF.FilePolarity,Positive*%
%FSLAX46Y46*%
G04 Gerber Fmt 4.6, Leading zero omitted, Abs format (unit mm)*
G04 Created by KiCad (PCBNEW (5.1.12)-1) date 2022-03-21 20:12:08*
%MOMM*%
%LPD*%
G01*
G04 APERTURE LIST*
%TA.AperFunction,ComponentPad*%
%ADD10O,1.700000X1.700000*%
%TD*%
%TA.AperFunction,ComponentPad*%
%ADD11R,1.700000X1.700000*%
%TD*%
%TA.AperFunction,SMDPad,CuDef*%
%ADD12R,0.650000X1.060000*%
%TD*%
%TA.AperFunction,ComponentPad*%
%ADD13O,1.000000X1.600000*%
%TD*%
%TA.AperFunction,ComponentPad*%
%ADD14O,1.000000X2.100000*%
%TD*%
%TA.AperFunction,SMDPad,CuDef*%
%ADD15R,0.300000X1.450000*%
%TD*%
%TA.AperFunction,SMDPad,CuDef*%
%ADD16R,0.600000X1.450000*%
%TD*%
%TA.AperFunction,SMDPad,CuDef*%
%ADD17R,0.900000X1.200000*%
%TD*%
%TA.AperFunction,ComponentPad*%
%ADD18C,3.000000*%
%TD*%
%TA.AperFunction,ComponentPad*%
%ADD19R,3.000000X3.000000*%
%TD*%
%TA.AperFunction,ComponentPad*%
%ADD20R,1.338000X1.338000*%
%TD*%
%TA.AperFunction,ComponentPad*%
%ADD21C,1.338000*%
%TD*%
%TA.AperFunction,ComponentPad*%
%ADD22C,2.000000*%
%TD*%
%TA.AperFunction,ComponentPad*%
%ADD23C,1.524000*%
%TD*%
%TA.AperFunction,ComponentPad*%
%ADD24R,1.524000X1.524000*%
%TD*%
%TA.AperFunction,ComponentPad*%
%ADD25C,0.900000*%
%TD*%
%TA.AperFunction,ComponentPad*%
%ADD26C,8.600000*%
%TD*%
%TA.AperFunction,SMDPad,CuDef*%
%ADD27R,1.450000X2.000000*%
%TD*%
%TA.AperFunction,SMDPad,CuDef*%
%ADD28R,0.800000X1.500000*%
%TD*%
%TA.AperFunction,ComponentPad*%
%ADD29C,1.950000*%
%TD*%
%TA.AperFunction,ViaPad*%
%ADD30C,0.800000*%
%TD*%
%TA.AperFunction,Conductor*%
%ADD31C,0.750000*%
%TD*%
%TA.AperFunction,Conductor*%
%ADD32C,0.500000*%
%TD*%
%TA.AperFunction,Conductor*%
%ADD33C,0.300000*%
%TD*%
%TA.AperFunction,Conductor*%
%ADD34C,0.250000*%
%TD*%
%TA.AperFunction,Conductor*%
%ADD35C,0.200000*%
%TD*%
G04 APERTURE END LIST*
D10*
%TO.P,J8,5*%
%TO.N,+3V3*%
X154160000Y-119600000D03*
%TO.P,J8,4*%
%TO.N,GND*%
X151620000Y-119600000D03*
%TO.P,J8,3*%
%TO.N,SPI_MISO*%
X149080000Y-119600000D03*
%TO.P,J8,2*%
%TO.N,SPI_MOSI*%
X146540000Y-119600000D03*
D11*
%TO.P,J8,1*%
%TO.N,SPI_SCK*%
X144000000Y-119600000D03*
%TD*%
D12*
%TO.P,U6,1*%
%TO.N,D+*%
X157000000Y-67350000D03*
%TO.P,U6,2*%
%TO.N,GND*%
X157950000Y-67350000D03*
%TO.P,U6,3*%
%TO.N,D-*%
X158900000Y-67350000D03*
%TO.P,U6,4*%
%TO.N,USB_OTG_D-*%
X158900000Y-69550000D03*
%TO.P,U6,6*%
%TO.N,USB_OTG_D+*%
X157000000Y-69550000D03*
%TO.P,U6,5*%
%TO.N,+5VD*%
X157950000Y-69550000D03*
%TD*%
%TO.P,R36,1*%
%TO.N,Net-(J7-PadS1)*%
%TA.AperFunction,SMDPad,CuDef*%
G36*
G01*
X176975000Y-60300001D02*
X176975000Y-59399999D01*
G75*
G02*
X177224999Y-59150000I249999J0D01*
G01*
X177750001Y-59150000D01*
G75*
G02*
X178000000Y-59399999I0J-249999D01*
G01*
X178000000Y-60300001D01*
G75*
G02*
X177750001Y-60550000I-249999J0D01*
G01*
X177224999Y-60550000D01*
G75*
G02*
X176975000Y-60300001I0J249999D01*
G01*
G37*
%TD.AperFunction*%
%TO.P,R36,2*%
%TO.N,GND*%
%TA.AperFunction,SMDPad,CuDef*%
G36*
G01*
X178800000Y-60300001D02*
X178800000Y-59399999D01*
G75*
G02*
X179049999Y-59150000I249999J0D01*
G01*
X179575001Y-59150000D01*
G75*
G02*
X179825000Y-59399999I0J-249999D01*
G01*
X179825000Y-60300001D01*
G75*
G02*
X179575001Y-60550000I-249999J0D01*
G01*
X179049999Y-60550000D01*
G75*
G02*
X178800000Y-60300001I0J249999D01*
G01*
G37*
%TD.AperFunction*%
%TD*%
%TO.P,R35,2*%
%TO.N,Net-(J7-PadB5)*%
%TA.AperFunction,SMDPad,CuDef*%
G36*
G01*
X172000001Y-65850000D02*
X171099999Y-65850000D01*
G75*
G02*
X170850000Y-65600001I0J249999D01*
G01*
X170850000Y-65074999D01*
G75*
G02*
X171099999Y-64825000I249999J0D01*
G01*
X172000001Y-64825000D01*
G75*
G02*
X172250000Y-65074999I0J-249999D01*
G01*
X172250000Y-65600001D01*
G75*
G02*
X172000001Y-65850000I-249999J0D01*
G01*
G37*
%TD.AperFunction*%
%TO.P,R35,1*%
%TO.N,GND*%
%TA.AperFunction,SMDPad,CuDef*%
G36*
G01*
X172000001Y-67675000D02*
X171099999Y-67675000D01*
G75*
G02*
X170850000Y-67425001I0J249999D01*
G01*
X170850000Y-66899999D01*
G75*
G02*
X171099999Y-66650000I249999J0D01*
G01*
X172000001Y-66650000D01*
G75*
G02*
X172250000Y-66899999I0J-249999D01*
G01*
X172250000Y-67425001D01*
G75*
G02*
X172000001Y-67675000I-249999J0D01*
G01*
G37*
%TD.AperFunction*%
%TD*%
%TO.P,R29,1*%
%TO.N,GND*%
%TA.AperFunction,SMDPad,CuDef*%
G36*
G01*
X160125000Y-65600001D02*
X160125000Y-64699999D01*
G75*
G02*
X160374999Y-64450000I249999J0D01*
G01*
X160900001Y-64450000D01*
G75*
G02*
X161150000Y-64699999I0J-249999D01*
G01*
X161150000Y-65600001D01*
G75*
G02*
X160900001Y-65850000I-249999J0D01*
G01*
X160374999Y-65850000D01*
G75*
G02*
X160125000Y-65600001I0J249999D01*
G01*
G37*
%TD.AperFunction*%
%TO.P,R29,2*%
%TO.N,Net-(J7-PadA5)*%
%TA.AperFunction,SMDPad,CuDef*%
G36*
G01*
X161950000Y-65600001D02*
X161950000Y-64699999D01*
G75*
G02*
X162199999Y-64450000I249999J0D01*
G01*
X162725001Y-64450000D01*
G75*
G02*
X162975000Y-64699999I0J-249999D01*
G01*
X162975000Y-65600001D01*
G75*
G02*
X162725001Y-65850000I-249999J0D01*
G01*
X162199999Y-65850000D01*
G75*
G02*
X161950000Y-65600001I0J249999D01*
G01*
G37*
%TD.AperFunction*%
%TD*%
D13*
%TO.P,J7,S1*%
%TO.N,Net-(J7-PadS1)*%
X175020000Y-57700000D03*
X166380000Y-57700000D03*
D14*
X166380000Y-61880000D03*
X175020000Y-61880000D03*
D15*
%TO.P,J7,A6*%
%TO.N,D+*%
X170450000Y-62795000D03*
%TO.P,J7,B5*%
%TO.N,Net-(J7-PadB5)*%
X172450000Y-62795000D03*
%TO.P,J7,A8*%
%TO.N,Net-(J7-PadA8)*%
X171950000Y-62795000D03*
%TO.P,J7,B6*%
%TO.N,D+*%
X171450000Y-62795000D03*
%TO.P,J7,A7*%
%TO.N,D-*%
X170950000Y-62795000D03*
%TO.P,J7,B7*%
X169950000Y-62795000D03*
%TO.P,J7,A5*%
%TO.N,Net-(J7-PadA5)*%
X169450000Y-62795000D03*
%TO.P,J7,B8*%
%TO.N,Net-(J7-PadB8)*%
X168950000Y-62795000D03*
D16*
%TO.P,J7,A12*%
%TO.N,GND*%
X173950000Y-62795000D03*
%TO.P,J7,B4*%
%TO.N,+5VD*%
X173150000Y-62795000D03*
%TO.P,J7,A4*%
X168250000Y-62795000D03*
%TO.P,J7,A1*%
%TO.N,GND*%
X167450000Y-62795000D03*
%TO.P,J7,B12*%
X167450000Y-62795000D03*
%TO.P,J7,B9*%
%TO.N,+5VD*%
X168250000Y-62795000D03*
%TO.P,J7,A9*%
X173150000Y-62795000D03*
%TO.P,J7,B1*%
%TO.N,GND*%
X173950000Y-62795000D03*
%TD*%
D17*
%TO.P,D5,1*%
%TO.N,Net-(D3-Pad1)*%
X184200000Y-61950000D03*
%TO.P,D5,2*%
%TO.N,+5VD*%
X180900000Y-61950000D03*
%TD*%
D18*
%TO.P,BT1,2*%
%TO.N,GND*%
X115950000Y-103590000D03*
D19*
%TO.P,BT1,1*%
%TO.N,VBAT*%
X115950000Y-83100000D03*
%TD*%
D20*
%TO.P,U4,1*%
%TO.N,CAN1_TX*%
X160813000Y-72090000D03*
D21*
%TO.P,U4,2*%
%TO.N,GND*%
X160813000Y-74630000D03*
%TO.P,U4,3*%
%TO.N,+5V*%
X160813000Y-77170000D03*
%TO.P,U4,4*%
%TO.N,CAN1_RX*%
X160813000Y-79710000D03*
%TO.P,U4,5*%
%TO.N,Net-(U4-Pad5)*%
X168687000Y-79710000D03*
%TO.P,U4,6*%
%TO.N,CAN1_L*%
X168687000Y-77170000D03*
%TO.P,U4,7*%
%TO.N,CAN1_H*%
X168687000Y-74630000D03*
%TO.P,U4,8*%
%TO.N,GND*%
X168687000Y-72090000D03*
%TD*%
D11*
%TO.P,J5,1*%
%TO.N,UART7_TX*%
X139000000Y-119600000D03*
D10*
%TO.P,J5,2*%
%TO.N,UART7_RX*%
X136460000Y-119600000D03*
%TO.P,J5,3*%
%TO.N,GND*%
X133920000Y-119600000D03*
%TO.P,J5,4*%
%TO.N,+3V3*%
X131380000Y-119600000D03*
%TD*%
D11*
%TO.P,J2,1*%
%TO.N,5V_STLink*%
X154500000Y-57000000D03*
D10*
%TO.P,J2,2*%
%TO.N,SWDIO*%
X154500000Y-59540000D03*
%TO.P,J2,3*%
%TO.N,GND*%
X151960000Y-57000000D03*
%TO.P,J2,4*%
%TO.N,SWCLK*%
X151960000Y-59540000D03*
%TO.P,J2,5*%
%TO.N,GND*%
X149420000Y-57000000D03*
%TO.P,J2,6*%
%TO.N,SWO*%
X149420000Y-59540000D03*
%TO.P,J2,7*%
%TO.N,Net-(J2-Pad7)*%
X146880000Y-57000000D03*
%TO.P,J2,8*%
%TO.N,Net-(J2-Pad8)*%
X146880000Y-59540000D03*
%TO.P,J2,9*%
%TO.N,GND*%
X144340000Y-57000000D03*
%TO.P,J2,10*%
%TO.N,NRST*%
X144340000Y-59540000D03*
%TD*%
%TO.P,R25,1*%
%TO.N,SDMMC_D2*%
%TA.AperFunction,SMDPad,CuDef*%
G36*
G01*
X129125000Y-63900001D02*
X129125000Y-62999999D01*
G75*
G02*
X129374999Y-62750000I249999J0D01*
G01*
X129900001Y-62750000D01*
G75*
G02*
X130150000Y-62999999I0J-249999D01*
G01*
X130150000Y-63900001D01*
G75*
G02*
X129900001Y-64150000I-249999J0D01*
G01*
X129374999Y-64150000D01*
G75*
G02*
X129125000Y-63900001I0J249999D01*
G01*
G37*
%TD.AperFunction*%
%TO.P,R25,2*%
%TO.N,+3V3*%
%TA.AperFunction,SMDPad,CuDef*%
G36*
G01*
X130950000Y-63900001D02*
X130950000Y-62999999D01*
G75*
G02*
X131199999Y-62750000I249999J0D01*
G01*
X131725001Y-62750000D01*
G75*
G02*
X131975000Y-62999999I0J-249999D01*
G01*
X131975000Y-63900001D01*
G75*
G02*
X131725001Y-64150000I-249999J0D01*
G01*
X131199999Y-64150000D01*
G75*
G02*
X130950000Y-63900001I0J249999D01*
G01*
G37*
%TD.AperFunction*%
%TD*%
%TO.P,R24,1*%
%TO.N,+3V3*%
%TA.AperFunction,SMDPad,CuDef*%
G36*
G01*
X121450001Y-74175000D02*
X120549999Y-74175000D01*
G75*
G02*
X120300000Y-73925001I0J249999D01*
G01*
X120300000Y-73399999D01*
G75*
G02*
X120549999Y-73150000I249999J0D01*
G01*
X121450001Y-73150000D01*
G75*
G02*
X121700000Y-73399999I0J-249999D01*
G01*
X121700000Y-73925001D01*
G75*
G02*
X121450001Y-74175000I-249999J0D01*
G01*
G37*
%TD.AperFunction*%
%TO.P,R24,2*%
%TO.N,SDMMC_CMD*%
%TA.AperFunction,SMDPad,CuDef*%
G36*
G01*
X121450001Y-72350000D02*
X120549999Y-72350000D01*
G75*
G02*
X120300000Y-72100001I0J249999D01*
G01*
X120300000Y-71574999D01*
G75*
G02*
X120549999Y-71325000I249999J0D01*
G01*
X121450001Y-71325000D01*
G75*
G02*
X121700000Y-71574999I0J-249999D01*
G01*
X121700000Y-72100001D01*
G75*
G02*
X121450001Y-72350000I-249999J0D01*
G01*
G37*
%TD.AperFunction*%
%TD*%
%TO.P,R23,2*%
%TO.N,SDMMC_D3*%
%TA.AperFunction,SMDPad,CuDef*%
G36*
G01*
X125200001Y-72350000D02*
X124299999Y-72350000D01*
G75*
G02*
X124050000Y-72100001I0J249999D01*
G01*
X124050000Y-71574999D01*
G75*
G02*
X124299999Y-71325000I249999J0D01*
G01*
X125200001Y-71325000D01*
G75*
G02*
X125450000Y-71574999I0J-249999D01*
G01*
X125450000Y-72100001D01*
G75*
G02*
X125200001Y-72350000I-249999J0D01*
G01*
G37*
%TD.AperFunction*%
%TO.P,R23,1*%
%TO.N,+3V3*%
%TA.AperFunction,SMDPad,CuDef*%
G36*
G01*
X125200001Y-74175000D02*
X124299999Y-74175000D01*
G75*
G02*
X124050000Y-73925001I0J249999D01*
G01*
X124050000Y-73399999D01*
G75*
G02*
X124299999Y-73150000I249999J0D01*
G01*
X125200001Y-73150000D01*
G75*
G02*
X125450000Y-73399999I0J-249999D01*
G01*
X125450000Y-73925001D01*
G75*
G02*
X125200001Y-74175000I-249999J0D01*
G01*
G37*
%TD.AperFunction*%
%TD*%
D22*
%TO.P,SW1,1*%
%TO.N,NRST*%
X124450000Y-115500000D03*
%TO.P,SW1,2*%
%TO.N,GND*%
X124450000Y-120000000D03*
%TO.P,SW1,1*%
%TO.N,NRST*%
X117950000Y-115500000D03*
%TO.P,SW1,2*%
%TO.N,GND*%
X117950000Y-120000000D03*
%TD*%
D23*
%TO.P,J4,4*%
%TO.N,USART1_RX*%
X106050000Y-96850000D03*
%TO.P,J4,3*%
%TO.N,USART1_TX*%
X106050000Y-98850000D03*
%TO.P,J4,2*%
%TO.N,+3V3*%
X106050000Y-100850000D03*
D24*
%TO.P,J4,1*%
%TO.N,GND*%
X106050000Y-102850000D03*
%TD*%
%TO.P,J3,1*%
%TO.N,GND*%
X107200000Y-72000000D03*
D23*
%TO.P,J3,2*%
%TO.N,+3V3*%
X107200000Y-74000000D03*
%TO.P,J3,3*%
%TO.N,I2C2_SDA*%
X107200000Y-76000000D03*
%TO.P,J3,4*%
%TO.N,I2C2_CLK*%
X107200000Y-78000000D03*
%TD*%
D25*
%TO.P,H1,1*%
%TO.N,GND*%
X109380419Y-115419581D03*
X107100000Y-114475000D03*
X104819581Y-115419581D03*
X103875000Y-117700000D03*
X104819581Y-119980419D03*
X107100000Y-120925000D03*
X109380419Y-119980419D03*
X110325000Y-117700000D03*
D26*
X107100000Y-117700000D03*
%TD*%
D25*
%TO.P,H2,1*%
%TO.N,GND*%
X194830419Y-115519581D03*
X192550000Y-114575000D03*
X190269581Y-115519581D03*
X189325000Y-117800000D03*
X190269581Y-120080419D03*
X192550000Y-121025000D03*
X194830419Y-120080419D03*
X195775000Y-117800000D03*
D26*
X192550000Y-117800000D03*
%TD*%
D25*
%TO.P,H3,1*%
%TO.N,GND*%
X194830419Y-56819581D03*
X192550000Y-55875000D03*
X190269581Y-56819581D03*
X189325000Y-59100000D03*
X190269581Y-61380419D03*
X192550000Y-62325000D03*
X194830419Y-61380419D03*
X195775000Y-59100000D03*
D26*
X192550000Y-59100000D03*
%TD*%
D25*
%TO.P,H4,1*%
%TO.N,GND*%
X109380419Y-57019581D03*
X107100000Y-56075000D03*
X104819581Y-57019581D03*
X103875000Y-59300000D03*
X104819581Y-61580419D03*
X107100000Y-62525000D03*
X109380419Y-61580419D03*
X110325000Y-59300000D03*
D26*
X107100000Y-59300000D03*
%TD*%
%TO.P,R26,1*%
%TO.N,SDMMC_D1*%
%TA.AperFunction,SMDPad,CuDef*%
G36*
G01*
X113549999Y-71325000D02*
X114450001Y-71325000D01*
G75*
G02*
X114700000Y-71574999I0J-249999D01*
G01*
X114700000Y-72100001D01*
G75*
G02*
X114450001Y-72350000I-249999J0D01*
G01*
X113549999Y-72350000D01*
G75*
G02*
X113300000Y-72100001I0J249999D01*
G01*
X113300000Y-71574999D01*
G75*
G02*
X113549999Y-71325000I249999J0D01*
G01*
G37*
%TD.AperFunction*%
%TO.P,R26,2*%
%TO.N,+3V3*%
%TA.AperFunction,SMDPad,CuDef*%
G36*
G01*
X113549999Y-73150000D02*
X114450001Y-73150000D01*
G75*
G02*
X114700000Y-73399999I0J-249999D01*
G01*
X114700000Y-73925001D01*
G75*
G02*
X114450001Y-74175000I-249999J0D01*
G01*
X113549999Y-74175000D01*
G75*
G02*
X113300000Y-73925001I0J249999D01*
G01*
X113300000Y-73399999D01*
G75*
G02*
X113549999Y-73150000I249999J0D01*
G01*
G37*
%TD.AperFunction*%
%TD*%
D27*
%TO.P,J6,9*%
%TO.N,GND*%
X113875000Y-58350000D03*
X127625000Y-58350000D03*
X127625000Y-66650000D03*
X113875000Y-66650000D03*
D28*
%TO.P,J6,8*%
%TO.N,SDMMC_D1*%
X116250000Y-60950000D03*
%TO.P,J6,7*%
%TO.N,SDMMC_D0*%
X117350000Y-60950000D03*
%TO.P,J6,6*%
%TO.N,GND*%
X118450000Y-60950000D03*
%TO.P,J6,5*%
%TO.N,SDMMC_CK*%
X119550000Y-60950000D03*
%TO.P,J6,4*%
%TO.N,+3V3*%
X120650000Y-60950000D03*
%TO.P,J6,3*%
%TO.N,SDMMC_CMD*%
X121750000Y-60950000D03*
%TO.P,J6,2*%
%TO.N,SDMMC_D3*%
X122850000Y-60950000D03*
%TO.P,J6,1*%
%TO.N,SDMMC_D2*%
X123950000Y-60950000D03*
%TD*%
%TO.P,R27,2*%
%TO.N,SDMMC_D0*%
%TA.AperFunction,SMDPad,CuDef*%
G36*
G01*
X117950001Y-72350000D02*
X117049999Y-72350000D01*
G75*
G02*
X116800000Y-72100001I0J249999D01*
G01*
X116800000Y-71574999D01*
G75*
G02*
X117049999Y-71325000I249999J0D01*
G01*
X117950001Y-71325000D01*
G75*
G02*
X118200000Y-71574999I0J-249999D01*
G01*
X118200000Y-72100001D01*
G75*
G02*
X117950001Y-72350000I-249999J0D01*
G01*
G37*
%TD.AperFunction*%
%TO.P,R27,1*%
%TO.N,+3V3*%
%TA.AperFunction,SMDPad,CuDef*%
G36*
G01*
X117950001Y-74175000D02*
X117049999Y-74175000D01*
G75*
G02*
X116800000Y-73925001I0J249999D01*
G01*
X116800000Y-73399999D01*
G75*
G02*
X117049999Y-73150000I249999J0D01*
G01*
X117950001Y-73150000D01*
G75*
G02*
X118200000Y-73399999I0J-249999D01*
G01*
X118200000Y-73925001D01*
G75*
G02*
X117950001Y-74175000I-249999J0D01*
G01*
G37*
%TD.AperFunction*%
%TD*%
D21*
%TO.P,U5,8*%
%TO.N,GND*%
X167187000Y-91690000D03*
%TO.P,U5,7*%
%TO.N,CAN2_H*%
X167187000Y-94230000D03*
%TO.P,U5,6*%
%TO.N,CAN2_L*%
X167187000Y-96770000D03*
%TO.P,U5,5*%
%TO.N,Net-(U5-Pad5)*%
X167187000Y-99310000D03*
%TO.P,U5,4*%
%TO.N,CAN2_RX*%
X159313000Y-99310000D03*
%TO.P,U5,3*%
%TO.N,+5V*%
X159313000Y-96770000D03*
%TO.P,U5,2*%
%TO.N,GND*%
X159313000Y-94230000D03*
D20*
%TO.P,U5,1*%
%TO.N,CAN2_TX*%
X159313000Y-91690000D03*
%TD*%
D29*
%TO.P,J1,34*%
%TO.N,I2C1_SDA*%
X187400000Y-74400000D03*
%TO.P,J1,33*%
%TO.N,Net-(J1-Pad33)*%
X187400000Y-77400000D03*
%TO.P,J1,32*%
%TO.N,Net-(J1-Pad32)*%
X187400000Y-80400000D03*
%TO.P,J1,31*%
%TO.N,Net-(J1-Pad31)*%
X187400000Y-83400000D03*
%TO.P,J1,30*%
%TO.N,Net-(J1-Pad30)*%
X187400000Y-86400000D03*
%TO.P,J1,29*%
%TO.N,USART2_TX*%
X187400000Y-89400000D03*
%TO.P,J1,28*%
%TO.N,USART2_RX*%
X187400000Y-92400000D03*
%TO.P,J1,27*%
%TO.N,CAN2_L*%
X187400000Y-95400000D03*
%TO.P,J1,26*%
%TO.N,+12V*%
X187400000Y-98400000D03*
%TO.P,J1,25*%
%TO.N,GND*%
X184900000Y-75900000D03*
%TO.P,J1,24*%
%TO.N,CAN1_L*%
X184900000Y-78900000D03*
%TO.P,J1,23*%
%TO.N,+3V3*%
X184900000Y-81900000D03*
%TO.P,J1,22*%
%TO.N,I2C3_SDA*%
X184900000Y-84900000D03*
%TO.P,J1,21*%
%TO.N,+8V*%
X184900000Y-87900000D03*
%TO.P,J1,20*%
%TO.N,ADC4*%
X184900000Y-90900000D03*
%TO.P,J1,19*%
%TO.N,GND*%
X184900000Y-93900000D03*
%TO.P,J1,18*%
%TO.N,VSS2*%
X184900000Y-96900000D03*
%TO.P,J1,17*%
%TO.N,I2C1_CLK*%
X181900000Y-75900000D03*
%TO.P,J1,16*%
%TO.N,GND*%
X181900000Y-78900000D03*
%TO.P,J1,15*%
%TO.N,I2C3_CLK*%
X181900000Y-81900000D03*
%TO.P,J1,14*%
%TO.N,GND*%
X181900000Y-84900000D03*
%TO.P,J1,13*%
%TO.N,ADC3*%
X181900000Y-87900000D03*
%TO.P,J1,12*%
%TO.N,GND*%
X181900000Y-90900000D03*
%TO.P,J1,11*%
%TO.N,ADC2*%
X181900000Y-93900000D03*
%TO.P,J1,10*%
%TO.N,I2C4_CLK*%
X181900000Y-96900000D03*
%TO.P,J1,9*%
%TO.N,CAN1_H*%
X179400000Y-74400000D03*
%TO.P,J1,8*%
%TO.N,GND*%
X179400000Y-77400000D03*
%TO.P,J1,7*%
%TO.N,ADC5*%
X179400000Y-80400000D03*
%TO.P,J1,6*%
%TO.N,ADC6*%
X179400000Y-83400000D03*
%TO.P,J1,5*%
%TO.N,+5V*%
X179400000Y-86400000D03*
%TO.P,J1,4*%
%TO.N,VSS1*%
X179400000Y-89400000D03*
%TO.P,J1,3*%
%TO.N,ADC1*%
X179400000Y-92400000D03*
%TO.P,J1,2*%
%TO.N,CAN2_H*%
X179400000Y-95400000D03*
%TO.P,J1,1*%
%TO.N,I2C4_SDA*%
X179400000Y-98400000D03*
%TD*%
D30*
%TO.N,GND*%
X189400000Y-85000000D03*
X153600000Y-83500000D03*
X170250000Y-67100000D03*
X176500000Y-62500000D03*
X164750000Y-62500000D03*
X158000000Y-66150000D03*
X159650000Y-65100000D03*
X180250000Y-59800000D03*
X118500000Y-96000000D03*
X122700000Y-93900000D03*
X169650000Y-120600000D03*
X188550000Y-93900000D03*
X127750000Y-112050000D03*
X137350000Y-77950000D03*
X162850000Y-107550000D03*
X155850000Y-110750000D03*
X157050000Y-108150000D03*
X119700000Y-108300000D03*
X176450000Y-114300000D03*
X180100000Y-112950000D03*
X175500000Y-105300000D03*
X183200000Y-106300000D03*
X166550000Y-121150000D03*
X170250000Y-115600000D03*
X122550000Y-98300000D03*
X118100000Y-98250000D03*
X123700000Y-93150000D03*
X118900000Y-89000000D03*
X119000000Y-86700000D03*
X154300000Y-95900000D03*
X156950000Y-99650000D03*
X141800000Y-77000000D03*
X127850000Y-77650000D03*
X123800000Y-79850000D03*
X112700000Y-66600000D03*
X112700000Y-58250000D03*
X128800000Y-58300000D03*
X128800000Y-66700000D03*
X130950000Y-59850000D03*
X154300000Y-90650000D03*
X122250000Y-91750000D03*
X170250000Y-117800000D03*
X118500000Y-62150000D03*
X152100000Y-80800000D03*
X167650000Y-110000000D03*
X152450000Y-103700000D03*
X147300000Y-108350000D03*
X143150000Y-108300000D03*
X137900000Y-107700000D03*
X131850000Y-107400000D03*
X123100000Y-105550000D03*
X125450000Y-105550000D03*
X107650000Y-91250000D03*
X168850000Y-121150000D03*
X171850000Y-121200000D03*
X159550000Y-119050000D03*
X177350000Y-113250000D03*
X181000000Y-111800000D03*
X180800000Y-115800000D03*
X182400000Y-107050000D03*
X177300000Y-105250000D03*
X154900000Y-111800000D03*
X156100000Y-109250000D03*
X160600000Y-107500000D03*
X176700000Y-77300000D03*
X179700000Y-116800000D03*
%TO.N,+3V3*%
X163500000Y-84750000D03*
X125550000Y-93150000D03*
X189100000Y-81950000D03*
X137050000Y-59850000D03*
X165600000Y-108450000D03*
X158950000Y-110400000D03*
X161450000Y-110400000D03*
X166100000Y-109550000D03*
X120700000Y-62150000D03*
X143500000Y-106200000D03*
X149600000Y-104850000D03*
X119850000Y-105400000D03*
X121650000Y-105400000D03*
X109500000Y-91350000D03*
X105050000Y-85250000D03*
X111250000Y-84050000D03*
X114000000Y-74600000D03*
X117500000Y-74600000D03*
X121050000Y-74600000D03*
X124750000Y-74600000D03*
X124950000Y-75550000D03*
X132400000Y-63450000D03*
X134650000Y-65300000D03*
X136150000Y-70900000D03*
X135450000Y-109850000D03*
X121900000Y-110800000D03*
X159000000Y-108100000D03*
X163550000Y-105750000D03*
X165650000Y-105800000D03*
X165650000Y-104950000D03*
X135050000Y-79950000D03*
X140800000Y-79200000D03*
X150200000Y-80800000D03*
X128350000Y-80850000D03*
X126650000Y-81050000D03*
X151450000Y-89550000D03*
X158950000Y-83700000D03*
X151400000Y-94850000D03*
X137800000Y-106550000D03*
X131500000Y-106250000D03*
X141600000Y-112250000D03*
X126250000Y-97600000D03*
%TO.N,USART1_RX*%
X130150000Y-91700000D03*
X115900000Y-92800000D03*
%TO.N,USART1_TX*%
X116250000Y-99650000D03*
X129500000Y-96650000D03*
%TO.N,SDMMC_D1*%
X138500000Y-85000000D03*
%TO.N,SDMMC_D0*%
X140250000Y-83500000D03*
%TO.N,SDMMC_CK*%
X139450000Y-70850000D03*
%TO.N,SDMMC_CMD*%
X139550000Y-80150000D03*
%TO.N,SDMMC_D3*%
X137500000Y-76750000D03*
%TO.N,SDMMC_D2*%
X138500000Y-76250000D03*
%TO.N,NRST*%
X129700000Y-95300000D03*
X129600000Y-101950000D03*
%TO.N,I2C2_CLK*%
X115650000Y-89100000D03*
X130055331Y-88555331D03*
%TO.N,I2C2_SDA*%
X115700000Y-86750000D03*
X129950000Y-86350000D03*
%TO.N,ADC3*%
X146900000Y-93550000D03*
X153200000Y-93550000D03*
%TO.N,ADC4*%
X146900000Y-96700000D03*
X161200000Y-94350000D03*
%TO.N,ADC1*%
X147050000Y-98600000D03*
X176650000Y-92900000D03*
%TO.N,ADC2*%
X147200000Y-100800000D03*
X176800000Y-94250000D03*
%TO.N,USART2_TX*%
X150100000Y-106500000D03*
X178304992Y-102575010D03*
%TO.N,USART2_RX*%
X158250000Y-101500000D03*
X182400000Y-101500000D03*
%TO.N,USB_OTG_D-*%
X157925000Y-81300000D03*
%TO.N,USB_OTG_D+*%
X156875000Y-81300000D03*
%TO.N,SWDIO*%
X150689998Y-79200000D03*
%TO.N,SWCLK*%
X148450000Y-80500000D03*
%TO.N,SWO*%
X145950000Y-84200000D03*
%TO.N,+5V*%
X177250000Y-86550000D03*
%TO.N,SPI_SCK*%
X144400000Y-109500000D03*
%TO.N,SPI_MISO*%
X145100000Y-101600000D03*
%TO.N,SPI_MOSI*%
X146000000Y-109450000D03*
%TO.N,+8V*%
X190200000Y-109750000D03*
X190200000Y-104200000D03*
%TO.N,Net-(D3-Pad1)*%
X185650000Y-62350000D03*
%TO.N,UART7_RX*%
X140600000Y-108800000D03*
X137100000Y-114750000D03*
%TO.N,UART7_TX*%
X143350000Y-109600000D03*
X140450000Y-115100000D03*
%TO.N,ADC5*%
X146250000Y-85500000D03*
X161250000Y-81500000D03*
%TO.N,ADC6*%
X146304000Y-87884000D03*
X174000000Y-85250000D03*
%TD*%
D31*
%TO.N,GND*%
X113825000Y-66600000D02*
X113875000Y-66650000D01*
X112700000Y-66600000D02*
X113825000Y-66600000D01*
X113775000Y-58250000D02*
X113875000Y-58350000D01*
X112700000Y-58250000D02*
X113775000Y-58250000D01*
X127675000Y-58300000D02*
X127625000Y-58350000D01*
X128800000Y-58300000D02*
X127675000Y-58300000D01*
X127675000Y-66700000D02*
X127625000Y-66650000D01*
X128800000Y-66700000D02*
X127675000Y-66700000D01*
X118500000Y-61000000D02*
X118450000Y-60950000D01*
X118500000Y-62150000D02*
X118500000Y-61000000D01*
D32*
X180250000Y-59800000D02*
X179362500Y-59800000D01*
X160587500Y-65100000D02*
X160637500Y-65150000D01*
X159650000Y-65100000D02*
X160587500Y-65100000D01*
X157950000Y-66200000D02*
X158000000Y-66150000D01*
X157950000Y-67350000D02*
X157950000Y-66200000D01*
D33*
X166964990Y-63280010D02*
X167450000Y-62795000D01*
X165530010Y-63280010D02*
X166964990Y-63280010D01*
X164750000Y-62500000D02*
X165530010Y-63280010D01*
X174435010Y-63280010D02*
X173950000Y-62795000D01*
X175719990Y-63280010D02*
X174435010Y-63280010D01*
X176500000Y-62500000D02*
X175719990Y-63280010D01*
D31*
X171487500Y-67100000D02*
X171550000Y-67162500D01*
X170250000Y-67100000D02*
X171487500Y-67100000D01*
%TO.N,+3V3*%
X114000000Y-74600000D02*
X114000000Y-73662500D01*
X117500000Y-74600000D02*
X117500000Y-73662500D01*
X121050000Y-73712500D02*
X121000000Y-73662500D01*
X121050000Y-74600000D02*
X121050000Y-73712500D01*
X124750000Y-74600000D02*
X124750000Y-73662500D01*
X132400000Y-63450000D02*
X131462500Y-63450000D01*
X120700000Y-61000000D02*
X120650000Y-60950000D01*
X120700000Y-62150000D02*
X120700000Y-61000000D01*
D33*
%TO.N,USART1_RX*%
X129100001Y-90650001D02*
X130150000Y-91700000D01*
X128800010Y-90350010D02*
X129100001Y-90650001D01*
X115900000Y-92800000D02*
X118349990Y-90350010D01*
X118649990Y-90350010D02*
X128800010Y-90350010D01*
X118349990Y-90350010D02*
X118649990Y-90350010D01*
%TO.N,USART1_TX*%
X116250000Y-99650000D02*
X126650000Y-99650000D01*
X126650000Y-99650000D02*
X126850000Y-99650000D01*
X126650000Y-99650000D02*
X127300000Y-99650000D01*
X127300000Y-99650000D02*
X127500000Y-99650000D01*
X127500000Y-99650000D02*
X127950000Y-99650000D01*
X127950000Y-99650000D02*
X129500000Y-98100000D01*
X129500000Y-98100000D02*
X129500000Y-96650000D01*
%TO.N,SDMMC_D1*%
X116250000Y-69587500D02*
X116250000Y-60950000D01*
X114000000Y-71837500D02*
X116250000Y-69587500D01*
X115050010Y-76550010D02*
X115075000Y-76575000D01*
X115050010Y-72887510D02*
X115050010Y-76550010D01*
X114000000Y-71837500D02*
X115050010Y-72887510D01*
X138500000Y-85000000D02*
X125850000Y-85000000D01*
X121150000Y-82700000D02*
X123550000Y-82700000D01*
X118650000Y-80200000D02*
X121150000Y-82700000D01*
X118650000Y-80150000D02*
X118650000Y-80200000D01*
X115050010Y-76550010D02*
X118650000Y-80150000D01*
X123550000Y-82700000D02*
X125850000Y-85000000D01*
%TO.N,SDMMC_D0*%
X117500000Y-61100000D02*
X117350000Y-60950000D01*
X117500000Y-71837500D02*
X117500000Y-61100000D01*
X139500000Y-84250000D02*
X140250000Y-83500000D01*
X127850000Y-82050000D02*
X130050000Y-84250000D01*
X130050000Y-84250000D02*
X139500000Y-84250000D01*
X118900000Y-76150000D02*
X124800000Y-82050000D01*
X124800000Y-82050000D02*
X127850000Y-82050000D01*
X118900000Y-73237500D02*
X118900000Y-76150000D01*
X117500000Y-71837500D02*
X118900000Y-73237500D01*
%TO.N,SDMMC_CK*%
X119550000Y-59900000D02*
X119550000Y-60950000D01*
X120200000Y-59250000D02*
X119550000Y-59900000D01*
X125750000Y-59250000D02*
X120200000Y-59250000D01*
X127750000Y-61250000D02*
X125750000Y-59250000D01*
X137750000Y-61250000D02*
X127750000Y-61250000D01*
X139450000Y-62950000D02*
X139275000Y-62775000D01*
X139450000Y-70850000D02*
X139450000Y-62950000D01*
X139275000Y-62775000D02*
X137750000Y-61250000D01*
%TO.N,SDMMC_CMD*%
X121750000Y-71087500D02*
X121750000Y-60950000D01*
X121000000Y-71837500D02*
X121750000Y-71087500D01*
X138600000Y-79200000D02*
X138650000Y-79250000D01*
X126800000Y-79200000D02*
X138600000Y-79200000D01*
X122800000Y-75200000D02*
X126800000Y-79200000D01*
X122800000Y-73637500D02*
X122800000Y-75200000D01*
X121000000Y-71837500D02*
X122800000Y-73637500D01*
X139550000Y-80150000D02*
X138650000Y-79250000D01*
%TO.N,SDMMC_D3*%
X127000000Y-74087500D02*
X124750000Y-71837500D01*
X127000000Y-75250000D02*
X127000000Y-74087500D01*
X128500000Y-76750000D02*
X127000000Y-75250000D01*
X137500000Y-76750000D02*
X128500000Y-76750000D01*
X124750000Y-71837500D02*
X124750000Y-71750000D01*
X122850000Y-69850000D02*
X122850000Y-60950000D01*
X124750000Y-71750000D02*
X122850000Y-69850000D01*
%TO.N,SDMMC_D2*%
X129437500Y-63250000D02*
X129637500Y-63450000D01*
X138500000Y-76250000D02*
X130837500Y-68587500D01*
X129637500Y-67387500D02*
X130837500Y-68587500D01*
X129637500Y-63450000D02*
X129637500Y-67387500D01*
X123950000Y-60950000D02*
X123950000Y-61200000D01*
X126000000Y-63250000D02*
X128850000Y-63250000D01*
X123950000Y-61200000D02*
X126000000Y-63250000D01*
X128850000Y-63250000D02*
X129437500Y-63250000D01*
X128250000Y-63250000D02*
X128850000Y-63250000D01*
%TO.N,NRST*%
X130250000Y-101300000D02*
X129600000Y-101950000D01*
X130250000Y-95850000D02*
X130250000Y-101300000D01*
X129700000Y-95300000D02*
X130250000Y-95850000D01*
X143500000Y-82750000D02*
X143500000Y-60380000D01*
X143500000Y-60380000D02*
X144340000Y-59540000D01*
X131250000Y-95000000D02*
X143500000Y-82750000D01*
X130000000Y-95000000D02*
X131250000Y-95000000D01*
X129700000Y-95300000D02*
X130000000Y-95000000D01*
%TO.N,I2C2_CLK*%
X116400000Y-89850000D02*
X115650000Y-89100000D01*
X131000000Y-89500000D02*
X130650000Y-89850000D01*
X130650000Y-89850000D02*
X116400000Y-89850000D01*
X131000000Y-88860662D02*
X131000000Y-89500000D01*
X130694669Y-88555331D02*
X131000000Y-88860662D01*
X130055331Y-88555331D02*
X130694669Y-88555331D01*
%TO.N,I2C2_SDA*%
X115800000Y-86650000D02*
X115700000Y-86750000D01*
X115700000Y-86750000D02*
X116700000Y-85750000D01*
X116700000Y-85750000D02*
X129100000Y-85750000D01*
X129350000Y-85750000D02*
X129950000Y-86350000D01*
X129100000Y-85750000D02*
X129350000Y-85750000D01*
%TO.N,ADC3*%
X146900000Y-93550000D02*
X153200000Y-93550000D01*
X153200000Y-93550000D02*
X153200000Y-93550000D01*
%TO.N,ADC4*%
X160990999Y-94559001D02*
X161200000Y-94350000D01*
X146900000Y-96700000D02*
X157800000Y-96700000D01*
X160300999Y-95249001D02*
X161200000Y-94350000D01*
X159250999Y-95249001D02*
X160300999Y-95249001D01*
X157800000Y-96700000D02*
X159250999Y-95249001D01*
%TO.N,ADC1*%
X174990999Y-94559001D02*
X176650000Y-92900000D01*
X147050000Y-98600000D02*
X157100000Y-98600000D01*
X157100000Y-98600000D02*
X157450000Y-98250000D01*
D34*
X174990999Y-94559001D02*
X173800000Y-95750000D01*
X173800000Y-95750000D02*
X162550000Y-95750000D01*
X160050000Y-98250000D02*
X159750000Y-98250000D01*
X162550000Y-95750000D02*
X160050000Y-98250000D01*
D33*
X157450000Y-98250000D02*
X159750000Y-98250000D01*
%TO.N,ADC2*%
X176650000Y-94250000D02*
X176800000Y-94250000D01*
X173110999Y-97789001D02*
X176650000Y-94250000D01*
X165210999Y-97789001D02*
X173110999Y-97789001D01*
X162599999Y-100400001D02*
X165210999Y-97789001D01*
D34*
X162599999Y-100400001D02*
X162599999Y-100500001D01*
X147499999Y-100500001D02*
X147200000Y-100800000D01*
X162599999Y-100500001D02*
X147499999Y-100500001D01*
D33*
%TO.N,USART2_TX*%
X155000000Y-104250000D02*
X156750000Y-104250000D01*
X152750000Y-106500000D02*
X155000000Y-104250000D01*
X150100000Y-106500000D02*
X152750000Y-106500000D01*
X156750000Y-104250000D02*
X158424990Y-102575010D01*
X158424990Y-102575010D02*
X178304992Y-102575010D01*
%TO.N,USART2_RX*%
X158250000Y-101500000D02*
X182400000Y-101500000D01*
D35*
%TO.N,USB_OTG_D-*%
X158900000Y-70345001D02*
X158900000Y-69550000D01*
X158175000Y-71070001D02*
X158900000Y-70345001D01*
X157625000Y-81000000D02*
X157625000Y-76193200D01*
X157925000Y-81300000D02*
X157625000Y-81000000D01*
X158175000Y-75643200D02*
X158175000Y-71070001D01*
X157625000Y-76193200D02*
X158175000Y-75643200D01*
%TO.N,USB_OTG_D+*%
X157000000Y-70345001D02*
X157000000Y-69550000D01*
X157725000Y-71070001D02*
X157000000Y-70345001D01*
X157175000Y-81000000D02*
X157175000Y-76006800D01*
X156875000Y-81300000D02*
X157175000Y-81000000D01*
X157725000Y-75456800D02*
X157725000Y-71070001D01*
X157175000Y-76006800D02*
X157725000Y-75456800D01*
D33*
%TO.N,SWDIO*%
X151400000Y-79200000D02*
X154500000Y-76100000D01*
X150689998Y-79200000D02*
X151400000Y-79200000D01*
X154500000Y-59540000D02*
X154500000Y-76100000D01*
%TO.N,SWCLK*%
X151960000Y-72310000D02*
X151960000Y-59540000D01*
X148450000Y-78700000D02*
X151960000Y-75190000D01*
X148450000Y-80500000D02*
X148450000Y-78700000D01*
X151960000Y-74640000D02*
X151960000Y-72310000D01*
X151960000Y-75190000D02*
X151960000Y-74640000D01*
%TO.N,SWO*%
X149420000Y-69830000D02*
X149420000Y-59540000D01*
X145950000Y-84200000D02*
X145950000Y-77200000D01*
X149420000Y-73730000D02*
X149420000Y-69830000D01*
X145950000Y-77200000D02*
X149420000Y-73730000D01*
D32*
%TO.N,+5V*%
X175000000Y-88800000D02*
X177250000Y-86550000D01*
X167639001Y-93110999D02*
X163697003Y-93110999D01*
X163697003Y-93110999D02*
X160038002Y-96770000D01*
X168650000Y-92100000D02*
X167639001Y-93110999D01*
X159313000Y-96770000D02*
X160038002Y-96770000D01*
X171700000Y-92100000D02*
X175000000Y-88800000D01*
X168650000Y-92100000D02*
X171700000Y-92100000D01*
X167043000Y-83400000D02*
X160813000Y-77170000D01*
X174100000Y-83400000D02*
X167043000Y-83400000D01*
X177250000Y-86550000D02*
X174100000Y-83400000D01*
D33*
%TO.N,SPI_SCK*%
X144400000Y-109500000D02*
X144400000Y-116200000D01*
X144400000Y-116200000D02*
X144200000Y-116400000D01*
X144200000Y-119400000D02*
X144000000Y-119600000D01*
X144200000Y-116400000D02*
X144200000Y-119400000D01*
%TO.N,SPI_MISO*%
X148550000Y-119070000D02*
X149080000Y-119600000D01*
X148550000Y-102500000D02*
X148550000Y-119070000D01*
X147650000Y-101600000D02*
X148550000Y-102500000D01*
X145100000Y-101600000D02*
X147650000Y-101600000D01*
%TO.N,SPI_MOSI*%
X146000000Y-119060000D02*
X146540000Y-119600000D01*
X146000000Y-109450000D02*
X146000000Y-119060000D01*
D32*
%TO.N,+8V*%
X190200000Y-109750000D02*
X190200000Y-104200000D01*
%TO.N,Net-(D3-Pad1)*%
X185250000Y-61950000D02*
X185650000Y-62350000D01*
X184200000Y-61950000D02*
X185250000Y-61950000D01*
D33*
%TO.N,UART7_RX*%
X138400000Y-113500000D02*
X138350000Y-113500000D01*
X140600000Y-108800000D02*
X139250000Y-110150000D01*
X139250000Y-112600000D02*
X137100000Y-114750000D01*
X139250000Y-110150000D02*
X139250000Y-112600000D01*
%TO.N,UART7_TX*%
X143350000Y-112200000D02*
X140450000Y-115100000D01*
X143350000Y-109600000D02*
X143350000Y-112200000D01*
%TO.N,Net-(J7-PadS1)*%
X175020000Y-61880000D02*
X175020000Y-57700000D01*
X175457500Y-61880000D02*
X177487500Y-59850000D01*
X175020000Y-61880000D02*
X175457500Y-61880000D01*
X177170000Y-59850000D02*
X175020000Y-57700000D01*
X177487500Y-59850000D02*
X177170000Y-59850000D01*
X175020000Y-57700000D02*
X166380000Y-57700000D01*
X166380000Y-57700000D02*
X166380000Y-61880000D01*
D35*
%TO.N,D+*%
X157000000Y-67350000D02*
X157324999Y-67025001D01*
X157324999Y-67025001D02*
X157324999Y-68120001D01*
X159525001Y-68120001D02*
X159525001Y-66900000D01*
X157384999Y-68180001D02*
X159465001Y-68180001D01*
X159465001Y-68180001D02*
X159525001Y-68120001D01*
X159525001Y-66900000D02*
X167396385Y-66900000D01*
X167396385Y-66900000D02*
X170400001Y-63896384D01*
X157324999Y-68120001D02*
X157384999Y-68180001D01*
X170400001Y-62844999D02*
X170450000Y-62795000D01*
X170400001Y-63896384D02*
X170400001Y-62844999D01*
X171450000Y-63750000D02*
X171450000Y-62795000D01*
X171050000Y-64150000D02*
X171450000Y-63750000D01*
X170500000Y-64150000D02*
X171050000Y-64150000D01*
X170400001Y-64050001D02*
X170500000Y-64150000D01*
X170400001Y-63896384D02*
X170400001Y-64050001D01*
D33*
%TO.N,Net-(J7-PadB5)*%
X172450001Y-64437499D02*
X172450001Y-62795000D01*
X171550000Y-65337500D02*
X172450001Y-64437499D01*
D35*
%TO.N,D-*%
X170950000Y-61600000D02*
X170950000Y-62795000D01*
X170700000Y-61350000D02*
X170950000Y-61600000D01*
X170150000Y-61350000D02*
X170700000Y-61350000D01*
X169922840Y-61577160D02*
X170150000Y-61350000D01*
X169922840Y-61989220D02*
X169922840Y-61577160D01*
X167209993Y-66450009D02*
X169950010Y-63709992D01*
X169950010Y-63709992D02*
X169950010Y-62016390D01*
X159338609Y-66450009D02*
X167209993Y-66450009D01*
X159075010Y-66713608D02*
X159338609Y-66450009D01*
X159075010Y-67350000D02*
X159075010Y-66713608D01*
X169950010Y-62016390D02*
X169922840Y-61989220D01*
X158900000Y-67350000D02*
X159075010Y-67350000D01*
%TO.N,Net-(J7-PadA5)*%
X169450000Y-62795000D02*
X169450000Y-63644304D01*
X168797152Y-64297152D02*
X168694304Y-64400000D01*
X169450000Y-63644304D02*
X168797152Y-64297152D01*
X167944304Y-65150000D02*
X168272152Y-64822152D01*
X162462500Y-65150000D02*
X167944304Y-65150000D01*
X168272152Y-64822152D02*
X168797152Y-64297152D01*
X168144304Y-64950000D02*
X168272152Y-64822152D01*
%TO.N,+5VD*%
X168250000Y-62079998D02*
X168250000Y-62795000D01*
X169380008Y-60949990D02*
X168250000Y-62079998D01*
X172019992Y-60949990D02*
X169380008Y-60949990D01*
X173150000Y-62079998D02*
X172019992Y-60949990D01*
X173150000Y-62795000D02*
X173150000Y-62079998D01*
D32*
X173150000Y-62795000D02*
X173150000Y-65000000D01*
X173150000Y-65000000D02*
X173650000Y-65500000D01*
X177350000Y-65500000D02*
X180900000Y-61950000D01*
X173650000Y-65500000D02*
X177350000Y-65500000D01*
D33*
X156834997Y-68669999D02*
X157619999Y-68669999D01*
X156324999Y-68160001D02*
X156834997Y-68669999D01*
X158765008Y-64099990D02*
X156324999Y-66539999D01*
X167970010Y-64099990D02*
X158765008Y-64099990D01*
X168250000Y-63820000D02*
X167970010Y-64099990D01*
X156324999Y-66539999D02*
X156324999Y-68160001D01*
X168250000Y-62795000D02*
X168250000Y-63820000D01*
X157950000Y-69000000D02*
X157950000Y-69550000D01*
X157619999Y-68669999D02*
X157950000Y-69000000D01*
%TO.N,ADC5*%
X146250000Y-85500000D02*
X148750000Y-83000000D01*
X149699999Y-82050001D02*
X159449999Y-82050001D01*
X148750000Y-83000000D02*
X149699999Y-82050001D01*
X160000000Y-81500000D02*
X161250000Y-81500000D01*
X159449999Y-82050001D02*
X160000000Y-81500000D01*
D34*
%TO.N,ADC6*%
X146304000Y-87884000D02*
X146812000Y-87376000D01*
X146812000Y-87376000D02*
X155956000Y-87376000D01*
D33*
X173750000Y-85500000D02*
X174000000Y-85250000D01*
X155956000Y-87376000D02*
X156124000Y-87376000D01*
X156124000Y-87376000D02*
X157900000Y-85600000D01*
X173650000Y-85600000D02*
X174000000Y-85250000D01*
X157900000Y-85600000D02*
X173650000Y-85600000D01*
%TD*%
M02*
