%TF.GenerationSoftware,KiCad,Pcbnew,(5.1.12)-1*%
%TF.CreationDate,2022-03-21T20:12:08+01:00*%
%TF.ProjectId,TelemetryPrimePCB,54656c65-6d65-4747-9279-5072696d6550,rev?*%
%TF.SameCoordinates,Original*%
%TF.FileFunction,Paste,Top*%
%TF.FilePolarity,Positive*%
%FSLAX46Y46*%
G04 Gerber Fmt 4.6, Leading zero omitted, Abs format (unit mm)*
G04 Created by KiCad (PCBNEW (5.1.12)-1) date 2022-03-21 20:12:08*
%MOMM*%
%LPD*%
G01*
G04 APERTURE LIST*
%ADD10R,1.800000X1.000000*%
%ADD11R,0.600000X1.200000*%
%ADD12R,0.900000X1.200000*%
%ADD13R,1.200000X0.900000*%
%ADD14R,1.200000X1.400000*%
%ADD15R,1.200000X0.600000*%
%ADD16R,0.700000X1.500000*%
%ADD17R,1.000000X0.800000*%
%ADD18R,0.900000X0.800000*%
G04 APERTURE END LIST*
D10*
%TO.C,Y2*%
X124600000Y-86750000D03*
X124600000Y-89250000D03*
%TD*%
D11*
%TO.C,U3*%
X169300000Y-116750000D03*
X170250000Y-116750000D03*
X171200000Y-116750000D03*
X171200000Y-114250000D03*
X170250000Y-114250000D03*
X169300000Y-114250000D03*
%TD*%
%TO.C,R34*%
G36*
G01*
X106200000Y-91650001D02*
X106200000Y-90749999D01*
G75*
G02*
X106449999Y-90500000I249999J0D01*
G01*
X106975001Y-90500000D01*
G75*
G02*
X107225000Y-90749999I0J-249999D01*
G01*
X107225000Y-91650001D01*
G75*
G02*
X106975001Y-91900000I-249999J0D01*
G01*
X106449999Y-91900000D01*
G75*
G02*
X106200000Y-91650001I0J249999D01*
G01*
G37*
G36*
G01*
X104375000Y-91650001D02*
X104375000Y-90749999D01*
G75*
G02*
X104624999Y-90500000I249999J0D01*
G01*
X105150001Y-90500000D01*
G75*
G02*
X105400000Y-90749999I0J-249999D01*
G01*
X105400000Y-91650001D01*
G75*
G02*
X105150001Y-91900000I-249999J0D01*
G01*
X104624999Y-91900000D01*
G75*
G02*
X104375000Y-91650001I0J249999D01*
G01*
G37*
%TD*%
%TO.C,R33*%
G36*
G01*
X174075000Y-113650001D02*
X174075000Y-112749999D01*
G75*
G02*
X174324999Y-112500000I249999J0D01*
G01*
X174850001Y-112500000D01*
G75*
G02*
X175100000Y-112749999I0J-249999D01*
G01*
X175100000Y-113650001D01*
G75*
G02*
X174850001Y-113900000I-249999J0D01*
G01*
X174324999Y-113900000D01*
G75*
G02*
X174075000Y-113650001I0J249999D01*
G01*
G37*
G36*
G01*
X175900000Y-113650001D02*
X175900000Y-112749999D01*
G75*
G02*
X176149999Y-112500000I249999J0D01*
G01*
X176675001Y-112500000D01*
G75*
G02*
X176925000Y-112749999I0J-249999D01*
G01*
X176925000Y-113650001D01*
G75*
G02*
X176675001Y-113900000I-249999J0D01*
G01*
X176149999Y-113900000D01*
G75*
G02*
X175900000Y-113650001I0J249999D01*
G01*
G37*
%TD*%
%TO.C,R32*%
G36*
G01*
X181250001Y-117250000D02*
X180349999Y-117250000D01*
G75*
G02*
X180100000Y-117000001I0J249999D01*
G01*
X180100000Y-116474999D01*
G75*
G02*
X180349999Y-116225000I249999J0D01*
G01*
X181250001Y-116225000D01*
G75*
G02*
X181500000Y-116474999I0J-249999D01*
G01*
X181500000Y-117000001D01*
G75*
G02*
X181250001Y-117250000I-249999J0D01*
G01*
G37*
G36*
G01*
X181250001Y-119075000D02*
X180349999Y-119075000D01*
G75*
G02*
X180100000Y-118825001I0J249999D01*
G01*
X180100000Y-118299999D01*
G75*
G02*
X180349999Y-118050000I249999J0D01*
G01*
X181250001Y-118050000D01*
G75*
G02*
X181500000Y-118299999I0J-249999D01*
G01*
X181500000Y-118825001D01*
G75*
G02*
X181250001Y-119075000I-249999J0D01*
G01*
G37*
%TD*%
%TO.C,R31*%
G36*
G01*
X177399999Y-116225000D02*
X178300001Y-116225000D01*
G75*
G02*
X178550000Y-116474999I0J-249999D01*
G01*
X178550000Y-117000001D01*
G75*
G02*
X178300001Y-117250000I-249999J0D01*
G01*
X177399999Y-117250000D01*
G75*
G02*
X177150000Y-117000001I0J249999D01*
G01*
X177150000Y-116474999D01*
G75*
G02*
X177399999Y-116225000I249999J0D01*
G01*
G37*
G36*
G01*
X177399999Y-118050000D02*
X178300001Y-118050000D01*
G75*
G02*
X178550000Y-118299999I0J-249999D01*
G01*
X178550000Y-118825001D01*
G75*
G02*
X178300001Y-119075000I-249999J0D01*
G01*
X177399999Y-119075000D01*
G75*
G02*
X177150000Y-118825001I0J249999D01*
G01*
X177150000Y-118299999D01*
G75*
G02*
X177399999Y-118050000I249999J0D01*
G01*
G37*
%TD*%
%TO.C,R30*%
G36*
G01*
X174950001Y-117250000D02*
X174049999Y-117250000D01*
G75*
G02*
X173800000Y-117000001I0J249999D01*
G01*
X173800000Y-116474999D01*
G75*
G02*
X174049999Y-116225000I249999J0D01*
G01*
X174950001Y-116225000D01*
G75*
G02*
X175200000Y-116474999I0J-249999D01*
G01*
X175200000Y-117000001D01*
G75*
G02*
X174950001Y-117250000I-249999J0D01*
G01*
G37*
G36*
G01*
X174950001Y-119075000D02*
X174049999Y-119075000D01*
G75*
G02*
X173800000Y-118825001I0J249999D01*
G01*
X173800000Y-118299999D01*
G75*
G02*
X174049999Y-118050000I249999J0D01*
G01*
X174950001Y-118050000D01*
G75*
G02*
X175200000Y-118299999I0J-249999D01*
G01*
X175200000Y-118825001D01*
G75*
G02*
X174950001Y-119075000I-249999J0D01*
G01*
G37*
%TD*%
%TO.C,L2*%
G36*
G01*
X161725000Y-115175000D02*
X163875000Y-115175000D01*
G75*
G02*
X164125000Y-115425000I0J-250000D01*
G01*
X164125000Y-116175000D01*
G75*
G02*
X163875000Y-116425000I-250000J0D01*
G01*
X161725000Y-116425000D01*
G75*
G02*
X161475000Y-116175000I0J250000D01*
G01*
X161475000Y-115425000D01*
G75*
G02*
X161725000Y-115175000I250000J0D01*
G01*
G37*
G36*
G01*
X161725000Y-117975000D02*
X163875000Y-117975000D01*
G75*
G02*
X164125000Y-118225000I0J-250000D01*
G01*
X164125000Y-118975000D01*
G75*
G02*
X163875000Y-119225000I-250000J0D01*
G01*
X161725000Y-119225000D01*
G75*
G02*
X161475000Y-118975000I0J250000D01*
G01*
X161475000Y-118225000D01*
G75*
G02*
X161725000Y-117975000I250000J0D01*
G01*
G37*
%TD*%
%TO.C,D4*%
G36*
G01*
X105450000Y-88925000D02*
X104650000Y-88925000D01*
G75*
G02*
X104400000Y-88675000I0J250000D01*
G01*
X104400000Y-87850000D01*
G75*
G02*
X104650000Y-87600000I250000J0D01*
G01*
X105450000Y-87600000D01*
G75*
G02*
X105700000Y-87850000I0J-250000D01*
G01*
X105700000Y-88675000D01*
G75*
G02*
X105450000Y-88925000I-250000J0D01*
G01*
G37*
G36*
G01*
X105450000Y-87000000D02*
X104650000Y-87000000D01*
G75*
G02*
X104400000Y-86750000I0J250000D01*
G01*
X104400000Y-85925000D01*
G75*
G02*
X104650000Y-85675000I250000J0D01*
G01*
X105450000Y-85675000D01*
G75*
G02*
X105700000Y-85925000I0J-250000D01*
G01*
X105700000Y-86750000D01*
G75*
G02*
X105450000Y-87000000I-250000J0D01*
G01*
G37*
%TD*%
D12*
%TO.C,D3*%
X163400000Y-56750000D03*
X160100000Y-56750000D03*
%TD*%
D13*
%TO.C,D2*%
X158500000Y-119100000D03*
X158500000Y-115800000D03*
%TD*%
%TO.C,C30*%
G36*
G01*
X171175000Y-119750000D02*
X170225000Y-119750000D01*
G75*
G02*
X169975000Y-119500000I0J250000D01*
G01*
X169975000Y-119000000D01*
G75*
G02*
X170225000Y-118750000I250000J0D01*
G01*
X171175000Y-118750000D01*
G75*
G02*
X171425000Y-119000000I0J-250000D01*
G01*
X171425000Y-119500000D01*
G75*
G02*
X171175000Y-119750000I-250000J0D01*
G01*
G37*
G36*
G01*
X171175000Y-121650000D02*
X170225000Y-121650000D01*
G75*
G02*
X169975000Y-121400000I0J250000D01*
G01*
X169975000Y-120900000D01*
G75*
G02*
X170225000Y-120650000I250000J0D01*
G01*
X171175000Y-120650000D01*
G75*
G02*
X171425000Y-120900000I0J-250000D01*
G01*
X171425000Y-121400000D01*
G75*
G02*
X171175000Y-121650000I-250000J0D01*
G01*
G37*
%TD*%
%TO.C,C29*%
G36*
G01*
X168175000Y-121650000D02*
X167225000Y-121650000D01*
G75*
G02*
X166975000Y-121400000I0J250000D01*
G01*
X166975000Y-120900000D01*
G75*
G02*
X167225000Y-120650000I250000J0D01*
G01*
X168175000Y-120650000D01*
G75*
G02*
X168425000Y-120900000I0J-250000D01*
G01*
X168425000Y-121400000D01*
G75*
G02*
X168175000Y-121650000I-250000J0D01*
G01*
G37*
G36*
G01*
X168175000Y-119750000D02*
X167225000Y-119750000D01*
G75*
G02*
X166975000Y-119500000I0J250000D01*
G01*
X166975000Y-119000000D01*
G75*
G02*
X167225000Y-118750000I250000J0D01*
G01*
X168175000Y-118750000D01*
G75*
G02*
X168425000Y-119000000I0J-250000D01*
G01*
X168425000Y-119500000D01*
G75*
G02*
X168175000Y-119750000I-250000J0D01*
G01*
G37*
%TD*%
%TO.C,C28*%
G36*
G01*
X166275000Y-115700000D02*
X167225000Y-115700000D01*
G75*
G02*
X167475000Y-115950000I0J-250000D01*
G01*
X167475000Y-116450000D01*
G75*
G02*
X167225000Y-116700000I-250000J0D01*
G01*
X166275000Y-116700000D01*
G75*
G02*
X166025000Y-116450000I0J250000D01*
G01*
X166025000Y-115950000D01*
G75*
G02*
X166275000Y-115700000I250000J0D01*
G01*
G37*
G36*
G01*
X166275000Y-113800000D02*
X167225000Y-113800000D01*
G75*
G02*
X167475000Y-114050000I0J-250000D01*
G01*
X167475000Y-114550000D01*
G75*
G02*
X167225000Y-114800000I-250000J0D01*
G01*
X166275000Y-114800000D01*
G75*
G02*
X166025000Y-114550000I0J250000D01*
G01*
X166025000Y-114050000D01*
G75*
G02*
X166275000Y-113800000I250000J0D01*
G01*
G37*
%TD*%
%TO.C,C27*%
G36*
G01*
X122250000Y-88625000D02*
X122250000Y-89575000D01*
G75*
G02*
X122000000Y-89825000I-250000J0D01*
G01*
X121500000Y-89825000D01*
G75*
G02*
X121250000Y-89575000I0J250000D01*
G01*
X121250000Y-88625000D01*
G75*
G02*
X121500000Y-88375000I250000J0D01*
G01*
X122000000Y-88375000D01*
G75*
G02*
X122250000Y-88625000I0J-250000D01*
G01*
G37*
G36*
G01*
X120350000Y-88625000D02*
X120350000Y-89575000D01*
G75*
G02*
X120100000Y-89825000I-250000J0D01*
G01*
X119600000Y-89825000D01*
G75*
G02*
X119350000Y-89575000I0J250000D01*
G01*
X119350000Y-88625000D01*
G75*
G02*
X119600000Y-88375000I250000J0D01*
G01*
X120100000Y-88375000D01*
G75*
G02*
X120350000Y-88625000I0J-250000D01*
G01*
G37*
%TD*%
%TO.C,C26*%
G36*
G01*
X120450000Y-86225000D02*
X120450000Y-87175000D01*
G75*
G02*
X120200000Y-87425000I-250000J0D01*
G01*
X119700000Y-87425000D01*
G75*
G02*
X119450000Y-87175000I0J250000D01*
G01*
X119450000Y-86225000D01*
G75*
G02*
X119700000Y-85975000I250000J0D01*
G01*
X120200000Y-85975000D01*
G75*
G02*
X120450000Y-86225000I0J-250000D01*
G01*
G37*
G36*
G01*
X122350000Y-86225000D02*
X122350000Y-87175000D01*
G75*
G02*
X122100000Y-87425000I-250000J0D01*
G01*
X121600000Y-87425000D01*
G75*
G02*
X121350000Y-87175000I0J250000D01*
G01*
X121350000Y-86225000D01*
G75*
G02*
X121600000Y-85975000I250000J0D01*
G01*
X122100000Y-85975000D01*
G75*
G02*
X122350000Y-86225000I0J-250000D01*
G01*
G37*
%TD*%
%TO.C,R28*%
G36*
G01*
X122425000Y-101150001D02*
X122425000Y-100249999D01*
G75*
G02*
X122674999Y-100000000I249999J0D01*
G01*
X123200001Y-100000000D01*
G75*
G02*
X123450000Y-100249999I0J-249999D01*
G01*
X123450000Y-101150001D01*
G75*
G02*
X123200001Y-101400000I-249999J0D01*
G01*
X122674999Y-101400000D01*
G75*
G02*
X122425000Y-101150001I0J249999D01*
G01*
G37*
G36*
G01*
X124250000Y-101150001D02*
X124250000Y-100249999D01*
G75*
G02*
X124499999Y-100000000I249999J0D01*
G01*
X125025001Y-100000000D01*
G75*
G02*
X125275000Y-100249999I0J-249999D01*
G01*
X125275000Y-101150001D01*
G75*
G02*
X125025001Y-101400000I-249999J0D01*
G01*
X124499999Y-101400000D01*
G75*
G02*
X124250000Y-101150001I0J249999D01*
G01*
G37*
%TD*%
%TO.C,R22*%
G36*
G01*
X110799999Y-86300000D02*
X111700001Y-86300000D01*
G75*
G02*
X111950000Y-86549999I0J-249999D01*
G01*
X111950000Y-87075001D01*
G75*
G02*
X111700001Y-87325000I-249999J0D01*
G01*
X110799999Y-87325000D01*
G75*
G02*
X110550000Y-87075001I0J249999D01*
G01*
X110550000Y-86549999D01*
G75*
G02*
X110799999Y-86300000I249999J0D01*
G01*
G37*
G36*
G01*
X110799999Y-84475000D02*
X111700001Y-84475000D01*
G75*
G02*
X111950000Y-84724999I0J-249999D01*
G01*
X111950000Y-85250001D01*
G75*
G02*
X111700001Y-85500000I-249999J0D01*
G01*
X110799999Y-85500000D01*
G75*
G02*
X110550000Y-85250001I0J249999D01*
G01*
X110550000Y-84724999D01*
G75*
G02*
X110799999Y-84475000I249999J0D01*
G01*
G37*
%TD*%
%TO.C,R21*%
G36*
G01*
X110149999Y-88975000D02*
X111050001Y-88975000D01*
G75*
G02*
X111300000Y-89224999I0J-249999D01*
G01*
X111300000Y-89750001D01*
G75*
G02*
X111050001Y-90000000I-249999J0D01*
G01*
X110149999Y-90000000D01*
G75*
G02*
X109900000Y-89750001I0J249999D01*
G01*
X109900000Y-89224999D01*
G75*
G02*
X110149999Y-88975000I249999J0D01*
G01*
G37*
G36*
G01*
X110149999Y-90800000D02*
X111050001Y-90800000D01*
G75*
G02*
X111300000Y-91049999I0J-249999D01*
G01*
X111300000Y-91575001D01*
G75*
G02*
X111050001Y-91825000I-249999J0D01*
G01*
X110149999Y-91825000D01*
G75*
G02*
X109900000Y-91575001I0J249999D01*
G01*
X109900000Y-91049999D01*
G75*
G02*
X110149999Y-90800000I249999J0D01*
G01*
G37*
%TD*%
%TO.C,R19*%
G36*
G01*
X161899999Y-82275000D02*
X162800001Y-82275000D01*
G75*
G02*
X163050000Y-82524999I0J-249999D01*
G01*
X163050000Y-83050001D01*
G75*
G02*
X162800001Y-83300000I-249999J0D01*
G01*
X161899999Y-83300000D01*
G75*
G02*
X161650000Y-83050001I0J249999D01*
G01*
X161650000Y-82524999D01*
G75*
G02*
X161899999Y-82275000I249999J0D01*
G01*
G37*
G36*
G01*
X161899999Y-84100000D02*
X162800001Y-84100000D01*
G75*
G02*
X163050000Y-84349999I0J-249999D01*
G01*
X163050000Y-84875001D01*
G75*
G02*
X162800001Y-85125000I-249999J0D01*
G01*
X161899999Y-85125000D01*
G75*
G02*
X161650000Y-84875001I0J249999D01*
G01*
X161650000Y-84349999D01*
G75*
G02*
X161899999Y-84100000I249999J0D01*
G01*
G37*
%TD*%
%TO.C,R18*%
G36*
G01*
X140950001Y-110900000D02*
X140049999Y-110900000D01*
G75*
G02*
X139800000Y-110650001I0J249999D01*
G01*
X139800000Y-110124999D01*
G75*
G02*
X140049999Y-109875000I249999J0D01*
G01*
X140950001Y-109875000D01*
G75*
G02*
X141200000Y-110124999I0J-249999D01*
G01*
X141200000Y-110650001D01*
G75*
G02*
X140950001Y-110900000I-249999J0D01*
G01*
G37*
G36*
G01*
X140950001Y-112725000D02*
X140049999Y-112725000D01*
G75*
G02*
X139800000Y-112475001I0J249999D01*
G01*
X139800000Y-111949999D01*
G75*
G02*
X140049999Y-111700000I249999J0D01*
G01*
X140950001Y-111700000D01*
G75*
G02*
X141200000Y-111949999I0J-249999D01*
G01*
X141200000Y-112475001D01*
G75*
G02*
X140950001Y-112725000I-249999J0D01*
G01*
G37*
%TD*%
%TO.C,R17*%
G36*
G01*
X138712500Y-109549999D02*
X138712500Y-110450001D01*
G75*
G02*
X138462501Y-110700000I-249999J0D01*
G01*
X137937499Y-110700000D01*
G75*
G02*
X137687500Y-110450001I0J249999D01*
G01*
X137687500Y-109549999D01*
G75*
G02*
X137937499Y-109300000I249999J0D01*
G01*
X138462501Y-109300000D01*
G75*
G02*
X138712500Y-109549999I0J-249999D01*
G01*
G37*
G36*
G01*
X136887500Y-109549999D02*
X136887500Y-110450001D01*
G75*
G02*
X136637501Y-110700000I-249999J0D01*
G01*
X136112499Y-110700000D01*
G75*
G02*
X135862500Y-110450001I0J249999D01*
G01*
X135862500Y-109549999D01*
G75*
G02*
X136112499Y-109300000I249999J0D01*
G01*
X136637501Y-109300000D01*
G75*
G02*
X136887500Y-109549999I0J-249999D01*
G01*
G37*
%TD*%
%TO.C,R16*%
G36*
G01*
X136000000Y-66850001D02*
X136000000Y-65949999D01*
G75*
G02*
X136249999Y-65700000I249999J0D01*
G01*
X136775001Y-65700000D01*
G75*
G02*
X137025000Y-65949999I0J-249999D01*
G01*
X137025000Y-66850001D01*
G75*
G02*
X136775001Y-67100000I-249999J0D01*
G01*
X136249999Y-67100000D01*
G75*
G02*
X136000000Y-66850001I0J249999D01*
G01*
G37*
G36*
G01*
X134175000Y-66850001D02*
X134175000Y-65949999D01*
G75*
G02*
X134424999Y-65700000I249999J0D01*
G01*
X134950001Y-65700000D01*
G75*
G02*
X135200000Y-65949999I0J-249999D01*
G01*
X135200000Y-66850001D01*
G75*
G02*
X134950001Y-67100000I-249999J0D01*
G01*
X134424999Y-67100000D01*
G75*
G02*
X134175000Y-66850001I0J249999D01*
G01*
G37*
%TD*%
%TO.C,R15*%
G36*
G01*
X138525000Y-69349999D02*
X138525000Y-70250001D01*
G75*
G02*
X138275001Y-70500000I-249999J0D01*
G01*
X137749999Y-70500000D01*
G75*
G02*
X137500000Y-70250001I0J249999D01*
G01*
X137500000Y-69349999D01*
G75*
G02*
X137749999Y-69100000I249999J0D01*
G01*
X138275001Y-69100000D01*
G75*
G02*
X138525000Y-69349999I0J-249999D01*
G01*
G37*
G36*
G01*
X136700000Y-69349999D02*
X136700000Y-70250001D01*
G75*
G02*
X136450001Y-70500000I-249999J0D01*
G01*
X135924999Y-70500000D01*
G75*
G02*
X135675000Y-70250001I0J249999D01*
G01*
X135675000Y-69349999D01*
G75*
G02*
X135924999Y-69100000I249999J0D01*
G01*
X136450001Y-69100000D01*
G75*
G02*
X136700000Y-69349999I0J-249999D01*
G01*
G37*
%TD*%
%TO.C,R14*%
G36*
G01*
X156350000Y-111399999D02*
X156350000Y-112300001D01*
G75*
G02*
X156100001Y-112550000I-249999J0D01*
G01*
X155574999Y-112550000D01*
G75*
G02*
X155325000Y-112300001I0J249999D01*
G01*
X155325000Y-111399999D01*
G75*
G02*
X155574999Y-111150000I249999J0D01*
G01*
X156100001Y-111150000D01*
G75*
G02*
X156350000Y-111399999I0J-249999D01*
G01*
G37*
G36*
G01*
X158175000Y-111399999D02*
X158175000Y-112300001D01*
G75*
G02*
X157925001Y-112550000I-249999J0D01*
G01*
X157399999Y-112550000D01*
G75*
G02*
X157150000Y-112300001I0J249999D01*
G01*
X157150000Y-111399999D01*
G75*
G02*
X157399999Y-111150000I249999J0D01*
G01*
X157925001Y-111150000D01*
G75*
G02*
X158175000Y-111399999I0J-249999D01*
G01*
G37*
%TD*%
%TO.C,R13*%
G36*
G01*
X161925000Y-111399999D02*
X161925000Y-112300001D01*
G75*
G02*
X161675001Y-112550000I-249999J0D01*
G01*
X161149999Y-112550000D01*
G75*
G02*
X160900000Y-112300001I0J249999D01*
G01*
X160900000Y-111399999D01*
G75*
G02*
X161149999Y-111150000I249999J0D01*
G01*
X161675001Y-111150000D01*
G75*
G02*
X161925000Y-111399999I0J-249999D01*
G01*
G37*
G36*
G01*
X160100000Y-111399999D02*
X160100000Y-112300001D01*
G75*
G02*
X159850001Y-112550000I-249999J0D01*
G01*
X159324999Y-112550000D01*
G75*
G02*
X159075000Y-112300001I0J249999D01*
G01*
X159075000Y-111399999D01*
G75*
G02*
X159324999Y-111150000I249999J0D01*
G01*
X159850001Y-111150000D01*
G75*
G02*
X160100000Y-111399999I0J-249999D01*
G01*
G37*
%TD*%
%TO.C,R12*%
G36*
G01*
X164549999Y-110900000D02*
X165450001Y-110900000D01*
G75*
G02*
X165700000Y-111149999I0J-249999D01*
G01*
X165700000Y-111675001D01*
G75*
G02*
X165450001Y-111925000I-249999J0D01*
G01*
X164549999Y-111925000D01*
G75*
G02*
X164300000Y-111675001I0J249999D01*
G01*
X164300000Y-111149999D01*
G75*
G02*
X164549999Y-110900000I249999J0D01*
G01*
G37*
G36*
G01*
X164549999Y-109075000D02*
X165450001Y-109075000D01*
G75*
G02*
X165700000Y-109324999I0J-249999D01*
G01*
X165700000Y-109850001D01*
G75*
G02*
X165450001Y-110100000I-249999J0D01*
G01*
X164549999Y-110100000D01*
G75*
G02*
X164300000Y-109850001I0J249999D01*
G01*
X164300000Y-109324999D01*
G75*
G02*
X164549999Y-109075000I249999J0D01*
G01*
G37*
%TD*%
%TO.C,R11*%
G36*
G01*
X174299999Y-108575000D02*
X175200001Y-108575000D01*
G75*
G02*
X175450000Y-108824999I0J-249999D01*
G01*
X175450000Y-109350001D01*
G75*
G02*
X175200001Y-109600000I-249999J0D01*
G01*
X174299999Y-109600000D01*
G75*
G02*
X174050000Y-109350001I0J249999D01*
G01*
X174050000Y-108824999D01*
G75*
G02*
X174299999Y-108575000I249999J0D01*
G01*
G37*
G36*
G01*
X174299999Y-110400000D02*
X175200001Y-110400000D01*
G75*
G02*
X175450000Y-110649999I0J-249999D01*
G01*
X175450000Y-111175001D01*
G75*
G02*
X175200001Y-111425000I-249999J0D01*
G01*
X174299999Y-111425000D01*
G75*
G02*
X174050000Y-111175001I0J249999D01*
G01*
X174050000Y-110649999D01*
G75*
G02*
X174299999Y-110400000I249999J0D01*
G01*
G37*
%TD*%
%TO.C,R10*%
G36*
G01*
X171299999Y-94325000D02*
X172200001Y-94325000D01*
G75*
G02*
X172450000Y-94574999I0J-249999D01*
G01*
X172450000Y-95100001D01*
G75*
G02*
X172200001Y-95350000I-249999J0D01*
G01*
X171299999Y-95350000D01*
G75*
G02*
X171050000Y-95100001I0J249999D01*
G01*
X171050000Y-94574999D01*
G75*
G02*
X171299999Y-94325000I249999J0D01*
G01*
G37*
G36*
G01*
X171299999Y-96150000D02*
X172200001Y-96150000D01*
G75*
G02*
X172450000Y-96399999I0J-249999D01*
G01*
X172450000Y-96925001D01*
G75*
G02*
X172200001Y-97175000I-249999J0D01*
G01*
X171299999Y-97175000D01*
G75*
G02*
X171050000Y-96925001I0J249999D01*
G01*
X171050000Y-96399999D01*
G75*
G02*
X171299999Y-96150000I249999J0D01*
G01*
G37*
%TD*%
%TO.C,R9*%
G36*
G01*
X171349999Y-74275000D02*
X172250001Y-74275000D01*
G75*
G02*
X172500000Y-74524999I0J-249999D01*
G01*
X172500000Y-75050001D01*
G75*
G02*
X172250001Y-75300000I-249999J0D01*
G01*
X171349999Y-75300000D01*
G75*
G02*
X171100000Y-75050001I0J249999D01*
G01*
X171100000Y-74524999D01*
G75*
G02*
X171349999Y-74275000I249999J0D01*
G01*
G37*
G36*
G01*
X171349999Y-76100000D02*
X172250001Y-76100000D01*
G75*
G02*
X172500000Y-76349999I0J-249999D01*
G01*
X172500000Y-76875001D01*
G75*
G02*
X172250001Y-77125000I-249999J0D01*
G01*
X171349999Y-77125000D01*
G75*
G02*
X171100000Y-76875001I0J249999D01*
G01*
X171100000Y-76349999D01*
G75*
G02*
X171349999Y-76100000I249999J0D01*
G01*
G37*
%TD*%
%TO.C,R8*%
G36*
G01*
X155349999Y-99150000D02*
X156250001Y-99150000D01*
G75*
G02*
X156500000Y-99399999I0J-249999D01*
G01*
X156500000Y-99925001D01*
G75*
G02*
X156250001Y-100175000I-249999J0D01*
G01*
X155349999Y-100175000D01*
G75*
G02*
X155100000Y-99925001I0J249999D01*
G01*
X155100000Y-99399999D01*
G75*
G02*
X155349999Y-99150000I249999J0D01*
G01*
G37*
G36*
G01*
X155349999Y-97325000D02*
X156250001Y-97325000D01*
G75*
G02*
X156500000Y-97574999I0J-249999D01*
G01*
X156500000Y-98100001D01*
G75*
G02*
X156250001Y-98350000I-249999J0D01*
G01*
X155349999Y-98350000D01*
G75*
G02*
X155100000Y-98100001I0J249999D01*
G01*
X155100000Y-97574999D01*
G75*
G02*
X155349999Y-97325000I249999J0D01*
G01*
G37*
%TD*%
%TO.C,R7*%
G36*
G01*
X156250001Y-95925000D02*
X155349999Y-95925000D01*
G75*
G02*
X155100000Y-95675001I0J249999D01*
G01*
X155100000Y-95149999D01*
G75*
G02*
X155349999Y-94900000I249999J0D01*
G01*
X156250001Y-94900000D01*
G75*
G02*
X156500000Y-95149999I0J-249999D01*
G01*
X156500000Y-95675001D01*
G75*
G02*
X156250001Y-95925000I-249999J0D01*
G01*
G37*
G36*
G01*
X156250001Y-94100000D02*
X155349999Y-94100000D01*
G75*
G02*
X155100000Y-93850001I0J249999D01*
G01*
X155100000Y-93324999D01*
G75*
G02*
X155349999Y-93075000I249999J0D01*
G01*
X156250001Y-93075000D01*
G75*
G02*
X156500000Y-93324999I0J-249999D01*
G01*
X156500000Y-93850001D01*
G75*
G02*
X156250001Y-94100000I-249999J0D01*
G01*
G37*
%TD*%
%TO.C,R6*%
G36*
G01*
X131025000Y-111699999D02*
X131025000Y-112600001D01*
G75*
G02*
X130775001Y-112850000I-249999J0D01*
G01*
X130249999Y-112850000D01*
G75*
G02*
X130000000Y-112600001I0J249999D01*
G01*
X130000000Y-111699999D01*
G75*
G02*
X130249999Y-111450000I249999J0D01*
G01*
X130775001Y-111450000D01*
G75*
G02*
X131025000Y-111699999I0J-249999D01*
G01*
G37*
G36*
G01*
X129200000Y-111699999D02*
X129200000Y-112600001D01*
G75*
G02*
X128950001Y-112850000I-249999J0D01*
G01*
X128424999Y-112850000D01*
G75*
G02*
X128175000Y-112600001I0J249999D01*
G01*
X128175000Y-111699999D01*
G75*
G02*
X128424999Y-111450000I249999J0D01*
G01*
X128950001Y-111450000D01*
G75*
G02*
X129200000Y-111699999I0J-249999D01*
G01*
G37*
%TD*%
%TO.C,R5*%
G36*
G01*
X135225000Y-111699999D02*
X135225000Y-112600001D01*
G75*
G02*
X134975001Y-112850000I-249999J0D01*
G01*
X134449999Y-112850000D01*
G75*
G02*
X134200000Y-112600001I0J249999D01*
G01*
X134200000Y-111699999D01*
G75*
G02*
X134449999Y-111450000I249999J0D01*
G01*
X134975001Y-111450000D01*
G75*
G02*
X135225000Y-111699999I0J-249999D01*
G01*
G37*
G36*
G01*
X133400000Y-111699999D02*
X133400000Y-112600001D01*
G75*
G02*
X133150001Y-112850000I-249999J0D01*
G01*
X132624999Y-112850000D01*
G75*
G02*
X132375000Y-112600001I0J249999D01*
G01*
X132375000Y-111699999D01*
G75*
G02*
X132624999Y-111450000I249999J0D01*
G01*
X133150001Y-111450000D01*
G75*
G02*
X133400000Y-111699999I0J-249999D01*
G01*
G37*
%TD*%
%TO.C,R4*%
G36*
G01*
X125825000Y-95749999D02*
X125825000Y-96650001D01*
G75*
G02*
X125575001Y-96900000I-249999J0D01*
G01*
X125049999Y-96900000D01*
G75*
G02*
X124800000Y-96650001I0J249999D01*
G01*
X124800000Y-95749999D01*
G75*
G02*
X125049999Y-95500000I249999J0D01*
G01*
X125575001Y-95500000D01*
G75*
G02*
X125825000Y-95749999I0J-249999D01*
G01*
G37*
G36*
G01*
X124000000Y-95749999D02*
X124000000Y-96650001D01*
G75*
G02*
X123750001Y-96900000I-249999J0D01*
G01*
X123224999Y-96900000D01*
G75*
G02*
X122975000Y-96650001I0J249999D01*
G01*
X122975000Y-95749999D01*
G75*
G02*
X123224999Y-95500000I249999J0D01*
G01*
X123750001Y-95500000D01*
G75*
G02*
X124000000Y-95749999I0J-249999D01*
G01*
G37*
%TD*%
%TO.C,R3*%
G36*
G01*
X130249999Y-75100000D02*
X131150001Y-75100000D01*
G75*
G02*
X131400000Y-75349999I0J-249999D01*
G01*
X131400000Y-75875001D01*
G75*
G02*
X131150001Y-76125000I-249999J0D01*
G01*
X130249999Y-76125000D01*
G75*
G02*
X130000000Y-75875001I0J249999D01*
G01*
X130000000Y-75349999D01*
G75*
G02*
X130249999Y-75100000I249999J0D01*
G01*
G37*
G36*
G01*
X130249999Y-73275000D02*
X131150001Y-73275000D01*
G75*
G02*
X131400000Y-73524999I0J-249999D01*
G01*
X131400000Y-74050001D01*
G75*
G02*
X131150001Y-74300000I-249999J0D01*
G01*
X130249999Y-74300000D01*
G75*
G02*
X130000000Y-74050001I0J249999D01*
G01*
X130000000Y-73524999D01*
G75*
G02*
X130249999Y-73275000I249999J0D01*
G01*
G37*
%TD*%
%TO.C,R2*%
G36*
G01*
X125375000Y-76050001D02*
X125375000Y-75149999D01*
G75*
G02*
X125624999Y-74900000I249999J0D01*
G01*
X126150001Y-74900000D01*
G75*
G02*
X126400000Y-75149999I0J-249999D01*
G01*
X126400000Y-76050001D01*
G75*
G02*
X126150001Y-76300000I-249999J0D01*
G01*
X125624999Y-76300000D01*
G75*
G02*
X125375000Y-76050001I0J249999D01*
G01*
G37*
G36*
G01*
X127200000Y-76050001D02*
X127200000Y-75149999D01*
G75*
G02*
X127449999Y-74900000I249999J0D01*
G01*
X127975001Y-74900000D01*
G75*
G02*
X128225000Y-75149999I0J-249999D01*
G01*
X128225000Y-76050001D01*
G75*
G02*
X127975001Y-76300000I-249999J0D01*
G01*
X127449999Y-76300000D01*
G75*
G02*
X127200000Y-76050001I0J249999D01*
G01*
G37*
%TD*%
%TO.C,R1*%
G36*
G01*
X123400000Y-110399999D02*
X123400000Y-111300001D01*
G75*
G02*
X123150001Y-111550000I-249999J0D01*
G01*
X122624999Y-111550000D01*
G75*
G02*
X122375000Y-111300001I0J249999D01*
G01*
X122375000Y-110399999D01*
G75*
G02*
X122624999Y-110150000I249999J0D01*
G01*
X123150001Y-110150000D01*
G75*
G02*
X123400000Y-110399999I0J-249999D01*
G01*
G37*
G36*
G01*
X125225000Y-110399999D02*
X125225000Y-111300001D01*
G75*
G02*
X124975001Y-111550000I-249999J0D01*
G01*
X124449999Y-111550000D01*
G75*
G02*
X124200000Y-111300001I0J249999D01*
G01*
X124200000Y-110399999D01*
G75*
G02*
X124449999Y-110150000I249999J0D01*
G01*
X124975001Y-110150000D01*
G75*
G02*
X125225000Y-110399999I0J-249999D01*
G01*
G37*
%TD*%
%TO.C,C24*%
G36*
G01*
X156550000Y-109725000D02*
X156550000Y-108775000D01*
G75*
G02*
X156800000Y-108525000I250000J0D01*
G01*
X157300000Y-108525000D01*
G75*
G02*
X157550000Y-108775000I0J-250000D01*
G01*
X157550000Y-109725000D01*
G75*
G02*
X157300000Y-109975000I-250000J0D01*
G01*
X156800000Y-109975000D01*
G75*
G02*
X156550000Y-109725000I0J250000D01*
G01*
G37*
G36*
G01*
X158450000Y-109725000D02*
X158450000Y-108775000D01*
G75*
G02*
X158700000Y-108525000I250000J0D01*
G01*
X159200000Y-108525000D01*
G75*
G02*
X159450000Y-108775000I0J-250000D01*
G01*
X159450000Y-109725000D01*
G75*
G02*
X159200000Y-109975000I-250000J0D01*
G01*
X158700000Y-109975000D01*
G75*
G02*
X158450000Y-109725000I0J250000D01*
G01*
G37*
%TD*%
%TO.C,C23*%
G36*
G01*
X169525000Y-106450000D02*
X170475000Y-106450000D01*
G75*
G02*
X170725000Y-106700000I0J-250000D01*
G01*
X170725000Y-107200000D01*
G75*
G02*
X170475000Y-107450000I-250000J0D01*
G01*
X169525000Y-107450000D01*
G75*
G02*
X169275000Y-107200000I0J250000D01*
G01*
X169275000Y-106700000D01*
G75*
G02*
X169525000Y-106450000I250000J0D01*
G01*
G37*
G36*
G01*
X169525000Y-104550000D02*
X170475000Y-104550000D01*
G75*
G02*
X170725000Y-104800000I0J-250000D01*
G01*
X170725000Y-105300000D01*
G75*
G02*
X170475000Y-105550000I-250000J0D01*
G01*
X169525000Y-105550000D01*
G75*
G02*
X169275000Y-105300000I0J250000D01*
G01*
X169275000Y-104800000D01*
G75*
G02*
X169525000Y-104550000I250000J0D01*
G01*
G37*
%TD*%
%TO.C,C22*%
G36*
G01*
X179550000Y-112275000D02*
X179550000Y-111325000D01*
G75*
G02*
X179800000Y-111075000I250000J0D01*
G01*
X180300000Y-111075000D01*
G75*
G02*
X180550000Y-111325000I0J-250000D01*
G01*
X180550000Y-112275000D01*
G75*
G02*
X180300000Y-112525000I-250000J0D01*
G01*
X179800000Y-112525000D01*
G75*
G02*
X179550000Y-112275000I0J250000D01*
G01*
G37*
G36*
G01*
X177650000Y-112275000D02*
X177650000Y-111325000D01*
G75*
G02*
X177900000Y-111075000I250000J0D01*
G01*
X178400000Y-111075000D01*
G75*
G02*
X178650000Y-111325000I0J-250000D01*
G01*
X178650000Y-112275000D01*
G75*
G02*
X178400000Y-112525000I-250000J0D01*
G01*
X177900000Y-112525000D01*
G75*
G02*
X177650000Y-112275000I0J250000D01*
G01*
G37*
%TD*%
%TO.C,C21*%
G36*
G01*
X153100000Y-85275000D02*
X153100000Y-84325000D01*
G75*
G02*
X153350000Y-84075000I250000J0D01*
G01*
X153850000Y-84075000D01*
G75*
G02*
X154100000Y-84325000I0J-250000D01*
G01*
X154100000Y-85275000D01*
G75*
G02*
X153850000Y-85525000I-250000J0D01*
G01*
X153350000Y-85525000D01*
G75*
G02*
X153100000Y-85275000I0J250000D01*
G01*
G37*
G36*
G01*
X151200000Y-85275000D02*
X151200000Y-84325000D01*
G75*
G02*
X151450000Y-84075000I250000J0D01*
G01*
X151950000Y-84075000D01*
G75*
G02*
X152200000Y-84325000I0J-250000D01*
G01*
X152200000Y-85275000D01*
G75*
G02*
X151950000Y-85525000I-250000J0D01*
G01*
X151450000Y-85525000D01*
G75*
G02*
X151200000Y-85275000I0J250000D01*
G01*
G37*
%TD*%
%TO.C,C20*%
G36*
G01*
X146725000Y-106900000D02*
X147675000Y-106900000D01*
G75*
G02*
X147925000Y-107150000I0J-250000D01*
G01*
X147925000Y-107650000D01*
G75*
G02*
X147675000Y-107900000I-250000J0D01*
G01*
X146725000Y-107900000D01*
G75*
G02*
X146475000Y-107650000I0J250000D01*
G01*
X146475000Y-107150000D01*
G75*
G02*
X146725000Y-106900000I250000J0D01*
G01*
G37*
G36*
G01*
X146725000Y-105000000D02*
X147675000Y-105000000D01*
G75*
G02*
X147925000Y-105250000I0J-250000D01*
G01*
X147925000Y-105750000D01*
G75*
G02*
X147675000Y-106000000I-250000J0D01*
G01*
X146725000Y-106000000D01*
G75*
G02*
X146475000Y-105750000I0J250000D01*
G01*
X146475000Y-105250000D01*
G75*
G02*
X146725000Y-105000000I250000J0D01*
G01*
G37*
%TD*%
%TO.C,C19*%
G36*
G01*
X119550000Y-97825000D02*
X119550000Y-98775000D01*
G75*
G02*
X119300000Y-99025000I-250000J0D01*
G01*
X118800000Y-99025000D01*
G75*
G02*
X118550000Y-98775000I0J250000D01*
G01*
X118550000Y-97825000D01*
G75*
G02*
X118800000Y-97575000I250000J0D01*
G01*
X119300000Y-97575000D01*
G75*
G02*
X119550000Y-97825000I0J-250000D01*
G01*
G37*
G36*
G01*
X121450000Y-97825000D02*
X121450000Y-98775000D01*
G75*
G02*
X121200000Y-99025000I-250000J0D01*
G01*
X120700000Y-99025000D01*
G75*
G02*
X120450000Y-98775000I0J250000D01*
G01*
X120450000Y-97825000D01*
G75*
G02*
X120700000Y-97575000I250000J0D01*
G01*
X121200000Y-97575000D01*
G75*
G02*
X121450000Y-97825000I0J-250000D01*
G01*
G37*
%TD*%
%TO.C,C18*%
G36*
G01*
X120600000Y-92125000D02*
X120600000Y-91175000D01*
G75*
G02*
X120850000Y-90925000I250000J0D01*
G01*
X121350000Y-90925000D01*
G75*
G02*
X121600000Y-91175000I0J-250000D01*
G01*
X121600000Y-92125000D01*
G75*
G02*
X121350000Y-92375000I-250000J0D01*
G01*
X120850000Y-92375000D01*
G75*
G02*
X120600000Y-92125000I0J250000D01*
G01*
G37*
G36*
G01*
X118700000Y-92125000D02*
X118700000Y-91175000D01*
G75*
G02*
X118950000Y-90925000I250000J0D01*
G01*
X119450000Y-90925000D01*
G75*
G02*
X119700000Y-91175000I0J-250000D01*
G01*
X119700000Y-92125000D01*
G75*
G02*
X119450000Y-92375000I-250000J0D01*
G01*
X118950000Y-92375000D01*
G75*
G02*
X118700000Y-92125000I0J250000D01*
G01*
G37*
%TD*%
%TO.C,C16*%
G36*
G01*
X122625000Y-102250000D02*
X123575000Y-102250000D01*
G75*
G02*
X123825000Y-102500000I0J-250000D01*
G01*
X123825000Y-103000000D01*
G75*
G02*
X123575000Y-103250000I-250000J0D01*
G01*
X122625000Y-103250000D01*
G75*
G02*
X122375000Y-103000000I0J250000D01*
G01*
X122375000Y-102500000D01*
G75*
G02*
X122625000Y-102250000I250000J0D01*
G01*
G37*
G36*
G01*
X122625000Y-104150000D02*
X123575000Y-104150000D01*
G75*
G02*
X123825000Y-104400000I0J-250000D01*
G01*
X123825000Y-104900000D01*
G75*
G02*
X123575000Y-105150000I-250000J0D01*
G01*
X122625000Y-105150000D01*
G75*
G02*
X122375000Y-104900000I0J250000D01*
G01*
X122375000Y-104400000D01*
G75*
G02*
X122625000Y-104150000I250000J0D01*
G01*
G37*
%TD*%
%TO.C,C15*%
G36*
G01*
X124925000Y-104150000D02*
X125875000Y-104150000D01*
G75*
G02*
X126125000Y-104400000I0J-250000D01*
G01*
X126125000Y-104900000D01*
G75*
G02*
X125875000Y-105150000I-250000J0D01*
G01*
X124925000Y-105150000D01*
G75*
G02*
X124675000Y-104900000I0J250000D01*
G01*
X124675000Y-104400000D01*
G75*
G02*
X124925000Y-104150000I250000J0D01*
G01*
G37*
G36*
G01*
X124925000Y-102250000D02*
X125875000Y-102250000D01*
G75*
G02*
X126125000Y-102500000I0J-250000D01*
G01*
X126125000Y-103000000D01*
G75*
G02*
X125875000Y-103250000I-250000J0D01*
G01*
X124925000Y-103250000D01*
G75*
G02*
X124675000Y-103000000I0J250000D01*
G01*
X124675000Y-102500000D01*
G75*
G02*
X124925000Y-102250000I250000J0D01*
G01*
G37*
%TD*%
%TO.C,C14*%
G36*
G01*
X150950000Y-91175000D02*
X150950000Y-90225000D01*
G75*
G02*
X151200000Y-89975000I250000J0D01*
G01*
X151700000Y-89975000D01*
G75*
G02*
X151950000Y-90225000I0J-250000D01*
G01*
X151950000Y-91175000D01*
G75*
G02*
X151700000Y-91425000I-250000J0D01*
G01*
X151200000Y-91425000D01*
G75*
G02*
X150950000Y-91175000I0J250000D01*
G01*
G37*
G36*
G01*
X152850000Y-91175000D02*
X152850000Y-90225000D01*
G75*
G02*
X153100000Y-89975000I250000J0D01*
G01*
X153600000Y-89975000D01*
G75*
G02*
X153850000Y-90225000I0J-250000D01*
G01*
X153850000Y-91175000D01*
G75*
G02*
X153600000Y-91425000I-250000J0D01*
G01*
X153100000Y-91425000D01*
G75*
G02*
X152850000Y-91175000I0J250000D01*
G01*
G37*
%TD*%
%TO.C,C13*%
G36*
G01*
X142275000Y-80350000D02*
X141325000Y-80350000D01*
G75*
G02*
X141075000Y-80100000I0J250000D01*
G01*
X141075000Y-79600000D01*
G75*
G02*
X141325000Y-79350000I250000J0D01*
G01*
X142275000Y-79350000D01*
G75*
G02*
X142525000Y-79600000I0J-250000D01*
G01*
X142525000Y-80100000D01*
G75*
G02*
X142275000Y-80350000I-250000J0D01*
G01*
G37*
G36*
G01*
X142275000Y-78450000D02*
X141325000Y-78450000D01*
G75*
G02*
X141075000Y-78200000I0J250000D01*
G01*
X141075000Y-77700000D01*
G75*
G02*
X141325000Y-77450000I250000J0D01*
G01*
X142275000Y-77450000D01*
G75*
G02*
X142525000Y-77700000I0J-250000D01*
G01*
X142525000Y-78200000D01*
G75*
G02*
X142275000Y-78450000I-250000J0D01*
G01*
G37*
%TD*%
%TO.C,C12*%
G36*
G01*
X129475000Y-78550000D02*
X128525000Y-78550000D01*
G75*
G02*
X128275000Y-78300000I0J250000D01*
G01*
X128275000Y-77800000D01*
G75*
G02*
X128525000Y-77550000I250000J0D01*
G01*
X129475000Y-77550000D01*
G75*
G02*
X129725000Y-77800000I0J-250000D01*
G01*
X129725000Y-78300000D01*
G75*
G02*
X129475000Y-78550000I-250000J0D01*
G01*
G37*
G36*
G01*
X129475000Y-80450000D02*
X128525000Y-80450000D01*
G75*
G02*
X128275000Y-80200000I0J250000D01*
G01*
X128275000Y-79700000D01*
G75*
G02*
X128525000Y-79450000I250000J0D01*
G01*
X129475000Y-79450000D01*
G75*
G02*
X129725000Y-79700000I0J-250000D01*
G01*
X129725000Y-80200000D01*
G75*
G02*
X129475000Y-80450000I-250000J0D01*
G01*
G37*
%TD*%
%TO.C,C11*%
G36*
G01*
X136675000Y-80444000D02*
X135725000Y-80444000D01*
G75*
G02*
X135475000Y-80194000I0J250000D01*
G01*
X135475000Y-79694000D01*
G75*
G02*
X135725000Y-79444000I250000J0D01*
G01*
X136675000Y-79444000D01*
G75*
G02*
X136925000Y-79694000I0J-250000D01*
G01*
X136925000Y-80194000D01*
G75*
G02*
X136675000Y-80444000I-250000J0D01*
G01*
G37*
G36*
G01*
X136675000Y-78544000D02*
X135725000Y-78544000D01*
G75*
G02*
X135475000Y-78294000I0J250000D01*
G01*
X135475000Y-77794000D01*
G75*
G02*
X135725000Y-77544000I250000J0D01*
G01*
X136675000Y-77544000D01*
G75*
G02*
X136925000Y-77794000I0J-250000D01*
G01*
X136925000Y-78294000D01*
G75*
G02*
X136675000Y-78544000I-250000J0D01*
G01*
G37*
%TD*%
%TO.C,C10*%
G36*
G01*
X149700000Y-82425000D02*
X149700000Y-81475000D01*
G75*
G02*
X149950000Y-81225000I250000J0D01*
G01*
X150450000Y-81225000D01*
G75*
G02*
X150700000Y-81475000I0J-250000D01*
G01*
X150700000Y-82425000D01*
G75*
G02*
X150450000Y-82675000I-250000J0D01*
G01*
X149950000Y-82675000D01*
G75*
G02*
X149700000Y-82425000I0J250000D01*
G01*
G37*
G36*
G01*
X151600000Y-82425000D02*
X151600000Y-81475000D01*
G75*
G02*
X151850000Y-81225000I250000J0D01*
G01*
X152350000Y-81225000D01*
G75*
G02*
X152600000Y-81475000I0J-250000D01*
G01*
X152600000Y-82425000D01*
G75*
G02*
X152350000Y-82675000I-250000J0D01*
G01*
X151850000Y-82675000D01*
G75*
G02*
X151600000Y-82425000I0J250000D01*
G01*
G37*
%TD*%
%TO.C,C9*%
G36*
G01*
X152850000Y-96475000D02*
X152850000Y-95525000D01*
G75*
G02*
X153100000Y-95275000I250000J0D01*
G01*
X153600000Y-95275000D01*
G75*
G02*
X153850000Y-95525000I0J-250000D01*
G01*
X153850000Y-96475000D01*
G75*
G02*
X153600000Y-96725000I-250000J0D01*
G01*
X153100000Y-96725000D01*
G75*
G02*
X152850000Y-96475000I0J250000D01*
G01*
G37*
G36*
G01*
X150950000Y-96475000D02*
X150950000Y-95525000D01*
G75*
G02*
X151200000Y-95275000I250000J0D01*
G01*
X151700000Y-95275000D01*
G75*
G02*
X151950000Y-95525000I0J-250000D01*
G01*
X151950000Y-96475000D01*
G75*
G02*
X151700000Y-96725000I-250000J0D01*
G01*
X151200000Y-96725000D01*
G75*
G02*
X150950000Y-96475000I0J250000D01*
G01*
G37*
%TD*%
%TO.C,C8*%
G36*
G01*
X151000000Y-104225000D02*
X151000000Y-103275000D01*
G75*
G02*
X151250000Y-103025000I250000J0D01*
G01*
X151750000Y-103025000D01*
G75*
G02*
X152000000Y-103275000I0J-250000D01*
G01*
X152000000Y-104225000D01*
G75*
G02*
X151750000Y-104475000I-250000J0D01*
G01*
X151250000Y-104475000D01*
G75*
G02*
X151000000Y-104225000I0J250000D01*
G01*
G37*
G36*
G01*
X149100000Y-104225000D02*
X149100000Y-103275000D01*
G75*
G02*
X149350000Y-103025000I250000J0D01*
G01*
X149850000Y-103025000D01*
G75*
G02*
X150100000Y-103275000I0J-250000D01*
G01*
X150100000Y-104225000D01*
G75*
G02*
X149850000Y-104475000I-250000J0D01*
G01*
X149350000Y-104475000D01*
G75*
G02*
X149100000Y-104225000I0J250000D01*
G01*
G37*
%TD*%
%TO.C,C7*%
G36*
G01*
X142125000Y-106876000D02*
X143075000Y-106876000D01*
G75*
G02*
X143325000Y-107126000I0J-250000D01*
G01*
X143325000Y-107626000D01*
G75*
G02*
X143075000Y-107876000I-250000J0D01*
G01*
X142125000Y-107876000D01*
G75*
G02*
X141875000Y-107626000I0J250000D01*
G01*
X141875000Y-107126000D01*
G75*
G02*
X142125000Y-106876000I250000J0D01*
G01*
G37*
G36*
G01*
X142125000Y-104976000D02*
X143075000Y-104976000D01*
G75*
G02*
X143325000Y-105226000I0J-250000D01*
G01*
X143325000Y-105726000D01*
G75*
G02*
X143075000Y-105976000I-250000J0D01*
G01*
X142125000Y-105976000D01*
G75*
G02*
X141875000Y-105726000I0J250000D01*
G01*
X141875000Y-105226000D01*
G75*
G02*
X142125000Y-104976000I250000J0D01*
G01*
G37*
%TD*%
%TO.C,C6*%
G36*
G01*
X136425000Y-105326000D02*
X137375000Y-105326000D01*
G75*
G02*
X137625000Y-105576000I0J-250000D01*
G01*
X137625000Y-106076000D01*
G75*
G02*
X137375000Y-106326000I-250000J0D01*
G01*
X136425000Y-106326000D01*
G75*
G02*
X136175000Y-106076000I0J250000D01*
G01*
X136175000Y-105576000D01*
G75*
G02*
X136425000Y-105326000I250000J0D01*
G01*
G37*
G36*
G01*
X136425000Y-107226000D02*
X137375000Y-107226000D01*
G75*
G02*
X137625000Y-107476000I0J-250000D01*
G01*
X137625000Y-107976000D01*
G75*
G02*
X137375000Y-108226000I-250000J0D01*
G01*
X136425000Y-108226000D01*
G75*
G02*
X136175000Y-107976000I0J250000D01*
G01*
X136175000Y-107476000D01*
G75*
G02*
X136425000Y-107226000I250000J0D01*
G01*
G37*
%TD*%
%TO.C,C5*%
G36*
G01*
X130225000Y-104976000D02*
X131175000Y-104976000D01*
G75*
G02*
X131425000Y-105226000I0J-250000D01*
G01*
X131425000Y-105726000D01*
G75*
G02*
X131175000Y-105976000I-250000J0D01*
G01*
X130225000Y-105976000D01*
G75*
G02*
X129975000Y-105726000I0J250000D01*
G01*
X129975000Y-105226000D01*
G75*
G02*
X130225000Y-104976000I250000J0D01*
G01*
G37*
G36*
G01*
X130225000Y-106876000D02*
X131175000Y-106876000D01*
G75*
G02*
X131425000Y-107126000I0J-250000D01*
G01*
X131425000Y-107626000D01*
G75*
G02*
X131175000Y-107876000I-250000J0D01*
G01*
X130225000Y-107876000D01*
G75*
G02*
X129975000Y-107626000I0J250000D01*
G01*
X129975000Y-107126000D01*
G75*
G02*
X130225000Y-106876000I250000J0D01*
G01*
G37*
%TD*%
%TO.C,C4*%
G36*
G01*
X125900000Y-97875000D02*
X125900000Y-98825000D01*
G75*
G02*
X125650000Y-99075000I-250000J0D01*
G01*
X125150000Y-99075000D01*
G75*
G02*
X124900000Y-98825000I0J250000D01*
G01*
X124900000Y-97875000D01*
G75*
G02*
X125150000Y-97625000I250000J0D01*
G01*
X125650000Y-97625000D01*
G75*
G02*
X125900000Y-97875000I0J-250000D01*
G01*
G37*
G36*
G01*
X124000000Y-97875000D02*
X124000000Y-98825000D01*
G75*
G02*
X123750000Y-99075000I-250000J0D01*
G01*
X123250000Y-99075000D01*
G75*
G02*
X123000000Y-98825000I0J250000D01*
G01*
X123000000Y-97875000D01*
G75*
G02*
X123250000Y-97625000I250000J0D01*
G01*
X123750000Y-97625000D01*
G75*
G02*
X124000000Y-97875000I0J-250000D01*
G01*
G37*
%TD*%
%TO.C,C3*%
G36*
G01*
X124200000Y-91525000D02*
X124200000Y-92475000D01*
G75*
G02*
X123950000Y-92725000I-250000J0D01*
G01*
X123450000Y-92725000D01*
G75*
G02*
X123200000Y-92475000I0J250000D01*
G01*
X123200000Y-91525000D01*
G75*
G02*
X123450000Y-91275000I250000J0D01*
G01*
X123950000Y-91275000D01*
G75*
G02*
X124200000Y-91525000I0J-250000D01*
G01*
G37*
G36*
G01*
X126100000Y-91525000D02*
X126100000Y-92475000D01*
G75*
G02*
X125850000Y-92725000I-250000J0D01*
G01*
X125350000Y-92725000D01*
G75*
G02*
X125100000Y-92475000I0J250000D01*
G01*
X125100000Y-91525000D01*
G75*
G02*
X125350000Y-91275000I250000J0D01*
G01*
X125850000Y-91275000D01*
G75*
G02*
X126100000Y-91525000I0J-250000D01*
G01*
G37*
%TD*%
%TO.C,C1*%
G36*
G01*
X127150000Y-79425000D02*
X127150000Y-80375000D01*
G75*
G02*
X126900000Y-80625000I-250000J0D01*
G01*
X126400000Y-80625000D01*
G75*
G02*
X126150000Y-80375000I0J250000D01*
G01*
X126150000Y-79425000D01*
G75*
G02*
X126400000Y-79175000I250000J0D01*
G01*
X126900000Y-79175000D01*
G75*
G02*
X127150000Y-79425000I0J-250000D01*
G01*
G37*
G36*
G01*
X125250000Y-79425000D02*
X125250000Y-80375000D01*
G75*
G02*
X125000000Y-80625000I-250000J0D01*
G01*
X124500000Y-80625000D01*
G75*
G02*
X124250000Y-80375000I0J250000D01*
G01*
X124250000Y-79425000D01*
G75*
G02*
X124500000Y-79175000I250000J0D01*
G01*
X125000000Y-79175000D01*
G75*
G02*
X125250000Y-79425000I0J-250000D01*
G01*
G37*
%TD*%
D14*
%TO.C,Y1*%
X119724000Y-93842000D03*
X119724000Y-96042000D03*
X121424000Y-96042000D03*
X121424000Y-93842000D03*
%TD*%
D15*
%TO.C,U2*%
X168700000Y-109050000D03*
X168700000Y-110000000D03*
X168700000Y-110950000D03*
X171200000Y-110950000D03*
X171200000Y-110000000D03*
X171200000Y-109050000D03*
%TD*%
%TO.C,U1*%
G36*
G01*
X127030000Y-84035000D02*
X127030000Y-83885000D01*
G75*
G02*
X127105000Y-83810000I75000J0D01*
G01*
X128430000Y-83810000D01*
G75*
G02*
X128505000Y-83885000I0J-75000D01*
G01*
X128505000Y-84035000D01*
G75*
G02*
X128430000Y-84110000I-75000J0D01*
G01*
X127105000Y-84110000D01*
G75*
G02*
X127030000Y-84035000I0J75000D01*
G01*
G37*
G36*
G01*
X127030000Y-84535000D02*
X127030000Y-84385000D01*
G75*
G02*
X127105000Y-84310000I75000J0D01*
G01*
X128430000Y-84310000D01*
G75*
G02*
X128505000Y-84385000I0J-75000D01*
G01*
X128505000Y-84535000D01*
G75*
G02*
X128430000Y-84610000I-75000J0D01*
G01*
X127105000Y-84610000D01*
G75*
G02*
X127030000Y-84535000I0J75000D01*
G01*
G37*
G36*
G01*
X127030000Y-85035000D02*
X127030000Y-84885000D01*
G75*
G02*
X127105000Y-84810000I75000J0D01*
G01*
X128430000Y-84810000D01*
G75*
G02*
X128505000Y-84885000I0J-75000D01*
G01*
X128505000Y-85035000D01*
G75*
G02*
X128430000Y-85110000I-75000J0D01*
G01*
X127105000Y-85110000D01*
G75*
G02*
X127030000Y-85035000I0J75000D01*
G01*
G37*
G36*
G01*
X127030000Y-85535000D02*
X127030000Y-85385000D01*
G75*
G02*
X127105000Y-85310000I75000J0D01*
G01*
X128430000Y-85310000D01*
G75*
G02*
X128505000Y-85385000I0J-75000D01*
G01*
X128505000Y-85535000D01*
G75*
G02*
X128430000Y-85610000I-75000J0D01*
G01*
X127105000Y-85610000D01*
G75*
G02*
X127030000Y-85535000I0J75000D01*
G01*
G37*
G36*
G01*
X127030000Y-86035000D02*
X127030000Y-85885000D01*
G75*
G02*
X127105000Y-85810000I75000J0D01*
G01*
X128430000Y-85810000D01*
G75*
G02*
X128505000Y-85885000I0J-75000D01*
G01*
X128505000Y-86035000D01*
G75*
G02*
X128430000Y-86110000I-75000J0D01*
G01*
X127105000Y-86110000D01*
G75*
G02*
X127030000Y-86035000I0J75000D01*
G01*
G37*
G36*
G01*
X127030000Y-86535000D02*
X127030000Y-86385000D01*
G75*
G02*
X127105000Y-86310000I75000J0D01*
G01*
X128430000Y-86310000D01*
G75*
G02*
X128505000Y-86385000I0J-75000D01*
G01*
X128505000Y-86535000D01*
G75*
G02*
X128430000Y-86610000I-75000J0D01*
G01*
X127105000Y-86610000D01*
G75*
G02*
X127030000Y-86535000I0J75000D01*
G01*
G37*
G36*
G01*
X127030000Y-87035000D02*
X127030000Y-86885000D01*
G75*
G02*
X127105000Y-86810000I75000J0D01*
G01*
X128430000Y-86810000D01*
G75*
G02*
X128505000Y-86885000I0J-75000D01*
G01*
X128505000Y-87035000D01*
G75*
G02*
X128430000Y-87110000I-75000J0D01*
G01*
X127105000Y-87110000D01*
G75*
G02*
X127030000Y-87035000I0J75000D01*
G01*
G37*
G36*
G01*
X127030000Y-87535000D02*
X127030000Y-87385000D01*
G75*
G02*
X127105000Y-87310000I75000J0D01*
G01*
X128430000Y-87310000D01*
G75*
G02*
X128505000Y-87385000I0J-75000D01*
G01*
X128505000Y-87535000D01*
G75*
G02*
X128430000Y-87610000I-75000J0D01*
G01*
X127105000Y-87610000D01*
G75*
G02*
X127030000Y-87535000I0J75000D01*
G01*
G37*
G36*
G01*
X127030000Y-88035000D02*
X127030000Y-87885000D01*
G75*
G02*
X127105000Y-87810000I75000J0D01*
G01*
X128430000Y-87810000D01*
G75*
G02*
X128505000Y-87885000I0J-75000D01*
G01*
X128505000Y-88035000D01*
G75*
G02*
X128430000Y-88110000I-75000J0D01*
G01*
X127105000Y-88110000D01*
G75*
G02*
X127030000Y-88035000I0J75000D01*
G01*
G37*
G36*
G01*
X127030000Y-88535000D02*
X127030000Y-88385000D01*
G75*
G02*
X127105000Y-88310000I75000J0D01*
G01*
X128430000Y-88310000D01*
G75*
G02*
X128505000Y-88385000I0J-75000D01*
G01*
X128505000Y-88535000D01*
G75*
G02*
X128430000Y-88610000I-75000J0D01*
G01*
X127105000Y-88610000D01*
G75*
G02*
X127030000Y-88535000I0J75000D01*
G01*
G37*
G36*
G01*
X127030000Y-89035000D02*
X127030000Y-88885000D01*
G75*
G02*
X127105000Y-88810000I75000J0D01*
G01*
X128430000Y-88810000D01*
G75*
G02*
X128505000Y-88885000I0J-75000D01*
G01*
X128505000Y-89035000D01*
G75*
G02*
X128430000Y-89110000I-75000J0D01*
G01*
X127105000Y-89110000D01*
G75*
G02*
X127030000Y-89035000I0J75000D01*
G01*
G37*
G36*
G01*
X127030000Y-89535000D02*
X127030000Y-89385000D01*
G75*
G02*
X127105000Y-89310000I75000J0D01*
G01*
X128430000Y-89310000D01*
G75*
G02*
X128505000Y-89385000I0J-75000D01*
G01*
X128505000Y-89535000D01*
G75*
G02*
X128430000Y-89610000I-75000J0D01*
G01*
X127105000Y-89610000D01*
G75*
G02*
X127030000Y-89535000I0J75000D01*
G01*
G37*
G36*
G01*
X127030000Y-90035000D02*
X127030000Y-89885000D01*
G75*
G02*
X127105000Y-89810000I75000J0D01*
G01*
X128430000Y-89810000D01*
G75*
G02*
X128505000Y-89885000I0J-75000D01*
G01*
X128505000Y-90035000D01*
G75*
G02*
X128430000Y-90110000I-75000J0D01*
G01*
X127105000Y-90110000D01*
G75*
G02*
X127030000Y-90035000I0J75000D01*
G01*
G37*
G36*
G01*
X127030000Y-90535000D02*
X127030000Y-90385000D01*
G75*
G02*
X127105000Y-90310000I75000J0D01*
G01*
X128430000Y-90310000D01*
G75*
G02*
X128505000Y-90385000I0J-75000D01*
G01*
X128505000Y-90535000D01*
G75*
G02*
X128430000Y-90610000I-75000J0D01*
G01*
X127105000Y-90610000D01*
G75*
G02*
X127030000Y-90535000I0J75000D01*
G01*
G37*
G36*
G01*
X127030000Y-91035000D02*
X127030000Y-90885000D01*
G75*
G02*
X127105000Y-90810000I75000J0D01*
G01*
X128430000Y-90810000D01*
G75*
G02*
X128505000Y-90885000I0J-75000D01*
G01*
X128505000Y-91035000D01*
G75*
G02*
X128430000Y-91110000I-75000J0D01*
G01*
X127105000Y-91110000D01*
G75*
G02*
X127030000Y-91035000I0J75000D01*
G01*
G37*
G36*
G01*
X127030000Y-91535000D02*
X127030000Y-91385000D01*
G75*
G02*
X127105000Y-91310000I75000J0D01*
G01*
X128430000Y-91310000D01*
G75*
G02*
X128505000Y-91385000I0J-75000D01*
G01*
X128505000Y-91535000D01*
G75*
G02*
X128430000Y-91610000I-75000J0D01*
G01*
X127105000Y-91610000D01*
G75*
G02*
X127030000Y-91535000I0J75000D01*
G01*
G37*
G36*
G01*
X127030000Y-92035000D02*
X127030000Y-91885000D01*
G75*
G02*
X127105000Y-91810000I75000J0D01*
G01*
X128430000Y-91810000D01*
G75*
G02*
X128505000Y-91885000I0J-75000D01*
G01*
X128505000Y-92035000D01*
G75*
G02*
X128430000Y-92110000I-75000J0D01*
G01*
X127105000Y-92110000D01*
G75*
G02*
X127030000Y-92035000I0J75000D01*
G01*
G37*
G36*
G01*
X127030000Y-92535000D02*
X127030000Y-92385000D01*
G75*
G02*
X127105000Y-92310000I75000J0D01*
G01*
X128430000Y-92310000D01*
G75*
G02*
X128505000Y-92385000I0J-75000D01*
G01*
X128505000Y-92535000D01*
G75*
G02*
X128430000Y-92610000I-75000J0D01*
G01*
X127105000Y-92610000D01*
G75*
G02*
X127030000Y-92535000I0J75000D01*
G01*
G37*
G36*
G01*
X127030000Y-93035000D02*
X127030000Y-92885000D01*
G75*
G02*
X127105000Y-92810000I75000J0D01*
G01*
X128430000Y-92810000D01*
G75*
G02*
X128505000Y-92885000I0J-75000D01*
G01*
X128505000Y-93035000D01*
G75*
G02*
X128430000Y-93110000I-75000J0D01*
G01*
X127105000Y-93110000D01*
G75*
G02*
X127030000Y-93035000I0J75000D01*
G01*
G37*
G36*
G01*
X127030000Y-93535000D02*
X127030000Y-93385000D01*
G75*
G02*
X127105000Y-93310000I75000J0D01*
G01*
X128430000Y-93310000D01*
G75*
G02*
X128505000Y-93385000I0J-75000D01*
G01*
X128505000Y-93535000D01*
G75*
G02*
X128430000Y-93610000I-75000J0D01*
G01*
X127105000Y-93610000D01*
G75*
G02*
X127030000Y-93535000I0J75000D01*
G01*
G37*
G36*
G01*
X127030000Y-94035000D02*
X127030000Y-93885000D01*
G75*
G02*
X127105000Y-93810000I75000J0D01*
G01*
X128430000Y-93810000D01*
G75*
G02*
X128505000Y-93885000I0J-75000D01*
G01*
X128505000Y-94035000D01*
G75*
G02*
X128430000Y-94110000I-75000J0D01*
G01*
X127105000Y-94110000D01*
G75*
G02*
X127030000Y-94035000I0J75000D01*
G01*
G37*
G36*
G01*
X127030000Y-94535000D02*
X127030000Y-94385000D01*
G75*
G02*
X127105000Y-94310000I75000J0D01*
G01*
X128430000Y-94310000D01*
G75*
G02*
X128505000Y-94385000I0J-75000D01*
G01*
X128505000Y-94535000D01*
G75*
G02*
X128430000Y-94610000I-75000J0D01*
G01*
X127105000Y-94610000D01*
G75*
G02*
X127030000Y-94535000I0J75000D01*
G01*
G37*
G36*
G01*
X127030000Y-95035000D02*
X127030000Y-94885000D01*
G75*
G02*
X127105000Y-94810000I75000J0D01*
G01*
X128430000Y-94810000D01*
G75*
G02*
X128505000Y-94885000I0J-75000D01*
G01*
X128505000Y-95035000D01*
G75*
G02*
X128430000Y-95110000I-75000J0D01*
G01*
X127105000Y-95110000D01*
G75*
G02*
X127030000Y-95035000I0J75000D01*
G01*
G37*
G36*
G01*
X127030000Y-95535000D02*
X127030000Y-95385000D01*
G75*
G02*
X127105000Y-95310000I75000J0D01*
G01*
X128430000Y-95310000D01*
G75*
G02*
X128505000Y-95385000I0J-75000D01*
G01*
X128505000Y-95535000D01*
G75*
G02*
X128430000Y-95610000I-75000J0D01*
G01*
X127105000Y-95610000D01*
G75*
G02*
X127030000Y-95535000I0J75000D01*
G01*
G37*
G36*
G01*
X127030000Y-96035000D02*
X127030000Y-95885000D01*
G75*
G02*
X127105000Y-95810000I75000J0D01*
G01*
X128430000Y-95810000D01*
G75*
G02*
X128505000Y-95885000I0J-75000D01*
G01*
X128505000Y-96035000D01*
G75*
G02*
X128430000Y-96110000I-75000J0D01*
G01*
X127105000Y-96110000D01*
G75*
G02*
X127030000Y-96035000I0J75000D01*
G01*
G37*
G36*
G01*
X127030000Y-96535000D02*
X127030000Y-96385000D01*
G75*
G02*
X127105000Y-96310000I75000J0D01*
G01*
X128430000Y-96310000D01*
G75*
G02*
X128505000Y-96385000I0J-75000D01*
G01*
X128505000Y-96535000D01*
G75*
G02*
X128430000Y-96610000I-75000J0D01*
G01*
X127105000Y-96610000D01*
G75*
G02*
X127030000Y-96535000I0J75000D01*
G01*
G37*
G36*
G01*
X127030000Y-97035000D02*
X127030000Y-96885000D01*
G75*
G02*
X127105000Y-96810000I75000J0D01*
G01*
X128430000Y-96810000D01*
G75*
G02*
X128505000Y-96885000I0J-75000D01*
G01*
X128505000Y-97035000D01*
G75*
G02*
X128430000Y-97110000I-75000J0D01*
G01*
X127105000Y-97110000D01*
G75*
G02*
X127030000Y-97035000I0J75000D01*
G01*
G37*
G36*
G01*
X127030000Y-97535000D02*
X127030000Y-97385000D01*
G75*
G02*
X127105000Y-97310000I75000J0D01*
G01*
X128430000Y-97310000D01*
G75*
G02*
X128505000Y-97385000I0J-75000D01*
G01*
X128505000Y-97535000D01*
G75*
G02*
X128430000Y-97610000I-75000J0D01*
G01*
X127105000Y-97610000D01*
G75*
G02*
X127030000Y-97535000I0J75000D01*
G01*
G37*
G36*
G01*
X127030000Y-98035000D02*
X127030000Y-97885000D01*
G75*
G02*
X127105000Y-97810000I75000J0D01*
G01*
X128430000Y-97810000D01*
G75*
G02*
X128505000Y-97885000I0J-75000D01*
G01*
X128505000Y-98035000D01*
G75*
G02*
X128430000Y-98110000I-75000J0D01*
G01*
X127105000Y-98110000D01*
G75*
G02*
X127030000Y-98035000I0J75000D01*
G01*
G37*
G36*
G01*
X127030000Y-98535000D02*
X127030000Y-98385000D01*
G75*
G02*
X127105000Y-98310000I75000J0D01*
G01*
X128430000Y-98310000D01*
G75*
G02*
X128505000Y-98385000I0J-75000D01*
G01*
X128505000Y-98535000D01*
G75*
G02*
X128430000Y-98610000I-75000J0D01*
G01*
X127105000Y-98610000D01*
G75*
G02*
X127030000Y-98535000I0J75000D01*
G01*
G37*
G36*
G01*
X127030000Y-99035000D02*
X127030000Y-98885000D01*
G75*
G02*
X127105000Y-98810000I75000J0D01*
G01*
X128430000Y-98810000D01*
G75*
G02*
X128505000Y-98885000I0J-75000D01*
G01*
X128505000Y-99035000D01*
G75*
G02*
X128430000Y-99110000I-75000J0D01*
G01*
X127105000Y-99110000D01*
G75*
G02*
X127030000Y-99035000I0J75000D01*
G01*
G37*
G36*
G01*
X127030000Y-99535000D02*
X127030000Y-99385000D01*
G75*
G02*
X127105000Y-99310000I75000J0D01*
G01*
X128430000Y-99310000D01*
G75*
G02*
X128505000Y-99385000I0J-75000D01*
G01*
X128505000Y-99535000D01*
G75*
G02*
X128430000Y-99610000I-75000J0D01*
G01*
X127105000Y-99610000D01*
G75*
G02*
X127030000Y-99535000I0J75000D01*
G01*
G37*
G36*
G01*
X127030000Y-100035000D02*
X127030000Y-99885000D01*
G75*
G02*
X127105000Y-99810000I75000J0D01*
G01*
X128430000Y-99810000D01*
G75*
G02*
X128505000Y-99885000I0J-75000D01*
G01*
X128505000Y-100035000D01*
G75*
G02*
X128430000Y-100110000I-75000J0D01*
G01*
X127105000Y-100110000D01*
G75*
G02*
X127030000Y-100035000I0J75000D01*
G01*
G37*
G36*
G01*
X127030000Y-100535000D02*
X127030000Y-100385000D01*
G75*
G02*
X127105000Y-100310000I75000J0D01*
G01*
X128430000Y-100310000D01*
G75*
G02*
X128505000Y-100385000I0J-75000D01*
G01*
X128505000Y-100535000D01*
G75*
G02*
X128430000Y-100610000I-75000J0D01*
G01*
X127105000Y-100610000D01*
G75*
G02*
X127030000Y-100535000I0J75000D01*
G01*
G37*
G36*
G01*
X127030000Y-101035000D02*
X127030000Y-100885000D01*
G75*
G02*
X127105000Y-100810000I75000J0D01*
G01*
X128430000Y-100810000D01*
G75*
G02*
X128505000Y-100885000I0J-75000D01*
G01*
X128505000Y-101035000D01*
G75*
G02*
X128430000Y-101110000I-75000J0D01*
G01*
X127105000Y-101110000D01*
G75*
G02*
X127030000Y-101035000I0J75000D01*
G01*
G37*
G36*
G01*
X127030000Y-101535000D02*
X127030000Y-101385000D01*
G75*
G02*
X127105000Y-101310000I75000J0D01*
G01*
X128430000Y-101310000D01*
G75*
G02*
X128505000Y-101385000I0J-75000D01*
G01*
X128505000Y-101535000D01*
G75*
G02*
X128430000Y-101610000I-75000J0D01*
G01*
X127105000Y-101610000D01*
G75*
G02*
X127030000Y-101535000I0J75000D01*
G01*
G37*
G36*
G01*
X129530000Y-104035000D02*
X129530000Y-102710000D01*
G75*
G02*
X129605000Y-102635000I75000J0D01*
G01*
X129755000Y-102635000D01*
G75*
G02*
X129830000Y-102710000I0J-75000D01*
G01*
X129830000Y-104035000D01*
G75*
G02*
X129755000Y-104110000I-75000J0D01*
G01*
X129605000Y-104110000D01*
G75*
G02*
X129530000Y-104035000I0J75000D01*
G01*
G37*
G36*
G01*
X130030000Y-104035000D02*
X130030000Y-102710000D01*
G75*
G02*
X130105000Y-102635000I75000J0D01*
G01*
X130255000Y-102635000D01*
G75*
G02*
X130330000Y-102710000I0J-75000D01*
G01*
X130330000Y-104035000D01*
G75*
G02*
X130255000Y-104110000I-75000J0D01*
G01*
X130105000Y-104110000D01*
G75*
G02*
X130030000Y-104035000I0J75000D01*
G01*
G37*
G36*
G01*
X130530000Y-104035000D02*
X130530000Y-102710000D01*
G75*
G02*
X130605000Y-102635000I75000J0D01*
G01*
X130755000Y-102635000D01*
G75*
G02*
X130830000Y-102710000I0J-75000D01*
G01*
X130830000Y-104035000D01*
G75*
G02*
X130755000Y-104110000I-75000J0D01*
G01*
X130605000Y-104110000D01*
G75*
G02*
X130530000Y-104035000I0J75000D01*
G01*
G37*
G36*
G01*
X131030000Y-104035000D02*
X131030000Y-102710000D01*
G75*
G02*
X131105000Y-102635000I75000J0D01*
G01*
X131255000Y-102635000D01*
G75*
G02*
X131330000Y-102710000I0J-75000D01*
G01*
X131330000Y-104035000D01*
G75*
G02*
X131255000Y-104110000I-75000J0D01*
G01*
X131105000Y-104110000D01*
G75*
G02*
X131030000Y-104035000I0J75000D01*
G01*
G37*
G36*
G01*
X131530000Y-104035000D02*
X131530000Y-102710000D01*
G75*
G02*
X131605000Y-102635000I75000J0D01*
G01*
X131755000Y-102635000D01*
G75*
G02*
X131830000Y-102710000I0J-75000D01*
G01*
X131830000Y-104035000D01*
G75*
G02*
X131755000Y-104110000I-75000J0D01*
G01*
X131605000Y-104110000D01*
G75*
G02*
X131530000Y-104035000I0J75000D01*
G01*
G37*
G36*
G01*
X132030000Y-104035000D02*
X132030000Y-102710000D01*
G75*
G02*
X132105000Y-102635000I75000J0D01*
G01*
X132255000Y-102635000D01*
G75*
G02*
X132330000Y-102710000I0J-75000D01*
G01*
X132330000Y-104035000D01*
G75*
G02*
X132255000Y-104110000I-75000J0D01*
G01*
X132105000Y-104110000D01*
G75*
G02*
X132030000Y-104035000I0J75000D01*
G01*
G37*
G36*
G01*
X132530000Y-104035000D02*
X132530000Y-102710000D01*
G75*
G02*
X132605000Y-102635000I75000J0D01*
G01*
X132755000Y-102635000D01*
G75*
G02*
X132830000Y-102710000I0J-75000D01*
G01*
X132830000Y-104035000D01*
G75*
G02*
X132755000Y-104110000I-75000J0D01*
G01*
X132605000Y-104110000D01*
G75*
G02*
X132530000Y-104035000I0J75000D01*
G01*
G37*
G36*
G01*
X133030000Y-104035000D02*
X133030000Y-102710000D01*
G75*
G02*
X133105000Y-102635000I75000J0D01*
G01*
X133255000Y-102635000D01*
G75*
G02*
X133330000Y-102710000I0J-75000D01*
G01*
X133330000Y-104035000D01*
G75*
G02*
X133255000Y-104110000I-75000J0D01*
G01*
X133105000Y-104110000D01*
G75*
G02*
X133030000Y-104035000I0J75000D01*
G01*
G37*
G36*
G01*
X133530000Y-104035000D02*
X133530000Y-102710000D01*
G75*
G02*
X133605000Y-102635000I75000J0D01*
G01*
X133755000Y-102635000D01*
G75*
G02*
X133830000Y-102710000I0J-75000D01*
G01*
X133830000Y-104035000D01*
G75*
G02*
X133755000Y-104110000I-75000J0D01*
G01*
X133605000Y-104110000D01*
G75*
G02*
X133530000Y-104035000I0J75000D01*
G01*
G37*
G36*
G01*
X134030000Y-104035000D02*
X134030000Y-102710000D01*
G75*
G02*
X134105000Y-102635000I75000J0D01*
G01*
X134255000Y-102635000D01*
G75*
G02*
X134330000Y-102710000I0J-75000D01*
G01*
X134330000Y-104035000D01*
G75*
G02*
X134255000Y-104110000I-75000J0D01*
G01*
X134105000Y-104110000D01*
G75*
G02*
X134030000Y-104035000I0J75000D01*
G01*
G37*
G36*
G01*
X134530000Y-104035000D02*
X134530000Y-102710000D01*
G75*
G02*
X134605000Y-102635000I75000J0D01*
G01*
X134755000Y-102635000D01*
G75*
G02*
X134830000Y-102710000I0J-75000D01*
G01*
X134830000Y-104035000D01*
G75*
G02*
X134755000Y-104110000I-75000J0D01*
G01*
X134605000Y-104110000D01*
G75*
G02*
X134530000Y-104035000I0J75000D01*
G01*
G37*
G36*
G01*
X135030000Y-104035000D02*
X135030000Y-102710000D01*
G75*
G02*
X135105000Y-102635000I75000J0D01*
G01*
X135255000Y-102635000D01*
G75*
G02*
X135330000Y-102710000I0J-75000D01*
G01*
X135330000Y-104035000D01*
G75*
G02*
X135255000Y-104110000I-75000J0D01*
G01*
X135105000Y-104110000D01*
G75*
G02*
X135030000Y-104035000I0J75000D01*
G01*
G37*
G36*
G01*
X135530000Y-104035000D02*
X135530000Y-102710000D01*
G75*
G02*
X135605000Y-102635000I75000J0D01*
G01*
X135755000Y-102635000D01*
G75*
G02*
X135830000Y-102710000I0J-75000D01*
G01*
X135830000Y-104035000D01*
G75*
G02*
X135755000Y-104110000I-75000J0D01*
G01*
X135605000Y-104110000D01*
G75*
G02*
X135530000Y-104035000I0J75000D01*
G01*
G37*
G36*
G01*
X136030000Y-104035000D02*
X136030000Y-102710000D01*
G75*
G02*
X136105000Y-102635000I75000J0D01*
G01*
X136255000Y-102635000D01*
G75*
G02*
X136330000Y-102710000I0J-75000D01*
G01*
X136330000Y-104035000D01*
G75*
G02*
X136255000Y-104110000I-75000J0D01*
G01*
X136105000Y-104110000D01*
G75*
G02*
X136030000Y-104035000I0J75000D01*
G01*
G37*
G36*
G01*
X136530000Y-104035000D02*
X136530000Y-102710000D01*
G75*
G02*
X136605000Y-102635000I75000J0D01*
G01*
X136755000Y-102635000D01*
G75*
G02*
X136830000Y-102710000I0J-75000D01*
G01*
X136830000Y-104035000D01*
G75*
G02*
X136755000Y-104110000I-75000J0D01*
G01*
X136605000Y-104110000D01*
G75*
G02*
X136530000Y-104035000I0J75000D01*
G01*
G37*
G36*
G01*
X137030000Y-104035000D02*
X137030000Y-102710000D01*
G75*
G02*
X137105000Y-102635000I75000J0D01*
G01*
X137255000Y-102635000D01*
G75*
G02*
X137330000Y-102710000I0J-75000D01*
G01*
X137330000Y-104035000D01*
G75*
G02*
X137255000Y-104110000I-75000J0D01*
G01*
X137105000Y-104110000D01*
G75*
G02*
X137030000Y-104035000I0J75000D01*
G01*
G37*
G36*
G01*
X137530000Y-104035000D02*
X137530000Y-102710000D01*
G75*
G02*
X137605000Y-102635000I75000J0D01*
G01*
X137755000Y-102635000D01*
G75*
G02*
X137830000Y-102710000I0J-75000D01*
G01*
X137830000Y-104035000D01*
G75*
G02*
X137755000Y-104110000I-75000J0D01*
G01*
X137605000Y-104110000D01*
G75*
G02*
X137530000Y-104035000I0J75000D01*
G01*
G37*
G36*
G01*
X138030000Y-104035000D02*
X138030000Y-102710000D01*
G75*
G02*
X138105000Y-102635000I75000J0D01*
G01*
X138255000Y-102635000D01*
G75*
G02*
X138330000Y-102710000I0J-75000D01*
G01*
X138330000Y-104035000D01*
G75*
G02*
X138255000Y-104110000I-75000J0D01*
G01*
X138105000Y-104110000D01*
G75*
G02*
X138030000Y-104035000I0J75000D01*
G01*
G37*
G36*
G01*
X138530000Y-104035000D02*
X138530000Y-102710000D01*
G75*
G02*
X138605000Y-102635000I75000J0D01*
G01*
X138755000Y-102635000D01*
G75*
G02*
X138830000Y-102710000I0J-75000D01*
G01*
X138830000Y-104035000D01*
G75*
G02*
X138755000Y-104110000I-75000J0D01*
G01*
X138605000Y-104110000D01*
G75*
G02*
X138530000Y-104035000I0J75000D01*
G01*
G37*
G36*
G01*
X139030000Y-104035000D02*
X139030000Y-102710000D01*
G75*
G02*
X139105000Y-102635000I75000J0D01*
G01*
X139255000Y-102635000D01*
G75*
G02*
X139330000Y-102710000I0J-75000D01*
G01*
X139330000Y-104035000D01*
G75*
G02*
X139255000Y-104110000I-75000J0D01*
G01*
X139105000Y-104110000D01*
G75*
G02*
X139030000Y-104035000I0J75000D01*
G01*
G37*
G36*
G01*
X139530000Y-104035000D02*
X139530000Y-102710000D01*
G75*
G02*
X139605000Y-102635000I75000J0D01*
G01*
X139755000Y-102635000D01*
G75*
G02*
X139830000Y-102710000I0J-75000D01*
G01*
X139830000Y-104035000D01*
G75*
G02*
X139755000Y-104110000I-75000J0D01*
G01*
X139605000Y-104110000D01*
G75*
G02*
X139530000Y-104035000I0J75000D01*
G01*
G37*
G36*
G01*
X140030000Y-104035000D02*
X140030000Y-102710000D01*
G75*
G02*
X140105000Y-102635000I75000J0D01*
G01*
X140255000Y-102635000D01*
G75*
G02*
X140330000Y-102710000I0J-75000D01*
G01*
X140330000Y-104035000D01*
G75*
G02*
X140255000Y-104110000I-75000J0D01*
G01*
X140105000Y-104110000D01*
G75*
G02*
X140030000Y-104035000I0J75000D01*
G01*
G37*
G36*
G01*
X140530000Y-104035000D02*
X140530000Y-102710000D01*
G75*
G02*
X140605000Y-102635000I75000J0D01*
G01*
X140755000Y-102635000D01*
G75*
G02*
X140830000Y-102710000I0J-75000D01*
G01*
X140830000Y-104035000D01*
G75*
G02*
X140755000Y-104110000I-75000J0D01*
G01*
X140605000Y-104110000D01*
G75*
G02*
X140530000Y-104035000I0J75000D01*
G01*
G37*
G36*
G01*
X141030000Y-104035000D02*
X141030000Y-102710000D01*
G75*
G02*
X141105000Y-102635000I75000J0D01*
G01*
X141255000Y-102635000D01*
G75*
G02*
X141330000Y-102710000I0J-75000D01*
G01*
X141330000Y-104035000D01*
G75*
G02*
X141255000Y-104110000I-75000J0D01*
G01*
X141105000Y-104110000D01*
G75*
G02*
X141030000Y-104035000I0J75000D01*
G01*
G37*
G36*
G01*
X141530000Y-104035000D02*
X141530000Y-102710000D01*
G75*
G02*
X141605000Y-102635000I75000J0D01*
G01*
X141755000Y-102635000D01*
G75*
G02*
X141830000Y-102710000I0J-75000D01*
G01*
X141830000Y-104035000D01*
G75*
G02*
X141755000Y-104110000I-75000J0D01*
G01*
X141605000Y-104110000D01*
G75*
G02*
X141530000Y-104035000I0J75000D01*
G01*
G37*
G36*
G01*
X142030000Y-104035000D02*
X142030000Y-102710000D01*
G75*
G02*
X142105000Y-102635000I75000J0D01*
G01*
X142255000Y-102635000D01*
G75*
G02*
X142330000Y-102710000I0J-75000D01*
G01*
X142330000Y-104035000D01*
G75*
G02*
X142255000Y-104110000I-75000J0D01*
G01*
X142105000Y-104110000D01*
G75*
G02*
X142030000Y-104035000I0J75000D01*
G01*
G37*
G36*
G01*
X142530000Y-104035000D02*
X142530000Y-102710000D01*
G75*
G02*
X142605000Y-102635000I75000J0D01*
G01*
X142755000Y-102635000D01*
G75*
G02*
X142830000Y-102710000I0J-75000D01*
G01*
X142830000Y-104035000D01*
G75*
G02*
X142755000Y-104110000I-75000J0D01*
G01*
X142605000Y-104110000D01*
G75*
G02*
X142530000Y-104035000I0J75000D01*
G01*
G37*
G36*
G01*
X143030000Y-104035000D02*
X143030000Y-102710000D01*
G75*
G02*
X143105000Y-102635000I75000J0D01*
G01*
X143255000Y-102635000D01*
G75*
G02*
X143330000Y-102710000I0J-75000D01*
G01*
X143330000Y-104035000D01*
G75*
G02*
X143255000Y-104110000I-75000J0D01*
G01*
X143105000Y-104110000D01*
G75*
G02*
X143030000Y-104035000I0J75000D01*
G01*
G37*
G36*
G01*
X143530000Y-104035000D02*
X143530000Y-102710000D01*
G75*
G02*
X143605000Y-102635000I75000J0D01*
G01*
X143755000Y-102635000D01*
G75*
G02*
X143830000Y-102710000I0J-75000D01*
G01*
X143830000Y-104035000D01*
G75*
G02*
X143755000Y-104110000I-75000J0D01*
G01*
X143605000Y-104110000D01*
G75*
G02*
X143530000Y-104035000I0J75000D01*
G01*
G37*
G36*
G01*
X144030000Y-104035000D02*
X144030000Y-102710000D01*
G75*
G02*
X144105000Y-102635000I75000J0D01*
G01*
X144255000Y-102635000D01*
G75*
G02*
X144330000Y-102710000I0J-75000D01*
G01*
X144330000Y-104035000D01*
G75*
G02*
X144255000Y-104110000I-75000J0D01*
G01*
X144105000Y-104110000D01*
G75*
G02*
X144030000Y-104035000I0J75000D01*
G01*
G37*
G36*
G01*
X144530000Y-104035000D02*
X144530000Y-102710000D01*
G75*
G02*
X144605000Y-102635000I75000J0D01*
G01*
X144755000Y-102635000D01*
G75*
G02*
X144830000Y-102710000I0J-75000D01*
G01*
X144830000Y-104035000D01*
G75*
G02*
X144755000Y-104110000I-75000J0D01*
G01*
X144605000Y-104110000D01*
G75*
G02*
X144530000Y-104035000I0J75000D01*
G01*
G37*
G36*
G01*
X145030000Y-104035000D02*
X145030000Y-102710000D01*
G75*
G02*
X145105000Y-102635000I75000J0D01*
G01*
X145255000Y-102635000D01*
G75*
G02*
X145330000Y-102710000I0J-75000D01*
G01*
X145330000Y-104035000D01*
G75*
G02*
X145255000Y-104110000I-75000J0D01*
G01*
X145105000Y-104110000D01*
G75*
G02*
X145030000Y-104035000I0J75000D01*
G01*
G37*
G36*
G01*
X145530000Y-104035000D02*
X145530000Y-102710000D01*
G75*
G02*
X145605000Y-102635000I75000J0D01*
G01*
X145755000Y-102635000D01*
G75*
G02*
X145830000Y-102710000I0J-75000D01*
G01*
X145830000Y-104035000D01*
G75*
G02*
X145755000Y-104110000I-75000J0D01*
G01*
X145605000Y-104110000D01*
G75*
G02*
X145530000Y-104035000I0J75000D01*
G01*
G37*
G36*
G01*
X146030000Y-104035000D02*
X146030000Y-102710000D01*
G75*
G02*
X146105000Y-102635000I75000J0D01*
G01*
X146255000Y-102635000D01*
G75*
G02*
X146330000Y-102710000I0J-75000D01*
G01*
X146330000Y-104035000D01*
G75*
G02*
X146255000Y-104110000I-75000J0D01*
G01*
X146105000Y-104110000D01*
G75*
G02*
X146030000Y-104035000I0J75000D01*
G01*
G37*
G36*
G01*
X146530000Y-104035000D02*
X146530000Y-102710000D01*
G75*
G02*
X146605000Y-102635000I75000J0D01*
G01*
X146755000Y-102635000D01*
G75*
G02*
X146830000Y-102710000I0J-75000D01*
G01*
X146830000Y-104035000D01*
G75*
G02*
X146755000Y-104110000I-75000J0D01*
G01*
X146605000Y-104110000D01*
G75*
G02*
X146530000Y-104035000I0J75000D01*
G01*
G37*
G36*
G01*
X147030000Y-104035000D02*
X147030000Y-102710000D01*
G75*
G02*
X147105000Y-102635000I75000J0D01*
G01*
X147255000Y-102635000D01*
G75*
G02*
X147330000Y-102710000I0J-75000D01*
G01*
X147330000Y-104035000D01*
G75*
G02*
X147255000Y-104110000I-75000J0D01*
G01*
X147105000Y-104110000D01*
G75*
G02*
X147030000Y-104035000I0J75000D01*
G01*
G37*
G36*
G01*
X148355000Y-101535000D02*
X148355000Y-101385000D01*
G75*
G02*
X148430000Y-101310000I75000J0D01*
G01*
X149755000Y-101310000D01*
G75*
G02*
X149830000Y-101385000I0J-75000D01*
G01*
X149830000Y-101535000D01*
G75*
G02*
X149755000Y-101610000I-75000J0D01*
G01*
X148430000Y-101610000D01*
G75*
G02*
X148355000Y-101535000I0J75000D01*
G01*
G37*
G36*
G01*
X148355000Y-101035000D02*
X148355000Y-100885000D01*
G75*
G02*
X148430000Y-100810000I75000J0D01*
G01*
X149755000Y-100810000D01*
G75*
G02*
X149830000Y-100885000I0J-75000D01*
G01*
X149830000Y-101035000D01*
G75*
G02*
X149755000Y-101110000I-75000J0D01*
G01*
X148430000Y-101110000D01*
G75*
G02*
X148355000Y-101035000I0J75000D01*
G01*
G37*
G36*
G01*
X148355000Y-100535000D02*
X148355000Y-100385000D01*
G75*
G02*
X148430000Y-100310000I75000J0D01*
G01*
X149755000Y-100310000D01*
G75*
G02*
X149830000Y-100385000I0J-75000D01*
G01*
X149830000Y-100535000D01*
G75*
G02*
X149755000Y-100610000I-75000J0D01*
G01*
X148430000Y-100610000D01*
G75*
G02*
X148355000Y-100535000I0J75000D01*
G01*
G37*
G36*
G01*
X148355000Y-100035000D02*
X148355000Y-99885000D01*
G75*
G02*
X148430000Y-99810000I75000J0D01*
G01*
X149755000Y-99810000D01*
G75*
G02*
X149830000Y-99885000I0J-75000D01*
G01*
X149830000Y-100035000D01*
G75*
G02*
X149755000Y-100110000I-75000J0D01*
G01*
X148430000Y-100110000D01*
G75*
G02*
X148355000Y-100035000I0J75000D01*
G01*
G37*
G36*
G01*
X148355000Y-99535000D02*
X148355000Y-99385000D01*
G75*
G02*
X148430000Y-99310000I75000J0D01*
G01*
X149755000Y-99310000D01*
G75*
G02*
X149830000Y-99385000I0J-75000D01*
G01*
X149830000Y-99535000D01*
G75*
G02*
X149755000Y-99610000I-75000J0D01*
G01*
X148430000Y-99610000D01*
G75*
G02*
X148355000Y-99535000I0J75000D01*
G01*
G37*
G36*
G01*
X148355000Y-99035000D02*
X148355000Y-98885000D01*
G75*
G02*
X148430000Y-98810000I75000J0D01*
G01*
X149755000Y-98810000D01*
G75*
G02*
X149830000Y-98885000I0J-75000D01*
G01*
X149830000Y-99035000D01*
G75*
G02*
X149755000Y-99110000I-75000J0D01*
G01*
X148430000Y-99110000D01*
G75*
G02*
X148355000Y-99035000I0J75000D01*
G01*
G37*
G36*
G01*
X148355000Y-98535000D02*
X148355000Y-98385000D01*
G75*
G02*
X148430000Y-98310000I75000J0D01*
G01*
X149755000Y-98310000D01*
G75*
G02*
X149830000Y-98385000I0J-75000D01*
G01*
X149830000Y-98535000D01*
G75*
G02*
X149755000Y-98610000I-75000J0D01*
G01*
X148430000Y-98610000D01*
G75*
G02*
X148355000Y-98535000I0J75000D01*
G01*
G37*
G36*
G01*
X148355000Y-98035000D02*
X148355000Y-97885000D01*
G75*
G02*
X148430000Y-97810000I75000J0D01*
G01*
X149755000Y-97810000D01*
G75*
G02*
X149830000Y-97885000I0J-75000D01*
G01*
X149830000Y-98035000D01*
G75*
G02*
X149755000Y-98110000I-75000J0D01*
G01*
X148430000Y-98110000D01*
G75*
G02*
X148355000Y-98035000I0J75000D01*
G01*
G37*
G36*
G01*
X148355000Y-97535000D02*
X148355000Y-97385000D01*
G75*
G02*
X148430000Y-97310000I75000J0D01*
G01*
X149755000Y-97310000D01*
G75*
G02*
X149830000Y-97385000I0J-75000D01*
G01*
X149830000Y-97535000D01*
G75*
G02*
X149755000Y-97610000I-75000J0D01*
G01*
X148430000Y-97610000D01*
G75*
G02*
X148355000Y-97535000I0J75000D01*
G01*
G37*
G36*
G01*
X148355000Y-97035000D02*
X148355000Y-96885000D01*
G75*
G02*
X148430000Y-96810000I75000J0D01*
G01*
X149755000Y-96810000D01*
G75*
G02*
X149830000Y-96885000I0J-75000D01*
G01*
X149830000Y-97035000D01*
G75*
G02*
X149755000Y-97110000I-75000J0D01*
G01*
X148430000Y-97110000D01*
G75*
G02*
X148355000Y-97035000I0J75000D01*
G01*
G37*
G36*
G01*
X148355000Y-96535000D02*
X148355000Y-96385000D01*
G75*
G02*
X148430000Y-96310000I75000J0D01*
G01*
X149755000Y-96310000D01*
G75*
G02*
X149830000Y-96385000I0J-75000D01*
G01*
X149830000Y-96535000D01*
G75*
G02*
X149755000Y-96610000I-75000J0D01*
G01*
X148430000Y-96610000D01*
G75*
G02*
X148355000Y-96535000I0J75000D01*
G01*
G37*
G36*
G01*
X148355000Y-96035000D02*
X148355000Y-95885000D01*
G75*
G02*
X148430000Y-95810000I75000J0D01*
G01*
X149755000Y-95810000D01*
G75*
G02*
X149830000Y-95885000I0J-75000D01*
G01*
X149830000Y-96035000D01*
G75*
G02*
X149755000Y-96110000I-75000J0D01*
G01*
X148430000Y-96110000D01*
G75*
G02*
X148355000Y-96035000I0J75000D01*
G01*
G37*
G36*
G01*
X148355000Y-95535000D02*
X148355000Y-95385000D01*
G75*
G02*
X148430000Y-95310000I75000J0D01*
G01*
X149755000Y-95310000D01*
G75*
G02*
X149830000Y-95385000I0J-75000D01*
G01*
X149830000Y-95535000D01*
G75*
G02*
X149755000Y-95610000I-75000J0D01*
G01*
X148430000Y-95610000D01*
G75*
G02*
X148355000Y-95535000I0J75000D01*
G01*
G37*
G36*
G01*
X148355000Y-95035000D02*
X148355000Y-94885000D01*
G75*
G02*
X148430000Y-94810000I75000J0D01*
G01*
X149755000Y-94810000D01*
G75*
G02*
X149830000Y-94885000I0J-75000D01*
G01*
X149830000Y-95035000D01*
G75*
G02*
X149755000Y-95110000I-75000J0D01*
G01*
X148430000Y-95110000D01*
G75*
G02*
X148355000Y-95035000I0J75000D01*
G01*
G37*
G36*
G01*
X148355000Y-94535000D02*
X148355000Y-94385000D01*
G75*
G02*
X148430000Y-94310000I75000J0D01*
G01*
X149755000Y-94310000D01*
G75*
G02*
X149830000Y-94385000I0J-75000D01*
G01*
X149830000Y-94535000D01*
G75*
G02*
X149755000Y-94610000I-75000J0D01*
G01*
X148430000Y-94610000D01*
G75*
G02*
X148355000Y-94535000I0J75000D01*
G01*
G37*
G36*
G01*
X148355000Y-94035000D02*
X148355000Y-93885000D01*
G75*
G02*
X148430000Y-93810000I75000J0D01*
G01*
X149755000Y-93810000D01*
G75*
G02*
X149830000Y-93885000I0J-75000D01*
G01*
X149830000Y-94035000D01*
G75*
G02*
X149755000Y-94110000I-75000J0D01*
G01*
X148430000Y-94110000D01*
G75*
G02*
X148355000Y-94035000I0J75000D01*
G01*
G37*
G36*
G01*
X148355000Y-93535000D02*
X148355000Y-93385000D01*
G75*
G02*
X148430000Y-93310000I75000J0D01*
G01*
X149755000Y-93310000D01*
G75*
G02*
X149830000Y-93385000I0J-75000D01*
G01*
X149830000Y-93535000D01*
G75*
G02*
X149755000Y-93610000I-75000J0D01*
G01*
X148430000Y-93610000D01*
G75*
G02*
X148355000Y-93535000I0J75000D01*
G01*
G37*
G36*
G01*
X148355000Y-93035000D02*
X148355000Y-92885000D01*
G75*
G02*
X148430000Y-92810000I75000J0D01*
G01*
X149755000Y-92810000D01*
G75*
G02*
X149830000Y-92885000I0J-75000D01*
G01*
X149830000Y-93035000D01*
G75*
G02*
X149755000Y-93110000I-75000J0D01*
G01*
X148430000Y-93110000D01*
G75*
G02*
X148355000Y-93035000I0J75000D01*
G01*
G37*
G36*
G01*
X148355000Y-92535000D02*
X148355000Y-92385000D01*
G75*
G02*
X148430000Y-92310000I75000J0D01*
G01*
X149755000Y-92310000D01*
G75*
G02*
X149830000Y-92385000I0J-75000D01*
G01*
X149830000Y-92535000D01*
G75*
G02*
X149755000Y-92610000I-75000J0D01*
G01*
X148430000Y-92610000D01*
G75*
G02*
X148355000Y-92535000I0J75000D01*
G01*
G37*
G36*
G01*
X148355000Y-92035000D02*
X148355000Y-91885000D01*
G75*
G02*
X148430000Y-91810000I75000J0D01*
G01*
X149755000Y-91810000D01*
G75*
G02*
X149830000Y-91885000I0J-75000D01*
G01*
X149830000Y-92035000D01*
G75*
G02*
X149755000Y-92110000I-75000J0D01*
G01*
X148430000Y-92110000D01*
G75*
G02*
X148355000Y-92035000I0J75000D01*
G01*
G37*
G36*
G01*
X148355000Y-91535000D02*
X148355000Y-91385000D01*
G75*
G02*
X148430000Y-91310000I75000J0D01*
G01*
X149755000Y-91310000D01*
G75*
G02*
X149830000Y-91385000I0J-75000D01*
G01*
X149830000Y-91535000D01*
G75*
G02*
X149755000Y-91610000I-75000J0D01*
G01*
X148430000Y-91610000D01*
G75*
G02*
X148355000Y-91535000I0J75000D01*
G01*
G37*
G36*
G01*
X148355000Y-91035000D02*
X148355000Y-90885000D01*
G75*
G02*
X148430000Y-90810000I75000J0D01*
G01*
X149755000Y-90810000D01*
G75*
G02*
X149830000Y-90885000I0J-75000D01*
G01*
X149830000Y-91035000D01*
G75*
G02*
X149755000Y-91110000I-75000J0D01*
G01*
X148430000Y-91110000D01*
G75*
G02*
X148355000Y-91035000I0J75000D01*
G01*
G37*
G36*
G01*
X148355000Y-90535000D02*
X148355000Y-90385000D01*
G75*
G02*
X148430000Y-90310000I75000J0D01*
G01*
X149755000Y-90310000D01*
G75*
G02*
X149830000Y-90385000I0J-75000D01*
G01*
X149830000Y-90535000D01*
G75*
G02*
X149755000Y-90610000I-75000J0D01*
G01*
X148430000Y-90610000D01*
G75*
G02*
X148355000Y-90535000I0J75000D01*
G01*
G37*
G36*
G01*
X148355000Y-90035000D02*
X148355000Y-89885000D01*
G75*
G02*
X148430000Y-89810000I75000J0D01*
G01*
X149755000Y-89810000D01*
G75*
G02*
X149830000Y-89885000I0J-75000D01*
G01*
X149830000Y-90035000D01*
G75*
G02*
X149755000Y-90110000I-75000J0D01*
G01*
X148430000Y-90110000D01*
G75*
G02*
X148355000Y-90035000I0J75000D01*
G01*
G37*
G36*
G01*
X148355000Y-89535000D02*
X148355000Y-89385000D01*
G75*
G02*
X148430000Y-89310000I75000J0D01*
G01*
X149755000Y-89310000D01*
G75*
G02*
X149830000Y-89385000I0J-75000D01*
G01*
X149830000Y-89535000D01*
G75*
G02*
X149755000Y-89610000I-75000J0D01*
G01*
X148430000Y-89610000D01*
G75*
G02*
X148355000Y-89535000I0J75000D01*
G01*
G37*
G36*
G01*
X148355000Y-89035000D02*
X148355000Y-88885000D01*
G75*
G02*
X148430000Y-88810000I75000J0D01*
G01*
X149755000Y-88810000D01*
G75*
G02*
X149830000Y-88885000I0J-75000D01*
G01*
X149830000Y-89035000D01*
G75*
G02*
X149755000Y-89110000I-75000J0D01*
G01*
X148430000Y-89110000D01*
G75*
G02*
X148355000Y-89035000I0J75000D01*
G01*
G37*
G36*
G01*
X148355000Y-88535000D02*
X148355000Y-88385000D01*
G75*
G02*
X148430000Y-88310000I75000J0D01*
G01*
X149755000Y-88310000D01*
G75*
G02*
X149830000Y-88385000I0J-75000D01*
G01*
X149830000Y-88535000D01*
G75*
G02*
X149755000Y-88610000I-75000J0D01*
G01*
X148430000Y-88610000D01*
G75*
G02*
X148355000Y-88535000I0J75000D01*
G01*
G37*
G36*
G01*
X148355000Y-88035000D02*
X148355000Y-87885000D01*
G75*
G02*
X148430000Y-87810000I75000J0D01*
G01*
X149755000Y-87810000D01*
G75*
G02*
X149830000Y-87885000I0J-75000D01*
G01*
X149830000Y-88035000D01*
G75*
G02*
X149755000Y-88110000I-75000J0D01*
G01*
X148430000Y-88110000D01*
G75*
G02*
X148355000Y-88035000I0J75000D01*
G01*
G37*
G36*
G01*
X148355000Y-87535000D02*
X148355000Y-87385000D01*
G75*
G02*
X148430000Y-87310000I75000J0D01*
G01*
X149755000Y-87310000D01*
G75*
G02*
X149830000Y-87385000I0J-75000D01*
G01*
X149830000Y-87535000D01*
G75*
G02*
X149755000Y-87610000I-75000J0D01*
G01*
X148430000Y-87610000D01*
G75*
G02*
X148355000Y-87535000I0J75000D01*
G01*
G37*
G36*
G01*
X148355000Y-87035000D02*
X148355000Y-86885000D01*
G75*
G02*
X148430000Y-86810000I75000J0D01*
G01*
X149755000Y-86810000D01*
G75*
G02*
X149830000Y-86885000I0J-75000D01*
G01*
X149830000Y-87035000D01*
G75*
G02*
X149755000Y-87110000I-75000J0D01*
G01*
X148430000Y-87110000D01*
G75*
G02*
X148355000Y-87035000I0J75000D01*
G01*
G37*
G36*
G01*
X148355000Y-86535000D02*
X148355000Y-86385000D01*
G75*
G02*
X148430000Y-86310000I75000J0D01*
G01*
X149755000Y-86310000D01*
G75*
G02*
X149830000Y-86385000I0J-75000D01*
G01*
X149830000Y-86535000D01*
G75*
G02*
X149755000Y-86610000I-75000J0D01*
G01*
X148430000Y-86610000D01*
G75*
G02*
X148355000Y-86535000I0J75000D01*
G01*
G37*
G36*
G01*
X148355000Y-86035000D02*
X148355000Y-85885000D01*
G75*
G02*
X148430000Y-85810000I75000J0D01*
G01*
X149755000Y-85810000D01*
G75*
G02*
X149830000Y-85885000I0J-75000D01*
G01*
X149830000Y-86035000D01*
G75*
G02*
X149755000Y-86110000I-75000J0D01*
G01*
X148430000Y-86110000D01*
G75*
G02*
X148355000Y-86035000I0J75000D01*
G01*
G37*
G36*
G01*
X148355000Y-85535000D02*
X148355000Y-85385000D01*
G75*
G02*
X148430000Y-85310000I75000J0D01*
G01*
X149755000Y-85310000D01*
G75*
G02*
X149830000Y-85385000I0J-75000D01*
G01*
X149830000Y-85535000D01*
G75*
G02*
X149755000Y-85610000I-75000J0D01*
G01*
X148430000Y-85610000D01*
G75*
G02*
X148355000Y-85535000I0J75000D01*
G01*
G37*
G36*
G01*
X148355000Y-85035000D02*
X148355000Y-84885000D01*
G75*
G02*
X148430000Y-84810000I75000J0D01*
G01*
X149755000Y-84810000D01*
G75*
G02*
X149830000Y-84885000I0J-75000D01*
G01*
X149830000Y-85035000D01*
G75*
G02*
X149755000Y-85110000I-75000J0D01*
G01*
X148430000Y-85110000D01*
G75*
G02*
X148355000Y-85035000I0J75000D01*
G01*
G37*
G36*
G01*
X148355000Y-84535000D02*
X148355000Y-84385000D01*
G75*
G02*
X148430000Y-84310000I75000J0D01*
G01*
X149755000Y-84310000D01*
G75*
G02*
X149830000Y-84385000I0J-75000D01*
G01*
X149830000Y-84535000D01*
G75*
G02*
X149755000Y-84610000I-75000J0D01*
G01*
X148430000Y-84610000D01*
G75*
G02*
X148355000Y-84535000I0J75000D01*
G01*
G37*
G36*
G01*
X148355000Y-84035000D02*
X148355000Y-83885000D01*
G75*
G02*
X148430000Y-83810000I75000J0D01*
G01*
X149755000Y-83810000D01*
G75*
G02*
X149830000Y-83885000I0J-75000D01*
G01*
X149830000Y-84035000D01*
G75*
G02*
X149755000Y-84110000I-75000J0D01*
G01*
X148430000Y-84110000D01*
G75*
G02*
X148355000Y-84035000I0J75000D01*
G01*
G37*
G36*
G01*
X147030000Y-82710000D02*
X147030000Y-81385000D01*
G75*
G02*
X147105000Y-81310000I75000J0D01*
G01*
X147255000Y-81310000D01*
G75*
G02*
X147330000Y-81385000I0J-75000D01*
G01*
X147330000Y-82710000D01*
G75*
G02*
X147255000Y-82785000I-75000J0D01*
G01*
X147105000Y-82785000D01*
G75*
G02*
X147030000Y-82710000I0J75000D01*
G01*
G37*
G36*
G01*
X146530000Y-82710000D02*
X146530000Y-81385000D01*
G75*
G02*
X146605000Y-81310000I75000J0D01*
G01*
X146755000Y-81310000D01*
G75*
G02*
X146830000Y-81385000I0J-75000D01*
G01*
X146830000Y-82710000D01*
G75*
G02*
X146755000Y-82785000I-75000J0D01*
G01*
X146605000Y-82785000D01*
G75*
G02*
X146530000Y-82710000I0J75000D01*
G01*
G37*
G36*
G01*
X146030000Y-82710000D02*
X146030000Y-81385000D01*
G75*
G02*
X146105000Y-81310000I75000J0D01*
G01*
X146255000Y-81310000D01*
G75*
G02*
X146330000Y-81385000I0J-75000D01*
G01*
X146330000Y-82710000D01*
G75*
G02*
X146255000Y-82785000I-75000J0D01*
G01*
X146105000Y-82785000D01*
G75*
G02*
X146030000Y-82710000I0J75000D01*
G01*
G37*
G36*
G01*
X145530000Y-82710000D02*
X145530000Y-81385000D01*
G75*
G02*
X145605000Y-81310000I75000J0D01*
G01*
X145755000Y-81310000D01*
G75*
G02*
X145830000Y-81385000I0J-75000D01*
G01*
X145830000Y-82710000D01*
G75*
G02*
X145755000Y-82785000I-75000J0D01*
G01*
X145605000Y-82785000D01*
G75*
G02*
X145530000Y-82710000I0J75000D01*
G01*
G37*
G36*
G01*
X145030000Y-82710000D02*
X145030000Y-81385000D01*
G75*
G02*
X145105000Y-81310000I75000J0D01*
G01*
X145255000Y-81310000D01*
G75*
G02*
X145330000Y-81385000I0J-75000D01*
G01*
X145330000Y-82710000D01*
G75*
G02*
X145255000Y-82785000I-75000J0D01*
G01*
X145105000Y-82785000D01*
G75*
G02*
X145030000Y-82710000I0J75000D01*
G01*
G37*
G36*
G01*
X144530000Y-82710000D02*
X144530000Y-81385000D01*
G75*
G02*
X144605000Y-81310000I75000J0D01*
G01*
X144755000Y-81310000D01*
G75*
G02*
X144830000Y-81385000I0J-75000D01*
G01*
X144830000Y-82710000D01*
G75*
G02*
X144755000Y-82785000I-75000J0D01*
G01*
X144605000Y-82785000D01*
G75*
G02*
X144530000Y-82710000I0J75000D01*
G01*
G37*
G36*
G01*
X144030000Y-82710000D02*
X144030000Y-81385000D01*
G75*
G02*
X144105000Y-81310000I75000J0D01*
G01*
X144255000Y-81310000D01*
G75*
G02*
X144330000Y-81385000I0J-75000D01*
G01*
X144330000Y-82710000D01*
G75*
G02*
X144255000Y-82785000I-75000J0D01*
G01*
X144105000Y-82785000D01*
G75*
G02*
X144030000Y-82710000I0J75000D01*
G01*
G37*
G36*
G01*
X143530000Y-82710000D02*
X143530000Y-81385000D01*
G75*
G02*
X143605000Y-81310000I75000J0D01*
G01*
X143755000Y-81310000D01*
G75*
G02*
X143830000Y-81385000I0J-75000D01*
G01*
X143830000Y-82710000D01*
G75*
G02*
X143755000Y-82785000I-75000J0D01*
G01*
X143605000Y-82785000D01*
G75*
G02*
X143530000Y-82710000I0J75000D01*
G01*
G37*
G36*
G01*
X143030000Y-82710000D02*
X143030000Y-81385000D01*
G75*
G02*
X143105000Y-81310000I75000J0D01*
G01*
X143255000Y-81310000D01*
G75*
G02*
X143330000Y-81385000I0J-75000D01*
G01*
X143330000Y-82710000D01*
G75*
G02*
X143255000Y-82785000I-75000J0D01*
G01*
X143105000Y-82785000D01*
G75*
G02*
X143030000Y-82710000I0J75000D01*
G01*
G37*
G36*
G01*
X142530000Y-82710000D02*
X142530000Y-81385000D01*
G75*
G02*
X142605000Y-81310000I75000J0D01*
G01*
X142755000Y-81310000D01*
G75*
G02*
X142830000Y-81385000I0J-75000D01*
G01*
X142830000Y-82710000D01*
G75*
G02*
X142755000Y-82785000I-75000J0D01*
G01*
X142605000Y-82785000D01*
G75*
G02*
X142530000Y-82710000I0J75000D01*
G01*
G37*
G36*
G01*
X142030000Y-82710000D02*
X142030000Y-81385000D01*
G75*
G02*
X142105000Y-81310000I75000J0D01*
G01*
X142255000Y-81310000D01*
G75*
G02*
X142330000Y-81385000I0J-75000D01*
G01*
X142330000Y-82710000D01*
G75*
G02*
X142255000Y-82785000I-75000J0D01*
G01*
X142105000Y-82785000D01*
G75*
G02*
X142030000Y-82710000I0J75000D01*
G01*
G37*
G36*
G01*
X141530000Y-82710000D02*
X141530000Y-81385000D01*
G75*
G02*
X141605000Y-81310000I75000J0D01*
G01*
X141755000Y-81310000D01*
G75*
G02*
X141830000Y-81385000I0J-75000D01*
G01*
X141830000Y-82710000D01*
G75*
G02*
X141755000Y-82785000I-75000J0D01*
G01*
X141605000Y-82785000D01*
G75*
G02*
X141530000Y-82710000I0J75000D01*
G01*
G37*
G36*
G01*
X141030000Y-82710000D02*
X141030000Y-81385000D01*
G75*
G02*
X141105000Y-81310000I75000J0D01*
G01*
X141255000Y-81310000D01*
G75*
G02*
X141330000Y-81385000I0J-75000D01*
G01*
X141330000Y-82710000D01*
G75*
G02*
X141255000Y-82785000I-75000J0D01*
G01*
X141105000Y-82785000D01*
G75*
G02*
X141030000Y-82710000I0J75000D01*
G01*
G37*
G36*
G01*
X140530000Y-82710000D02*
X140530000Y-81385000D01*
G75*
G02*
X140605000Y-81310000I75000J0D01*
G01*
X140755000Y-81310000D01*
G75*
G02*
X140830000Y-81385000I0J-75000D01*
G01*
X140830000Y-82710000D01*
G75*
G02*
X140755000Y-82785000I-75000J0D01*
G01*
X140605000Y-82785000D01*
G75*
G02*
X140530000Y-82710000I0J75000D01*
G01*
G37*
G36*
G01*
X140030000Y-82710000D02*
X140030000Y-81385000D01*
G75*
G02*
X140105000Y-81310000I75000J0D01*
G01*
X140255000Y-81310000D01*
G75*
G02*
X140330000Y-81385000I0J-75000D01*
G01*
X140330000Y-82710000D01*
G75*
G02*
X140255000Y-82785000I-75000J0D01*
G01*
X140105000Y-82785000D01*
G75*
G02*
X140030000Y-82710000I0J75000D01*
G01*
G37*
G36*
G01*
X139530000Y-82710000D02*
X139530000Y-81385000D01*
G75*
G02*
X139605000Y-81310000I75000J0D01*
G01*
X139755000Y-81310000D01*
G75*
G02*
X139830000Y-81385000I0J-75000D01*
G01*
X139830000Y-82710000D01*
G75*
G02*
X139755000Y-82785000I-75000J0D01*
G01*
X139605000Y-82785000D01*
G75*
G02*
X139530000Y-82710000I0J75000D01*
G01*
G37*
G36*
G01*
X139030000Y-82710000D02*
X139030000Y-81385000D01*
G75*
G02*
X139105000Y-81310000I75000J0D01*
G01*
X139255000Y-81310000D01*
G75*
G02*
X139330000Y-81385000I0J-75000D01*
G01*
X139330000Y-82710000D01*
G75*
G02*
X139255000Y-82785000I-75000J0D01*
G01*
X139105000Y-82785000D01*
G75*
G02*
X139030000Y-82710000I0J75000D01*
G01*
G37*
G36*
G01*
X138530000Y-82710000D02*
X138530000Y-81385000D01*
G75*
G02*
X138605000Y-81310000I75000J0D01*
G01*
X138755000Y-81310000D01*
G75*
G02*
X138830000Y-81385000I0J-75000D01*
G01*
X138830000Y-82710000D01*
G75*
G02*
X138755000Y-82785000I-75000J0D01*
G01*
X138605000Y-82785000D01*
G75*
G02*
X138530000Y-82710000I0J75000D01*
G01*
G37*
G36*
G01*
X138030000Y-82710000D02*
X138030000Y-81385000D01*
G75*
G02*
X138105000Y-81310000I75000J0D01*
G01*
X138255000Y-81310000D01*
G75*
G02*
X138330000Y-81385000I0J-75000D01*
G01*
X138330000Y-82710000D01*
G75*
G02*
X138255000Y-82785000I-75000J0D01*
G01*
X138105000Y-82785000D01*
G75*
G02*
X138030000Y-82710000I0J75000D01*
G01*
G37*
G36*
G01*
X137530000Y-82710000D02*
X137530000Y-81385000D01*
G75*
G02*
X137605000Y-81310000I75000J0D01*
G01*
X137755000Y-81310000D01*
G75*
G02*
X137830000Y-81385000I0J-75000D01*
G01*
X137830000Y-82710000D01*
G75*
G02*
X137755000Y-82785000I-75000J0D01*
G01*
X137605000Y-82785000D01*
G75*
G02*
X137530000Y-82710000I0J75000D01*
G01*
G37*
G36*
G01*
X137030000Y-82710000D02*
X137030000Y-81385000D01*
G75*
G02*
X137105000Y-81310000I75000J0D01*
G01*
X137255000Y-81310000D01*
G75*
G02*
X137330000Y-81385000I0J-75000D01*
G01*
X137330000Y-82710000D01*
G75*
G02*
X137255000Y-82785000I-75000J0D01*
G01*
X137105000Y-82785000D01*
G75*
G02*
X137030000Y-82710000I0J75000D01*
G01*
G37*
G36*
G01*
X136530000Y-82710000D02*
X136530000Y-81385000D01*
G75*
G02*
X136605000Y-81310000I75000J0D01*
G01*
X136755000Y-81310000D01*
G75*
G02*
X136830000Y-81385000I0J-75000D01*
G01*
X136830000Y-82710000D01*
G75*
G02*
X136755000Y-82785000I-75000J0D01*
G01*
X136605000Y-82785000D01*
G75*
G02*
X136530000Y-82710000I0J75000D01*
G01*
G37*
G36*
G01*
X136030000Y-82710000D02*
X136030000Y-81385000D01*
G75*
G02*
X136105000Y-81310000I75000J0D01*
G01*
X136255000Y-81310000D01*
G75*
G02*
X136330000Y-81385000I0J-75000D01*
G01*
X136330000Y-82710000D01*
G75*
G02*
X136255000Y-82785000I-75000J0D01*
G01*
X136105000Y-82785000D01*
G75*
G02*
X136030000Y-82710000I0J75000D01*
G01*
G37*
G36*
G01*
X135530000Y-82710000D02*
X135530000Y-81385000D01*
G75*
G02*
X135605000Y-81310000I75000J0D01*
G01*
X135755000Y-81310000D01*
G75*
G02*
X135830000Y-81385000I0J-75000D01*
G01*
X135830000Y-82710000D01*
G75*
G02*
X135755000Y-82785000I-75000J0D01*
G01*
X135605000Y-82785000D01*
G75*
G02*
X135530000Y-82710000I0J75000D01*
G01*
G37*
G36*
G01*
X135030000Y-82710000D02*
X135030000Y-81385000D01*
G75*
G02*
X135105000Y-81310000I75000J0D01*
G01*
X135255000Y-81310000D01*
G75*
G02*
X135330000Y-81385000I0J-75000D01*
G01*
X135330000Y-82710000D01*
G75*
G02*
X135255000Y-82785000I-75000J0D01*
G01*
X135105000Y-82785000D01*
G75*
G02*
X135030000Y-82710000I0J75000D01*
G01*
G37*
G36*
G01*
X134530000Y-82710000D02*
X134530000Y-81385000D01*
G75*
G02*
X134605000Y-81310000I75000J0D01*
G01*
X134755000Y-81310000D01*
G75*
G02*
X134830000Y-81385000I0J-75000D01*
G01*
X134830000Y-82710000D01*
G75*
G02*
X134755000Y-82785000I-75000J0D01*
G01*
X134605000Y-82785000D01*
G75*
G02*
X134530000Y-82710000I0J75000D01*
G01*
G37*
G36*
G01*
X134030000Y-82710000D02*
X134030000Y-81385000D01*
G75*
G02*
X134105000Y-81310000I75000J0D01*
G01*
X134255000Y-81310000D01*
G75*
G02*
X134330000Y-81385000I0J-75000D01*
G01*
X134330000Y-82710000D01*
G75*
G02*
X134255000Y-82785000I-75000J0D01*
G01*
X134105000Y-82785000D01*
G75*
G02*
X134030000Y-82710000I0J75000D01*
G01*
G37*
G36*
G01*
X133530000Y-82710000D02*
X133530000Y-81385000D01*
G75*
G02*
X133605000Y-81310000I75000J0D01*
G01*
X133755000Y-81310000D01*
G75*
G02*
X133830000Y-81385000I0J-75000D01*
G01*
X133830000Y-82710000D01*
G75*
G02*
X133755000Y-82785000I-75000J0D01*
G01*
X133605000Y-82785000D01*
G75*
G02*
X133530000Y-82710000I0J75000D01*
G01*
G37*
G36*
G01*
X133030000Y-82710000D02*
X133030000Y-81385000D01*
G75*
G02*
X133105000Y-81310000I75000J0D01*
G01*
X133255000Y-81310000D01*
G75*
G02*
X133330000Y-81385000I0J-75000D01*
G01*
X133330000Y-82710000D01*
G75*
G02*
X133255000Y-82785000I-75000J0D01*
G01*
X133105000Y-82785000D01*
G75*
G02*
X133030000Y-82710000I0J75000D01*
G01*
G37*
G36*
G01*
X132530000Y-82710000D02*
X132530000Y-81385000D01*
G75*
G02*
X132605000Y-81310000I75000J0D01*
G01*
X132755000Y-81310000D01*
G75*
G02*
X132830000Y-81385000I0J-75000D01*
G01*
X132830000Y-82710000D01*
G75*
G02*
X132755000Y-82785000I-75000J0D01*
G01*
X132605000Y-82785000D01*
G75*
G02*
X132530000Y-82710000I0J75000D01*
G01*
G37*
G36*
G01*
X132030000Y-82710000D02*
X132030000Y-81385000D01*
G75*
G02*
X132105000Y-81310000I75000J0D01*
G01*
X132255000Y-81310000D01*
G75*
G02*
X132330000Y-81385000I0J-75000D01*
G01*
X132330000Y-82710000D01*
G75*
G02*
X132255000Y-82785000I-75000J0D01*
G01*
X132105000Y-82785000D01*
G75*
G02*
X132030000Y-82710000I0J75000D01*
G01*
G37*
G36*
G01*
X131530000Y-82710000D02*
X131530000Y-81385000D01*
G75*
G02*
X131605000Y-81310000I75000J0D01*
G01*
X131755000Y-81310000D01*
G75*
G02*
X131830000Y-81385000I0J-75000D01*
G01*
X131830000Y-82710000D01*
G75*
G02*
X131755000Y-82785000I-75000J0D01*
G01*
X131605000Y-82785000D01*
G75*
G02*
X131530000Y-82710000I0J75000D01*
G01*
G37*
G36*
G01*
X131030000Y-82710000D02*
X131030000Y-81385000D01*
G75*
G02*
X131105000Y-81310000I75000J0D01*
G01*
X131255000Y-81310000D01*
G75*
G02*
X131330000Y-81385000I0J-75000D01*
G01*
X131330000Y-82710000D01*
G75*
G02*
X131255000Y-82785000I-75000J0D01*
G01*
X131105000Y-82785000D01*
G75*
G02*
X131030000Y-82710000I0J75000D01*
G01*
G37*
G36*
G01*
X130530000Y-82710000D02*
X130530000Y-81385000D01*
G75*
G02*
X130605000Y-81310000I75000J0D01*
G01*
X130755000Y-81310000D01*
G75*
G02*
X130830000Y-81385000I0J-75000D01*
G01*
X130830000Y-82710000D01*
G75*
G02*
X130755000Y-82785000I-75000J0D01*
G01*
X130605000Y-82785000D01*
G75*
G02*
X130530000Y-82710000I0J75000D01*
G01*
G37*
G36*
G01*
X130030000Y-82710000D02*
X130030000Y-81385000D01*
G75*
G02*
X130105000Y-81310000I75000J0D01*
G01*
X130255000Y-81310000D01*
G75*
G02*
X130330000Y-81385000I0J-75000D01*
G01*
X130330000Y-82710000D01*
G75*
G02*
X130255000Y-82785000I-75000J0D01*
G01*
X130105000Y-82785000D01*
G75*
G02*
X130030000Y-82710000I0J75000D01*
G01*
G37*
G36*
G01*
X129530000Y-82710000D02*
X129530000Y-81385000D01*
G75*
G02*
X129605000Y-81310000I75000J0D01*
G01*
X129755000Y-81310000D01*
G75*
G02*
X129830000Y-81385000I0J-75000D01*
G01*
X129830000Y-82710000D01*
G75*
G02*
X129755000Y-82785000I-75000J0D01*
G01*
X129605000Y-82785000D01*
G75*
G02*
X129530000Y-82710000I0J75000D01*
G01*
G37*
%TD*%
D16*
%TO.C,SW2*%
X136250000Y-59430000D03*
X133250000Y-59430000D03*
X131750000Y-59430000D03*
D17*
X137650000Y-56570000D03*
X130350000Y-56570000D03*
X130350000Y-58780000D03*
X137650000Y-58780000D03*
%TD*%
D18*
%TO.C,Q1*%
X183300000Y-107150000D03*
X183300000Y-109050000D03*
X185300000Y-108100000D03*
%TD*%
%TO.C,L1*%
G36*
G01*
X165225000Y-104925000D02*
X165225000Y-107075000D01*
G75*
G02*
X164975000Y-107325000I-250000J0D01*
G01*
X164225000Y-107325000D01*
G75*
G02*
X163975000Y-107075000I0J250000D01*
G01*
X163975000Y-104925000D01*
G75*
G02*
X164225000Y-104675000I250000J0D01*
G01*
X164975000Y-104675000D01*
G75*
G02*
X165225000Y-104925000I0J-250000D01*
G01*
G37*
G36*
G01*
X168025000Y-104925000D02*
X168025000Y-107075000D01*
G75*
G02*
X167775000Y-107325000I-250000J0D01*
G01*
X167025000Y-107325000D01*
G75*
G02*
X166775000Y-107075000I0J250000D01*
G01*
X166775000Y-104925000D01*
G75*
G02*
X167025000Y-104675000I250000J0D01*
G01*
X167775000Y-104675000D01*
G75*
G02*
X168025000Y-104925000I0J-250000D01*
G01*
G37*
%TD*%
%TO.C,FB2*%
G36*
G01*
X184968750Y-101200000D02*
X185731250Y-101200000D01*
G75*
G02*
X185950000Y-101418750I0J-218750D01*
G01*
X185950000Y-101856250D01*
G75*
G02*
X185731250Y-102075000I-218750J0D01*
G01*
X184968750Y-102075000D01*
G75*
G02*
X184750000Y-101856250I0J218750D01*
G01*
X184750000Y-101418750D01*
G75*
G02*
X184968750Y-101200000I218750J0D01*
G01*
G37*
G36*
G01*
X184968750Y-103325000D02*
X185731250Y-103325000D01*
G75*
G02*
X185950000Y-103543750I0J-218750D01*
G01*
X185950000Y-103981250D01*
G75*
G02*
X185731250Y-104200000I-218750J0D01*
G01*
X184968750Y-104200000D01*
G75*
G02*
X184750000Y-103981250I0J218750D01*
G01*
X184750000Y-103543750D01*
G75*
G02*
X184968750Y-103325000I218750J0D01*
G01*
G37*
%TD*%
%TO.C,FB1*%
G36*
G01*
X120368750Y-104375000D02*
X121131250Y-104375000D01*
G75*
G02*
X121350000Y-104593750I0J-218750D01*
G01*
X121350000Y-105031250D01*
G75*
G02*
X121131250Y-105250000I-218750J0D01*
G01*
X120368750Y-105250000D01*
G75*
G02*
X120150000Y-105031250I0J218750D01*
G01*
X120150000Y-104593750D01*
G75*
G02*
X120368750Y-104375000I218750J0D01*
G01*
G37*
G36*
G01*
X120368750Y-102250000D02*
X121131250Y-102250000D01*
G75*
G02*
X121350000Y-102468750I0J-218750D01*
G01*
X121350000Y-102906250D01*
G75*
G02*
X121131250Y-103125000I-218750J0D01*
G01*
X120368750Y-103125000D01*
G75*
G02*
X120150000Y-102906250I0J218750D01*
G01*
X120150000Y-102468750D01*
G75*
G02*
X120368750Y-102250000I218750J0D01*
G01*
G37*
%TD*%
%TO.C,F1*%
G36*
G01*
X177475000Y-109425000D02*
X177475000Y-108175000D01*
G75*
G02*
X177725000Y-107925000I250000J0D01*
G01*
X178475000Y-107925000D01*
G75*
G02*
X178725000Y-108175000I0J-250000D01*
G01*
X178725000Y-109425000D01*
G75*
G02*
X178475000Y-109675000I-250000J0D01*
G01*
X177725000Y-109675000D01*
G75*
G02*
X177475000Y-109425000I0J250000D01*
G01*
G37*
G36*
G01*
X180275000Y-109425000D02*
X180275000Y-108175000D01*
G75*
G02*
X180525000Y-107925000I250000J0D01*
G01*
X181275000Y-107925000D01*
G75*
G02*
X181525000Y-108175000I0J-250000D01*
G01*
X181525000Y-109425000D01*
G75*
G02*
X181275000Y-109675000I-250000J0D01*
G01*
X180525000Y-109675000D01*
G75*
G02*
X180275000Y-109425000I0J250000D01*
G01*
G37*
%TD*%
%TO.C,C25*%
G36*
G01*
X161275000Y-107050000D02*
X162225000Y-107050000D01*
G75*
G02*
X162475000Y-107300000I0J-250000D01*
G01*
X162475000Y-107800000D01*
G75*
G02*
X162225000Y-108050000I-250000J0D01*
G01*
X161275000Y-108050000D01*
G75*
G02*
X161025000Y-107800000I0J250000D01*
G01*
X161025000Y-107300000D01*
G75*
G02*
X161275000Y-107050000I250000J0D01*
G01*
G37*
G36*
G01*
X161275000Y-108950000D02*
X162225000Y-108950000D01*
G75*
G02*
X162475000Y-109200000I0J-250000D01*
G01*
X162475000Y-109700000D01*
G75*
G02*
X162225000Y-109950000I-250000J0D01*
G01*
X161275000Y-109950000D01*
G75*
G02*
X161025000Y-109700000I0J250000D01*
G01*
X161025000Y-109200000D01*
G75*
G02*
X161275000Y-108950000I250000J0D01*
G01*
G37*
%TD*%
D12*
%TO.C,D1*%
X173100000Y-105250000D03*
X176400000Y-105250000D03*
%TD*%
%TO.C,R20*%
G36*
G01*
X158499999Y-84125000D02*
X159400001Y-84125000D01*
G75*
G02*
X159650000Y-84374999I0J-249999D01*
G01*
X159650000Y-84900001D01*
G75*
G02*
X159400001Y-85150000I-249999J0D01*
G01*
X158499999Y-85150000D01*
G75*
G02*
X158250000Y-84900001I0J249999D01*
G01*
X158250000Y-84374999D01*
G75*
G02*
X158499999Y-84125000I249999J0D01*
G01*
G37*
G36*
G01*
X158499999Y-85950000D02*
X159400001Y-85950000D01*
G75*
G02*
X159650000Y-86199999I0J-249999D01*
G01*
X159650000Y-86725001D01*
G75*
G02*
X159400001Y-86975000I-249999J0D01*
G01*
X158499999Y-86975000D01*
G75*
G02*
X158250000Y-86725001I0J249999D01*
G01*
X158250000Y-86199999D01*
G75*
G02*
X158499999Y-85950000I249999J0D01*
G01*
G37*
%TD*%
M02*
