%TF.GenerationSoftware,KiCad,Pcbnew,(5.1.12)-1*%
%TF.CreationDate,2022-03-21T20:12:08+01:00*%
%TF.ProjectId,TelemetryPrimePCB,54656c65-6d65-4747-9279-5072696d6550,rev?*%
%TF.SameCoordinates,Original*%
%TF.FileFunction,Paste,Bot*%
%TF.FilePolarity,Positive*%
%FSLAX46Y46*%
G04 Gerber Fmt 4.6, Leading zero omitted, Abs format (unit mm)*
G04 Created by KiCad (PCBNEW (5.1.12)-1) date 2022-03-21 20:12:08*
%MOMM*%
%LPD*%
G01*
G04 APERTURE LIST*
%ADD10R,0.650000X1.060000*%
%ADD11R,0.300000X1.450000*%
%ADD12R,0.600000X1.450000*%
%ADD13R,0.900000X1.200000*%
%ADD14R,1.450000X2.000000*%
%ADD15R,0.800000X1.500000*%
G04 APERTURE END LIST*
D10*
%TO.C,U6*%
X157000000Y-67350000D03*
X157950000Y-67350000D03*
X158900000Y-67350000D03*
X158900000Y-69550000D03*
X157000000Y-69550000D03*
X157950000Y-69550000D03*
%TD*%
%TO.C,R36*%
G36*
G01*
X176975000Y-60300001D02*
X176975000Y-59399999D01*
G75*
G02*
X177224999Y-59150000I249999J0D01*
G01*
X177750001Y-59150000D01*
G75*
G02*
X178000000Y-59399999I0J-249999D01*
G01*
X178000000Y-60300001D01*
G75*
G02*
X177750001Y-60550000I-249999J0D01*
G01*
X177224999Y-60550000D01*
G75*
G02*
X176975000Y-60300001I0J249999D01*
G01*
G37*
G36*
G01*
X178800000Y-60300001D02*
X178800000Y-59399999D01*
G75*
G02*
X179049999Y-59150000I249999J0D01*
G01*
X179575001Y-59150000D01*
G75*
G02*
X179825000Y-59399999I0J-249999D01*
G01*
X179825000Y-60300001D01*
G75*
G02*
X179575001Y-60550000I-249999J0D01*
G01*
X179049999Y-60550000D01*
G75*
G02*
X178800000Y-60300001I0J249999D01*
G01*
G37*
%TD*%
%TO.C,R35*%
G36*
G01*
X172000001Y-65850000D02*
X171099999Y-65850000D01*
G75*
G02*
X170850000Y-65600001I0J249999D01*
G01*
X170850000Y-65074999D01*
G75*
G02*
X171099999Y-64825000I249999J0D01*
G01*
X172000001Y-64825000D01*
G75*
G02*
X172250000Y-65074999I0J-249999D01*
G01*
X172250000Y-65600001D01*
G75*
G02*
X172000001Y-65850000I-249999J0D01*
G01*
G37*
G36*
G01*
X172000001Y-67675000D02*
X171099999Y-67675000D01*
G75*
G02*
X170850000Y-67425001I0J249999D01*
G01*
X170850000Y-66899999D01*
G75*
G02*
X171099999Y-66650000I249999J0D01*
G01*
X172000001Y-66650000D01*
G75*
G02*
X172250000Y-66899999I0J-249999D01*
G01*
X172250000Y-67425001D01*
G75*
G02*
X172000001Y-67675000I-249999J0D01*
G01*
G37*
%TD*%
%TO.C,R29*%
G36*
G01*
X160125000Y-65600001D02*
X160125000Y-64699999D01*
G75*
G02*
X160374999Y-64450000I249999J0D01*
G01*
X160900001Y-64450000D01*
G75*
G02*
X161150000Y-64699999I0J-249999D01*
G01*
X161150000Y-65600001D01*
G75*
G02*
X160900001Y-65850000I-249999J0D01*
G01*
X160374999Y-65850000D01*
G75*
G02*
X160125000Y-65600001I0J249999D01*
G01*
G37*
G36*
G01*
X161950000Y-65600001D02*
X161950000Y-64699999D01*
G75*
G02*
X162199999Y-64450000I249999J0D01*
G01*
X162725001Y-64450000D01*
G75*
G02*
X162975000Y-64699999I0J-249999D01*
G01*
X162975000Y-65600001D01*
G75*
G02*
X162725001Y-65850000I-249999J0D01*
G01*
X162199999Y-65850000D01*
G75*
G02*
X161950000Y-65600001I0J249999D01*
G01*
G37*
%TD*%
D11*
%TO.C,J7*%
X170450000Y-62795000D03*
X172450000Y-62795000D03*
X171950000Y-62795000D03*
X171450000Y-62795000D03*
X170950000Y-62795000D03*
X169950000Y-62795000D03*
X169450000Y-62795000D03*
X168950000Y-62795000D03*
D12*
X173950000Y-62795000D03*
X173150000Y-62795000D03*
X168250000Y-62795000D03*
X167450000Y-62795000D03*
X167450000Y-62795000D03*
X168250000Y-62795000D03*
X173150000Y-62795000D03*
X173950000Y-62795000D03*
%TD*%
D13*
%TO.C,D5*%
X184200000Y-61950000D03*
X180900000Y-61950000D03*
%TD*%
%TO.C,R25*%
G36*
G01*
X129125000Y-63900001D02*
X129125000Y-62999999D01*
G75*
G02*
X129374999Y-62750000I249999J0D01*
G01*
X129900001Y-62750000D01*
G75*
G02*
X130150000Y-62999999I0J-249999D01*
G01*
X130150000Y-63900001D01*
G75*
G02*
X129900001Y-64150000I-249999J0D01*
G01*
X129374999Y-64150000D01*
G75*
G02*
X129125000Y-63900001I0J249999D01*
G01*
G37*
G36*
G01*
X130950000Y-63900001D02*
X130950000Y-62999999D01*
G75*
G02*
X131199999Y-62750000I249999J0D01*
G01*
X131725001Y-62750000D01*
G75*
G02*
X131975000Y-62999999I0J-249999D01*
G01*
X131975000Y-63900001D01*
G75*
G02*
X131725001Y-64150000I-249999J0D01*
G01*
X131199999Y-64150000D01*
G75*
G02*
X130950000Y-63900001I0J249999D01*
G01*
G37*
%TD*%
%TO.C,R24*%
G36*
G01*
X121450001Y-74175000D02*
X120549999Y-74175000D01*
G75*
G02*
X120300000Y-73925001I0J249999D01*
G01*
X120300000Y-73399999D01*
G75*
G02*
X120549999Y-73150000I249999J0D01*
G01*
X121450001Y-73150000D01*
G75*
G02*
X121700000Y-73399999I0J-249999D01*
G01*
X121700000Y-73925001D01*
G75*
G02*
X121450001Y-74175000I-249999J0D01*
G01*
G37*
G36*
G01*
X121450001Y-72350000D02*
X120549999Y-72350000D01*
G75*
G02*
X120300000Y-72100001I0J249999D01*
G01*
X120300000Y-71574999D01*
G75*
G02*
X120549999Y-71325000I249999J0D01*
G01*
X121450001Y-71325000D01*
G75*
G02*
X121700000Y-71574999I0J-249999D01*
G01*
X121700000Y-72100001D01*
G75*
G02*
X121450001Y-72350000I-249999J0D01*
G01*
G37*
%TD*%
%TO.C,R23*%
G36*
G01*
X125200001Y-72350000D02*
X124299999Y-72350000D01*
G75*
G02*
X124050000Y-72100001I0J249999D01*
G01*
X124050000Y-71574999D01*
G75*
G02*
X124299999Y-71325000I249999J0D01*
G01*
X125200001Y-71325000D01*
G75*
G02*
X125450000Y-71574999I0J-249999D01*
G01*
X125450000Y-72100001D01*
G75*
G02*
X125200001Y-72350000I-249999J0D01*
G01*
G37*
G36*
G01*
X125200001Y-74175000D02*
X124299999Y-74175000D01*
G75*
G02*
X124050000Y-73925001I0J249999D01*
G01*
X124050000Y-73399999D01*
G75*
G02*
X124299999Y-73150000I249999J0D01*
G01*
X125200001Y-73150000D01*
G75*
G02*
X125450000Y-73399999I0J-249999D01*
G01*
X125450000Y-73925001D01*
G75*
G02*
X125200001Y-74175000I-249999J0D01*
G01*
G37*
%TD*%
%TO.C,R26*%
G36*
G01*
X113549999Y-71325000D02*
X114450001Y-71325000D01*
G75*
G02*
X114700000Y-71574999I0J-249999D01*
G01*
X114700000Y-72100001D01*
G75*
G02*
X114450001Y-72350000I-249999J0D01*
G01*
X113549999Y-72350000D01*
G75*
G02*
X113300000Y-72100001I0J249999D01*
G01*
X113300000Y-71574999D01*
G75*
G02*
X113549999Y-71325000I249999J0D01*
G01*
G37*
G36*
G01*
X113549999Y-73150000D02*
X114450001Y-73150000D01*
G75*
G02*
X114700000Y-73399999I0J-249999D01*
G01*
X114700000Y-73925001D01*
G75*
G02*
X114450001Y-74175000I-249999J0D01*
G01*
X113549999Y-74175000D01*
G75*
G02*
X113300000Y-73925001I0J249999D01*
G01*
X113300000Y-73399999D01*
G75*
G02*
X113549999Y-73150000I249999J0D01*
G01*
G37*
%TD*%
D14*
%TO.C,J6*%
X113875000Y-58350000D03*
X127625000Y-58350000D03*
X127625000Y-66650000D03*
X113875000Y-66650000D03*
D15*
X116250000Y-60950000D03*
X117350000Y-60950000D03*
X118450000Y-60950000D03*
X119550000Y-60950000D03*
X120650000Y-60950000D03*
X121750000Y-60950000D03*
X122850000Y-60950000D03*
X123950000Y-60950000D03*
%TD*%
%TO.C,R27*%
G36*
G01*
X117950001Y-72350000D02*
X117049999Y-72350000D01*
G75*
G02*
X116800000Y-72100001I0J249999D01*
G01*
X116800000Y-71574999D01*
G75*
G02*
X117049999Y-71325000I249999J0D01*
G01*
X117950001Y-71325000D01*
G75*
G02*
X118200000Y-71574999I0J-249999D01*
G01*
X118200000Y-72100001D01*
G75*
G02*
X117950001Y-72350000I-249999J0D01*
G01*
G37*
G36*
G01*
X117950001Y-74175000D02*
X117049999Y-74175000D01*
G75*
G02*
X116800000Y-73925001I0J249999D01*
G01*
X116800000Y-73399999D01*
G75*
G02*
X117049999Y-73150000I249999J0D01*
G01*
X117950001Y-73150000D01*
G75*
G02*
X118200000Y-73399999I0J-249999D01*
G01*
X118200000Y-73925001D01*
G75*
G02*
X117950001Y-74175000I-249999J0D01*
G01*
G37*
%TD*%
M02*
