%TF.GenerationSoftware,KiCad,Pcbnew,(5.1.12)-1*%
%TF.CreationDate,2022-05-05T18:44:07+02:00*%
%TF.ProjectId,telemetria tyl,74656c65-6d65-4747-9269-612074796c2e,rev?*%
%TF.SameCoordinates,Original*%
%TF.FileFunction,Copper,L1,Top*%
%TF.FilePolarity,Positive*%
%FSLAX46Y46*%
G04 Gerber Fmt 4.6, Leading zero omitted, Abs format (unit mm)*
G04 Created by KiCad (PCBNEW (5.1.12)-1) date 2022-05-05 18:44:07*
%MOMM*%
%LPD*%
G01*
G04 APERTURE LIST*
%TA.AperFunction,ComponentPad*%
%ADD10C,1.800000*%
%TD*%
%TA.AperFunction,ComponentPad*%
%ADD11C,4.000000*%
%TD*%
%TA.AperFunction,ComponentPad*%
%ADD12C,1.509000*%
%TD*%
%TA.AperFunction,ComponentPad*%
%ADD13C,3.555000*%
%TD*%
%TA.AperFunction,SMDPad,CuDef*%
%ADD14R,1.854500X2.286000*%
%TD*%
%TA.AperFunction,ComponentPad*%
%ADD15C,0.900000*%
%TD*%
%TA.AperFunction,ComponentPad*%
%ADD16C,10.000000*%
%TD*%
%TA.AperFunction,ComponentPad*%
%ADD17R,2.250000X2.250000*%
%TD*%
%TA.AperFunction,ComponentPad*%
%ADD18C,2.250000*%
%TD*%
%TA.AperFunction,ComponentPad*%
%ADD19C,5.100000*%
%TD*%
%TA.AperFunction,SMDPad,CuDef*%
%ADD20R,2.100000X1.800000*%
%TD*%
%TA.AperFunction,SMDPad,CuDef*%
%ADD21R,1.475000X0.450000*%
%TD*%
%TA.AperFunction,ComponentPad*%
%ADD22R,1.130000X1.130000*%
%TD*%
%TA.AperFunction,ComponentPad*%
%ADD23C,1.130000*%
%TD*%
%TA.AperFunction,ComponentPad*%
%ADD24R,1.700000X1.700000*%
%TD*%
%TA.AperFunction,ComponentPad*%
%ADD25O,1.700000X1.700000*%
%TD*%
%TA.AperFunction,ComponentPad*%
%ADD26R,1.390000X1.390000*%
%TD*%
%TA.AperFunction,ComponentPad*%
%ADD27C,1.390000*%
%TD*%
%TA.AperFunction,ComponentPad*%
%ADD28C,3.440000*%
%TD*%
%TA.AperFunction,SMDPad,CuDef*%
%ADD29R,1.200000X0.600000*%
%TD*%
%TA.AperFunction,SMDPad,CuDef*%
%ADD30R,1.100000X1.100000*%
%TD*%
%TA.AperFunction,ViaPad*%
%ADD31C,0.800000*%
%TD*%
%TA.AperFunction,Conductor*%
%ADD32C,0.300000*%
%TD*%
%TA.AperFunction,Conductor*%
%ADD33C,0.500000*%
%TD*%
%TA.AperFunction,Conductor*%
%ADD34C,0.250000*%
%TD*%
%TA.AperFunction,Conductor*%
%ADD35C,0.750000*%
%TD*%
G04 APERTURE END LIST*
D10*
%TO.P,RV1,3*%
%TO.N,+5V*%
X63420000Y-74930000D03*
%TO.P,RV1,2*%
%TO.N,Net-(IC4-Pad4)*%
X60920000Y-74930000D03*
%TO.P,RV1,1*%
%TO.N,GND*%
X58420000Y-74930000D03*
D11*
%TO.P,RV1,*%
%TO.N,*%
X65640000Y-81780000D03*
X56070000Y-81780000D03*
%TD*%
D12*
%TO.P,Mini_DIN_OUT1,1*%
%TO.N,V_OUT*%
X30480000Y-64770000D03*
%TO.P,Mini_DIN_OUT1,2*%
%TO.N,GND_SPK*%
X30480000Y-62170000D03*
%TO.P,Mini_DIN_OUT1,3*%
%TO.N,GND_MIC&ANC*%
X30480000Y-66820000D03*
%TO.P,Mini_DIN_OUT1,4*%
%TO.N,SPK+*%
X30480000Y-60120000D03*
%TO.P,Mini_DIN_OUT1,5*%
%TO.N,TX_DATA*%
X32970000Y-66820000D03*
%TO.P,Mini_DIN_OUT1,6*%
%TO.N,Net-(Mini_DIN_OUT1-Pad6)*%
X32970000Y-60120000D03*
D13*
%TO.P,Mini_DIN_OUT1,MH1*%
%TO.N,Net-(Mini_DIN_OUT1-PadMH1)*%
X27480000Y-70230000D03*
%TO.P,Mini_DIN_OUT1,MH2*%
%TO.N,Net-(Mini_DIN_OUT1-PadMH2)*%
X26670000Y-63470000D03*
%TO.P,Mini_DIN_OUT1,MH3*%
%TO.N,Net-(Mini_DIN_OUT1-PadMH3)*%
X27480000Y-56710000D03*
%TD*%
%TO.P,R8,2*%
%TO.N,Net-(PS2-Pad3)*%
%TA.AperFunction,SMDPad,CuDef*%
G36*
G01*
X55772000Y-38550001D02*
X55772000Y-37649999D01*
G75*
G02*
X56021999Y-37400000I249999J0D01*
G01*
X56722001Y-37400000D01*
G75*
G02*
X56972000Y-37649999I0J-249999D01*
G01*
X56972000Y-38550001D01*
G75*
G02*
X56722001Y-38800000I-249999J0D01*
G01*
X56021999Y-38800000D01*
G75*
G02*
X55772000Y-38550001I0J249999D01*
G01*
G37*
%TD.AperFunction*%
%TO.P,R8,1*%
%TO.N,+3V3*%
%TA.AperFunction,SMDPad,CuDef*%
G36*
G01*
X53772000Y-38550001D02*
X53772000Y-37649999D01*
G75*
G02*
X54021999Y-37400000I249999J0D01*
G01*
X54722001Y-37400000D01*
G75*
G02*
X54972000Y-37649999I0J-249999D01*
G01*
X54972000Y-38550001D01*
G75*
G02*
X54722001Y-38800000I-249999J0D01*
G01*
X54021999Y-38800000D01*
G75*
G02*
X53772000Y-38550001I0J249999D01*
G01*
G37*
%TD.AperFunction*%
%TD*%
%TO.P,R7,2*%
%TO.N,GND*%
%TA.AperFunction,SMDPad,CuDef*%
G36*
G01*
X54956000Y-35617999D02*
X54956000Y-36518001D01*
G75*
G02*
X54706001Y-36768000I-249999J0D01*
G01*
X54005999Y-36768000D01*
G75*
G02*
X53756000Y-36518001I0J249999D01*
G01*
X53756000Y-35617999D01*
G75*
G02*
X54005999Y-35368000I249999J0D01*
G01*
X54706001Y-35368000D01*
G75*
G02*
X54956000Y-35617999I0J-249999D01*
G01*
G37*
%TD.AperFunction*%
%TO.P,R7,1*%
%TO.N,Net-(PS2-Pad3)*%
%TA.AperFunction,SMDPad,CuDef*%
G36*
G01*
X56956000Y-35617999D02*
X56956000Y-36518001D01*
G75*
G02*
X56706001Y-36768000I-249999J0D01*
G01*
X56005999Y-36768000D01*
G75*
G02*
X55756000Y-36518001I0J249999D01*
G01*
X55756000Y-35617999D01*
G75*
G02*
X56005999Y-35368000I249999J0D01*
G01*
X56706001Y-35368000D01*
G75*
G02*
X56956000Y-35617999I0J-249999D01*
G01*
G37*
%TD.AperFunction*%
%TD*%
D14*
%TO.P,L2,2*%
%TO.N,+3V3*%
X54495750Y-29210000D03*
%TO.P,L2,1*%
%TO.N,Net-(C4-Pad1)*%
X58280250Y-29210000D03*
%TD*%
%TO.P,D6,2*%
%TO.N,GND*%
%TA.AperFunction,SMDPad,CuDef*%
G36*
G01*
X69529000Y-33724001D02*
X69529000Y-32823999D01*
G75*
G02*
X69778999Y-32574000I249999J0D01*
G01*
X70429001Y-32574000D01*
G75*
G02*
X70679000Y-32823999I0J-249999D01*
G01*
X70679000Y-33724001D01*
G75*
G02*
X70429001Y-33974000I-249999J0D01*
G01*
X69778999Y-33974000D01*
G75*
G02*
X69529000Y-33724001I0J249999D01*
G01*
G37*
%TD.AperFunction*%
%TO.P,D6,1*%
%TO.N,Net-(C4-Pad1)*%
%TA.AperFunction,SMDPad,CuDef*%
G36*
G01*
X67479000Y-33724001D02*
X67479000Y-32823999D01*
G75*
G02*
X67728999Y-32574000I249999J0D01*
G01*
X68379001Y-32574000D01*
G75*
G02*
X68629000Y-32823999I0J-249999D01*
G01*
X68629000Y-33724001D01*
G75*
G02*
X68379001Y-33974000I-249999J0D01*
G01*
X67728999Y-33974000D01*
G75*
G02*
X67479000Y-33724001I0J249999D01*
G01*
G37*
%TD.AperFunction*%
%TD*%
%TO.P,C7,2*%
%TO.N,GND*%
%TA.AperFunction,SMDPad,CuDef*%
G36*
G01*
X51250000Y-34765000D02*
X51250000Y-33815000D01*
G75*
G02*
X51500000Y-33565000I250000J0D01*
G01*
X52175000Y-33565000D01*
G75*
G02*
X52425000Y-33815000I0J-250000D01*
G01*
X52425000Y-34765000D01*
G75*
G02*
X52175000Y-35015000I-250000J0D01*
G01*
X51500000Y-35015000D01*
G75*
G02*
X51250000Y-34765000I0J250000D01*
G01*
G37*
%TD.AperFunction*%
%TO.P,C7,1*%
%TO.N,+3V3*%
%TA.AperFunction,SMDPad,CuDef*%
G36*
G01*
X49175000Y-34765000D02*
X49175000Y-33815000D01*
G75*
G02*
X49425000Y-33565000I250000J0D01*
G01*
X50100000Y-33565000D01*
G75*
G02*
X50350000Y-33815000I0J-250000D01*
G01*
X50350000Y-34765000D01*
G75*
G02*
X50100000Y-35015000I-250000J0D01*
G01*
X49425000Y-35015000D01*
G75*
G02*
X49175000Y-34765000I0J250000D01*
G01*
G37*
%TD.AperFunction*%
%TD*%
%TO.P,C4,2*%
%TO.N,Net-(C4-Pad2)*%
%TA.AperFunction,SMDPad,CuDef*%
G36*
G01*
X61758500Y-30259000D02*
X61758500Y-31209000D01*
G75*
G02*
X61508500Y-31459000I-250000J0D01*
G01*
X60833500Y-31459000D01*
G75*
G02*
X60583500Y-31209000I0J250000D01*
G01*
X60583500Y-30259000D01*
G75*
G02*
X60833500Y-30009000I250000J0D01*
G01*
X61508500Y-30009000D01*
G75*
G02*
X61758500Y-30259000I0J-250000D01*
G01*
G37*
%TD.AperFunction*%
%TO.P,C4,1*%
%TO.N,Net-(C4-Pad1)*%
%TA.AperFunction,SMDPad,CuDef*%
G36*
G01*
X63833500Y-30259000D02*
X63833500Y-31209000D01*
G75*
G02*
X63583500Y-31459000I-250000J0D01*
G01*
X62908500Y-31459000D01*
G75*
G02*
X62658500Y-31209000I0J250000D01*
G01*
X62658500Y-30259000D01*
G75*
G02*
X62908500Y-30009000I250000J0D01*
G01*
X63583500Y-30009000D01*
G75*
G02*
X63833500Y-30259000I0J-250000D01*
G01*
G37*
%TD.AperFunction*%
%TD*%
%TO.P,1k2,2*%
%TO.N,GND*%
%TA.AperFunction,SMDPad,CuDef*%
G36*
G01*
X76511999Y-56042000D02*
X77412001Y-56042000D01*
G75*
G02*
X77662000Y-56291999I0J-249999D01*
G01*
X77662000Y-56992001D01*
G75*
G02*
X77412001Y-57242000I-249999J0D01*
G01*
X76511999Y-57242000D01*
G75*
G02*
X76262000Y-56992001I0J249999D01*
G01*
X76262000Y-56291999D01*
G75*
G02*
X76511999Y-56042000I249999J0D01*
G01*
G37*
%TD.AperFunction*%
%TO.P,1k2,1*%
%TO.N,VSS_IN_2*%
%TA.AperFunction,SMDPad,CuDef*%
G36*
G01*
X76511999Y-54042000D02*
X77412001Y-54042000D01*
G75*
G02*
X77662000Y-54291999I0J-249999D01*
G01*
X77662000Y-54992001D01*
G75*
G02*
X77412001Y-55242000I-249999J0D01*
G01*
X76511999Y-55242000D01*
G75*
G02*
X76262000Y-54992001I0J249999D01*
G01*
X76262000Y-54291999D01*
G75*
G02*
X76511999Y-54042000I249999J0D01*
G01*
G37*
%TD.AperFunction*%
%TD*%
%TO.P,2.2uF2,2*%
%TO.N,Net-(2.2uF2-Pad2)*%
%TA.AperFunction,SMDPad,CuDef*%
G36*
G01*
X73185000Y-43376000D02*
X74135000Y-43376000D01*
G75*
G02*
X74385000Y-43626000I0J-250000D01*
G01*
X74385000Y-44301000D01*
G75*
G02*
X74135000Y-44551000I-250000J0D01*
G01*
X73185000Y-44551000D01*
G75*
G02*
X72935000Y-44301000I0J250000D01*
G01*
X72935000Y-43626000D01*
G75*
G02*
X73185000Y-43376000I250000J0D01*
G01*
G37*
%TD.AperFunction*%
%TO.P,2.2uF2,1*%
%TO.N,GND*%
%TA.AperFunction,SMDPad,CuDef*%
G36*
G01*
X73185000Y-41301000D02*
X74135000Y-41301000D01*
G75*
G02*
X74385000Y-41551000I0J-250000D01*
G01*
X74385000Y-42226000D01*
G75*
G02*
X74135000Y-42476000I-250000J0D01*
G01*
X73185000Y-42476000D01*
G75*
G02*
X72935000Y-42226000I0J250000D01*
G01*
X72935000Y-41551000D01*
G75*
G02*
X73185000Y-41301000I250000J0D01*
G01*
G37*
%TD.AperFunction*%
%TD*%
%TO.P,10k1,1*%
%TO.N,GND*%
%TA.AperFunction,SMDPad,CuDef*%
G36*
G01*
X66605999Y-38262000D02*
X67506001Y-38262000D01*
G75*
G02*
X67756000Y-38511999I0J-249999D01*
G01*
X67756000Y-39212001D01*
G75*
G02*
X67506001Y-39462000I-249999J0D01*
G01*
X66605999Y-39462000D01*
G75*
G02*
X66356000Y-39212001I0J249999D01*
G01*
X66356000Y-38511999D01*
G75*
G02*
X66605999Y-38262000I249999J0D01*
G01*
G37*
%TD.AperFunction*%
%TO.P,10k1,2*%
%TO.N,Net-(10k1-Pad2)*%
%TA.AperFunction,SMDPad,CuDef*%
G36*
G01*
X66605999Y-40262000D02*
X67506001Y-40262000D01*
G75*
G02*
X67756000Y-40511999I0J-249999D01*
G01*
X67756000Y-41212001D01*
G75*
G02*
X67506001Y-41462000I-249999J0D01*
G01*
X66605999Y-41462000D01*
G75*
G02*
X66356000Y-41212001I0J249999D01*
G01*
X66356000Y-40511999D01*
G75*
G02*
X66605999Y-40262000I249999J0D01*
G01*
G37*
%TD.AperFunction*%
%TD*%
%TO.P,1k1,1*%
%TO.N,VSS_IN_1*%
%TA.AperFunction,SMDPad,CuDef*%
G36*
G01*
X76511999Y-48708000D02*
X77412001Y-48708000D01*
G75*
G02*
X77662000Y-48957999I0J-249999D01*
G01*
X77662000Y-49658001D01*
G75*
G02*
X77412001Y-49908000I-249999J0D01*
G01*
X76511999Y-49908000D01*
G75*
G02*
X76262000Y-49658001I0J249999D01*
G01*
X76262000Y-48957999D01*
G75*
G02*
X76511999Y-48708000I249999J0D01*
G01*
G37*
%TD.AperFunction*%
%TO.P,1k1,2*%
%TO.N,GND*%
%TA.AperFunction,SMDPad,CuDef*%
G36*
G01*
X76511999Y-50708000D02*
X77412001Y-50708000D01*
G75*
G02*
X77662000Y-50957999I0J-249999D01*
G01*
X77662000Y-51658001D01*
G75*
G02*
X77412001Y-51908000I-249999J0D01*
G01*
X76511999Y-51908000D01*
G75*
G02*
X76262000Y-51658001I0J249999D01*
G01*
X76262000Y-50957999D01*
G75*
G02*
X76511999Y-50708000I249999J0D01*
G01*
G37*
%TD.AperFunction*%
%TD*%
%TO.P,2.2uF1,1*%
%TO.N,GND*%
%TA.AperFunction,SMDPad,CuDef*%
G36*
G01*
X70833000Y-62352500D02*
X69883000Y-62352500D01*
G75*
G02*
X69633000Y-62102500I0J250000D01*
G01*
X69633000Y-61427500D01*
G75*
G02*
X69883000Y-61177500I250000J0D01*
G01*
X70833000Y-61177500D01*
G75*
G02*
X71083000Y-61427500I0J-250000D01*
G01*
X71083000Y-62102500D01*
G75*
G02*
X70833000Y-62352500I-250000J0D01*
G01*
G37*
%TD.AperFunction*%
%TO.P,2.2uF1,2*%
%TO.N,Net-(2.2uF1-Pad2)*%
%TA.AperFunction,SMDPad,CuDef*%
G36*
G01*
X70833000Y-60277500D02*
X69883000Y-60277500D01*
G75*
G02*
X69633000Y-60027500I0J250000D01*
G01*
X69633000Y-59352500D01*
G75*
G02*
X69883000Y-59102500I250000J0D01*
G01*
X70833000Y-59102500D01*
G75*
G02*
X71083000Y-59352500I0J-250000D01*
G01*
X71083000Y-60027500D01*
G75*
G02*
X70833000Y-60277500I-250000J0D01*
G01*
G37*
%TD.AperFunction*%
%TD*%
%TO.P,C1,1*%
%TO.N,RCC_OSC_IN*%
%TA.AperFunction,SMDPad,CuDef*%
G36*
G01*
X53471500Y-52799000D02*
X53471500Y-51849000D01*
G75*
G02*
X53721500Y-51599000I250000J0D01*
G01*
X54396500Y-51599000D01*
G75*
G02*
X54646500Y-51849000I0J-250000D01*
G01*
X54646500Y-52799000D01*
G75*
G02*
X54396500Y-53049000I-250000J0D01*
G01*
X53721500Y-53049000D01*
G75*
G02*
X53471500Y-52799000I0J250000D01*
G01*
G37*
%TD.AperFunction*%
%TO.P,C1,2*%
%TO.N,GND*%
%TA.AperFunction,SMDPad,CuDef*%
G36*
G01*
X55546500Y-52799000D02*
X55546500Y-51849000D01*
G75*
G02*
X55796500Y-51599000I250000J0D01*
G01*
X56471500Y-51599000D01*
G75*
G02*
X56721500Y-51849000I0J-250000D01*
G01*
X56721500Y-52799000D01*
G75*
G02*
X56471500Y-53049000I-250000J0D01*
G01*
X55796500Y-53049000D01*
G75*
G02*
X55546500Y-52799000I0J250000D01*
G01*
G37*
%TD.AperFunction*%
%TD*%
%TO.P,C8,2*%
%TO.N,GND*%
%TA.AperFunction,SMDPad,CuDef*%
G36*
G01*
X51250000Y-37305000D02*
X51250000Y-36355000D01*
G75*
G02*
X51500000Y-36105000I250000J0D01*
G01*
X52175000Y-36105000D01*
G75*
G02*
X52425000Y-36355000I0J-250000D01*
G01*
X52425000Y-37305000D01*
G75*
G02*
X52175000Y-37555000I-250000J0D01*
G01*
X51500000Y-37555000D01*
G75*
G02*
X51250000Y-37305000I0J250000D01*
G01*
G37*
%TD.AperFunction*%
%TO.P,C8,1*%
%TO.N,+3V3*%
%TA.AperFunction,SMDPad,CuDef*%
G36*
G01*
X49175000Y-37305000D02*
X49175000Y-36355000D01*
G75*
G02*
X49425000Y-36105000I250000J0D01*
G01*
X50100000Y-36105000D01*
G75*
G02*
X50350000Y-36355000I0J-250000D01*
G01*
X50350000Y-37305000D01*
G75*
G02*
X50100000Y-37555000I-250000J0D01*
G01*
X49425000Y-37555000D01*
G75*
G02*
X49175000Y-37305000I0J250000D01*
G01*
G37*
%TD.AperFunction*%
%TD*%
%TO.P,C2,1*%
%TO.N,Net-(C2-Pad1)*%
%TA.AperFunction,SMDPad,CuDef*%
G36*
G01*
X56002500Y-44991000D02*
X56002500Y-45941000D01*
G75*
G02*
X55752500Y-46191000I-250000J0D01*
G01*
X55077500Y-46191000D01*
G75*
G02*
X54827500Y-45941000I0J250000D01*
G01*
X54827500Y-44991000D01*
G75*
G02*
X55077500Y-44741000I250000J0D01*
G01*
X55752500Y-44741000D01*
G75*
G02*
X56002500Y-44991000I0J-250000D01*
G01*
G37*
%TD.AperFunction*%
%TO.P,C2,2*%
%TO.N,GND*%
%TA.AperFunction,SMDPad,CuDef*%
G36*
G01*
X53927500Y-44991000D02*
X53927500Y-45941000D01*
G75*
G02*
X53677500Y-46191000I-250000J0D01*
G01*
X53002500Y-46191000D01*
G75*
G02*
X52752500Y-45941000I0J250000D01*
G01*
X52752500Y-44991000D01*
G75*
G02*
X53002500Y-44741000I250000J0D01*
G01*
X53677500Y-44741000D01*
G75*
G02*
X53927500Y-44991000I0J-250000D01*
G01*
G37*
%TD.AperFunction*%
%TD*%
%TO.P,D5,1*%
%TO.N,Net-(D5-Pad1)*%
%TA.AperFunction,SMDPad,CuDef*%
G36*
G01*
X68250000Y-70300001D02*
X68250000Y-69399999D01*
G75*
G02*
X68499999Y-69150000I249999J0D01*
G01*
X69150001Y-69150000D01*
G75*
G02*
X69400000Y-69399999I0J-249999D01*
G01*
X69400000Y-70300001D01*
G75*
G02*
X69150001Y-70550000I-249999J0D01*
G01*
X68499999Y-70550000D01*
G75*
G02*
X68250000Y-70300001I0J249999D01*
G01*
G37*
%TD.AperFunction*%
%TO.P,D5,2*%
%TO.N,+5V*%
%TA.AperFunction,SMDPad,CuDef*%
G36*
G01*
X70300000Y-70300001D02*
X70300000Y-69399999D01*
G75*
G02*
X70549999Y-69150000I249999J0D01*
G01*
X71200001Y-69150000D01*
G75*
G02*
X71450000Y-69399999I0J-249999D01*
G01*
X71450000Y-70300001D01*
G75*
G02*
X71200001Y-70550000I-249999J0D01*
G01*
X70549999Y-70550000D01*
G75*
G02*
X70300000Y-70300001I0J249999D01*
G01*
G37*
%TD.AperFunction*%
%TD*%
D15*
%TO.P,H4,1*%
%TO.N,GND*%
X90281650Y-22748350D03*
X87630000Y-21650000D03*
X84978350Y-22748350D03*
X83880000Y-25400000D03*
X84978350Y-28051650D03*
X87630000Y-29150000D03*
X90281650Y-28051650D03*
X91380000Y-25400000D03*
D16*
X87630000Y-25400000D03*
%TD*%
D15*
%TO.P,H2,1*%
%TO.N,GND*%
X38211650Y-23002350D03*
X35560000Y-21904000D03*
X32908350Y-23002350D03*
X31810000Y-25654000D03*
X32908350Y-28305650D03*
X35560000Y-29404000D03*
X38211650Y-28305650D03*
X39310000Y-25654000D03*
D16*
X35560000Y-25654000D03*
%TD*%
%TO.P,R11,1*%
%TO.N,Net-(D1-Pad1)*%
%TA.AperFunction,SMDPad,CuDef*%
G36*
G01*
X56328000Y-59124001D02*
X56328000Y-58223999D01*
G75*
G02*
X56577999Y-57974000I249999J0D01*
G01*
X57278001Y-57974000D01*
G75*
G02*
X57528000Y-58223999I0J-249999D01*
G01*
X57528000Y-59124001D01*
G75*
G02*
X57278001Y-59374000I-249999J0D01*
G01*
X56577999Y-59374000D01*
G75*
G02*
X56328000Y-59124001I0J249999D01*
G01*
G37*
%TD.AperFunction*%
%TO.P,R11,2*%
%TO.N,GND*%
%TA.AperFunction,SMDPad,CuDef*%
G36*
G01*
X58328000Y-59124001D02*
X58328000Y-58223999D01*
G75*
G02*
X58577999Y-57974000I249999J0D01*
G01*
X59278001Y-57974000D01*
G75*
G02*
X59528000Y-58223999I0J-249999D01*
G01*
X59528000Y-59124001D01*
G75*
G02*
X59278001Y-59374000I-249999J0D01*
G01*
X58577999Y-59374000D01*
G75*
G02*
X58328000Y-59124001I0J249999D01*
G01*
G37*
%TD.AperFunction*%
%TD*%
%TO.P,D3,2*%
%TO.N,+5V*%
%TA.AperFunction,SMDPad,CuDef*%
G36*
G01*
X74988000Y-69399999D02*
X74988000Y-70300001D01*
G75*
G02*
X74738001Y-70550000I-249999J0D01*
G01*
X74087999Y-70550000D01*
G75*
G02*
X73838000Y-70300001I0J249999D01*
G01*
X73838000Y-69399999D01*
G75*
G02*
X74087999Y-69150000I249999J0D01*
G01*
X74738001Y-69150000D01*
G75*
G02*
X74988000Y-69399999I0J-249999D01*
G01*
G37*
%TD.AperFunction*%
%TO.P,D3,1*%
%TO.N,Net-(D3-Pad1)*%
%TA.AperFunction,SMDPad,CuDef*%
G36*
G01*
X77038000Y-69399999D02*
X77038000Y-70300001D01*
G75*
G02*
X76788001Y-70550000I-249999J0D01*
G01*
X76137999Y-70550000D01*
G75*
G02*
X75888000Y-70300001I0J249999D01*
G01*
X75888000Y-69399999D01*
G75*
G02*
X76137999Y-69150000I249999J0D01*
G01*
X76788001Y-69150000D01*
G75*
G02*
X77038000Y-69399999I0J-249999D01*
G01*
G37*
%TD.AperFunction*%
%TD*%
%TO.P,H1,1*%
%TO.N,GND*%
X35560000Y-78740000D03*
D15*
X39310000Y-78740000D03*
X38211650Y-81391650D03*
X35560000Y-82490000D03*
X32908350Y-81391650D03*
X31810000Y-78740000D03*
X32908350Y-76088350D03*
X35560000Y-74990000D03*
X38211650Y-76088350D03*
%TD*%
%TO.P,U1,1*%
%TO.N,+3V3*%
%TA.AperFunction,SMDPad,CuDef*%
G36*
G01*
X60600920Y-46949740D02*
X60600920Y-46799740D01*
G75*
G02*
X60675920Y-46724740I75000J0D01*
G01*
X62075920Y-46724740D01*
G75*
G02*
X62150920Y-46799740I0J-75000D01*
G01*
X62150920Y-46949740D01*
G75*
G02*
X62075920Y-47024740I-75000J0D01*
G01*
X60675920Y-47024740D01*
G75*
G02*
X60600920Y-46949740I0J75000D01*
G01*
G37*
%TD.AperFunction*%
%TO.P,U1,2*%
%TO.N,Net-(U1-Pad2)*%
%TA.AperFunction,SMDPad,CuDef*%
G36*
G01*
X60600920Y-47449740D02*
X60600920Y-47299740D01*
G75*
G02*
X60675920Y-47224740I75000J0D01*
G01*
X62075920Y-47224740D01*
G75*
G02*
X62150920Y-47299740I0J-75000D01*
G01*
X62150920Y-47449740D01*
G75*
G02*
X62075920Y-47524740I-75000J0D01*
G01*
X60675920Y-47524740D01*
G75*
G02*
X60600920Y-47449740I0J75000D01*
G01*
G37*
%TD.AperFunction*%
%TO.P,U1,3*%
%TO.N,Net-(U1-Pad3)*%
%TA.AperFunction,SMDPad,CuDef*%
G36*
G01*
X60600920Y-47949740D02*
X60600920Y-47799740D01*
G75*
G02*
X60675920Y-47724740I75000J0D01*
G01*
X62075920Y-47724740D01*
G75*
G02*
X62150920Y-47799740I0J-75000D01*
G01*
X62150920Y-47949740D01*
G75*
G02*
X62075920Y-48024740I-75000J0D01*
G01*
X60675920Y-48024740D01*
G75*
G02*
X60600920Y-47949740I0J75000D01*
G01*
G37*
%TD.AperFunction*%
%TO.P,U1,4*%
%TO.N,Net-(U1-Pad4)*%
%TA.AperFunction,SMDPad,CuDef*%
G36*
G01*
X60600920Y-48449740D02*
X60600920Y-48299740D01*
G75*
G02*
X60675920Y-48224740I75000J0D01*
G01*
X62075920Y-48224740D01*
G75*
G02*
X62150920Y-48299740I0J-75000D01*
G01*
X62150920Y-48449740D01*
G75*
G02*
X62075920Y-48524740I-75000J0D01*
G01*
X60675920Y-48524740D01*
G75*
G02*
X60600920Y-48449740I0J75000D01*
G01*
G37*
%TD.AperFunction*%
%TO.P,U1,5*%
%TO.N,RCC_OSC_IN*%
%TA.AperFunction,SMDPad,CuDef*%
G36*
G01*
X60600920Y-48949740D02*
X60600920Y-48799740D01*
G75*
G02*
X60675920Y-48724740I75000J0D01*
G01*
X62075920Y-48724740D01*
G75*
G02*
X62150920Y-48799740I0J-75000D01*
G01*
X62150920Y-48949740D01*
G75*
G02*
X62075920Y-49024740I-75000J0D01*
G01*
X60675920Y-49024740D01*
G75*
G02*
X60600920Y-48949740I0J75000D01*
G01*
G37*
%TD.AperFunction*%
%TO.P,U1,6*%
%TO.N,RCC_OSC_OUT*%
%TA.AperFunction,SMDPad,CuDef*%
G36*
G01*
X60600920Y-49449740D02*
X60600920Y-49299740D01*
G75*
G02*
X60675920Y-49224740I75000J0D01*
G01*
X62075920Y-49224740D01*
G75*
G02*
X62150920Y-49299740I0J-75000D01*
G01*
X62150920Y-49449740D01*
G75*
G02*
X62075920Y-49524740I-75000J0D01*
G01*
X60675920Y-49524740D01*
G75*
G02*
X60600920Y-49449740I0J75000D01*
G01*
G37*
%TD.AperFunction*%
%TO.P,U1,7*%
%TO.N,NRST*%
%TA.AperFunction,SMDPad,CuDef*%
G36*
G01*
X60600920Y-49949740D02*
X60600920Y-49799740D01*
G75*
G02*
X60675920Y-49724740I75000J0D01*
G01*
X62075920Y-49724740D01*
G75*
G02*
X62150920Y-49799740I0J-75000D01*
G01*
X62150920Y-49949740D01*
G75*
G02*
X62075920Y-50024740I-75000J0D01*
G01*
X60675920Y-50024740D01*
G75*
G02*
X60600920Y-49949740I0J75000D01*
G01*
G37*
%TD.AperFunction*%
%TO.P,U1,8*%
%TO.N,PTT*%
%TA.AperFunction,SMDPad,CuDef*%
G36*
G01*
X60600920Y-50449740D02*
X60600920Y-50299740D01*
G75*
G02*
X60675920Y-50224740I75000J0D01*
G01*
X62075920Y-50224740D01*
G75*
G02*
X62150920Y-50299740I0J-75000D01*
G01*
X62150920Y-50449740D01*
G75*
G02*
X62075920Y-50524740I-75000J0D01*
G01*
X60675920Y-50524740D01*
G75*
G02*
X60600920Y-50449740I0J75000D01*
G01*
G37*
%TD.AperFunction*%
%TO.P,U1,9*%
%TO.N,Net-(U1-Pad9)*%
%TA.AperFunction,SMDPad,CuDef*%
G36*
G01*
X60600920Y-50949740D02*
X60600920Y-50799740D01*
G75*
G02*
X60675920Y-50724740I75000J0D01*
G01*
X62075920Y-50724740D01*
G75*
G02*
X62150920Y-50799740I0J-75000D01*
G01*
X62150920Y-50949740D01*
G75*
G02*
X62075920Y-51024740I-75000J0D01*
G01*
X60675920Y-51024740D01*
G75*
G02*
X60600920Y-50949740I0J75000D01*
G01*
G37*
%TD.AperFunction*%
%TO.P,U1,10*%
%TO.N,Net-(U1-Pad10)*%
%TA.AperFunction,SMDPad,CuDef*%
G36*
G01*
X60600920Y-51449740D02*
X60600920Y-51299740D01*
G75*
G02*
X60675920Y-51224740I75000J0D01*
G01*
X62075920Y-51224740D01*
G75*
G02*
X62150920Y-51299740I0J-75000D01*
G01*
X62150920Y-51449740D01*
G75*
G02*
X62075920Y-51524740I-75000J0D01*
G01*
X60675920Y-51524740D01*
G75*
G02*
X60600920Y-51449740I0J75000D01*
G01*
G37*
%TD.AperFunction*%
%TO.P,U1,11*%
%TO.N,Net-(U1-Pad11)*%
%TA.AperFunction,SMDPad,CuDef*%
G36*
G01*
X60600920Y-51949740D02*
X60600920Y-51799740D01*
G75*
G02*
X60675920Y-51724740I75000J0D01*
G01*
X62075920Y-51724740D01*
G75*
G02*
X62150920Y-51799740I0J-75000D01*
G01*
X62150920Y-51949740D01*
G75*
G02*
X62075920Y-52024740I-75000J0D01*
G01*
X60675920Y-52024740D01*
G75*
G02*
X60600920Y-51949740I0J75000D01*
G01*
G37*
%TD.AperFunction*%
%TO.P,U1,12*%
%TO.N,GND*%
%TA.AperFunction,SMDPad,CuDef*%
G36*
G01*
X60600920Y-52449740D02*
X60600920Y-52299740D01*
G75*
G02*
X60675920Y-52224740I75000J0D01*
G01*
X62075920Y-52224740D01*
G75*
G02*
X62150920Y-52299740I0J-75000D01*
G01*
X62150920Y-52449740D01*
G75*
G02*
X62075920Y-52524740I-75000J0D01*
G01*
X60675920Y-52524740D01*
G75*
G02*
X60600920Y-52449740I0J75000D01*
G01*
G37*
%TD.AperFunction*%
%TO.P,U1,13*%
%TO.N,+3.3VA*%
%TA.AperFunction,SMDPad,CuDef*%
G36*
G01*
X60600920Y-52949740D02*
X60600920Y-52799740D01*
G75*
G02*
X60675920Y-52724740I75000J0D01*
G01*
X62075920Y-52724740D01*
G75*
G02*
X62150920Y-52799740I0J-75000D01*
G01*
X62150920Y-52949740D01*
G75*
G02*
X62075920Y-53024740I-75000J0D01*
G01*
X60675920Y-53024740D01*
G75*
G02*
X60600920Y-52949740I0J75000D01*
G01*
G37*
%TD.AperFunction*%
%TO.P,U1,14*%
%TO.N,ADC1_IN0_AMORKI*%
%TA.AperFunction,SMDPad,CuDef*%
G36*
G01*
X60600920Y-53449740D02*
X60600920Y-53299740D01*
G75*
G02*
X60675920Y-53224740I75000J0D01*
G01*
X62075920Y-53224740D01*
G75*
G02*
X62150920Y-53299740I0J-75000D01*
G01*
X62150920Y-53449740D01*
G75*
G02*
X62075920Y-53524740I-75000J0D01*
G01*
X60675920Y-53524740D01*
G75*
G02*
X60600920Y-53449740I0J75000D01*
G01*
G37*
%TD.AperFunction*%
%TO.P,U1,15*%
%TO.N,ADC2_IN1_AMORKI*%
%TA.AperFunction,SMDPad,CuDef*%
G36*
G01*
X60600920Y-53949740D02*
X60600920Y-53799740D01*
G75*
G02*
X60675920Y-53724740I75000J0D01*
G01*
X62075920Y-53724740D01*
G75*
G02*
X62150920Y-53799740I0J-75000D01*
G01*
X62150920Y-53949740D01*
G75*
G02*
X62075920Y-54024740I-75000J0D01*
G01*
X60675920Y-54024740D01*
G75*
G02*
X60600920Y-53949740I0J75000D01*
G01*
G37*
%TD.AperFunction*%
%TO.P,U1,16*%
%TO.N,LED_STATUS*%
%TA.AperFunction,SMDPad,CuDef*%
G36*
G01*
X60600920Y-54449740D02*
X60600920Y-54299740D01*
G75*
G02*
X60675920Y-54224740I75000J0D01*
G01*
X62075920Y-54224740D01*
G75*
G02*
X62150920Y-54299740I0J-75000D01*
G01*
X62150920Y-54449740D01*
G75*
G02*
X62075920Y-54524740I-75000J0D01*
G01*
X60675920Y-54524740D01*
G75*
G02*
X60600920Y-54449740I0J75000D01*
G01*
G37*
%TD.AperFunction*%
%TO.P,U1,17*%
%TO.N,BREAK_PRESSURE_0*%
%TA.AperFunction,SMDPad,CuDef*%
G36*
G01*
X63150920Y-56999740D02*
X63150920Y-55599740D01*
G75*
G02*
X63225920Y-55524740I75000J0D01*
G01*
X63375920Y-55524740D01*
G75*
G02*
X63450920Y-55599740I0J-75000D01*
G01*
X63450920Y-56999740D01*
G75*
G02*
X63375920Y-57074740I-75000J0D01*
G01*
X63225920Y-57074740D01*
G75*
G02*
X63150920Y-56999740I0J75000D01*
G01*
G37*
%TD.AperFunction*%
%TO.P,U1,18*%
%TO.N,GND*%
%TA.AperFunction,SMDPad,CuDef*%
G36*
G01*
X63650920Y-56999740D02*
X63650920Y-55599740D01*
G75*
G02*
X63725920Y-55524740I75000J0D01*
G01*
X63875920Y-55524740D01*
G75*
G02*
X63950920Y-55599740I0J-75000D01*
G01*
X63950920Y-56999740D01*
G75*
G02*
X63875920Y-57074740I-75000J0D01*
G01*
X63725920Y-57074740D01*
G75*
G02*
X63650920Y-56999740I0J75000D01*
G01*
G37*
%TD.AperFunction*%
%TO.P,U1,19*%
%TO.N,+3V3*%
%TA.AperFunction,SMDPad,CuDef*%
G36*
G01*
X64150920Y-56999740D02*
X64150920Y-55599740D01*
G75*
G02*
X64225920Y-55524740I75000J0D01*
G01*
X64375920Y-55524740D01*
G75*
G02*
X64450920Y-55599740I0J-75000D01*
G01*
X64450920Y-56999740D01*
G75*
G02*
X64375920Y-57074740I-75000J0D01*
G01*
X64225920Y-57074740D01*
G75*
G02*
X64150920Y-56999740I0J75000D01*
G01*
G37*
%TD.AperFunction*%
%TO.P,U1,20*%
%TO.N,BREAK_PRESSURE_ADC*%
%TA.AperFunction,SMDPad,CuDef*%
G36*
G01*
X64650920Y-56999740D02*
X64650920Y-55599740D01*
G75*
G02*
X64725920Y-55524740I75000J0D01*
G01*
X64875920Y-55524740D01*
G75*
G02*
X64950920Y-55599740I0J-75000D01*
G01*
X64950920Y-56999740D01*
G75*
G02*
X64875920Y-57074740I-75000J0D01*
G01*
X64725920Y-57074740D01*
G75*
G02*
X64650920Y-56999740I0J75000D01*
G01*
G37*
%TD.AperFunction*%
%TO.P,U1,21*%
%TO.N,TIM2_ETR*%
%TA.AperFunction,SMDPad,CuDef*%
G36*
G01*
X65150920Y-56999740D02*
X65150920Y-55599740D01*
G75*
G02*
X65225920Y-55524740I75000J0D01*
G01*
X65375920Y-55524740D01*
G75*
G02*
X65450920Y-55599740I0J-75000D01*
G01*
X65450920Y-56999740D01*
G75*
G02*
X65375920Y-57074740I-75000J0D01*
G01*
X65225920Y-57074740D01*
G75*
G02*
X65150920Y-56999740I0J75000D01*
G01*
G37*
%TD.AperFunction*%
%TO.P,U1,22*%
%TO.N,TIM3_ETR*%
%TA.AperFunction,SMDPad,CuDef*%
G36*
G01*
X65650920Y-56999740D02*
X65650920Y-55599740D01*
G75*
G02*
X65725920Y-55524740I75000J0D01*
G01*
X65875920Y-55524740D01*
G75*
G02*
X65950920Y-55599740I0J-75000D01*
G01*
X65950920Y-56999740D01*
G75*
G02*
X65875920Y-57074740I-75000J0D01*
G01*
X65725920Y-57074740D01*
G75*
G02*
X65650920Y-56999740I0J75000D01*
G01*
G37*
%TD.AperFunction*%
%TO.P,U1,23*%
%TO.N,Net-(U1-Pad23)*%
%TA.AperFunction,SMDPad,CuDef*%
G36*
G01*
X66150920Y-56999740D02*
X66150920Y-55599740D01*
G75*
G02*
X66225920Y-55524740I75000J0D01*
G01*
X66375920Y-55524740D01*
G75*
G02*
X66450920Y-55599740I0J-75000D01*
G01*
X66450920Y-56999740D01*
G75*
G02*
X66375920Y-57074740I-75000J0D01*
G01*
X66225920Y-57074740D01*
G75*
G02*
X66150920Y-56999740I0J75000D01*
G01*
G37*
%TD.AperFunction*%
%TO.P,U1,24*%
%TO.N,Net-(U1-Pad24)*%
%TA.AperFunction,SMDPad,CuDef*%
G36*
G01*
X66650920Y-56999740D02*
X66650920Y-55599740D01*
G75*
G02*
X66725920Y-55524740I75000J0D01*
G01*
X66875920Y-55524740D01*
G75*
G02*
X66950920Y-55599740I0J-75000D01*
G01*
X66950920Y-56999740D01*
G75*
G02*
X66875920Y-57074740I-75000J0D01*
G01*
X66725920Y-57074740D01*
G75*
G02*
X66650920Y-56999740I0J75000D01*
G01*
G37*
%TD.AperFunction*%
%TO.P,U1,25*%
%TO.N,Net-(U1-Pad25)*%
%TA.AperFunction,SMDPad,CuDef*%
G36*
G01*
X67150920Y-56999740D02*
X67150920Y-55599740D01*
G75*
G02*
X67225920Y-55524740I75000J0D01*
G01*
X67375920Y-55524740D01*
G75*
G02*
X67450920Y-55599740I0J-75000D01*
G01*
X67450920Y-56999740D01*
G75*
G02*
X67375920Y-57074740I-75000J0D01*
G01*
X67225920Y-57074740D01*
G75*
G02*
X67150920Y-56999740I0J75000D01*
G01*
G37*
%TD.AperFunction*%
%TO.P,U1,26*%
%TO.N,Net-(U1-Pad26)*%
%TA.AperFunction,SMDPad,CuDef*%
G36*
G01*
X67650920Y-56999740D02*
X67650920Y-55599740D01*
G75*
G02*
X67725920Y-55524740I75000J0D01*
G01*
X67875920Y-55524740D01*
G75*
G02*
X67950920Y-55599740I0J-75000D01*
G01*
X67950920Y-56999740D01*
G75*
G02*
X67875920Y-57074740I-75000J0D01*
G01*
X67725920Y-57074740D01*
G75*
G02*
X67650920Y-56999740I0J75000D01*
G01*
G37*
%TD.AperFunction*%
%TO.P,U1,27*%
%TO.N,Net-(U1-Pad27)*%
%TA.AperFunction,SMDPad,CuDef*%
G36*
G01*
X68150920Y-56999740D02*
X68150920Y-55599740D01*
G75*
G02*
X68225920Y-55524740I75000J0D01*
G01*
X68375920Y-55524740D01*
G75*
G02*
X68450920Y-55599740I0J-75000D01*
G01*
X68450920Y-56999740D01*
G75*
G02*
X68375920Y-57074740I-75000J0D01*
G01*
X68225920Y-57074740D01*
G75*
G02*
X68150920Y-56999740I0J75000D01*
G01*
G37*
%TD.AperFunction*%
%TO.P,U1,28*%
%TO.N,Net-(U1-Pad28)*%
%TA.AperFunction,SMDPad,CuDef*%
G36*
G01*
X68650920Y-56999740D02*
X68650920Y-55599740D01*
G75*
G02*
X68725920Y-55524740I75000J0D01*
G01*
X68875920Y-55524740D01*
G75*
G02*
X68950920Y-55599740I0J-75000D01*
G01*
X68950920Y-56999740D01*
G75*
G02*
X68875920Y-57074740I-75000J0D01*
G01*
X68725920Y-57074740D01*
G75*
G02*
X68650920Y-56999740I0J75000D01*
G01*
G37*
%TD.AperFunction*%
%TO.P,U1,29*%
%TO.N,I2C2_SCL*%
%TA.AperFunction,SMDPad,CuDef*%
G36*
G01*
X69150920Y-56999740D02*
X69150920Y-55599740D01*
G75*
G02*
X69225920Y-55524740I75000J0D01*
G01*
X69375920Y-55524740D01*
G75*
G02*
X69450920Y-55599740I0J-75000D01*
G01*
X69450920Y-56999740D01*
G75*
G02*
X69375920Y-57074740I-75000J0D01*
G01*
X69225920Y-57074740D01*
G75*
G02*
X69150920Y-56999740I0J75000D01*
G01*
G37*
%TD.AperFunction*%
%TO.P,U1,30*%
%TO.N,12C2_SDA*%
%TA.AperFunction,SMDPad,CuDef*%
G36*
G01*
X69650920Y-56999740D02*
X69650920Y-55599740D01*
G75*
G02*
X69725920Y-55524740I75000J0D01*
G01*
X69875920Y-55524740D01*
G75*
G02*
X69950920Y-55599740I0J-75000D01*
G01*
X69950920Y-56999740D01*
G75*
G02*
X69875920Y-57074740I-75000J0D01*
G01*
X69725920Y-57074740D01*
G75*
G02*
X69650920Y-56999740I0J75000D01*
G01*
G37*
%TD.AperFunction*%
%TO.P,U1,31*%
%TO.N,Net-(2.2uF1-Pad2)*%
%TA.AperFunction,SMDPad,CuDef*%
G36*
G01*
X70150920Y-56999740D02*
X70150920Y-55599740D01*
G75*
G02*
X70225920Y-55524740I75000J0D01*
G01*
X70375920Y-55524740D01*
G75*
G02*
X70450920Y-55599740I0J-75000D01*
G01*
X70450920Y-56999740D01*
G75*
G02*
X70375920Y-57074740I-75000J0D01*
G01*
X70225920Y-57074740D01*
G75*
G02*
X70150920Y-56999740I0J75000D01*
G01*
G37*
%TD.AperFunction*%
%TO.P,U1,32*%
%TO.N,+3V3*%
%TA.AperFunction,SMDPad,CuDef*%
G36*
G01*
X70650920Y-56999740D02*
X70650920Y-55599740D01*
G75*
G02*
X70725920Y-55524740I75000J0D01*
G01*
X70875920Y-55524740D01*
G75*
G02*
X70950920Y-55599740I0J-75000D01*
G01*
X70950920Y-56999740D01*
G75*
G02*
X70875920Y-57074740I-75000J0D01*
G01*
X70725920Y-57074740D01*
G75*
G02*
X70650920Y-56999740I0J75000D01*
G01*
G37*
%TD.AperFunction*%
%TO.P,U1,33*%
%TO.N,Net-(U1-Pad33)*%
%TA.AperFunction,SMDPad,CuDef*%
G36*
G01*
X71950920Y-54449740D02*
X71950920Y-54299740D01*
G75*
G02*
X72025920Y-54224740I75000J0D01*
G01*
X73425920Y-54224740D01*
G75*
G02*
X73500920Y-54299740I0J-75000D01*
G01*
X73500920Y-54449740D01*
G75*
G02*
X73425920Y-54524740I-75000J0D01*
G01*
X72025920Y-54524740D01*
G75*
G02*
X71950920Y-54449740I0J75000D01*
G01*
G37*
%TD.AperFunction*%
%TO.P,U1,34*%
%TO.N,Net-(U1-Pad34)*%
%TA.AperFunction,SMDPad,CuDef*%
G36*
G01*
X71950920Y-53949740D02*
X71950920Y-53799740D01*
G75*
G02*
X72025920Y-53724740I75000J0D01*
G01*
X73425920Y-53724740D01*
G75*
G02*
X73500920Y-53799740I0J-75000D01*
G01*
X73500920Y-53949740D01*
G75*
G02*
X73425920Y-54024740I-75000J0D01*
G01*
X72025920Y-54024740D01*
G75*
G02*
X71950920Y-53949740I0J75000D01*
G01*
G37*
%TD.AperFunction*%
%TO.P,U1,35*%
%TO.N,Net-(U1-Pad35)*%
%TA.AperFunction,SMDPad,CuDef*%
G36*
G01*
X71950920Y-53449740D02*
X71950920Y-53299740D01*
G75*
G02*
X72025920Y-53224740I75000J0D01*
G01*
X73425920Y-53224740D01*
G75*
G02*
X73500920Y-53299740I0J-75000D01*
G01*
X73500920Y-53449740D01*
G75*
G02*
X73425920Y-53524740I-75000J0D01*
G01*
X72025920Y-53524740D01*
G75*
G02*
X71950920Y-53449740I0J75000D01*
G01*
G37*
%TD.AperFunction*%
%TO.P,U1,36*%
%TO.N,Net-(U1-Pad36)*%
%TA.AperFunction,SMDPad,CuDef*%
G36*
G01*
X71950920Y-52949740D02*
X71950920Y-52799740D01*
G75*
G02*
X72025920Y-52724740I75000J0D01*
G01*
X73425920Y-52724740D01*
G75*
G02*
X73500920Y-52799740I0J-75000D01*
G01*
X73500920Y-52949740D01*
G75*
G02*
X73425920Y-53024740I-75000J0D01*
G01*
X72025920Y-53024740D01*
G75*
G02*
X71950920Y-52949740I0J75000D01*
G01*
G37*
%TD.AperFunction*%
%TO.P,U1,37*%
%TO.N,Net-(U1-Pad37)*%
%TA.AperFunction,SMDPad,CuDef*%
G36*
G01*
X71950920Y-52449740D02*
X71950920Y-52299740D01*
G75*
G02*
X72025920Y-52224740I75000J0D01*
G01*
X73425920Y-52224740D01*
G75*
G02*
X73500920Y-52299740I0J-75000D01*
G01*
X73500920Y-52449740D01*
G75*
G02*
X73425920Y-52524740I-75000J0D01*
G01*
X72025920Y-52524740D01*
G75*
G02*
X71950920Y-52449740I0J75000D01*
G01*
G37*
%TD.AperFunction*%
%TO.P,U1,38*%
%TO.N,Net-(U1-Pad38)*%
%TA.AperFunction,SMDPad,CuDef*%
G36*
G01*
X71950920Y-51949740D02*
X71950920Y-51799740D01*
G75*
G02*
X72025920Y-51724740I75000J0D01*
G01*
X73425920Y-51724740D01*
G75*
G02*
X73500920Y-51799740I0J-75000D01*
G01*
X73500920Y-51949740D01*
G75*
G02*
X73425920Y-52024740I-75000J0D01*
G01*
X72025920Y-52024740D01*
G75*
G02*
X71950920Y-51949740I0J75000D01*
G01*
G37*
%TD.AperFunction*%
%TO.P,U1,39*%
%TO.N,Net-(U1-Pad39)*%
%TA.AperFunction,SMDPad,CuDef*%
G36*
G01*
X71950920Y-51449740D02*
X71950920Y-51299740D01*
G75*
G02*
X72025920Y-51224740I75000J0D01*
G01*
X73425920Y-51224740D01*
G75*
G02*
X73500920Y-51299740I0J-75000D01*
G01*
X73500920Y-51449740D01*
G75*
G02*
X73425920Y-51524740I-75000J0D01*
G01*
X72025920Y-51524740D01*
G75*
G02*
X71950920Y-51449740I0J75000D01*
G01*
G37*
%TD.AperFunction*%
%TO.P,U1,40*%
%TO.N,Net-(U1-Pad40)*%
%TA.AperFunction,SMDPad,CuDef*%
G36*
G01*
X71950920Y-50949740D02*
X71950920Y-50799740D01*
G75*
G02*
X72025920Y-50724740I75000J0D01*
G01*
X73425920Y-50724740D01*
G75*
G02*
X73500920Y-50799740I0J-75000D01*
G01*
X73500920Y-50949740D01*
G75*
G02*
X73425920Y-51024740I-75000J0D01*
G01*
X72025920Y-51024740D01*
G75*
G02*
X71950920Y-50949740I0J75000D01*
G01*
G37*
%TD.AperFunction*%
%TO.P,U1,41*%
%TO.N,Net-(U1-Pad41)*%
%TA.AperFunction,SMDPad,CuDef*%
G36*
G01*
X71950920Y-50449740D02*
X71950920Y-50299740D01*
G75*
G02*
X72025920Y-50224740I75000J0D01*
G01*
X73425920Y-50224740D01*
G75*
G02*
X73500920Y-50299740I0J-75000D01*
G01*
X73500920Y-50449740D01*
G75*
G02*
X73425920Y-50524740I-75000J0D01*
G01*
X72025920Y-50524740D01*
G75*
G02*
X71950920Y-50449740I0J75000D01*
G01*
G37*
%TD.AperFunction*%
%TO.P,U1,42*%
%TO.N,Net-(U1-Pad42)*%
%TA.AperFunction,SMDPad,CuDef*%
G36*
G01*
X71950920Y-49949740D02*
X71950920Y-49799740D01*
G75*
G02*
X72025920Y-49724740I75000J0D01*
G01*
X73425920Y-49724740D01*
G75*
G02*
X73500920Y-49799740I0J-75000D01*
G01*
X73500920Y-49949740D01*
G75*
G02*
X73425920Y-50024740I-75000J0D01*
G01*
X72025920Y-50024740D01*
G75*
G02*
X71950920Y-49949740I0J75000D01*
G01*
G37*
%TD.AperFunction*%
%TO.P,U1,43*%
%TO.N,Net-(U1-Pad43)*%
%TA.AperFunction,SMDPad,CuDef*%
G36*
G01*
X71950920Y-49449740D02*
X71950920Y-49299740D01*
G75*
G02*
X72025920Y-49224740I75000J0D01*
G01*
X73425920Y-49224740D01*
G75*
G02*
X73500920Y-49299740I0J-75000D01*
G01*
X73500920Y-49449740D01*
G75*
G02*
X73425920Y-49524740I-75000J0D01*
G01*
X72025920Y-49524740D01*
G75*
G02*
X71950920Y-49449740I0J75000D01*
G01*
G37*
%TD.AperFunction*%
%TO.P,U1,44*%
%TO.N,USB_OTG_FS_DM*%
%TA.AperFunction,SMDPad,CuDef*%
G36*
G01*
X71950920Y-48949740D02*
X71950920Y-48799740D01*
G75*
G02*
X72025920Y-48724740I75000J0D01*
G01*
X73425920Y-48724740D01*
G75*
G02*
X73500920Y-48799740I0J-75000D01*
G01*
X73500920Y-48949740D01*
G75*
G02*
X73425920Y-49024740I-75000J0D01*
G01*
X72025920Y-49024740D01*
G75*
G02*
X71950920Y-48949740I0J75000D01*
G01*
G37*
%TD.AperFunction*%
%TO.P,U1,45*%
%TO.N,USB_OTG_FS_DP*%
%TA.AperFunction,SMDPad,CuDef*%
G36*
G01*
X71950920Y-48449740D02*
X71950920Y-48299740D01*
G75*
G02*
X72025920Y-48224740I75000J0D01*
G01*
X73425920Y-48224740D01*
G75*
G02*
X73500920Y-48299740I0J-75000D01*
G01*
X73500920Y-48449740D01*
G75*
G02*
X73425920Y-48524740I-75000J0D01*
G01*
X72025920Y-48524740D01*
G75*
G02*
X71950920Y-48449740I0J75000D01*
G01*
G37*
%TD.AperFunction*%
%TO.P,U1,46*%
%TO.N,SWDIO*%
%TA.AperFunction,SMDPad,CuDef*%
G36*
G01*
X71950920Y-47949740D02*
X71950920Y-47799740D01*
G75*
G02*
X72025920Y-47724740I75000J0D01*
G01*
X73425920Y-47724740D01*
G75*
G02*
X73500920Y-47799740I0J-75000D01*
G01*
X73500920Y-47949740D01*
G75*
G02*
X73425920Y-48024740I-75000J0D01*
G01*
X72025920Y-48024740D01*
G75*
G02*
X71950920Y-47949740I0J75000D01*
G01*
G37*
%TD.AperFunction*%
%TO.P,U1,47*%
%TO.N,Net-(2.2uF2-Pad2)*%
%TA.AperFunction,SMDPad,CuDef*%
G36*
G01*
X71950920Y-47449740D02*
X71950920Y-47299740D01*
G75*
G02*
X72025920Y-47224740I75000J0D01*
G01*
X73425920Y-47224740D01*
G75*
G02*
X73500920Y-47299740I0J-75000D01*
G01*
X73500920Y-47449740D01*
G75*
G02*
X73425920Y-47524740I-75000J0D01*
G01*
X72025920Y-47524740D01*
G75*
G02*
X71950920Y-47449740I0J75000D01*
G01*
G37*
%TD.AperFunction*%
%TO.P,U1,48*%
%TO.N,+3V3*%
%TA.AperFunction,SMDPad,CuDef*%
G36*
G01*
X71950920Y-46949740D02*
X71950920Y-46799740D01*
G75*
G02*
X72025920Y-46724740I75000J0D01*
G01*
X73425920Y-46724740D01*
G75*
G02*
X73500920Y-46799740I0J-75000D01*
G01*
X73500920Y-46949740D01*
G75*
G02*
X73425920Y-47024740I-75000J0D01*
G01*
X72025920Y-47024740D01*
G75*
G02*
X71950920Y-46949740I0J75000D01*
G01*
G37*
%TD.AperFunction*%
%TO.P,U1,49*%
%TO.N,SWCLK*%
%TA.AperFunction,SMDPad,CuDef*%
G36*
G01*
X70650920Y-45649740D02*
X70650920Y-44249740D01*
G75*
G02*
X70725920Y-44174740I75000J0D01*
G01*
X70875920Y-44174740D01*
G75*
G02*
X70950920Y-44249740I0J-75000D01*
G01*
X70950920Y-45649740D01*
G75*
G02*
X70875920Y-45724740I-75000J0D01*
G01*
X70725920Y-45724740D01*
G75*
G02*
X70650920Y-45649740I0J75000D01*
G01*
G37*
%TD.AperFunction*%
%TO.P,U1,50*%
%TO.N,Net-(U1-Pad50)*%
%TA.AperFunction,SMDPad,CuDef*%
G36*
G01*
X70150920Y-45649740D02*
X70150920Y-44249740D01*
G75*
G02*
X70225920Y-44174740I75000J0D01*
G01*
X70375920Y-44174740D01*
G75*
G02*
X70450920Y-44249740I0J-75000D01*
G01*
X70450920Y-45649740D01*
G75*
G02*
X70375920Y-45724740I-75000J0D01*
G01*
X70225920Y-45724740D01*
G75*
G02*
X70150920Y-45649740I0J75000D01*
G01*
G37*
%TD.AperFunction*%
%TO.P,U1,51*%
%TO.N,Net-(U1-Pad51)*%
%TA.AperFunction,SMDPad,CuDef*%
G36*
G01*
X69650920Y-45649740D02*
X69650920Y-44249740D01*
G75*
G02*
X69725920Y-44174740I75000J0D01*
G01*
X69875920Y-44174740D01*
G75*
G02*
X69950920Y-44249740I0J-75000D01*
G01*
X69950920Y-45649740D01*
G75*
G02*
X69875920Y-45724740I-75000J0D01*
G01*
X69725920Y-45724740D01*
G75*
G02*
X69650920Y-45649740I0J75000D01*
G01*
G37*
%TD.AperFunction*%
%TO.P,U1,52*%
%TO.N,Net-(U1-Pad52)*%
%TA.AperFunction,SMDPad,CuDef*%
G36*
G01*
X69150920Y-45649740D02*
X69150920Y-44249740D01*
G75*
G02*
X69225920Y-44174740I75000J0D01*
G01*
X69375920Y-44174740D01*
G75*
G02*
X69450920Y-44249740I0J-75000D01*
G01*
X69450920Y-45649740D01*
G75*
G02*
X69375920Y-45724740I-75000J0D01*
G01*
X69225920Y-45724740D01*
G75*
G02*
X69150920Y-45649740I0J75000D01*
G01*
G37*
%TD.AperFunction*%
%TO.P,U1,53*%
%TO.N,Net-(U1-Pad53)*%
%TA.AperFunction,SMDPad,CuDef*%
G36*
G01*
X68650920Y-45649740D02*
X68650920Y-44249740D01*
G75*
G02*
X68725920Y-44174740I75000J0D01*
G01*
X68875920Y-44174740D01*
G75*
G02*
X68950920Y-44249740I0J-75000D01*
G01*
X68950920Y-45649740D01*
G75*
G02*
X68875920Y-45724740I-75000J0D01*
G01*
X68725920Y-45724740D01*
G75*
G02*
X68650920Y-45649740I0J75000D01*
G01*
G37*
%TD.AperFunction*%
%TO.P,U1,54*%
%TO.N,Net-(U1-Pad54)*%
%TA.AperFunction,SMDPad,CuDef*%
G36*
G01*
X68150920Y-45649740D02*
X68150920Y-44249740D01*
G75*
G02*
X68225920Y-44174740I75000J0D01*
G01*
X68375920Y-44174740D01*
G75*
G02*
X68450920Y-44249740I0J-75000D01*
G01*
X68450920Y-45649740D01*
G75*
G02*
X68375920Y-45724740I-75000J0D01*
G01*
X68225920Y-45724740D01*
G75*
G02*
X68150920Y-45649740I0J75000D01*
G01*
G37*
%TD.AperFunction*%
%TO.P,U1,55*%
%TO.N,SWO*%
%TA.AperFunction,SMDPad,CuDef*%
G36*
G01*
X67650920Y-45649740D02*
X67650920Y-44249740D01*
G75*
G02*
X67725920Y-44174740I75000J0D01*
G01*
X67875920Y-44174740D01*
G75*
G02*
X67950920Y-44249740I0J-75000D01*
G01*
X67950920Y-45649740D01*
G75*
G02*
X67875920Y-45724740I-75000J0D01*
G01*
X67725920Y-45724740D01*
G75*
G02*
X67650920Y-45649740I0J75000D01*
G01*
G37*
%TD.AperFunction*%
%TO.P,U1,56*%
%TO.N,Net-(U1-Pad56)*%
%TA.AperFunction,SMDPad,CuDef*%
G36*
G01*
X67150920Y-45649740D02*
X67150920Y-44249740D01*
G75*
G02*
X67225920Y-44174740I75000J0D01*
G01*
X67375920Y-44174740D01*
G75*
G02*
X67450920Y-44249740I0J-75000D01*
G01*
X67450920Y-45649740D01*
G75*
G02*
X67375920Y-45724740I-75000J0D01*
G01*
X67225920Y-45724740D01*
G75*
G02*
X67150920Y-45649740I0J75000D01*
G01*
G37*
%TD.AperFunction*%
%TO.P,U1,57*%
%TO.N,Net-(U1-Pad57)*%
%TA.AperFunction,SMDPad,CuDef*%
G36*
G01*
X66650920Y-45649740D02*
X66650920Y-44249740D01*
G75*
G02*
X66725920Y-44174740I75000J0D01*
G01*
X66875920Y-44174740D01*
G75*
G02*
X66950920Y-44249740I0J-75000D01*
G01*
X66950920Y-45649740D01*
G75*
G02*
X66875920Y-45724740I-75000J0D01*
G01*
X66725920Y-45724740D01*
G75*
G02*
X66650920Y-45649740I0J75000D01*
G01*
G37*
%TD.AperFunction*%
%TO.P,U1,58*%
%TO.N,12C1_SCL*%
%TA.AperFunction,SMDPad,CuDef*%
G36*
G01*
X66150920Y-45649740D02*
X66150920Y-44249740D01*
G75*
G02*
X66225920Y-44174740I75000J0D01*
G01*
X66375920Y-44174740D01*
G75*
G02*
X66450920Y-44249740I0J-75000D01*
G01*
X66450920Y-45649740D01*
G75*
G02*
X66375920Y-45724740I-75000J0D01*
G01*
X66225920Y-45724740D01*
G75*
G02*
X66150920Y-45649740I0J75000D01*
G01*
G37*
%TD.AperFunction*%
%TO.P,U1,59*%
%TO.N,I2C1_SDA*%
%TA.AperFunction,SMDPad,CuDef*%
G36*
G01*
X65650920Y-45649740D02*
X65650920Y-44249740D01*
G75*
G02*
X65725920Y-44174740I75000J0D01*
G01*
X65875920Y-44174740D01*
G75*
G02*
X65950920Y-44249740I0J-75000D01*
G01*
X65950920Y-45649740D01*
G75*
G02*
X65875920Y-45724740I-75000J0D01*
G01*
X65725920Y-45724740D01*
G75*
G02*
X65650920Y-45649740I0J75000D01*
G01*
G37*
%TD.AperFunction*%
%TO.P,U1,60*%
%TO.N,Net-(10k1-Pad2)*%
%TA.AperFunction,SMDPad,CuDef*%
G36*
G01*
X65150920Y-45649740D02*
X65150920Y-44249740D01*
G75*
G02*
X65225920Y-44174740I75000J0D01*
G01*
X65375920Y-44174740D01*
G75*
G02*
X65450920Y-44249740I0J-75000D01*
G01*
X65450920Y-45649740D01*
G75*
G02*
X65375920Y-45724740I-75000J0D01*
G01*
X65225920Y-45724740D01*
G75*
G02*
X65150920Y-45649740I0J75000D01*
G01*
G37*
%TD.AperFunction*%
%TO.P,U1,61*%
%TO.N,CAN1_RX*%
%TA.AperFunction,SMDPad,CuDef*%
G36*
G01*
X64650920Y-45649740D02*
X64650920Y-44249740D01*
G75*
G02*
X64725920Y-44174740I75000J0D01*
G01*
X64875920Y-44174740D01*
G75*
G02*
X64950920Y-44249740I0J-75000D01*
G01*
X64950920Y-45649740D01*
G75*
G02*
X64875920Y-45724740I-75000J0D01*
G01*
X64725920Y-45724740D01*
G75*
G02*
X64650920Y-45649740I0J75000D01*
G01*
G37*
%TD.AperFunction*%
%TO.P,U1,62*%
%TO.N,CAN1_TX*%
%TA.AperFunction,SMDPad,CuDef*%
G36*
G01*
X64150920Y-45649740D02*
X64150920Y-44249740D01*
G75*
G02*
X64225920Y-44174740I75000J0D01*
G01*
X64375920Y-44174740D01*
G75*
G02*
X64450920Y-44249740I0J-75000D01*
G01*
X64450920Y-45649740D01*
G75*
G02*
X64375920Y-45724740I-75000J0D01*
G01*
X64225920Y-45724740D01*
G75*
G02*
X64150920Y-45649740I0J75000D01*
G01*
G37*
%TD.AperFunction*%
%TO.P,U1,63*%
%TO.N,GND*%
%TA.AperFunction,SMDPad,CuDef*%
G36*
G01*
X63650920Y-45649740D02*
X63650920Y-44249740D01*
G75*
G02*
X63725920Y-44174740I75000J0D01*
G01*
X63875920Y-44174740D01*
G75*
G02*
X63950920Y-44249740I0J-75000D01*
G01*
X63950920Y-45649740D01*
G75*
G02*
X63875920Y-45724740I-75000J0D01*
G01*
X63725920Y-45724740D01*
G75*
G02*
X63650920Y-45649740I0J75000D01*
G01*
G37*
%TD.AperFunction*%
%TO.P,U1,64*%
%TO.N,+3V3*%
%TA.AperFunction,SMDPad,CuDef*%
G36*
G01*
X63150920Y-45649740D02*
X63150920Y-44249740D01*
G75*
G02*
X63225920Y-44174740I75000J0D01*
G01*
X63375920Y-44174740D01*
G75*
G02*
X63450920Y-44249740I0J-75000D01*
G01*
X63450920Y-45649740D01*
G75*
G02*
X63375920Y-45724740I-75000J0D01*
G01*
X63225920Y-45724740D01*
G75*
G02*
X63150920Y-45649740I0J75000D01*
G01*
G37*
%TD.AperFunction*%
%TD*%
%TO.P,0.33k1,2*%
%TO.N,TIM2_ETR*%
%TA.AperFunction,SMDPad,CuDef*%
G36*
G01*
X64966001Y-60490000D02*
X64065999Y-60490000D01*
G75*
G02*
X63816000Y-60240001I0J249999D01*
G01*
X63816000Y-59539999D01*
G75*
G02*
X64065999Y-59290000I249999J0D01*
G01*
X64966001Y-59290000D01*
G75*
G02*
X65216000Y-59539999I0J-249999D01*
G01*
X65216000Y-60240001D01*
G75*
G02*
X64966001Y-60490000I-249999J0D01*
G01*
G37*
%TD.AperFunction*%
%TO.P,0.33k1,1*%
%TO.N,GND*%
%TA.AperFunction,SMDPad,CuDef*%
G36*
G01*
X64966001Y-62490000D02*
X64065999Y-62490000D01*
G75*
G02*
X63816000Y-62240001I0J249999D01*
G01*
X63816000Y-61539999D01*
G75*
G02*
X64065999Y-61290000I249999J0D01*
G01*
X64966001Y-61290000D01*
G75*
G02*
X65216000Y-61539999I0J-249999D01*
G01*
X65216000Y-62240001D01*
G75*
G02*
X64966001Y-62490000I-249999J0D01*
G01*
G37*
%TD.AperFunction*%
%TD*%
%TO.P,0.33k2,1*%
%TO.N,GND*%
%TA.AperFunction,SMDPad,CuDef*%
G36*
G01*
X67252001Y-62490000D02*
X66351999Y-62490000D01*
G75*
G02*
X66102000Y-62240001I0J249999D01*
G01*
X66102000Y-61539999D01*
G75*
G02*
X66351999Y-61290000I249999J0D01*
G01*
X67252001Y-61290000D01*
G75*
G02*
X67502000Y-61539999I0J-249999D01*
G01*
X67502000Y-62240001D01*
G75*
G02*
X67252001Y-62490000I-249999J0D01*
G01*
G37*
%TD.AperFunction*%
%TO.P,0.33k2,2*%
%TO.N,TIM3_ETR*%
%TA.AperFunction,SMDPad,CuDef*%
G36*
G01*
X67252001Y-60490000D02*
X66351999Y-60490000D01*
G75*
G02*
X66102000Y-60240001I0J249999D01*
G01*
X66102000Y-59539999D01*
G75*
G02*
X66351999Y-59290000I249999J0D01*
G01*
X67252001Y-59290000D01*
G75*
G02*
X67502000Y-59539999I0J-249999D01*
G01*
X67502000Y-60240001D01*
G75*
G02*
X67252001Y-60490000I-249999J0D01*
G01*
G37*
%TD.AperFunction*%
%TD*%
%TO.P,10nF1,1*%
%TO.N,+3.3VA*%
%TA.AperFunction,SMDPad,CuDef*%
G36*
G01*
X51947500Y-58133000D02*
X51947500Y-57183000D01*
G75*
G02*
X52197500Y-56933000I250000J0D01*
G01*
X52872500Y-56933000D01*
G75*
G02*
X53122500Y-57183000I0J-250000D01*
G01*
X53122500Y-58133000D01*
G75*
G02*
X52872500Y-58383000I-250000J0D01*
G01*
X52197500Y-58383000D01*
G75*
G02*
X51947500Y-58133000I0J250000D01*
G01*
G37*
%TD.AperFunction*%
%TO.P,10nF1,2*%
%TO.N,GND*%
%TA.AperFunction,SMDPad,CuDef*%
G36*
G01*
X54022500Y-58133000D02*
X54022500Y-57183000D01*
G75*
G02*
X54272500Y-56933000I250000J0D01*
G01*
X54947500Y-56933000D01*
G75*
G02*
X55197500Y-57183000I0J-250000D01*
G01*
X55197500Y-58133000D01*
G75*
G02*
X54947500Y-58383000I-250000J0D01*
G01*
X54272500Y-58383000D01*
G75*
G02*
X54022500Y-58133000I0J250000D01*
G01*
G37*
%TD.AperFunction*%
%TD*%
%TO.P,1uF1,2*%
%TO.N,GND*%
%TA.AperFunction,SMDPad,CuDef*%
G36*
G01*
X54022500Y-56101000D02*
X54022500Y-55151000D01*
G75*
G02*
X54272500Y-54901000I250000J0D01*
G01*
X54947500Y-54901000D01*
G75*
G02*
X55197500Y-55151000I0J-250000D01*
G01*
X55197500Y-56101000D01*
G75*
G02*
X54947500Y-56351000I-250000J0D01*
G01*
X54272500Y-56351000D01*
G75*
G02*
X54022500Y-56101000I0J250000D01*
G01*
G37*
%TD.AperFunction*%
%TO.P,1uF1,1*%
%TO.N,+3.3VA*%
%TA.AperFunction,SMDPad,CuDef*%
G36*
G01*
X51947500Y-56101000D02*
X51947500Y-55151000D01*
G75*
G02*
X52197500Y-54901000I250000J0D01*
G01*
X52872500Y-54901000D01*
G75*
G02*
X53122500Y-55151000I0J-250000D01*
G01*
X53122500Y-56101000D01*
G75*
G02*
X52872500Y-56351000I-250000J0D01*
G01*
X52197500Y-56351000D01*
G75*
G02*
X51947500Y-56101000I0J250000D01*
G01*
G37*
%TD.AperFunction*%
%TD*%
D14*
%TO.P,39nH1,1*%
%TO.N,+3V3*%
X45999500Y-56642000D03*
%TO.P,39nH1,2*%
%TO.N,+3.3VA*%
X49784000Y-56642000D03*
%TD*%
%TO.P,D1,1*%
%TO.N,Net-(D1-Pad1)*%
%TA.AperFunction,SMDPad,CuDef*%
G36*
G01*
X56321000Y-57092001D02*
X56321000Y-56191999D01*
G75*
G02*
X56570999Y-55942000I249999J0D01*
G01*
X57221001Y-55942000D01*
G75*
G02*
X57471000Y-56191999I0J-249999D01*
G01*
X57471000Y-57092001D01*
G75*
G02*
X57221001Y-57342000I-249999J0D01*
G01*
X56570999Y-57342000D01*
G75*
G02*
X56321000Y-57092001I0J249999D01*
G01*
G37*
%TD.AperFunction*%
%TO.P,D1,2*%
%TO.N,LED_STATUS*%
%TA.AperFunction,SMDPad,CuDef*%
G36*
G01*
X58371000Y-57092001D02*
X58371000Y-56191999D01*
G75*
G02*
X58620999Y-55942000I249999J0D01*
G01*
X59271001Y-55942000D01*
G75*
G02*
X59521000Y-56191999I0J-249999D01*
G01*
X59521000Y-57092001D01*
G75*
G02*
X59271001Y-57342000I-249999J0D01*
G01*
X58620999Y-57342000D01*
G75*
G02*
X58371000Y-57092001I0J249999D01*
G01*
G37*
%TD.AperFunction*%
%TD*%
D16*
%TO.P,H3,1*%
%TO.N,GND*%
X87884000Y-78740000D03*
D15*
X91634000Y-78740000D03*
X90535650Y-81391650D03*
X87884000Y-82490000D03*
X85232350Y-81391650D03*
X84134000Y-78740000D03*
X85232350Y-76088350D03*
X87884000Y-74990000D03*
X90535650Y-76088350D03*
%TD*%
D17*
%TO.P,J1,1*%
%TO.N,+12V*%
X89662000Y-60960000D03*
D18*
%TO.P,J1,2*%
%TO.N,GND*%
X89662000Y-57960000D03*
%TO.P,J1,3*%
%TO.N,Net-(J1-Pad3)*%
X89662000Y-54960000D03*
%TO.P,J1,4*%
%TO.N,GND*%
X89662000Y-51960000D03*
%TO.P,J1,5*%
%TO.N,+3V3*%
X89662000Y-48960000D03*
%TO.P,J1,6*%
%TO.N,GND*%
X89662000Y-45960000D03*
%TO.P,J1,7*%
%TO.N,+5V*%
X89662000Y-42960000D03*
%TO.P,J1,8*%
%TO.N,+3V3*%
X87162000Y-44460000D03*
%TO.P,J1,9*%
%TO.N,GND*%
X87162000Y-47460000D03*
%TO.P,J1,10*%
%TO.N,ADC1_IN0_AMORKI*%
X87162000Y-50460000D03*
%TO.P,J1,11*%
%TO.N,+3V3*%
X87162000Y-53460000D03*
%TO.P,J1,12*%
%TO.N,GND*%
X87162000Y-56460000D03*
%TO.P,J1,13*%
%TO.N,ADC2_IN1_AMORKI*%
X87162000Y-59460000D03*
%TO.P,J1,14*%
%TO.N,+3V3*%
X84162000Y-59460000D03*
%TO.P,J1,15*%
%TO.N,GND*%
X84162000Y-56460000D03*
%TO.P,J1,16*%
%TO.N,CAN_H1*%
X84162000Y-53460000D03*
%TO.P,J1,17*%
%TO.N,CAN_L1*%
X84162000Y-50460000D03*
%TO.P,J1,18*%
%TO.N,12C1_SCL*%
X84162000Y-47460000D03*
%TO.P,J1,19*%
%TO.N,I2C1_SDA*%
X84162000Y-44460000D03*
%TO.P,J1,20*%
%TO.N,I2C2_SCL*%
X81662000Y-42960000D03*
%TO.P,J1,21*%
%TO.N,12C2_SDA*%
X81662000Y-45960000D03*
%TO.P,J1,22*%
%TO.N,VSS_IN_1*%
X81662000Y-48960000D03*
%TO.P,J1,23*%
%TO.N,VSS_IN_2*%
X81662000Y-51960000D03*
%TO.P,J1,24*%
%TO.N,BREAK_PRESSURE_0*%
X81662000Y-54960000D03*
%TO.P,J1,25*%
%TO.N,BREAK_PRESSURE_ADC*%
X81662000Y-57960000D03*
%TO.P,J1,26*%
%TO.N,LED_GND*%
X81662000Y-60960000D03*
D19*
%TO.P,J1,MH1*%
%TO.N,N/C*%
X96162000Y-68210000D03*
%TO.P,J1,MH2*%
X96162000Y-35710000D03*
%TD*%
%TO.P,R1,2*%
%TO.N,Net-(C2-Pad1)*%
%TA.AperFunction,SMDPad,CuDef*%
G36*
G01*
X58616001Y-48098000D02*
X57715999Y-48098000D01*
G75*
G02*
X57466000Y-47848001I0J249999D01*
G01*
X57466000Y-47147999D01*
G75*
G02*
X57715999Y-46898000I249999J0D01*
G01*
X58616001Y-46898000D01*
G75*
G02*
X58866000Y-47147999I0J-249999D01*
G01*
X58866000Y-47848001D01*
G75*
G02*
X58616001Y-48098000I-249999J0D01*
G01*
G37*
%TD.AperFunction*%
%TO.P,R1,1*%
%TO.N,RCC_OSC_OUT*%
%TA.AperFunction,SMDPad,CuDef*%
G36*
G01*
X58616001Y-50098000D02*
X57715999Y-50098000D01*
G75*
G02*
X57466000Y-49848001I0J249999D01*
G01*
X57466000Y-49147999D01*
G75*
G02*
X57715999Y-48898000I249999J0D01*
G01*
X58616001Y-48898000D01*
G75*
G02*
X58866000Y-49147999I0J-249999D01*
G01*
X58866000Y-49848001D01*
G75*
G02*
X58616001Y-50098000I-249999J0D01*
G01*
G37*
%TD.AperFunction*%
%TD*%
%TO.P,R3,1*%
%TO.N,+12V*%
%TA.AperFunction,SMDPad,CuDef*%
G36*
G01*
X63846000Y-39681999D02*
X63846000Y-40582001D01*
G75*
G02*
X63596001Y-40832000I-249999J0D01*
G01*
X62895999Y-40832000D01*
G75*
G02*
X62646000Y-40582001I0J249999D01*
G01*
X62646000Y-39681999D01*
G75*
G02*
X62895999Y-39432000I249999J0D01*
G01*
X63596001Y-39432000D01*
G75*
G02*
X63846000Y-39681999I0J-249999D01*
G01*
G37*
%TD.AperFunction*%
%TO.P,R3,2*%
%TO.N,Net-(PS2-Pad4)*%
%TA.AperFunction,SMDPad,CuDef*%
G36*
G01*
X61846000Y-39681999D02*
X61846000Y-40582001D01*
G75*
G02*
X61596001Y-40832000I-249999J0D01*
G01*
X60895999Y-40832000D01*
G75*
G02*
X60646000Y-40582001I0J249999D01*
G01*
X60646000Y-39681999D01*
G75*
G02*
X60895999Y-39432000I249999J0D01*
G01*
X61596001Y-39432000D01*
G75*
G02*
X61846000Y-39681999I0J-249999D01*
G01*
G37*
%TD.AperFunction*%
%TD*%
%TO.P,R12,2*%
%TO.N,GND*%
%TA.AperFunction,SMDPad,CuDef*%
G36*
G01*
X75054000Y-71939999D02*
X75054000Y-72840001D01*
G75*
G02*
X74804001Y-73090000I-249999J0D01*
G01*
X74103999Y-73090000D01*
G75*
G02*
X73854000Y-72840001I0J249999D01*
G01*
X73854000Y-71939999D01*
G75*
G02*
X74103999Y-71690000I249999J0D01*
G01*
X74804001Y-71690000D01*
G75*
G02*
X75054000Y-71939999I0J-249999D01*
G01*
G37*
%TD.AperFunction*%
%TO.P,R12,1*%
%TO.N,Net-(D3-Pad1)*%
%TA.AperFunction,SMDPad,CuDef*%
G36*
G01*
X77054000Y-71939999D02*
X77054000Y-72840001D01*
G75*
G02*
X76804001Y-73090000I-249999J0D01*
G01*
X76103999Y-73090000D01*
G75*
G02*
X75854000Y-72840001I0J249999D01*
G01*
X75854000Y-71939999D01*
G75*
G02*
X76103999Y-71690000I249999J0D01*
G01*
X76804001Y-71690000D01*
G75*
G02*
X77054000Y-71939999I0J-249999D01*
G01*
G37*
%TD.AperFunction*%
%TD*%
%TO.P,R13,1*%
%TO.N,Net-(D5-Pad1)*%
%TA.AperFunction,SMDPad,CuDef*%
G36*
G01*
X68250000Y-72840001D02*
X68250000Y-71939999D01*
G75*
G02*
X68499999Y-71690000I249999J0D01*
G01*
X69200001Y-71690000D01*
G75*
G02*
X69450000Y-71939999I0J-249999D01*
G01*
X69450000Y-72840001D01*
G75*
G02*
X69200001Y-73090000I-249999J0D01*
G01*
X68499999Y-73090000D01*
G75*
G02*
X68250000Y-72840001I0J249999D01*
G01*
G37*
%TD.AperFunction*%
%TO.P,R13,2*%
%TO.N,GND*%
%TA.AperFunction,SMDPad,CuDef*%
G36*
G01*
X70250000Y-72840001D02*
X70250000Y-71939999D01*
G75*
G02*
X70499999Y-71690000I249999J0D01*
G01*
X71200001Y-71690000D01*
G75*
G02*
X71450000Y-71939999I0J-249999D01*
G01*
X71450000Y-72840001D01*
G75*
G02*
X71200001Y-73090000I-249999J0D01*
G01*
X70499999Y-73090000D01*
G75*
G02*
X70250000Y-72840001I0J249999D01*
G01*
G37*
%TD.AperFunction*%
%TD*%
D20*
%TO.P,Y1,1*%
%TO.N,RCC_OSC_IN*%
X52726000Y-50052000D03*
%TO.P,Y1,2*%
%TO.N,GND*%
X55626000Y-50052000D03*
%TO.P,Y1,3*%
%TO.N,Net-(C2-Pad1)*%
X55626000Y-47752000D03*
%TO.P,Y1,4*%
%TO.N,GND*%
X52726000Y-47752000D03*
%TD*%
D21*
%TO.P,2channel_pot1,1*%
%TO.N,Net-(2channel_pot1-Pad1)*%
X50402000Y-64655001D03*
%TO.P,2channel_pot1,2*%
%TO.N,Net-(2channel_pot1-Pad2)*%
X50402000Y-65305001D03*
%TO.P,2channel_pot1,3*%
%TO.N,GND_MIC&ANC*%
X50402000Y-65955001D03*
%TO.P,2channel_pot1,4*%
%TO.N,Net-(2channel_pot1-Pad4)*%
X50402000Y-66605001D03*
%TO.P,2channel_pot1,5*%
%TO.N,Net-(2channel_pot1-Pad5)*%
X50402000Y-67255001D03*
%TO.P,2channel_pot1,6*%
%TO.N,Net-(2channel_pot1-Pad6)*%
X50402000Y-67905001D03*
%TO.P,2channel_pot1,7*%
%TO.N,Net-(2channel_pot1-Pad7)*%
X50402000Y-68555001D03*
%TO.P,2channel_pot1,8*%
%TO.N,GND*%
X56278000Y-68555001D03*
%TO.P,2channel_pot1,9*%
X56278000Y-67905001D03*
%TO.P,2channel_pot1,10*%
X56278000Y-67255001D03*
%TO.P,2channel_pot1,11*%
X56278000Y-66605001D03*
%TO.P,2channel_pot1,12*%
%TO.N,12C2_SDA*%
X56278000Y-65955001D03*
%TO.P,2channel_pot1,13*%
%TO.N,I2C2_SCL*%
X56278000Y-65305001D03*
%TO.P,2channel_pot1,14*%
%TO.N,+3V3*%
X56278000Y-64655001D03*
%TD*%
%TO.P,C9,1*%
%TO.N,+3V3*%
%TA.AperFunction,SMDPad,CuDef*%
G36*
G01*
X59215000Y-64182500D02*
X60165000Y-64182500D01*
G75*
G02*
X60415000Y-64432500I0J-250000D01*
G01*
X60415000Y-65107500D01*
G75*
G02*
X60165000Y-65357500I-250000J0D01*
G01*
X59215000Y-65357500D01*
G75*
G02*
X58965000Y-65107500I0J250000D01*
G01*
X58965000Y-64432500D01*
G75*
G02*
X59215000Y-64182500I250000J0D01*
G01*
G37*
%TD.AperFunction*%
%TO.P,C9,2*%
%TO.N,GND*%
%TA.AperFunction,SMDPad,CuDef*%
G36*
G01*
X59215000Y-66257500D02*
X60165000Y-66257500D01*
G75*
G02*
X60415000Y-66507500I0J-250000D01*
G01*
X60415000Y-67182500D01*
G75*
G02*
X60165000Y-67432500I-250000J0D01*
G01*
X59215000Y-67432500D01*
G75*
G02*
X58965000Y-67182500I0J250000D01*
G01*
X58965000Y-66507500D01*
G75*
G02*
X59215000Y-66257500I250000J0D01*
G01*
G37*
%TD.AperFunction*%
%TD*%
%TO.P,C10,1*%
%TO.N,Net-(C10-Pad1)*%
%TA.AperFunction,SMDPad,CuDef*%
G36*
G01*
X43655000Y-37185000D02*
X42705000Y-37185000D01*
G75*
G02*
X42455000Y-36935000I0J250000D01*
G01*
X42455000Y-36260000D01*
G75*
G02*
X42705000Y-36010000I250000J0D01*
G01*
X43655000Y-36010000D01*
G75*
G02*
X43905000Y-36260000I0J-250000D01*
G01*
X43905000Y-36935000D01*
G75*
G02*
X43655000Y-37185000I-250000J0D01*
G01*
G37*
%TD.AperFunction*%
%TO.P,C10,2*%
%TO.N,GND_MIC&ANC*%
%TA.AperFunction,SMDPad,CuDef*%
G36*
G01*
X43655000Y-35110000D02*
X42705000Y-35110000D01*
G75*
G02*
X42455000Y-34860000I0J250000D01*
G01*
X42455000Y-34185000D01*
G75*
G02*
X42705000Y-33935000I250000J0D01*
G01*
X43655000Y-33935000D01*
G75*
G02*
X43905000Y-34185000I0J-250000D01*
G01*
X43905000Y-34860000D01*
G75*
G02*
X43655000Y-35110000I-250000J0D01*
G01*
G37*
%TD.AperFunction*%
%TD*%
%TO.P,C11,2*%
%TO.N,GND_MIC&ANC*%
%TA.AperFunction,SMDPad,CuDef*%
G36*
G01*
X42360000Y-57625000D02*
X42360000Y-56675000D01*
G75*
G02*
X42610000Y-56425000I250000J0D01*
G01*
X43285000Y-56425000D01*
G75*
G02*
X43535000Y-56675000I0J-250000D01*
G01*
X43535000Y-57625000D01*
G75*
G02*
X43285000Y-57875000I-250000J0D01*
G01*
X42610000Y-57875000D01*
G75*
G02*
X42360000Y-57625000I0J250000D01*
G01*
G37*
%TD.AperFunction*%
%TO.P,C11,1*%
%TO.N,Net-(C11-Pad1)*%
%TA.AperFunction,SMDPad,CuDef*%
G36*
G01*
X40285000Y-57625000D02*
X40285000Y-56675000D01*
G75*
G02*
X40535000Y-56425000I250000J0D01*
G01*
X41210000Y-56425000D01*
G75*
G02*
X41460000Y-56675000I0J-250000D01*
G01*
X41460000Y-57625000D01*
G75*
G02*
X41210000Y-57875000I-250000J0D01*
G01*
X40535000Y-57875000D01*
G75*
G02*
X40285000Y-57625000I0J250000D01*
G01*
G37*
%TD.AperFunction*%
%TD*%
%TO.P,C21,1*%
%TO.N,Net-(C11-Pad1)*%
%TA.AperFunction,SMDPad,CuDef*%
G36*
G01*
X40285000Y-54520001D02*
X40285000Y-53570001D01*
G75*
G02*
X40535000Y-53320001I250000J0D01*
G01*
X41210000Y-53320001D01*
G75*
G02*
X41460000Y-53570001I0J-250000D01*
G01*
X41460000Y-54520001D01*
G75*
G02*
X41210000Y-54770001I-250000J0D01*
G01*
X40535000Y-54770001D01*
G75*
G02*
X40285000Y-54520001I0J250000D01*
G01*
G37*
%TD.AperFunction*%
%TO.P,C21,2*%
%TO.N,GND_MIC&ANC*%
%TA.AperFunction,SMDPad,CuDef*%
G36*
G01*
X42360000Y-54520001D02*
X42360000Y-53570001D01*
G75*
G02*
X42610000Y-53320001I250000J0D01*
G01*
X43285000Y-53320001D01*
G75*
G02*
X43535000Y-53570001I0J-250000D01*
G01*
X43535000Y-54520001D01*
G75*
G02*
X43285000Y-54770001I-250000J0D01*
G01*
X42610000Y-54770001D01*
G75*
G02*
X42360000Y-54520001I0J250000D01*
G01*
G37*
%TD.AperFunction*%
%TD*%
%TO.P,C22,2*%
%TO.N,V_ANC*%
%TA.AperFunction,SMDPad,CuDef*%
G36*
G01*
X37625000Y-36010000D02*
X38575000Y-36010000D01*
G75*
G02*
X38825000Y-36260000I0J-250000D01*
G01*
X38825000Y-36935000D01*
G75*
G02*
X38575000Y-37185000I-250000J0D01*
G01*
X37625000Y-37185000D01*
G75*
G02*
X37375000Y-36935000I0J250000D01*
G01*
X37375000Y-36260000D01*
G75*
G02*
X37625000Y-36010000I250000J0D01*
G01*
G37*
%TD.AperFunction*%
%TO.P,C22,1*%
%TO.N,Net-(C22-Pad1)*%
%TA.AperFunction,SMDPad,CuDef*%
G36*
G01*
X37625000Y-33935000D02*
X38575000Y-33935000D01*
G75*
G02*
X38825000Y-34185000I0J-250000D01*
G01*
X38825000Y-34860000D01*
G75*
G02*
X38575000Y-35110000I-250000J0D01*
G01*
X37625000Y-35110000D01*
G75*
G02*
X37375000Y-34860000I0J250000D01*
G01*
X37375000Y-34185000D01*
G75*
G02*
X37625000Y-33935000I250000J0D01*
G01*
G37*
%TD.AperFunction*%
%TD*%
D22*
%TO.P,IC1,1*%
%TO.N,Net-(IC1-Pad1)*%
X43020000Y-73660000D03*
D23*
%TO.P,IC1,2*%
%TO.N,Net-(2channel_pot1-Pad2)*%
X43020000Y-76200000D03*
%TO.P,IC1,3*%
%TO.N,Net-(IC1-Pad3)*%
X43020000Y-78740000D03*
%TO.P,IC1,4*%
%TO.N,Net-(IC1-Pad4)*%
X43020000Y-81280000D03*
%TO.P,IC1,5*%
%TO.N,Net-(IC1-Pad5)*%
X50960000Y-81280000D03*
%TO.P,IC1,6*%
%TO.N,V_OUT*%
X50960000Y-78740000D03*
%TO.P,IC1,7*%
%TO.N,Net-(IC1-Pad7)*%
X50960000Y-76200000D03*
%TO.P,IC1,8*%
%TO.N,Net-(IC1-Pad8)*%
X50960000Y-73660000D03*
%TD*%
D22*
%TO.P,IC2,1*%
%TO.N,Net-(IC2-Pad1)*%
X37940000Y-39370000D03*
D23*
%TO.P,IC2,2*%
%TO.N,Net-(IC2-Pad2)*%
X37940000Y-41910000D03*
%TO.P,IC2,3*%
%TO.N,Net-(C22-Pad1)*%
X37940000Y-44450000D03*
%TO.P,IC2,4*%
%TO.N,Net-(IC2-Pad4)*%
X37940000Y-46990000D03*
%TO.P,IC2,5*%
%TO.N,Net-(IC2-Pad5)*%
X45880000Y-46990000D03*
%TO.P,IC2,6*%
%TO.N,Net-(IC2-Pad6)*%
X45880000Y-44450000D03*
%TO.P,IC2,7*%
%TO.N,Net-(IC2-Pad7)*%
X45880000Y-41910000D03*
%TO.P,IC2,8*%
%TO.N,Net-(IC2-Pad8)*%
X45880000Y-39370000D03*
%TD*%
%TO.P,IC3,8*%
%TO.N,Net-(IC3-Pad8)*%
X47150000Y-62230000D03*
%TO.P,IC3,7*%
%TO.N,Net-(IC3-Pad7)*%
X47150000Y-64770000D03*
%TO.P,IC3,6*%
%TO.N,Net-(2channel_pot1-Pad1)*%
X47150000Y-67310000D03*
%TO.P,IC3,5*%
%TO.N,Net-(IC3-Pad5)*%
X47150000Y-69850000D03*
%TO.P,IC3,4*%
%TO.N,Net-(IC3-Pad4)*%
X39210000Y-69850000D03*
%TO.P,IC3,3*%
%TO.N,Net-(C11-Pad1)*%
X39210000Y-67310000D03*
%TO.P,IC3,2*%
%TO.N,Net-(IC3-Pad2)*%
X39210000Y-64770000D03*
D22*
%TO.P,IC3,1*%
%TO.N,Net-(IC3-Pad1)*%
X39210000Y-62230000D03*
%TD*%
D24*
%TO.P,J2,1*%
%TO.N,SWCLK*%
X67310000Y-26670000D03*
D25*
%TO.P,J2,2*%
%TO.N,+3V3*%
X67310000Y-24130000D03*
%TO.P,J2,3*%
%TO.N,SWDIO*%
X69850000Y-26670000D03*
%TO.P,J2,4*%
%TO.N,+5V*%
X69850000Y-24130000D03*
%TO.P,J2,5*%
%TO.N,NRST*%
X72390000Y-26670000D03*
%TO.P,J2,6*%
%TO.N,GND*%
X72390000Y-24130000D03*
%TO.P,J2,7*%
%TO.N,SWO*%
X74930000Y-26670000D03*
%TO.P,J2,8*%
%TO.N,GND*%
X74930000Y-24130000D03*
%TO.P,J2,9*%
%TO.N,Net-(J2-Pad9)*%
X77470000Y-26670000D03*
%TO.P,J2,10*%
%TO.N,GND*%
X77470000Y-24130000D03*
%TD*%
D26*
%TO.P,Mini_DIN_IN1,1*%
%TO.N,V_MIC*%
X30480000Y-44450000D03*
D27*
%TO.P,Mini_DIN_IN1,2*%
%TO.N,V_ANC*%
X30480000Y-41850000D03*
%TO.P,Mini_DIN_IN1,3*%
%TO.N,GND_MIC&ANC*%
X30480000Y-46500000D03*
%TO.P,Mini_DIN_IN1,4*%
%TO.N,GND_SPK*%
X32970000Y-44450000D03*
%TO.P,Mini_DIN_IN1,5*%
%TO.N,SPK+*%
X30480000Y-39800000D03*
%TO.P,Mini_DIN_IN1,6*%
%TO.N,TX_DATA*%
X32970000Y-46500000D03*
%TO.P,Mini_DIN_IN1,7*%
%TO.N,Net-(Mini_DIN_IN1-Pad7)*%
X32970000Y-42340000D03*
%TO.P,Mini_DIN_IN1,8*%
%TO.N,Net-(Mini_DIN_IN1-Pad8)*%
X32970000Y-39800000D03*
D28*
%TO.P,Mini_DIN_IN1,MH1*%
%TO.N,Net-(Mini_DIN_IN1-PadMH1)*%
X27480000Y-36390000D03*
%TO.P,Mini_DIN_IN1,MH2*%
%TO.N,Net-(Mini_DIN_IN1-PadMH2)*%
X26670000Y-43150000D03*
%TO.P,Mini_DIN_IN1,MH3*%
%TO.N,Net-(Mini_DIN_IN1-PadMH3)*%
X27480000Y-49910000D03*
%TD*%
%TO.P,R9,1*%
%TO.N,Net-(C22-Pad1)*%
%TA.AperFunction,SMDPad,CuDef*%
G36*
G01*
X41090001Y-37160000D02*
X40189999Y-37160000D01*
G75*
G02*
X39940000Y-36910001I0J249999D01*
G01*
X39940000Y-36209999D01*
G75*
G02*
X40189999Y-35960000I249999J0D01*
G01*
X41090001Y-35960000D01*
G75*
G02*
X41340000Y-36209999I0J-249999D01*
G01*
X41340000Y-36910001D01*
G75*
G02*
X41090001Y-37160000I-249999J0D01*
G01*
G37*
%TD.AperFunction*%
%TO.P,R9,2*%
%TO.N,GND_MIC&ANC*%
%TA.AperFunction,SMDPad,CuDef*%
G36*
G01*
X41090001Y-35160000D02*
X40189999Y-35160000D01*
G75*
G02*
X39940000Y-34910001I0J249999D01*
G01*
X39940000Y-34209999D01*
G75*
G02*
X40189999Y-33960000I249999J0D01*
G01*
X41090001Y-33960000D01*
G75*
G02*
X41340000Y-34209999I0J-249999D01*
G01*
X41340000Y-34910001D01*
G75*
G02*
X41090001Y-35160000I-249999J0D01*
G01*
G37*
%TD.AperFunction*%
%TD*%
%TO.P,R10,2*%
%TO.N,Net-(C10-Pad1)*%
%TA.AperFunction,SMDPad,CuDef*%
G36*
G01*
X46170001Y-35160000D02*
X45269999Y-35160000D01*
G75*
G02*
X45020000Y-34910001I0J249999D01*
G01*
X45020000Y-34209999D01*
G75*
G02*
X45269999Y-33960000I249999J0D01*
G01*
X46170001Y-33960000D01*
G75*
G02*
X46420000Y-34209999I0J-249999D01*
G01*
X46420000Y-34910001D01*
G75*
G02*
X46170001Y-35160000I-249999J0D01*
G01*
G37*
%TD.AperFunction*%
%TO.P,R10,1*%
%TO.N,Net-(IC2-Pad2)*%
%TA.AperFunction,SMDPad,CuDef*%
G36*
G01*
X46170001Y-37160000D02*
X45269999Y-37160000D01*
G75*
G02*
X45020000Y-36910001I0J249999D01*
G01*
X45020000Y-36209999D01*
G75*
G02*
X45269999Y-35960000I249999J0D01*
G01*
X46170001Y-35960000D01*
G75*
G02*
X46420000Y-36209999I0J-249999D01*
G01*
X46420000Y-36910001D01*
G75*
G02*
X46170001Y-37160000I-249999J0D01*
G01*
G37*
%TD.AperFunction*%
%TD*%
%TO.P,R14,1*%
%TO.N,Net-(IC2-Pad6)*%
%TA.AperFunction,SMDPad,CuDef*%
G36*
G01*
X49980001Y-42240000D02*
X49079999Y-42240000D01*
G75*
G02*
X48830000Y-41990001I0J249999D01*
G01*
X48830000Y-41289999D01*
G75*
G02*
X49079999Y-41040000I249999J0D01*
G01*
X49980001Y-41040000D01*
G75*
G02*
X50230000Y-41289999I0J-249999D01*
G01*
X50230000Y-41990001D01*
G75*
G02*
X49980001Y-42240000I-249999J0D01*
G01*
G37*
%TD.AperFunction*%
%TO.P,R14,2*%
%TO.N,Net-(IC2-Pad2)*%
%TA.AperFunction,SMDPad,CuDef*%
G36*
G01*
X49980001Y-40240000D02*
X49079999Y-40240000D01*
G75*
G02*
X48830000Y-39990001I0J249999D01*
G01*
X48830000Y-39289999D01*
G75*
G02*
X49079999Y-39040000I249999J0D01*
G01*
X49980001Y-39040000D01*
G75*
G02*
X50230000Y-39289999I0J-249999D01*
G01*
X50230000Y-39990001D01*
G75*
G02*
X49980001Y-40240000I-249999J0D01*
G01*
G37*
%TD.AperFunction*%
%TD*%
%TO.P,R15,1*%
%TO.N,Net-(IC3-Pad2)*%
%TA.AperFunction,SMDPad,CuDef*%
G36*
G01*
X41090001Y-52400000D02*
X40189999Y-52400000D01*
G75*
G02*
X39940000Y-52150001I0J249999D01*
G01*
X39940000Y-51449999D01*
G75*
G02*
X40189999Y-51200000I249999J0D01*
G01*
X41090001Y-51200000D01*
G75*
G02*
X41340000Y-51449999I0J-249999D01*
G01*
X41340000Y-52150001D01*
G75*
G02*
X41090001Y-52400000I-249999J0D01*
G01*
G37*
%TD.AperFunction*%
%TO.P,R15,2*%
%TO.N,Net-(IC2-Pad6)*%
%TA.AperFunction,SMDPad,CuDef*%
G36*
G01*
X41090001Y-50400000D02*
X40189999Y-50400000D01*
G75*
G02*
X39940000Y-50150001I0J249999D01*
G01*
X39940000Y-49449999D01*
G75*
G02*
X40189999Y-49200000I249999J0D01*
G01*
X41090001Y-49200000D01*
G75*
G02*
X41340000Y-49449999I0J-249999D01*
G01*
X41340000Y-50150001D01*
G75*
G02*
X41090001Y-50400000I-249999J0D01*
G01*
G37*
%TD.AperFunction*%
%TD*%
%TO.P,R16,2*%
%TO.N,Net-(IC2-Pad6)*%
%TA.AperFunction,SMDPad,CuDef*%
G36*
G01*
X43630001Y-50400000D02*
X42729999Y-50400000D01*
G75*
G02*
X42480000Y-50150001I0J249999D01*
G01*
X42480000Y-49449999D01*
G75*
G02*
X42729999Y-49200000I249999J0D01*
G01*
X43630001Y-49200000D01*
G75*
G02*
X43880000Y-49449999I0J-249999D01*
G01*
X43880000Y-50150001D01*
G75*
G02*
X43630001Y-50400000I-249999J0D01*
G01*
G37*
%TD.AperFunction*%
%TO.P,R16,1*%
%TO.N,Net-(C11-Pad1)*%
%TA.AperFunction,SMDPad,CuDef*%
G36*
G01*
X43630001Y-52400000D02*
X42729999Y-52400000D01*
G75*
G02*
X42480000Y-52150001I0J249999D01*
G01*
X42480000Y-51449999D01*
G75*
G02*
X42729999Y-51200000I249999J0D01*
G01*
X43630001Y-51200000D01*
G75*
G02*
X43880000Y-51449999I0J-249999D01*
G01*
X43880000Y-52150001D01*
G75*
G02*
X43630001Y-52400000I-249999J0D01*
G01*
G37*
%TD.AperFunction*%
%TD*%
%TO.P,R17,2*%
%TO.N,Net-(IC3-Pad2)*%
%TA.AperFunction,SMDPad,CuDef*%
G36*
G01*
X38550001Y-55480000D02*
X37649999Y-55480000D01*
G75*
G02*
X37400000Y-55230001I0J249999D01*
G01*
X37400000Y-54529999D01*
G75*
G02*
X37649999Y-54280000I249999J0D01*
G01*
X38550001Y-54280000D01*
G75*
G02*
X38800000Y-54529999I0J-249999D01*
G01*
X38800000Y-55230001D01*
G75*
G02*
X38550001Y-55480000I-249999J0D01*
G01*
G37*
%TD.AperFunction*%
%TO.P,R17,1*%
%TO.N,Net-(2channel_pot1-Pad1)*%
%TA.AperFunction,SMDPad,CuDef*%
G36*
G01*
X38550001Y-57480000D02*
X37649999Y-57480000D01*
G75*
G02*
X37400000Y-57230001I0J249999D01*
G01*
X37400000Y-56529999D01*
G75*
G02*
X37649999Y-56280000I249999J0D01*
G01*
X38550001Y-56280000D01*
G75*
G02*
X38800000Y-56529999I0J-249999D01*
G01*
X38800000Y-57230001D01*
G75*
G02*
X38550001Y-57480000I-249999J0D01*
G01*
G37*
%TD.AperFunction*%
%TD*%
%TO.P,R18,1*%
%TO.N,Net-(IC1-Pad3)*%
%TA.AperFunction,SMDPad,CuDef*%
G36*
G01*
X38040000Y-74110001D02*
X38040000Y-73209999D01*
G75*
G02*
X38289999Y-72960000I249999J0D01*
G01*
X38990001Y-72960000D01*
G75*
G02*
X39240000Y-73209999I0J-249999D01*
G01*
X39240000Y-74110001D01*
G75*
G02*
X38990001Y-74360000I-249999J0D01*
G01*
X38289999Y-74360000D01*
G75*
G02*
X38040000Y-74110001I0J249999D01*
G01*
G37*
%TD.AperFunction*%
%TO.P,R18,2*%
%TO.N,V_MIC*%
%TA.AperFunction,SMDPad,CuDef*%
G36*
G01*
X40040000Y-74110001D02*
X40040000Y-73209999D01*
G75*
G02*
X40289999Y-72960000I249999J0D01*
G01*
X40990001Y-72960000D01*
G75*
G02*
X41240000Y-73209999I0J-249999D01*
G01*
X41240000Y-74110001D01*
G75*
G02*
X40990001Y-74360000I-249999J0D01*
G01*
X40289999Y-74360000D01*
G75*
G02*
X40040000Y-74110001I0J249999D01*
G01*
G37*
%TD.AperFunction*%
%TD*%
%TO.P,R19,2*%
%TO.N,Net-(2channel_pot1-Pad2)*%
%TA.AperFunction,SMDPad,CuDef*%
G36*
G01*
X54740000Y-71570001D02*
X54740000Y-70669999D01*
G75*
G02*
X54989999Y-70420000I249999J0D01*
G01*
X55690001Y-70420000D01*
G75*
G02*
X55940000Y-70669999I0J-249999D01*
G01*
X55940000Y-71570001D01*
G75*
G02*
X55690001Y-71820000I-249999J0D01*
G01*
X54989999Y-71820000D01*
G75*
G02*
X54740000Y-71570001I0J249999D01*
G01*
G37*
%TD.AperFunction*%
%TO.P,R19,1*%
%TO.N,V_OUT*%
%TA.AperFunction,SMDPad,CuDef*%
G36*
G01*
X52740000Y-71570001D02*
X52740000Y-70669999D01*
G75*
G02*
X52989999Y-70420000I249999J0D01*
G01*
X53690001Y-70420000D01*
G75*
G02*
X53940000Y-70669999I0J-249999D01*
G01*
X53940000Y-71570001D01*
G75*
G02*
X53690001Y-71820000I-249999J0D01*
G01*
X52989999Y-71820000D01*
G75*
G02*
X52740000Y-71570001I0J249999D01*
G01*
G37*
%TD.AperFunction*%
%TD*%
D29*
%TO.P,PS2,1*%
%TO.N,Net-(C4-Pad2)*%
X60726000Y-34610000D03*
%TO.P,PS2,2*%
%TO.N,GND*%
X60726000Y-35560000D03*
%TO.P,PS2,3*%
%TO.N,Net-(PS2-Pad3)*%
X60726000Y-36510000D03*
%TO.P,PS2,4*%
%TO.N,Net-(PS2-Pad4)*%
X63226000Y-36510000D03*
%TO.P,PS2,5*%
%TO.N,+12V*%
X63226000Y-35560000D03*
%TO.P,PS2,6*%
%TO.N,Net-(C4-Pad1)*%
X63226000Y-34610000D03*
%TD*%
%TO.P,C23,2*%
%TO.N,V_ANC*%
%TA.AperFunction,SMDPad,CuDef*%
G36*
G01*
X42705000Y-32000000D02*
X43655000Y-32000000D01*
G75*
G02*
X43905000Y-32250000I0J-250000D01*
G01*
X43905000Y-32925000D01*
G75*
G02*
X43655000Y-33175000I-250000J0D01*
G01*
X42705000Y-33175000D01*
G75*
G02*
X42455000Y-32925000I0J250000D01*
G01*
X42455000Y-32250000D01*
G75*
G02*
X42705000Y-32000000I250000J0D01*
G01*
G37*
%TD.AperFunction*%
%TO.P,C23,1*%
%TO.N,GND_MIC&ANC*%
%TA.AperFunction,SMDPad,CuDef*%
G36*
G01*
X42705000Y-29925000D02*
X43655000Y-29925000D01*
G75*
G02*
X43905000Y-30175000I0J-250000D01*
G01*
X43905000Y-30850000D01*
G75*
G02*
X43655000Y-31100000I-250000J0D01*
G01*
X42705000Y-31100000D01*
G75*
G02*
X42455000Y-30850000I0J250000D01*
G01*
X42455000Y-30175000D01*
G75*
G02*
X42705000Y-29925000I250000J0D01*
G01*
G37*
%TD.AperFunction*%
%TD*%
%TO.P,C24,1*%
%TO.N,GND_MIC&ANC*%
%TA.AperFunction,SMDPad,CuDef*%
G36*
G01*
X40165000Y-29925000D02*
X41115000Y-29925000D01*
G75*
G02*
X41365000Y-30175000I0J-250000D01*
G01*
X41365000Y-30850000D01*
G75*
G02*
X41115000Y-31100000I-250000J0D01*
G01*
X40165000Y-31100000D01*
G75*
G02*
X39915000Y-30850000I0J250000D01*
G01*
X39915000Y-30175000D01*
G75*
G02*
X40165000Y-29925000I250000J0D01*
G01*
G37*
%TD.AperFunction*%
%TO.P,C24,2*%
%TO.N,V_ANC*%
%TA.AperFunction,SMDPad,CuDef*%
G36*
G01*
X40165000Y-32000000D02*
X41115000Y-32000000D01*
G75*
G02*
X41365000Y-32250000I0J-250000D01*
G01*
X41365000Y-32925000D01*
G75*
G02*
X41115000Y-33175000I-250000J0D01*
G01*
X40165000Y-33175000D01*
G75*
G02*
X39915000Y-32925000I0J250000D01*
G01*
X39915000Y-32250000D01*
G75*
G02*
X40165000Y-32000000I250000J0D01*
G01*
G37*
%TD.AperFunction*%
%TD*%
%TO.P,R23,1*%
%TO.N,V_ANC*%
%TA.AperFunction,SMDPad,CuDef*%
G36*
G01*
X46170001Y-33150000D02*
X45269999Y-33150000D01*
G75*
G02*
X45020000Y-32900001I0J249999D01*
G01*
X45020000Y-32199999D01*
G75*
G02*
X45269999Y-31950000I249999J0D01*
G01*
X46170001Y-31950000D01*
G75*
G02*
X46420000Y-32199999I0J-249999D01*
G01*
X46420000Y-32900001D01*
G75*
G02*
X46170001Y-33150000I-249999J0D01*
G01*
G37*
%TD.AperFunction*%
%TO.P,R23,2*%
%TO.N,+3V3*%
%TA.AperFunction,SMDPad,CuDef*%
G36*
G01*
X46170001Y-31150000D02*
X45269999Y-31150000D01*
G75*
G02*
X45020000Y-30900001I0J249999D01*
G01*
X45020000Y-30199999D01*
G75*
G02*
X45269999Y-29950000I249999J0D01*
G01*
X46170001Y-29950000D01*
G75*
G02*
X46420000Y-30199999I0J-249999D01*
G01*
X46420000Y-30900001D01*
G75*
G02*
X46170001Y-31150000I-249999J0D01*
G01*
G37*
%TD.AperFunction*%
%TD*%
D30*
%TO.P,D7,1*%
%TO.N,Net-(C4-Pad2)*%
X56763000Y-34036000D03*
%TO.P,D7,2*%
%TO.N,+3V3*%
X53963000Y-34036000D03*
%TD*%
D31*
%TO.N,GND*%
X77216000Y-35814000D03*
X57658000Y-35052000D03*
X82804000Y-38354000D03*
X72136000Y-60452000D03*
X76200000Y-41910000D03*
X77216000Y-38608000D03*
X58420000Y-40386000D03*
X56642000Y-42164000D03*
X57658000Y-37084000D03*
X75669669Y-58397669D03*
X66802000Y-63962000D03*
X66802000Y-66040000D03*
X69088000Y-41148000D03*
X68834000Y-31496000D03*
X60960000Y-66040000D03*
X52070000Y-33020000D03*
%TO.N,+3.3VA*%
X56896000Y-54610000D03*
X52578000Y-54102000D03*
%TO.N,VSS_IN_1*%
X77990000Y-48006000D03*
%TO.N,VSS_IN_2*%
X77978000Y-52578000D03*
%TO.N,Net-(2.2uF2-Pad2)*%
X76708000Y-44196000D03*
X75692000Y-47244000D03*
%TO.N,+3V3*%
X74930000Y-46482000D03*
X80772000Y-40200990D03*
X78232000Y-41910000D03*
%TO.N,RCC_OSC_IN*%
X55118000Y-53848000D03*
X59690000Y-48624740D03*
%TO.N,+5V*%
X70358000Y-40132000D03*
X79502000Y-40132000D03*
X85852000Y-42672000D03*
X84328000Y-40284999D03*
X74930000Y-74930000D03*
%TO.N,+12V*%
X67310000Y-37592000D03*
%TO.N,CAN_L1*%
X79502000Y-54864000D03*
%TO.N,12C1_SCL*%
X77724000Y-44958000D03*
%TO.N,I2C2_SCL*%
X58420000Y-64770000D03*
X71120000Y-67310000D03*
%TO.N,12C2_SDA*%
X74930000Y-60960000D03*
X58420000Y-66040000D03*
X76962000Y-53086000D03*
X79756000Y-50038000D03*
X72390000Y-67310000D03*
X72607023Y-61177023D03*
%TO.N,SWCLK*%
X68580000Y-43180000D03*
%TO.N,SWDIO*%
X62230000Y-45720000D03*
X71120000Y-52070000D03*
X74930000Y-52070000D03*
%TO.N,NRST*%
X58512546Y-50800000D03*
%TO.N,SWO*%
X60960000Y-26670000D03*
X67310000Y-43180000D03*
%TO.N,CAN1_RX*%
X64770000Y-41910000D03*
%TO.N,CAN1_TX*%
X64050920Y-42660000D03*
%TO.N,GND_MIC&ANC*%
X36830000Y-59690000D03*
X45897500Y-59512500D03*
%TO.N,V_ANC*%
X38100000Y-33020000D03*
%TO.N,V_MIC*%
X36830000Y-69850000D03*
%TO.N,PTT*%
X57450000Y-51500000D03*
%TO.N,BREAK_PRESSURE_0*%
X73660000Y-63500000D03*
X60960000Y-57150000D03*
X73660000Y-67310000D03*
%TO.N,ADC1_IN0_AMORKI*%
X58166000Y-55372000D03*
X85598000Y-62230000D03*
%TO.N,ADC2_IN1_AMORKI*%
X59436000Y-54864000D03*
%TO.N,BREAK_PRESSURE_ADC*%
X74930000Y-64692000D03*
X69850000Y-64770000D03*
%TO.N,LED_GND*%
X74930000Y-67310000D03*
%TO.N,Net-(Q1-Pad1)*%
X80010000Y-78740000D03*
X76200000Y-81280000D03*
%TD*%
D32*
%TO.N,TIM2_ETR*%
X65300920Y-56299740D02*
X65300920Y-58905080D01*
X64516000Y-59690000D02*
X65300920Y-58905080D01*
X64516000Y-59890000D02*
X64516000Y-59690000D01*
D33*
%TO.N,GND*%
X57785000Y-34925000D02*
X57658000Y-35052000D01*
X59501000Y-34925000D02*
X57785000Y-34925000D01*
D32*
X82550000Y-38100000D02*
X82804000Y-38354000D01*
X79502000Y-38100000D02*
X82550000Y-38100000D01*
X53340000Y-47138000D02*
X52726000Y-47752000D01*
X53340000Y-45466000D02*
X53340000Y-47138000D01*
X55176000Y-50052000D02*
X55626000Y-50052000D01*
X52876000Y-47752000D02*
X55176000Y-50052000D01*
X52726000Y-47752000D02*
X52876000Y-47752000D01*
X55626000Y-51816000D02*
X56134000Y-52324000D01*
X55626000Y-50052000D02*
X55626000Y-51816000D01*
X60103438Y-52374740D02*
X61375920Y-52374740D01*
X60052698Y-52324000D02*
X60103438Y-52374740D01*
X56134000Y-52324000D02*
X60052698Y-52324000D01*
X56134000Y-54102000D02*
X54610000Y-55626000D01*
X56134000Y-52324000D02*
X56134000Y-54102000D01*
X54610000Y-55626000D02*
X54610000Y-57658000D01*
X57877990Y-59724010D02*
X58928000Y-58674000D01*
X55951010Y-59724010D02*
X57877990Y-59724010D01*
X54610000Y-58383000D02*
X55951010Y-59724010D01*
X54610000Y-57658000D02*
X54610000Y-58383000D01*
X70823000Y-61765000D02*
X72136000Y-60452000D01*
X70358000Y-61765000D02*
X70823000Y-61765000D01*
X76178500Y-41888500D02*
X76200000Y-41910000D01*
X73660000Y-41888500D02*
X76178500Y-41888500D01*
X77216000Y-35814000D02*
X79502000Y-38100000D01*
X65437998Y-38862000D02*
X67056000Y-38862000D01*
X63300919Y-43434039D02*
X63300919Y-42269079D01*
X63800920Y-43934040D02*
X63300919Y-43434039D01*
X63800920Y-44949740D02*
X63800920Y-43934040D01*
X60303079Y-42269079D02*
X58420000Y-40386000D01*
X63300919Y-42269079D02*
X60303079Y-42269079D01*
X56642000Y-42164000D02*
X53340000Y-45466000D01*
X57658000Y-39624000D02*
X57658000Y-37084000D01*
X58420000Y-40386000D02*
X57658000Y-39624000D01*
X76962000Y-57105338D02*
X75669669Y-58397669D01*
X76962000Y-56642000D02*
X76962000Y-57105338D01*
X59168860Y-58914860D02*
X58928000Y-58674000D01*
X58928000Y-59127120D02*
X58928000Y-58674000D01*
X76211999Y-53036335D02*
X72136000Y-57112334D01*
X72136000Y-57112334D02*
X72136000Y-60452000D01*
X76211999Y-52058001D02*
X76211999Y-53036335D01*
X76962000Y-51308000D02*
X76211999Y-52058001D01*
X68834000Y-32004000D02*
X70104000Y-33274000D01*
X68834000Y-31496000D02*
X68834000Y-32004000D01*
D34*
X55880000Y-66605001D02*
X58979500Y-66605001D01*
X56278000Y-66605001D02*
X56278000Y-67255001D01*
X56278000Y-67255001D02*
X56278000Y-67905001D01*
X56278000Y-67905001D02*
X56278000Y-68555001D01*
X59450001Y-66605001D02*
X59690000Y-66845000D01*
X56278000Y-66605001D02*
X59450001Y-66605001D01*
X59690000Y-66845000D02*
X60155000Y-66845000D01*
X60155000Y-66845000D02*
X60960000Y-66040000D01*
X60960000Y-66040000D02*
X60960000Y-66040000D01*
D32*
X74454000Y-72390000D02*
X70850000Y-72390000D01*
X69750010Y-71290010D02*
X69750010Y-69151464D01*
X70850000Y-72390000D02*
X69750010Y-71290010D01*
X62210009Y-67290009D02*
X60960000Y-66040000D01*
X52070000Y-33020000D02*
X52070000Y-33020000D01*
X65437998Y-38862000D02*
X65437998Y-40132000D01*
X67056000Y-39116000D02*
X67056000Y-38862000D01*
X69088000Y-41148000D02*
X67056000Y-39116000D01*
X63300919Y-42269079D02*
X63300919Y-41182010D01*
X64387988Y-41182010D02*
X65437998Y-40132000D01*
X63300919Y-41182010D02*
X64387988Y-41182010D01*
X77470000Y-24130000D02*
X74930000Y-24130000D01*
X74930000Y-24130000D02*
X72390000Y-24130000D01*
X51837500Y-34290000D02*
X51837500Y-36830000D01*
X53594000Y-36830000D02*
X54356000Y-36068000D01*
X51837500Y-36830000D02*
X53594000Y-36830000D01*
X51837500Y-34290000D02*
X51837500Y-33252500D01*
X51837500Y-33252500D02*
X52070000Y-33020000D01*
X71880002Y-31496000D02*
X68834000Y-31496000D01*
X76130001Y-27246001D02*
X71880002Y-31496000D01*
X76130001Y-25469999D02*
X76130001Y-27246001D01*
X77470000Y-24130000D02*
X76130001Y-25469999D01*
D33*
X60136000Y-35560000D02*
X59501000Y-34925000D01*
X60726000Y-35560000D02*
X60136000Y-35560000D01*
D32*
X63800920Y-57357080D02*
X62484000Y-58674000D01*
X63800920Y-56299740D02*
X63800920Y-57357080D01*
X62484000Y-58674000D02*
X58928000Y-58674000D01*
X64516000Y-61890000D02*
X66802000Y-61890000D01*
X66040000Y-66040000D02*
X64171764Y-66040000D01*
X66802000Y-66040000D02*
X66040000Y-66040000D01*
X66040000Y-66040000D02*
X65840880Y-66040000D01*
X64171764Y-66040000D02*
X61460010Y-63328246D01*
X58928000Y-60760880D02*
X58928000Y-58674000D01*
X61460010Y-63292890D02*
X58928000Y-60760880D01*
X61460010Y-63328246D02*
X61460010Y-63292890D01*
X58420000Y-70697001D02*
X58420000Y-74930000D01*
X56278000Y-68555001D02*
X58420000Y-70697001D01*
D33*
X59069422Y-60760880D02*
X59034066Y-60760880D01*
X59034066Y-60760880D02*
X58981033Y-60707847D01*
X64348542Y-66040000D02*
X59069422Y-60760880D01*
X66802000Y-66040000D02*
X64348542Y-66040000D01*
X59034066Y-58780066D02*
X58928000Y-58674000D01*
X59034066Y-60760880D02*
X59034066Y-58780066D01*
X82804000Y-35052000D02*
X92456000Y-25400000D01*
X82804000Y-38354000D02*
X82804000Y-35052000D01*
X44704000Y-25654000D02*
X52070000Y-33020000D01*
X35560000Y-25654000D02*
X44704000Y-25654000D01*
X53594999Y-79755001D02*
X58420000Y-74930000D01*
X36575001Y-79755001D02*
X53594999Y-79755001D01*
X35560000Y-78740000D02*
X36575001Y-79755001D01*
X79756000Y-38354000D02*
X77216000Y-35814000D01*
X82804000Y-38354000D02*
X79756000Y-38354000D01*
X77216000Y-35814000D02*
X74676000Y-33274000D01*
X74676000Y-33274000D02*
X70104000Y-33274000D01*
X78994000Y-38608000D02*
X79502000Y-38100000D01*
X77216000Y-38608000D02*
X78994000Y-38608000D01*
D32*
X66802000Y-61890000D02*
X66802000Y-63962000D01*
X69398536Y-68799990D02*
X63719990Y-68799990D01*
X69750010Y-69151464D02*
X69398536Y-68799990D01*
X63719990Y-68799990D02*
X60960000Y-66040000D01*
%TO.N,TIM3_ETR*%
X65800920Y-58888920D02*
X66802000Y-59890000D01*
X65800920Y-56299740D02*
X65800920Y-58888920D01*
%TO.N,Net-(10k1-Pad2)*%
X66078002Y-40862000D02*
X67056000Y-40862000D01*
X65300920Y-44949740D02*
X65300920Y-42909082D01*
X66078002Y-40862000D02*
X65780003Y-41159999D01*
X65780003Y-42429999D02*
X65300920Y-42909082D01*
X65780003Y-41159999D02*
X65780003Y-42429999D01*
%TO.N,+3.3VA*%
X51519000Y-56642000D02*
X52535000Y-55626000D01*
X51519000Y-56642000D02*
X52535000Y-57658000D01*
X49784000Y-56642000D02*
X51519000Y-56642000D01*
X56896000Y-54311334D02*
X56896000Y-54610000D01*
X58332594Y-52874740D02*
X56896000Y-54311334D01*
X61375920Y-52874740D02*
X58332594Y-52874740D01*
X52578000Y-55583000D02*
X52535000Y-55626000D01*
X52578000Y-54102000D02*
X52578000Y-55583000D01*
%TO.N,VSS_IN_1*%
X76962000Y-49034000D02*
X77990000Y-48006000D01*
X76962000Y-49308000D02*
X76962000Y-49034000D01*
%TO.N,VSS_IN_2*%
X77978000Y-53626000D02*
X77978000Y-52578000D01*
X76962000Y-54642000D02*
X77978000Y-53626000D01*
%TO.N,Net-(2.2uF1-Pad2)*%
X70300920Y-57175798D02*
X70300920Y-56299740D01*
X70358000Y-57232878D02*
X70300920Y-57175798D01*
X70358000Y-59690000D02*
X70358000Y-57232878D01*
%TO.N,Net-(2.2uF2-Pad2)*%
X76475500Y-43963500D02*
X76708000Y-44196000D01*
X73660000Y-43963500D02*
X76475500Y-43963500D01*
X75561260Y-47374740D02*
X75692000Y-47244000D01*
X72725920Y-47374740D02*
X75561260Y-47374740D01*
D33*
%TO.N,+3V3*%
X54372000Y-38100000D02*
X54372000Y-38116000D01*
X54372000Y-38116000D02*
X60706000Y-44450000D01*
D32*
X61352740Y-46874740D02*
X61375920Y-46874740D01*
X60706000Y-46228000D02*
X61352740Y-46874740D01*
X60706000Y-44450000D02*
X60706000Y-46228000D01*
X63300920Y-44504920D02*
X63300920Y-44949740D01*
X63246000Y-44450000D02*
X63300920Y-44504920D01*
X60706000Y-44450000D02*
X63246000Y-44450000D01*
X86478998Y-48960000D02*
X89662000Y-48960000D01*
X85686999Y-48168001D02*
X86478998Y-48960000D01*
X85686999Y-45935001D02*
X85686999Y-48168001D01*
X87162000Y-44460000D02*
X85686999Y-45935001D01*
X91137001Y-52668001D02*
X90345002Y-53460000D01*
X91137001Y-50435001D02*
X91137001Y-52668001D01*
X89662000Y-48960000D02*
X91137001Y-50435001D01*
X87162000Y-53460000D02*
X90345002Y-53460000D01*
X74537260Y-46874740D02*
X74930000Y-46482000D01*
X72725920Y-46874740D02*
X74537260Y-46874740D01*
X76442001Y-46883999D02*
X76040002Y-46482000D01*
X76040002Y-46482000D02*
X74930000Y-46482000D01*
X82017002Y-40132000D02*
X80772000Y-40132000D01*
X86345002Y-44460000D02*
X82017002Y-40132000D01*
X87162000Y-44460000D02*
X86345002Y-44460000D01*
X77030881Y-46883999D02*
X76442001Y-46883999D01*
X78740000Y-45174880D02*
X77030881Y-46883999D01*
X78740000Y-42418000D02*
X78740000Y-45174880D01*
X78232000Y-41910000D02*
X78740000Y-42418000D01*
D34*
X58420000Y-60960000D02*
X54610000Y-60960000D01*
X67162001Y-66790001D02*
X64250001Y-66790001D01*
X59575001Y-64655001D02*
X59690000Y-64770000D01*
X59690000Y-64770000D02*
X60960000Y-63500000D01*
X60960000Y-63500000D02*
X58420000Y-60960000D01*
X64250001Y-66790001D02*
X60960000Y-63500000D01*
D32*
X69885666Y-68580000D02*
X74930000Y-68580000D01*
X68095667Y-66790001D02*
X69885666Y-68580000D01*
X67162001Y-66790001D02*
X68095667Y-66790001D01*
X67150002Y-65278000D02*
X65786000Y-65278000D01*
X68095667Y-66223665D02*
X67150002Y-65278000D01*
X68095667Y-66790001D02*
X68095667Y-66223665D01*
X57035001Y-64655001D02*
X58190002Y-63500000D01*
X56278000Y-64655001D02*
X57035001Y-64655001D01*
X58190002Y-63500000D02*
X59690000Y-63500000D01*
X59690000Y-63500000D02*
X60960000Y-63500000D01*
X76442001Y-47604001D02*
X76442001Y-47232001D01*
X75911990Y-48134012D02*
X76442001Y-47604001D01*
X75911990Y-51650890D02*
X75911990Y-48134012D01*
X75711989Y-51850891D02*
X75911990Y-51650890D01*
X76442001Y-47232001D02*
X76442001Y-46883999D01*
X75711989Y-52764729D02*
X75711989Y-51850891D01*
X72176978Y-56299740D02*
X75711989Y-52764729D01*
X70800920Y-56299740D02*
X72176978Y-56299740D01*
X59575750Y-24130000D02*
X67310000Y-24130000D01*
X54495750Y-29210000D02*
X59575750Y-24130000D01*
X49762500Y-34290000D02*
X49762500Y-36830000D01*
X54295000Y-33993000D02*
X54338000Y-34036000D01*
X54338000Y-34036000D02*
X54338000Y-34329500D01*
X55306010Y-37165990D02*
X54372000Y-38100000D01*
X55306010Y-35004010D02*
X55306010Y-37165990D01*
X51032500Y-46757500D02*
X49184546Y-48605454D01*
X64300920Y-57619080D02*
X62230000Y-59690000D01*
X64300920Y-56299740D02*
X64300920Y-57619080D01*
X65548334Y-65278000D02*
X65786000Y-65278000D01*
X62230000Y-61959666D02*
X65548334Y-65278000D01*
X62230000Y-59690000D02*
X62230000Y-61959666D01*
D33*
X51032500Y-38100000D02*
X49762500Y-36830000D01*
X54372000Y-38100000D02*
X51032500Y-38100000D01*
X51032500Y-46685498D02*
X51032500Y-38332500D01*
X45999500Y-56642000D02*
X45999500Y-51718498D01*
D32*
X51032500Y-38332500D02*
X51032500Y-46757500D01*
D33*
X45999500Y-51718498D02*
X51032500Y-46685498D01*
D32*
X51032500Y-38100000D02*
X51032500Y-38332500D01*
D33*
X52483010Y-58833010D02*
X53340000Y-59690000D01*
X48190510Y-58833010D02*
X52483010Y-58833010D01*
X45999500Y-56642000D02*
X48190510Y-58833010D01*
D34*
X54610000Y-60960000D02*
X53340000Y-59690000D01*
D33*
X53340000Y-59690000D02*
X54698388Y-61048388D01*
X54698388Y-61048388D02*
X58331612Y-61048388D01*
X64173225Y-66890001D02*
X58331612Y-61048388D01*
X70027088Y-68580000D02*
X68337089Y-66890001D01*
X68337089Y-66890001D02*
X64173225Y-66890001D01*
X75031962Y-68580000D02*
X70027088Y-68580000D01*
X79172990Y-66040000D02*
X77571962Y-66040000D01*
X84162000Y-61050990D02*
X79172990Y-66040000D01*
X77571962Y-66040000D02*
X75031962Y-68580000D01*
X84162000Y-59460000D02*
X84162000Y-61050990D01*
D32*
X91137001Y-54251999D02*
X90345002Y-53460000D01*
X91137001Y-62365001D02*
X91137001Y-54251999D01*
X90522001Y-62980001D02*
X91137001Y-62365001D01*
X85237999Y-62980001D02*
X90522001Y-62980001D01*
X84162000Y-61904002D02*
X85237999Y-62980001D01*
X84162000Y-61050990D02*
X84162000Y-61904002D01*
X49762500Y-34290000D02*
X49762500Y-33697501D01*
X49460000Y-34290000D02*
X45720000Y-30550000D01*
X49762500Y-34290000D02*
X49460000Y-34290000D01*
D34*
X53963000Y-29742750D02*
X54495750Y-29210000D01*
X53963000Y-34036000D02*
X53963000Y-29742750D01*
X54338000Y-34036000D02*
X55306010Y-35004010D01*
X53963000Y-34036000D02*
X54338000Y-34036000D01*
D32*
%TO.N,RCC_OSC_IN*%
X52726000Y-50991000D02*
X54059000Y-52324000D01*
X52726000Y-50052000D02*
X52726000Y-50991000D01*
X54059000Y-52789000D02*
X55118000Y-53848000D01*
X54059000Y-52324000D02*
X54059000Y-52789000D01*
X59940000Y-48874740D02*
X61375920Y-48874740D01*
X59690000Y-48624740D02*
X59940000Y-48874740D01*
%TO.N,Net-(C4-Pad2)*%
X59120000Y-34036000D02*
X59501000Y-33655000D01*
X56388000Y-34036000D02*
X59120000Y-34036000D01*
X59501000Y-32404000D02*
X61171000Y-30734000D01*
X59501000Y-33655000D02*
X59501000Y-32404000D01*
X59771000Y-33655000D02*
X60726000Y-34610000D01*
X59501000Y-33655000D02*
X59771000Y-33655000D01*
D34*
X56763000Y-34036000D02*
X59120000Y-34036000D01*
D33*
%TO.N,+5V*%
X70358000Y-40132000D02*
X79502000Y-40132000D01*
X85852000Y-41808999D02*
X84328000Y-40284999D01*
X85852000Y-42672000D02*
X85852000Y-41808999D01*
D32*
X70875000Y-69850000D02*
X74413000Y-69850000D01*
X74839454Y-69850000D02*
X74413000Y-69850000D01*
X63420000Y-74930000D02*
X74930000Y-74930000D01*
X77470000Y-67310000D02*
X77424727Y-67264727D01*
X77424727Y-67264727D02*
X74839454Y-69850000D01*
D33*
X91737011Y-62613533D02*
X91737011Y-45035011D01*
X87085817Y-67264727D02*
X91737011Y-62613533D01*
X91737011Y-45035011D02*
X89662000Y-42960000D01*
X77424727Y-67264727D02*
X87085817Y-67264727D01*
X77504010Y-67344010D02*
X77470000Y-67310000D01*
X77504010Y-73129956D02*
X77504010Y-67344010D01*
X75703966Y-74930000D02*
X77504010Y-73129956D01*
X74930000Y-74930000D02*
X75703966Y-74930000D01*
%TO.N,+12V*%
X63246000Y-38670000D02*
X64451000Y-37465000D01*
X63246000Y-40132000D02*
X63246000Y-38670000D01*
D35*
X64578000Y-37592000D02*
X64451000Y-37465000D01*
X67310000Y-37592000D02*
X64578000Y-37592000D01*
D33*
X64578000Y-35812000D02*
X64578000Y-37592000D01*
X64326000Y-35560000D02*
X64578000Y-35812000D01*
X63226000Y-35560000D02*
X64326000Y-35560000D01*
D32*
%TO.N,Net-(D1-Pad1)*%
X56896000Y-58642000D02*
X56928000Y-58674000D01*
X56896000Y-56642000D02*
X56896000Y-58642000D01*
%TO.N,LED_STATUS*%
X59108660Y-56642000D02*
X61375920Y-54374740D01*
X58946000Y-56642000D02*
X59108660Y-56642000D01*
%TO.N,Net-(D3-Pad1)*%
X76454000Y-69859000D02*
X76463000Y-69850000D01*
X76454000Y-72390000D02*
X76454000Y-69859000D01*
%TO.N,Net-(D5-Pad1)*%
X68825000Y-72365000D02*
X68850000Y-72390000D01*
X68825000Y-69850000D02*
X68825000Y-72365000D01*
%TO.N,CAN_L1*%
X80978998Y-50460000D02*
X84162000Y-50460000D01*
X79502000Y-51936998D02*
X80978998Y-50460000D01*
X79502000Y-54864000D02*
X79502000Y-51936998D01*
%TO.N,12C1_SCL*%
X66300920Y-43935080D02*
X66300920Y-44949740D01*
X66780023Y-42844219D02*
X66300920Y-43323322D01*
X66300920Y-43323322D02*
X66300920Y-43935080D01*
X66780023Y-42410010D02*
X66780023Y-42844219D01*
X71327110Y-42410010D02*
X66780023Y-42410010D01*
X71743110Y-42826010D02*
X71327110Y-42410010D01*
X76448012Y-42826010D02*
X71743110Y-42826010D01*
X77724000Y-44101998D02*
X76448012Y-42826010D01*
X77724000Y-44958000D02*
X77724000Y-44101998D01*
%TO.N,I2C1_SDA*%
X81835992Y-40950990D02*
X84162000Y-43276998D01*
X84162000Y-43276998D02*
X84162000Y-44460000D01*
X73349010Y-40950990D02*
X81835992Y-40950990D01*
X71825010Y-40950990D02*
X73349010Y-40950990D01*
X72079010Y-40950990D02*
X73349010Y-40950990D01*
X71120000Y-41910000D02*
X72079010Y-40950990D01*
X66280013Y-41910000D02*
X71120000Y-41910000D01*
X66280013Y-42637109D02*
X66280013Y-41910000D01*
X65800920Y-43116202D02*
X66280013Y-42637109D01*
X65800920Y-44949740D02*
X65800920Y-43116202D01*
D34*
%TO.N,I2C2_SCL*%
X77216000Y-57912000D02*
X77305190Y-57912000D01*
D32*
X69300920Y-57191080D02*
X69300920Y-56299740D01*
X69067250Y-57424750D02*
X69300920Y-57191080D01*
X68119270Y-57424750D02*
X69067250Y-57424750D01*
X67852010Y-57692010D02*
X68119270Y-57424750D01*
X67852010Y-62264010D02*
X67852010Y-57692010D01*
X71889990Y-63238010D02*
X72450490Y-62677510D01*
X68826010Y-63238010D02*
X71889990Y-63238010D01*
X67852010Y-62264010D02*
X68826010Y-63238010D01*
D34*
X72450490Y-62677510D02*
X73787000Y-61341000D01*
D32*
X72450490Y-62677510D02*
X72898000Y-62230000D01*
X72898000Y-62230000D02*
X72644000Y-62484000D01*
X73787000Y-61341000D02*
X72898000Y-62230000D01*
X73787000Y-61341000D02*
X77216000Y-57912000D01*
X57884999Y-65305001D02*
X58420000Y-64770000D01*
X56278000Y-65305001D02*
X57884999Y-65305001D01*
X71120000Y-64008000D02*
X71889990Y-63238010D01*
X71120000Y-67310000D02*
X71120000Y-64008000D01*
X81662000Y-43776998D02*
X81662000Y-42960000D01*
X79967440Y-45471558D02*
X81662000Y-43776998D01*
X79967440Y-46947440D02*
X79967440Y-45471558D01*
X79255990Y-47658890D02*
X79967440Y-46947440D01*
X79255990Y-49428008D02*
X79255990Y-47658890D01*
X78740000Y-49943998D02*
X79255990Y-49428008D01*
X78740000Y-57404000D02*
X78740000Y-49943998D01*
X78232000Y-57912000D02*
X78740000Y-57404000D01*
X77216000Y-57912000D02*
X78232000Y-57912000D01*
%TO.N,12C2_SDA*%
X69800920Y-58586034D02*
X69088000Y-59298954D01*
X69800920Y-56299740D02*
X69800920Y-58586034D01*
X71046046Y-62738000D02*
X72607023Y-61177023D01*
X73332046Y-60452000D02*
X73332046Y-56623408D01*
X69669954Y-62738000D02*
X71046046Y-62738000D01*
X73332046Y-56623408D02*
X76869454Y-53086000D01*
X69088000Y-62156046D02*
X69669954Y-62738000D01*
X69088000Y-59298954D02*
X69088000Y-62156046D01*
X76869454Y-53086000D02*
X76962000Y-53086000D01*
X79756000Y-47866000D02*
X81662000Y-45960000D01*
X79756000Y-50038000D02*
X79756000Y-47866000D01*
X58335001Y-65955001D02*
X58420000Y-66040000D01*
X56278000Y-65955001D02*
X58335001Y-65955001D01*
X72390000Y-67310000D02*
X72390000Y-63500000D01*
X72390000Y-63500000D02*
X74930000Y-60960000D01*
X72607023Y-61177023D02*
X73332046Y-60452000D01*
%TO.N,SWCLK*%
X70800920Y-44949740D02*
X70800920Y-43499080D01*
X70800920Y-43499080D02*
X70481840Y-43180000D01*
X70481840Y-43180000D02*
X69850000Y-43180000D01*
X68580000Y-43180000D02*
X68580000Y-43180000D01*
X69850000Y-43180000D02*
X68580000Y-43180000D01*
%TO.N,SWDIO*%
X74544740Y-47874740D02*
X72725920Y-47874740D01*
X74930000Y-48260000D02*
X74544740Y-47874740D01*
X74930000Y-52070000D02*
X74930000Y-48260000D01*
X71120000Y-52070000D02*
X66040000Y-46990000D01*
X66040000Y-46990000D02*
X63500000Y-46990000D01*
X63500000Y-46990000D02*
X62230000Y-45720000D01*
%TO.N,NRST*%
X59437806Y-49874740D02*
X58512546Y-50800000D01*
X61375920Y-49874740D02*
X59437806Y-49874740D01*
X58512546Y-50800000D02*
X58512546Y-50800000D01*
%TO.N,SWO*%
X67800920Y-44949740D02*
X67800920Y-43959080D01*
X67800920Y-43670920D02*
X67800920Y-43959080D01*
X67310000Y-43180000D02*
X67800920Y-43670920D01*
X73729999Y-27870001D02*
X74930000Y-26670000D01*
X62160001Y-27870001D02*
X73729999Y-27870001D01*
X60960000Y-26670000D02*
X62160001Y-27870001D01*
%TO.N,RCC_OSC_OUT*%
X58289260Y-49374740D02*
X58166000Y-49498000D01*
X61375920Y-49374740D02*
X58289260Y-49374740D01*
%TO.N,CAN1_RX*%
X64800920Y-44073682D02*
X64800920Y-44949740D01*
X64800920Y-41940920D02*
X64770000Y-41910000D01*
X64800920Y-44949740D02*
X64800920Y-41940920D01*
%TO.N,CAN1_TX*%
X64300920Y-44949740D02*
X64300920Y-43726920D01*
X64050920Y-42660000D02*
X64300910Y-42909990D01*
X64300910Y-43726910D02*
X64300920Y-43726920D01*
X64300910Y-42909990D02*
X64300910Y-43726910D01*
%TO.N,Net-(C2-Pad1)*%
X57912000Y-47752000D02*
X58166000Y-47498000D01*
X55626000Y-47752000D02*
X57912000Y-47752000D01*
X55626000Y-45677000D02*
X55415000Y-45466000D01*
X55626000Y-47752000D02*
X55626000Y-45677000D01*
D33*
%TO.N,Net-(C4-Pad1)*%
X65514000Y-30734000D02*
X63246000Y-30734000D01*
X68054000Y-33274000D02*
X65514000Y-30734000D01*
X61722000Y-29210000D02*
X58280250Y-29210000D01*
X63246000Y-30734000D02*
X61722000Y-29210000D01*
X64562000Y-33274000D02*
X63226000Y-34610000D01*
X68054000Y-33274000D02*
X64562000Y-33274000D01*
D32*
%TO.N,Net-(PS2-Pad4)*%
X61246000Y-40132000D02*
X61246000Y-39210000D01*
X63226000Y-37230000D02*
X61246000Y-39210000D01*
X63226000Y-36510000D02*
X63226000Y-37230000D01*
%TO.N,Net-(PS2-Pad3)*%
X56372000Y-36084000D02*
X56356000Y-36068000D01*
X56372000Y-38100000D02*
X56372000Y-36084000D01*
X59816000Y-36510000D02*
X60726000Y-36510000D01*
X59374000Y-36068000D02*
X59816000Y-36510000D01*
X56356000Y-36068000D02*
X59374000Y-36068000D01*
D34*
%TO.N,Net-(2channel_pot1-Pad1)*%
X38782799Y-68200001D02*
X46259999Y-68200001D01*
X38319999Y-66882799D02*
X38319999Y-67737201D01*
X38319999Y-67737201D02*
X38782799Y-68200001D01*
X38877203Y-66419999D02*
X38782799Y-66419999D01*
X40100001Y-65197201D02*
X38877203Y-66419999D01*
X38782799Y-66419999D02*
X38319999Y-66882799D01*
X40100001Y-64342799D02*
X40100001Y-65197201D01*
X39637201Y-63879999D02*
X40100001Y-64342799D01*
X46259999Y-68200001D02*
X47150000Y-67310000D01*
X39144997Y-63879999D02*
X39637201Y-63879999D01*
X38100000Y-62835002D02*
X39144997Y-63879999D01*
X38100000Y-56880000D02*
X38100000Y-62835002D01*
D32*
X49005969Y-64655001D02*
X50402000Y-64655001D01*
X47150000Y-66510970D02*
X49005969Y-64655001D01*
X47150000Y-67310000D02*
X47150000Y-66510970D01*
%TO.N,Net-(2channel_pot1-Pad2)*%
X49314499Y-69060002D02*
X50104497Y-69850000D01*
X49314499Y-65355002D02*
X49314499Y-69060002D01*
X49364500Y-65305001D02*
X49314499Y-65355002D01*
X50402000Y-65305001D02*
X49364500Y-65305001D01*
X54070000Y-69850000D02*
X55340000Y-71120000D01*
X50104497Y-69850000D02*
X54070000Y-69850000D01*
X49370000Y-69850000D02*
X50104497Y-69850000D01*
X43020000Y-76200000D02*
X49370000Y-69850000D01*
D34*
%TO.N,GND_SPK*%
X32970000Y-44450000D02*
X34290000Y-44450000D01*
X34290000Y-44450000D02*
X35560000Y-45720000D01*
X33488161Y-67899501D02*
X32339501Y-67899501D01*
X31559501Y-63249501D02*
X30480000Y-62170000D01*
X31559501Y-67119501D02*
X31559501Y-63249501D01*
X35560000Y-65827662D02*
X33488161Y-67899501D01*
X32339501Y-67899501D02*
X31559501Y-67119501D01*
X35560000Y-45720000D02*
X35560000Y-65827662D01*
%TO.N,GND_MIC&ANC*%
X43142500Y-34560000D02*
X43180000Y-34522500D01*
X40640000Y-34560000D02*
X43142500Y-34560000D01*
X42947500Y-57150000D02*
X42947500Y-54045001D01*
D32*
X51489501Y-64150000D02*
X51489501Y-65810002D01*
X51419501Y-64080000D02*
X51489501Y-64150000D01*
X50465000Y-64080000D02*
X51419501Y-64080000D01*
X43535000Y-57150000D02*
X45897500Y-59512500D01*
X42947500Y-57150000D02*
X43535000Y-57150000D01*
X50476999Y-66030000D02*
X50402000Y-65955001D01*
X43180000Y-34522500D02*
X43180000Y-34290000D01*
D34*
X30480000Y-66820000D02*
X29210000Y-65550000D01*
X29210000Y-59792338D02*
X30480000Y-58522338D01*
X29210000Y-65550000D02*
X29210000Y-59792338D01*
X30480000Y-58522338D02*
X30480000Y-46500000D01*
D32*
X51419501Y-65880002D02*
X51489501Y-65810002D01*
X50715001Y-65955001D02*
X50790000Y-65880002D01*
X50790000Y-65880002D02*
X51419501Y-65880002D01*
X50402000Y-65955001D02*
X50715001Y-65955001D01*
X28984989Y-38325011D02*
X29210000Y-38100000D01*
X28984989Y-45004989D02*
X28984989Y-38325011D01*
X30480000Y-46500000D02*
X28984989Y-45004989D01*
X29210000Y-38100000D02*
X35560000Y-38100000D01*
X35560000Y-38100000D02*
X36830000Y-36830000D01*
X38993225Y-33584990D02*
X40304118Y-34895883D01*
X36830000Y-34131454D02*
X37376464Y-33584990D01*
X37376464Y-33584990D02*
X38993225Y-33584990D01*
X36830000Y-36830000D02*
X36830000Y-34131454D01*
X33684916Y-68374511D02*
X36035010Y-66024417D01*
X32034511Y-68374511D02*
X33684916Y-68374511D01*
X30480000Y-66820000D02*
X32034511Y-68374511D01*
X36035010Y-60484990D02*
X36830000Y-59690000D01*
X36035010Y-66024417D02*
X36035010Y-60484990D01*
X45897500Y-59512500D02*
X50465000Y-64080000D01*
X43180000Y-30512500D02*
X40640000Y-30512500D01*
X36830000Y-33179998D02*
X36830000Y-34131454D01*
X39497498Y-30512500D02*
X36830000Y-33179998D01*
X40640000Y-30512500D02*
X39497498Y-30512500D01*
D34*
%TO.N,Net-(C10-Pad1)*%
X43682500Y-36597500D02*
X45720000Y-34560000D01*
X43180000Y-36597500D02*
X43682500Y-36597500D01*
%TO.N,Net-(C11-Pad1)*%
X43117501Y-51800000D02*
X40872500Y-54045001D01*
X43180000Y-51800000D02*
X43117501Y-51800000D01*
X40872500Y-54045001D02*
X40872500Y-57150000D01*
X40872500Y-65647500D02*
X39210000Y-67310000D01*
X40872500Y-57150000D02*
X40872500Y-65647500D01*
%TO.N,V_ANC*%
X29459999Y-40829999D02*
X29459999Y-39310399D01*
X30480000Y-41850000D02*
X29459999Y-40829999D01*
X35917501Y-38779999D02*
X38100000Y-36597500D01*
X29990399Y-38779999D02*
X35917501Y-38779999D01*
X29459999Y-39310399D02*
X29990399Y-38779999D01*
D32*
X43217500Y-32550000D02*
X43180000Y-32587500D01*
X45720000Y-32550000D02*
X43217500Y-32550000D01*
X43180000Y-32587500D02*
X40640000Y-32587500D01*
X40640000Y-32587500D02*
X38532500Y-32587500D01*
X38532500Y-32587500D02*
X38100000Y-33020000D01*
D34*
%TO.N,Net-(C22-Pad1)*%
X38602500Y-34522500D02*
X40640000Y-36560000D01*
X38100000Y-34522500D02*
X38602500Y-34522500D01*
X40640000Y-36560000D02*
X40640000Y-36830000D01*
X38830001Y-38369999D02*
X40640000Y-36560000D01*
X38830001Y-43559999D02*
X38830001Y-38369999D01*
X37940000Y-44450000D02*
X38830001Y-43559999D01*
D32*
%TO.N,Net-(IC1-Pad3)*%
X38991454Y-73660000D02*
X38640000Y-73660000D01*
X43020000Y-77688546D02*
X38991454Y-73660000D01*
X43020000Y-78740000D02*
X43020000Y-77688546D01*
%TO.N,V_OUT*%
X53340000Y-76360000D02*
X50960000Y-78740000D01*
X53340000Y-71120000D02*
X53340000Y-76360000D01*
D34*
%TO.N,Net-(IC2-Pad2)*%
X49530000Y-39640000D02*
X49530000Y-39370000D01*
X48800000Y-39640000D02*
X49530000Y-39640000D01*
X45720000Y-36560000D02*
X48800000Y-39640000D01*
X38367201Y-45340001D02*
X45720000Y-37987202D01*
X37512799Y-45340001D02*
X38367201Y-45340001D01*
X37049999Y-44877201D02*
X37512799Y-45340001D01*
X37049999Y-42800001D02*
X37049999Y-44877201D01*
X45720000Y-37987202D02*
X45720000Y-36560000D01*
X37940000Y-41910000D02*
X37049999Y-42800001D01*
%TO.N,Net-(IC2-Pad6)*%
X49530000Y-41640000D02*
X49530000Y-41910000D01*
X48690000Y-41640000D02*
X45880000Y-44450000D01*
X49530000Y-41640000D02*
X48690000Y-41640000D01*
X43180000Y-47150000D02*
X43180000Y-49800000D01*
X45880000Y-44450000D02*
X43180000Y-47150000D01*
X43180000Y-49800000D02*
X40640000Y-49800000D01*
%TO.N,Net-(IC3-Pad2)*%
X40640000Y-52340000D02*
X38100000Y-54880000D01*
X40640000Y-51800000D02*
X40640000Y-52340000D01*
X38100000Y-54880000D02*
X37074990Y-55905010D01*
D32*
X37049990Y-57478536D02*
X37401464Y-57830010D01*
X37049990Y-55930010D02*
X37049990Y-57478536D01*
X37074990Y-55905010D02*
X37049990Y-55930010D01*
X37401464Y-57830010D02*
X37401464Y-62808230D01*
X39210000Y-64616766D02*
X39210000Y-64770000D01*
X37401464Y-62808230D02*
X39210000Y-64616766D01*
%TO.N,V_MIC*%
X36830000Y-69850000D02*
X40640000Y-73660000D01*
D34*
%TO.N,SPK+*%
X31500001Y-40820001D02*
X30480000Y-39800000D01*
X31500001Y-59099999D02*
X31500001Y-40820001D01*
X30480000Y-60120000D02*
X31500001Y-59099999D01*
%TO.N,TX_DATA*%
X34049501Y-47579501D02*
X32970000Y-46500000D01*
X34049501Y-65740499D02*
X34049501Y-47579501D01*
X32970000Y-66820000D02*
X34049501Y-65740499D01*
D32*
%TO.N,PTT*%
X60115260Y-50374740D02*
X58666010Y-51823990D01*
X61375920Y-50374740D02*
X60115260Y-50374740D01*
X57773990Y-51823990D02*
X57450000Y-51500000D01*
X58666010Y-51823990D02*
X57773990Y-51823990D01*
%TO.N,BREAK_PRESSURE_0*%
X63300920Y-56299740D02*
X63080260Y-56299740D01*
X63080260Y-56299740D02*
X62230000Y-57150000D01*
X62230000Y-57150000D02*
X60960000Y-57150000D01*
X81662000Y-55498000D02*
X81662000Y-54960000D01*
X73660000Y-63500000D02*
X81662000Y-55498000D01*
X73660000Y-63500000D02*
X73660000Y-67310000D01*
%TO.N,ADC1_IN0_AMORKI*%
X58539714Y-53374740D02*
X58166000Y-53748454D01*
X58166000Y-53748454D02*
X58166000Y-55372000D01*
X61375920Y-53374740D02*
X58539714Y-53374740D01*
X85686999Y-51935001D02*
X87162000Y-50460000D01*
X85686999Y-60118003D02*
X85686999Y-51935001D01*
X85598000Y-60207002D02*
X85686999Y-60118003D01*
X85598000Y-62230000D02*
X85598000Y-60207002D01*
%TO.N,ADC2_IN1_AMORKI*%
X60425260Y-53874740D02*
X59436000Y-54864000D01*
X61375920Y-53874740D02*
X60425260Y-53874740D01*
%TO.N,BREAK_PRESSURE_ADC*%
X64800920Y-57956534D02*
X62730010Y-60027444D01*
X64800920Y-56299740D02*
X64800920Y-57956534D01*
X62730010Y-61752556D02*
X64477454Y-63500000D01*
X62730010Y-60027444D02*
X62730010Y-61752556D01*
X64477454Y-63500000D02*
X65747454Y-64770000D01*
X65747454Y-64770000D02*
X69850000Y-64770000D01*
X81662000Y-57960000D02*
X74930000Y-64692000D01*
X74930000Y-64692000D02*
X74930000Y-64692000D01*
X69850000Y-64770000D02*
X69850000Y-64770000D01*
D33*
%TO.N,LED_GND*%
X81662000Y-60960000D02*
X75312000Y-67310000D01*
X75312000Y-67310000D02*
X74930000Y-67310000D01*
X74930000Y-67310000D02*
X74930000Y-67310000D01*
D32*
%TO.N,Net-(Q1-Pad1)*%
X80010000Y-78740000D02*
X78740000Y-78740000D01*
X78740000Y-78740000D02*
X76200000Y-81280000D01*
%TD*%
M02*
