M48
; DRILL file {KiCad (5.1.10)-1} date 05/04/22 21:28:49
; FORMAT={-:-/ absolute / metric / decimal}
; #@! TF.CreationDate,2022-05-04T21:28:49+02:00
; #@! TF.GenerationSoftware,Kicad,Pcbnew,(5.1.10)-1
; #@! TF.FileFunction,Plated,1,2,PTH
FMAT,2
METRIC
T1C0.400
T2C0.600
T3C0.730
T4C0.890
T5C0.970
T6C1.000
T7C1.500
T8C2.000
T9C2.290
T10C2.370
T11C3.400
T12C5.000
%
G90
G05
T1
X36.83Y-59.69
X36.83Y-69.85
X38.1Y-33.02
X45.898Y-59.512
X52.07Y-33.02
X52.578Y-54.102
X55.118Y-53.848
X56.642Y-42.164
X56.896Y-54.61
X57.45Y-51.5
X57.658Y-35.052
X57.658Y-37.084
X58.166Y-55.372
X58.42Y-40.386
X58.42Y-64.77
X58.42Y-66.04
X58.513Y-50.8
X59.436Y-54.864
X59.69Y-48.625
X60.96Y-26.67
X60.96Y-57.15
X60.96Y-66.04
X62.23Y-45.72
X64.051Y-42.66
X64.77Y-41.91
X66.802Y-63.962
X66.802Y-66.04
X67.31Y-37.592
X67.31Y-43.18
X68.58Y-43.18
X68.834Y-31.496
X69.088Y-41.148
X69.85Y-64.77
X70.358Y-40.132
X71.12Y-52.07
X71.12Y-67.31
X72.136Y-60.452
X72.39Y-67.31
X72.607Y-61.177
X73.66Y-63.5
X73.66Y-67.31
X74.93Y-46.482
X74.93Y-52.07
X74.93Y-60.96
X74.93Y-64.692
X74.93Y-67.31
X74.93Y-74.93
X75.67Y-58.398
X75.692Y-47.244
X76.2Y-41.91
X76.2Y-81.28
X76.708Y-44.196
X76.962Y-53.086
X77.216Y-35.814
X77.216Y-38.608
X77.724Y-44.958
X77.978Y-52.578
X77.99Y-48.006
X78.232Y-41.91
X79.502Y-40.132
X79.502Y-54.864
X79.756Y-50.038
X80.01Y-78.74
X80.772Y-40.201
X82.804Y-38.354
X84.328Y-40.285
X85.598Y-62.23
X85.852Y-42.672
T2
X31.81Y-25.654
X31.81Y-78.74
X32.908Y-23.002
X32.908Y-28.306
X32.908Y-76.088
X32.908Y-81.392
X35.56Y-21.904
X35.56Y-29.404
X35.56Y-74.99
X35.56Y-82.49
X38.212Y-23.002
X38.212Y-28.306
X38.212Y-76.088
X38.212Y-81.392
X39.31Y-25.654
X39.31Y-78.74
X84.134Y-78.74
X85.232Y-76.088
X85.232Y-81.392
X87.884Y-74.99
X87.884Y-82.49
X88.706Y-25.4
X89.804Y-22.748
X89.804Y-28.052
X90.536Y-76.088
X90.536Y-81.392
X91.634Y-78.74
X92.456Y-21.65
X92.456Y-29.15
X95.108Y-22.748
X95.108Y-28.052
X96.206Y-25.4
T3
X37.94Y-39.37
X37.94Y-41.91
X37.94Y-44.45
X37.94Y-46.99
X39.21Y-62.23
X39.21Y-64.77
X39.21Y-67.31
X39.21Y-69.85
X43.02Y-73.66
X43.02Y-76.2
X43.02Y-78.74
X43.02Y-81.28
X45.88Y-39.37
X45.88Y-41.91
X45.88Y-44.45
X45.88Y-46.99
X47.15Y-62.23
X47.15Y-64.77
X47.15Y-67.31
X47.15Y-69.85
X50.96Y-73.66
X50.96Y-76.2
X50.96Y-78.74
X50.96Y-81.28
T4
X30.48Y-39.8
X30.48Y-41.85
X30.48Y-44.45
X30.48Y-46.5
X32.97Y-39.8
X32.97Y-42.34
X32.97Y-44.45
X32.97Y-46.5
T5
X30.48Y-60.12
X30.48Y-62.17
X30.48Y-64.77
X30.48Y-66.82
X32.97Y-60.12
X32.97Y-66.82
T6
X58.42Y-74.93
X60.92Y-74.93
X63.42Y-74.93
X67.31Y-24.13
X67.31Y-26.67
X69.85Y-24.13
X69.85Y-26.67
X72.39Y-24.13
X72.39Y-26.67
X74.93Y-24.13
X74.93Y-26.67
X77.47Y-24.13
X77.47Y-26.67
T7
X81.662Y-42.96
X81.662Y-45.96
X81.662Y-48.96
X81.662Y-51.96
X81.662Y-54.96
X81.662Y-57.96
X81.662Y-60.96
X84.162Y-44.46
X84.162Y-47.46
X84.162Y-50.46
X84.162Y-53.46
X84.162Y-56.46
X84.162Y-59.46
X87.162Y-44.46
X87.162Y-47.46
X87.162Y-50.46
X87.162Y-53.46
X87.162Y-56.46
X87.162Y-59.46
X89.662Y-42.96
X89.662Y-45.96
X89.662Y-48.96
X89.662Y-51.96
X89.662Y-54.96
X89.662Y-57.96
X89.662Y-60.96
T8
X56.07Y-81.78
X65.64Y-81.78
T9
X26.67Y-43.15
X27.48Y-36.39
X27.48Y-49.91
T10
X26.67Y-63.47
X27.48Y-56.71
X27.48Y-70.23
T11
X96.162Y-35.71
X96.162Y-68.21
T12
X35.56Y-25.654
X35.56Y-78.74
X87.884Y-78.74
X92.456Y-25.4
T0
M30
