%TF.GenerationSoftware,KiCad,Pcbnew,(5.1.12)-1*%
%TF.CreationDate,2022-05-05T18:44:07+02:00*%
%TF.ProjectId,telemetria tyl,74656c65-6d65-4747-9269-612074796c2e,rev?*%
%TF.SameCoordinates,Original*%
%TF.FileFunction,Soldermask,Top*%
%TF.FilePolarity,Negative*%
%FSLAX46Y46*%
G04 Gerber Fmt 4.6, Leading zero omitted, Abs format (unit mm)*
G04 Created by KiCad (PCBNEW (5.1.12)-1) date 2022-05-05 18:44:07*
%MOMM*%
%LPD*%
G01*
G04 APERTURE LIST*
%ADD10C,1.800000*%
%ADD11C,4.000000*%
%ADD12C,1.509000*%
%ADD13C,3.555000*%
%ADD14R,1.854500X2.286000*%
%ADD15C,0.900000*%
%ADD16C,10.000000*%
%ADD17R,2.250000X2.250000*%
%ADD18C,2.250000*%
%ADD19C,5.100000*%
%ADD20R,2.100000X1.800000*%
%ADD21R,1.475000X0.450000*%
%ADD22R,1.130000X1.130000*%
%ADD23C,1.130000*%
%ADD24R,1.700000X1.700000*%
%ADD25O,1.700000X1.700000*%
%ADD26R,1.390000X1.390000*%
%ADD27C,1.390000*%
%ADD28C,3.440000*%
%ADD29R,1.200000X0.600000*%
%ADD30R,1.100000X1.100000*%
G04 APERTURE END LIST*
D10*
%TO.C,RV1*%
X63420000Y-74930000D03*
X60920000Y-74930000D03*
X58420000Y-74930000D03*
D11*
X65640000Y-81780000D03*
X56070000Y-81780000D03*
%TD*%
D12*
%TO.C,Mini_DIN_OUT1*%
X30480000Y-64770000D03*
X30480000Y-62170000D03*
X30480000Y-66820000D03*
X30480000Y-60120000D03*
X32970000Y-66820000D03*
X32970000Y-60120000D03*
D13*
X27480000Y-70230000D03*
X26670000Y-63470000D03*
X27480000Y-56710000D03*
%TD*%
%TO.C,R8*%
G36*
G01*
X55772000Y-38550001D02*
X55772000Y-37649999D01*
G75*
G02*
X56021999Y-37400000I249999J0D01*
G01*
X56722001Y-37400000D01*
G75*
G02*
X56972000Y-37649999I0J-249999D01*
G01*
X56972000Y-38550001D01*
G75*
G02*
X56722001Y-38800000I-249999J0D01*
G01*
X56021999Y-38800000D01*
G75*
G02*
X55772000Y-38550001I0J249999D01*
G01*
G37*
G36*
G01*
X53772000Y-38550001D02*
X53772000Y-37649999D01*
G75*
G02*
X54021999Y-37400000I249999J0D01*
G01*
X54722001Y-37400000D01*
G75*
G02*
X54972000Y-37649999I0J-249999D01*
G01*
X54972000Y-38550001D01*
G75*
G02*
X54722001Y-38800000I-249999J0D01*
G01*
X54021999Y-38800000D01*
G75*
G02*
X53772000Y-38550001I0J249999D01*
G01*
G37*
%TD*%
%TO.C,R7*%
G36*
G01*
X54956000Y-35617999D02*
X54956000Y-36518001D01*
G75*
G02*
X54706001Y-36768000I-249999J0D01*
G01*
X54005999Y-36768000D01*
G75*
G02*
X53756000Y-36518001I0J249999D01*
G01*
X53756000Y-35617999D01*
G75*
G02*
X54005999Y-35368000I249999J0D01*
G01*
X54706001Y-35368000D01*
G75*
G02*
X54956000Y-35617999I0J-249999D01*
G01*
G37*
G36*
G01*
X56956000Y-35617999D02*
X56956000Y-36518001D01*
G75*
G02*
X56706001Y-36768000I-249999J0D01*
G01*
X56005999Y-36768000D01*
G75*
G02*
X55756000Y-36518001I0J249999D01*
G01*
X55756000Y-35617999D01*
G75*
G02*
X56005999Y-35368000I249999J0D01*
G01*
X56706001Y-35368000D01*
G75*
G02*
X56956000Y-35617999I0J-249999D01*
G01*
G37*
%TD*%
D14*
%TO.C,L2*%
X54495750Y-29210000D03*
X58280250Y-29210000D03*
%TD*%
%TO.C,D6*%
G36*
G01*
X69529000Y-33724001D02*
X69529000Y-32823999D01*
G75*
G02*
X69778999Y-32574000I249999J0D01*
G01*
X70429001Y-32574000D01*
G75*
G02*
X70679000Y-32823999I0J-249999D01*
G01*
X70679000Y-33724001D01*
G75*
G02*
X70429001Y-33974000I-249999J0D01*
G01*
X69778999Y-33974000D01*
G75*
G02*
X69529000Y-33724001I0J249999D01*
G01*
G37*
G36*
G01*
X67479000Y-33724001D02*
X67479000Y-32823999D01*
G75*
G02*
X67728999Y-32574000I249999J0D01*
G01*
X68379001Y-32574000D01*
G75*
G02*
X68629000Y-32823999I0J-249999D01*
G01*
X68629000Y-33724001D01*
G75*
G02*
X68379001Y-33974000I-249999J0D01*
G01*
X67728999Y-33974000D01*
G75*
G02*
X67479000Y-33724001I0J249999D01*
G01*
G37*
%TD*%
%TO.C,C7*%
G36*
G01*
X51250000Y-34765000D02*
X51250000Y-33815000D01*
G75*
G02*
X51500000Y-33565000I250000J0D01*
G01*
X52175000Y-33565000D01*
G75*
G02*
X52425000Y-33815000I0J-250000D01*
G01*
X52425000Y-34765000D01*
G75*
G02*
X52175000Y-35015000I-250000J0D01*
G01*
X51500000Y-35015000D01*
G75*
G02*
X51250000Y-34765000I0J250000D01*
G01*
G37*
G36*
G01*
X49175000Y-34765000D02*
X49175000Y-33815000D01*
G75*
G02*
X49425000Y-33565000I250000J0D01*
G01*
X50100000Y-33565000D01*
G75*
G02*
X50350000Y-33815000I0J-250000D01*
G01*
X50350000Y-34765000D01*
G75*
G02*
X50100000Y-35015000I-250000J0D01*
G01*
X49425000Y-35015000D01*
G75*
G02*
X49175000Y-34765000I0J250000D01*
G01*
G37*
%TD*%
%TO.C,C4*%
G36*
G01*
X61758500Y-30259000D02*
X61758500Y-31209000D01*
G75*
G02*
X61508500Y-31459000I-250000J0D01*
G01*
X60833500Y-31459000D01*
G75*
G02*
X60583500Y-31209000I0J250000D01*
G01*
X60583500Y-30259000D01*
G75*
G02*
X60833500Y-30009000I250000J0D01*
G01*
X61508500Y-30009000D01*
G75*
G02*
X61758500Y-30259000I0J-250000D01*
G01*
G37*
G36*
G01*
X63833500Y-30259000D02*
X63833500Y-31209000D01*
G75*
G02*
X63583500Y-31459000I-250000J0D01*
G01*
X62908500Y-31459000D01*
G75*
G02*
X62658500Y-31209000I0J250000D01*
G01*
X62658500Y-30259000D01*
G75*
G02*
X62908500Y-30009000I250000J0D01*
G01*
X63583500Y-30009000D01*
G75*
G02*
X63833500Y-30259000I0J-250000D01*
G01*
G37*
%TD*%
%TO.C,1k2*%
G36*
G01*
X76511999Y-56042000D02*
X77412001Y-56042000D01*
G75*
G02*
X77662000Y-56291999I0J-249999D01*
G01*
X77662000Y-56992001D01*
G75*
G02*
X77412001Y-57242000I-249999J0D01*
G01*
X76511999Y-57242000D01*
G75*
G02*
X76262000Y-56992001I0J249999D01*
G01*
X76262000Y-56291999D01*
G75*
G02*
X76511999Y-56042000I249999J0D01*
G01*
G37*
G36*
G01*
X76511999Y-54042000D02*
X77412001Y-54042000D01*
G75*
G02*
X77662000Y-54291999I0J-249999D01*
G01*
X77662000Y-54992001D01*
G75*
G02*
X77412001Y-55242000I-249999J0D01*
G01*
X76511999Y-55242000D01*
G75*
G02*
X76262000Y-54992001I0J249999D01*
G01*
X76262000Y-54291999D01*
G75*
G02*
X76511999Y-54042000I249999J0D01*
G01*
G37*
%TD*%
%TO.C,2.2uF2*%
G36*
G01*
X73185000Y-43376000D02*
X74135000Y-43376000D01*
G75*
G02*
X74385000Y-43626000I0J-250000D01*
G01*
X74385000Y-44301000D01*
G75*
G02*
X74135000Y-44551000I-250000J0D01*
G01*
X73185000Y-44551000D01*
G75*
G02*
X72935000Y-44301000I0J250000D01*
G01*
X72935000Y-43626000D01*
G75*
G02*
X73185000Y-43376000I250000J0D01*
G01*
G37*
G36*
G01*
X73185000Y-41301000D02*
X74135000Y-41301000D01*
G75*
G02*
X74385000Y-41551000I0J-250000D01*
G01*
X74385000Y-42226000D01*
G75*
G02*
X74135000Y-42476000I-250000J0D01*
G01*
X73185000Y-42476000D01*
G75*
G02*
X72935000Y-42226000I0J250000D01*
G01*
X72935000Y-41551000D01*
G75*
G02*
X73185000Y-41301000I250000J0D01*
G01*
G37*
%TD*%
%TO.C,10k1*%
G36*
G01*
X66605999Y-38262000D02*
X67506001Y-38262000D01*
G75*
G02*
X67756000Y-38511999I0J-249999D01*
G01*
X67756000Y-39212001D01*
G75*
G02*
X67506001Y-39462000I-249999J0D01*
G01*
X66605999Y-39462000D01*
G75*
G02*
X66356000Y-39212001I0J249999D01*
G01*
X66356000Y-38511999D01*
G75*
G02*
X66605999Y-38262000I249999J0D01*
G01*
G37*
G36*
G01*
X66605999Y-40262000D02*
X67506001Y-40262000D01*
G75*
G02*
X67756000Y-40511999I0J-249999D01*
G01*
X67756000Y-41212001D01*
G75*
G02*
X67506001Y-41462000I-249999J0D01*
G01*
X66605999Y-41462000D01*
G75*
G02*
X66356000Y-41212001I0J249999D01*
G01*
X66356000Y-40511999D01*
G75*
G02*
X66605999Y-40262000I249999J0D01*
G01*
G37*
%TD*%
%TO.C,1k1*%
G36*
G01*
X76511999Y-48708000D02*
X77412001Y-48708000D01*
G75*
G02*
X77662000Y-48957999I0J-249999D01*
G01*
X77662000Y-49658001D01*
G75*
G02*
X77412001Y-49908000I-249999J0D01*
G01*
X76511999Y-49908000D01*
G75*
G02*
X76262000Y-49658001I0J249999D01*
G01*
X76262000Y-48957999D01*
G75*
G02*
X76511999Y-48708000I249999J0D01*
G01*
G37*
G36*
G01*
X76511999Y-50708000D02*
X77412001Y-50708000D01*
G75*
G02*
X77662000Y-50957999I0J-249999D01*
G01*
X77662000Y-51658001D01*
G75*
G02*
X77412001Y-51908000I-249999J0D01*
G01*
X76511999Y-51908000D01*
G75*
G02*
X76262000Y-51658001I0J249999D01*
G01*
X76262000Y-50957999D01*
G75*
G02*
X76511999Y-50708000I249999J0D01*
G01*
G37*
%TD*%
%TO.C,2.2uF1*%
G36*
G01*
X70833000Y-62352500D02*
X69883000Y-62352500D01*
G75*
G02*
X69633000Y-62102500I0J250000D01*
G01*
X69633000Y-61427500D01*
G75*
G02*
X69883000Y-61177500I250000J0D01*
G01*
X70833000Y-61177500D01*
G75*
G02*
X71083000Y-61427500I0J-250000D01*
G01*
X71083000Y-62102500D01*
G75*
G02*
X70833000Y-62352500I-250000J0D01*
G01*
G37*
G36*
G01*
X70833000Y-60277500D02*
X69883000Y-60277500D01*
G75*
G02*
X69633000Y-60027500I0J250000D01*
G01*
X69633000Y-59352500D01*
G75*
G02*
X69883000Y-59102500I250000J0D01*
G01*
X70833000Y-59102500D01*
G75*
G02*
X71083000Y-59352500I0J-250000D01*
G01*
X71083000Y-60027500D01*
G75*
G02*
X70833000Y-60277500I-250000J0D01*
G01*
G37*
%TD*%
%TO.C,C1*%
G36*
G01*
X53471500Y-52799000D02*
X53471500Y-51849000D01*
G75*
G02*
X53721500Y-51599000I250000J0D01*
G01*
X54396500Y-51599000D01*
G75*
G02*
X54646500Y-51849000I0J-250000D01*
G01*
X54646500Y-52799000D01*
G75*
G02*
X54396500Y-53049000I-250000J0D01*
G01*
X53721500Y-53049000D01*
G75*
G02*
X53471500Y-52799000I0J250000D01*
G01*
G37*
G36*
G01*
X55546500Y-52799000D02*
X55546500Y-51849000D01*
G75*
G02*
X55796500Y-51599000I250000J0D01*
G01*
X56471500Y-51599000D01*
G75*
G02*
X56721500Y-51849000I0J-250000D01*
G01*
X56721500Y-52799000D01*
G75*
G02*
X56471500Y-53049000I-250000J0D01*
G01*
X55796500Y-53049000D01*
G75*
G02*
X55546500Y-52799000I0J250000D01*
G01*
G37*
%TD*%
%TO.C,C8*%
G36*
G01*
X51250000Y-37305000D02*
X51250000Y-36355000D01*
G75*
G02*
X51500000Y-36105000I250000J0D01*
G01*
X52175000Y-36105000D01*
G75*
G02*
X52425000Y-36355000I0J-250000D01*
G01*
X52425000Y-37305000D01*
G75*
G02*
X52175000Y-37555000I-250000J0D01*
G01*
X51500000Y-37555000D01*
G75*
G02*
X51250000Y-37305000I0J250000D01*
G01*
G37*
G36*
G01*
X49175000Y-37305000D02*
X49175000Y-36355000D01*
G75*
G02*
X49425000Y-36105000I250000J0D01*
G01*
X50100000Y-36105000D01*
G75*
G02*
X50350000Y-36355000I0J-250000D01*
G01*
X50350000Y-37305000D01*
G75*
G02*
X50100000Y-37555000I-250000J0D01*
G01*
X49425000Y-37555000D01*
G75*
G02*
X49175000Y-37305000I0J250000D01*
G01*
G37*
%TD*%
%TO.C,C2*%
G36*
G01*
X56002500Y-44991000D02*
X56002500Y-45941000D01*
G75*
G02*
X55752500Y-46191000I-250000J0D01*
G01*
X55077500Y-46191000D01*
G75*
G02*
X54827500Y-45941000I0J250000D01*
G01*
X54827500Y-44991000D01*
G75*
G02*
X55077500Y-44741000I250000J0D01*
G01*
X55752500Y-44741000D01*
G75*
G02*
X56002500Y-44991000I0J-250000D01*
G01*
G37*
G36*
G01*
X53927500Y-44991000D02*
X53927500Y-45941000D01*
G75*
G02*
X53677500Y-46191000I-250000J0D01*
G01*
X53002500Y-46191000D01*
G75*
G02*
X52752500Y-45941000I0J250000D01*
G01*
X52752500Y-44991000D01*
G75*
G02*
X53002500Y-44741000I250000J0D01*
G01*
X53677500Y-44741000D01*
G75*
G02*
X53927500Y-44991000I0J-250000D01*
G01*
G37*
%TD*%
%TO.C,D5*%
G36*
G01*
X68250000Y-70300001D02*
X68250000Y-69399999D01*
G75*
G02*
X68499999Y-69150000I249999J0D01*
G01*
X69150001Y-69150000D01*
G75*
G02*
X69400000Y-69399999I0J-249999D01*
G01*
X69400000Y-70300001D01*
G75*
G02*
X69150001Y-70550000I-249999J0D01*
G01*
X68499999Y-70550000D01*
G75*
G02*
X68250000Y-70300001I0J249999D01*
G01*
G37*
G36*
G01*
X70300000Y-70300001D02*
X70300000Y-69399999D01*
G75*
G02*
X70549999Y-69150000I249999J0D01*
G01*
X71200001Y-69150000D01*
G75*
G02*
X71450000Y-69399999I0J-249999D01*
G01*
X71450000Y-70300001D01*
G75*
G02*
X71200001Y-70550000I-249999J0D01*
G01*
X70549999Y-70550000D01*
G75*
G02*
X70300000Y-70300001I0J249999D01*
G01*
G37*
%TD*%
D15*
%TO.C,H4*%
X90281650Y-22748350D03*
X87630000Y-21650000D03*
X84978350Y-22748350D03*
X83880000Y-25400000D03*
X84978350Y-28051650D03*
X87630000Y-29150000D03*
X90281650Y-28051650D03*
X91380000Y-25400000D03*
D16*
X87630000Y-25400000D03*
%TD*%
D15*
%TO.C,H2*%
X38211650Y-23002350D03*
X35560000Y-21904000D03*
X32908350Y-23002350D03*
X31810000Y-25654000D03*
X32908350Y-28305650D03*
X35560000Y-29404000D03*
X38211650Y-28305650D03*
X39310000Y-25654000D03*
D16*
X35560000Y-25654000D03*
%TD*%
%TO.C,R11*%
G36*
G01*
X56328000Y-59124001D02*
X56328000Y-58223999D01*
G75*
G02*
X56577999Y-57974000I249999J0D01*
G01*
X57278001Y-57974000D01*
G75*
G02*
X57528000Y-58223999I0J-249999D01*
G01*
X57528000Y-59124001D01*
G75*
G02*
X57278001Y-59374000I-249999J0D01*
G01*
X56577999Y-59374000D01*
G75*
G02*
X56328000Y-59124001I0J249999D01*
G01*
G37*
G36*
G01*
X58328000Y-59124001D02*
X58328000Y-58223999D01*
G75*
G02*
X58577999Y-57974000I249999J0D01*
G01*
X59278001Y-57974000D01*
G75*
G02*
X59528000Y-58223999I0J-249999D01*
G01*
X59528000Y-59124001D01*
G75*
G02*
X59278001Y-59374000I-249999J0D01*
G01*
X58577999Y-59374000D01*
G75*
G02*
X58328000Y-59124001I0J249999D01*
G01*
G37*
%TD*%
%TO.C,D3*%
G36*
G01*
X74988000Y-69399999D02*
X74988000Y-70300001D01*
G75*
G02*
X74738001Y-70550000I-249999J0D01*
G01*
X74087999Y-70550000D01*
G75*
G02*
X73838000Y-70300001I0J249999D01*
G01*
X73838000Y-69399999D01*
G75*
G02*
X74087999Y-69150000I249999J0D01*
G01*
X74738001Y-69150000D01*
G75*
G02*
X74988000Y-69399999I0J-249999D01*
G01*
G37*
G36*
G01*
X77038000Y-69399999D02*
X77038000Y-70300001D01*
G75*
G02*
X76788001Y-70550000I-249999J0D01*
G01*
X76137999Y-70550000D01*
G75*
G02*
X75888000Y-70300001I0J249999D01*
G01*
X75888000Y-69399999D01*
G75*
G02*
X76137999Y-69150000I249999J0D01*
G01*
X76788001Y-69150000D01*
G75*
G02*
X77038000Y-69399999I0J-249999D01*
G01*
G37*
%TD*%
%TO.C,H1*%
X35560000Y-78740000D03*
D15*
X39310000Y-78740000D03*
X38211650Y-81391650D03*
X35560000Y-82490000D03*
X32908350Y-81391650D03*
X31810000Y-78740000D03*
X32908350Y-76088350D03*
X35560000Y-74990000D03*
X38211650Y-76088350D03*
%TD*%
%TO.C,U1*%
G36*
G01*
X60600920Y-46949740D02*
X60600920Y-46799740D01*
G75*
G02*
X60675920Y-46724740I75000J0D01*
G01*
X62075920Y-46724740D01*
G75*
G02*
X62150920Y-46799740I0J-75000D01*
G01*
X62150920Y-46949740D01*
G75*
G02*
X62075920Y-47024740I-75000J0D01*
G01*
X60675920Y-47024740D01*
G75*
G02*
X60600920Y-46949740I0J75000D01*
G01*
G37*
G36*
G01*
X60600920Y-47449740D02*
X60600920Y-47299740D01*
G75*
G02*
X60675920Y-47224740I75000J0D01*
G01*
X62075920Y-47224740D01*
G75*
G02*
X62150920Y-47299740I0J-75000D01*
G01*
X62150920Y-47449740D01*
G75*
G02*
X62075920Y-47524740I-75000J0D01*
G01*
X60675920Y-47524740D01*
G75*
G02*
X60600920Y-47449740I0J75000D01*
G01*
G37*
G36*
G01*
X60600920Y-47949740D02*
X60600920Y-47799740D01*
G75*
G02*
X60675920Y-47724740I75000J0D01*
G01*
X62075920Y-47724740D01*
G75*
G02*
X62150920Y-47799740I0J-75000D01*
G01*
X62150920Y-47949740D01*
G75*
G02*
X62075920Y-48024740I-75000J0D01*
G01*
X60675920Y-48024740D01*
G75*
G02*
X60600920Y-47949740I0J75000D01*
G01*
G37*
G36*
G01*
X60600920Y-48449740D02*
X60600920Y-48299740D01*
G75*
G02*
X60675920Y-48224740I75000J0D01*
G01*
X62075920Y-48224740D01*
G75*
G02*
X62150920Y-48299740I0J-75000D01*
G01*
X62150920Y-48449740D01*
G75*
G02*
X62075920Y-48524740I-75000J0D01*
G01*
X60675920Y-48524740D01*
G75*
G02*
X60600920Y-48449740I0J75000D01*
G01*
G37*
G36*
G01*
X60600920Y-48949740D02*
X60600920Y-48799740D01*
G75*
G02*
X60675920Y-48724740I75000J0D01*
G01*
X62075920Y-48724740D01*
G75*
G02*
X62150920Y-48799740I0J-75000D01*
G01*
X62150920Y-48949740D01*
G75*
G02*
X62075920Y-49024740I-75000J0D01*
G01*
X60675920Y-49024740D01*
G75*
G02*
X60600920Y-48949740I0J75000D01*
G01*
G37*
G36*
G01*
X60600920Y-49449740D02*
X60600920Y-49299740D01*
G75*
G02*
X60675920Y-49224740I75000J0D01*
G01*
X62075920Y-49224740D01*
G75*
G02*
X62150920Y-49299740I0J-75000D01*
G01*
X62150920Y-49449740D01*
G75*
G02*
X62075920Y-49524740I-75000J0D01*
G01*
X60675920Y-49524740D01*
G75*
G02*
X60600920Y-49449740I0J75000D01*
G01*
G37*
G36*
G01*
X60600920Y-49949740D02*
X60600920Y-49799740D01*
G75*
G02*
X60675920Y-49724740I75000J0D01*
G01*
X62075920Y-49724740D01*
G75*
G02*
X62150920Y-49799740I0J-75000D01*
G01*
X62150920Y-49949740D01*
G75*
G02*
X62075920Y-50024740I-75000J0D01*
G01*
X60675920Y-50024740D01*
G75*
G02*
X60600920Y-49949740I0J75000D01*
G01*
G37*
G36*
G01*
X60600920Y-50449740D02*
X60600920Y-50299740D01*
G75*
G02*
X60675920Y-50224740I75000J0D01*
G01*
X62075920Y-50224740D01*
G75*
G02*
X62150920Y-50299740I0J-75000D01*
G01*
X62150920Y-50449740D01*
G75*
G02*
X62075920Y-50524740I-75000J0D01*
G01*
X60675920Y-50524740D01*
G75*
G02*
X60600920Y-50449740I0J75000D01*
G01*
G37*
G36*
G01*
X60600920Y-50949740D02*
X60600920Y-50799740D01*
G75*
G02*
X60675920Y-50724740I75000J0D01*
G01*
X62075920Y-50724740D01*
G75*
G02*
X62150920Y-50799740I0J-75000D01*
G01*
X62150920Y-50949740D01*
G75*
G02*
X62075920Y-51024740I-75000J0D01*
G01*
X60675920Y-51024740D01*
G75*
G02*
X60600920Y-50949740I0J75000D01*
G01*
G37*
G36*
G01*
X60600920Y-51449740D02*
X60600920Y-51299740D01*
G75*
G02*
X60675920Y-51224740I75000J0D01*
G01*
X62075920Y-51224740D01*
G75*
G02*
X62150920Y-51299740I0J-75000D01*
G01*
X62150920Y-51449740D01*
G75*
G02*
X62075920Y-51524740I-75000J0D01*
G01*
X60675920Y-51524740D01*
G75*
G02*
X60600920Y-51449740I0J75000D01*
G01*
G37*
G36*
G01*
X60600920Y-51949740D02*
X60600920Y-51799740D01*
G75*
G02*
X60675920Y-51724740I75000J0D01*
G01*
X62075920Y-51724740D01*
G75*
G02*
X62150920Y-51799740I0J-75000D01*
G01*
X62150920Y-51949740D01*
G75*
G02*
X62075920Y-52024740I-75000J0D01*
G01*
X60675920Y-52024740D01*
G75*
G02*
X60600920Y-51949740I0J75000D01*
G01*
G37*
G36*
G01*
X60600920Y-52449740D02*
X60600920Y-52299740D01*
G75*
G02*
X60675920Y-52224740I75000J0D01*
G01*
X62075920Y-52224740D01*
G75*
G02*
X62150920Y-52299740I0J-75000D01*
G01*
X62150920Y-52449740D01*
G75*
G02*
X62075920Y-52524740I-75000J0D01*
G01*
X60675920Y-52524740D01*
G75*
G02*
X60600920Y-52449740I0J75000D01*
G01*
G37*
G36*
G01*
X60600920Y-52949740D02*
X60600920Y-52799740D01*
G75*
G02*
X60675920Y-52724740I75000J0D01*
G01*
X62075920Y-52724740D01*
G75*
G02*
X62150920Y-52799740I0J-75000D01*
G01*
X62150920Y-52949740D01*
G75*
G02*
X62075920Y-53024740I-75000J0D01*
G01*
X60675920Y-53024740D01*
G75*
G02*
X60600920Y-52949740I0J75000D01*
G01*
G37*
G36*
G01*
X60600920Y-53449740D02*
X60600920Y-53299740D01*
G75*
G02*
X60675920Y-53224740I75000J0D01*
G01*
X62075920Y-53224740D01*
G75*
G02*
X62150920Y-53299740I0J-75000D01*
G01*
X62150920Y-53449740D01*
G75*
G02*
X62075920Y-53524740I-75000J0D01*
G01*
X60675920Y-53524740D01*
G75*
G02*
X60600920Y-53449740I0J75000D01*
G01*
G37*
G36*
G01*
X60600920Y-53949740D02*
X60600920Y-53799740D01*
G75*
G02*
X60675920Y-53724740I75000J0D01*
G01*
X62075920Y-53724740D01*
G75*
G02*
X62150920Y-53799740I0J-75000D01*
G01*
X62150920Y-53949740D01*
G75*
G02*
X62075920Y-54024740I-75000J0D01*
G01*
X60675920Y-54024740D01*
G75*
G02*
X60600920Y-53949740I0J75000D01*
G01*
G37*
G36*
G01*
X60600920Y-54449740D02*
X60600920Y-54299740D01*
G75*
G02*
X60675920Y-54224740I75000J0D01*
G01*
X62075920Y-54224740D01*
G75*
G02*
X62150920Y-54299740I0J-75000D01*
G01*
X62150920Y-54449740D01*
G75*
G02*
X62075920Y-54524740I-75000J0D01*
G01*
X60675920Y-54524740D01*
G75*
G02*
X60600920Y-54449740I0J75000D01*
G01*
G37*
G36*
G01*
X63150920Y-56999740D02*
X63150920Y-55599740D01*
G75*
G02*
X63225920Y-55524740I75000J0D01*
G01*
X63375920Y-55524740D01*
G75*
G02*
X63450920Y-55599740I0J-75000D01*
G01*
X63450920Y-56999740D01*
G75*
G02*
X63375920Y-57074740I-75000J0D01*
G01*
X63225920Y-57074740D01*
G75*
G02*
X63150920Y-56999740I0J75000D01*
G01*
G37*
G36*
G01*
X63650920Y-56999740D02*
X63650920Y-55599740D01*
G75*
G02*
X63725920Y-55524740I75000J0D01*
G01*
X63875920Y-55524740D01*
G75*
G02*
X63950920Y-55599740I0J-75000D01*
G01*
X63950920Y-56999740D01*
G75*
G02*
X63875920Y-57074740I-75000J0D01*
G01*
X63725920Y-57074740D01*
G75*
G02*
X63650920Y-56999740I0J75000D01*
G01*
G37*
G36*
G01*
X64150920Y-56999740D02*
X64150920Y-55599740D01*
G75*
G02*
X64225920Y-55524740I75000J0D01*
G01*
X64375920Y-55524740D01*
G75*
G02*
X64450920Y-55599740I0J-75000D01*
G01*
X64450920Y-56999740D01*
G75*
G02*
X64375920Y-57074740I-75000J0D01*
G01*
X64225920Y-57074740D01*
G75*
G02*
X64150920Y-56999740I0J75000D01*
G01*
G37*
G36*
G01*
X64650920Y-56999740D02*
X64650920Y-55599740D01*
G75*
G02*
X64725920Y-55524740I75000J0D01*
G01*
X64875920Y-55524740D01*
G75*
G02*
X64950920Y-55599740I0J-75000D01*
G01*
X64950920Y-56999740D01*
G75*
G02*
X64875920Y-57074740I-75000J0D01*
G01*
X64725920Y-57074740D01*
G75*
G02*
X64650920Y-56999740I0J75000D01*
G01*
G37*
G36*
G01*
X65150920Y-56999740D02*
X65150920Y-55599740D01*
G75*
G02*
X65225920Y-55524740I75000J0D01*
G01*
X65375920Y-55524740D01*
G75*
G02*
X65450920Y-55599740I0J-75000D01*
G01*
X65450920Y-56999740D01*
G75*
G02*
X65375920Y-57074740I-75000J0D01*
G01*
X65225920Y-57074740D01*
G75*
G02*
X65150920Y-56999740I0J75000D01*
G01*
G37*
G36*
G01*
X65650920Y-56999740D02*
X65650920Y-55599740D01*
G75*
G02*
X65725920Y-55524740I75000J0D01*
G01*
X65875920Y-55524740D01*
G75*
G02*
X65950920Y-55599740I0J-75000D01*
G01*
X65950920Y-56999740D01*
G75*
G02*
X65875920Y-57074740I-75000J0D01*
G01*
X65725920Y-57074740D01*
G75*
G02*
X65650920Y-56999740I0J75000D01*
G01*
G37*
G36*
G01*
X66150920Y-56999740D02*
X66150920Y-55599740D01*
G75*
G02*
X66225920Y-55524740I75000J0D01*
G01*
X66375920Y-55524740D01*
G75*
G02*
X66450920Y-55599740I0J-75000D01*
G01*
X66450920Y-56999740D01*
G75*
G02*
X66375920Y-57074740I-75000J0D01*
G01*
X66225920Y-57074740D01*
G75*
G02*
X66150920Y-56999740I0J75000D01*
G01*
G37*
G36*
G01*
X66650920Y-56999740D02*
X66650920Y-55599740D01*
G75*
G02*
X66725920Y-55524740I75000J0D01*
G01*
X66875920Y-55524740D01*
G75*
G02*
X66950920Y-55599740I0J-75000D01*
G01*
X66950920Y-56999740D01*
G75*
G02*
X66875920Y-57074740I-75000J0D01*
G01*
X66725920Y-57074740D01*
G75*
G02*
X66650920Y-56999740I0J75000D01*
G01*
G37*
G36*
G01*
X67150920Y-56999740D02*
X67150920Y-55599740D01*
G75*
G02*
X67225920Y-55524740I75000J0D01*
G01*
X67375920Y-55524740D01*
G75*
G02*
X67450920Y-55599740I0J-75000D01*
G01*
X67450920Y-56999740D01*
G75*
G02*
X67375920Y-57074740I-75000J0D01*
G01*
X67225920Y-57074740D01*
G75*
G02*
X67150920Y-56999740I0J75000D01*
G01*
G37*
G36*
G01*
X67650920Y-56999740D02*
X67650920Y-55599740D01*
G75*
G02*
X67725920Y-55524740I75000J0D01*
G01*
X67875920Y-55524740D01*
G75*
G02*
X67950920Y-55599740I0J-75000D01*
G01*
X67950920Y-56999740D01*
G75*
G02*
X67875920Y-57074740I-75000J0D01*
G01*
X67725920Y-57074740D01*
G75*
G02*
X67650920Y-56999740I0J75000D01*
G01*
G37*
G36*
G01*
X68150920Y-56999740D02*
X68150920Y-55599740D01*
G75*
G02*
X68225920Y-55524740I75000J0D01*
G01*
X68375920Y-55524740D01*
G75*
G02*
X68450920Y-55599740I0J-75000D01*
G01*
X68450920Y-56999740D01*
G75*
G02*
X68375920Y-57074740I-75000J0D01*
G01*
X68225920Y-57074740D01*
G75*
G02*
X68150920Y-56999740I0J75000D01*
G01*
G37*
G36*
G01*
X68650920Y-56999740D02*
X68650920Y-55599740D01*
G75*
G02*
X68725920Y-55524740I75000J0D01*
G01*
X68875920Y-55524740D01*
G75*
G02*
X68950920Y-55599740I0J-75000D01*
G01*
X68950920Y-56999740D01*
G75*
G02*
X68875920Y-57074740I-75000J0D01*
G01*
X68725920Y-57074740D01*
G75*
G02*
X68650920Y-56999740I0J75000D01*
G01*
G37*
G36*
G01*
X69150920Y-56999740D02*
X69150920Y-55599740D01*
G75*
G02*
X69225920Y-55524740I75000J0D01*
G01*
X69375920Y-55524740D01*
G75*
G02*
X69450920Y-55599740I0J-75000D01*
G01*
X69450920Y-56999740D01*
G75*
G02*
X69375920Y-57074740I-75000J0D01*
G01*
X69225920Y-57074740D01*
G75*
G02*
X69150920Y-56999740I0J75000D01*
G01*
G37*
G36*
G01*
X69650920Y-56999740D02*
X69650920Y-55599740D01*
G75*
G02*
X69725920Y-55524740I75000J0D01*
G01*
X69875920Y-55524740D01*
G75*
G02*
X69950920Y-55599740I0J-75000D01*
G01*
X69950920Y-56999740D01*
G75*
G02*
X69875920Y-57074740I-75000J0D01*
G01*
X69725920Y-57074740D01*
G75*
G02*
X69650920Y-56999740I0J75000D01*
G01*
G37*
G36*
G01*
X70150920Y-56999740D02*
X70150920Y-55599740D01*
G75*
G02*
X70225920Y-55524740I75000J0D01*
G01*
X70375920Y-55524740D01*
G75*
G02*
X70450920Y-55599740I0J-75000D01*
G01*
X70450920Y-56999740D01*
G75*
G02*
X70375920Y-57074740I-75000J0D01*
G01*
X70225920Y-57074740D01*
G75*
G02*
X70150920Y-56999740I0J75000D01*
G01*
G37*
G36*
G01*
X70650920Y-56999740D02*
X70650920Y-55599740D01*
G75*
G02*
X70725920Y-55524740I75000J0D01*
G01*
X70875920Y-55524740D01*
G75*
G02*
X70950920Y-55599740I0J-75000D01*
G01*
X70950920Y-56999740D01*
G75*
G02*
X70875920Y-57074740I-75000J0D01*
G01*
X70725920Y-57074740D01*
G75*
G02*
X70650920Y-56999740I0J75000D01*
G01*
G37*
G36*
G01*
X71950920Y-54449740D02*
X71950920Y-54299740D01*
G75*
G02*
X72025920Y-54224740I75000J0D01*
G01*
X73425920Y-54224740D01*
G75*
G02*
X73500920Y-54299740I0J-75000D01*
G01*
X73500920Y-54449740D01*
G75*
G02*
X73425920Y-54524740I-75000J0D01*
G01*
X72025920Y-54524740D01*
G75*
G02*
X71950920Y-54449740I0J75000D01*
G01*
G37*
G36*
G01*
X71950920Y-53949740D02*
X71950920Y-53799740D01*
G75*
G02*
X72025920Y-53724740I75000J0D01*
G01*
X73425920Y-53724740D01*
G75*
G02*
X73500920Y-53799740I0J-75000D01*
G01*
X73500920Y-53949740D01*
G75*
G02*
X73425920Y-54024740I-75000J0D01*
G01*
X72025920Y-54024740D01*
G75*
G02*
X71950920Y-53949740I0J75000D01*
G01*
G37*
G36*
G01*
X71950920Y-53449740D02*
X71950920Y-53299740D01*
G75*
G02*
X72025920Y-53224740I75000J0D01*
G01*
X73425920Y-53224740D01*
G75*
G02*
X73500920Y-53299740I0J-75000D01*
G01*
X73500920Y-53449740D01*
G75*
G02*
X73425920Y-53524740I-75000J0D01*
G01*
X72025920Y-53524740D01*
G75*
G02*
X71950920Y-53449740I0J75000D01*
G01*
G37*
G36*
G01*
X71950920Y-52949740D02*
X71950920Y-52799740D01*
G75*
G02*
X72025920Y-52724740I75000J0D01*
G01*
X73425920Y-52724740D01*
G75*
G02*
X73500920Y-52799740I0J-75000D01*
G01*
X73500920Y-52949740D01*
G75*
G02*
X73425920Y-53024740I-75000J0D01*
G01*
X72025920Y-53024740D01*
G75*
G02*
X71950920Y-52949740I0J75000D01*
G01*
G37*
G36*
G01*
X71950920Y-52449740D02*
X71950920Y-52299740D01*
G75*
G02*
X72025920Y-52224740I75000J0D01*
G01*
X73425920Y-52224740D01*
G75*
G02*
X73500920Y-52299740I0J-75000D01*
G01*
X73500920Y-52449740D01*
G75*
G02*
X73425920Y-52524740I-75000J0D01*
G01*
X72025920Y-52524740D01*
G75*
G02*
X71950920Y-52449740I0J75000D01*
G01*
G37*
G36*
G01*
X71950920Y-51949740D02*
X71950920Y-51799740D01*
G75*
G02*
X72025920Y-51724740I75000J0D01*
G01*
X73425920Y-51724740D01*
G75*
G02*
X73500920Y-51799740I0J-75000D01*
G01*
X73500920Y-51949740D01*
G75*
G02*
X73425920Y-52024740I-75000J0D01*
G01*
X72025920Y-52024740D01*
G75*
G02*
X71950920Y-51949740I0J75000D01*
G01*
G37*
G36*
G01*
X71950920Y-51449740D02*
X71950920Y-51299740D01*
G75*
G02*
X72025920Y-51224740I75000J0D01*
G01*
X73425920Y-51224740D01*
G75*
G02*
X73500920Y-51299740I0J-75000D01*
G01*
X73500920Y-51449740D01*
G75*
G02*
X73425920Y-51524740I-75000J0D01*
G01*
X72025920Y-51524740D01*
G75*
G02*
X71950920Y-51449740I0J75000D01*
G01*
G37*
G36*
G01*
X71950920Y-50949740D02*
X71950920Y-50799740D01*
G75*
G02*
X72025920Y-50724740I75000J0D01*
G01*
X73425920Y-50724740D01*
G75*
G02*
X73500920Y-50799740I0J-75000D01*
G01*
X73500920Y-50949740D01*
G75*
G02*
X73425920Y-51024740I-75000J0D01*
G01*
X72025920Y-51024740D01*
G75*
G02*
X71950920Y-50949740I0J75000D01*
G01*
G37*
G36*
G01*
X71950920Y-50449740D02*
X71950920Y-50299740D01*
G75*
G02*
X72025920Y-50224740I75000J0D01*
G01*
X73425920Y-50224740D01*
G75*
G02*
X73500920Y-50299740I0J-75000D01*
G01*
X73500920Y-50449740D01*
G75*
G02*
X73425920Y-50524740I-75000J0D01*
G01*
X72025920Y-50524740D01*
G75*
G02*
X71950920Y-50449740I0J75000D01*
G01*
G37*
G36*
G01*
X71950920Y-49949740D02*
X71950920Y-49799740D01*
G75*
G02*
X72025920Y-49724740I75000J0D01*
G01*
X73425920Y-49724740D01*
G75*
G02*
X73500920Y-49799740I0J-75000D01*
G01*
X73500920Y-49949740D01*
G75*
G02*
X73425920Y-50024740I-75000J0D01*
G01*
X72025920Y-50024740D01*
G75*
G02*
X71950920Y-49949740I0J75000D01*
G01*
G37*
G36*
G01*
X71950920Y-49449740D02*
X71950920Y-49299740D01*
G75*
G02*
X72025920Y-49224740I75000J0D01*
G01*
X73425920Y-49224740D01*
G75*
G02*
X73500920Y-49299740I0J-75000D01*
G01*
X73500920Y-49449740D01*
G75*
G02*
X73425920Y-49524740I-75000J0D01*
G01*
X72025920Y-49524740D01*
G75*
G02*
X71950920Y-49449740I0J75000D01*
G01*
G37*
G36*
G01*
X71950920Y-48949740D02*
X71950920Y-48799740D01*
G75*
G02*
X72025920Y-48724740I75000J0D01*
G01*
X73425920Y-48724740D01*
G75*
G02*
X73500920Y-48799740I0J-75000D01*
G01*
X73500920Y-48949740D01*
G75*
G02*
X73425920Y-49024740I-75000J0D01*
G01*
X72025920Y-49024740D01*
G75*
G02*
X71950920Y-48949740I0J75000D01*
G01*
G37*
G36*
G01*
X71950920Y-48449740D02*
X71950920Y-48299740D01*
G75*
G02*
X72025920Y-48224740I75000J0D01*
G01*
X73425920Y-48224740D01*
G75*
G02*
X73500920Y-48299740I0J-75000D01*
G01*
X73500920Y-48449740D01*
G75*
G02*
X73425920Y-48524740I-75000J0D01*
G01*
X72025920Y-48524740D01*
G75*
G02*
X71950920Y-48449740I0J75000D01*
G01*
G37*
G36*
G01*
X71950920Y-47949740D02*
X71950920Y-47799740D01*
G75*
G02*
X72025920Y-47724740I75000J0D01*
G01*
X73425920Y-47724740D01*
G75*
G02*
X73500920Y-47799740I0J-75000D01*
G01*
X73500920Y-47949740D01*
G75*
G02*
X73425920Y-48024740I-75000J0D01*
G01*
X72025920Y-48024740D01*
G75*
G02*
X71950920Y-47949740I0J75000D01*
G01*
G37*
G36*
G01*
X71950920Y-47449740D02*
X71950920Y-47299740D01*
G75*
G02*
X72025920Y-47224740I75000J0D01*
G01*
X73425920Y-47224740D01*
G75*
G02*
X73500920Y-47299740I0J-75000D01*
G01*
X73500920Y-47449740D01*
G75*
G02*
X73425920Y-47524740I-75000J0D01*
G01*
X72025920Y-47524740D01*
G75*
G02*
X71950920Y-47449740I0J75000D01*
G01*
G37*
G36*
G01*
X71950920Y-46949740D02*
X71950920Y-46799740D01*
G75*
G02*
X72025920Y-46724740I75000J0D01*
G01*
X73425920Y-46724740D01*
G75*
G02*
X73500920Y-46799740I0J-75000D01*
G01*
X73500920Y-46949740D01*
G75*
G02*
X73425920Y-47024740I-75000J0D01*
G01*
X72025920Y-47024740D01*
G75*
G02*
X71950920Y-46949740I0J75000D01*
G01*
G37*
G36*
G01*
X70650920Y-45649740D02*
X70650920Y-44249740D01*
G75*
G02*
X70725920Y-44174740I75000J0D01*
G01*
X70875920Y-44174740D01*
G75*
G02*
X70950920Y-44249740I0J-75000D01*
G01*
X70950920Y-45649740D01*
G75*
G02*
X70875920Y-45724740I-75000J0D01*
G01*
X70725920Y-45724740D01*
G75*
G02*
X70650920Y-45649740I0J75000D01*
G01*
G37*
G36*
G01*
X70150920Y-45649740D02*
X70150920Y-44249740D01*
G75*
G02*
X70225920Y-44174740I75000J0D01*
G01*
X70375920Y-44174740D01*
G75*
G02*
X70450920Y-44249740I0J-75000D01*
G01*
X70450920Y-45649740D01*
G75*
G02*
X70375920Y-45724740I-75000J0D01*
G01*
X70225920Y-45724740D01*
G75*
G02*
X70150920Y-45649740I0J75000D01*
G01*
G37*
G36*
G01*
X69650920Y-45649740D02*
X69650920Y-44249740D01*
G75*
G02*
X69725920Y-44174740I75000J0D01*
G01*
X69875920Y-44174740D01*
G75*
G02*
X69950920Y-44249740I0J-75000D01*
G01*
X69950920Y-45649740D01*
G75*
G02*
X69875920Y-45724740I-75000J0D01*
G01*
X69725920Y-45724740D01*
G75*
G02*
X69650920Y-45649740I0J75000D01*
G01*
G37*
G36*
G01*
X69150920Y-45649740D02*
X69150920Y-44249740D01*
G75*
G02*
X69225920Y-44174740I75000J0D01*
G01*
X69375920Y-44174740D01*
G75*
G02*
X69450920Y-44249740I0J-75000D01*
G01*
X69450920Y-45649740D01*
G75*
G02*
X69375920Y-45724740I-75000J0D01*
G01*
X69225920Y-45724740D01*
G75*
G02*
X69150920Y-45649740I0J75000D01*
G01*
G37*
G36*
G01*
X68650920Y-45649740D02*
X68650920Y-44249740D01*
G75*
G02*
X68725920Y-44174740I75000J0D01*
G01*
X68875920Y-44174740D01*
G75*
G02*
X68950920Y-44249740I0J-75000D01*
G01*
X68950920Y-45649740D01*
G75*
G02*
X68875920Y-45724740I-75000J0D01*
G01*
X68725920Y-45724740D01*
G75*
G02*
X68650920Y-45649740I0J75000D01*
G01*
G37*
G36*
G01*
X68150920Y-45649740D02*
X68150920Y-44249740D01*
G75*
G02*
X68225920Y-44174740I75000J0D01*
G01*
X68375920Y-44174740D01*
G75*
G02*
X68450920Y-44249740I0J-75000D01*
G01*
X68450920Y-45649740D01*
G75*
G02*
X68375920Y-45724740I-75000J0D01*
G01*
X68225920Y-45724740D01*
G75*
G02*
X68150920Y-45649740I0J75000D01*
G01*
G37*
G36*
G01*
X67650920Y-45649740D02*
X67650920Y-44249740D01*
G75*
G02*
X67725920Y-44174740I75000J0D01*
G01*
X67875920Y-44174740D01*
G75*
G02*
X67950920Y-44249740I0J-75000D01*
G01*
X67950920Y-45649740D01*
G75*
G02*
X67875920Y-45724740I-75000J0D01*
G01*
X67725920Y-45724740D01*
G75*
G02*
X67650920Y-45649740I0J75000D01*
G01*
G37*
G36*
G01*
X67150920Y-45649740D02*
X67150920Y-44249740D01*
G75*
G02*
X67225920Y-44174740I75000J0D01*
G01*
X67375920Y-44174740D01*
G75*
G02*
X67450920Y-44249740I0J-75000D01*
G01*
X67450920Y-45649740D01*
G75*
G02*
X67375920Y-45724740I-75000J0D01*
G01*
X67225920Y-45724740D01*
G75*
G02*
X67150920Y-45649740I0J75000D01*
G01*
G37*
G36*
G01*
X66650920Y-45649740D02*
X66650920Y-44249740D01*
G75*
G02*
X66725920Y-44174740I75000J0D01*
G01*
X66875920Y-44174740D01*
G75*
G02*
X66950920Y-44249740I0J-75000D01*
G01*
X66950920Y-45649740D01*
G75*
G02*
X66875920Y-45724740I-75000J0D01*
G01*
X66725920Y-45724740D01*
G75*
G02*
X66650920Y-45649740I0J75000D01*
G01*
G37*
G36*
G01*
X66150920Y-45649740D02*
X66150920Y-44249740D01*
G75*
G02*
X66225920Y-44174740I75000J0D01*
G01*
X66375920Y-44174740D01*
G75*
G02*
X66450920Y-44249740I0J-75000D01*
G01*
X66450920Y-45649740D01*
G75*
G02*
X66375920Y-45724740I-75000J0D01*
G01*
X66225920Y-45724740D01*
G75*
G02*
X66150920Y-45649740I0J75000D01*
G01*
G37*
G36*
G01*
X65650920Y-45649740D02*
X65650920Y-44249740D01*
G75*
G02*
X65725920Y-44174740I75000J0D01*
G01*
X65875920Y-44174740D01*
G75*
G02*
X65950920Y-44249740I0J-75000D01*
G01*
X65950920Y-45649740D01*
G75*
G02*
X65875920Y-45724740I-75000J0D01*
G01*
X65725920Y-45724740D01*
G75*
G02*
X65650920Y-45649740I0J75000D01*
G01*
G37*
G36*
G01*
X65150920Y-45649740D02*
X65150920Y-44249740D01*
G75*
G02*
X65225920Y-44174740I75000J0D01*
G01*
X65375920Y-44174740D01*
G75*
G02*
X65450920Y-44249740I0J-75000D01*
G01*
X65450920Y-45649740D01*
G75*
G02*
X65375920Y-45724740I-75000J0D01*
G01*
X65225920Y-45724740D01*
G75*
G02*
X65150920Y-45649740I0J75000D01*
G01*
G37*
G36*
G01*
X64650920Y-45649740D02*
X64650920Y-44249740D01*
G75*
G02*
X64725920Y-44174740I75000J0D01*
G01*
X64875920Y-44174740D01*
G75*
G02*
X64950920Y-44249740I0J-75000D01*
G01*
X64950920Y-45649740D01*
G75*
G02*
X64875920Y-45724740I-75000J0D01*
G01*
X64725920Y-45724740D01*
G75*
G02*
X64650920Y-45649740I0J75000D01*
G01*
G37*
G36*
G01*
X64150920Y-45649740D02*
X64150920Y-44249740D01*
G75*
G02*
X64225920Y-44174740I75000J0D01*
G01*
X64375920Y-44174740D01*
G75*
G02*
X64450920Y-44249740I0J-75000D01*
G01*
X64450920Y-45649740D01*
G75*
G02*
X64375920Y-45724740I-75000J0D01*
G01*
X64225920Y-45724740D01*
G75*
G02*
X64150920Y-45649740I0J75000D01*
G01*
G37*
G36*
G01*
X63650920Y-45649740D02*
X63650920Y-44249740D01*
G75*
G02*
X63725920Y-44174740I75000J0D01*
G01*
X63875920Y-44174740D01*
G75*
G02*
X63950920Y-44249740I0J-75000D01*
G01*
X63950920Y-45649740D01*
G75*
G02*
X63875920Y-45724740I-75000J0D01*
G01*
X63725920Y-45724740D01*
G75*
G02*
X63650920Y-45649740I0J75000D01*
G01*
G37*
G36*
G01*
X63150920Y-45649740D02*
X63150920Y-44249740D01*
G75*
G02*
X63225920Y-44174740I75000J0D01*
G01*
X63375920Y-44174740D01*
G75*
G02*
X63450920Y-44249740I0J-75000D01*
G01*
X63450920Y-45649740D01*
G75*
G02*
X63375920Y-45724740I-75000J0D01*
G01*
X63225920Y-45724740D01*
G75*
G02*
X63150920Y-45649740I0J75000D01*
G01*
G37*
%TD*%
%TO.C,0.33k1*%
G36*
G01*
X64966001Y-60490000D02*
X64065999Y-60490000D01*
G75*
G02*
X63816000Y-60240001I0J249999D01*
G01*
X63816000Y-59539999D01*
G75*
G02*
X64065999Y-59290000I249999J0D01*
G01*
X64966001Y-59290000D01*
G75*
G02*
X65216000Y-59539999I0J-249999D01*
G01*
X65216000Y-60240001D01*
G75*
G02*
X64966001Y-60490000I-249999J0D01*
G01*
G37*
G36*
G01*
X64966001Y-62490000D02*
X64065999Y-62490000D01*
G75*
G02*
X63816000Y-62240001I0J249999D01*
G01*
X63816000Y-61539999D01*
G75*
G02*
X64065999Y-61290000I249999J0D01*
G01*
X64966001Y-61290000D01*
G75*
G02*
X65216000Y-61539999I0J-249999D01*
G01*
X65216000Y-62240001D01*
G75*
G02*
X64966001Y-62490000I-249999J0D01*
G01*
G37*
%TD*%
%TO.C,0.33k2*%
G36*
G01*
X67252001Y-62490000D02*
X66351999Y-62490000D01*
G75*
G02*
X66102000Y-62240001I0J249999D01*
G01*
X66102000Y-61539999D01*
G75*
G02*
X66351999Y-61290000I249999J0D01*
G01*
X67252001Y-61290000D01*
G75*
G02*
X67502000Y-61539999I0J-249999D01*
G01*
X67502000Y-62240001D01*
G75*
G02*
X67252001Y-62490000I-249999J0D01*
G01*
G37*
G36*
G01*
X67252001Y-60490000D02*
X66351999Y-60490000D01*
G75*
G02*
X66102000Y-60240001I0J249999D01*
G01*
X66102000Y-59539999D01*
G75*
G02*
X66351999Y-59290000I249999J0D01*
G01*
X67252001Y-59290000D01*
G75*
G02*
X67502000Y-59539999I0J-249999D01*
G01*
X67502000Y-60240001D01*
G75*
G02*
X67252001Y-60490000I-249999J0D01*
G01*
G37*
%TD*%
%TO.C,10nF1*%
G36*
G01*
X51947500Y-58133000D02*
X51947500Y-57183000D01*
G75*
G02*
X52197500Y-56933000I250000J0D01*
G01*
X52872500Y-56933000D01*
G75*
G02*
X53122500Y-57183000I0J-250000D01*
G01*
X53122500Y-58133000D01*
G75*
G02*
X52872500Y-58383000I-250000J0D01*
G01*
X52197500Y-58383000D01*
G75*
G02*
X51947500Y-58133000I0J250000D01*
G01*
G37*
G36*
G01*
X54022500Y-58133000D02*
X54022500Y-57183000D01*
G75*
G02*
X54272500Y-56933000I250000J0D01*
G01*
X54947500Y-56933000D01*
G75*
G02*
X55197500Y-57183000I0J-250000D01*
G01*
X55197500Y-58133000D01*
G75*
G02*
X54947500Y-58383000I-250000J0D01*
G01*
X54272500Y-58383000D01*
G75*
G02*
X54022500Y-58133000I0J250000D01*
G01*
G37*
%TD*%
%TO.C,1uF1*%
G36*
G01*
X54022500Y-56101000D02*
X54022500Y-55151000D01*
G75*
G02*
X54272500Y-54901000I250000J0D01*
G01*
X54947500Y-54901000D01*
G75*
G02*
X55197500Y-55151000I0J-250000D01*
G01*
X55197500Y-56101000D01*
G75*
G02*
X54947500Y-56351000I-250000J0D01*
G01*
X54272500Y-56351000D01*
G75*
G02*
X54022500Y-56101000I0J250000D01*
G01*
G37*
G36*
G01*
X51947500Y-56101000D02*
X51947500Y-55151000D01*
G75*
G02*
X52197500Y-54901000I250000J0D01*
G01*
X52872500Y-54901000D01*
G75*
G02*
X53122500Y-55151000I0J-250000D01*
G01*
X53122500Y-56101000D01*
G75*
G02*
X52872500Y-56351000I-250000J0D01*
G01*
X52197500Y-56351000D01*
G75*
G02*
X51947500Y-56101000I0J250000D01*
G01*
G37*
%TD*%
D14*
%TO.C,39nH1*%
X45999500Y-56642000D03*
X49784000Y-56642000D03*
%TD*%
%TO.C,D1*%
G36*
G01*
X56321000Y-57092001D02*
X56321000Y-56191999D01*
G75*
G02*
X56570999Y-55942000I249999J0D01*
G01*
X57221001Y-55942000D01*
G75*
G02*
X57471000Y-56191999I0J-249999D01*
G01*
X57471000Y-57092001D01*
G75*
G02*
X57221001Y-57342000I-249999J0D01*
G01*
X56570999Y-57342000D01*
G75*
G02*
X56321000Y-57092001I0J249999D01*
G01*
G37*
G36*
G01*
X58371000Y-57092001D02*
X58371000Y-56191999D01*
G75*
G02*
X58620999Y-55942000I249999J0D01*
G01*
X59271001Y-55942000D01*
G75*
G02*
X59521000Y-56191999I0J-249999D01*
G01*
X59521000Y-57092001D01*
G75*
G02*
X59271001Y-57342000I-249999J0D01*
G01*
X58620999Y-57342000D01*
G75*
G02*
X58371000Y-57092001I0J249999D01*
G01*
G37*
%TD*%
D16*
%TO.C,H3*%
X87884000Y-78740000D03*
D15*
X91634000Y-78740000D03*
X90535650Y-81391650D03*
X87884000Y-82490000D03*
X85232350Y-81391650D03*
X84134000Y-78740000D03*
X85232350Y-76088350D03*
X87884000Y-74990000D03*
X90535650Y-76088350D03*
%TD*%
D17*
%TO.C,J1*%
X89662000Y-60960000D03*
D18*
X89662000Y-57960000D03*
X89662000Y-54960000D03*
X89662000Y-51960000D03*
X89662000Y-48960000D03*
X89662000Y-45960000D03*
X89662000Y-42960000D03*
X87162000Y-44460000D03*
X87162000Y-47460000D03*
X87162000Y-50460000D03*
X87162000Y-53460000D03*
X87162000Y-56460000D03*
X87162000Y-59460000D03*
X84162000Y-59460000D03*
X84162000Y-56460000D03*
X84162000Y-53460000D03*
X84162000Y-50460000D03*
X84162000Y-47460000D03*
X84162000Y-44460000D03*
X81662000Y-42960000D03*
X81662000Y-45960000D03*
X81662000Y-48960000D03*
X81662000Y-51960000D03*
X81662000Y-54960000D03*
X81662000Y-57960000D03*
X81662000Y-60960000D03*
D19*
X96162000Y-68210000D03*
X96162000Y-35710000D03*
%TD*%
%TO.C,R1*%
G36*
G01*
X58616001Y-48098000D02*
X57715999Y-48098000D01*
G75*
G02*
X57466000Y-47848001I0J249999D01*
G01*
X57466000Y-47147999D01*
G75*
G02*
X57715999Y-46898000I249999J0D01*
G01*
X58616001Y-46898000D01*
G75*
G02*
X58866000Y-47147999I0J-249999D01*
G01*
X58866000Y-47848001D01*
G75*
G02*
X58616001Y-48098000I-249999J0D01*
G01*
G37*
G36*
G01*
X58616001Y-50098000D02*
X57715999Y-50098000D01*
G75*
G02*
X57466000Y-49848001I0J249999D01*
G01*
X57466000Y-49147999D01*
G75*
G02*
X57715999Y-48898000I249999J0D01*
G01*
X58616001Y-48898000D01*
G75*
G02*
X58866000Y-49147999I0J-249999D01*
G01*
X58866000Y-49848001D01*
G75*
G02*
X58616001Y-50098000I-249999J0D01*
G01*
G37*
%TD*%
%TO.C,R3*%
G36*
G01*
X63846000Y-39681999D02*
X63846000Y-40582001D01*
G75*
G02*
X63596001Y-40832000I-249999J0D01*
G01*
X62895999Y-40832000D01*
G75*
G02*
X62646000Y-40582001I0J249999D01*
G01*
X62646000Y-39681999D01*
G75*
G02*
X62895999Y-39432000I249999J0D01*
G01*
X63596001Y-39432000D01*
G75*
G02*
X63846000Y-39681999I0J-249999D01*
G01*
G37*
G36*
G01*
X61846000Y-39681999D02*
X61846000Y-40582001D01*
G75*
G02*
X61596001Y-40832000I-249999J0D01*
G01*
X60895999Y-40832000D01*
G75*
G02*
X60646000Y-40582001I0J249999D01*
G01*
X60646000Y-39681999D01*
G75*
G02*
X60895999Y-39432000I249999J0D01*
G01*
X61596001Y-39432000D01*
G75*
G02*
X61846000Y-39681999I0J-249999D01*
G01*
G37*
%TD*%
%TO.C,R12*%
G36*
G01*
X75054000Y-71939999D02*
X75054000Y-72840001D01*
G75*
G02*
X74804001Y-73090000I-249999J0D01*
G01*
X74103999Y-73090000D01*
G75*
G02*
X73854000Y-72840001I0J249999D01*
G01*
X73854000Y-71939999D01*
G75*
G02*
X74103999Y-71690000I249999J0D01*
G01*
X74804001Y-71690000D01*
G75*
G02*
X75054000Y-71939999I0J-249999D01*
G01*
G37*
G36*
G01*
X77054000Y-71939999D02*
X77054000Y-72840001D01*
G75*
G02*
X76804001Y-73090000I-249999J0D01*
G01*
X76103999Y-73090000D01*
G75*
G02*
X75854000Y-72840001I0J249999D01*
G01*
X75854000Y-71939999D01*
G75*
G02*
X76103999Y-71690000I249999J0D01*
G01*
X76804001Y-71690000D01*
G75*
G02*
X77054000Y-71939999I0J-249999D01*
G01*
G37*
%TD*%
%TO.C,R13*%
G36*
G01*
X68250000Y-72840001D02*
X68250000Y-71939999D01*
G75*
G02*
X68499999Y-71690000I249999J0D01*
G01*
X69200001Y-71690000D01*
G75*
G02*
X69450000Y-71939999I0J-249999D01*
G01*
X69450000Y-72840001D01*
G75*
G02*
X69200001Y-73090000I-249999J0D01*
G01*
X68499999Y-73090000D01*
G75*
G02*
X68250000Y-72840001I0J249999D01*
G01*
G37*
G36*
G01*
X70250000Y-72840001D02*
X70250000Y-71939999D01*
G75*
G02*
X70499999Y-71690000I249999J0D01*
G01*
X71200001Y-71690000D01*
G75*
G02*
X71450000Y-71939999I0J-249999D01*
G01*
X71450000Y-72840001D01*
G75*
G02*
X71200001Y-73090000I-249999J0D01*
G01*
X70499999Y-73090000D01*
G75*
G02*
X70250000Y-72840001I0J249999D01*
G01*
G37*
%TD*%
D20*
%TO.C,Y1*%
X52726000Y-50052000D03*
X55626000Y-50052000D03*
X55626000Y-47752000D03*
X52726000Y-47752000D03*
%TD*%
D21*
%TO.C,2channel_pot1*%
X50402000Y-64655001D03*
X50402000Y-65305001D03*
X50402000Y-65955001D03*
X50402000Y-66605001D03*
X50402000Y-67255001D03*
X50402000Y-67905001D03*
X50402000Y-68555001D03*
X56278000Y-68555001D03*
X56278000Y-67905001D03*
X56278000Y-67255001D03*
X56278000Y-66605001D03*
X56278000Y-65955001D03*
X56278000Y-65305001D03*
X56278000Y-64655001D03*
%TD*%
%TO.C,C9*%
G36*
G01*
X59215000Y-64182500D02*
X60165000Y-64182500D01*
G75*
G02*
X60415000Y-64432500I0J-250000D01*
G01*
X60415000Y-65107500D01*
G75*
G02*
X60165000Y-65357500I-250000J0D01*
G01*
X59215000Y-65357500D01*
G75*
G02*
X58965000Y-65107500I0J250000D01*
G01*
X58965000Y-64432500D01*
G75*
G02*
X59215000Y-64182500I250000J0D01*
G01*
G37*
G36*
G01*
X59215000Y-66257500D02*
X60165000Y-66257500D01*
G75*
G02*
X60415000Y-66507500I0J-250000D01*
G01*
X60415000Y-67182500D01*
G75*
G02*
X60165000Y-67432500I-250000J0D01*
G01*
X59215000Y-67432500D01*
G75*
G02*
X58965000Y-67182500I0J250000D01*
G01*
X58965000Y-66507500D01*
G75*
G02*
X59215000Y-66257500I250000J0D01*
G01*
G37*
%TD*%
%TO.C,C10*%
G36*
G01*
X43655000Y-37185000D02*
X42705000Y-37185000D01*
G75*
G02*
X42455000Y-36935000I0J250000D01*
G01*
X42455000Y-36260000D01*
G75*
G02*
X42705000Y-36010000I250000J0D01*
G01*
X43655000Y-36010000D01*
G75*
G02*
X43905000Y-36260000I0J-250000D01*
G01*
X43905000Y-36935000D01*
G75*
G02*
X43655000Y-37185000I-250000J0D01*
G01*
G37*
G36*
G01*
X43655000Y-35110000D02*
X42705000Y-35110000D01*
G75*
G02*
X42455000Y-34860000I0J250000D01*
G01*
X42455000Y-34185000D01*
G75*
G02*
X42705000Y-33935000I250000J0D01*
G01*
X43655000Y-33935000D01*
G75*
G02*
X43905000Y-34185000I0J-250000D01*
G01*
X43905000Y-34860000D01*
G75*
G02*
X43655000Y-35110000I-250000J0D01*
G01*
G37*
%TD*%
%TO.C,C11*%
G36*
G01*
X42360000Y-57625000D02*
X42360000Y-56675000D01*
G75*
G02*
X42610000Y-56425000I250000J0D01*
G01*
X43285000Y-56425000D01*
G75*
G02*
X43535000Y-56675000I0J-250000D01*
G01*
X43535000Y-57625000D01*
G75*
G02*
X43285000Y-57875000I-250000J0D01*
G01*
X42610000Y-57875000D01*
G75*
G02*
X42360000Y-57625000I0J250000D01*
G01*
G37*
G36*
G01*
X40285000Y-57625000D02*
X40285000Y-56675000D01*
G75*
G02*
X40535000Y-56425000I250000J0D01*
G01*
X41210000Y-56425000D01*
G75*
G02*
X41460000Y-56675000I0J-250000D01*
G01*
X41460000Y-57625000D01*
G75*
G02*
X41210000Y-57875000I-250000J0D01*
G01*
X40535000Y-57875000D01*
G75*
G02*
X40285000Y-57625000I0J250000D01*
G01*
G37*
%TD*%
%TO.C,C21*%
G36*
G01*
X40285000Y-54520001D02*
X40285000Y-53570001D01*
G75*
G02*
X40535000Y-53320001I250000J0D01*
G01*
X41210000Y-53320001D01*
G75*
G02*
X41460000Y-53570001I0J-250000D01*
G01*
X41460000Y-54520001D01*
G75*
G02*
X41210000Y-54770001I-250000J0D01*
G01*
X40535000Y-54770001D01*
G75*
G02*
X40285000Y-54520001I0J250000D01*
G01*
G37*
G36*
G01*
X42360000Y-54520001D02*
X42360000Y-53570001D01*
G75*
G02*
X42610000Y-53320001I250000J0D01*
G01*
X43285000Y-53320001D01*
G75*
G02*
X43535000Y-53570001I0J-250000D01*
G01*
X43535000Y-54520001D01*
G75*
G02*
X43285000Y-54770001I-250000J0D01*
G01*
X42610000Y-54770001D01*
G75*
G02*
X42360000Y-54520001I0J250000D01*
G01*
G37*
%TD*%
%TO.C,C22*%
G36*
G01*
X37625000Y-36010000D02*
X38575000Y-36010000D01*
G75*
G02*
X38825000Y-36260000I0J-250000D01*
G01*
X38825000Y-36935000D01*
G75*
G02*
X38575000Y-37185000I-250000J0D01*
G01*
X37625000Y-37185000D01*
G75*
G02*
X37375000Y-36935000I0J250000D01*
G01*
X37375000Y-36260000D01*
G75*
G02*
X37625000Y-36010000I250000J0D01*
G01*
G37*
G36*
G01*
X37625000Y-33935000D02*
X38575000Y-33935000D01*
G75*
G02*
X38825000Y-34185000I0J-250000D01*
G01*
X38825000Y-34860000D01*
G75*
G02*
X38575000Y-35110000I-250000J0D01*
G01*
X37625000Y-35110000D01*
G75*
G02*
X37375000Y-34860000I0J250000D01*
G01*
X37375000Y-34185000D01*
G75*
G02*
X37625000Y-33935000I250000J0D01*
G01*
G37*
%TD*%
D22*
%TO.C,IC1*%
X43020000Y-73660000D03*
D23*
X43020000Y-76200000D03*
X43020000Y-78740000D03*
X43020000Y-81280000D03*
X50960000Y-81280000D03*
X50960000Y-78740000D03*
X50960000Y-76200000D03*
X50960000Y-73660000D03*
%TD*%
D22*
%TO.C,IC2*%
X37940000Y-39370000D03*
D23*
X37940000Y-41910000D03*
X37940000Y-44450000D03*
X37940000Y-46990000D03*
X45880000Y-46990000D03*
X45880000Y-44450000D03*
X45880000Y-41910000D03*
X45880000Y-39370000D03*
%TD*%
%TO.C,IC3*%
X47150000Y-62230000D03*
X47150000Y-64770000D03*
X47150000Y-67310000D03*
X47150000Y-69850000D03*
X39210000Y-69850000D03*
X39210000Y-67310000D03*
X39210000Y-64770000D03*
D22*
X39210000Y-62230000D03*
%TD*%
D24*
%TO.C,J2*%
X67310000Y-26670000D03*
D25*
X67310000Y-24130000D03*
X69850000Y-26670000D03*
X69850000Y-24130000D03*
X72390000Y-26670000D03*
X72390000Y-24130000D03*
X74930000Y-26670000D03*
X74930000Y-24130000D03*
X77470000Y-26670000D03*
X77470000Y-24130000D03*
%TD*%
D26*
%TO.C,Mini_DIN_IN1*%
X30480000Y-44450000D03*
D27*
X30480000Y-41850000D03*
X30480000Y-46500000D03*
X32970000Y-44450000D03*
X30480000Y-39800000D03*
X32970000Y-46500000D03*
X32970000Y-42340000D03*
X32970000Y-39800000D03*
D28*
X27480000Y-36390000D03*
X26670000Y-43150000D03*
X27480000Y-49910000D03*
%TD*%
%TO.C,R9*%
G36*
G01*
X41090001Y-37160000D02*
X40189999Y-37160000D01*
G75*
G02*
X39940000Y-36910001I0J249999D01*
G01*
X39940000Y-36209999D01*
G75*
G02*
X40189999Y-35960000I249999J0D01*
G01*
X41090001Y-35960000D01*
G75*
G02*
X41340000Y-36209999I0J-249999D01*
G01*
X41340000Y-36910001D01*
G75*
G02*
X41090001Y-37160000I-249999J0D01*
G01*
G37*
G36*
G01*
X41090001Y-35160000D02*
X40189999Y-35160000D01*
G75*
G02*
X39940000Y-34910001I0J249999D01*
G01*
X39940000Y-34209999D01*
G75*
G02*
X40189999Y-33960000I249999J0D01*
G01*
X41090001Y-33960000D01*
G75*
G02*
X41340000Y-34209999I0J-249999D01*
G01*
X41340000Y-34910001D01*
G75*
G02*
X41090001Y-35160000I-249999J0D01*
G01*
G37*
%TD*%
%TO.C,R10*%
G36*
G01*
X46170001Y-35160000D02*
X45269999Y-35160000D01*
G75*
G02*
X45020000Y-34910001I0J249999D01*
G01*
X45020000Y-34209999D01*
G75*
G02*
X45269999Y-33960000I249999J0D01*
G01*
X46170001Y-33960000D01*
G75*
G02*
X46420000Y-34209999I0J-249999D01*
G01*
X46420000Y-34910001D01*
G75*
G02*
X46170001Y-35160000I-249999J0D01*
G01*
G37*
G36*
G01*
X46170001Y-37160000D02*
X45269999Y-37160000D01*
G75*
G02*
X45020000Y-36910001I0J249999D01*
G01*
X45020000Y-36209999D01*
G75*
G02*
X45269999Y-35960000I249999J0D01*
G01*
X46170001Y-35960000D01*
G75*
G02*
X46420000Y-36209999I0J-249999D01*
G01*
X46420000Y-36910001D01*
G75*
G02*
X46170001Y-37160000I-249999J0D01*
G01*
G37*
%TD*%
%TO.C,R14*%
G36*
G01*
X49980001Y-42240000D02*
X49079999Y-42240000D01*
G75*
G02*
X48830000Y-41990001I0J249999D01*
G01*
X48830000Y-41289999D01*
G75*
G02*
X49079999Y-41040000I249999J0D01*
G01*
X49980001Y-41040000D01*
G75*
G02*
X50230000Y-41289999I0J-249999D01*
G01*
X50230000Y-41990001D01*
G75*
G02*
X49980001Y-42240000I-249999J0D01*
G01*
G37*
G36*
G01*
X49980001Y-40240000D02*
X49079999Y-40240000D01*
G75*
G02*
X48830000Y-39990001I0J249999D01*
G01*
X48830000Y-39289999D01*
G75*
G02*
X49079999Y-39040000I249999J0D01*
G01*
X49980001Y-39040000D01*
G75*
G02*
X50230000Y-39289999I0J-249999D01*
G01*
X50230000Y-39990001D01*
G75*
G02*
X49980001Y-40240000I-249999J0D01*
G01*
G37*
%TD*%
%TO.C,R15*%
G36*
G01*
X41090001Y-52400000D02*
X40189999Y-52400000D01*
G75*
G02*
X39940000Y-52150001I0J249999D01*
G01*
X39940000Y-51449999D01*
G75*
G02*
X40189999Y-51200000I249999J0D01*
G01*
X41090001Y-51200000D01*
G75*
G02*
X41340000Y-51449999I0J-249999D01*
G01*
X41340000Y-52150001D01*
G75*
G02*
X41090001Y-52400000I-249999J0D01*
G01*
G37*
G36*
G01*
X41090001Y-50400000D02*
X40189999Y-50400000D01*
G75*
G02*
X39940000Y-50150001I0J249999D01*
G01*
X39940000Y-49449999D01*
G75*
G02*
X40189999Y-49200000I249999J0D01*
G01*
X41090001Y-49200000D01*
G75*
G02*
X41340000Y-49449999I0J-249999D01*
G01*
X41340000Y-50150001D01*
G75*
G02*
X41090001Y-50400000I-249999J0D01*
G01*
G37*
%TD*%
%TO.C,R16*%
G36*
G01*
X43630001Y-50400000D02*
X42729999Y-50400000D01*
G75*
G02*
X42480000Y-50150001I0J249999D01*
G01*
X42480000Y-49449999D01*
G75*
G02*
X42729999Y-49200000I249999J0D01*
G01*
X43630001Y-49200000D01*
G75*
G02*
X43880000Y-49449999I0J-249999D01*
G01*
X43880000Y-50150001D01*
G75*
G02*
X43630001Y-50400000I-249999J0D01*
G01*
G37*
G36*
G01*
X43630001Y-52400000D02*
X42729999Y-52400000D01*
G75*
G02*
X42480000Y-52150001I0J249999D01*
G01*
X42480000Y-51449999D01*
G75*
G02*
X42729999Y-51200000I249999J0D01*
G01*
X43630001Y-51200000D01*
G75*
G02*
X43880000Y-51449999I0J-249999D01*
G01*
X43880000Y-52150001D01*
G75*
G02*
X43630001Y-52400000I-249999J0D01*
G01*
G37*
%TD*%
%TO.C,R17*%
G36*
G01*
X38550001Y-55480000D02*
X37649999Y-55480000D01*
G75*
G02*
X37400000Y-55230001I0J249999D01*
G01*
X37400000Y-54529999D01*
G75*
G02*
X37649999Y-54280000I249999J0D01*
G01*
X38550001Y-54280000D01*
G75*
G02*
X38800000Y-54529999I0J-249999D01*
G01*
X38800000Y-55230001D01*
G75*
G02*
X38550001Y-55480000I-249999J0D01*
G01*
G37*
G36*
G01*
X38550001Y-57480000D02*
X37649999Y-57480000D01*
G75*
G02*
X37400000Y-57230001I0J249999D01*
G01*
X37400000Y-56529999D01*
G75*
G02*
X37649999Y-56280000I249999J0D01*
G01*
X38550001Y-56280000D01*
G75*
G02*
X38800000Y-56529999I0J-249999D01*
G01*
X38800000Y-57230001D01*
G75*
G02*
X38550001Y-57480000I-249999J0D01*
G01*
G37*
%TD*%
%TO.C,R18*%
G36*
G01*
X38040000Y-74110001D02*
X38040000Y-73209999D01*
G75*
G02*
X38289999Y-72960000I249999J0D01*
G01*
X38990001Y-72960000D01*
G75*
G02*
X39240000Y-73209999I0J-249999D01*
G01*
X39240000Y-74110001D01*
G75*
G02*
X38990001Y-74360000I-249999J0D01*
G01*
X38289999Y-74360000D01*
G75*
G02*
X38040000Y-74110001I0J249999D01*
G01*
G37*
G36*
G01*
X40040000Y-74110001D02*
X40040000Y-73209999D01*
G75*
G02*
X40289999Y-72960000I249999J0D01*
G01*
X40990001Y-72960000D01*
G75*
G02*
X41240000Y-73209999I0J-249999D01*
G01*
X41240000Y-74110001D01*
G75*
G02*
X40990001Y-74360000I-249999J0D01*
G01*
X40289999Y-74360000D01*
G75*
G02*
X40040000Y-74110001I0J249999D01*
G01*
G37*
%TD*%
%TO.C,R19*%
G36*
G01*
X54740000Y-71570001D02*
X54740000Y-70669999D01*
G75*
G02*
X54989999Y-70420000I249999J0D01*
G01*
X55690001Y-70420000D01*
G75*
G02*
X55940000Y-70669999I0J-249999D01*
G01*
X55940000Y-71570001D01*
G75*
G02*
X55690001Y-71820000I-249999J0D01*
G01*
X54989999Y-71820000D01*
G75*
G02*
X54740000Y-71570001I0J249999D01*
G01*
G37*
G36*
G01*
X52740000Y-71570001D02*
X52740000Y-70669999D01*
G75*
G02*
X52989999Y-70420000I249999J0D01*
G01*
X53690001Y-70420000D01*
G75*
G02*
X53940000Y-70669999I0J-249999D01*
G01*
X53940000Y-71570001D01*
G75*
G02*
X53690001Y-71820000I-249999J0D01*
G01*
X52989999Y-71820000D01*
G75*
G02*
X52740000Y-71570001I0J249999D01*
G01*
G37*
%TD*%
D29*
%TO.C,PS2*%
X60726000Y-34610000D03*
X60726000Y-35560000D03*
X60726000Y-36510000D03*
X63226000Y-36510000D03*
X63226000Y-35560000D03*
X63226000Y-34610000D03*
%TD*%
%TO.C,C23*%
G36*
G01*
X42705000Y-32000000D02*
X43655000Y-32000000D01*
G75*
G02*
X43905000Y-32250000I0J-250000D01*
G01*
X43905000Y-32925000D01*
G75*
G02*
X43655000Y-33175000I-250000J0D01*
G01*
X42705000Y-33175000D01*
G75*
G02*
X42455000Y-32925000I0J250000D01*
G01*
X42455000Y-32250000D01*
G75*
G02*
X42705000Y-32000000I250000J0D01*
G01*
G37*
G36*
G01*
X42705000Y-29925000D02*
X43655000Y-29925000D01*
G75*
G02*
X43905000Y-30175000I0J-250000D01*
G01*
X43905000Y-30850000D01*
G75*
G02*
X43655000Y-31100000I-250000J0D01*
G01*
X42705000Y-31100000D01*
G75*
G02*
X42455000Y-30850000I0J250000D01*
G01*
X42455000Y-30175000D01*
G75*
G02*
X42705000Y-29925000I250000J0D01*
G01*
G37*
%TD*%
%TO.C,C24*%
G36*
G01*
X40165000Y-29925000D02*
X41115000Y-29925000D01*
G75*
G02*
X41365000Y-30175000I0J-250000D01*
G01*
X41365000Y-30850000D01*
G75*
G02*
X41115000Y-31100000I-250000J0D01*
G01*
X40165000Y-31100000D01*
G75*
G02*
X39915000Y-30850000I0J250000D01*
G01*
X39915000Y-30175000D01*
G75*
G02*
X40165000Y-29925000I250000J0D01*
G01*
G37*
G36*
G01*
X40165000Y-32000000D02*
X41115000Y-32000000D01*
G75*
G02*
X41365000Y-32250000I0J-250000D01*
G01*
X41365000Y-32925000D01*
G75*
G02*
X41115000Y-33175000I-250000J0D01*
G01*
X40165000Y-33175000D01*
G75*
G02*
X39915000Y-32925000I0J250000D01*
G01*
X39915000Y-32250000D01*
G75*
G02*
X40165000Y-32000000I250000J0D01*
G01*
G37*
%TD*%
%TO.C,R23*%
G36*
G01*
X46170001Y-33150000D02*
X45269999Y-33150000D01*
G75*
G02*
X45020000Y-32900001I0J249999D01*
G01*
X45020000Y-32199999D01*
G75*
G02*
X45269999Y-31950000I249999J0D01*
G01*
X46170001Y-31950000D01*
G75*
G02*
X46420000Y-32199999I0J-249999D01*
G01*
X46420000Y-32900001D01*
G75*
G02*
X46170001Y-33150000I-249999J0D01*
G01*
G37*
G36*
G01*
X46170001Y-31150000D02*
X45269999Y-31150000D01*
G75*
G02*
X45020000Y-30900001I0J249999D01*
G01*
X45020000Y-30199999D01*
G75*
G02*
X45269999Y-29950000I249999J0D01*
G01*
X46170001Y-29950000D01*
G75*
G02*
X46420000Y-30199999I0J-249999D01*
G01*
X46420000Y-30900001D01*
G75*
G02*
X46170001Y-31150000I-249999J0D01*
G01*
G37*
%TD*%
D30*
%TO.C,D7*%
X56763000Y-34036000D03*
X53963000Y-34036000D03*
%TD*%
M02*
