%FSLAX45Y45*%
G04 Gerber Fmt 4.5, Leading zero omitted, Abs format (unit mm)*
G04 Created by KiCad (PCBNEW (5.1.10)-1) date 2022-05-04 21:28:51*
%MOMM*%
%LPD*%
G01*
G04 APERTURE LIST*
%TA.AperFunction,Profile*%
%ADD10C,0.050000*%
%TD*%
%ADD11C,0.200000*%
%ADD12C,0.300000*%
G04 APERTURE END LIST*
D10*
X10795000Y-9017000D02*
X2921000Y-9017000D01*
X10668000Y-1651000D02*
X9398000Y-1651000D01*
X3048000Y-1651000D02*
X9398000Y-1651000D01*
X11811000Y-2794000D02*
X11811000Y-8001000D01*
X11811000Y-8001000D02*
G75*
G02*
X10795000Y-9017000I-1016000J0D01*
G01*
X10668000Y-1651000D02*
G75*
G02*
X11811000Y-2794000I0J-1143000D01*
G01*
X1905000Y-8001000D02*
X1905000Y-2794000D01*
X2921000Y-9017000D02*
G75*
G02*
X1905000Y-8001000I0J1016000D01*
G01*
X1905000Y-2794000D02*
G75*
G02*
X3048000Y-1651000I1143000J0D01*
G01*
D11*
X3663000Y-5949000D02*
X3703000Y-5989000D01*
X3703000Y-5949000D02*
X3663000Y-5989000D01*
X3663000Y-6965000D02*
X3703000Y-7005000D01*
X3703000Y-6965000D02*
X3663000Y-7005000D01*
X3790000Y-3282000D02*
X3830000Y-3322000D01*
X3830000Y-3282000D02*
X3790000Y-3322000D01*
X4569750Y-5931250D02*
X4609750Y-5971250D01*
X4609750Y-5931250D02*
X4569750Y-5971250D01*
X5187000Y-3282000D02*
X5227000Y-3322000D01*
X5227000Y-3282000D02*
X5187000Y-3322000D01*
X5237800Y-5390200D02*
X5277800Y-5430200D01*
X5277800Y-5390200D02*
X5237800Y-5430200D01*
X5491800Y-5364800D02*
X5531800Y-5404800D01*
X5531800Y-5364800D02*
X5491800Y-5404800D01*
X5644200Y-4196400D02*
X5684200Y-4236400D01*
X5684200Y-4196400D02*
X5644200Y-4236400D01*
X5669600Y-5441000D02*
X5709600Y-5481000D01*
X5709600Y-5441000D02*
X5669600Y-5481000D01*
X5725000Y-5130000D02*
X5765000Y-5170000D01*
X5765000Y-5130000D02*
X5725000Y-5170000D01*
X5745800Y-3485200D02*
X5785800Y-3525200D01*
X5785800Y-3485200D02*
X5745800Y-3525200D01*
X5745800Y-3688400D02*
X5785800Y-3728400D01*
X5785800Y-3688400D02*
X5745800Y-3728400D01*
X5796600Y-5517200D02*
X5836600Y-5557200D01*
X5836600Y-5517200D02*
X5796600Y-5557200D01*
X5822000Y-4018600D02*
X5862000Y-4058600D01*
X5862000Y-4018600D02*
X5822000Y-4058600D01*
X5822000Y-6457000D02*
X5862000Y-6497000D01*
X5862000Y-6457000D02*
X5822000Y-6497000D01*
X5822000Y-6584000D02*
X5862000Y-6624000D01*
X5862000Y-6584000D02*
X5822000Y-6624000D01*
X5831255Y-5060000D02*
X5871255Y-5100000D01*
X5871255Y-5060000D02*
X5831255Y-5100000D01*
X5923600Y-5466400D02*
X5963600Y-5506400D01*
X5963600Y-5466400D02*
X5923600Y-5506400D01*
X5949000Y-4842474D02*
X5989000Y-4882474D01*
X5989000Y-4842474D02*
X5949000Y-4882474D01*
X6076000Y-2647000D02*
X6116000Y-2687000D01*
X6116000Y-2647000D02*
X6076000Y-2687000D01*
X6076000Y-5695000D02*
X6116000Y-5735000D01*
X6116000Y-5695000D02*
X6076000Y-5735000D01*
X6076000Y-6584000D02*
X6116000Y-6624000D01*
X6116000Y-6584000D02*
X6076000Y-6624000D01*
X6203000Y-4552000D02*
X6243000Y-4592000D01*
X6243000Y-4552000D02*
X6203000Y-4592000D01*
X6385092Y-4246000D02*
X6425092Y-4286000D01*
X6425092Y-4246000D02*
X6385092Y-4286000D01*
X6457000Y-4171000D02*
X6497000Y-4211000D01*
X6497000Y-4171000D02*
X6457000Y-4211000D01*
X6660200Y-6376200D02*
X6700200Y-6416200D01*
X6700200Y-6376200D02*
X6660200Y-6416200D01*
X6660200Y-6584000D02*
X6700200Y-6624000D01*
X6700200Y-6584000D02*
X6660200Y-6624000D01*
X6711000Y-3739200D02*
X6751000Y-3779200D01*
X6751000Y-3739200D02*
X6711000Y-3779200D01*
X6711000Y-4298000D02*
X6751000Y-4338000D01*
X6751000Y-4298000D02*
X6711000Y-4338000D01*
X6838000Y-4298000D02*
X6878000Y-4338000D01*
X6878000Y-4298000D02*
X6838000Y-4338000D01*
X6863400Y-3129600D02*
X6903400Y-3169600D01*
X6903400Y-3129600D02*
X6863400Y-3169600D01*
X6888800Y-4094800D02*
X6928800Y-4134800D01*
X6928800Y-4094800D02*
X6888800Y-4134800D01*
X6965000Y-6457000D02*
X7005000Y-6497000D01*
X7005000Y-6457000D02*
X6965000Y-6497000D01*
X7015800Y-3993200D02*
X7055800Y-4033200D01*
X7055800Y-3993200D02*
X7015800Y-4033200D01*
X7092000Y-5187000D02*
X7132000Y-5227000D01*
X7132000Y-5187000D02*
X7092000Y-5227000D01*
X7092000Y-6711000D02*
X7132000Y-6751000D01*
X7132000Y-6711000D02*
X7092000Y-6751000D01*
X7193600Y-6025200D02*
X7233600Y-6065200D01*
X7233600Y-6025200D02*
X7193600Y-6065200D01*
X7219000Y-6711000D02*
X7259000Y-6751000D01*
X7259000Y-6711000D02*
X7219000Y-6751000D01*
X7240702Y-6097702D02*
X7280702Y-6137702D01*
X7280702Y-6097702D02*
X7240702Y-6137702D01*
X7346000Y-6330000D02*
X7386000Y-6370000D01*
X7386000Y-6330000D02*
X7346000Y-6370000D01*
X7346000Y-6711000D02*
X7386000Y-6751000D01*
X7386000Y-6711000D02*
X7346000Y-6751000D01*
X7473000Y-4628200D02*
X7513000Y-4668200D01*
X7513000Y-4628200D02*
X7473000Y-4668200D01*
X7473000Y-5187000D02*
X7513000Y-5227000D01*
X7513000Y-5187000D02*
X7473000Y-5227000D01*
X7473000Y-6076000D02*
X7513000Y-6116000D01*
X7513000Y-6076000D02*
X7473000Y-6116000D01*
X7473000Y-6449200D02*
X7513000Y-6489200D01*
X7513000Y-6449200D02*
X7473000Y-6489200D01*
X7473000Y-6711000D02*
X7513000Y-6751000D01*
X7513000Y-6711000D02*
X7473000Y-6751000D01*
X7473000Y-7473000D02*
X7513000Y-7513000D01*
X7513000Y-7473000D02*
X7473000Y-7513000D01*
X7546967Y-5819767D02*
X7586967Y-5859767D01*
X7586967Y-5819767D02*
X7546967Y-5859767D01*
X7549200Y-4704400D02*
X7589200Y-4744400D01*
X7589200Y-4704400D02*
X7549200Y-4744400D01*
X7600000Y-4171000D02*
X7640000Y-4211000D01*
X7640000Y-4171000D02*
X7600000Y-4211000D01*
X7600000Y-8108000D02*
X7640000Y-8148000D01*
X7640000Y-8108000D02*
X7600000Y-8148000D01*
X7650800Y-4399600D02*
X7690800Y-4439600D01*
X7690800Y-4399600D02*
X7650800Y-4439600D01*
X7676200Y-5288600D02*
X7716200Y-5328600D01*
X7716200Y-5288600D02*
X7676200Y-5328600D01*
X7701600Y-3561400D02*
X7741600Y-3601400D01*
X7741600Y-3561400D02*
X7701600Y-3601400D01*
X7701600Y-3840800D02*
X7741600Y-3880800D01*
X7741600Y-3840800D02*
X7701600Y-3880800D01*
X7752400Y-4475800D02*
X7792400Y-4515800D01*
X7792400Y-4475800D02*
X7752400Y-4515800D01*
X7777800Y-5237800D02*
X7817800Y-5277800D01*
X7817800Y-5237800D02*
X7777800Y-5277800D01*
X7779000Y-4780600D02*
X7819000Y-4820600D01*
X7819000Y-4780600D02*
X7779000Y-4820600D01*
X7803200Y-4171000D02*
X7843200Y-4211000D01*
X7843200Y-4171000D02*
X7803200Y-4211000D01*
X7930200Y-3993200D02*
X7970200Y-4033200D01*
X7970200Y-3993200D02*
X7930200Y-4033200D01*
X7930200Y-5466400D02*
X7970200Y-5506400D01*
X7970200Y-5466400D02*
X7930200Y-5506400D01*
X7955600Y-4983800D02*
X7995600Y-5023800D01*
X7995600Y-4983800D02*
X7955600Y-5023800D01*
X7981000Y-7854000D02*
X8021000Y-7894000D01*
X8021000Y-7854000D02*
X7981000Y-7894000D01*
X8057200Y-4000099D02*
X8097200Y-4040099D01*
X8097200Y-4000099D02*
X8057200Y-4040099D01*
X8260400Y-3815400D02*
X8300400Y-3855400D01*
X8300400Y-3815400D02*
X8260400Y-3855400D01*
X8412800Y-4008500D02*
X8452800Y-4048500D01*
X8452800Y-4008500D02*
X8412800Y-4048500D01*
X8539800Y-6203000D02*
X8579800Y-6243000D01*
X8579800Y-6203000D02*
X8539800Y-6243000D01*
X8565200Y-4247200D02*
X8605200Y-4287200D01*
X8605200Y-4247200D02*
X8565200Y-4287200D01*
X3211000Y-2565400D02*
G75*
G03*
X3211000Y-2565400I-30000J0D01*
G01*
X3211000Y-7874000D02*
G75*
G03*
X3211000Y-7874000I-30000J0D01*
G01*
X3320835Y-2300235D02*
G75*
G03*
X3320835Y-2300235I-30000J0D01*
G01*
X3320835Y-2830565D02*
G75*
G03*
X3320835Y-2830565I-30000J0D01*
G01*
X3320835Y-7608835D02*
G75*
G03*
X3320835Y-7608835I-30000J0D01*
G01*
X3320835Y-8139165D02*
G75*
G03*
X3320835Y-8139165I-30000J0D01*
G01*
X3586000Y-2190400D02*
G75*
G03*
X3586000Y-2190400I-30000J0D01*
G01*
X3586000Y-2940400D02*
G75*
G03*
X3586000Y-2940400I-30000J0D01*
G01*
X3586000Y-7499000D02*
G75*
G03*
X3586000Y-7499000I-30000J0D01*
G01*
X3586000Y-8249000D02*
G75*
G03*
X3586000Y-8249000I-30000J0D01*
G01*
X3851165Y-2300235D02*
G75*
G03*
X3851165Y-2300235I-30000J0D01*
G01*
X3851165Y-2830565D02*
G75*
G03*
X3851165Y-2830565I-30000J0D01*
G01*
X3851165Y-7608835D02*
G75*
G03*
X3851165Y-7608835I-30000J0D01*
G01*
X3851165Y-8139165D02*
G75*
G03*
X3851165Y-8139165I-30000J0D01*
G01*
X3961000Y-2565400D02*
G75*
G03*
X3961000Y-2565400I-30000J0D01*
G01*
X3961000Y-7874000D02*
G75*
G03*
X3961000Y-7874000I-30000J0D01*
G01*
X8443400Y-7874000D02*
G75*
G03*
X8443400Y-7874000I-30000J0D01*
G01*
X8553235Y-7608835D02*
G75*
G03*
X8553235Y-7608835I-30000J0D01*
G01*
X8553235Y-8139165D02*
G75*
G03*
X8553235Y-8139165I-30000J0D01*
G01*
X8818400Y-7499000D02*
G75*
G03*
X8818400Y-7499000I-30000J0D01*
G01*
X8818400Y-8249000D02*
G75*
G03*
X8818400Y-8249000I-30000J0D01*
G01*
X8900600Y-2540000D02*
G75*
G03*
X8900600Y-2540000I-30000J0D01*
G01*
X9010435Y-2274835D02*
G75*
G03*
X9010435Y-2274835I-30000J0D01*
G01*
X9010435Y-2805165D02*
G75*
G03*
X9010435Y-2805165I-30000J0D01*
G01*
X9083565Y-7608835D02*
G75*
G03*
X9083565Y-7608835I-30000J0D01*
G01*
X9083565Y-8139165D02*
G75*
G03*
X9083565Y-8139165I-30000J0D01*
G01*
X9193400Y-7874000D02*
G75*
G03*
X9193400Y-7874000I-30000J0D01*
G01*
X9275600Y-2165000D02*
G75*
G03*
X9275600Y-2165000I-30000J0D01*
G01*
X9275600Y-2915000D02*
G75*
G03*
X9275600Y-2915000I-30000J0D01*
G01*
X9540765Y-2274835D02*
G75*
G03*
X9540765Y-2274835I-30000J0D01*
G01*
X9540765Y-2805165D02*
G75*
G03*
X9540765Y-2805165I-30000J0D01*
G01*
X9650600Y-2540000D02*
G75*
G03*
X9650600Y-2540000I-30000J0D01*
G01*
X3794000Y-3900500D02*
X3794000Y-3973500D01*
X3757500Y-3937000D02*
X3830500Y-3937000D01*
X3794000Y-4154500D02*
X3794000Y-4227500D01*
X3757500Y-4191000D02*
X3830500Y-4191000D01*
X3794000Y-4408500D02*
X3794000Y-4481500D01*
X3757500Y-4445000D02*
X3830500Y-4445000D01*
X3794000Y-4662500D02*
X3794000Y-4735500D01*
X3757500Y-4699000D02*
X3830500Y-4699000D01*
X3921000Y-6186500D02*
X3921000Y-6259500D01*
X3884500Y-6223000D02*
X3957500Y-6223000D01*
X3921000Y-6440500D02*
X3921000Y-6513500D01*
X3884500Y-6477000D02*
X3957500Y-6477000D01*
X3921000Y-6694500D02*
X3921000Y-6767500D01*
X3884500Y-6731000D02*
X3957500Y-6731000D01*
X3921000Y-6948500D02*
X3921000Y-7021500D01*
X3884500Y-6985000D02*
X3957500Y-6985000D01*
X4302000Y-7329500D02*
X4302000Y-7402500D01*
X4265500Y-7366000D02*
X4338500Y-7366000D01*
X4302000Y-7583500D02*
X4302000Y-7656500D01*
X4265500Y-7620000D02*
X4338500Y-7620000D01*
X4302000Y-7837500D02*
X4302000Y-7910500D01*
X4265500Y-7874000D02*
X4338500Y-7874000D01*
X4302000Y-8091500D02*
X4302000Y-8164500D01*
X4265500Y-8128000D02*
X4338500Y-8128000D01*
X4588000Y-3900500D02*
X4588000Y-3973500D01*
X4551500Y-3937000D02*
X4624500Y-3937000D01*
X4588000Y-4154500D02*
X4588000Y-4227500D01*
X4551500Y-4191000D02*
X4624500Y-4191000D01*
X4588000Y-4408500D02*
X4588000Y-4481500D01*
X4551500Y-4445000D02*
X4624500Y-4445000D01*
X4588000Y-4662500D02*
X4588000Y-4735500D01*
X4551500Y-4699000D02*
X4624500Y-4699000D01*
X4715000Y-6186500D02*
X4715000Y-6259500D01*
X4678500Y-6223000D02*
X4751500Y-6223000D01*
X4715000Y-6440500D02*
X4715000Y-6513500D01*
X4678500Y-6477000D02*
X4751500Y-6477000D01*
X4715000Y-6694500D02*
X4715000Y-6767500D01*
X4678500Y-6731000D02*
X4751500Y-6731000D01*
X4715000Y-6948500D02*
X4715000Y-7021500D01*
X4678500Y-6985000D02*
X4751500Y-6985000D01*
X5096000Y-7329500D02*
X5096000Y-7402500D01*
X5059500Y-7366000D02*
X5132500Y-7366000D01*
X5096000Y-7583500D02*
X5096000Y-7656500D01*
X5059500Y-7620000D02*
X5132500Y-7620000D01*
X5096000Y-7837500D02*
X5096000Y-7910500D01*
X5059500Y-7874000D02*
X5132500Y-7874000D01*
X5096000Y-8091500D02*
X5096000Y-8164500D01*
X5059500Y-8128000D02*
X5132500Y-8128000D01*
X3079467Y-4011467D02*
X3079467Y-3948533D01*
X3016533Y-3948533D01*
X3016533Y-4011467D01*
X3079467Y-4011467D01*
X3079467Y-4216467D02*
X3079467Y-4153533D01*
X3016533Y-4153533D01*
X3016533Y-4216467D01*
X3079467Y-4216467D01*
X3079467Y-4476467D02*
X3079467Y-4413533D01*
X3016533Y-4413533D01*
X3016533Y-4476467D01*
X3079467Y-4476467D01*
X3079467Y-4681467D02*
X3079467Y-4618533D01*
X3016533Y-4618533D01*
X3016533Y-4681467D01*
X3079467Y-4681467D01*
X3328467Y-4011467D02*
X3328467Y-3948533D01*
X3265533Y-3948533D01*
X3265533Y-4011467D01*
X3328467Y-4011467D01*
X3328467Y-4265467D02*
X3328467Y-4202533D01*
X3265533Y-4202533D01*
X3265533Y-4265467D01*
X3328467Y-4265467D01*
X3328467Y-4476467D02*
X3328467Y-4413533D01*
X3265533Y-4413533D01*
X3265533Y-4476467D01*
X3328467Y-4476467D01*
X3328467Y-4681467D02*
X3328467Y-4618533D01*
X3265533Y-4618533D01*
X3265533Y-4681467D01*
X3328467Y-4681467D01*
X3048000Y-6060500D02*
X3096500Y-6012000D01*
X3048000Y-5963500D01*
X2999500Y-6012000D01*
X3048000Y-6060500D01*
X3048000Y-6265500D02*
X3096500Y-6217000D01*
X3048000Y-6168500D01*
X2999500Y-6217000D01*
X3048000Y-6265500D01*
X3048000Y-6525500D02*
X3096500Y-6477000D01*
X3048000Y-6428500D01*
X2999500Y-6477000D01*
X3048000Y-6525500D01*
X3048000Y-6730500D02*
X3096500Y-6682000D01*
X3048000Y-6633500D01*
X2999500Y-6682000D01*
X3048000Y-6730500D01*
X3297000Y-6060500D02*
X3345500Y-6012000D01*
X3297000Y-5963500D01*
X3248500Y-6012000D01*
X3297000Y-6060500D01*
X3297000Y-6730500D02*
X3345500Y-6682000D01*
X3297000Y-6633500D01*
X3248500Y-6682000D01*
X3297000Y-6730500D01*
X5792000Y-7443000D02*
X5892000Y-7543000D01*
X5892000Y-7443000D02*
X5792000Y-7543000D01*
X5892000Y-7493000D02*
G75*
G03*
X5892000Y-7493000I-50000J0D01*
G01*
X6042000Y-7443000D02*
X6142000Y-7543000D01*
X6142000Y-7443000D02*
X6042000Y-7543000D01*
X6142000Y-7493000D02*
G75*
G03*
X6142000Y-7493000I-50000J0D01*
G01*
X6292000Y-7443000D02*
X6392000Y-7543000D01*
X6392000Y-7443000D02*
X6292000Y-7543000D01*
X6392000Y-7493000D02*
G75*
G03*
X6392000Y-7493000I-50000J0D01*
G01*
X6681000Y-2363000D02*
X6781000Y-2463000D01*
X6781000Y-2363000D02*
X6681000Y-2463000D01*
X6781000Y-2413000D02*
G75*
G03*
X6781000Y-2413000I-50000J0D01*
G01*
X6681000Y-2617000D02*
X6781000Y-2717000D01*
X6781000Y-2617000D02*
X6681000Y-2717000D01*
X6781000Y-2667000D02*
G75*
G03*
X6781000Y-2667000I-50000J0D01*
G01*
X6935000Y-2363000D02*
X7035000Y-2463000D01*
X7035000Y-2363000D02*
X6935000Y-2463000D01*
X7035000Y-2413000D02*
G75*
G03*
X7035000Y-2413000I-50000J0D01*
G01*
X6935000Y-2617000D02*
X7035000Y-2717000D01*
X7035000Y-2617000D02*
X6935000Y-2717000D01*
X7035000Y-2667000D02*
G75*
G03*
X7035000Y-2667000I-50000J0D01*
G01*
X7189000Y-2363000D02*
X7289000Y-2463000D01*
X7289000Y-2363000D02*
X7189000Y-2463000D01*
X7289000Y-2413000D02*
G75*
G03*
X7289000Y-2413000I-50000J0D01*
G01*
X7189000Y-2617000D02*
X7289000Y-2717000D01*
X7289000Y-2617000D02*
X7189000Y-2717000D01*
X7289000Y-2667000D02*
G75*
G03*
X7289000Y-2667000I-50000J0D01*
G01*
X7443000Y-2363000D02*
X7543000Y-2463000D01*
X7543000Y-2363000D02*
X7443000Y-2463000D01*
X7543000Y-2413000D02*
G75*
G03*
X7543000Y-2413000I-50000J0D01*
G01*
X7443000Y-2617000D02*
X7543000Y-2717000D01*
X7543000Y-2617000D02*
X7443000Y-2717000D01*
X7543000Y-2667000D02*
G75*
G03*
X7543000Y-2667000I-50000J0D01*
G01*
X7697000Y-2363000D02*
X7797000Y-2463000D01*
X7797000Y-2363000D02*
X7697000Y-2463000D01*
X7797000Y-2413000D02*
G75*
G03*
X7797000Y-2413000I-50000J0D01*
G01*
X7697000Y-2617000D02*
X7797000Y-2717000D01*
X7797000Y-2617000D02*
X7697000Y-2717000D01*
X7797000Y-2667000D02*
G75*
G03*
X7797000Y-2667000I-50000J0D01*
G01*
X8091200Y-4221000D02*
X8241200Y-4371000D01*
X8241200Y-4221000D02*
X8091200Y-4371000D01*
X8166200Y-4221000D02*
X8166200Y-4371000D01*
X8091200Y-4296000D02*
X8241200Y-4296000D01*
X8091200Y-4521000D02*
X8241200Y-4671000D01*
X8241200Y-4521000D02*
X8091200Y-4671000D01*
X8166200Y-4521000D02*
X8166200Y-4671000D01*
X8091200Y-4596000D02*
X8241200Y-4596000D01*
X8091200Y-4821000D02*
X8241200Y-4971000D01*
X8241200Y-4821000D02*
X8091200Y-4971000D01*
X8166200Y-4821000D02*
X8166200Y-4971000D01*
X8091200Y-4896000D02*
X8241200Y-4896000D01*
X8091200Y-5121000D02*
X8241200Y-5271000D01*
X8241200Y-5121000D02*
X8091200Y-5271000D01*
X8166200Y-5121000D02*
X8166200Y-5271000D01*
X8091200Y-5196000D02*
X8241200Y-5196000D01*
X8091200Y-5421000D02*
X8241200Y-5571000D01*
X8241200Y-5421000D02*
X8091200Y-5571000D01*
X8166200Y-5421000D02*
X8166200Y-5571000D01*
X8091200Y-5496000D02*
X8241200Y-5496000D01*
X8091200Y-5721000D02*
X8241200Y-5871000D01*
X8241200Y-5721000D02*
X8091200Y-5871000D01*
X8166200Y-5721000D02*
X8166200Y-5871000D01*
X8091200Y-5796000D02*
X8241200Y-5796000D01*
X8091200Y-6021000D02*
X8241200Y-6171000D01*
X8241200Y-6021000D02*
X8091200Y-6171000D01*
X8166200Y-6021000D02*
X8166200Y-6171000D01*
X8091200Y-6096000D02*
X8241200Y-6096000D01*
X8341200Y-4371000D02*
X8491200Y-4521000D01*
X8491200Y-4371000D02*
X8341200Y-4521000D01*
X8416200Y-4371000D02*
X8416200Y-4521000D01*
X8341200Y-4446000D02*
X8491200Y-4446000D01*
X8341200Y-4671000D02*
X8491200Y-4821000D01*
X8491200Y-4671000D02*
X8341200Y-4821000D01*
X8416200Y-4671000D02*
X8416200Y-4821000D01*
X8341200Y-4746000D02*
X8491200Y-4746000D01*
X8341200Y-4971000D02*
X8491200Y-5121000D01*
X8491200Y-4971000D02*
X8341200Y-5121000D01*
X8416200Y-4971000D02*
X8416200Y-5121000D01*
X8341200Y-5046000D02*
X8491200Y-5046000D01*
X8341200Y-5271000D02*
X8491200Y-5421000D01*
X8491200Y-5271000D02*
X8341200Y-5421000D01*
X8416200Y-5271000D02*
X8416200Y-5421000D01*
X8341200Y-5346000D02*
X8491200Y-5346000D01*
X8341200Y-5571000D02*
X8491200Y-5721000D01*
X8491200Y-5571000D02*
X8341200Y-5721000D01*
X8416200Y-5571000D02*
X8416200Y-5721000D01*
X8341200Y-5646000D02*
X8491200Y-5646000D01*
X8341200Y-5871000D02*
X8491200Y-6021000D01*
X8491200Y-5871000D02*
X8341200Y-6021000D01*
X8416200Y-5871000D02*
X8416200Y-6021000D01*
X8341200Y-5946000D02*
X8491200Y-5946000D01*
X8641200Y-4371000D02*
X8791200Y-4521000D01*
X8791200Y-4371000D02*
X8641200Y-4521000D01*
X8716200Y-4371000D02*
X8716200Y-4521000D01*
X8641200Y-4446000D02*
X8791200Y-4446000D01*
X8641200Y-4671000D02*
X8791200Y-4821000D01*
X8791200Y-4671000D02*
X8641200Y-4821000D01*
X8716200Y-4671000D02*
X8716200Y-4821000D01*
X8641200Y-4746000D02*
X8791200Y-4746000D01*
X8641200Y-4971000D02*
X8791200Y-5121000D01*
X8791200Y-4971000D02*
X8641200Y-5121000D01*
X8716200Y-4971000D02*
X8716200Y-5121000D01*
X8641200Y-5046000D02*
X8791200Y-5046000D01*
X8641200Y-5271000D02*
X8791200Y-5421000D01*
X8791200Y-5271000D02*
X8641200Y-5421000D01*
X8716200Y-5271000D02*
X8716200Y-5421000D01*
X8641200Y-5346000D02*
X8791200Y-5346000D01*
X8641200Y-5571000D02*
X8791200Y-5721000D01*
X8791200Y-5571000D02*
X8641200Y-5721000D01*
X8716200Y-5571000D02*
X8716200Y-5721000D01*
X8641200Y-5646000D02*
X8791200Y-5646000D01*
X8641200Y-5871000D02*
X8791200Y-6021000D01*
X8791200Y-5871000D02*
X8641200Y-6021000D01*
X8716200Y-5871000D02*
X8716200Y-6021000D01*
X8641200Y-5946000D02*
X8791200Y-5946000D01*
X8891200Y-4221000D02*
X9041200Y-4371000D01*
X9041200Y-4221000D02*
X8891200Y-4371000D01*
X8966200Y-4221000D02*
X8966200Y-4371000D01*
X8891200Y-4296000D02*
X9041200Y-4296000D01*
X8891200Y-4521000D02*
X9041200Y-4671000D01*
X9041200Y-4521000D02*
X8891200Y-4671000D01*
X8966200Y-4521000D02*
X8966200Y-4671000D01*
X8891200Y-4596000D02*
X9041200Y-4596000D01*
X8891200Y-4821000D02*
X9041200Y-4971000D01*
X9041200Y-4821000D02*
X8891200Y-4971000D01*
X8966200Y-4821000D02*
X8966200Y-4971000D01*
X8891200Y-4896000D02*
X9041200Y-4896000D01*
X8891200Y-5121000D02*
X9041200Y-5271000D01*
X9041200Y-5121000D02*
X8891200Y-5271000D01*
X8966200Y-5121000D02*
X8966200Y-5271000D01*
X8891200Y-5196000D02*
X9041200Y-5196000D01*
X8891200Y-5421000D02*
X9041200Y-5571000D01*
X9041200Y-5421000D02*
X8891200Y-5571000D01*
X8966200Y-5421000D02*
X8966200Y-5571000D01*
X8891200Y-5496000D02*
X9041200Y-5496000D01*
X8891200Y-5721000D02*
X9041200Y-5871000D01*
X9041200Y-5721000D02*
X8891200Y-5871000D01*
X8966200Y-5721000D02*
X8966200Y-5871000D01*
X8891200Y-5796000D02*
X9041200Y-5796000D01*
X8891200Y-6021000D02*
X9041200Y-6171000D01*
X9041200Y-6021000D02*
X8891200Y-6171000D01*
X8966200Y-6021000D02*
X8966200Y-6171000D01*
X8891200Y-6096000D02*
X9041200Y-6096000D01*
X5507000Y-8078000D02*
X5707000Y-8278000D01*
X5707000Y-8078000D02*
X5507000Y-8278000D01*
X5677711Y-8248711D02*
X5677711Y-8107289D01*
X5536289Y-8107289D01*
X5536289Y-8248711D01*
X5677711Y-8248711D01*
X6464000Y-8078000D02*
X6664000Y-8278000D01*
X6664000Y-8078000D02*
X6464000Y-8278000D01*
X6634711Y-8248711D02*
X6634711Y-8107289D01*
X6493289Y-8107289D01*
X6493289Y-8248711D01*
X6634711Y-8248711D01*
X2552500Y-4200500D02*
X2781500Y-4429500D01*
X2781500Y-4200500D02*
X2552500Y-4429500D01*
X2667000Y-4429500D02*
X2781500Y-4315000D01*
X2667000Y-4200500D01*
X2552500Y-4315000D01*
X2667000Y-4429500D01*
X2633500Y-3524500D02*
X2862500Y-3753500D01*
X2862500Y-3524500D02*
X2633500Y-3753500D01*
X2748000Y-3753500D02*
X2862500Y-3639000D01*
X2748000Y-3524500D01*
X2633500Y-3639000D01*
X2748000Y-3753500D01*
X2633500Y-4876500D02*
X2862500Y-5105500D01*
X2862500Y-4876500D02*
X2633500Y-5105500D01*
X2748000Y-5105500D02*
X2862500Y-4991000D01*
X2748000Y-4876500D01*
X2633500Y-4991000D01*
X2748000Y-5105500D01*
X2667000Y-6228500D02*
X2667000Y-6465500D01*
X2548500Y-6347000D02*
X2785500Y-6347000D01*
X2785500Y-6347000D02*
G75*
G03*
X2785500Y-6347000I-118500J0D01*
G01*
X2748000Y-5552500D02*
X2748000Y-5789500D01*
X2629500Y-5671000D02*
X2866500Y-5671000D01*
X2866500Y-5671000D02*
G75*
G03*
X2866500Y-5671000I-118500J0D01*
G01*
X2748000Y-6904500D02*
X2748000Y-7141500D01*
X2629500Y-7023000D02*
X2866500Y-7023000D01*
X2866500Y-7023000D02*
G75*
G03*
X2866500Y-7023000I-118500J0D01*
G01*
X9736409Y-3691209D02*
X9736409Y-3450791D01*
X9495991Y-3450791D01*
X9495991Y-3691209D01*
X9736409Y-3691209D01*
X9786200Y-3571000D02*
G75*
G03*
X9786200Y-3571000I-170000J0D01*
G01*
X9736409Y-6941209D02*
X9736409Y-6700791D01*
X9495991Y-6700791D01*
X9495991Y-6941209D01*
X9736409Y-6941209D01*
X9786200Y-6821000D02*
G75*
G03*
X9786200Y-6821000I-170000J0D01*
G01*
X3556000Y-2815400D02*
X3806000Y-2565400D01*
X3556000Y-2315400D01*
X3306000Y-2565400D01*
X3556000Y-2815400D01*
X3806000Y-2565400D02*
G75*
G03*
X3806000Y-2565400I-250000J0D01*
G01*
X3556000Y-8124000D02*
X3806000Y-7874000D01*
X3556000Y-7624000D01*
X3306000Y-7874000D01*
X3556000Y-8124000D01*
X3806000Y-7874000D02*
G75*
G03*
X3806000Y-7874000I-250000J0D01*
G01*
X8788400Y-8124000D02*
X9038400Y-7874000D01*
X8788400Y-7624000D01*
X8538400Y-7874000D01*
X8788400Y-8124000D01*
X9038400Y-7874000D02*
G75*
G03*
X9038400Y-7874000I-250000J0D01*
G01*
X9245600Y-2790000D02*
X9495600Y-2540000D01*
X9245600Y-2290000D01*
X8995600Y-2540000D01*
X9245600Y-2790000D01*
X9495600Y-2540000D02*
G75*
G03*
X9495600Y-2540000I-250000J0D01*
G01*
D12*
X2188928Y-9485214D02*
X2188928Y-9185214D01*
X2260357Y-9185214D01*
X2303214Y-9199500D01*
X2331786Y-9228072D01*
X2346071Y-9256643D01*
X2360357Y-9313786D01*
X2360357Y-9356643D01*
X2346071Y-9413786D01*
X2331786Y-9442357D01*
X2303214Y-9470929D01*
X2260357Y-9485214D01*
X2188928Y-9485214D01*
X2488928Y-9485214D02*
X2488928Y-9285214D01*
X2488928Y-9342357D02*
X2503214Y-9313786D01*
X2517500Y-9299500D01*
X2546071Y-9285214D01*
X2574643Y-9285214D01*
X2674643Y-9485214D02*
X2674643Y-9285214D01*
X2674643Y-9185214D02*
X2660357Y-9199500D01*
X2674643Y-9213786D01*
X2688928Y-9199500D01*
X2674643Y-9185214D01*
X2674643Y-9213786D01*
X2860357Y-9485214D02*
X2831786Y-9470929D01*
X2817500Y-9442357D01*
X2817500Y-9185214D01*
X3017500Y-9485214D02*
X2988928Y-9470929D01*
X2974643Y-9442357D01*
X2974643Y-9185214D01*
X3360357Y-9485214D02*
X3360357Y-9185214D01*
X3460357Y-9399500D01*
X3560357Y-9185214D01*
X3560357Y-9485214D01*
X3831786Y-9485214D02*
X3831786Y-9328072D01*
X3817500Y-9299500D01*
X3788928Y-9285214D01*
X3731786Y-9285214D01*
X3703214Y-9299500D01*
X3831786Y-9470929D02*
X3803214Y-9485214D01*
X3731786Y-9485214D01*
X3703214Y-9470929D01*
X3688928Y-9442357D01*
X3688928Y-9413786D01*
X3703214Y-9385214D01*
X3731786Y-9370929D01*
X3803214Y-9370929D01*
X3831786Y-9356643D01*
X3974643Y-9285214D02*
X3974643Y-9585214D01*
X3974643Y-9299500D02*
X4003214Y-9285214D01*
X4060357Y-9285214D01*
X4088928Y-9299500D01*
X4103214Y-9313786D01*
X4117500Y-9342357D01*
X4117500Y-9428072D01*
X4103214Y-9456643D01*
X4088928Y-9470929D01*
X4060357Y-9485214D01*
X4003214Y-9485214D01*
X3974643Y-9470929D01*
X4246071Y-9456643D02*
X4260357Y-9470929D01*
X4246071Y-9485214D01*
X4231786Y-9470929D01*
X4246071Y-9456643D01*
X4246071Y-9485214D01*
X4246071Y-9299500D02*
X4260357Y-9313786D01*
X4246071Y-9328072D01*
X4231786Y-9313786D01*
X4246071Y-9299500D01*
X4246071Y-9328072D01*
X1862500Y-9959500D02*
X1902500Y-9999500D01*
X1902500Y-9959500D02*
X1862500Y-9999500D01*
X2246071Y-9815214D02*
X2274643Y-9815214D01*
X2303214Y-9829500D01*
X2317500Y-9843786D01*
X2331786Y-9872357D01*
X2346071Y-9929500D01*
X2346071Y-10000929D01*
X2331786Y-10058072D01*
X2317500Y-10086643D01*
X2303214Y-10100929D01*
X2274643Y-10115214D01*
X2246071Y-10115214D01*
X2217500Y-10100929D01*
X2203214Y-10086643D01*
X2188928Y-10058072D01*
X2174643Y-10000929D01*
X2174643Y-9929500D01*
X2188928Y-9872357D01*
X2203214Y-9843786D01*
X2217500Y-9829500D01*
X2246071Y-9815214D01*
X2474643Y-10086643D02*
X2488928Y-10100929D01*
X2474643Y-10115214D01*
X2460357Y-10100929D01*
X2474643Y-10086643D01*
X2474643Y-10115214D01*
X2746071Y-9915214D02*
X2746071Y-10115214D01*
X2674643Y-9800929D02*
X2603214Y-10015214D01*
X2788928Y-10015214D01*
X2960357Y-9815214D02*
X2988928Y-9815214D01*
X3017500Y-9829500D01*
X3031786Y-9843786D01*
X3046071Y-9872357D01*
X3060357Y-9929500D01*
X3060357Y-10000929D01*
X3046071Y-10058072D01*
X3031786Y-10086643D01*
X3017500Y-10100929D01*
X2988928Y-10115214D01*
X2960357Y-10115214D01*
X2931786Y-10100929D01*
X2917500Y-10086643D01*
X2903214Y-10058072D01*
X2888928Y-10000929D01*
X2888928Y-9929500D01*
X2903214Y-9872357D01*
X2917500Y-9843786D01*
X2931786Y-9829500D01*
X2960357Y-9815214D01*
X3246071Y-9815214D02*
X3274643Y-9815214D01*
X3303214Y-9829500D01*
X3317500Y-9843786D01*
X3331786Y-9872357D01*
X3346071Y-9929500D01*
X3346071Y-10000929D01*
X3331786Y-10058072D01*
X3317500Y-10086643D01*
X3303214Y-10100929D01*
X3274643Y-10115214D01*
X3246071Y-10115214D01*
X3217500Y-10100929D01*
X3203214Y-10086643D01*
X3188928Y-10058072D01*
X3174643Y-10000929D01*
X3174643Y-9929500D01*
X3188928Y-9872357D01*
X3203214Y-9843786D01*
X3217500Y-9829500D01*
X3246071Y-9815214D01*
X3474643Y-10115214D02*
X3474643Y-9915214D01*
X3474643Y-9943786D02*
X3488928Y-9929500D01*
X3517500Y-9915214D01*
X3560357Y-9915214D01*
X3588928Y-9929500D01*
X3603214Y-9958072D01*
X3603214Y-10115214D01*
X3603214Y-9958072D02*
X3617500Y-9929500D01*
X3646071Y-9915214D01*
X3688928Y-9915214D01*
X3717500Y-9929500D01*
X3731786Y-9958072D01*
X3731786Y-10115214D01*
X3874643Y-10115214D02*
X3874643Y-9915214D01*
X3874643Y-9943786D02*
X3888928Y-9929500D01*
X3917500Y-9915214D01*
X3960357Y-9915214D01*
X3988928Y-9929500D01*
X4003214Y-9958072D01*
X4003214Y-10115214D01*
X4003214Y-9958072D02*
X4017500Y-9929500D01*
X4046071Y-9915214D01*
X4088928Y-9915214D01*
X4117500Y-9929500D01*
X4131786Y-9958072D01*
X4131786Y-10115214D01*
X4717500Y-9800929D02*
X4460357Y-10186643D01*
X5103214Y-9815214D02*
X5131786Y-9815214D01*
X5160357Y-9829500D01*
X5174643Y-9843786D01*
X5188928Y-9872357D01*
X5203214Y-9929500D01*
X5203214Y-10000929D01*
X5188928Y-10058072D01*
X5174643Y-10086643D01*
X5160357Y-10100929D01*
X5131786Y-10115214D01*
X5103214Y-10115214D01*
X5074643Y-10100929D01*
X5060357Y-10086643D01*
X5046071Y-10058072D01*
X5031786Y-10000929D01*
X5031786Y-9929500D01*
X5046071Y-9872357D01*
X5060357Y-9843786D01*
X5074643Y-9829500D01*
X5103214Y-9815214D01*
X5331786Y-10086643D02*
X5346071Y-10100929D01*
X5331786Y-10115214D01*
X5317500Y-10100929D01*
X5331786Y-10086643D01*
X5331786Y-10115214D01*
X5531786Y-9815214D02*
X5560357Y-9815214D01*
X5588928Y-9829500D01*
X5603214Y-9843786D01*
X5617500Y-9872357D01*
X5631786Y-9929500D01*
X5631786Y-10000929D01*
X5617500Y-10058072D01*
X5603214Y-10086643D01*
X5588928Y-10100929D01*
X5560357Y-10115214D01*
X5531786Y-10115214D01*
X5503214Y-10100929D01*
X5488928Y-10086643D01*
X5474643Y-10058072D01*
X5460357Y-10000929D01*
X5460357Y-9929500D01*
X5474643Y-9872357D01*
X5488928Y-9843786D01*
X5503214Y-9829500D01*
X5531786Y-9815214D01*
X5917500Y-10115214D02*
X5746071Y-10115214D01*
X5831786Y-10115214D02*
X5831786Y-9815214D01*
X5803214Y-9858072D01*
X5774643Y-9886643D01*
X5746071Y-9900929D01*
X6188928Y-9815214D02*
X6046071Y-9815214D01*
X6031786Y-9958072D01*
X6046071Y-9943786D01*
X6074643Y-9929500D01*
X6146071Y-9929500D01*
X6174643Y-9943786D01*
X6188928Y-9958072D01*
X6203214Y-9986643D01*
X6203214Y-10058072D01*
X6188928Y-10086643D01*
X6174643Y-10100929D01*
X6146071Y-10115214D01*
X6074643Y-10115214D01*
X6046071Y-10100929D01*
X6031786Y-10086643D01*
X6303214Y-9815214D02*
X6503214Y-9815214D01*
X6374643Y-10115214D01*
X6603214Y-9815214D02*
X6603214Y-9872357D01*
X6717500Y-9815214D02*
X6717500Y-9872357D01*
X7160357Y-10229500D02*
X7146071Y-10215214D01*
X7117500Y-10172357D01*
X7103214Y-10143786D01*
X7088928Y-10100929D01*
X7074643Y-10029500D01*
X7074643Y-9972357D01*
X7088928Y-9900929D01*
X7103214Y-9858072D01*
X7117500Y-9829500D01*
X7146071Y-9786643D01*
X7160357Y-9772357D01*
X7403214Y-9815214D02*
X7346071Y-9815214D01*
X7317500Y-9829500D01*
X7303214Y-9843786D01*
X7274643Y-9886643D01*
X7260357Y-9943786D01*
X7260357Y-10058072D01*
X7274643Y-10086643D01*
X7288928Y-10100929D01*
X7317500Y-10115214D01*
X7374643Y-10115214D01*
X7403214Y-10100929D01*
X7417500Y-10086643D01*
X7431786Y-10058072D01*
X7431786Y-9986643D01*
X7417500Y-9958072D01*
X7403214Y-9943786D01*
X7374643Y-9929500D01*
X7317500Y-9929500D01*
X7288928Y-9943786D01*
X7274643Y-9958072D01*
X7260357Y-9986643D01*
X7603214Y-9943786D02*
X7574643Y-9929500D01*
X7560357Y-9915214D01*
X7546071Y-9886643D01*
X7546071Y-9872357D01*
X7560357Y-9843786D01*
X7574643Y-9829500D01*
X7603214Y-9815214D01*
X7660357Y-9815214D01*
X7688928Y-9829500D01*
X7703214Y-9843786D01*
X7717500Y-9872357D01*
X7717500Y-9886643D01*
X7703214Y-9915214D01*
X7688928Y-9929500D01*
X7660357Y-9943786D01*
X7603214Y-9943786D01*
X7574643Y-9958072D01*
X7560357Y-9972357D01*
X7546071Y-10000929D01*
X7546071Y-10058072D01*
X7560357Y-10086643D01*
X7574643Y-10100929D01*
X7603214Y-10115214D01*
X7660357Y-10115214D01*
X7688928Y-10100929D01*
X7703214Y-10086643D01*
X7717500Y-10058072D01*
X7717500Y-10000929D01*
X7703214Y-9972357D01*
X7688928Y-9958072D01*
X7660357Y-9943786D01*
X8074643Y-10115214D02*
X8074643Y-9815214D01*
X8203214Y-10115214D02*
X8203214Y-9958072D01*
X8188928Y-9929500D01*
X8160357Y-9915214D01*
X8117500Y-9915214D01*
X8088928Y-9929500D01*
X8074643Y-9943786D01*
X8388928Y-10115214D02*
X8360357Y-10100929D01*
X8346071Y-10086643D01*
X8331786Y-10058072D01*
X8331786Y-9972357D01*
X8346071Y-9943786D01*
X8360357Y-9929500D01*
X8388928Y-9915214D01*
X8431786Y-9915214D01*
X8460357Y-9929500D01*
X8474643Y-9943786D01*
X8488928Y-9972357D01*
X8488928Y-10058072D01*
X8474643Y-10086643D01*
X8460357Y-10100929D01*
X8431786Y-10115214D01*
X8388928Y-10115214D01*
X8660357Y-10115214D02*
X8631786Y-10100929D01*
X8617500Y-10072357D01*
X8617500Y-9815214D01*
X8888928Y-10100929D02*
X8860357Y-10115214D01*
X8803214Y-10115214D01*
X8774643Y-10100929D01*
X8760357Y-10072357D01*
X8760357Y-9958072D01*
X8774643Y-9929500D01*
X8803214Y-9915214D01*
X8860357Y-9915214D01*
X8888928Y-9929500D01*
X8903214Y-9958072D01*
X8903214Y-9986643D01*
X8760357Y-10015214D01*
X9017500Y-10100929D02*
X9046071Y-10115214D01*
X9103214Y-10115214D01*
X9131786Y-10100929D01*
X9146071Y-10072357D01*
X9146071Y-10058072D01*
X9131786Y-10029500D01*
X9103214Y-10015214D01*
X9060357Y-10015214D01*
X9031786Y-10000929D01*
X9017500Y-9972357D01*
X9017500Y-9958072D01*
X9031786Y-9929500D01*
X9060357Y-9915214D01*
X9103214Y-9915214D01*
X9131786Y-9929500D01*
X9246071Y-10229500D02*
X9260357Y-10215214D01*
X9288928Y-10172357D01*
X9303214Y-10143786D01*
X9317500Y-10100929D01*
X9331786Y-10029500D01*
X9331786Y-9972357D01*
X9317500Y-9900929D01*
X9303214Y-9858072D01*
X9288928Y-9829500D01*
X9260357Y-9786643D01*
X9246071Y-9772357D01*
X1902500Y-10375500D02*
G75*
G03*
X1902500Y-10375500I-30000J0D01*
G01*
X2246071Y-10211214D02*
X2274643Y-10211214D01*
X2303214Y-10225500D01*
X2317500Y-10239786D01*
X2331786Y-10268357D01*
X2346071Y-10325500D01*
X2346071Y-10396929D01*
X2331786Y-10454072D01*
X2317500Y-10482643D01*
X2303214Y-10496929D01*
X2274643Y-10511214D01*
X2246071Y-10511214D01*
X2217500Y-10496929D01*
X2203214Y-10482643D01*
X2188928Y-10454072D01*
X2174643Y-10396929D01*
X2174643Y-10325500D01*
X2188928Y-10268357D01*
X2203214Y-10239786D01*
X2217500Y-10225500D01*
X2246071Y-10211214D01*
X2474643Y-10482643D02*
X2488928Y-10496929D01*
X2474643Y-10511214D01*
X2460357Y-10496929D01*
X2474643Y-10482643D01*
X2474643Y-10511214D01*
X2746071Y-10211214D02*
X2688928Y-10211214D01*
X2660357Y-10225500D01*
X2646071Y-10239786D01*
X2617500Y-10282643D01*
X2603214Y-10339786D01*
X2603214Y-10454072D01*
X2617500Y-10482643D01*
X2631786Y-10496929D01*
X2660357Y-10511214D01*
X2717500Y-10511214D01*
X2746071Y-10496929D01*
X2760357Y-10482643D01*
X2774643Y-10454072D01*
X2774643Y-10382643D01*
X2760357Y-10354072D01*
X2746071Y-10339786D01*
X2717500Y-10325500D01*
X2660357Y-10325500D01*
X2631786Y-10339786D01*
X2617500Y-10354072D01*
X2603214Y-10382643D01*
X2960357Y-10211214D02*
X2988928Y-10211214D01*
X3017500Y-10225500D01*
X3031786Y-10239786D01*
X3046071Y-10268357D01*
X3060357Y-10325500D01*
X3060357Y-10396929D01*
X3046071Y-10454072D01*
X3031786Y-10482643D01*
X3017500Y-10496929D01*
X2988928Y-10511214D01*
X2960357Y-10511214D01*
X2931786Y-10496929D01*
X2917500Y-10482643D01*
X2903214Y-10454072D01*
X2888928Y-10396929D01*
X2888928Y-10325500D01*
X2903214Y-10268357D01*
X2917500Y-10239786D01*
X2931786Y-10225500D01*
X2960357Y-10211214D01*
X3246071Y-10211214D02*
X3274643Y-10211214D01*
X3303214Y-10225500D01*
X3317500Y-10239786D01*
X3331786Y-10268357D01*
X3346071Y-10325500D01*
X3346071Y-10396929D01*
X3331786Y-10454072D01*
X3317500Y-10482643D01*
X3303214Y-10496929D01*
X3274643Y-10511214D01*
X3246071Y-10511214D01*
X3217500Y-10496929D01*
X3203214Y-10482643D01*
X3188928Y-10454072D01*
X3174643Y-10396929D01*
X3174643Y-10325500D01*
X3188928Y-10268357D01*
X3203214Y-10239786D01*
X3217500Y-10225500D01*
X3246071Y-10211214D01*
X3474643Y-10511214D02*
X3474643Y-10311214D01*
X3474643Y-10339786D02*
X3488928Y-10325500D01*
X3517500Y-10311214D01*
X3560357Y-10311214D01*
X3588928Y-10325500D01*
X3603214Y-10354072D01*
X3603214Y-10511214D01*
X3603214Y-10354072D02*
X3617500Y-10325500D01*
X3646071Y-10311214D01*
X3688928Y-10311214D01*
X3717500Y-10325500D01*
X3731786Y-10354072D01*
X3731786Y-10511214D01*
X3874643Y-10511214D02*
X3874643Y-10311214D01*
X3874643Y-10339786D02*
X3888928Y-10325500D01*
X3917500Y-10311214D01*
X3960357Y-10311214D01*
X3988928Y-10325500D01*
X4003214Y-10354072D01*
X4003214Y-10511214D01*
X4003214Y-10354072D02*
X4017500Y-10325500D01*
X4046071Y-10311214D01*
X4088928Y-10311214D01*
X4117500Y-10325500D01*
X4131786Y-10354072D01*
X4131786Y-10511214D01*
X4717500Y-10196929D02*
X4460357Y-10582643D01*
X5103214Y-10211214D02*
X5131786Y-10211214D01*
X5160357Y-10225500D01*
X5174643Y-10239786D01*
X5188928Y-10268357D01*
X5203214Y-10325500D01*
X5203214Y-10396929D01*
X5188928Y-10454072D01*
X5174643Y-10482643D01*
X5160357Y-10496929D01*
X5131786Y-10511214D01*
X5103214Y-10511214D01*
X5074643Y-10496929D01*
X5060357Y-10482643D01*
X5046071Y-10454072D01*
X5031786Y-10396929D01*
X5031786Y-10325500D01*
X5046071Y-10268357D01*
X5060357Y-10239786D01*
X5074643Y-10225500D01*
X5103214Y-10211214D01*
X5331786Y-10482643D02*
X5346071Y-10496929D01*
X5331786Y-10511214D01*
X5317500Y-10496929D01*
X5331786Y-10482643D01*
X5331786Y-10511214D01*
X5531786Y-10211214D02*
X5560357Y-10211214D01*
X5588928Y-10225500D01*
X5603214Y-10239786D01*
X5617500Y-10268357D01*
X5631786Y-10325500D01*
X5631786Y-10396929D01*
X5617500Y-10454072D01*
X5603214Y-10482643D01*
X5588928Y-10496929D01*
X5560357Y-10511214D01*
X5531786Y-10511214D01*
X5503214Y-10496929D01*
X5488928Y-10482643D01*
X5474643Y-10454072D01*
X5460357Y-10396929D01*
X5460357Y-10325500D01*
X5474643Y-10268357D01*
X5488928Y-10239786D01*
X5503214Y-10225500D01*
X5531786Y-10211214D01*
X5746071Y-10239786D02*
X5760357Y-10225500D01*
X5788928Y-10211214D01*
X5860357Y-10211214D01*
X5888928Y-10225500D01*
X5903214Y-10239786D01*
X5917500Y-10268357D01*
X5917500Y-10296929D01*
X5903214Y-10339786D01*
X5731786Y-10511214D01*
X5917500Y-10511214D01*
X6017500Y-10211214D02*
X6203214Y-10211214D01*
X6103214Y-10325500D01*
X6146071Y-10325500D01*
X6174643Y-10339786D01*
X6188928Y-10354072D01*
X6203214Y-10382643D01*
X6203214Y-10454072D01*
X6188928Y-10482643D01*
X6174643Y-10496929D01*
X6146071Y-10511214D01*
X6060357Y-10511214D01*
X6031786Y-10496929D01*
X6017500Y-10482643D01*
X6460357Y-10211214D02*
X6403214Y-10211214D01*
X6374643Y-10225500D01*
X6360357Y-10239786D01*
X6331786Y-10282643D01*
X6317500Y-10339786D01*
X6317500Y-10454072D01*
X6331786Y-10482643D01*
X6346071Y-10496929D01*
X6374643Y-10511214D01*
X6431786Y-10511214D01*
X6460357Y-10496929D01*
X6474643Y-10482643D01*
X6488928Y-10454072D01*
X6488928Y-10382643D01*
X6474643Y-10354072D01*
X6460357Y-10339786D01*
X6431786Y-10325500D01*
X6374643Y-10325500D01*
X6346071Y-10339786D01*
X6331786Y-10354072D01*
X6317500Y-10382643D01*
X6603214Y-10211214D02*
X6603214Y-10268357D01*
X6717500Y-10211214D02*
X6717500Y-10268357D01*
X7160357Y-10625500D02*
X7146071Y-10611214D01*
X7117500Y-10568357D01*
X7103214Y-10539786D01*
X7088928Y-10496929D01*
X7074643Y-10425500D01*
X7074643Y-10368357D01*
X7088928Y-10296929D01*
X7103214Y-10254072D01*
X7117500Y-10225500D01*
X7146071Y-10182643D01*
X7160357Y-10168357D01*
X7246071Y-10211214D02*
X7431786Y-10211214D01*
X7331786Y-10325500D01*
X7374643Y-10325500D01*
X7403214Y-10339786D01*
X7417500Y-10354072D01*
X7431786Y-10382643D01*
X7431786Y-10454072D01*
X7417500Y-10482643D01*
X7403214Y-10496929D01*
X7374643Y-10511214D01*
X7288928Y-10511214D01*
X7260357Y-10496929D01*
X7246071Y-10482643D01*
X7546071Y-10239786D02*
X7560357Y-10225500D01*
X7588928Y-10211214D01*
X7660357Y-10211214D01*
X7688928Y-10225500D01*
X7703214Y-10239786D01*
X7717500Y-10268357D01*
X7717500Y-10296929D01*
X7703214Y-10339786D01*
X7531786Y-10511214D01*
X7717500Y-10511214D01*
X8074643Y-10511214D02*
X8074643Y-10211214D01*
X8203214Y-10511214D02*
X8203214Y-10354072D01*
X8188928Y-10325500D01*
X8160357Y-10311214D01*
X8117500Y-10311214D01*
X8088928Y-10325500D01*
X8074643Y-10339786D01*
X8388928Y-10511214D02*
X8360357Y-10496929D01*
X8346071Y-10482643D01*
X8331786Y-10454072D01*
X8331786Y-10368357D01*
X8346071Y-10339786D01*
X8360357Y-10325500D01*
X8388928Y-10311214D01*
X8431786Y-10311214D01*
X8460357Y-10325500D01*
X8474643Y-10339786D01*
X8488928Y-10368357D01*
X8488928Y-10454072D01*
X8474643Y-10482643D01*
X8460357Y-10496929D01*
X8431786Y-10511214D01*
X8388928Y-10511214D01*
X8660357Y-10511214D02*
X8631786Y-10496929D01*
X8617500Y-10468357D01*
X8617500Y-10211214D01*
X8888928Y-10496929D02*
X8860357Y-10511214D01*
X8803214Y-10511214D01*
X8774643Y-10496929D01*
X8760357Y-10468357D01*
X8760357Y-10354072D01*
X8774643Y-10325500D01*
X8803214Y-10311214D01*
X8860357Y-10311214D01*
X8888928Y-10325500D01*
X8903214Y-10354072D01*
X8903214Y-10382643D01*
X8760357Y-10411214D01*
X9017500Y-10496929D02*
X9046071Y-10511214D01*
X9103214Y-10511214D01*
X9131786Y-10496929D01*
X9146071Y-10468357D01*
X9146071Y-10454072D01*
X9131786Y-10425500D01*
X9103214Y-10411214D01*
X9060357Y-10411214D01*
X9031786Y-10396929D01*
X9017500Y-10368357D01*
X9017500Y-10354072D01*
X9031786Y-10325500D01*
X9060357Y-10311214D01*
X9103214Y-10311214D01*
X9131786Y-10325500D01*
X9246071Y-10625500D02*
X9260357Y-10611214D01*
X9288928Y-10568357D01*
X9303214Y-10539786D01*
X9317500Y-10496929D01*
X9331786Y-10425500D01*
X9331786Y-10368357D01*
X9317500Y-10296929D01*
X9303214Y-10254072D01*
X9288928Y-10225500D01*
X9260357Y-10182643D01*
X9246071Y-10168357D01*
X1866000Y-10735000D02*
X1866000Y-10808000D01*
X1829500Y-10771500D02*
X1902500Y-10771500D01*
X2246071Y-10607214D02*
X2274643Y-10607214D01*
X2303214Y-10621500D01*
X2317500Y-10635786D01*
X2331786Y-10664357D01*
X2346071Y-10721500D01*
X2346071Y-10792929D01*
X2331786Y-10850072D01*
X2317500Y-10878643D01*
X2303214Y-10892929D01*
X2274643Y-10907214D01*
X2246071Y-10907214D01*
X2217500Y-10892929D01*
X2203214Y-10878643D01*
X2188928Y-10850072D01*
X2174643Y-10792929D01*
X2174643Y-10721500D01*
X2188928Y-10664357D01*
X2203214Y-10635786D01*
X2217500Y-10621500D01*
X2246071Y-10607214D01*
X2474643Y-10878643D02*
X2488928Y-10892929D01*
X2474643Y-10907214D01*
X2460357Y-10892929D01*
X2474643Y-10878643D01*
X2474643Y-10907214D01*
X2588928Y-10607214D02*
X2788928Y-10607214D01*
X2660357Y-10907214D01*
X2874643Y-10607214D02*
X3060357Y-10607214D01*
X2960357Y-10721500D01*
X3003214Y-10721500D01*
X3031786Y-10735786D01*
X3046071Y-10750072D01*
X3060357Y-10778643D01*
X3060357Y-10850072D01*
X3046071Y-10878643D01*
X3031786Y-10892929D01*
X3003214Y-10907214D01*
X2917500Y-10907214D01*
X2888928Y-10892929D01*
X2874643Y-10878643D01*
X3246071Y-10607214D02*
X3274643Y-10607214D01*
X3303214Y-10621500D01*
X3317500Y-10635786D01*
X3331786Y-10664357D01*
X3346071Y-10721500D01*
X3346071Y-10792929D01*
X3331786Y-10850072D01*
X3317500Y-10878643D01*
X3303214Y-10892929D01*
X3274643Y-10907214D01*
X3246071Y-10907214D01*
X3217500Y-10892929D01*
X3203214Y-10878643D01*
X3188928Y-10850072D01*
X3174643Y-10792929D01*
X3174643Y-10721500D01*
X3188928Y-10664357D01*
X3203214Y-10635786D01*
X3217500Y-10621500D01*
X3246071Y-10607214D01*
X3474643Y-10907214D02*
X3474643Y-10707214D01*
X3474643Y-10735786D02*
X3488928Y-10721500D01*
X3517500Y-10707214D01*
X3560357Y-10707214D01*
X3588928Y-10721500D01*
X3603214Y-10750072D01*
X3603214Y-10907214D01*
X3603214Y-10750072D02*
X3617500Y-10721500D01*
X3646071Y-10707214D01*
X3688928Y-10707214D01*
X3717500Y-10721500D01*
X3731786Y-10750072D01*
X3731786Y-10907214D01*
X3874643Y-10907214D02*
X3874643Y-10707214D01*
X3874643Y-10735786D02*
X3888928Y-10721500D01*
X3917500Y-10707214D01*
X3960357Y-10707214D01*
X3988928Y-10721500D01*
X4003214Y-10750072D01*
X4003214Y-10907214D01*
X4003214Y-10750072D02*
X4017500Y-10721500D01*
X4046071Y-10707214D01*
X4088928Y-10707214D01*
X4117500Y-10721500D01*
X4131786Y-10750072D01*
X4131786Y-10907214D01*
X4717500Y-10592929D02*
X4460357Y-10978643D01*
X5103214Y-10607214D02*
X5131786Y-10607214D01*
X5160357Y-10621500D01*
X5174643Y-10635786D01*
X5188928Y-10664357D01*
X5203214Y-10721500D01*
X5203214Y-10792929D01*
X5188928Y-10850072D01*
X5174643Y-10878643D01*
X5160357Y-10892929D01*
X5131786Y-10907214D01*
X5103214Y-10907214D01*
X5074643Y-10892929D01*
X5060357Y-10878643D01*
X5046071Y-10850072D01*
X5031786Y-10792929D01*
X5031786Y-10721500D01*
X5046071Y-10664357D01*
X5060357Y-10635786D01*
X5074643Y-10621500D01*
X5103214Y-10607214D01*
X5331786Y-10878643D02*
X5346071Y-10892929D01*
X5331786Y-10907214D01*
X5317500Y-10892929D01*
X5331786Y-10878643D01*
X5331786Y-10907214D01*
X5531786Y-10607214D02*
X5560357Y-10607214D01*
X5588928Y-10621500D01*
X5603214Y-10635786D01*
X5617500Y-10664357D01*
X5631786Y-10721500D01*
X5631786Y-10792929D01*
X5617500Y-10850072D01*
X5603214Y-10878643D01*
X5588928Y-10892929D01*
X5560357Y-10907214D01*
X5531786Y-10907214D01*
X5503214Y-10892929D01*
X5488928Y-10878643D01*
X5474643Y-10850072D01*
X5460357Y-10792929D01*
X5460357Y-10721500D01*
X5474643Y-10664357D01*
X5488928Y-10635786D01*
X5503214Y-10621500D01*
X5531786Y-10607214D01*
X5746071Y-10635786D02*
X5760357Y-10621500D01*
X5788928Y-10607214D01*
X5860357Y-10607214D01*
X5888928Y-10621500D01*
X5903214Y-10635786D01*
X5917500Y-10664357D01*
X5917500Y-10692929D01*
X5903214Y-10735786D01*
X5731786Y-10907214D01*
X5917500Y-10907214D01*
X6088928Y-10735786D02*
X6060357Y-10721500D01*
X6046071Y-10707214D01*
X6031786Y-10678643D01*
X6031786Y-10664357D01*
X6046071Y-10635786D01*
X6060357Y-10621500D01*
X6088928Y-10607214D01*
X6146071Y-10607214D01*
X6174643Y-10621500D01*
X6188928Y-10635786D01*
X6203214Y-10664357D01*
X6203214Y-10678643D01*
X6188928Y-10707214D01*
X6174643Y-10721500D01*
X6146071Y-10735786D01*
X6088928Y-10735786D01*
X6060357Y-10750072D01*
X6046071Y-10764357D01*
X6031786Y-10792929D01*
X6031786Y-10850072D01*
X6046071Y-10878643D01*
X6060357Y-10892929D01*
X6088928Y-10907214D01*
X6146071Y-10907214D01*
X6174643Y-10892929D01*
X6188928Y-10878643D01*
X6203214Y-10850072D01*
X6203214Y-10792929D01*
X6188928Y-10764357D01*
X6174643Y-10750072D01*
X6146071Y-10735786D01*
X6303214Y-10607214D02*
X6503214Y-10607214D01*
X6374643Y-10907214D01*
X6603214Y-10607214D02*
X6603214Y-10664357D01*
X6717500Y-10607214D02*
X6717500Y-10664357D01*
X7160357Y-11021500D02*
X7146071Y-11007214D01*
X7117500Y-10964357D01*
X7103214Y-10935786D01*
X7088928Y-10892929D01*
X7074643Y-10821500D01*
X7074643Y-10764357D01*
X7088928Y-10692929D01*
X7103214Y-10650072D01*
X7117500Y-10621500D01*
X7146071Y-10578643D01*
X7160357Y-10564357D01*
X7260357Y-10635786D02*
X7274643Y-10621500D01*
X7303214Y-10607214D01*
X7374643Y-10607214D01*
X7403214Y-10621500D01*
X7417500Y-10635786D01*
X7431786Y-10664357D01*
X7431786Y-10692929D01*
X7417500Y-10735786D01*
X7246071Y-10907214D01*
X7431786Y-10907214D01*
X7688928Y-10707214D02*
X7688928Y-10907214D01*
X7617500Y-10592929D02*
X7546071Y-10807214D01*
X7731786Y-10807214D01*
X8074643Y-10907214D02*
X8074643Y-10607214D01*
X8203214Y-10907214D02*
X8203214Y-10750072D01*
X8188928Y-10721500D01*
X8160357Y-10707214D01*
X8117500Y-10707214D01*
X8088928Y-10721500D01*
X8074643Y-10735786D01*
X8388928Y-10907214D02*
X8360357Y-10892929D01*
X8346071Y-10878643D01*
X8331786Y-10850072D01*
X8331786Y-10764357D01*
X8346071Y-10735786D01*
X8360357Y-10721500D01*
X8388928Y-10707214D01*
X8431786Y-10707214D01*
X8460357Y-10721500D01*
X8474643Y-10735786D01*
X8488928Y-10764357D01*
X8488928Y-10850072D01*
X8474643Y-10878643D01*
X8460357Y-10892929D01*
X8431786Y-10907214D01*
X8388928Y-10907214D01*
X8660357Y-10907214D02*
X8631786Y-10892929D01*
X8617500Y-10864357D01*
X8617500Y-10607214D01*
X8888928Y-10892929D02*
X8860357Y-10907214D01*
X8803214Y-10907214D01*
X8774643Y-10892929D01*
X8760357Y-10864357D01*
X8760357Y-10750072D01*
X8774643Y-10721500D01*
X8803214Y-10707214D01*
X8860357Y-10707214D01*
X8888928Y-10721500D01*
X8903214Y-10750072D01*
X8903214Y-10778643D01*
X8760357Y-10807214D01*
X9017500Y-10892929D02*
X9046071Y-10907214D01*
X9103214Y-10907214D01*
X9131786Y-10892929D01*
X9146071Y-10864357D01*
X9146071Y-10850072D01*
X9131786Y-10821500D01*
X9103214Y-10807214D01*
X9060357Y-10807214D01*
X9031786Y-10792929D01*
X9017500Y-10764357D01*
X9017500Y-10750072D01*
X9031786Y-10721500D01*
X9060357Y-10707214D01*
X9103214Y-10707214D01*
X9131786Y-10721500D01*
X9246071Y-11021500D02*
X9260357Y-11007214D01*
X9288928Y-10964357D01*
X9303214Y-10935786D01*
X9317500Y-10892929D01*
X9331786Y-10821500D01*
X9331786Y-10764357D01*
X9317500Y-10692929D01*
X9303214Y-10650072D01*
X9288928Y-10621500D01*
X9260357Y-10578643D01*
X9246071Y-10564357D01*
X1889466Y-11198967D02*
X1889466Y-11136034D01*
X1826533Y-11136034D01*
X1826533Y-11198967D01*
X1889466Y-11198967D01*
X2246071Y-11003214D02*
X2274643Y-11003214D01*
X2303214Y-11017500D01*
X2317500Y-11031786D01*
X2331786Y-11060357D01*
X2346071Y-11117500D01*
X2346071Y-11188929D01*
X2331786Y-11246071D01*
X2317500Y-11274643D01*
X2303214Y-11288929D01*
X2274643Y-11303214D01*
X2246071Y-11303214D01*
X2217500Y-11288929D01*
X2203214Y-11274643D01*
X2188928Y-11246071D01*
X2174643Y-11188929D01*
X2174643Y-11117500D01*
X2188928Y-11060357D01*
X2203214Y-11031786D01*
X2217500Y-11017500D01*
X2246071Y-11003214D01*
X2474643Y-11274643D02*
X2488928Y-11288929D01*
X2474643Y-11303214D01*
X2460357Y-11288929D01*
X2474643Y-11274643D01*
X2474643Y-11303214D01*
X2660357Y-11131786D02*
X2631786Y-11117500D01*
X2617500Y-11103214D01*
X2603214Y-11074643D01*
X2603214Y-11060357D01*
X2617500Y-11031786D01*
X2631786Y-11017500D01*
X2660357Y-11003214D01*
X2717500Y-11003214D01*
X2746071Y-11017500D01*
X2760357Y-11031786D01*
X2774643Y-11060357D01*
X2774643Y-11074643D01*
X2760357Y-11103214D01*
X2746071Y-11117500D01*
X2717500Y-11131786D01*
X2660357Y-11131786D01*
X2631786Y-11146072D01*
X2617500Y-11160357D01*
X2603214Y-11188929D01*
X2603214Y-11246071D01*
X2617500Y-11274643D01*
X2631786Y-11288929D01*
X2660357Y-11303214D01*
X2717500Y-11303214D01*
X2746071Y-11288929D01*
X2760357Y-11274643D01*
X2774643Y-11246071D01*
X2774643Y-11188929D01*
X2760357Y-11160357D01*
X2746071Y-11146072D01*
X2717500Y-11131786D01*
X2917500Y-11303214D02*
X2974643Y-11303214D01*
X3003214Y-11288929D01*
X3017500Y-11274643D01*
X3046071Y-11231786D01*
X3060357Y-11174643D01*
X3060357Y-11060357D01*
X3046071Y-11031786D01*
X3031786Y-11017500D01*
X3003214Y-11003214D01*
X2946071Y-11003214D01*
X2917500Y-11017500D01*
X2903214Y-11031786D01*
X2888928Y-11060357D01*
X2888928Y-11131786D01*
X2903214Y-11160357D01*
X2917500Y-11174643D01*
X2946071Y-11188929D01*
X3003214Y-11188929D01*
X3031786Y-11174643D01*
X3046071Y-11160357D01*
X3060357Y-11131786D01*
X3246071Y-11003214D02*
X3274643Y-11003214D01*
X3303214Y-11017500D01*
X3317500Y-11031786D01*
X3331786Y-11060357D01*
X3346071Y-11117500D01*
X3346071Y-11188929D01*
X3331786Y-11246071D01*
X3317500Y-11274643D01*
X3303214Y-11288929D01*
X3274643Y-11303214D01*
X3246071Y-11303214D01*
X3217500Y-11288929D01*
X3203214Y-11274643D01*
X3188928Y-11246071D01*
X3174643Y-11188929D01*
X3174643Y-11117500D01*
X3188928Y-11060357D01*
X3203214Y-11031786D01*
X3217500Y-11017500D01*
X3246071Y-11003214D01*
X3474643Y-11303214D02*
X3474643Y-11103214D01*
X3474643Y-11131786D02*
X3488928Y-11117500D01*
X3517500Y-11103214D01*
X3560357Y-11103214D01*
X3588928Y-11117500D01*
X3603214Y-11146072D01*
X3603214Y-11303214D01*
X3603214Y-11146072D02*
X3617500Y-11117500D01*
X3646071Y-11103214D01*
X3688928Y-11103214D01*
X3717500Y-11117500D01*
X3731786Y-11146072D01*
X3731786Y-11303214D01*
X3874643Y-11303214D02*
X3874643Y-11103214D01*
X3874643Y-11131786D02*
X3888928Y-11117500D01*
X3917500Y-11103214D01*
X3960357Y-11103214D01*
X3988928Y-11117500D01*
X4003214Y-11146072D01*
X4003214Y-11303214D01*
X4003214Y-11146072D02*
X4017500Y-11117500D01*
X4046071Y-11103214D01*
X4088928Y-11103214D01*
X4117500Y-11117500D01*
X4131786Y-11146072D01*
X4131786Y-11303214D01*
X4717500Y-10988929D02*
X4460357Y-11374643D01*
X5103214Y-11003214D02*
X5131786Y-11003214D01*
X5160357Y-11017500D01*
X5174643Y-11031786D01*
X5188928Y-11060357D01*
X5203214Y-11117500D01*
X5203214Y-11188929D01*
X5188928Y-11246071D01*
X5174643Y-11274643D01*
X5160357Y-11288929D01*
X5131786Y-11303214D01*
X5103214Y-11303214D01*
X5074643Y-11288929D01*
X5060357Y-11274643D01*
X5046071Y-11246071D01*
X5031786Y-11188929D01*
X5031786Y-11117500D01*
X5046071Y-11060357D01*
X5060357Y-11031786D01*
X5074643Y-11017500D01*
X5103214Y-11003214D01*
X5331786Y-11274643D02*
X5346071Y-11288929D01*
X5331786Y-11303214D01*
X5317500Y-11288929D01*
X5331786Y-11274643D01*
X5331786Y-11303214D01*
X5531786Y-11003214D02*
X5560357Y-11003214D01*
X5588928Y-11017500D01*
X5603214Y-11031786D01*
X5617500Y-11060357D01*
X5631786Y-11117500D01*
X5631786Y-11188929D01*
X5617500Y-11246071D01*
X5603214Y-11274643D01*
X5588928Y-11288929D01*
X5560357Y-11303214D01*
X5531786Y-11303214D01*
X5503214Y-11288929D01*
X5488928Y-11274643D01*
X5474643Y-11246071D01*
X5460357Y-11188929D01*
X5460357Y-11117500D01*
X5474643Y-11060357D01*
X5488928Y-11031786D01*
X5503214Y-11017500D01*
X5531786Y-11003214D01*
X5731786Y-11003214D02*
X5917500Y-11003214D01*
X5817500Y-11117500D01*
X5860357Y-11117500D01*
X5888928Y-11131786D01*
X5903214Y-11146072D01*
X5917500Y-11174643D01*
X5917500Y-11246071D01*
X5903214Y-11274643D01*
X5888928Y-11288929D01*
X5860357Y-11303214D01*
X5774643Y-11303214D01*
X5746071Y-11288929D01*
X5731786Y-11274643D01*
X6188928Y-11003214D02*
X6046071Y-11003214D01*
X6031786Y-11146072D01*
X6046071Y-11131786D01*
X6074643Y-11117500D01*
X6146071Y-11117500D01*
X6174643Y-11131786D01*
X6188928Y-11146072D01*
X6203214Y-11174643D01*
X6203214Y-11246071D01*
X6188928Y-11274643D01*
X6174643Y-11288929D01*
X6146071Y-11303214D01*
X6074643Y-11303214D01*
X6046071Y-11288929D01*
X6031786Y-11274643D01*
X6388928Y-11003214D02*
X6417500Y-11003214D01*
X6446071Y-11017500D01*
X6460357Y-11031786D01*
X6474643Y-11060357D01*
X6488928Y-11117500D01*
X6488928Y-11188929D01*
X6474643Y-11246071D01*
X6460357Y-11274643D01*
X6446071Y-11288929D01*
X6417500Y-11303214D01*
X6388928Y-11303214D01*
X6360357Y-11288929D01*
X6346071Y-11274643D01*
X6331786Y-11246071D01*
X6317500Y-11188929D01*
X6317500Y-11117500D01*
X6331786Y-11060357D01*
X6346071Y-11031786D01*
X6360357Y-11017500D01*
X6388928Y-11003214D01*
X6603214Y-11003214D02*
X6603214Y-11060357D01*
X6717500Y-11003214D02*
X6717500Y-11060357D01*
X7160357Y-11417500D02*
X7146071Y-11403214D01*
X7117500Y-11360357D01*
X7103214Y-11331786D01*
X7088928Y-11288929D01*
X7074643Y-11217500D01*
X7074643Y-11160357D01*
X7088928Y-11088929D01*
X7103214Y-11046072D01*
X7117500Y-11017500D01*
X7146071Y-10974643D01*
X7160357Y-10960357D01*
X7317500Y-11131786D02*
X7288928Y-11117500D01*
X7274643Y-11103214D01*
X7260357Y-11074643D01*
X7260357Y-11060357D01*
X7274643Y-11031786D01*
X7288928Y-11017500D01*
X7317500Y-11003214D01*
X7374643Y-11003214D01*
X7403214Y-11017500D01*
X7417500Y-11031786D01*
X7431786Y-11060357D01*
X7431786Y-11074643D01*
X7417500Y-11103214D01*
X7403214Y-11117500D01*
X7374643Y-11131786D01*
X7317500Y-11131786D01*
X7288928Y-11146072D01*
X7274643Y-11160357D01*
X7260357Y-11188929D01*
X7260357Y-11246071D01*
X7274643Y-11274643D01*
X7288928Y-11288929D01*
X7317500Y-11303214D01*
X7374643Y-11303214D01*
X7403214Y-11288929D01*
X7417500Y-11274643D01*
X7431786Y-11246071D01*
X7431786Y-11188929D01*
X7417500Y-11160357D01*
X7403214Y-11146072D01*
X7374643Y-11131786D01*
X7788928Y-11303214D02*
X7788928Y-11003214D01*
X7917500Y-11303214D02*
X7917500Y-11146072D01*
X7903214Y-11117500D01*
X7874643Y-11103214D01*
X7831786Y-11103214D01*
X7803214Y-11117500D01*
X7788928Y-11131786D01*
X8103214Y-11303214D02*
X8074643Y-11288929D01*
X8060357Y-11274643D01*
X8046071Y-11246071D01*
X8046071Y-11160357D01*
X8060357Y-11131786D01*
X8074643Y-11117500D01*
X8103214Y-11103214D01*
X8146071Y-11103214D01*
X8174643Y-11117500D01*
X8188928Y-11131786D01*
X8203214Y-11160357D01*
X8203214Y-11246071D01*
X8188928Y-11274643D01*
X8174643Y-11288929D01*
X8146071Y-11303214D01*
X8103214Y-11303214D01*
X8374643Y-11303214D02*
X8346071Y-11288929D01*
X8331786Y-11260357D01*
X8331786Y-11003214D01*
X8603214Y-11288929D02*
X8574643Y-11303214D01*
X8517500Y-11303214D01*
X8488928Y-11288929D01*
X8474643Y-11260357D01*
X8474643Y-11146072D01*
X8488928Y-11117500D01*
X8517500Y-11103214D01*
X8574643Y-11103214D01*
X8603214Y-11117500D01*
X8617500Y-11146072D01*
X8617500Y-11174643D01*
X8474643Y-11203214D01*
X8731786Y-11288929D02*
X8760357Y-11303214D01*
X8817500Y-11303214D01*
X8846071Y-11288929D01*
X8860357Y-11260357D01*
X8860357Y-11246071D01*
X8846071Y-11217500D01*
X8817500Y-11203214D01*
X8774643Y-11203214D01*
X8746071Y-11188929D01*
X8731786Y-11160357D01*
X8731786Y-11146072D01*
X8746071Y-11117500D01*
X8774643Y-11103214D01*
X8817500Y-11103214D01*
X8846071Y-11117500D01*
X8960357Y-11417500D02*
X8974643Y-11403214D01*
X9003214Y-11360357D01*
X9017500Y-11331786D01*
X9031786Y-11288929D01*
X9046071Y-11217500D01*
X9046071Y-11160357D01*
X9031786Y-11088929D01*
X9017500Y-11046072D01*
X9003214Y-11017500D01*
X8974643Y-10974643D01*
X8960357Y-10960357D01*
X1854000Y-11612000D02*
X1902500Y-11563500D01*
X1854000Y-11515000D01*
X1805500Y-11563500D01*
X1854000Y-11612000D01*
X2246071Y-11399214D02*
X2274643Y-11399214D01*
X2303214Y-11413500D01*
X2317500Y-11427786D01*
X2331786Y-11456357D01*
X2346071Y-11513500D01*
X2346071Y-11584929D01*
X2331786Y-11642071D01*
X2317500Y-11670643D01*
X2303214Y-11684929D01*
X2274643Y-11699214D01*
X2246071Y-11699214D01*
X2217500Y-11684929D01*
X2203214Y-11670643D01*
X2188928Y-11642071D01*
X2174643Y-11584929D01*
X2174643Y-11513500D01*
X2188928Y-11456357D01*
X2203214Y-11427786D01*
X2217500Y-11413500D01*
X2246071Y-11399214D01*
X2474643Y-11670643D02*
X2488928Y-11684929D01*
X2474643Y-11699214D01*
X2460357Y-11684929D01*
X2474643Y-11670643D01*
X2474643Y-11699214D01*
X2631786Y-11699214D02*
X2688928Y-11699214D01*
X2717500Y-11684929D01*
X2731786Y-11670643D01*
X2760357Y-11627786D01*
X2774643Y-11570643D01*
X2774643Y-11456357D01*
X2760357Y-11427786D01*
X2746071Y-11413500D01*
X2717500Y-11399214D01*
X2660357Y-11399214D01*
X2631786Y-11413500D01*
X2617500Y-11427786D01*
X2603214Y-11456357D01*
X2603214Y-11527786D01*
X2617500Y-11556357D01*
X2631786Y-11570643D01*
X2660357Y-11584929D01*
X2717500Y-11584929D01*
X2746071Y-11570643D01*
X2760357Y-11556357D01*
X2774643Y-11527786D01*
X2874643Y-11399214D02*
X3074643Y-11399214D01*
X2946071Y-11699214D01*
X3246071Y-11399214D02*
X3274643Y-11399214D01*
X3303214Y-11413500D01*
X3317500Y-11427786D01*
X3331786Y-11456357D01*
X3346071Y-11513500D01*
X3346071Y-11584929D01*
X3331786Y-11642071D01*
X3317500Y-11670643D01*
X3303214Y-11684929D01*
X3274643Y-11699214D01*
X3246071Y-11699214D01*
X3217500Y-11684929D01*
X3203214Y-11670643D01*
X3188928Y-11642071D01*
X3174643Y-11584929D01*
X3174643Y-11513500D01*
X3188928Y-11456357D01*
X3203214Y-11427786D01*
X3217500Y-11413500D01*
X3246071Y-11399214D01*
X3474643Y-11699214D02*
X3474643Y-11499214D01*
X3474643Y-11527786D02*
X3488928Y-11513500D01*
X3517500Y-11499214D01*
X3560357Y-11499214D01*
X3588928Y-11513500D01*
X3603214Y-11542071D01*
X3603214Y-11699214D01*
X3603214Y-11542071D02*
X3617500Y-11513500D01*
X3646071Y-11499214D01*
X3688928Y-11499214D01*
X3717500Y-11513500D01*
X3731786Y-11542071D01*
X3731786Y-11699214D01*
X3874643Y-11699214D02*
X3874643Y-11499214D01*
X3874643Y-11527786D02*
X3888928Y-11513500D01*
X3917500Y-11499214D01*
X3960357Y-11499214D01*
X3988928Y-11513500D01*
X4003214Y-11542071D01*
X4003214Y-11699214D01*
X4003214Y-11542071D02*
X4017500Y-11513500D01*
X4046071Y-11499214D01*
X4088928Y-11499214D01*
X4117500Y-11513500D01*
X4131786Y-11542071D01*
X4131786Y-11699214D01*
X4717500Y-11384929D02*
X4460357Y-11770643D01*
X5103214Y-11399214D02*
X5131786Y-11399214D01*
X5160357Y-11413500D01*
X5174643Y-11427786D01*
X5188928Y-11456357D01*
X5203214Y-11513500D01*
X5203214Y-11584929D01*
X5188928Y-11642071D01*
X5174643Y-11670643D01*
X5160357Y-11684929D01*
X5131786Y-11699214D01*
X5103214Y-11699214D01*
X5074643Y-11684929D01*
X5060357Y-11670643D01*
X5046071Y-11642071D01*
X5031786Y-11584929D01*
X5031786Y-11513500D01*
X5046071Y-11456357D01*
X5060357Y-11427786D01*
X5074643Y-11413500D01*
X5103214Y-11399214D01*
X5331786Y-11670643D02*
X5346071Y-11684929D01*
X5331786Y-11699214D01*
X5317500Y-11684929D01*
X5331786Y-11670643D01*
X5331786Y-11699214D01*
X5531786Y-11399214D02*
X5560357Y-11399214D01*
X5588928Y-11413500D01*
X5603214Y-11427786D01*
X5617500Y-11456357D01*
X5631786Y-11513500D01*
X5631786Y-11584929D01*
X5617500Y-11642071D01*
X5603214Y-11670643D01*
X5588928Y-11684929D01*
X5560357Y-11699214D01*
X5531786Y-11699214D01*
X5503214Y-11684929D01*
X5488928Y-11670643D01*
X5474643Y-11642071D01*
X5460357Y-11584929D01*
X5460357Y-11513500D01*
X5474643Y-11456357D01*
X5488928Y-11427786D01*
X5503214Y-11413500D01*
X5531786Y-11399214D01*
X5731786Y-11399214D02*
X5917500Y-11399214D01*
X5817500Y-11513500D01*
X5860357Y-11513500D01*
X5888928Y-11527786D01*
X5903214Y-11542071D01*
X5917500Y-11570643D01*
X5917500Y-11642071D01*
X5903214Y-11670643D01*
X5888928Y-11684929D01*
X5860357Y-11699214D01*
X5774643Y-11699214D01*
X5746071Y-11684929D01*
X5731786Y-11670643D01*
X6088928Y-11527786D02*
X6060357Y-11513500D01*
X6046071Y-11499214D01*
X6031786Y-11470643D01*
X6031786Y-11456357D01*
X6046071Y-11427786D01*
X6060357Y-11413500D01*
X6088928Y-11399214D01*
X6146071Y-11399214D01*
X6174643Y-11413500D01*
X6188928Y-11427786D01*
X6203214Y-11456357D01*
X6203214Y-11470643D01*
X6188928Y-11499214D01*
X6174643Y-11513500D01*
X6146071Y-11527786D01*
X6088928Y-11527786D01*
X6060357Y-11542071D01*
X6046071Y-11556357D01*
X6031786Y-11584929D01*
X6031786Y-11642071D01*
X6046071Y-11670643D01*
X6060357Y-11684929D01*
X6088928Y-11699214D01*
X6146071Y-11699214D01*
X6174643Y-11684929D01*
X6188928Y-11670643D01*
X6203214Y-11642071D01*
X6203214Y-11584929D01*
X6188928Y-11556357D01*
X6174643Y-11542071D01*
X6146071Y-11527786D01*
X6317500Y-11427786D02*
X6331786Y-11413500D01*
X6360357Y-11399214D01*
X6431786Y-11399214D01*
X6460357Y-11413500D01*
X6474643Y-11427786D01*
X6488928Y-11456357D01*
X6488928Y-11484929D01*
X6474643Y-11527786D01*
X6303214Y-11699214D01*
X6488928Y-11699214D01*
X6603214Y-11399214D02*
X6603214Y-11456357D01*
X6717500Y-11399214D02*
X6717500Y-11456357D01*
X7160357Y-11813500D02*
X7146071Y-11799214D01*
X7117500Y-11756357D01*
X7103214Y-11727786D01*
X7088928Y-11684929D01*
X7074643Y-11613500D01*
X7074643Y-11556357D01*
X7088928Y-11484929D01*
X7103214Y-11442071D01*
X7117500Y-11413500D01*
X7146071Y-11370643D01*
X7160357Y-11356357D01*
X7403214Y-11399214D02*
X7346071Y-11399214D01*
X7317500Y-11413500D01*
X7303214Y-11427786D01*
X7274643Y-11470643D01*
X7260357Y-11527786D01*
X7260357Y-11642071D01*
X7274643Y-11670643D01*
X7288928Y-11684929D01*
X7317500Y-11699214D01*
X7374643Y-11699214D01*
X7403214Y-11684929D01*
X7417500Y-11670643D01*
X7431786Y-11642071D01*
X7431786Y-11570643D01*
X7417500Y-11542071D01*
X7403214Y-11527786D01*
X7374643Y-11513500D01*
X7317500Y-11513500D01*
X7288928Y-11527786D01*
X7274643Y-11542071D01*
X7260357Y-11570643D01*
X7788928Y-11699214D02*
X7788928Y-11399214D01*
X7917500Y-11699214D02*
X7917500Y-11542071D01*
X7903214Y-11513500D01*
X7874643Y-11499214D01*
X7831786Y-11499214D01*
X7803214Y-11513500D01*
X7788928Y-11527786D01*
X8103214Y-11699214D02*
X8074643Y-11684929D01*
X8060357Y-11670643D01*
X8046071Y-11642071D01*
X8046071Y-11556357D01*
X8060357Y-11527786D01*
X8074643Y-11513500D01*
X8103214Y-11499214D01*
X8146071Y-11499214D01*
X8174643Y-11513500D01*
X8188928Y-11527786D01*
X8203214Y-11556357D01*
X8203214Y-11642071D01*
X8188928Y-11670643D01*
X8174643Y-11684929D01*
X8146071Y-11699214D01*
X8103214Y-11699214D01*
X8374643Y-11699214D02*
X8346071Y-11684929D01*
X8331786Y-11656357D01*
X8331786Y-11399214D01*
X8603214Y-11684929D02*
X8574643Y-11699214D01*
X8517500Y-11699214D01*
X8488928Y-11684929D01*
X8474643Y-11656357D01*
X8474643Y-11542071D01*
X8488928Y-11513500D01*
X8517500Y-11499214D01*
X8574643Y-11499214D01*
X8603214Y-11513500D01*
X8617500Y-11542071D01*
X8617500Y-11570643D01*
X8474643Y-11599214D01*
X8731786Y-11684929D02*
X8760357Y-11699214D01*
X8817500Y-11699214D01*
X8846071Y-11684929D01*
X8860357Y-11656357D01*
X8860357Y-11642071D01*
X8846071Y-11613500D01*
X8817500Y-11599214D01*
X8774643Y-11599214D01*
X8746071Y-11584929D01*
X8731786Y-11556357D01*
X8731786Y-11542071D01*
X8746071Y-11513500D01*
X8774643Y-11499214D01*
X8817500Y-11499214D01*
X8846071Y-11513500D01*
X8960357Y-11813500D02*
X8974643Y-11799214D01*
X9003214Y-11756357D01*
X9017500Y-11727786D01*
X9031786Y-11684929D01*
X9046071Y-11613500D01*
X9046071Y-11556357D01*
X9031786Y-11484929D01*
X9017500Y-11442071D01*
X9003214Y-11413500D01*
X8974643Y-11370643D01*
X8960357Y-11356357D01*
X1802500Y-11909500D02*
X1902500Y-12009500D01*
X1902500Y-11909500D02*
X1802500Y-12009500D01*
X1902500Y-11959500D02*
G75*
G03*
X1902500Y-11959500I-50000J0D01*
G01*
X2346071Y-12095214D02*
X2174643Y-12095214D01*
X2260357Y-12095214D02*
X2260357Y-11795214D01*
X2231786Y-11838071D01*
X2203214Y-11866643D01*
X2174643Y-11880929D01*
X2474643Y-12066643D02*
X2488928Y-12080929D01*
X2474643Y-12095214D01*
X2460357Y-12080929D01*
X2474643Y-12066643D01*
X2474643Y-12095214D01*
X2674643Y-11795214D02*
X2703214Y-11795214D01*
X2731786Y-11809500D01*
X2746071Y-11823786D01*
X2760357Y-11852357D01*
X2774643Y-11909500D01*
X2774643Y-11980929D01*
X2760357Y-12038071D01*
X2746071Y-12066643D01*
X2731786Y-12080929D01*
X2703214Y-12095214D01*
X2674643Y-12095214D01*
X2646071Y-12080929D01*
X2631786Y-12066643D01*
X2617500Y-12038071D01*
X2603214Y-11980929D01*
X2603214Y-11909500D01*
X2617500Y-11852357D01*
X2631786Y-11823786D01*
X2646071Y-11809500D01*
X2674643Y-11795214D01*
X2960357Y-11795214D02*
X2988928Y-11795214D01*
X3017500Y-11809500D01*
X3031786Y-11823786D01*
X3046071Y-11852357D01*
X3060357Y-11909500D01*
X3060357Y-11980929D01*
X3046071Y-12038071D01*
X3031786Y-12066643D01*
X3017500Y-12080929D01*
X2988928Y-12095214D01*
X2960357Y-12095214D01*
X2931786Y-12080929D01*
X2917500Y-12066643D01*
X2903214Y-12038071D01*
X2888928Y-11980929D01*
X2888928Y-11909500D01*
X2903214Y-11852357D01*
X2917500Y-11823786D01*
X2931786Y-11809500D01*
X2960357Y-11795214D01*
X3246071Y-11795214D02*
X3274643Y-11795214D01*
X3303214Y-11809500D01*
X3317500Y-11823786D01*
X3331786Y-11852357D01*
X3346071Y-11909500D01*
X3346071Y-11980929D01*
X3331786Y-12038071D01*
X3317500Y-12066643D01*
X3303214Y-12080929D01*
X3274643Y-12095214D01*
X3246071Y-12095214D01*
X3217500Y-12080929D01*
X3203214Y-12066643D01*
X3188928Y-12038071D01*
X3174643Y-11980929D01*
X3174643Y-11909500D01*
X3188928Y-11852357D01*
X3203214Y-11823786D01*
X3217500Y-11809500D01*
X3246071Y-11795214D01*
X3474643Y-12095214D02*
X3474643Y-11895214D01*
X3474643Y-11923786D02*
X3488928Y-11909500D01*
X3517500Y-11895214D01*
X3560357Y-11895214D01*
X3588928Y-11909500D01*
X3603214Y-11938071D01*
X3603214Y-12095214D01*
X3603214Y-11938071D02*
X3617500Y-11909500D01*
X3646071Y-11895214D01*
X3688928Y-11895214D01*
X3717500Y-11909500D01*
X3731786Y-11938071D01*
X3731786Y-12095214D01*
X3874643Y-12095214D02*
X3874643Y-11895214D01*
X3874643Y-11923786D02*
X3888928Y-11909500D01*
X3917500Y-11895214D01*
X3960357Y-11895214D01*
X3988928Y-11909500D01*
X4003214Y-11938071D01*
X4003214Y-12095214D01*
X4003214Y-11938071D02*
X4017500Y-11909500D01*
X4046071Y-11895214D01*
X4088928Y-11895214D01*
X4117500Y-11909500D01*
X4131786Y-11938071D01*
X4131786Y-12095214D01*
X4717500Y-11780929D02*
X4460357Y-12166643D01*
X5103214Y-11795214D02*
X5131786Y-11795214D01*
X5160357Y-11809500D01*
X5174643Y-11823786D01*
X5188928Y-11852357D01*
X5203214Y-11909500D01*
X5203214Y-11980929D01*
X5188928Y-12038071D01*
X5174643Y-12066643D01*
X5160357Y-12080929D01*
X5131786Y-12095214D01*
X5103214Y-12095214D01*
X5074643Y-12080929D01*
X5060357Y-12066643D01*
X5046071Y-12038071D01*
X5031786Y-11980929D01*
X5031786Y-11909500D01*
X5046071Y-11852357D01*
X5060357Y-11823786D01*
X5074643Y-11809500D01*
X5103214Y-11795214D01*
X5331786Y-12066643D02*
X5346071Y-12080929D01*
X5331786Y-12095214D01*
X5317500Y-12080929D01*
X5331786Y-12066643D01*
X5331786Y-12095214D01*
X5531786Y-11795214D02*
X5560357Y-11795214D01*
X5588928Y-11809500D01*
X5603214Y-11823786D01*
X5617500Y-11852357D01*
X5631786Y-11909500D01*
X5631786Y-11980929D01*
X5617500Y-12038071D01*
X5603214Y-12066643D01*
X5588928Y-12080929D01*
X5560357Y-12095214D01*
X5531786Y-12095214D01*
X5503214Y-12080929D01*
X5488928Y-12066643D01*
X5474643Y-12038071D01*
X5460357Y-11980929D01*
X5460357Y-11909500D01*
X5474643Y-11852357D01*
X5488928Y-11823786D01*
X5503214Y-11809500D01*
X5531786Y-11795214D01*
X5731786Y-11795214D02*
X5917500Y-11795214D01*
X5817500Y-11909500D01*
X5860357Y-11909500D01*
X5888928Y-11923786D01*
X5903214Y-11938071D01*
X5917500Y-11966643D01*
X5917500Y-12038071D01*
X5903214Y-12066643D01*
X5888928Y-12080929D01*
X5860357Y-12095214D01*
X5774643Y-12095214D01*
X5746071Y-12080929D01*
X5731786Y-12066643D01*
X6060357Y-12095214D02*
X6117500Y-12095214D01*
X6146071Y-12080929D01*
X6160357Y-12066643D01*
X6188928Y-12023786D01*
X6203214Y-11966643D01*
X6203214Y-11852357D01*
X6188928Y-11823786D01*
X6174643Y-11809500D01*
X6146071Y-11795214D01*
X6088928Y-11795214D01*
X6060357Y-11809500D01*
X6046071Y-11823786D01*
X6031786Y-11852357D01*
X6031786Y-11923786D01*
X6046071Y-11952357D01*
X6060357Y-11966643D01*
X6088928Y-11980929D01*
X6146071Y-11980929D01*
X6174643Y-11966643D01*
X6188928Y-11952357D01*
X6203214Y-11923786D01*
X6460357Y-11895214D02*
X6460357Y-12095214D01*
X6388928Y-11780929D02*
X6317500Y-11995214D01*
X6503214Y-11995214D01*
X6603214Y-11795214D02*
X6603214Y-11852357D01*
X6717500Y-11795214D02*
X6717500Y-11852357D01*
X7160357Y-12209500D02*
X7146071Y-12195214D01*
X7117500Y-12152357D01*
X7103214Y-12123786D01*
X7088928Y-12080929D01*
X7074643Y-12009500D01*
X7074643Y-11952357D01*
X7088928Y-11880929D01*
X7103214Y-11838071D01*
X7117500Y-11809500D01*
X7146071Y-11766643D01*
X7160357Y-11752357D01*
X7431786Y-12095214D02*
X7260357Y-12095214D01*
X7346071Y-12095214D02*
X7346071Y-11795214D01*
X7317500Y-11838071D01*
X7288928Y-11866643D01*
X7260357Y-11880929D01*
X7531786Y-11795214D02*
X7717500Y-11795214D01*
X7617500Y-11909500D01*
X7660357Y-11909500D01*
X7688928Y-11923786D01*
X7703214Y-11938071D01*
X7717500Y-11966643D01*
X7717500Y-12038071D01*
X7703214Y-12066643D01*
X7688928Y-12080929D01*
X7660357Y-12095214D01*
X7574643Y-12095214D01*
X7546071Y-12080929D01*
X7531786Y-12066643D01*
X8074643Y-12095214D02*
X8074643Y-11795214D01*
X8203214Y-12095214D02*
X8203214Y-11938071D01*
X8188928Y-11909500D01*
X8160357Y-11895214D01*
X8117500Y-11895214D01*
X8088928Y-11909500D01*
X8074643Y-11923786D01*
X8388928Y-12095214D02*
X8360357Y-12080929D01*
X8346071Y-12066643D01*
X8331786Y-12038071D01*
X8331786Y-11952357D01*
X8346071Y-11923786D01*
X8360357Y-11909500D01*
X8388928Y-11895214D01*
X8431786Y-11895214D01*
X8460357Y-11909500D01*
X8474643Y-11923786D01*
X8488928Y-11952357D01*
X8488928Y-12038071D01*
X8474643Y-12066643D01*
X8460357Y-12080929D01*
X8431786Y-12095214D01*
X8388928Y-12095214D01*
X8660357Y-12095214D02*
X8631786Y-12080929D01*
X8617500Y-12052357D01*
X8617500Y-11795214D01*
X8888928Y-12080929D02*
X8860357Y-12095214D01*
X8803214Y-12095214D01*
X8774643Y-12080929D01*
X8760357Y-12052357D01*
X8760357Y-11938071D01*
X8774643Y-11909500D01*
X8803214Y-11895214D01*
X8860357Y-11895214D01*
X8888928Y-11909500D01*
X8903214Y-11938071D01*
X8903214Y-11966643D01*
X8760357Y-11995214D01*
X9017500Y-12080929D02*
X9046071Y-12095214D01*
X9103214Y-12095214D01*
X9131786Y-12080929D01*
X9146071Y-12052357D01*
X9146071Y-12038071D01*
X9131786Y-12009500D01*
X9103214Y-11995214D01*
X9060357Y-11995214D01*
X9031786Y-11980929D01*
X9017500Y-11952357D01*
X9017500Y-11938071D01*
X9031786Y-11909500D01*
X9060357Y-11895214D01*
X9103214Y-11895214D01*
X9131786Y-11909500D01*
X9246071Y-12209500D02*
X9260357Y-12195214D01*
X9288928Y-12152357D01*
X9303214Y-12123786D01*
X9317500Y-12080929D01*
X9331786Y-12009500D01*
X9331786Y-11952357D01*
X9317500Y-11880929D01*
X9303214Y-11838071D01*
X9288928Y-11809500D01*
X9260357Y-11766643D01*
X9246071Y-11752357D01*
X1752500Y-12280500D02*
X1902500Y-12430500D01*
X1902500Y-12280500D02*
X1752500Y-12430500D01*
X1827500Y-12280500D02*
X1827500Y-12430500D01*
X1752500Y-12355500D02*
X1902500Y-12355500D01*
X2346071Y-12491214D02*
X2174643Y-12491214D01*
X2260357Y-12491214D02*
X2260357Y-12191214D01*
X2231786Y-12234071D01*
X2203214Y-12262643D01*
X2174643Y-12276929D01*
X2474643Y-12462643D02*
X2488928Y-12476929D01*
X2474643Y-12491214D01*
X2460357Y-12476929D01*
X2474643Y-12462643D01*
X2474643Y-12491214D01*
X2760357Y-12191214D02*
X2617500Y-12191214D01*
X2603214Y-12334071D01*
X2617500Y-12319786D01*
X2646071Y-12305500D01*
X2717500Y-12305500D01*
X2746071Y-12319786D01*
X2760357Y-12334071D01*
X2774643Y-12362643D01*
X2774643Y-12434071D01*
X2760357Y-12462643D01*
X2746071Y-12476929D01*
X2717500Y-12491214D01*
X2646071Y-12491214D01*
X2617500Y-12476929D01*
X2603214Y-12462643D01*
X2960357Y-12191214D02*
X2988928Y-12191214D01*
X3017500Y-12205500D01*
X3031786Y-12219786D01*
X3046071Y-12248357D01*
X3060357Y-12305500D01*
X3060357Y-12376929D01*
X3046071Y-12434071D01*
X3031786Y-12462643D01*
X3017500Y-12476929D01*
X2988928Y-12491214D01*
X2960357Y-12491214D01*
X2931786Y-12476929D01*
X2917500Y-12462643D01*
X2903214Y-12434071D01*
X2888928Y-12376929D01*
X2888928Y-12305500D01*
X2903214Y-12248357D01*
X2917500Y-12219786D01*
X2931786Y-12205500D01*
X2960357Y-12191214D01*
X3246071Y-12191214D02*
X3274643Y-12191214D01*
X3303214Y-12205500D01*
X3317500Y-12219786D01*
X3331786Y-12248357D01*
X3346071Y-12305500D01*
X3346071Y-12376929D01*
X3331786Y-12434071D01*
X3317500Y-12462643D01*
X3303214Y-12476929D01*
X3274643Y-12491214D01*
X3246071Y-12491214D01*
X3217500Y-12476929D01*
X3203214Y-12462643D01*
X3188928Y-12434071D01*
X3174643Y-12376929D01*
X3174643Y-12305500D01*
X3188928Y-12248357D01*
X3203214Y-12219786D01*
X3217500Y-12205500D01*
X3246071Y-12191214D01*
X3474643Y-12491214D02*
X3474643Y-12291214D01*
X3474643Y-12319786D02*
X3488928Y-12305500D01*
X3517500Y-12291214D01*
X3560357Y-12291214D01*
X3588928Y-12305500D01*
X3603214Y-12334071D01*
X3603214Y-12491214D01*
X3603214Y-12334071D02*
X3617500Y-12305500D01*
X3646071Y-12291214D01*
X3688928Y-12291214D01*
X3717500Y-12305500D01*
X3731786Y-12334071D01*
X3731786Y-12491214D01*
X3874643Y-12491214D02*
X3874643Y-12291214D01*
X3874643Y-12319786D02*
X3888928Y-12305500D01*
X3917500Y-12291214D01*
X3960357Y-12291214D01*
X3988928Y-12305500D01*
X4003214Y-12334071D01*
X4003214Y-12491214D01*
X4003214Y-12334071D02*
X4017500Y-12305500D01*
X4046071Y-12291214D01*
X4088928Y-12291214D01*
X4117500Y-12305500D01*
X4131786Y-12334071D01*
X4131786Y-12491214D01*
X4717500Y-12176929D02*
X4460357Y-12562643D01*
X5103214Y-12191214D02*
X5131786Y-12191214D01*
X5160357Y-12205500D01*
X5174643Y-12219786D01*
X5188928Y-12248357D01*
X5203214Y-12305500D01*
X5203214Y-12376929D01*
X5188928Y-12434071D01*
X5174643Y-12462643D01*
X5160357Y-12476929D01*
X5131786Y-12491214D01*
X5103214Y-12491214D01*
X5074643Y-12476929D01*
X5060357Y-12462643D01*
X5046071Y-12434071D01*
X5031786Y-12376929D01*
X5031786Y-12305500D01*
X5046071Y-12248357D01*
X5060357Y-12219786D01*
X5074643Y-12205500D01*
X5103214Y-12191214D01*
X5331786Y-12462643D02*
X5346071Y-12476929D01*
X5331786Y-12491214D01*
X5317500Y-12476929D01*
X5331786Y-12462643D01*
X5331786Y-12491214D01*
X5531786Y-12191214D02*
X5560357Y-12191214D01*
X5588928Y-12205500D01*
X5603214Y-12219786D01*
X5617500Y-12248357D01*
X5631786Y-12305500D01*
X5631786Y-12376929D01*
X5617500Y-12434071D01*
X5603214Y-12462643D01*
X5588928Y-12476929D01*
X5560357Y-12491214D01*
X5531786Y-12491214D01*
X5503214Y-12476929D01*
X5488928Y-12462643D01*
X5474643Y-12434071D01*
X5460357Y-12376929D01*
X5460357Y-12305500D01*
X5474643Y-12248357D01*
X5488928Y-12219786D01*
X5503214Y-12205500D01*
X5531786Y-12191214D01*
X5903214Y-12191214D02*
X5760357Y-12191214D01*
X5746071Y-12334071D01*
X5760357Y-12319786D01*
X5788928Y-12305500D01*
X5860357Y-12305500D01*
X5888928Y-12319786D01*
X5903214Y-12334071D01*
X5917500Y-12362643D01*
X5917500Y-12434071D01*
X5903214Y-12462643D01*
X5888928Y-12476929D01*
X5860357Y-12491214D01*
X5788928Y-12491214D01*
X5760357Y-12476929D01*
X5746071Y-12462643D01*
X6060357Y-12491214D02*
X6117500Y-12491214D01*
X6146071Y-12476929D01*
X6160357Y-12462643D01*
X6188928Y-12419786D01*
X6203214Y-12362643D01*
X6203214Y-12248357D01*
X6188928Y-12219786D01*
X6174643Y-12205500D01*
X6146071Y-12191214D01*
X6088928Y-12191214D01*
X6060357Y-12205500D01*
X6046071Y-12219786D01*
X6031786Y-12248357D01*
X6031786Y-12319786D01*
X6046071Y-12348357D01*
X6060357Y-12362643D01*
X6088928Y-12376929D01*
X6146071Y-12376929D01*
X6174643Y-12362643D01*
X6188928Y-12348357D01*
X6203214Y-12319786D01*
X6488928Y-12491214D02*
X6317500Y-12491214D01*
X6403214Y-12491214D02*
X6403214Y-12191214D01*
X6374643Y-12234071D01*
X6346071Y-12262643D01*
X6317500Y-12276929D01*
X6603214Y-12191214D02*
X6603214Y-12248357D01*
X6717500Y-12191214D02*
X6717500Y-12248357D01*
X7160357Y-12605500D02*
X7146071Y-12591214D01*
X7117500Y-12548357D01*
X7103214Y-12519786D01*
X7088928Y-12476929D01*
X7074643Y-12405500D01*
X7074643Y-12348357D01*
X7088928Y-12276929D01*
X7103214Y-12234071D01*
X7117500Y-12205500D01*
X7146071Y-12162643D01*
X7160357Y-12148357D01*
X7260357Y-12219786D02*
X7274643Y-12205500D01*
X7303214Y-12191214D01*
X7374643Y-12191214D01*
X7403214Y-12205500D01*
X7417500Y-12219786D01*
X7431786Y-12248357D01*
X7431786Y-12276929D01*
X7417500Y-12319786D01*
X7246071Y-12491214D01*
X7431786Y-12491214D01*
X7688928Y-12191214D02*
X7631786Y-12191214D01*
X7603214Y-12205500D01*
X7588928Y-12219786D01*
X7560357Y-12262643D01*
X7546071Y-12319786D01*
X7546071Y-12434071D01*
X7560357Y-12462643D01*
X7574643Y-12476929D01*
X7603214Y-12491214D01*
X7660357Y-12491214D01*
X7688928Y-12476929D01*
X7703214Y-12462643D01*
X7717500Y-12434071D01*
X7717500Y-12362643D01*
X7703214Y-12334071D01*
X7688928Y-12319786D01*
X7660357Y-12305500D01*
X7603214Y-12305500D01*
X7574643Y-12319786D01*
X7560357Y-12334071D01*
X7546071Y-12362643D01*
X8074643Y-12491214D02*
X8074643Y-12191214D01*
X8203214Y-12491214D02*
X8203214Y-12334071D01*
X8188928Y-12305500D01*
X8160357Y-12291214D01*
X8117500Y-12291214D01*
X8088928Y-12305500D01*
X8074643Y-12319786D01*
X8388928Y-12491214D02*
X8360357Y-12476929D01*
X8346071Y-12462643D01*
X8331786Y-12434071D01*
X8331786Y-12348357D01*
X8346071Y-12319786D01*
X8360357Y-12305500D01*
X8388928Y-12291214D01*
X8431786Y-12291214D01*
X8460357Y-12305500D01*
X8474643Y-12319786D01*
X8488928Y-12348357D01*
X8488928Y-12434071D01*
X8474643Y-12462643D01*
X8460357Y-12476929D01*
X8431786Y-12491214D01*
X8388928Y-12491214D01*
X8660357Y-12491214D02*
X8631786Y-12476929D01*
X8617500Y-12448357D01*
X8617500Y-12191214D01*
X8888928Y-12476929D02*
X8860357Y-12491214D01*
X8803214Y-12491214D01*
X8774643Y-12476929D01*
X8760357Y-12448357D01*
X8760357Y-12334071D01*
X8774643Y-12305500D01*
X8803214Y-12291214D01*
X8860357Y-12291214D01*
X8888928Y-12305500D01*
X8903214Y-12334071D01*
X8903214Y-12362643D01*
X8760357Y-12391214D01*
X9017500Y-12476929D02*
X9046071Y-12491214D01*
X9103214Y-12491214D01*
X9131786Y-12476929D01*
X9146071Y-12448357D01*
X9146071Y-12434071D01*
X9131786Y-12405500D01*
X9103214Y-12391214D01*
X9060357Y-12391214D01*
X9031786Y-12376929D01*
X9017500Y-12348357D01*
X9017500Y-12334071D01*
X9031786Y-12305500D01*
X9060357Y-12291214D01*
X9103214Y-12291214D01*
X9131786Y-12305500D01*
X9246071Y-12605500D02*
X9260357Y-12591214D01*
X9288928Y-12548357D01*
X9303214Y-12519786D01*
X9317500Y-12476929D01*
X9331786Y-12405500D01*
X9331786Y-12348357D01*
X9317500Y-12276929D01*
X9303214Y-12234071D01*
X9288928Y-12205500D01*
X9260357Y-12162643D01*
X9246071Y-12148357D01*
X1702500Y-12651500D02*
X1902500Y-12851500D01*
X1902500Y-12651500D02*
X1702500Y-12851500D01*
X1873211Y-12822211D02*
X1873211Y-12680789D01*
X1731788Y-12680789D01*
X1731788Y-12822211D01*
X1873211Y-12822211D01*
X2174643Y-12615786D02*
X2188928Y-12601500D01*
X2217500Y-12587214D01*
X2288928Y-12587214D01*
X2317500Y-12601500D01*
X2331786Y-12615786D01*
X2346071Y-12644357D01*
X2346071Y-12672929D01*
X2331786Y-12715786D01*
X2160357Y-12887214D01*
X2346071Y-12887214D01*
X2474643Y-12858643D02*
X2488928Y-12872929D01*
X2474643Y-12887214D01*
X2460357Y-12872929D01*
X2474643Y-12858643D01*
X2474643Y-12887214D01*
X2674643Y-12587214D02*
X2703214Y-12587214D01*
X2731786Y-12601500D01*
X2746071Y-12615786D01*
X2760357Y-12644357D01*
X2774643Y-12701500D01*
X2774643Y-12772929D01*
X2760357Y-12830071D01*
X2746071Y-12858643D01*
X2731786Y-12872929D01*
X2703214Y-12887214D01*
X2674643Y-12887214D01*
X2646071Y-12872929D01*
X2631786Y-12858643D01*
X2617500Y-12830071D01*
X2603214Y-12772929D01*
X2603214Y-12701500D01*
X2617500Y-12644357D01*
X2631786Y-12615786D01*
X2646071Y-12601500D01*
X2674643Y-12587214D01*
X2960357Y-12587214D02*
X2988928Y-12587214D01*
X3017500Y-12601500D01*
X3031786Y-12615786D01*
X3046071Y-12644357D01*
X3060357Y-12701500D01*
X3060357Y-12772929D01*
X3046071Y-12830071D01*
X3031786Y-12858643D01*
X3017500Y-12872929D01*
X2988928Y-12887214D01*
X2960357Y-12887214D01*
X2931786Y-12872929D01*
X2917500Y-12858643D01*
X2903214Y-12830071D01*
X2888928Y-12772929D01*
X2888928Y-12701500D01*
X2903214Y-12644357D01*
X2917500Y-12615786D01*
X2931786Y-12601500D01*
X2960357Y-12587214D01*
X3246071Y-12587214D02*
X3274643Y-12587214D01*
X3303214Y-12601500D01*
X3317500Y-12615786D01*
X3331786Y-12644357D01*
X3346071Y-12701500D01*
X3346071Y-12772929D01*
X3331786Y-12830071D01*
X3317500Y-12858643D01*
X3303214Y-12872929D01*
X3274643Y-12887214D01*
X3246071Y-12887214D01*
X3217500Y-12872929D01*
X3203214Y-12858643D01*
X3188928Y-12830071D01*
X3174643Y-12772929D01*
X3174643Y-12701500D01*
X3188928Y-12644357D01*
X3203214Y-12615786D01*
X3217500Y-12601500D01*
X3246071Y-12587214D01*
X3474643Y-12887214D02*
X3474643Y-12687214D01*
X3474643Y-12715786D02*
X3488928Y-12701500D01*
X3517500Y-12687214D01*
X3560357Y-12687214D01*
X3588928Y-12701500D01*
X3603214Y-12730071D01*
X3603214Y-12887214D01*
X3603214Y-12730071D02*
X3617500Y-12701500D01*
X3646071Y-12687214D01*
X3688928Y-12687214D01*
X3717500Y-12701500D01*
X3731786Y-12730071D01*
X3731786Y-12887214D01*
X3874643Y-12887214D02*
X3874643Y-12687214D01*
X3874643Y-12715786D02*
X3888928Y-12701500D01*
X3917500Y-12687214D01*
X3960357Y-12687214D01*
X3988928Y-12701500D01*
X4003214Y-12730071D01*
X4003214Y-12887214D01*
X4003214Y-12730071D02*
X4017500Y-12701500D01*
X4046071Y-12687214D01*
X4088928Y-12687214D01*
X4117500Y-12701500D01*
X4131786Y-12730071D01*
X4131786Y-12887214D01*
X4717500Y-12572929D02*
X4460357Y-12958643D01*
X5103214Y-12587214D02*
X5131786Y-12587214D01*
X5160357Y-12601500D01*
X5174643Y-12615786D01*
X5188928Y-12644357D01*
X5203214Y-12701500D01*
X5203214Y-12772929D01*
X5188928Y-12830071D01*
X5174643Y-12858643D01*
X5160357Y-12872929D01*
X5131786Y-12887214D01*
X5103214Y-12887214D01*
X5074643Y-12872929D01*
X5060357Y-12858643D01*
X5046071Y-12830071D01*
X5031786Y-12772929D01*
X5031786Y-12701500D01*
X5046071Y-12644357D01*
X5060357Y-12615786D01*
X5074643Y-12601500D01*
X5103214Y-12587214D01*
X5331786Y-12858643D02*
X5346071Y-12872929D01*
X5331786Y-12887214D01*
X5317500Y-12872929D01*
X5331786Y-12858643D01*
X5331786Y-12887214D01*
X5531786Y-12587214D02*
X5560357Y-12587214D01*
X5588928Y-12601500D01*
X5603214Y-12615786D01*
X5617500Y-12644357D01*
X5631786Y-12701500D01*
X5631786Y-12772929D01*
X5617500Y-12830071D01*
X5603214Y-12858643D01*
X5588928Y-12872929D01*
X5560357Y-12887214D01*
X5531786Y-12887214D01*
X5503214Y-12872929D01*
X5488928Y-12858643D01*
X5474643Y-12830071D01*
X5460357Y-12772929D01*
X5460357Y-12701500D01*
X5474643Y-12644357D01*
X5488928Y-12615786D01*
X5503214Y-12601500D01*
X5531786Y-12587214D01*
X5731786Y-12587214D02*
X5931786Y-12587214D01*
X5803214Y-12887214D01*
X6088928Y-12715786D02*
X6060357Y-12701500D01*
X6046071Y-12687214D01*
X6031786Y-12658643D01*
X6031786Y-12644357D01*
X6046071Y-12615786D01*
X6060357Y-12601500D01*
X6088928Y-12587214D01*
X6146071Y-12587214D01*
X6174643Y-12601500D01*
X6188928Y-12615786D01*
X6203214Y-12644357D01*
X6203214Y-12658643D01*
X6188928Y-12687214D01*
X6174643Y-12701500D01*
X6146071Y-12715786D01*
X6088928Y-12715786D01*
X6060357Y-12730071D01*
X6046071Y-12744357D01*
X6031786Y-12772929D01*
X6031786Y-12830071D01*
X6046071Y-12858643D01*
X6060357Y-12872929D01*
X6088928Y-12887214D01*
X6146071Y-12887214D01*
X6174643Y-12872929D01*
X6188928Y-12858643D01*
X6203214Y-12830071D01*
X6203214Y-12772929D01*
X6188928Y-12744357D01*
X6174643Y-12730071D01*
X6146071Y-12715786D01*
X6303214Y-12587214D02*
X6503214Y-12587214D01*
X6374643Y-12887214D01*
X6603214Y-12587214D02*
X6603214Y-12644357D01*
X6717500Y-12587214D02*
X6717500Y-12644357D01*
X7160357Y-13001500D02*
X7146071Y-12987214D01*
X7117500Y-12944357D01*
X7103214Y-12915786D01*
X7088928Y-12872929D01*
X7074643Y-12801500D01*
X7074643Y-12744357D01*
X7088928Y-12672929D01*
X7103214Y-12630071D01*
X7117500Y-12601500D01*
X7146071Y-12558643D01*
X7160357Y-12544357D01*
X7260357Y-12615786D02*
X7274643Y-12601500D01*
X7303214Y-12587214D01*
X7374643Y-12587214D01*
X7403214Y-12601500D01*
X7417500Y-12615786D01*
X7431786Y-12644357D01*
X7431786Y-12672929D01*
X7417500Y-12715786D01*
X7246071Y-12887214D01*
X7431786Y-12887214D01*
X7788928Y-12887214D02*
X7788928Y-12587214D01*
X7917500Y-12887214D02*
X7917500Y-12730071D01*
X7903214Y-12701500D01*
X7874643Y-12687214D01*
X7831786Y-12687214D01*
X7803214Y-12701500D01*
X7788928Y-12715786D01*
X8103214Y-12887214D02*
X8074643Y-12872929D01*
X8060357Y-12858643D01*
X8046071Y-12830071D01*
X8046071Y-12744357D01*
X8060357Y-12715786D01*
X8074643Y-12701500D01*
X8103214Y-12687214D01*
X8146071Y-12687214D01*
X8174643Y-12701500D01*
X8188928Y-12715786D01*
X8203214Y-12744357D01*
X8203214Y-12830071D01*
X8188928Y-12858643D01*
X8174643Y-12872929D01*
X8146071Y-12887214D01*
X8103214Y-12887214D01*
X8374643Y-12887214D02*
X8346071Y-12872929D01*
X8331786Y-12844357D01*
X8331786Y-12587214D01*
X8603214Y-12872929D02*
X8574643Y-12887214D01*
X8517500Y-12887214D01*
X8488928Y-12872929D01*
X8474643Y-12844357D01*
X8474643Y-12730071D01*
X8488928Y-12701500D01*
X8517500Y-12687214D01*
X8574643Y-12687214D01*
X8603214Y-12701500D01*
X8617500Y-12730071D01*
X8617500Y-12758643D01*
X8474643Y-12787214D01*
X8731786Y-12872929D02*
X8760357Y-12887214D01*
X8817500Y-12887214D01*
X8846071Y-12872929D01*
X8860357Y-12844357D01*
X8860357Y-12830071D01*
X8846071Y-12801500D01*
X8817500Y-12787214D01*
X8774643Y-12787214D01*
X8746071Y-12772929D01*
X8731786Y-12744357D01*
X8731786Y-12730071D01*
X8746071Y-12701500D01*
X8774643Y-12687214D01*
X8817500Y-12687214D01*
X8846071Y-12701500D01*
X8960357Y-13001500D02*
X8974643Y-12987214D01*
X9003214Y-12944357D01*
X9017500Y-12915786D01*
X9031786Y-12872929D01*
X9046071Y-12801500D01*
X9046071Y-12744357D01*
X9031786Y-12672929D01*
X9017500Y-12630071D01*
X9003214Y-12601500D01*
X8974643Y-12558643D01*
X8960357Y-12544357D01*
X1673500Y-13033000D02*
X1902500Y-13262000D01*
X1902500Y-13033000D02*
X1673500Y-13262000D01*
X1788000Y-13262000D02*
X1902500Y-13147500D01*
X1788000Y-13033000D01*
X1673500Y-13147500D01*
X1788000Y-13262000D01*
X2174643Y-13011786D02*
X2188928Y-12997500D01*
X2217500Y-12983214D01*
X2288928Y-12983214D01*
X2317500Y-12997500D01*
X2331786Y-13011786D01*
X2346071Y-13040357D01*
X2346071Y-13068929D01*
X2331786Y-13111786D01*
X2160357Y-13283214D01*
X2346071Y-13283214D01*
X2474643Y-13254643D02*
X2488928Y-13268929D01*
X2474643Y-13283214D01*
X2460357Y-13268929D01*
X2474643Y-13254643D01*
X2474643Y-13283214D01*
X2603214Y-13011786D02*
X2617500Y-12997500D01*
X2646071Y-12983214D01*
X2717500Y-12983214D01*
X2746071Y-12997500D01*
X2760357Y-13011786D01*
X2774643Y-13040357D01*
X2774643Y-13068929D01*
X2760357Y-13111786D01*
X2588928Y-13283214D01*
X2774643Y-13283214D01*
X2917500Y-13283214D02*
X2974643Y-13283214D01*
X3003214Y-13268929D01*
X3017500Y-13254643D01*
X3046071Y-13211786D01*
X3060357Y-13154643D01*
X3060357Y-13040357D01*
X3046071Y-13011786D01*
X3031786Y-12997500D01*
X3003214Y-12983214D01*
X2946071Y-12983214D01*
X2917500Y-12997500D01*
X2903214Y-13011786D01*
X2888928Y-13040357D01*
X2888928Y-13111786D01*
X2903214Y-13140357D01*
X2917500Y-13154643D01*
X2946071Y-13168929D01*
X3003214Y-13168929D01*
X3031786Y-13154643D01*
X3046071Y-13140357D01*
X3060357Y-13111786D01*
X3246071Y-12983214D02*
X3274643Y-12983214D01*
X3303214Y-12997500D01*
X3317500Y-13011786D01*
X3331786Y-13040357D01*
X3346071Y-13097500D01*
X3346071Y-13168929D01*
X3331786Y-13226071D01*
X3317500Y-13254643D01*
X3303214Y-13268929D01*
X3274643Y-13283214D01*
X3246071Y-13283214D01*
X3217500Y-13268929D01*
X3203214Y-13254643D01*
X3188928Y-13226071D01*
X3174643Y-13168929D01*
X3174643Y-13097500D01*
X3188928Y-13040357D01*
X3203214Y-13011786D01*
X3217500Y-12997500D01*
X3246071Y-12983214D01*
X3474643Y-13283214D02*
X3474643Y-13083214D01*
X3474643Y-13111786D02*
X3488928Y-13097500D01*
X3517500Y-13083214D01*
X3560357Y-13083214D01*
X3588928Y-13097500D01*
X3603214Y-13126071D01*
X3603214Y-13283214D01*
X3603214Y-13126071D02*
X3617500Y-13097500D01*
X3646071Y-13083214D01*
X3688928Y-13083214D01*
X3717500Y-13097500D01*
X3731786Y-13126071D01*
X3731786Y-13283214D01*
X3874643Y-13283214D02*
X3874643Y-13083214D01*
X3874643Y-13111786D02*
X3888928Y-13097500D01*
X3917500Y-13083214D01*
X3960357Y-13083214D01*
X3988928Y-13097500D01*
X4003214Y-13126071D01*
X4003214Y-13283214D01*
X4003214Y-13126071D02*
X4017500Y-13097500D01*
X4046071Y-13083214D01*
X4088928Y-13083214D01*
X4117500Y-13097500D01*
X4131786Y-13126071D01*
X4131786Y-13283214D01*
X4717500Y-12968929D02*
X4460357Y-13354643D01*
X5103214Y-12983214D02*
X5131786Y-12983214D01*
X5160357Y-12997500D01*
X5174643Y-13011786D01*
X5188928Y-13040357D01*
X5203214Y-13097500D01*
X5203214Y-13168929D01*
X5188928Y-13226071D01*
X5174643Y-13254643D01*
X5160357Y-13268929D01*
X5131786Y-13283214D01*
X5103214Y-13283214D01*
X5074643Y-13268929D01*
X5060357Y-13254643D01*
X5046071Y-13226071D01*
X5031786Y-13168929D01*
X5031786Y-13097500D01*
X5046071Y-13040357D01*
X5060357Y-13011786D01*
X5074643Y-12997500D01*
X5103214Y-12983214D01*
X5331786Y-13254643D02*
X5346071Y-13268929D01*
X5331786Y-13283214D01*
X5317500Y-13268929D01*
X5331786Y-13254643D01*
X5331786Y-13283214D01*
X5531786Y-12983214D02*
X5560357Y-12983214D01*
X5588928Y-12997500D01*
X5603214Y-13011786D01*
X5617500Y-13040357D01*
X5631786Y-13097500D01*
X5631786Y-13168929D01*
X5617500Y-13226071D01*
X5603214Y-13254643D01*
X5588928Y-13268929D01*
X5560357Y-13283214D01*
X5531786Y-13283214D01*
X5503214Y-13268929D01*
X5488928Y-13254643D01*
X5474643Y-13226071D01*
X5460357Y-13168929D01*
X5460357Y-13097500D01*
X5474643Y-13040357D01*
X5488928Y-13011786D01*
X5503214Y-12997500D01*
X5531786Y-12983214D01*
X5774643Y-13283214D02*
X5831786Y-13283214D01*
X5860357Y-13268929D01*
X5874643Y-13254643D01*
X5903214Y-13211786D01*
X5917500Y-13154643D01*
X5917500Y-13040357D01*
X5903214Y-13011786D01*
X5888928Y-12997500D01*
X5860357Y-12983214D01*
X5803214Y-12983214D01*
X5774643Y-12997500D01*
X5760357Y-13011786D01*
X5746071Y-13040357D01*
X5746071Y-13111786D01*
X5760357Y-13140357D01*
X5774643Y-13154643D01*
X5803214Y-13168929D01*
X5860357Y-13168929D01*
X5888928Y-13154643D01*
X5903214Y-13140357D01*
X5917500Y-13111786D01*
X6103214Y-12983214D02*
X6131786Y-12983214D01*
X6160357Y-12997500D01*
X6174643Y-13011786D01*
X6188928Y-13040357D01*
X6203214Y-13097500D01*
X6203214Y-13168929D01*
X6188928Y-13226071D01*
X6174643Y-13254643D01*
X6160357Y-13268929D01*
X6131786Y-13283214D01*
X6103214Y-13283214D01*
X6074643Y-13268929D01*
X6060357Y-13254643D01*
X6046071Y-13226071D01*
X6031786Y-13168929D01*
X6031786Y-13097500D01*
X6046071Y-13040357D01*
X6060357Y-13011786D01*
X6074643Y-12997500D01*
X6103214Y-12983214D01*
X6317500Y-13011786D02*
X6331786Y-12997500D01*
X6360357Y-12983214D01*
X6431786Y-12983214D01*
X6460357Y-12997500D01*
X6474643Y-13011786D01*
X6488928Y-13040357D01*
X6488928Y-13068929D01*
X6474643Y-13111786D01*
X6303214Y-13283214D01*
X6488928Y-13283214D01*
X6603214Y-12983214D02*
X6603214Y-13040357D01*
X6717500Y-12983214D02*
X6717500Y-13040357D01*
X7160357Y-13397500D02*
X7146071Y-13383214D01*
X7117500Y-13340357D01*
X7103214Y-13311786D01*
X7088928Y-13268929D01*
X7074643Y-13197500D01*
X7074643Y-13140357D01*
X7088928Y-13068929D01*
X7103214Y-13026071D01*
X7117500Y-12997500D01*
X7146071Y-12954643D01*
X7160357Y-12940357D01*
X7246071Y-12983214D02*
X7431786Y-12983214D01*
X7331786Y-13097500D01*
X7374643Y-13097500D01*
X7403214Y-13111786D01*
X7417500Y-13126071D01*
X7431786Y-13154643D01*
X7431786Y-13226071D01*
X7417500Y-13254643D01*
X7403214Y-13268929D01*
X7374643Y-13283214D01*
X7288928Y-13283214D01*
X7260357Y-13268929D01*
X7246071Y-13254643D01*
X7788928Y-13283214D02*
X7788928Y-12983214D01*
X7917500Y-13283214D02*
X7917500Y-13126071D01*
X7903214Y-13097500D01*
X7874643Y-13083214D01*
X7831786Y-13083214D01*
X7803214Y-13097500D01*
X7788928Y-13111786D01*
X8103214Y-13283214D02*
X8074643Y-13268929D01*
X8060357Y-13254643D01*
X8046071Y-13226071D01*
X8046071Y-13140357D01*
X8060357Y-13111786D01*
X8074643Y-13097500D01*
X8103214Y-13083214D01*
X8146071Y-13083214D01*
X8174643Y-13097500D01*
X8188928Y-13111786D01*
X8203214Y-13140357D01*
X8203214Y-13226071D01*
X8188928Y-13254643D01*
X8174643Y-13268929D01*
X8146071Y-13283214D01*
X8103214Y-13283214D01*
X8374643Y-13283214D02*
X8346071Y-13268929D01*
X8331786Y-13240357D01*
X8331786Y-12983214D01*
X8603214Y-13268929D02*
X8574643Y-13283214D01*
X8517500Y-13283214D01*
X8488928Y-13268929D01*
X8474643Y-13240357D01*
X8474643Y-13126071D01*
X8488928Y-13097500D01*
X8517500Y-13083214D01*
X8574643Y-13083214D01*
X8603214Y-13097500D01*
X8617500Y-13126071D01*
X8617500Y-13154643D01*
X8474643Y-13183214D01*
X8731786Y-13268929D02*
X8760357Y-13283214D01*
X8817500Y-13283214D01*
X8846071Y-13268929D01*
X8860357Y-13240357D01*
X8860357Y-13226071D01*
X8846071Y-13197500D01*
X8817500Y-13183214D01*
X8774643Y-13183214D01*
X8746071Y-13168929D01*
X8731786Y-13140357D01*
X8731786Y-13126071D01*
X8746071Y-13097500D01*
X8774643Y-13083214D01*
X8817500Y-13083214D01*
X8846071Y-13097500D01*
X8960357Y-13397500D02*
X8974643Y-13383214D01*
X9003214Y-13340357D01*
X9017500Y-13311786D01*
X9031786Y-13268929D01*
X9046071Y-13197500D01*
X9046071Y-13140357D01*
X9031786Y-13068929D01*
X9017500Y-13026071D01*
X9003214Y-12997500D01*
X8974643Y-12954643D01*
X8960357Y-12940357D01*
X1784000Y-13425000D02*
X1784000Y-13662000D01*
X1665500Y-13543500D02*
X1902500Y-13543500D01*
X1902500Y-13543500D02*
G75*
G03*
X1902500Y-13543500I-118500J0D01*
G01*
X2174643Y-13407786D02*
X2188928Y-13393500D01*
X2217500Y-13379214D01*
X2288928Y-13379214D01*
X2317500Y-13393500D01*
X2331786Y-13407786D01*
X2346071Y-13436357D01*
X2346071Y-13464929D01*
X2331786Y-13507786D01*
X2160357Y-13679214D01*
X2346071Y-13679214D01*
X2474643Y-13650643D02*
X2488928Y-13664929D01*
X2474643Y-13679214D01*
X2460357Y-13664929D01*
X2474643Y-13650643D01*
X2474643Y-13679214D01*
X2588928Y-13379214D02*
X2774643Y-13379214D01*
X2674643Y-13493500D01*
X2717500Y-13493500D01*
X2746071Y-13507786D01*
X2760357Y-13522071D01*
X2774643Y-13550643D01*
X2774643Y-13622071D01*
X2760357Y-13650643D01*
X2746071Y-13664929D01*
X2717500Y-13679214D01*
X2631786Y-13679214D01*
X2603214Y-13664929D01*
X2588928Y-13650643D01*
X2874643Y-13379214D02*
X3074643Y-13379214D01*
X2946071Y-13679214D01*
X3246071Y-13379214D02*
X3274643Y-13379214D01*
X3303214Y-13393500D01*
X3317500Y-13407786D01*
X3331786Y-13436357D01*
X3346071Y-13493500D01*
X3346071Y-13564929D01*
X3331786Y-13622071D01*
X3317500Y-13650643D01*
X3303214Y-13664929D01*
X3274643Y-13679214D01*
X3246071Y-13679214D01*
X3217500Y-13664929D01*
X3203214Y-13650643D01*
X3188928Y-13622071D01*
X3174643Y-13564929D01*
X3174643Y-13493500D01*
X3188928Y-13436357D01*
X3203214Y-13407786D01*
X3217500Y-13393500D01*
X3246071Y-13379214D01*
X3474643Y-13679214D02*
X3474643Y-13479214D01*
X3474643Y-13507786D02*
X3488928Y-13493500D01*
X3517500Y-13479214D01*
X3560357Y-13479214D01*
X3588928Y-13493500D01*
X3603214Y-13522071D01*
X3603214Y-13679214D01*
X3603214Y-13522071D02*
X3617500Y-13493500D01*
X3646071Y-13479214D01*
X3688928Y-13479214D01*
X3717500Y-13493500D01*
X3731786Y-13522071D01*
X3731786Y-13679214D01*
X3874643Y-13679214D02*
X3874643Y-13479214D01*
X3874643Y-13507786D02*
X3888928Y-13493500D01*
X3917500Y-13479214D01*
X3960357Y-13479214D01*
X3988928Y-13493500D01*
X4003214Y-13522071D01*
X4003214Y-13679214D01*
X4003214Y-13522071D02*
X4017500Y-13493500D01*
X4046071Y-13479214D01*
X4088928Y-13479214D01*
X4117500Y-13493500D01*
X4131786Y-13522071D01*
X4131786Y-13679214D01*
X4717500Y-13364929D02*
X4460357Y-13750643D01*
X5103214Y-13379214D02*
X5131786Y-13379214D01*
X5160357Y-13393500D01*
X5174643Y-13407786D01*
X5188928Y-13436357D01*
X5203214Y-13493500D01*
X5203214Y-13564929D01*
X5188928Y-13622071D01*
X5174643Y-13650643D01*
X5160357Y-13664929D01*
X5131786Y-13679214D01*
X5103214Y-13679214D01*
X5074643Y-13664929D01*
X5060357Y-13650643D01*
X5046071Y-13622071D01*
X5031786Y-13564929D01*
X5031786Y-13493500D01*
X5046071Y-13436357D01*
X5060357Y-13407786D01*
X5074643Y-13393500D01*
X5103214Y-13379214D01*
X5331786Y-13650643D02*
X5346071Y-13664929D01*
X5331786Y-13679214D01*
X5317500Y-13664929D01*
X5331786Y-13650643D01*
X5331786Y-13679214D01*
X5531786Y-13379214D02*
X5560357Y-13379214D01*
X5588928Y-13393500D01*
X5603214Y-13407786D01*
X5617500Y-13436357D01*
X5631786Y-13493500D01*
X5631786Y-13564929D01*
X5617500Y-13622071D01*
X5603214Y-13650643D01*
X5588928Y-13664929D01*
X5560357Y-13679214D01*
X5531786Y-13679214D01*
X5503214Y-13664929D01*
X5488928Y-13650643D01*
X5474643Y-13622071D01*
X5460357Y-13564929D01*
X5460357Y-13493500D01*
X5474643Y-13436357D01*
X5488928Y-13407786D01*
X5503214Y-13393500D01*
X5531786Y-13379214D01*
X5774643Y-13679214D02*
X5831786Y-13679214D01*
X5860357Y-13664929D01*
X5874643Y-13650643D01*
X5903214Y-13607786D01*
X5917500Y-13550643D01*
X5917500Y-13436357D01*
X5903214Y-13407786D01*
X5888928Y-13393500D01*
X5860357Y-13379214D01*
X5803214Y-13379214D01*
X5774643Y-13393500D01*
X5760357Y-13407786D01*
X5746071Y-13436357D01*
X5746071Y-13507786D01*
X5760357Y-13536357D01*
X5774643Y-13550643D01*
X5803214Y-13564929D01*
X5860357Y-13564929D01*
X5888928Y-13550643D01*
X5903214Y-13536357D01*
X5917500Y-13507786D01*
X6017500Y-13379214D02*
X6203214Y-13379214D01*
X6103214Y-13493500D01*
X6146071Y-13493500D01*
X6174643Y-13507786D01*
X6188928Y-13522071D01*
X6203214Y-13550643D01*
X6203214Y-13622071D01*
X6188928Y-13650643D01*
X6174643Y-13664929D01*
X6146071Y-13679214D01*
X6060357Y-13679214D01*
X6031786Y-13664929D01*
X6017500Y-13650643D01*
X6303214Y-13379214D02*
X6488928Y-13379214D01*
X6388928Y-13493500D01*
X6431786Y-13493500D01*
X6460357Y-13507786D01*
X6474643Y-13522071D01*
X6488928Y-13550643D01*
X6488928Y-13622071D01*
X6474643Y-13650643D01*
X6460357Y-13664929D01*
X6431786Y-13679214D01*
X6346071Y-13679214D01*
X6317500Y-13664929D01*
X6303214Y-13650643D01*
X6603214Y-13379214D02*
X6603214Y-13436357D01*
X6717500Y-13379214D02*
X6717500Y-13436357D01*
X7160357Y-13793500D02*
X7146071Y-13779214D01*
X7117500Y-13736357D01*
X7103214Y-13707786D01*
X7088928Y-13664929D01*
X7074643Y-13593500D01*
X7074643Y-13536357D01*
X7088928Y-13464929D01*
X7103214Y-13422071D01*
X7117500Y-13393500D01*
X7146071Y-13350643D01*
X7160357Y-13336357D01*
X7246071Y-13379214D02*
X7431786Y-13379214D01*
X7331786Y-13493500D01*
X7374643Y-13493500D01*
X7403214Y-13507786D01*
X7417500Y-13522071D01*
X7431786Y-13550643D01*
X7431786Y-13622071D01*
X7417500Y-13650643D01*
X7403214Y-13664929D01*
X7374643Y-13679214D01*
X7288928Y-13679214D01*
X7260357Y-13664929D01*
X7246071Y-13650643D01*
X7788928Y-13679214D02*
X7788928Y-13379214D01*
X7917500Y-13679214D02*
X7917500Y-13522071D01*
X7903214Y-13493500D01*
X7874643Y-13479214D01*
X7831786Y-13479214D01*
X7803214Y-13493500D01*
X7788928Y-13507786D01*
X8103214Y-13679214D02*
X8074643Y-13664929D01*
X8060357Y-13650643D01*
X8046071Y-13622071D01*
X8046071Y-13536357D01*
X8060357Y-13507786D01*
X8074643Y-13493500D01*
X8103214Y-13479214D01*
X8146071Y-13479214D01*
X8174643Y-13493500D01*
X8188928Y-13507786D01*
X8203214Y-13536357D01*
X8203214Y-13622071D01*
X8188928Y-13650643D01*
X8174643Y-13664929D01*
X8146071Y-13679214D01*
X8103214Y-13679214D01*
X8374643Y-13679214D02*
X8346071Y-13664929D01*
X8331786Y-13636357D01*
X8331786Y-13379214D01*
X8603214Y-13664929D02*
X8574643Y-13679214D01*
X8517500Y-13679214D01*
X8488928Y-13664929D01*
X8474643Y-13636357D01*
X8474643Y-13522071D01*
X8488928Y-13493500D01*
X8517500Y-13479214D01*
X8574643Y-13479214D01*
X8603214Y-13493500D01*
X8617500Y-13522071D01*
X8617500Y-13550643D01*
X8474643Y-13579214D01*
X8731786Y-13664929D02*
X8760357Y-13679214D01*
X8817500Y-13679214D01*
X8846071Y-13664929D01*
X8860357Y-13636357D01*
X8860357Y-13622071D01*
X8846071Y-13593500D01*
X8817500Y-13579214D01*
X8774643Y-13579214D01*
X8746071Y-13564929D01*
X8731786Y-13536357D01*
X8731786Y-13522071D01*
X8746071Y-13493500D01*
X8774643Y-13479214D01*
X8817500Y-13479214D01*
X8846071Y-13493500D01*
X8960357Y-13793500D02*
X8974643Y-13779214D01*
X9003214Y-13736357D01*
X9017500Y-13707786D01*
X9031786Y-13664929D01*
X9046071Y-13593500D01*
X9046071Y-13536357D01*
X9031786Y-13464929D01*
X9017500Y-13422071D01*
X9003214Y-13393500D01*
X8974643Y-13350643D01*
X8960357Y-13336357D01*
X1852709Y-14059709D02*
X1852709Y-13819291D01*
X1612291Y-13819291D01*
X1612291Y-14059709D01*
X1852709Y-14059709D01*
X1902500Y-13939500D02*
G75*
G03*
X1902500Y-13939500I-170000J0D01*
G01*
X2160357Y-13775214D02*
X2346071Y-13775214D01*
X2246071Y-13889500D01*
X2288928Y-13889500D01*
X2317500Y-13903786D01*
X2331786Y-13918071D01*
X2346071Y-13946643D01*
X2346071Y-14018071D01*
X2331786Y-14046643D01*
X2317500Y-14060929D01*
X2288928Y-14075214D01*
X2203214Y-14075214D01*
X2174643Y-14060929D01*
X2160357Y-14046643D01*
X2474643Y-14046643D02*
X2488928Y-14060929D01*
X2474643Y-14075214D01*
X2460357Y-14060929D01*
X2474643Y-14046643D01*
X2474643Y-14075214D01*
X2746071Y-13875214D02*
X2746071Y-14075214D01*
X2674643Y-13760929D02*
X2603214Y-13975214D01*
X2788928Y-13975214D01*
X2960357Y-13775214D02*
X2988928Y-13775214D01*
X3017500Y-13789500D01*
X3031786Y-13803786D01*
X3046071Y-13832357D01*
X3060357Y-13889500D01*
X3060357Y-13960929D01*
X3046071Y-14018071D01*
X3031786Y-14046643D01*
X3017500Y-14060929D01*
X2988928Y-14075214D01*
X2960357Y-14075214D01*
X2931786Y-14060929D01*
X2917500Y-14046643D01*
X2903214Y-14018071D01*
X2888928Y-13960929D01*
X2888928Y-13889500D01*
X2903214Y-13832357D01*
X2917500Y-13803786D01*
X2931786Y-13789500D01*
X2960357Y-13775214D01*
X3246071Y-13775214D02*
X3274643Y-13775214D01*
X3303214Y-13789500D01*
X3317500Y-13803786D01*
X3331786Y-13832357D01*
X3346071Y-13889500D01*
X3346071Y-13960929D01*
X3331786Y-14018071D01*
X3317500Y-14046643D01*
X3303214Y-14060929D01*
X3274643Y-14075214D01*
X3246071Y-14075214D01*
X3217500Y-14060929D01*
X3203214Y-14046643D01*
X3188928Y-14018071D01*
X3174643Y-13960929D01*
X3174643Y-13889500D01*
X3188928Y-13832357D01*
X3203214Y-13803786D01*
X3217500Y-13789500D01*
X3246071Y-13775214D01*
X3474643Y-14075214D02*
X3474643Y-13875214D01*
X3474643Y-13903786D02*
X3488928Y-13889500D01*
X3517500Y-13875214D01*
X3560357Y-13875214D01*
X3588928Y-13889500D01*
X3603214Y-13918071D01*
X3603214Y-14075214D01*
X3603214Y-13918071D02*
X3617500Y-13889500D01*
X3646071Y-13875214D01*
X3688928Y-13875214D01*
X3717500Y-13889500D01*
X3731786Y-13918071D01*
X3731786Y-14075214D01*
X3874643Y-14075214D02*
X3874643Y-13875214D01*
X3874643Y-13903786D02*
X3888928Y-13889500D01*
X3917500Y-13875214D01*
X3960357Y-13875214D01*
X3988928Y-13889500D01*
X4003214Y-13918071D01*
X4003214Y-14075214D01*
X4003214Y-13918071D02*
X4017500Y-13889500D01*
X4046071Y-13875214D01*
X4088928Y-13875214D01*
X4117500Y-13889500D01*
X4131786Y-13918071D01*
X4131786Y-14075214D01*
X4717500Y-13760929D02*
X4460357Y-14146643D01*
X5103214Y-13775214D02*
X5131786Y-13775214D01*
X5160357Y-13789500D01*
X5174643Y-13803786D01*
X5188928Y-13832357D01*
X5203214Y-13889500D01*
X5203214Y-13960929D01*
X5188928Y-14018071D01*
X5174643Y-14046643D01*
X5160357Y-14060929D01*
X5131786Y-14075214D01*
X5103214Y-14075214D01*
X5074643Y-14060929D01*
X5060357Y-14046643D01*
X5046071Y-14018071D01*
X5031786Y-13960929D01*
X5031786Y-13889500D01*
X5046071Y-13832357D01*
X5060357Y-13803786D01*
X5074643Y-13789500D01*
X5103214Y-13775214D01*
X5331786Y-14046643D02*
X5346071Y-14060929D01*
X5331786Y-14075214D01*
X5317500Y-14060929D01*
X5331786Y-14046643D01*
X5331786Y-14075214D01*
X5631786Y-14075214D02*
X5460357Y-14075214D01*
X5546071Y-14075214D02*
X5546071Y-13775214D01*
X5517500Y-13818071D01*
X5488928Y-13846643D01*
X5460357Y-13860929D01*
X5731786Y-13775214D02*
X5917500Y-13775214D01*
X5817500Y-13889500D01*
X5860357Y-13889500D01*
X5888928Y-13903786D01*
X5903214Y-13918071D01*
X5917500Y-13946643D01*
X5917500Y-14018071D01*
X5903214Y-14046643D01*
X5888928Y-14060929D01*
X5860357Y-14075214D01*
X5774643Y-14075214D01*
X5746071Y-14060929D01*
X5731786Y-14046643D01*
X6017500Y-13775214D02*
X6203214Y-13775214D01*
X6103214Y-13889500D01*
X6146071Y-13889500D01*
X6174643Y-13903786D01*
X6188928Y-13918071D01*
X6203214Y-13946643D01*
X6203214Y-14018071D01*
X6188928Y-14046643D01*
X6174643Y-14060929D01*
X6146071Y-14075214D01*
X6060357Y-14075214D01*
X6031786Y-14060929D01*
X6017500Y-14046643D01*
X6346071Y-14075214D02*
X6403214Y-14075214D01*
X6431786Y-14060929D01*
X6446071Y-14046643D01*
X6474643Y-14003786D01*
X6488928Y-13946643D01*
X6488928Y-13832357D01*
X6474643Y-13803786D01*
X6460357Y-13789500D01*
X6431786Y-13775214D01*
X6374643Y-13775214D01*
X6346071Y-13789500D01*
X6331786Y-13803786D01*
X6317500Y-13832357D01*
X6317500Y-13903786D01*
X6331786Y-13932357D01*
X6346071Y-13946643D01*
X6374643Y-13960929D01*
X6431786Y-13960929D01*
X6460357Y-13946643D01*
X6474643Y-13932357D01*
X6488928Y-13903786D01*
X6603214Y-13775214D02*
X6603214Y-13832357D01*
X6717500Y-13775214D02*
X6717500Y-13832357D01*
X7160357Y-14189500D02*
X7146071Y-14175214D01*
X7117500Y-14132357D01*
X7103214Y-14103786D01*
X7088928Y-14060929D01*
X7074643Y-13989500D01*
X7074643Y-13932357D01*
X7088928Y-13860929D01*
X7103214Y-13818071D01*
X7117500Y-13789500D01*
X7146071Y-13746643D01*
X7160357Y-13732357D01*
X7260357Y-13803786D02*
X7274643Y-13789500D01*
X7303214Y-13775214D01*
X7374643Y-13775214D01*
X7403214Y-13789500D01*
X7417500Y-13803786D01*
X7431786Y-13832357D01*
X7431786Y-13860929D01*
X7417500Y-13903786D01*
X7246071Y-14075214D01*
X7431786Y-14075214D01*
X7788928Y-14075214D02*
X7788928Y-13775214D01*
X7917500Y-14075214D02*
X7917500Y-13918071D01*
X7903214Y-13889500D01*
X7874643Y-13875214D01*
X7831786Y-13875214D01*
X7803214Y-13889500D01*
X7788928Y-13903786D01*
X8103214Y-14075214D02*
X8074643Y-14060929D01*
X8060357Y-14046643D01*
X8046071Y-14018071D01*
X8046071Y-13932357D01*
X8060357Y-13903786D01*
X8074643Y-13889500D01*
X8103214Y-13875214D01*
X8146071Y-13875214D01*
X8174643Y-13889500D01*
X8188928Y-13903786D01*
X8203214Y-13932357D01*
X8203214Y-14018071D01*
X8188928Y-14046643D01*
X8174643Y-14060929D01*
X8146071Y-14075214D01*
X8103214Y-14075214D01*
X8374643Y-14075214D02*
X8346071Y-14060929D01*
X8331786Y-14032357D01*
X8331786Y-13775214D01*
X8603214Y-14060929D02*
X8574643Y-14075214D01*
X8517500Y-14075214D01*
X8488928Y-14060929D01*
X8474643Y-14032357D01*
X8474643Y-13918071D01*
X8488928Y-13889500D01*
X8517500Y-13875214D01*
X8574643Y-13875214D01*
X8603214Y-13889500D01*
X8617500Y-13918071D01*
X8617500Y-13946643D01*
X8474643Y-13975214D01*
X8731786Y-14060929D02*
X8760357Y-14075214D01*
X8817500Y-14075214D01*
X8846071Y-14060929D01*
X8860357Y-14032357D01*
X8860357Y-14018071D01*
X8846071Y-13989500D01*
X8817500Y-13975214D01*
X8774643Y-13975214D01*
X8746071Y-13960929D01*
X8731786Y-13932357D01*
X8731786Y-13918071D01*
X8746071Y-13889500D01*
X8774643Y-13875214D01*
X8817500Y-13875214D01*
X8846071Y-13889500D01*
X8960357Y-14189500D02*
X8974643Y-14175214D01*
X9003214Y-14132357D01*
X9017500Y-14103786D01*
X9031786Y-14060929D01*
X9046071Y-13989500D01*
X9046071Y-13932357D01*
X9031786Y-13860929D01*
X9017500Y-13818071D01*
X9003214Y-13789500D01*
X8974643Y-13746643D01*
X8960357Y-13732357D01*
X1652500Y-14659500D02*
X1902500Y-14409500D01*
X1652500Y-14159500D01*
X1402500Y-14409500D01*
X1652500Y-14659500D01*
X1902500Y-14409500D02*
G75*
G03*
X1902500Y-14409500I-250000J0D01*
G01*
X2331786Y-14245214D02*
X2188928Y-14245214D01*
X2174643Y-14388071D01*
X2188928Y-14373786D01*
X2217500Y-14359500D01*
X2288928Y-14359500D01*
X2317500Y-14373786D01*
X2331786Y-14388071D01*
X2346071Y-14416643D01*
X2346071Y-14488071D01*
X2331786Y-14516643D01*
X2317500Y-14530929D01*
X2288928Y-14545214D01*
X2217500Y-14545214D01*
X2188928Y-14530929D01*
X2174643Y-14516643D01*
X2474643Y-14516643D02*
X2488928Y-14530929D01*
X2474643Y-14545214D01*
X2460357Y-14530929D01*
X2474643Y-14516643D01*
X2474643Y-14545214D01*
X2674643Y-14245214D02*
X2703214Y-14245214D01*
X2731786Y-14259500D01*
X2746071Y-14273786D01*
X2760357Y-14302357D01*
X2774643Y-14359500D01*
X2774643Y-14430929D01*
X2760357Y-14488071D01*
X2746071Y-14516643D01*
X2731786Y-14530929D01*
X2703214Y-14545214D01*
X2674643Y-14545214D01*
X2646071Y-14530929D01*
X2631786Y-14516643D01*
X2617500Y-14488071D01*
X2603214Y-14430929D01*
X2603214Y-14359500D01*
X2617500Y-14302357D01*
X2631786Y-14273786D01*
X2646071Y-14259500D01*
X2674643Y-14245214D01*
X2960357Y-14245214D02*
X2988928Y-14245214D01*
X3017500Y-14259500D01*
X3031786Y-14273786D01*
X3046071Y-14302357D01*
X3060357Y-14359500D01*
X3060357Y-14430929D01*
X3046071Y-14488071D01*
X3031786Y-14516643D01*
X3017500Y-14530929D01*
X2988928Y-14545214D01*
X2960357Y-14545214D01*
X2931786Y-14530929D01*
X2917500Y-14516643D01*
X2903214Y-14488071D01*
X2888928Y-14430929D01*
X2888928Y-14359500D01*
X2903214Y-14302357D01*
X2917500Y-14273786D01*
X2931786Y-14259500D01*
X2960357Y-14245214D01*
X3246071Y-14245214D02*
X3274643Y-14245214D01*
X3303214Y-14259500D01*
X3317500Y-14273786D01*
X3331786Y-14302357D01*
X3346071Y-14359500D01*
X3346071Y-14430929D01*
X3331786Y-14488071D01*
X3317500Y-14516643D01*
X3303214Y-14530929D01*
X3274643Y-14545214D01*
X3246071Y-14545214D01*
X3217500Y-14530929D01*
X3203214Y-14516643D01*
X3188928Y-14488071D01*
X3174643Y-14430929D01*
X3174643Y-14359500D01*
X3188928Y-14302357D01*
X3203214Y-14273786D01*
X3217500Y-14259500D01*
X3246071Y-14245214D01*
X3474643Y-14545214D02*
X3474643Y-14345214D01*
X3474643Y-14373786D02*
X3488928Y-14359500D01*
X3517500Y-14345214D01*
X3560357Y-14345214D01*
X3588928Y-14359500D01*
X3603214Y-14388071D01*
X3603214Y-14545214D01*
X3603214Y-14388071D02*
X3617500Y-14359500D01*
X3646071Y-14345214D01*
X3688928Y-14345214D01*
X3717500Y-14359500D01*
X3731786Y-14388071D01*
X3731786Y-14545214D01*
X3874643Y-14545214D02*
X3874643Y-14345214D01*
X3874643Y-14373786D02*
X3888928Y-14359500D01*
X3917500Y-14345214D01*
X3960357Y-14345214D01*
X3988928Y-14359500D01*
X4003214Y-14388071D01*
X4003214Y-14545214D01*
X4003214Y-14388071D02*
X4017500Y-14359500D01*
X4046071Y-14345214D01*
X4088928Y-14345214D01*
X4117500Y-14359500D01*
X4131786Y-14388071D01*
X4131786Y-14545214D01*
X4717500Y-14230929D02*
X4460357Y-14616643D01*
X5103214Y-14245214D02*
X5131786Y-14245214D01*
X5160357Y-14259500D01*
X5174643Y-14273786D01*
X5188928Y-14302357D01*
X5203214Y-14359500D01*
X5203214Y-14430929D01*
X5188928Y-14488071D01*
X5174643Y-14516643D01*
X5160357Y-14530929D01*
X5131786Y-14545214D01*
X5103214Y-14545214D01*
X5074643Y-14530929D01*
X5060357Y-14516643D01*
X5046071Y-14488071D01*
X5031786Y-14430929D01*
X5031786Y-14359500D01*
X5046071Y-14302357D01*
X5060357Y-14273786D01*
X5074643Y-14259500D01*
X5103214Y-14245214D01*
X5331786Y-14516643D02*
X5346071Y-14530929D01*
X5331786Y-14545214D01*
X5317500Y-14530929D01*
X5331786Y-14516643D01*
X5331786Y-14545214D01*
X5631786Y-14545214D02*
X5460357Y-14545214D01*
X5546071Y-14545214D02*
X5546071Y-14245214D01*
X5517500Y-14288071D01*
X5488928Y-14316643D01*
X5460357Y-14330929D01*
X5774643Y-14545214D02*
X5831786Y-14545214D01*
X5860357Y-14530929D01*
X5874643Y-14516643D01*
X5903214Y-14473786D01*
X5917500Y-14416643D01*
X5917500Y-14302357D01*
X5903214Y-14273786D01*
X5888928Y-14259500D01*
X5860357Y-14245214D01*
X5803214Y-14245214D01*
X5774643Y-14259500D01*
X5760357Y-14273786D01*
X5746071Y-14302357D01*
X5746071Y-14373786D01*
X5760357Y-14402357D01*
X5774643Y-14416643D01*
X5803214Y-14430929D01*
X5860357Y-14430929D01*
X5888928Y-14416643D01*
X5903214Y-14402357D01*
X5917500Y-14373786D01*
X6174643Y-14245214D02*
X6117500Y-14245214D01*
X6088928Y-14259500D01*
X6074643Y-14273786D01*
X6046071Y-14316643D01*
X6031786Y-14373786D01*
X6031786Y-14488071D01*
X6046071Y-14516643D01*
X6060357Y-14530929D01*
X6088928Y-14545214D01*
X6146071Y-14545214D01*
X6174643Y-14530929D01*
X6188928Y-14516643D01*
X6203214Y-14488071D01*
X6203214Y-14416643D01*
X6188928Y-14388071D01*
X6174643Y-14373786D01*
X6146071Y-14359500D01*
X6088928Y-14359500D01*
X6060357Y-14373786D01*
X6046071Y-14388071D01*
X6031786Y-14416643D01*
X6346071Y-14545214D02*
X6403214Y-14545214D01*
X6431786Y-14530929D01*
X6446071Y-14516643D01*
X6474643Y-14473786D01*
X6488928Y-14416643D01*
X6488928Y-14302357D01*
X6474643Y-14273786D01*
X6460357Y-14259500D01*
X6431786Y-14245214D01*
X6374643Y-14245214D01*
X6346071Y-14259500D01*
X6331786Y-14273786D01*
X6317500Y-14302357D01*
X6317500Y-14373786D01*
X6331786Y-14402357D01*
X6346071Y-14416643D01*
X6374643Y-14430929D01*
X6431786Y-14430929D01*
X6460357Y-14416643D01*
X6474643Y-14402357D01*
X6488928Y-14373786D01*
X6603214Y-14245214D02*
X6603214Y-14302357D01*
X6717500Y-14245214D02*
X6717500Y-14302357D01*
X7160357Y-14659500D02*
X7146071Y-14645214D01*
X7117500Y-14602357D01*
X7103214Y-14573786D01*
X7088928Y-14530929D01*
X7074643Y-14459500D01*
X7074643Y-14402357D01*
X7088928Y-14330929D01*
X7103214Y-14288071D01*
X7117500Y-14259500D01*
X7146071Y-14216643D01*
X7160357Y-14202357D01*
X7403214Y-14345214D02*
X7403214Y-14545214D01*
X7331786Y-14230929D02*
X7260357Y-14445214D01*
X7446071Y-14445214D01*
X7788928Y-14545214D02*
X7788928Y-14245214D01*
X7917500Y-14545214D02*
X7917500Y-14388071D01*
X7903214Y-14359500D01*
X7874643Y-14345214D01*
X7831786Y-14345214D01*
X7803214Y-14359500D01*
X7788928Y-14373786D01*
X8103214Y-14545214D02*
X8074643Y-14530929D01*
X8060357Y-14516643D01*
X8046071Y-14488071D01*
X8046071Y-14402357D01*
X8060357Y-14373786D01*
X8074643Y-14359500D01*
X8103214Y-14345214D01*
X8146071Y-14345214D01*
X8174643Y-14359500D01*
X8188928Y-14373786D01*
X8203214Y-14402357D01*
X8203214Y-14488071D01*
X8188928Y-14516643D01*
X8174643Y-14530929D01*
X8146071Y-14545214D01*
X8103214Y-14545214D01*
X8374643Y-14545214D02*
X8346071Y-14530929D01*
X8331786Y-14502357D01*
X8331786Y-14245214D01*
X8603214Y-14530929D02*
X8574643Y-14545214D01*
X8517500Y-14545214D01*
X8488928Y-14530929D01*
X8474643Y-14502357D01*
X8474643Y-14388071D01*
X8488928Y-14359500D01*
X8517500Y-14345214D01*
X8574643Y-14345214D01*
X8603214Y-14359500D01*
X8617500Y-14388071D01*
X8617500Y-14416643D01*
X8474643Y-14445214D01*
X8731786Y-14530929D02*
X8760357Y-14545214D01*
X8817500Y-14545214D01*
X8846071Y-14530929D01*
X8860357Y-14502357D01*
X8860357Y-14488071D01*
X8846071Y-14459500D01*
X8817500Y-14445214D01*
X8774643Y-14445214D01*
X8746071Y-14430929D01*
X8731786Y-14402357D01*
X8731786Y-14388071D01*
X8746071Y-14359500D01*
X8774643Y-14345214D01*
X8817500Y-14345214D01*
X8846071Y-14359500D01*
X8960357Y-14659500D02*
X8974643Y-14645214D01*
X9003214Y-14602357D01*
X9017500Y-14573786D01*
X9031786Y-14530929D01*
X9046071Y-14459500D01*
X9046071Y-14402357D01*
X9031786Y-14330929D01*
X9017500Y-14288071D01*
X9003214Y-14259500D01*
X8974643Y-14216643D01*
X8960357Y-14202357D01*
M02*
