%FSLAX45Y45*%
G04 Gerber Fmt 4.5, Leading zero omitted, Abs format (unit mm)*
G04 Created by KiCad (PCBNEW (5.1.12)-1) date 2022-05-05 18:44:12*
%MOMM*%
%LPD*%
G01*
G04 APERTURE LIST*
%TA.AperFunction,Profile*%
%ADD10C,0.050000*%
%TD*%
%ADD11C,0.200000*%
%ADD12C,0.300000*%
G04 APERTURE END LIST*
D10*
X10795000Y-9017000D02*
X2921000Y-9017000D01*
X10668000Y-1651000D02*
X9398000Y-1651000D01*
X3048000Y-1651000D02*
X9398000Y-1651000D01*
X11811000Y-2794000D02*
X11811000Y-8001000D01*
X11811000Y-8001000D02*
G75*
G02*
X10795000Y-9017000I-1016000J0D01*
G01*
X10668000Y-1651000D02*
G75*
G02*
X11811000Y-2794000I0J-1143000D01*
G01*
X1905000Y-8001000D02*
X1905000Y-2794000D01*
X2921000Y-9017000D02*
G75*
G02*
X1905000Y-8001000I0J1016000D01*
G01*
X1905000Y-2794000D02*
G75*
G02*
X3048000Y-1651000I1143000J0D01*
G01*
D11*
D12*
X2188928Y-9485214D02*
X2188928Y-9185214D01*
X2260357Y-9185214D01*
X2303214Y-9199500D01*
X2331786Y-9228072D01*
X2346071Y-9256643D01*
X2360357Y-9313786D01*
X2360357Y-9356643D01*
X2346071Y-9413786D01*
X2331786Y-9442357D01*
X2303214Y-9470929D01*
X2260357Y-9485214D01*
X2188928Y-9485214D01*
X2488928Y-9485214D02*
X2488928Y-9285214D01*
X2488928Y-9342357D02*
X2503214Y-9313786D01*
X2517500Y-9299500D01*
X2546071Y-9285214D01*
X2574643Y-9285214D01*
X2674643Y-9485214D02*
X2674643Y-9285214D01*
X2674643Y-9185214D02*
X2660357Y-9199500D01*
X2674643Y-9213786D01*
X2688928Y-9199500D01*
X2674643Y-9185214D01*
X2674643Y-9213786D01*
X2860357Y-9485214D02*
X2831786Y-9470929D01*
X2817500Y-9442357D01*
X2817500Y-9185214D01*
X3017500Y-9485214D02*
X2988928Y-9470929D01*
X2974643Y-9442357D01*
X2974643Y-9185214D01*
X3360357Y-9485214D02*
X3360357Y-9185214D01*
X3460357Y-9399500D01*
X3560357Y-9185214D01*
X3560357Y-9485214D01*
X3831786Y-9485214D02*
X3831786Y-9328072D01*
X3817500Y-9299500D01*
X3788928Y-9285214D01*
X3731786Y-9285214D01*
X3703214Y-9299500D01*
X3831786Y-9470929D02*
X3803214Y-9485214D01*
X3731786Y-9485214D01*
X3703214Y-9470929D01*
X3688928Y-9442357D01*
X3688928Y-9413786D01*
X3703214Y-9385214D01*
X3731786Y-9370929D01*
X3803214Y-9370929D01*
X3831786Y-9356643D01*
X3974643Y-9285214D02*
X3974643Y-9585214D01*
X3974643Y-9299500D02*
X4003214Y-9285214D01*
X4060357Y-9285214D01*
X4088928Y-9299500D01*
X4103214Y-9313786D01*
X4117500Y-9342357D01*
X4117500Y-9428072D01*
X4103214Y-9456643D01*
X4088928Y-9470929D01*
X4060357Y-9485214D01*
X4003214Y-9485214D01*
X3974643Y-9470929D01*
X4246071Y-9456643D02*
X4260357Y-9470929D01*
X4246071Y-9485214D01*
X4231786Y-9470929D01*
X4246071Y-9456643D01*
X4246071Y-9485214D01*
X4246071Y-9299500D02*
X4260357Y-9313786D01*
X4246071Y-9328072D01*
X4231786Y-9313786D01*
X4246071Y-9299500D01*
X4246071Y-9328072D01*
M02*
