%TF.GenerationSoftware,KiCad,Pcbnew,(5.1.12)-1*%
%TF.CreationDate,2022-05-05T18:44:07+02:00*%
%TF.ProjectId,telemetria tyl,74656c65-6d65-4747-9269-612074796c2e,rev?*%
%TF.SameCoordinates,Original*%
%TF.FileFunction,Copper,L2,Bot*%
%TF.FilePolarity,Positive*%
%FSLAX46Y46*%
G04 Gerber Fmt 4.6, Leading zero omitted, Abs format (unit mm)*
G04 Created by KiCad (PCBNEW (5.1.12)-1) date 2022-05-05 18:44:07*
%MOMM*%
%LPD*%
G01*
G04 APERTURE LIST*
%TA.AperFunction,ComponentPad*%
%ADD10C,1.800000*%
%TD*%
%TA.AperFunction,ComponentPad*%
%ADD11C,4.000000*%
%TD*%
%TA.AperFunction,ComponentPad*%
%ADD12C,1.509000*%
%TD*%
%TA.AperFunction,ComponentPad*%
%ADD13C,3.555000*%
%TD*%
%TA.AperFunction,ComponentPad*%
%ADD14C,0.900000*%
%TD*%
%TA.AperFunction,ComponentPad*%
%ADD15C,10.000000*%
%TD*%
%TA.AperFunction,ComponentPad*%
%ADD16R,2.250000X2.250000*%
%TD*%
%TA.AperFunction,ComponentPad*%
%ADD17C,2.250000*%
%TD*%
%TA.AperFunction,ComponentPad*%
%ADD18C,5.100000*%
%TD*%
%TA.AperFunction,SMDPad,CuDef*%
%ADD19C,0.100000*%
%TD*%
%TA.AperFunction,SMDPad,CuDef*%
%ADD20R,1.000000X1.500000*%
%TD*%
%TA.AperFunction,SMDPad,CuDef*%
%ADD21R,1.500000X1.000000*%
%TD*%
%TA.AperFunction,SMDPad,CuDef*%
%ADD22R,1.854500X2.286000*%
%TD*%
%TA.AperFunction,SMDPad,CuDef*%
%ADD23R,1.000000X0.550000*%
%TD*%
%TA.AperFunction,ComponentPad*%
%ADD24R,1.130000X1.130000*%
%TD*%
%TA.AperFunction,ComponentPad*%
%ADD25C,1.130000*%
%TD*%
%TA.AperFunction,ComponentPad*%
%ADD26R,1.700000X1.700000*%
%TD*%
%TA.AperFunction,ComponentPad*%
%ADD27O,1.700000X1.700000*%
%TD*%
%TA.AperFunction,ComponentPad*%
%ADD28R,1.390000X1.390000*%
%TD*%
%TA.AperFunction,ComponentPad*%
%ADD29C,1.390000*%
%TD*%
%TA.AperFunction,ComponentPad*%
%ADD30C,3.440000*%
%TD*%
%TA.AperFunction,SMDPad,CuDef*%
%ADD31R,1.200000X0.600000*%
%TD*%
%TA.AperFunction,SMDPad,CuDef*%
%ADD32R,0.400000X1.050000*%
%TD*%
%TA.AperFunction,SMDPad,CuDef*%
%ADD33R,0.600000X1.050000*%
%TD*%
%TA.AperFunction,SMDPad,CuDef*%
%ADD34R,1.100000X1.100000*%
%TD*%
%TA.AperFunction,ViaPad*%
%ADD35C,0.800000*%
%TD*%
%TA.AperFunction,Conductor*%
%ADD36C,0.300000*%
%TD*%
%TA.AperFunction,Conductor*%
%ADD37C,0.500000*%
%TD*%
%TA.AperFunction,Conductor*%
%ADD38C,0.250000*%
%TD*%
%TA.AperFunction,Conductor*%
%ADD39C,0.750000*%
%TD*%
G04 APERTURE END LIST*
D10*
%TO.P,RV1,3*%
%TO.N,+5V*%
X63420000Y-74930000D03*
%TO.P,RV1,2*%
%TO.N,Net-(IC4-Pad4)*%
X60920000Y-74930000D03*
%TO.P,RV1,1*%
%TO.N,GND*%
X58420000Y-74930000D03*
D11*
%TO.P,RV1,*%
%TO.N,*%
X65640000Y-81780000D03*
X56070000Y-81780000D03*
%TD*%
D12*
%TO.P,Mini_DIN_OUT1,1*%
%TO.N,V_OUT*%
X30480000Y-64770000D03*
%TO.P,Mini_DIN_OUT1,2*%
%TO.N,GND_SPK*%
X30480000Y-62170000D03*
%TO.P,Mini_DIN_OUT1,3*%
%TO.N,GND_MIC&ANC*%
X30480000Y-66820000D03*
%TO.P,Mini_DIN_OUT1,4*%
%TO.N,SPK+*%
X30480000Y-60120000D03*
%TO.P,Mini_DIN_OUT1,5*%
%TO.N,TX_DATA*%
X32970000Y-66820000D03*
%TO.P,Mini_DIN_OUT1,6*%
%TO.N,Net-(Mini_DIN_OUT1-Pad6)*%
X32970000Y-60120000D03*
D13*
%TO.P,Mini_DIN_OUT1,MH1*%
%TO.N,Net-(Mini_DIN_OUT1-PadMH1)*%
X27480000Y-70230000D03*
%TO.P,Mini_DIN_OUT1,MH2*%
%TO.N,Net-(Mini_DIN_OUT1-PadMH2)*%
X26670000Y-63470000D03*
%TO.P,Mini_DIN_OUT1,MH3*%
%TO.N,Net-(Mini_DIN_OUT1-PadMH3)*%
X27480000Y-56710000D03*
%TD*%
%TO.P,R6,2*%
%TO.N,Net-(PS1-Pad3)*%
%TA.AperFunction,SMDPad,CuDef*%
G36*
G01*
X79340000Y-38411999D02*
X79340000Y-39312001D01*
G75*
G02*
X79090001Y-39562000I-249999J0D01*
G01*
X78389999Y-39562000D01*
G75*
G02*
X78140000Y-39312001I0J249999D01*
G01*
X78140000Y-38411999D01*
G75*
G02*
X78389999Y-38162000I249999J0D01*
G01*
X79090001Y-38162000D01*
G75*
G02*
X79340000Y-38411999I0J-249999D01*
G01*
G37*
%TD.AperFunction*%
%TO.P,R6,1*%
%TO.N,+5V*%
%TA.AperFunction,SMDPad,CuDef*%
G36*
G01*
X81340000Y-38411999D02*
X81340000Y-39312001D01*
G75*
G02*
X81090001Y-39562000I-249999J0D01*
G01*
X80389999Y-39562000D01*
G75*
G02*
X80140000Y-39312001I0J249999D01*
G01*
X80140000Y-38411999D01*
G75*
G02*
X80389999Y-38162000I249999J0D01*
G01*
X81090001Y-38162000D01*
G75*
G02*
X81340000Y-38411999I0J-249999D01*
G01*
G37*
%TD.AperFunction*%
%TD*%
%TO.P,R5,2*%
%TO.N,GND*%
%TA.AperFunction,SMDPad,CuDef*%
G36*
G01*
X80172000Y-37280001D02*
X80172000Y-36379999D01*
G75*
G02*
X80421999Y-36130000I249999J0D01*
G01*
X81122001Y-36130000D01*
G75*
G02*
X81372000Y-36379999I0J-249999D01*
G01*
X81372000Y-37280001D01*
G75*
G02*
X81122001Y-37530000I-249999J0D01*
G01*
X80421999Y-37530000D01*
G75*
G02*
X80172000Y-37280001I0J249999D01*
G01*
G37*
%TD.AperFunction*%
%TO.P,R5,1*%
%TO.N,Net-(PS1-Pad3)*%
%TA.AperFunction,SMDPad,CuDef*%
G36*
G01*
X78172000Y-37280001D02*
X78172000Y-36379999D01*
G75*
G02*
X78421999Y-36130000I249999J0D01*
G01*
X79122001Y-36130000D01*
G75*
G02*
X79372000Y-36379999I0J-249999D01*
G01*
X79372000Y-37280001D01*
G75*
G02*
X79122001Y-37530000I-249999J0D01*
G01*
X78421999Y-37530000D01*
G75*
G02*
X78172000Y-37280001I0J249999D01*
G01*
G37*
%TD.AperFunction*%
%TD*%
%TO.P,R2,2*%
%TO.N,Net-(PS1-Pad4)*%
%TA.AperFunction,SMDPad,CuDef*%
G36*
G01*
X73028000Y-41852001D02*
X73028000Y-40951999D01*
G75*
G02*
X73277999Y-40702000I249999J0D01*
G01*
X73978001Y-40702000D01*
G75*
G02*
X74228000Y-40951999I0J-249999D01*
G01*
X74228000Y-41852001D01*
G75*
G02*
X73978001Y-42102000I-249999J0D01*
G01*
X73277999Y-42102000D01*
G75*
G02*
X73028000Y-41852001I0J249999D01*
G01*
G37*
%TD.AperFunction*%
%TO.P,R2,1*%
%TO.N,+12V*%
%TA.AperFunction,SMDPad,CuDef*%
G36*
G01*
X71028000Y-41852001D02*
X71028000Y-40951999D01*
G75*
G02*
X71277999Y-40702000I249999J0D01*
G01*
X71978001Y-40702000D01*
G75*
G02*
X72228000Y-40951999I0J-249999D01*
G01*
X72228000Y-41852001D01*
G75*
G02*
X71978001Y-42102000I-249999J0D01*
G01*
X71277999Y-42102000D01*
G75*
G02*
X71028000Y-41852001I0J249999D01*
G01*
G37*
%TD.AperFunction*%
%TD*%
%TO.P,D2,2*%
%TO.N,GND*%
%TA.AperFunction,SMDPad,CuDef*%
G36*
G01*
X65835000Y-34347999D02*
X65835000Y-35248001D01*
G75*
G02*
X65585001Y-35498000I-249999J0D01*
G01*
X64934999Y-35498000D01*
G75*
G02*
X64685000Y-35248001I0J249999D01*
G01*
X64685000Y-34347999D01*
G75*
G02*
X64934999Y-34098000I249999J0D01*
G01*
X65585001Y-34098000D01*
G75*
G02*
X65835000Y-34347999I0J-249999D01*
G01*
G37*
%TD.AperFunction*%
%TO.P,D2,1*%
%TO.N,Net-(C3-Pad1)*%
%TA.AperFunction,SMDPad,CuDef*%
G36*
G01*
X67885000Y-34347999D02*
X67885000Y-35248001D01*
G75*
G02*
X67635001Y-35498000I-249999J0D01*
G01*
X66984999Y-35498000D01*
G75*
G02*
X66735000Y-35248001I0J249999D01*
G01*
X66735000Y-34347999D01*
G75*
G02*
X66984999Y-34098000I249999J0D01*
G01*
X67635001Y-34098000D01*
G75*
G02*
X67885000Y-34347999I0J-249999D01*
G01*
G37*
%TD.AperFunction*%
%TD*%
%TO.P,C6,2*%
%TO.N,GND*%
%TA.AperFunction,SMDPad,CuDef*%
G36*
G01*
X84361000Y-36264000D02*
X85311000Y-36264000D01*
G75*
G02*
X85561000Y-36514000I0J-250000D01*
G01*
X85561000Y-37189000D01*
G75*
G02*
X85311000Y-37439000I-250000J0D01*
G01*
X84361000Y-37439000D01*
G75*
G02*
X84111000Y-37189000I0J250000D01*
G01*
X84111000Y-36514000D01*
G75*
G02*
X84361000Y-36264000I250000J0D01*
G01*
G37*
%TD.AperFunction*%
%TO.P,C6,1*%
%TO.N,+5V*%
%TA.AperFunction,SMDPad,CuDef*%
G36*
G01*
X84361000Y-34189000D02*
X85311000Y-34189000D01*
G75*
G02*
X85561000Y-34439000I0J-250000D01*
G01*
X85561000Y-35114000D01*
G75*
G02*
X85311000Y-35364000I-250000J0D01*
G01*
X84361000Y-35364000D01*
G75*
G02*
X84111000Y-35114000I0J250000D01*
G01*
X84111000Y-34439000D01*
G75*
G02*
X84361000Y-34189000I250000J0D01*
G01*
G37*
%TD.AperFunction*%
%TD*%
%TO.P,C5,2*%
%TO.N,GND*%
%TA.AperFunction,SMDPad,CuDef*%
G36*
G01*
X82329000Y-36285500D02*
X83279000Y-36285500D01*
G75*
G02*
X83529000Y-36535500I0J-250000D01*
G01*
X83529000Y-37210500D01*
G75*
G02*
X83279000Y-37460500I-250000J0D01*
G01*
X82329000Y-37460500D01*
G75*
G02*
X82079000Y-37210500I0J250000D01*
G01*
X82079000Y-36535500D01*
G75*
G02*
X82329000Y-36285500I250000J0D01*
G01*
G37*
%TD.AperFunction*%
%TO.P,C5,1*%
%TO.N,+5V*%
%TA.AperFunction,SMDPad,CuDef*%
G36*
G01*
X82329000Y-34210500D02*
X83279000Y-34210500D01*
G75*
G02*
X83529000Y-34460500I0J-250000D01*
G01*
X83529000Y-35135500D01*
G75*
G02*
X83279000Y-35385500I-250000J0D01*
G01*
X82329000Y-35385500D01*
G75*
G02*
X82079000Y-35135500I0J250000D01*
G01*
X82079000Y-34460500D01*
G75*
G02*
X82329000Y-34210500I250000J0D01*
G01*
G37*
%TD.AperFunction*%
%TD*%
%TO.P,C3,2*%
%TO.N,Net-(C3-Pad2)*%
%TA.AperFunction,SMDPad,CuDef*%
G36*
G01*
X73369500Y-32479000D02*
X73369500Y-31529000D01*
G75*
G02*
X73619500Y-31279000I250000J0D01*
G01*
X74294500Y-31279000D01*
G75*
G02*
X74544500Y-31529000I0J-250000D01*
G01*
X74544500Y-32479000D01*
G75*
G02*
X74294500Y-32729000I-250000J0D01*
G01*
X73619500Y-32729000D01*
G75*
G02*
X73369500Y-32479000I0J250000D01*
G01*
G37*
%TD.AperFunction*%
%TO.P,C3,1*%
%TO.N,Net-(C3-Pad1)*%
%TA.AperFunction,SMDPad,CuDef*%
G36*
G01*
X71294500Y-32479000D02*
X71294500Y-31529000D01*
G75*
G02*
X71544500Y-31279000I250000J0D01*
G01*
X72219500Y-31279000D01*
G75*
G02*
X72469500Y-31529000I0J-250000D01*
G01*
X72469500Y-32479000D01*
G75*
G02*
X72219500Y-32729000I-250000J0D01*
G01*
X71544500Y-32729000D01*
G75*
G02*
X71294500Y-32479000I0J250000D01*
G01*
G37*
%TD.AperFunction*%
%TD*%
%TO.P,C13,2*%
%TO.N,GND*%
%TA.AperFunction,SMDPad,CuDef*%
G36*
G01*
X68522000Y-48735000D02*
X68522000Y-47785000D01*
G75*
G02*
X68772000Y-47535000I250000J0D01*
G01*
X69447000Y-47535000D01*
G75*
G02*
X69697000Y-47785000I0J-250000D01*
G01*
X69697000Y-48735000D01*
G75*
G02*
X69447000Y-48985000I-250000J0D01*
G01*
X68772000Y-48985000D01*
G75*
G02*
X68522000Y-48735000I0J250000D01*
G01*
G37*
%TD.AperFunction*%
%TO.P,C13,1*%
%TO.N,+3V3*%
%TA.AperFunction,SMDPad,CuDef*%
G36*
G01*
X66447000Y-48735000D02*
X66447000Y-47785000D01*
G75*
G02*
X66697000Y-47535000I250000J0D01*
G01*
X67372000Y-47535000D01*
G75*
G02*
X67622000Y-47785000I0J-250000D01*
G01*
X67622000Y-48735000D01*
G75*
G02*
X67372000Y-48985000I-250000J0D01*
G01*
X66697000Y-48985000D01*
G75*
G02*
X66447000Y-48735000I0J250000D01*
G01*
G37*
%TD.AperFunction*%
%TD*%
%TO.P,C14,1*%
%TO.N,+3V3*%
%TA.AperFunction,SMDPad,CuDef*%
G36*
G01*
X66447000Y-50767000D02*
X66447000Y-49817000D01*
G75*
G02*
X66697000Y-49567000I250000J0D01*
G01*
X67372000Y-49567000D01*
G75*
G02*
X67622000Y-49817000I0J-250000D01*
G01*
X67622000Y-50767000D01*
G75*
G02*
X67372000Y-51017000I-250000J0D01*
G01*
X66697000Y-51017000D01*
G75*
G02*
X66447000Y-50767000I0J250000D01*
G01*
G37*
%TD.AperFunction*%
%TO.P,C14,2*%
%TO.N,GND*%
%TA.AperFunction,SMDPad,CuDef*%
G36*
G01*
X68522000Y-50767000D02*
X68522000Y-49817000D01*
G75*
G02*
X68772000Y-49567000I250000J0D01*
G01*
X69447000Y-49567000D01*
G75*
G02*
X69697000Y-49817000I0J-250000D01*
G01*
X69697000Y-50767000D01*
G75*
G02*
X69447000Y-51017000I-250000J0D01*
G01*
X68772000Y-51017000D01*
G75*
G02*
X68522000Y-50767000I0J250000D01*
G01*
G37*
%TD.AperFunction*%
%TD*%
%TO.P,C12,2*%
%TO.N,GND*%
%TA.AperFunction,SMDPad,CuDef*%
G36*
G01*
X83348500Y-68359000D02*
X83348500Y-69309000D01*
G75*
G02*
X83098500Y-69559000I-250000J0D01*
G01*
X82423500Y-69559000D01*
G75*
G02*
X82173500Y-69309000I0J250000D01*
G01*
X82173500Y-68359000D01*
G75*
G02*
X82423500Y-68109000I250000J0D01*
G01*
X83098500Y-68109000D01*
G75*
G02*
X83348500Y-68359000I0J-250000D01*
G01*
G37*
%TD.AperFunction*%
%TO.P,C12,1*%
%TO.N,+12V*%
%TA.AperFunction,SMDPad,CuDef*%
G36*
G01*
X85423500Y-68359000D02*
X85423500Y-69309000D01*
G75*
G02*
X85173500Y-69559000I-250000J0D01*
G01*
X84498500Y-69559000D01*
G75*
G02*
X84248500Y-69309000I0J250000D01*
G01*
X84248500Y-68359000D01*
G75*
G02*
X84498500Y-68109000I250000J0D01*
G01*
X85173500Y-68109000D01*
G75*
G02*
X85423500Y-68359000I0J-250000D01*
G01*
G37*
%TD.AperFunction*%
%TD*%
%TO.P,C15,2*%
%TO.N,GND*%
%TA.AperFunction,SMDPad,CuDef*%
G36*
G01*
X68522000Y-52799000D02*
X68522000Y-51849000D01*
G75*
G02*
X68772000Y-51599000I250000J0D01*
G01*
X69447000Y-51599000D01*
G75*
G02*
X69697000Y-51849000I0J-250000D01*
G01*
X69697000Y-52799000D01*
G75*
G02*
X69447000Y-53049000I-250000J0D01*
G01*
X68772000Y-53049000D01*
G75*
G02*
X68522000Y-52799000I0J250000D01*
G01*
G37*
%TD.AperFunction*%
%TO.P,C15,1*%
%TO.N,+3V3*%
%TA.AperFunction,SMDPad,CuDef*%
G36*
G01*
X66447000Y-52799000D02*
X66447000Y-51849000D01*
G75*
G02*
X66697000Y-51599000I250000J0D01*
G01*
X67372000Y-51599000D01*
G75*
G02*
X67622000Y-51849000I0J-250000D01*
G01*
X67622000Y-52799000D01*
G75*
G02*
X67372000Y-53049000I-250000J0D01*
G01*
X66697000Y-53049000D01*
G75*
G02*
X66447000Y-52799000I0J250000D01*
G01*
G37*
%TD.AperFunction*%
%TD*%
%TO.P,C17,2*%
%TO.N,GND*%
%TA.AperFunction,SMDPad,CuDef*%
G36*
G01*
X64690500Y-48735000D02*
X64690500Y-47785000D01*
G75*
G02*
X64940500Y-47535000I250000J0D01*
G01*
X65615500Y-47535000D01*
G75*
G02*
X65865500Y-47785000I0J-250000D01*
G01*
X65865500Y-48735000D01*
G75*
G02*
X65615500Y-48985000I-250000J0D01*
G01*
X64940500Y-48985000D01*
G75*
G02*
X64690500Y-48735000I0J250000D01*
G01*
G37*
%TD.AperFunction*%
%TO.P,C17,1*%
%TO.N,+3V3*%
%TA.AperFunction,SMDPad,CuDef*%
G36*
G01*
X62615500Y-48735000D02*
X62615500Y-47785000D01*
G75*
G02*
X62865500Y-47535000I250000J0D01*
G01*
X63540500Y-47535000D01*
G75*
G02*
X63790500Y-47785000I0J-250000D01*
G01*
X63790500Y-48735000D01*
G75*
G02*
X63540500Y-48985000I-250000J0D01*
G01*
X62865500Y-48985000D01*
G75*
G02*
X62615500Y-48735000I0J250000D01*
G01*
G37*
%TD.AperFunction*%
%TD*%
D14*
%TO.P,H4,1*%
%TO.N,GND*%
X90281650Y-22748350D03*
X87630000Y-21650000D03*
X84978350Y-22748350D03*
X83880000Y-25400000D03*
X84978350Y-28051650D03*
X87630000Y-29150000D03*
X90281650Y-28051650D03*
X91380000Y-25400000D03*
D15*
X87630000Y-25400000D03*
%TD*%
%TO.P,C20,1*%
%TO.N,+3V3*%
%TA.AperFunction,SMDPad,CuDef*%
G36*
G01*
X62615500Y-54831000D02*
X62615500Y-53881000D01*
G75*
G02*
X62865500Y-53631000I250000J0D01*
G01*
X63540500Y-53631000D01*
G75*
G02*
X63790500Y-53881000I0J-250000D01*
G01*
X63790500Y-54831000D01*
G75*
G02*
X63540500Y-55081000I-250000J0D01*
G01*
X62865500Y-55081000D01*
G75*
G02*
X62615500Y-54831000I0J250000D01*
G01*
G37*
%TD.AperFunction*%
%TO.P,C20,2*%
%TO.N,GND*%
%TA.AperFunction,SMDPad,CuDef*%
G36*
G01*
X64690500Y-54831000D02*
X64690500Y-53881000D01*
G75*
G02*
X64940500Y-53631000I250000J0D01*
G01*
X65615500Y-53631000D01*
G75*
G02*
X65865500Y-53881000I0J-250000D01*
G01*
X65865500Y-54831000D01*
G75*
G02*
X65615500Y-55081000I-250000J0D01*
G01*
X64940500Y-55081000D01*
G75*
G02*
X64690500Y-54831000I0J250000D01*
G01*
G37*
%TD.AperFunction*%
%TD*%
D14*
%TO.P,H2,1*%
%TO.N,GND*%
X38211650Y-23002350D03*
X35560000Y-21904000D03*
X32908350Y-23002350D03*
X31810000Y-25654000D03*
X32908350Y-28305650D03*
X35560000Y-29404000D03*
X38211650Y-28305650D03*
X39310000Y-25654000D03*
D15*
X35560000Y-25654000D03*
%TD*%
%TO.P,R4,2*%
%TO.N,CAN_L1*%
%TA.AperFunction,SMDPad,CuDef*%
G36*
G01*
X74364001Y-58004000D02*
X73463999Y-58004000D01*
G75*
G02*
X73214000Y-57754001I0J249999D01*
G01*
X73214000Y-57053999D01*
G75*
G02*
X73463999Y-56804000I249999J0D01*
G01*
X74364001Y-56804000D01*
G75*
G02*
X74614000Y-57053999I0J-249999D01*
G01*
X74614000Y-57754001D01*
G75*
G02*
X74364001Y-58004000I-249999J0D01*
G01*
G37*
%TD.AperFunction*%
%TO.P,R4,1*%
%TO.N,CAN_H1*%
%TA.AperFunction,SMDPad,CuDef*%
G36*
G01*
X74364001Y-60004000D02*
X73463999Y-60004000D01*
G75*
G02*
X73214000Y-59754001I0J249999D01*
G01*
X73214000Y-59053999D01*
G75*
G02*
X73463999Y-58804000I249999J0D01*
G01*
X74364001Y-58804000D01*
G75*
G02*
X74614000Y-59053999I0J-249999D01*
G01*
X74614000Y-59754001D01*
G75*
G02*
X74364001Y-60004000I-249999J0D01*
G01*
G37*
%TD.AperFunction*%
%TD*%
%TO.P,C18,1*%
%TO.N,+3V3*%
%TA.AperFunction,SMDPad,CuDef*%
G36*
G01*
X62615500Y-50767000D02*
X62615500Y-49817000D01*
G75*
G02*
X62865500Y-49567000I250000J0D01*
G01*
X63540500Y-49567000D01*
G75*
G02*
X63790500Y-49817000I0J-250000D01*
G01*
X63790500Y-50767000D01*
G75*
G02*
X63540500Y-51017000I-250000J0D01*
G01*
X62865500Y-51017000D01*
G75*
G02*
X62615500Y-50767000I0J250000D01*
G01*
G37*
%TD.AperFunction*%
%TO.P,C18,2*%
%TO.N,GND*%
%TA.AperFunction,SMDPad,CuDef*%
G36*
G01*
X64690500Y-50767000D02*
X64690500Y-49817000D01*
G75*
G02*
X64940500Y-49567000I250000J0D01*
G01*
X65615500Y-49567000D01*
G75*
G02*
X65865500Y-49817000I0J-250000D01*
G01*
X65865500Y-50767000D01*
G75*
G02*
X65615500Y-51017000I-250000J0D01*
G01*
X64940500Y-51017000D01*
G75*
G02*
X64690500Y-50767000I0J250000D01*
G01*
G37*
%TD.AperFunction*%
%TD*%
%TO.P,H1,1*%
%TO.N,GND*%
X35560000Y-78740000D03*
D14*
X39310000Y-78740000D03*
X38211650Y-81391650D03*
X35560000Y-82490000D03*
X32908350Y-81391650D03*
X31810000Y-78740000D03*
X32908350Y-76088350D03*
X35560000Y-74990000D03*
X38211650Y-76088350D03*
%TD*%
%TO.P,C16,2*%
%TO.N,GND*%
%TA.AperFunction,SMDPad,CuDef*%
G36*
G01*
X68500500Y-54831000D02*
X68500500Y-53881000D01*
G75*
G02*
X68750500Y-53631000I250000J0D01*
G01*
X69425500Y-53631000D01*
G75*
G02*
X69675500Y-53881000I0J-250000D01*
G01*
X69675500Y-54831000D01*
G75*
G02*
X69425500Y-55081000I-250000J0D01*
G01*
X68750500Y-55081000D01*
G75*
G02*
X68500500Y-54831000I0J250000D01*
G01*
G37*
%TD.AperFunction*%
%TO.P,C16,1*%
%TO.N,+3V3*%
%TA.AperFunction,SMDPad,CuDef*%
G36*
G01*
X66425500Y-54831000D02*
X66425500Y-53881000D01*
G75*
G02*
X66675500Y-53631000I250000J0D01*
G01*
X67350500Y-53631000D01*
G75*
G02*
X67600500Y-53881000I0J-250000D01*
G01*
X67600500Y-54831000D01*
G75*
G02*
X67350500Y-55081000I-250000J0D01*
G01*
X66675500Y-55081000D01*
G75*
G02*
X66425500Y-54831000I0J250000D01*
G01*
G37*
%TD.AperFunction*%
%TD*%
%TO.P,C19,2*%
%TO.N,GND*%
%TA.AperFunction,SMDPad,CuDef*%
G36*
G01*
X64712000Y-52799000D02*
X64712000Y-51849000D01*
G75*
G02*
X64962000Y-51599000I250000J0D01*
G01*
X65637000Y-51599000D01*
G75*
G02*
X65887000Y-51849000I0J-250000D01*
G01*
X65887000Y-52799000D01*
G75*
G02*
X65637000Y-53049000I-250000J0D01*
G01*
X64962000Y-53049000D01*
G75*
G02*
X64712000Y-52799000I0J250000D01*
G01*
G37*
%TD.AperFunction*%
%TO.P,C19,1*%
%TO.N,+3V3*%
%TA.AperFunction,SMDPad,CuDef*%
G36*
G01*
X62637000Y-52799000D02*
X62637000Y-51849000D01*
G75*
G02*
X62887000Y-51599000I250000J0D01*
G01*
X63562000Y-51599000D01*
G75*
G02*
X63812000Y-51849000I0J-250000D01*
G01*
X63812000Y-52799000D01*
G75*
G02*
X63562000Y-53049000I-250000J0D01*
G01*
X62887000Y-53049000D01*
G75*
G02*
X62637000Y-52799000I0J250000D01*
G01*
G37*
%TD.AperFunction*%
%TD*%
%TO.P,FB1,1*%
%TO.N,+12V*%
%TA.AperFunction,SMDPad,CuDef*%
G36*
G01*
X85729000Y-64335998D02*
X85729000Y-67236002D01*
G75*
G02*
X85479002Y-67486000I-249998J0D01*
G01*
X84403998Y-67486000D01*
G75*
G02*
X84154000Y-67236002I0J249998D01*
G01*
X84154000Y-64335998D01*
G75*
G02*
X84403998Y-64086000I249998J0D01*
G01*
X85479002Y-64086000D01*
G75*
G02*
X85729000Y-64335998I0J-249998D01*
G01*
G37*
%TD.AperFunction*%
%TO.P,FB1,2*%
%TA.AperFunction,SMDPad,CuDef*%
G36*
G01*
X81454000Y-64335998D02*
X81454000Y-67236002D01*
G75*
G02*
X81204002Y-67486000I-249998J0D01*
G01*
X80128998Y-67486000D01*
G75*
G02*
X79879000Y-67236002I0J249998D01*
G01*
X79879000Y-64335998D01*
G75*
G02*
X80128998Y-64086000I249998J0D01*
G01*
X81204002Y-64086000D01*
G75*
G02*
X81454000Y-64335998I0J-249998D01*
G01*
G37*
%TD.AperFunction*%
%TD*%
D15*
%TO.P,H3,1*%
%TO.N,GND*%
X87884000Y-78740000D03*
D14*
X91634000Y-78740000D03*
X90535650Y-81391650D03*
X87884000Y-82490000D03*
X85232350Y-81391650D03*
X84134000Y-78740000D03*
X85232350Y-76088350D03*
X87884000Y-74990000D03*
X90535650Y-76088350D03*
%TD*%
D16*
%TO.P,J1,1*%
%TO.N,+12V*%
X89662000Y-60960000D03*
D17*
%TO.P,J1,2*%
%TO.N,GND*%
X89662000Y-57960000D03*
%TO.P,J1,3*%
%TO.N,Net-(J1-Pad3)*%
X89662000Y-54960000D03*
%TO.P,J1,4*%
%TO.N,GND*%
X89662000Y-51960000D03*
%TO.P,J1,5*%
%TO.N,+3V3*%
X89662000Y-48960000D03*
%TO.P,J1,6*%
%TO.N,GND*%
X89662000Y-45960000D03*
%TO.P,J1,7*%
%TO.N,+5V*%
X89662000Y-42960000D03*
%TO.P,J1,8*%
%TO.N,+3V3*%
X87162000Y-44460000D03*
%TO.P,J1,9*%
%TO.N,GND*%
X87162000Y-47460000D03*
%TO.P,J1,10*%
%TO.N,ADC1_IN0_AMORKI*%
X87162000Y-50460000D03*
%TO.P,J1,11*%
%TO.N,+3V3*%
X87162000Y-53460000D03*
%TO.P,J1,12*%
%TO.N,GND*%
X87162000Y-56460000D03*
%TO.P,J1,13*%
%TO.N,ADC2_IN1_AMORKI*%
X87162000Y-59460000D03*
%TO.P,J1,14*%
%TO.N,+3V3*%
X84162000Y-59460000D03*
%TO.P,J1,15*%
%TO.N,GND*%
X84162000Y-56460000D03*
%TO.P,J1,16*%
%TO.N,CAN_H1*%
X84162000Y-53460000D03*
%TO.P,J1,17*%
%TO.N,CAN_L1*%
X84162000Y-50460000D03*
%TO.P,J1,18*%
%TO.N,12C1_SCL*%
X84162000Y-47460000D03*
%TO.P,J1,19*%
%TO.N,I2C1_SDA*%
X84162000Y-44460000D03*
%TO.P,J1,20*%
%TO.N,I2C2_SCL*%
X81662000Y-42960000D03*
%TO.P,J1,21*%
%TO.N,12C2_SDA*%
X81662000Y-45960000D03*
%TO.P,J1,22*%
%TO.N,VSS_IN_1*%
X81662000Y-48960000D03*
%TO.P,J1,23*%
%TO.N,VSS_IN_2*%
X81662000Y-51960000D03*
%TO.P,J1,24*%
%TO.N,BREAK_PRESSURE_0*%
X81662000Y-54960000D03*
%TO.P,J1,25*%
%TO.N,BREAK_PRESSURE_ADC*%
X81662000Y-57960000D03*
%TO.P,J1,26*%
%TO.N,LED_GND*%
X81662000Y-60960000D03*
D18*
%TO.P,J1,MH1*%
%TO.N,N/C*%
X96162000Y-68210000D03*
%TO.P,J1,MH2*%
X96162000Y-35710000D03*
%TD*%
%TA.AperFunction,SMDPad,CuDef*%
D19*
%TO.P,JP1,1*%
%TO.N,+3V3*%
G36*
X74664000Y-44462000D02*
G01*
X75214000Y-44462000D01*
X75214000Y-44462602D01*
X75238534Y-44462602D01*
X75287365Y-44467412D01*
X75335490Y-44476984D01*
X75382445Y-44491228D01*
X75427778Y-44510005D01*
X75471051Y-44533136D01*
X75511850Y-44560396D01*
X75549779Y-44591524D01*
X75584476Y-44626221D01*
X75615604Y-44664150D01*
X75642864Y-44704949D01*
X75665995Y-44748222D01*
X75684772Y-44793555D01*
X75699016Y-44840510D01*
X75708588Y-44888635D01*
X75713398Y-44937466D01*
X75713398Y-44962000D01*
X75714000Y-44962000D01*
X75714000Y-45462000D01*
X75713398Y-45462000D01*
X75713398Y-45486534D01*
X75708588Y-45535365D01*
X75699016Y-45583490D01*
X75684772Y-45630445D01*
X75665995Y-45675778D01*
X75642864Y-45719051D01*
X75615604Y-45759850D01*
X75584476Y-45797779D01*
X75549779Y-45832476D01*
X75511850Y-45863604D01*
X75471051Y-45890864D01*
X75427778Y-45913995D01*
X75382445Y-45932772D01*
X75335490Y-45947016D01*
X75287365Y-45956588D01*
X75238534Y-45961398D01*
X75214000Y-45961398D01*
X75214000Y-45962000D01*
X74664000Y-45962000D01*
X74664000Y-44462000D01*
G37*
%TD.AperFunction*%
%TA.AperFunction,SMDPad,CuDef*%
%TO.P,JP1,3*%
%TO.N,+5V*%
G36*
X72614000Y-45961398D02*
G01*
X72589466Y-45961398D01*
X72540635Y-45956588D01*
X72492510Y-45947016D01*
X72445555Y-45932772D01*
X72400222Y-45913995D01*
X72356949Y-45890864D01*
X72316150Y-45863604D01*
X72278221Y-45832476D01*
X72243524Y-45797779D01*
X72212396Y-45759850D01*
X72185136Y-45719051D01*
X72162005Y-45675778D01*
X72143228Y-45630445D01*
X72128984Y-45583490D01*
X72119412Y-45535365D01*
X72114602Y-45486534D01*
X72114602Y-45462000D01*
X72114000Y-45462000D01*
X72114000Y-44962000D01*
X72114602Y-44962000D01*
X72114602Y-44937466D01*
X72119412Y-44888635D01*
X72128984Y-44840510D01*
X72143228Y-44793555D01*
X72162005Y-44748222D01*
X72185136Y-44704949D01*
X72212396Y-44664150D01*
X72243524Y-44626221D01*
X72278221Y-44591524D01*
X72316150Y-44560396D01*
X72356949Y-44533136D01*
X72400222Y-44510005D01*
X72445555Y-44491228D01*
X72492510Y-44476984D01*
X72540635Y-44467412D01*
X72589466Y-44462602D01*
X72614000Y-44462602D01*
X72614000Y-44462000D01*
X73164000Y-44462000D01*
X73164000Y-45962000D01*
X72614000Y-45962000D01*
X72614000Y-45961398D01*
G37*
%TD.AperFunction*%
D20*
%TO.P,JP1,2*%
%TO.N,Net-(JP1-Pad2)*%
X73914000Y-45212000D03*
%TD*%
D21*
%TO.P,JP2,2*%
%TO.N,CAN_H1*%
X71628000Y-57628000D03*
%TO.P,JP2,1*%
%TO.N,Net-(JP2-Pad1)*%
X71628000Y-58928000D03*
%TD*%
D22*
%TO.P,L1,2*%
%TO.N,+5V*%
X80492500Y-30480000D03*
%TO.P,L1,1*%
%TO.N,Net-(C3-Pad1)*%
X76708000Y-30480000D03*
%TD*%
%TO.P,U2,1*%
%TO.N,CAN1_TX*%
%TA.AperFunction,SMDPad,CuDef*%
G36*
G01*
X71224000Y-48177000D02*
X71524000Y-48177000D01*
G75*
G02*
X71674000Y-48327000I0J-150000D01*
G01*
X71674000Y-49977000D01*
G75*
G02*
X71524000Y-50127000I-150000J0D01*
G01*
X71224000Y-50127000D01*
G75*
G02*
X71074000Y-49977000I0J150000D01*
G01*
X71074000Y-48327000D01*
G75*
G02*
X71224000Y-48177000I150000J0D01*
G01*
G37*
%TD.AperFunction*%
%TO.P,U2,2*%
%TO.N,GND*%
%TA.AperFunction,SMDPad,CuDef*%
G36*
G01*
X72494000Y-48177000D02*
X72794000Y-48177000D01*
G75*
G02*
X72944000Y-48327000I0J-150000D01*
G01*
X72944000Y-49977000D01*
G75*
G02*
X72794000Y-50127000I-150000J0D01*
G01*
X72494000Y-50127000D01*
G75*
G02*
X72344000Y-49977000I0J150000D01*
G01*
X72344000Y-48327000D01*
G75*
G02*
X72494000Y-48177000I150000J0D01*
G01*
G37*
%TD.AperFunction*%
%TO.P,U2,3*%
%TO.N,+5V*%
%TA.AperFunction,SMDPad,CuDef*%
G36*
G01*
X73764000Y-48177000D02*
X74064000Y-48177000D01*
G75*
G02*
X74214000Y-48327000I0J-150000D01*
G01*
X74214000Y-49977000D01*
G75*
G02*
X74064000Y-50127000I-150000J0D01*
G01*
X73764000Y-50127000D01*
G75*
G02*
X73614000Y-49977000I0J150000D01*
G01*
X73614000Y-48327000D01*
G75*
G02*
X73764000Y-48177000I150000J0D01*
G01*
G37*
%TD.AperFunction*%
%TO.P,U2,4*%
%TO.N,CAN1_RX*%
%TA.AperFunction,SMDPad,CuDef*%
G36*
G01*
X75034000Y-48177000D02*
X75334000Y-48177000D01*
G75*
G02*
X75484000Y-48327000I0J-150000D01*
G01*
X75484000Y-49977000D01*
G75*
G02*
X75334000Y-50127000I-150000J0D01*
G01*
X75034000Y-50127000D01*
G75*
G02*
X74884000Y-49977000I0J150000D01*
G01*
X74884000Y-48327000D01*
G75*
G02*
X75034000Y-48177000I150000J0D01*
G01*
G37*
%TD.AperFunction*%
%TO.P,U2,5*%
%TO.N,Net-(U2-Pad5)*%
%TA.AperFunction,SMDPad,CuDef*%
G36*
G01*
X75034000Y-53127000D02*
X75334000Y-53127000D01*
G75*
G02*
X75484000Y-53277000I0J-150000D01*
G01*
X75484000Y-54927000D01*
G75*
G02*
X75334000Y-55077000I-150000J0D01*
G01*
X75034000Y-55077000D01*
G75*
G02*
X74884000Y-54927000I0J150000D01*
G01*
X74884000Y-53277000D01*
G75*
G02*
X75034000Y-53127000I150000J0D01*
G01*
G37*
%TD.AperFunction*%
%TO.P,U2,6*%
%TO.N,CAN_L1*%
%TA.AperFunction,SMDPad,CuDef*%
G36*
G01*
X73764000Y-53127000D02*
X74064000Y-53127000D01*
G75*
G02*
X74214000Y-53277000I0J-150000D01*
G01*
X74214000Y-54927000D01*
G75*
G02*
X74064000Y-55077000I-150000J0D01*
G01*
X73764000Y-55077000D01*
G75*
G02*
X73614000Y-54927000I0J150000D01*
G01*
X73614000Y-53277000D01*
G75*
G02*
X73764000Y-53127000I150000J0D01*
G01*
G37*
%TD.AperFunction*%
%TO.P,U2,7*%
%TO.N,CAN_H1*%
%TA.AperFunction,SMDPad,CuDef*%
G36*
G01*
X72494000Y-53127000D02*
X72794000Y-53127000D01*
G75*
G02*
X72944000Y-53277000I0J-150000D01*
G01*
X72944000Y-54927000D01*
G75*
G02*
X72794000Y-55077000I-150000J0D01*
G01*
X72494000Y-55077000D01*
G75*
G02*
X72344000Y-54927000I0J150000D01*
G01*
X72344000Y-53277000D01*
G75*
G02*
X72494000Y-53127000I150000J0D01*
G01*
G37*
%TD.AperFunction*%
%TO.P,U2,8*%
%TO.N,GND*%
%TA.AperFunction,SMDPad,CuDef*%
G36*
G01*
X71224000Y-53127000D02*
X71524000Y-53127000D01*
G75*
G02*
X71674000Y-53277000I0J-150000D01*
G01*
X71674000Y-54927000D01*
G75*
G02*
X71524000Y-55077000I-150000J0D01*
G01*
X71224000Y-55077000D01*
G75*
G02*
X71074000Y-54927000I0J150000D01*
G01*
X71074000Y-53277000D01*
G75*
G02*
X71224000Y-53127000I150000J0D01*
G01*
G37*
%TD.AperFunction*%
%TD*%
D23*
%TO.P,BJT1,1*%
%TO.N,Net-(BJT1-Pad1)*%
X44130000Y-62850000D03*
%TO.P,BJT1,2*%
%TO.N,GND_SPK*%
X44130000Y-64150000D03*
%TO.P,BJT1,3*%
%TO.N,Net-(BJT1-Pad3)*%
X42230000Y-63500000D03*
%TD*%
D24*
%TO.P,IC1,1*%
%TO.N,Net-(IC1-Pad1)*%
X43020000Y-73660000D03*
D25*
%TO.P,IC1,2*%
%TO.N,Net-(2channel_pot1-Pad2)*%
X43020000Y-76200000D03*
%TO.P,IC1,3*%
%TO.N,Net-(IC1-Pad3)*%
X43020000Y-78740000D03*
%TO.P,IC1,4*%
%TO.N,Net-(IC1-Pad4)*%
X43020000Y-81280000D03*
%TO.P,IC1,5*%
%TO.N,Net-(IC1-Pad5)*%
X50960000Y-81280000D03*
%TO.P,IC1,6*%
%TO.N,V_OUT*%
X50960000Y-78740000D03*
%TO.P,IC1,7*%
%TO.N,Net-(IC1-Pad7)*%
X50960000Y-76200000D03*
%TO.P,IC1,8*%
%TO.N,Net-(IC1-Pad8)*%
X50960000Y-73660000D03*
%TD*%
D24*
%TO.P,IC2,1*%
%TO.N,Net-(IC2-Pad1)*%
X37940000Y-39370000D03*
D25*
%TO.P,IC2,2*%
%TO.N,Net-(IC2-Pad2)*%
X37940000Y-41910000D03*
%TO.P,IC2,3*%
%TO.N,Net-(C22-Pad1)*%
X37940000Y-44450000D03*
%TO.P,IC2,4*%
%TO.N,Net-(IC2-Pad4)*%
X37940000Y-46990000D03*
%TO.P,IC2,5*%
%TO.N,Net-(IC2-Pad5)*%
X45880000Y-46990000D03*
%TO.P,IC2,6*%
%TO.N,Net-(IC2-Pad6)*%
X45880000Y-44450000D03*
%TO.P,IC2,7*%
%TO.N,Net-(IC2-Pad7)*%
X45880000Y-41910000D03*
%TO.P,IC2,8*%
%TO.N,Net-(IC2-Pad8)*%
X45880000Y-39370000D03*
%TD*%
%TO.P,IC3,8*%
%TO.N,Net-(IC3-Pad8)*%
X47150000Y-62230000D03*
%TO.P,IC3,7*%
%TO.N,Net-(IC3-Pad7)*%
X47150000Y-64770000D03*
%TO.P,IC3,6*%
%TO.N,Net-(2channel_pot1-Pad1)*%
X47150000Y-67310000D03*
%TO.P,IC3,5*%
%TO.N,Net-(IC3-Pad5)*%
X47150000Y-69850000D03*
%TO.P,IC3,4*%
%TO.N,Net-(IC3-Pad4)*%
X39210000Y-69850000D03*
%TO.P,IC3,3*%
%TO.N,Net-(C11-Pad1)*%
X39210000Y-67310000D03*
%TO.P,IC3,2*%
%TO.N,Net-(IC3-Pad2)*%
X39210000Y-64770000D03*
D24*
%TO.P,IC3,1*%
%TO.N,Net-(IC3-Pad1)*%
X39210000Y-62230000D03*
%TD*%
D26*
%TO.P,J2,1*%
%TO.N,SWCLK*%
X67310000Y-26670000D03*
D27*
%TO.P,J2,2*%
%TO.N,+3V3*%
X67310000Y-24130000D03*
%TO.P,J2,3*%
%TO.N,SWDIO*%
X69850000Y-26670000D03*
%TO.P,J2,4*%
%TO.N,+5V*%
X69850000Y-24130000D03*
%TO.P,J2,5*%
%TO.N,NRST*%
X72390000Y-26670000D03*
%TO.P,J2,6*%
%TO.N,GND*%
X72390000Y-24130000D03*
%TO.P,J2,7*%
%TO.N,SWO*%
X74930000Y-26670000D03*
%TO.P,J2,8*%
%TO.N,GND*%
X74930000Y-24130000D03*
%TO.P,J2,9*%
%TO.N,Net-(J2-Pad9)*%
X77470000Y-26670000D03*
%TO.P,J2,10*%
%TO.N,GND*%
X77470000Y-24130000D03*
%TD*%
D28*
%TO.P,Mini_DIN_IN1,1*%
%TO.N,V_MIC*%
X30480000Y-44450000D03*
D29*
%TO.P,Mini_DIN_IN1,2*%
%TO.N,V_ANC*%
X30480000Y-41850000D03*
%TO.P,Mini_DIN_IN1,3*%
%TO.N,GND_MIC&ANC*%
X30480000Y-46500000D03*
%TO.P,Mini_DIN_IN1,4*%
%TO.N,GND_SPK*%
X32970000Y-44450000D03*
%TO.P,Mini_DIN_IN1,5*%
%TO.N,SPK+*%
X30480000Y-39800000D03*
%TO.P,Mini_DIN_IN1,6*%
%TO.N,TX_DATA*%
X32970000Y-46500000D03*
%TO.P,Mini_DIN_IN1,7*%
%TO.N,Net-(Mini_DIN_IN1-Pad7)*%
X32970000Y-42340000D03*
%TO.P,Mini_DIN_IN1,8*%
%TO.N,Net-(Mini_DIN_IN1-Pad8)*%
X32970000Y-39800000D03*
D30*
%TO.P,Mini_DIN_IN1,MH1*%
%TO.N,Net-(Mini_DIN_IN1-PadMH1)*%
X27480000Y-36390000D03*
%TO.P,Mini_DIN_IN1,MH2*%
%TO.N,Net-(Mini_DIN_IN1-PadMH2)*%
X26670000Y-43150000D03*
%TO.P,Mini_DIN_IN1,MH3*%
%TO.N,Net-(Mini_DIN_IN1-PadMH3)*%
X27480000Y-49910000D03*
%TD*%
D31*
%TO.P,PS1,6*%
%TO.N,Net-(C3-Pad1)*%
X71648000Y-35626000D03*
%TO.P,PS1,5*%
%TO.N,+12V*%
X71648000Y-36576000D03*
%TO.P,PS1,4*%
%TO.N,Net-(PS1-Pad4)*%
X71648000Y-37526000D03*
%TO.P,PS1,3*%
%TO.N,Net-(PS1-Pad3)*%
X74148000Y-37526000D03*
%TO.P,PS1,2*%
%TO.N,GND*%
X74148000Y-36576000D03*
%TO.P,PS1,1*%
%TO.N,Net-(C3-Pad2)*%
X74148000Y-35626000D03*
%TD*%
D32*
%TO.P,IC4,1*%
%TO.N,Net-(IC4-Pad1)*%
X74310000Y-79740000D03*
%TO.P,IC4,2*%
%TO.N,GND*%
X73660000Y-79740000D03*
%TO.P,IC4,3*%
%TO.N,BREAK_PRESSURE_0*%
X73010000Y-79740000D03*
%TO.P,IC4,4*%
%TO.N,Net-(IC4-Pad4)*%
X73010000Y-77740000D03*
%TO.P,IC4,5*%
%TO.N,+5V*%
X74310000Y-77740000D03*
%TD*%
%TO.P,R20,1*%
%TO.N,Net-(IC4-Pad1)*%
%TA.AperFunction,SMDPad,CuDef*%
G36*
G01*
X72225001Y-83295000D02*
X72225001Y-82394998D01*
G75*
G02*
X72475000Y-82144999I249999J0D01*
G01*
X73175002Y-82144999D01*
G75*
G02*
X73425001Y-82394998I0J-249999D01*
G01*
X73425001Y-83295000D01*
G75*
G02*
X73175002Y-83544999I-249999J0D01*
G01*
X72475000Y-83544999D01*
G75*
G02*
X72225001Y-83295000I0J249999D01*
G01*
G37*
%TD.AperFunction*%
%TO.P,R20,2*%
%TO.N,Net-(Q1-Pad1)*%
%TA.AperFunction,SMDPad,CuDef*%
G36*
G01*
X74225001Y-83295000D02*
X74225001Y-82394998D01*
G75*
G02*
X74475000Y-82144999I249999J0D01*
G01*
X75175002Y-82144999D01*
G75*
G02*
X75425001Y-82394998I0J-249999D01*
G01*
X75425001Y-83295000D01*
G75*
G02*
X75175002Y-83544999I-249999J0D01*
G01*
X74475000Y-83544999D01*
G75*
G02*
X74225001Y-83295000I0J249999D01*
G01*
G37*
%TD.AperFunction*%
%TD*%
%TO.P,R21,2*%
%TO.N,PTT*%
%TA.AperFunction,SMDPad,CuDef*%
G36*
G01*
X51250001Y-60560000D02*
X50349999Y-60560000D01*
G75*
G02*
X50100000Y-60310001I0J249999D01*
G01*
X50100000Y-59609999D01*
G75*
G02*
X50349999Y-59360000I249999J0D01*
G01*
X51250001Y-59360000D01*
G75*
G02*
X51500000Y-59609999I0J-249999D01*
G01*
X51500000Y-60310001D01*
G75*
G02*
X51250001Y-60560000I-249999J0D01*
G01*
G37*
%TD.AperFunction*%
%TO.P,R21,1*%
%TO.N,Net-(BJT1-Pad1)*%
%TA.AperFunction,SMDPad,CuDef*%
G36*
G01*
X51250001Y-62560000D02*
X50349999Y-62560000D01*
G75*
G02*
X50100000Y-62310001I0J249999D01*
G01*
X50100000Y-61609999D01*
G75*
G02*
X50349999Y-61360000I249999J0D01*
G01*
X51250001Y-61360000D01*
G75*
G02*
X51500000Y-61609999I0J-249999D01*
G01*
X51500000Y-62310001D01*
G75*
G02*
X51250001Y-62560000I-249999J0D01*
G01*
G37*
%TD.AperFunction*%
%TD*%
%TO.P,R22,1*%
%TO.N,GND_MIC&ANC*%
%TA.AperFunction,SMDPad,CuDef*%
G36*
G01*
X53790001Y-62560000D02*
X52889999Y-62560000D01*
G75*
G02*
X52640000Y-62310001I0J249999D01*
G01*
X52640000Y-61609999D01*
G75*
G02*
X52889999Y-61360000I249999J0D01*
G01*
X53790001Y-61360000D01*
G75*
G02*
X54040000Y-61609999I0J-249999D01*
G01*
X54040000Y-62310001D01*
G75*
G02*
X53790001Y-62560000I-249999J0D01*
G01*
G37*
%TD.AperFunction*%
%TO.P,R22,2*%
%TO.N,Net-(BJT1-Pad3)*%
%TA.AperFunction,SMDPad,CuDef*%
G36*
G01*
X53790001Y-60560000D02*
X52889999Y-60560000D01*
G75*
G02*
X52640000Y-60310001I0J249999D01*
G01*
X52640000Y-59609999D01*
G75*
G02*
X52889999Y-59360000I249999J0D01*
G01*
X53790001Y-59360000D01*
G75*
G02*
X54040000Y-59609999I0J-249999D01*
G01*
X54040000Y-60310001D01*
G75*
G02*
X53790001Y-60560000I-249999J0D01*
G01*
G37*
%TD.AperFunction*%
%TD*%
D33*
%TO.P,Q1,1*%
%TO.N,Net-(Q1-Pad1)*%
X78420000Y-79840000D03*
%TO.P,Q1,2*%
%TO.N,GND*%
X76520000Y-79840000D03*
%TO.P,Q1,3*%
%TO.N,LED_GND*%
X77470000Y-77640000D03*
%TD*%
D34*
%TO.P,D4,2*%
%TO.N,+5V*%
X81156000Y-34798000D03*
%TO.P,D4,1*%
%TO.N,Net-(C3-Pad2)*%
X78356000Y-34798000D03*
%TD*%
D35*
%TO.N,GND*%
X77216000Y-35814000D03*
X57658000Y-35052000D03*
X82804000Y-38354000D03*
X72136000Y-60452000D03*
X76200000Y-41910000D03*
X77216000Y-38608000D03*
X58420000Y-40386000D03*
X56642000Y-42164000D03*
X57658000Y-37084000D03*
X75669669Y-58397669D03*
X66802000Y-63962000D03*
X66802000Y-66040000D03*
X69088000Y-41148000D03*
X68834000Y-31496000D03*
X60960000Y-66040000D03*
X52070000Y-33020000D03*
%TO.N,+3.3VA*%
X56896000Y-54610000D03*
X52578000Y-54102000D03*
%TO.N,VSS_IN_1*%
X77990000Y-48006000D03*
%TO.N,VSS_IN_2*%
X77978000Y-52578000D03*
%TO.N,Net-(2.2uF2-Pad2)*%
X76708000Y-44196000D03*
X75692000Y-47244000D03*
%TO.N,+3V3*%
X74930000Y-46482000D03*
X80772000Y-40200990D03*
X78232000Y-41910000D03*
%TO.N,RCC_OSC_IN*%
X55118000Y-53848000D03*
X59690000Y-48624740D03*
%TO.N,+5V*%
X70358000Y-40132000D03*
X79502000Y-40132000D03*
X85852000Y-42672000D03*
X84328000Y-40284999D03*
X74930000Y-74930000D03*
%TO.N,+12V*%
X67310000Y-37592000D03*
%TO.N,CAN_L1*%
X79502000Y-54864000D03*
%TO.N,12C1_SCL*%
X77724000Y-44958000D03*
%TO.N,I2C2_SCL*%
X58420000Y-64770000D03*
X71120000Y-67310000D03*
%TO.N,12C2_SDA*%
X74930000Y-60960000D03*
X58420000Y-66040000D03*
X76962000Y-53086000D03*
X79756000Y-50038000D03*
X72390000Y-67310000D03*
X72607023Y-61177023D03*
%TO.N,SWCLK*%
X68580000Y-43180000D03*
%TO.N,SWDIO*%
X62230000Y-45720000D03*
X71120000Y-52070000D03*
X74930000Y-52070000D03*
%TO.N,NRST*%
X58512546Y-50800000D03*
%TO.N,SWO*%
X60960000Y-26670000D03*
X67310000Y-43180000D03*
%TO.N,CAN1_RX*%
X64770000Y-41910000D03*
%TO.N,CAN1_TX*%
X64050920Y-42660000D03*
%TO.N,GND_MIC&ANC*%
X36830000Y-59690000D03*
X45897500Y-59512500D03*
%TO.N,V_ANC*%
X38100000Y-33020000D03*
%TO.N,V_MIC*%
X36830000Y-69850000D03*
%TO.N,PTT*%
X57450000Y-51500000D03*
%TO.N,BREAK_PRESSURE_0*%
X73660000Y-63500000D03*
X60960000Y-57150000D03*
X73660000Y-67310000D03*
%TO.N,ADC1_IN0_AMORKI*%
X58166000Y-55372000D03*
X85598000Y-62230000D03*
%TO.N,ADC2_IN1_AMORKI*%
X59436000Y-54864000D03*
%TO.N,BREAK_PRESSURE_ADC*%
X74930000Y-64692000D03*
X69850000Y-64770000D03*
%TO.N,LED_GND*%
X74930000Y-67310000D03*
%TO.N,Net-(Q1-Pad1)*%
X80010000Y-78740000D03*
X76200000Y-81280000D03*
%TD*%
D36*
%TO.N,GND*%
X80518000Y-37084000D02*
X80772000Y-36830000D01*
X77216000Y-35814000D02*
X77089000Y-35941000D01*
X82825500Y-36851500D02*
X82804000Y-36873000D01*
X84836000Y-36851500D02*
X82825500Y-36851500D01*
X82761000Y-36830000D02*
X82804000Y-36873000D01*
X80772000Y-36830000D02*
X82761000Y-36830000D01*
X82804000Y-38354000D02*
X82804000Y-36873000D01*
X69342000Y-54102000D02*
X69088000Y-54356000D01*
X71374000Y-54102000D02*
X69342000Y-54102000D01*
X80978998Y-56460000D02*
X84162000Y-56460000D01*
X84162000Y-56460000D02*
X87162000Y-56460000D01*
X88662000Y-57960000D02*
X89662000Y-57960000D01*
X87162000Y-56460000D02*
X88662000Y-57960000D01*
X86478998Y-51960000D02*
X89662000Y-51960000D01*
X85686999Y-52751999D02*
X86478998Y-51960000D01*
X85686999Y-54364999D02*
X85686999Y-52751999D01*
X87162000Y-55840000D02*
X85686999Y-54364999D01*
X87162000Y-56460000D02*
X87162000Y-55840000D01*
X85686999Y-51168001D02*
X86478998Y-51960000D01*
X85686999Y-48935001D02*
X85686999Y-51168001D01*
X87162000Y-47460000D02*
X85686999Y-48935001D01*
X88662000Y-45960000D02*
X89662000Y-45960000D01*
X87162000Y-47460000D02*
X88662000Y-45960000D01*
X69109500Y-52324000D02*
X69109500Y-50292000D01*
X69109500Y-50292000D02*
X69109500Y-48260000D01*
X69088000Y-52345500D02*
X69109500Y-52324000D01*
X69088000Y-54356000D02*
X69088000Y-52345500D01*
X65278000Y-52345500D02*
X65299500Y-52324000D01*
X65278000Y-54356000D02*
X65278000Y-52345500D01*
X65278000Y-52302500D02*
X65299500Y-52324000D01*
X65278000Y-50292000D02*
X65278000Y-52302500D01*
X65278000Y-48260000D02*
X65278000Y-48514000D01*
X65278000Y-48514000D02*
X65278000Y-50292000D01*
X66353010Y-47184990D02*
X65278000Y-48260000D01*
X68034490Y-47184990D02*
X66353010Y-47184990D01*
X69109500Y-48260000D02*
X68034490Y-47184990D01*
X77216000Y-40894000D02*
X77216000Y-38608000D01*
X76200000Y-41910000D02*
X77216000Y-40894000D01*
X57658000Y-37084000D02*
X57658000Y-35052000D01*
X65278000Y-48260000D02*
X65278000Y-47244000D01*
X66802000Y-64262000D02*
X66802000Y-66040000D01*
X65532000Y-34798000D02*
X68834000Y-31496000D01*
X65260000Y-34798000D02*
X65532000Y-34798000D01*
X60960000Y-66040000D02*
X66802000Y-66040000D01*
X58750001Y-33959999D02*
X57658000Y-35052000D01*
X64421999Y-33959999D02*
X58750001Y-33959999D01*
X65260000Y-34798000D02*
X64421999Y-33959999D01*
X72644000Y-49152000D02*
X72644000Y-47244000D01*
X72644000Y-47244000D02*
X72143990Y-46743990D01*
X70668776Y-46743990D02*
X69609746Y-45684960D01*
X72143990Y-46743990D02*
X70668776Y-46743990D01*
X69088000Y-42577998D02*
X69088000Y-41148000D01*
X69609746Y-43099744D02*
X69088000Y-42577998D01*
X69609746Y-45684960D02*
X69609746Y-43099744D01*
X52070000Y-33020000D02*
X53340000Y-33020000D01*
X71857022Y-60730978D02*
X72136000Y-60452000D01*
X72254989Y-61934991D02*
X71857022Y-61537024D01*
X71857022Y-61537024D02*
X71857022Y-60730978D01*
X75065011Y-61934991D02*
X72254989Y-61934991D01*
X76069668Y-60930334D02*
X75065011Y-61934991D01*
X76069668Y-58797668D02*
X76069668Y-60930334D01*
X75669669Y-58397669D02*
X76069668Y-58797668D01*
X76052880Y-35814000D02*
X77216000Y-35814000D01*
X75290880Y-36576000D02*
X76052880Y-35814000D01*
X74148000Y-36576000D02*
X75290880Y-36576000D01*
X73660000Y-79034998D02*
X73660000Y-79740000D01*
X73954998Y-78740000D02*
X73660000Y-79034998D01*
D37*
X74918002Y-66040000D02*
X66802000Y-66040000D01*
X77712002Y-68834000D02*
X74918002Y-66040000D01*
X82761000Y-68834000D02*
X77712002Y-68834000D01*
X82761000Y-73617000D02*
X87884000Y-78740000D01*
X82761000Y-68834000D02*
X82761000Y-73617000D01*
D36*
X73954998Y-78740000D02*
X74665002Y-78740000D01*
D37*
X78762331Y-58397669D02*
X75669669Y-58397669D01*
X80700000Y-56460000D02*
X78762331Y-58397669D01*
X80978998Y-56460000D02*
X80700000Y-56460000D01*
X62484000Y-44450000D02*
X58928000Y-44450000D01*
X65278000Y-47244000D02*
X62484000Y-44450000D01*
X58928000Y-44450000D02*
X56642000Y-42164000D01*
X56642000Y-42164000D02*
X58420000Y-40386000D01*
X53340000Y-35871685D02*
X53340000Y-33020000D01*
X57854315Y-40386000D02*
X53340000Y-35871685D01*
X58420000Y-40386000D02*
X57854315Y-40386000D01*
X71091998Y-60452000D02*
X72136000Y-60452000D01*
X69088000Y-58448002D02*
X71091998Y-60452000D01*
X69088000Y-54356000D02*
X69088000Y-58448002D01*
X77320001Y-80640001D02*
X76520000Y-79840000D01*
X85983999Y-80640001D02*
X77320001Y-80640001D01*
X87884000Y-78740000D02*
X85983999Y-80640001D01*
D36*
X75765002Y-79840000D02*
X74665002Y-78740000D01*
X76520000Y-79840000D02*
X75765002Y-79840000D01*
%TO.N,+3.3VA*%
X56896000Y-54610000D02*
X53594000Y-54610000D01*
X53086000Y-54610000D02*
X52578000Y-54102000D01*
X53594000Y-54610000D02*
X53086000Y-54610000D01*
%TO.N,VSS_IN_1*%
X80708000Y-48006000D02*
X81662000Y-48960000D01*
X77990000Y-48006000D02*
X80708000Y-48006000D01*
%TO.N,VSS_IN_2*%
X81044000Y-52578000D02*
X81662000Y-51960000D01*
X77978000Y-52578000D02*
X81044000Y-52578000D01*
%TO.N,Net-(2.2uF2-Pad2)*%
X76708000Y-46228000D02*
X75692000Y-47244000D01*
X76708000Y-44196000D02*
X76708000Y-46228000D01*
%TO.N,+3V3*%
X87162000Y-53460000D02*
X87162000Y-53554000D01*
X74930000Y-45496000D02*
X75214000Y-45212000D01*
X74930000Y-46482000D02*
X74930000Y-45496000D01*
X80359693Y-40534989D02*
X78984682Y-41910000D01*
X80623011Y-40534989D02*
X80359693Y-40534989D01*
X80772000Y-40386000D02*
X80623011Y-40534989D01*
X80772000Y-40132000D02*
X80772000Y-40386000D01*
X78984682Y-41910000D02*
X78232000Y-41910000D01*
X63203000Y-52345500D02*
X63224500Y-52324000D01*
X63203000Y-54356000D02*
X63203000Y-52345500D01*
X63224500Y-50313500D02*
X63203000Y-50292000D01*
X63224500Y-52324000D02*
X63224500Y-50313500D01*
X63203000Y-50292000D02*
X63203000Y-48260000D01*
X67034500Y-48260000D02*
X67034500Y-50292000D01*
X67034500Y-50292000D02*
X67034500Y-52324000D01*
X67034500Y-54334500D02*
X67013000Y-54356000D01*
X67034500Y-52324000D02*
X67034500Y-54334500D01*
X65937990Y-55431010D02*
X67013000Y-54356000D01*
X64278010Y-55431010D02*
X65937990Y-55431010D01*
X63203000Y-54356000D02*
X64278010Y-55431010D01*
%TO.N,RCC_OSC_IN*%
X59690000Y-49276000D02*
X59690000Y-48624740D01*
X55118000Y-53848000D02*
X57912000Y-53848000D01*
X59690000Y-52070000D02*
X59690000Y-49276000D01*
X57912000Y-53848000D02*
X59690000Y-52070000D01*
%TO.N,Net-(C3-Pad1)*%
X70104000Y-32004000D02*
X67310000Y-34798000D01*
X71882000Y-32004000D02*
X70104000Y-32004000D01*
X73406000Y-30480000D02*
X71882000Y-32004000D01*
X76708000Y-30480000D02*
X73406000Y-30480000D01*
X70748000Y-35626000D02*
X71648000Y-35626000D01*
X70423000Y-35951000D02*
X70748000Y-35626000D01*
X68463000Y-35951000D02*
X67310000Y-34798000D01*
X70423000Y-35951000D02*
X68463000Y-35951000D01*
%TO.N,+5V*%
X82825500Y-34776500D02*
X82804000Y-34798000D01*
X84836000Y-34776500D02*
X82825500Y-34776500D01*
D37*
X85830500Y-34776500D02*
X84836000Y-34776500D01*
X85509999Y-39204001D02*
X86614000Y-38100000D01*
X86614000Y-35560000D02*
X85830500Y-34776500D01*
X82053998Y-38862000D02*
X82395999Y-39204001D01*
X86614000Y-38100000D02*
X86614000Y-35560000D01*
X80740000Y-38862000D02*
X82053998Y-38862000D01*
X80802500Y-34776500D02*
X80781000Y-34798000D01*
X79502000Y-40100000D02*
X80740000Y-38862000D01*
X79502000Y-40132000D02*
X79502000Y-40100000D01*
X89374000Y-42672000D02*
X85852000Y-42672000D01*
X89662000Y-42960000D02*
X89374000Y-42672000D01*
X84239999Y-39204001D02*
X85509999Y-39204001D01*
X84328000Y-39292002D02*
X84239999Y-39204001D01*
X84328000Y-40284999D02*
X84328000Y-39292002D01*
X82395999Y-39204001D02*
X84239999Y-39204001D01*
X72614000Y-45212000D02*
X72060630Y-44658630D01*
X72060630Y-44658630D02*
X72060630Y-43509370D01*
X70358000Y-41921966D02*
X70358000Y-40132000D01*
X71945404Y-43509370D02*
X70358000Y-41921966D01*
X72060630Y-43509370D02*
X71945404Y-43509370D01*
D36*
X69850000Y-24130000D02*
X71120000Y-22860000D01*
X80492500Y-25376498D02*
X80492500Y-30480000D01*
X77976002Y-22860000D02*
X80492500Y-25376498D01*
X71120000Y-22860000D02*
X77976002Y-22860000D01*
X74310000Y-75550000D02*
X74930000Y-74930000D01*
X74310000Y-77740000D02*
X74310000Y-75550000D01*
D38*
X74110755Y-49627010D02*
X74249883Y-49487882D01*
X73717245Y-49627010D02*
X74110755Y-49627010D01*
X73438990Y-49348755D02*
X73717245Y-49627010D01*
X73438990Y-46784582D02*
X73438990Y-49348755D01*
X72614000Y-45959592D02*
X73438990Y-46784582D01*
X72614000Y-45212000D02*
X72614000Y-45959592D01*
D37*
X81177500Y-34776500D02*
X81156000Y-34798000D01*
X84836000Y-34776500D02*
X81177500Y-34776500D01*
X81156000Y-31143500D02*
X80492500Y-30480000D01*
X81156000Y-34798000D02*
X81156000Y-31143500D01*
%TO.N,+12V*%
X71628000Y-39686000D02*
X70423000Y-38481000D01*
X71628000Y-41402000D02*
X71628000Y-39686000D01*
X84836000Y-65891500D02*
X84941500Y-65786000D01*
X84836000Y-68834000D02*
X84836000Y-65891500D01*
D39*
X84941500Y-65680500D02*
X89662000Y-60960000D01*
X84941500Y-65786000D02*
X84941500Y-65680500D01*
X84941500Y-65786000D02*
X80666500Y-65786000D01*
X90478001Y-41259999D02*
X80660001Y-41259999D01*
X80660001Y-41259999D02*
X78994000Y-42926000D01*
X91362001Y-42143999D02*
X90478001Y-41259999D01*
X91362001Y-59259999D02*
X91362001Y-42143999D01*
X89662000Y-60960000D02*
X91362001Y-59259999D01*
X78994000Y-42926000D02*
X72644000Y-42926000D01*
X71628000Y-41910000D02*
X71628000Y-41402000D01*
X72644000Y-42926000D02*
X71628000Y-41910000D01*
X68199000Y-38481000D02*
X67310000Y-37592000D01*
X70423000Y-38481000D02*
X68199000Y-38481000D01*
D37*
X70423000Y-37040998D02*
X70423000Y-38481000D01*
X70887998Y-36576000D02*
X70423000Y-37040998D01*
X71648000Y-36576000D02*
X70887998Y-36576000D01*
D36*
%TO.N,CAN_H1*%
X72644000Y-54102000D02*
X72644000Y-55372000D01*
X71628000Y-56388000D02*
X71628000Y-57628000D01*
X72644000Y-55372000D02*
X71628000Y-56388000D01*
X80602997Y-53836001D02*
X80978998Y-53460000D01*
X76601999Y-53836001D02*
X80602997Y-53836001D01*
X75542988Y-52776990D02*
X76601999Y-53836001D01*
X72994010Y-52776990D02*
X75542988Y-52776990D01*
X72644000Y-53127000D02*
X72994010Y-52776990D01*
X80978998Y-53460000D02*
X84162000Y-53460000D01*
X72644000Y-54102000D02*
X72644000Y-53127000D01*
X71628000Y-57628000D02*
X72489454Y-57628000D01*
X74121110Y-58903990D02*
X74267560Y-59050440D01*
X73765444Y-58903990D02*
X74121110Y-58903990D01*
X72489454Y-57628000D02*
X73765444Y-58903990D01*
%TO.N,CAN_L1*%
X73914000Y-54102000D02*
X73914000Y-57404000D01*
X74264010Y-55427010D02*
X78938990Y-55427010D01*
X78938990Y-55427010D02*
X79502000Y-54864000D01*
X73914000Y-55077000D02*
X74264010Y-55427010D01*
X73914000Y-54102000D02*
X73914000Y-55077000D01*
%TO.N,12C1_SCL*%
X84137001Y-47435001D02*
X84162000Y-47460000D01*
X80201001Y-47435001D02*
X84137001Y-47435001D01*
X77724000Y-44958000D02*
X79248000Y-44958000D01*
X79248000Y-44958000D02*
X80010000Y-45720000D01*
X80010000Y-47244000D02*
X80201001Y-47435001D01*
X80010000Y-45720000D02*
X80010000Y-47244000D01*
%TO.N,I2C2_SCL*%
X58420000Y-64770000D02*
X60960000Y-67310000D01*
X60960000Y-67310000D02*
X71120000Y-67310000D01*
X71120000Y-67310000D02*
X71120000Y-67310000D01*
%TO.N,12C2_SDA*%
X79407998Y-50038000D02*
X79756000Y-50038000D01*
X76962000Y-52483998D02*
X79407998Y-50038000D01*
X76962000Y-53086000D02*
X76962000Y-52483998D01*
X58420000Y-66040000D02*
X60960000Y-68580000D01*
X60960000Y-68580000D02*
X71120000Y-68580000D01*
X71120000Y-68580000D02*
X72390000Y-67310000D01*
X72390000Y-67310000D02*
X72390000Y-67310000D01*
X74712977Y-61177023D02*
X74930000Y-60960000D01*
X72607023Y-61177023D02*
X74712977Y-61177023D01*
%TO.N,SWCLK*%
X56907999Y-32554881D02*
X62792880Y-26670000D01*
X62792880Y-26670000D02*
X67310000Y-26670000D01*
X56907999Y-37444001D02*
X56907999Y-32554881D01*
X68580000Y-43180000D02*
X66040000Y-40640000D01*
X66040000Y-40640000D02*
X63500000Y-40640000D01*
X63500000Y-40640000D02*
X60960000Y-38100000D01*
X57563998Y-38100000D02*
X56907999Y-37444001D01*
X60960000Y-38100000D02*
X57563998Y-38100000D01*
%TO.N,SWDIO*%
X74930000Y-52070000D02*
X71120000Y-52070000D01*
X68649999Y-25469999D02*
X69850000Y-26670000D01*
X58509999Y-25469999D02*
X68649999Y-25469999D01*
X51319999Y-32659999D02*
X58509999Y-25469999D01*
X51319999Y-37952001D02*
X51319999Y-32659999D01*
X59087998Y-45720000D02*
X51319999Y-37952001D01*
X62230000Y-45720000D02*
X59087998Y-45720000D01*
%TO.N,NRST*%
X71050001Y-25330001D02*
X72390000Y-26670000D01*
X69273999Y-25330001D02*
X71050001Y-25330001D01*
X68649999Y-24706001D02*
X69273999Y-25330001D01*
X69273999Y-22929999D02*
X68649999Y-23553999D01*
X60342879Y-22929999D02*
X69273999Y-22929999D01*
X68649999Y-23553999D02*
X68649999Y-24706001D01*
X50800000Y-38139122D02*
X50800000Y-32472878D01*
X58512546Y-45851668D02*
X50800000Y-38139122D01*
X50800000Y-32472878D02*
X60342879Y-22929999D01*
X58512546Y-50800000D02*
X58512546Y-45851668D01*
%TO.N,SWO*%
X74166002Y-26670000D02*
X74930000Y-26670000D01*
X60887880Y-27867880D02*
X60887880Y-26742120D01*
X56407989Y-32347771D02*
X60887880Y-27867880D01*
X56407989Y-37651111D02*
X56407989Y-32347771D01*
X57356888Y-38600010D02*
X56407989Y-37651111D01*
X60752890Y-38600010D02*
X57356888Y-38600010D01*
X63312879Y-41159999D02*
X60752890Y-38600010D01*
X65289999Y-41159999D02*
X63312879Y-41159999D01*
X60887880Y-26742120D02*
X60960000Y-26670000D01*
X67310000Y-43180000D02*
X65289999Y-41159999D01*
%TO.N,Net-(JP1-Pad2)*%
X73914000Y-45212000D02*
X73914000Y-49152000D01*
%TO.N,Net-(JP2-Pad1)*%
X71628000Y-58928000D02*
X72644000Y-58928000D01*
X73120000Y-59404000D02*
X73914000Y-59404000D01*
X72644000Y-58928000D02*
X73120000Y-59404000D01*
%TO.N,Net-(PS1-Pad4)*%
X73628000Y-41402000D02*
X73628000Y-40226000D01*
X71648000Y-37526000D02*
X72298001Y-38176001D01*
X72298001Y-38176001D02*
X73267999Y-38176001D01*
X73267999Y-39865999D02*
X73628000Y-40226000D01*
X73267999Y-38176001D02*
X73267999Y-39865999D01*
%TO.N,Net-(PS1-Pad3)*%
X75754000Y-36830000D02*
X75373000Y-37211000D01*
X77470000Y-36830000D02*
X75754000Y-36830000D01*
X78772000Y-36830000D02*
X77470000Y-36830000D01*
X78772000Y-38830000D02*
X78740000Y-38862000D01*
X78772000Y-36830000D02*
X78772000Y-38830000D01*
X75744000Y-36830000D02*
X75754000Y-36830000D01*
X75048000Y-37526000D02*
X75744000Y-36830000D01*
X74148000Y-37526000D02*
X75048000Y-37526000D01*
%TO.N,CAN1_RX*%
X71016886Y-50477010D02*
X74833990Y-50477010D01*
X70723990Y-50184114D02*
X71016886Y-50477010D01*
X70723990Y-47863990D02*
X70723990Y-50184114D01*
X69195526Y-46684980D02*
X70374536Y-47863990D01*
X74833990Y-50477010D02*
X75184000Y-50127000D01*
X65734980Y-46684980D02*
X69195526Y-46684980D01*
X62484000Y-43434000D02*
X65734980Y-46684980D01*
X70374536Y-47863990D02*
X70723990Y-47863990D01*
X62484000Y-42672000D02*
X62484000Y-43434000D01*
X75184000Y-50127000D02*
X75184000Y-49152000D01*
X63246000Y-41910000D02*
X62484000Y-42672000D01*
X64770000Y-41910000D02*
X63246000Y-41910000D01*
%TO.N,CAN1_TX*%
X71374000Y-49152000D02*
X71374000Y-48177000D01*
X64570920Y-43180000D02*
X64050920Y-42660000D01*
X64570920Y-43180000D02*
X64570920Y-44813800D01*
X64570920Y-44813800D02*
X65942090Y-46184970D01*
X70461666Y-47244000D02*
X71374000Y-47244000D01*
X69402636Y-46184970D02*
X70461666Y-47244000D01*
X65942090Y-46184970D02*
X69402636Y-46184970D01*
X71374000Y-49152000D02*
X71374000Y-47244000D01*
%TO.N,Net-(C3-Pad2)*%
X75500000Y-34798000D02*
X75373000Y-34671000D01*
X78731000Y-34798000D02*
X75500000Y-34798000D01*
X73957000Y-33255000D02*
X75373000Y-34671000D01*
X73957000Y-32004000D02*
X73957000Y-33255000D01*
X74418000Y-35626000D02*
X75373000Y-34671000D01*
X74148000Y-35626000D02*
X74418000Y-35626000D01*
D38*
%TO.N,GND_SPK*%
X34049501Y-68142503D02*
X34049501Y-65739501D01*
X34049501Y-65739501D02*
X30480000Y-62170000D01*
X36481999Y-70575001D02*
X34049501Y-68142503D01*
X37167797Y-70575001D02*
X36481999Y-70575001D01*
X39542797Y-68200001D02*
X37167797Y-70575001D01*
X40079999Y-68200001D02*
X39542797Y-68200001D01*
X44130000Y-64150000D02*
X40079999Y-68200001D01*
D36*
%TO.N,GND_MIC&ANC*%
X45720000Y-59690000D02*
X45897500Y-59512500D01*
X36830000Y-59690000D02*
X45720000Y-59690000D01*
D38*
X47419990Y-61034990D02*
X45897500Y-59512500D01*
X52414990Y-61034990D02*
X47419990Y-61034990D01*
X53340000Y-61960000D02*
X52414990Y-61034990D01*
D36*
%TO.N,V_ANC*%
X31525001Y-40804999D02*
X30480000Y-41850000D01*
X31525001Y-39594999D02*
X31525001Y-40804999D01*
X38100000Y-33020000D02*
X31525001Y-39594999D01*
%TO.N,V_OUT*%
X31584501Y-65874501D02*
X30480000Y-64770000D01*
X31584501Y-67350161D02*
X31584501Y-65874501D01*
X44804999Y-75284999D02*
X40835001Y-75284999D01*
X31010161Y-67924501D02*
X31584501Y-67350161D01*
X46990000Y-77470000D02*
X44804999Y-75284999D01*
X46990000Y-77470000D02*
X49530000Y-77470000D01*
X50800000Y-78740000D02*
X50960000Y-78740000D01*
X49530000Y-77470000D02*
X50800000Y-78740000D01*
D38*
X39986001Y-75284999D02*
X37091002Y-72390000D01*
X40835001Y-75284999D02*
X39986001Y-75284999D01*
X36870998Y-72390000D02*
X32405499Y-67924501D01*
X37091002Y-72390000D02*
X36870998Y-72390000D01*
D36*
X32405499Y-67924501D02*
X31010161Y-67924501D01*
%TO.N,V_MIC*%
X31924999Y-57440337D02*
X36830000Y-62345338D01*
X31924999Y-44899999D02*
X31924999Y-57440337D01*
X31475000Y-44450000D02*
X31924999Y-44899999D01*
X30480000Y-44450000D02*
X31475000Y-44450000D01*
X36830000Y-62345338D02*
X36830000Y-69850000D01*
X36830000Y-69850000D02*
X36830000Y-69850000D01*
%TO.N,PTT*%
X57450000Y-51500000D02*
X54069998Y-51500000D01*
D38*
X50800000Y-54769998D02*
X50800000Y-59960000D01*
X54069998Y-51500000D02*
X50800000Y-54769998D01*
D36*
%TO.N,Net-(IC4-Pad1)*%
X73176455Y-82844999D02*
X72825001Y-82844999D01*
X74310000Y-81711454D02*
X73176455Y-82844999D01*
X74310000Y-79740000D02*
X74310000Y-81711454D01*
%TO.N,BREAK_PRESSURE_0*%
X60960000Y-57150000D02*
X67310000Y-63500000D01*
X67310000Y-63500000D02*
X73660000Y-63500000D01*
X73010000Y-79740000D02*
X73010000Y-78977878D01*
X73010000Y-78977878D02*
X73660000Y-78327878D01*
X73660000Y-78327878D02*
X73660000Y-67310000D01*
X73660000Y-67310000D02*
X73660000Y-67310000D01*
%TO.N,Net-(IC4-Pad4)*%
X63730000Y-77740000D02*
X73010000Y-77740000D01*
X60920000Y-74930000D02*
X63730000Y-77740000D01*
%TO.N,ADC1_IN0_AMORKI*%
X85598000Y-62230000D02*
X84892989Y-62935011D01*
X68577891Y-62935011D02*
X69144989Y-62935011D01*
X61522880Y-55880000D02*
X68577891Y-62935011D01*
X58674000Y-55880000D02*
X61522880Y-55880000D01*
X58166000Y-55372000D02*
X58674000Y-55880000D01*
X84892989Y-62935011D02*
X69144989Y-62935011D01*
%TO.N,ADC2_IN1_AMORKI*%
X84186999Y-62435001D02*
X87162000Y-59460000D01*
X61214000Y-54864000D02*
X68785001Y-62435001D01*
X68785001Y-62435001D02*
X84186999Y-62435001D01*
X59436000Y-54864000D02*
X61214000Y-54864000D01*
%TO.N,BREAK_PRESSURE_ADC*%
X74852000Y-64770000D02*
X74930000Y-64692000D01*
X69850000Y-64770000D02*
X74852000Y-64770000D01*
D37*
%TO.N,LED_GND*%
X77470000Y-77790000D02*
X77470000Y-77470000D01*
X77470000Y-69850000D02*
X74930000Y-67310000D01*
X77470000Y-77790000D02*
X77470000Y-69850000D01*
D36*
%TO.N,Net-(Q1-Pad1)*%
X79060000Y-79690000D02*
X80010000Y-78740000D01*
X76200000Y-81470000D02*
X74825001Y-82844999D01*
X76200000Y-81280000D02*
X76200000Y-81470000D01*
D37*
X78910000Y-79840000D02*
X80010000Y-78740000D01*
X78420000Y-79840000D02*
X78910000Y-79840000D01*
D38*
%TO.N,Net-(BJT1-Pad1)*%
X44130000Y-62850000D02*
X46340000Y-62850000D01*
X46610001Y-63120001D02*
X49909999Y-63120001D01*
X46340000Y-62850000D02*
X46610001Y-63120001D01*
X50800000Y-62230000D02*
X50800000Y-61960000D01*
X49909999Y-63120001D02*
X50800000Y-62230000D01*
%TO.N,Net-(BJT1-Pad3)*%
X54365010Y-60985010D02*
X53340000Y-59960000D01*
X54365010Y-62548180D02*
X54365010Y-60985010D01*
X53343179Y-63570011D02*
X54365010Y-62548180D01*
X46423601Y-63570011D02*
X53343179Y-63570011D01*
X46353590Y-63500000D02*
X46423601Y-63570011D01*
X42230000Y-63500000D02*
X46353590Y-63500000D01*
%TD*%
M02*
