M48
; DRILL file {KiCad (5.1.2)-2} date 01.02.2022 22:26:31
; FORMAT={-:-/ absolute / inch / decimal}
; #@! TF.CreationDate,2022-02-01T22:26:31+01:00
; #@! TF.GenerationSoftware,Kicad,Pcbnew,(5.1.2)-2
; #@! TF.FileFunction,Plated,1,4,PTH
FMAT,2
INCH
T1C0.0157
T2C0.0197
T3C0.0236
T4C0.0256
T5C0.0335
T6C0.0394
T7C0.0433
T8C0.0866
T9C0.0984
T10C0.1575
%
G90
G05
T1
X3.0994Y-1.7794
X3.0997Y-1.6009
X3.2Y-1.6513
X3.2366Y-1.7653
X3.2697Y-1.8095
X3.2697Y-1.8713
X3.3446Y-1.5012
X3.3595Y-1.7161
X3.36Y-1.5644
X3.3646Y-1.8758
X3.4Y-4.5948
X3.4Y-4.6448
X3.4017Y-4.6928
X3.4017Y-4.7428
X3.4017Y-4.7928
X3.4086Y-1.7167
X3.41Y-3.39
X3.41Y-3.46
X3.41Y-3.67
X3.41Y-3.74
X3.41Y-3.88
X3.41Y-3.95
X3.4318Y-1.4861
X3.4331Y-1.3752
X3.45Y-2.27
X3.45Y-2.33
X3.45Y-2.39
X3.47Y-2.58
X3.47Y-2.65
X3.47Y-2.72
X3.47Y-2.79
X3.47Y-2.86
X3.47Y-2.93
X3.47Y-3.0
X3.47Y-3.07
X3.48Y-3.25
X3.48Y-3.32
X3.48Y-3.39
X3.48Y-3.46
X3.48Y-3.53
X3.48Y-3.6
X3.48Y-3.67
X3.48Y-3.74
X3.48Y-3.81
X3.48Y-3.88
X3.48Y-3.95
X3.48Y-4.02
X3.48Y-4.09
X3.49Y-2.15
X3.51Y-2.27
X3.51Y-2.33
X3.51Y-2.39
X3.5189Y-1.3563
X3.54Y-2.58
X3.54Y-2.65
X3.54Y-2.72
X3.54Y-2.79
X3.54Y-2.86
X3.54Y-2.93
X3.54Y-3.0
X3.54Y-3.07
X3.5441Y-4.5932
X3.5441Y-4.6432
X3.5441Y-4.6897
X3.5441Y-4.7397
X3.5441Y-4.7897
X3.55Y-3.25
X3.55Y-3.32
X3.55Y-3.39
X3.55Y-3.46
X3.55Y-3.53
X3.55Y-3.6
X3.55Y-3.67
X3.55Y-3.74
X3.55Y-3.81
X3.55Y-3.88
X3.55Y-3.95
X3.55Y-4.02
X3.55Y-4.09
X3.56Y-2.15
X3.57Y-2.27
X3.57Y-2.33
X3.57Y-2.39
X3.5755Y-1.5589
X3.61Y-2.58
X3.61Y-2.65
X3.61Y-2.72
X3.61Y-2.79
X3.61Y-2.86
X3.61Y-2.93
X3.61Y-3.0
X3.61Y-3.07
X3.62Y-3.25
X3.62Y-3.32
X3.62Y-3.39
X3.62Y-4.22
X3.62Y-4.28
X3.62Y-4.34
X3.62Y-4.4
X3.62Y-4.46
X3.63Y-2.15
X3.63Y-2.27
X3.63Y-2.33
X3.63Y-2.39
X3.6381Y-3.6994
X3.6607Y-3.6604
X3.6732Y-1.5394
X3.68Y-2.58
X3.68Y-2.65
X3.68Y-2.72
X3.68Y-2.79
X3.68Y-2.86
X3.68Y-2.93
X3.68Y-3.0
X3.68Y-3.07
X3.68Y-4.22
X3.68Y-4.28
X3.68Y-4.34
X3.68Y-4.4
X3.68Y-4.46
X3.6826Y-3.8088
X3.6826Y-3.8788
X3.6826Y-3.9488
X3.6826Y-4.0188
X3.6826Y-4.0888
X3.69Y-2.27
X3.69Y-2.33
X3.69Y-2.39
X3.69Y-3.25
X3.69Y-3.32
X3.69Y-3.39
X3.7058Y-1.5792
X3.706Y-1.6218
X3.74Y-4.22
X3.74Y-4.28
X3.74Y-4.34
X3.74Y-4.4
X3.74Y-4.46
X3.75Y-2.58
X3.75Y-2.65
X3.75Y-2.72
X3.75Y-2.79
X3.75Y-2.86
X3.75Y-2.93
X3.75Y-3.0
X3.75Y-3.07
X3.7526Y-3.8088
X3.7526Y-3.8788
X3.7526Y-3.9488
X3.7526Y-4.0188
X3.7526Y-4.0888
X3.7591Y-4.5685
X3.7591Y-4.8134
X3.7622Y-4.6197
X3.7646Y-4.6654
X3.7728Y-3.5597
X3.7736Y-1.9015
X3.8Y-4.22
X3.8Y-4.28
X3.8Y-4.34
X3.8Y-4.4
X3.8Y-4.46
X3.8028Y-4.5961
X3.8102Y-4.6409
X3.82Y-2.58
X3.82Y-2.65
X3.82Y-2.72
X3.82Y-2.79
X3.82Y-2.86
X3.82Y-2.93
X3.82Y-3.0
X3.82Y-3.07
X3.8226Y-3.8088
X3.8226Y-3.8788
X3.8226Y-3.9488
X3.8226Y-4.0188
X3.8226Y-4.0888
X3.8495Y-1.863
X3.8547Y-1.4534
X3.8583Y-4.637
X3.86Y-4.22
X3.86Y-4.28
X3.86Y-4.34
X3.86Y-4.4
X3.8683Y-3.695
X3.89Y-2.58
X3.89Y-2.65
X3.89Y-2.72
X3.89Y-2.79
X3.89Y-2.86
X3.89Y-2.93
X3.89Y-3.0
X3.89Y-3.07
X3.8926Y-3.2488
X3.8926Y-3.3188
X3.8926Y-3.3888
X3.8926Y-3.8088
X3.8926Y-3.8788
X3.8926Y-3.9488
X3.8926Y-4.0188
X3.8926Y-4.0888
X3.8948Y-1.4532
X3.9034Y-3.6727
X3.9055Y-4.6516
X3.9063Y-3.5186
X3.92Y-4.22
X3.92Y-4.28
X3.92Y-4.34
X3.92Y-4.4
X3.93Y-1.94
X3.96Y-2.58
X3.96Y-2.65
X3.96Y-2.72
X3.96Y-2.79
X3.96Y-2.86
X3.96Y-2.93
X3.96Y-3.0
X3.96Y-3.07
X3.9626Y-3.2488
X3.9626Y-3.3188
X3.9626Y-3.3888
X3.9626Y-3.8088
X3.9626Y-3.8788
X3.9626Y-3.9488
X3.9626Y-4.0188
X3.9626Y-4.0888
X3.98Y-2.09
X3.98Y-2.16
X3.98Y-4.28
X3.98Y-4.34
X3.98Y-4.4
X3.99Y-1.91
X4.0102Y-4.6398
X4.03Y-2.79
X4.03Y-2.86
X4.03Y-2.93
X4.03Y-3.0
X4.03Y-3.07
X4.0326Y-3.2488
X4.0326Y-3.3188
X4.0326Y-3.3888
X4.0326Y-3.4588
X4.0326Y-3.5288
X4.0326Y-3.5988
X4.0326Y-3.6688
X4.0326Y-3.7388
X4.0326Y-3.8088
X4.0326Y-3.8788
X4.0326Y-3.9488
X4.0326Y-4.0188
X4.04Y-4.34
X4.04Y-4.4
X4.0598Y-4.6319
X4.0926Y-1.8936
X4.0929Y-4.5866
X4.1Y-2.79
X4.1Y-2.86
X4.1Y-2.93
X4.1Y-3.0
X4.1Y-3.07
X4.1Y-4.34
X4.1Y-4.4
X4.1Y-4.46
X4.1026Y-3.2488
X4.1026Y-3.3188
X4.1026Y-3.3888
X4.1026Y-3.4588
X4.1026Y-3.5288
X4.1026Y-3.5988
X4.1026Y-3.6688
X4.1026Y-3.7388
X4.1026Y-3.8088
X4.1026Y-3.8788
X4.1026Y-3.9488
X4.1026Y-4.0188
X4.1083Y-4.6421
X4.1374Y-4.6079
X4.14Y-1.76
X4.1402Y-4.5626
X4.1412Y-1.974
X4.1441Y-4.6661
X4.1513Y-4.1323
X4.1535Y-4.7957
X4.16Y-4.4
X4.16Y-4.46
X4.17Y-2.79
X4.17Y-2.86
X4.17Y-2.93
X4.17Y-3.0
X4.17Y-3.07
X4.1726Y-3.2488
X4.1726Y-3.3188
X4.1726Y-3.3888
X4.1726Y-3.4588
X4.1726Y-3.5288
X4.1726Y-3.5988
X4.1726Y-3.6688
X4.1726Y-3.7388
X4.1726Y-3.8088
X4.1726Y-3.8788
X4.1726Y-3.9488
X4.1726Y-4.0188
X4.22Y-4.4
X4.22Y-4.46
X4.22Y-4.52
X4.24Y-2.79
X4.24Y-2.86
X4.24Y-2.93
X4.24Y-3.0
X4.24Y-3.07
X4.2426Y-3.2488
X4.2426Y-3.3188
X4.2426Y-3.3888
X4.2426Y-3.4588
X4.2426Y-3.5288
X4.2426Y-3.5988
X4.2426Y-3.6688
X4.2426Y-3.7388
X4.2426Y-3.8088
X4.2426Y-3.8788
X4.2426Y-3.9488
X4.2426Y-4.0188
X4.2604Y-2.4836
X4.2799Y-4.252
X4.28Y-4.46
X4.28Y-4.52
X4.29Y-4.71
X4.29Y-4.79
X4.2932Y-1.8268
X4.2938Y-1.7734
X4.31Y-2.79
X4.31Y-2.86
X4.31Y-2.93
X4.31Y-3.0
X4.31Y-3.07
X4.3126Y-3.2488
X4.3126Y-3.3188
X4.3126Y-3.3888
X4.3126Y-3.4588
X4.3126Y-3.5288
X4.3126Y-3.5988
X4.3126Y-3.6688
X4.3126Y-3.7388
X4.3126Y-3.8088
X4.3126Y-3.8788
X4.3126Y-3.9488
X4.3126Y-4.0188
X4.34Y-4.46
X4.34Y-4.52
X4.37Y-4.71
X4.37Y-4.79
X4.3787Y-1.8543
X4.38Y-2.79
X4.38Y-2.86
X4.38Y-2.93
X4.38Y-3.0
X4.38Y-3.07
X4.3826Y-3.2488
X4.3826Y-3.3188
X4.3826Y-3.3888
X4.3826Y-3.4588
X4.3826Y-3.5288
X4.3826Y-3.5988
X4.3826Y-3.6688
X4.3826Y-3.7388
X4.3826Y-3.8088
X4.3826Y-3.8788
X4.3826Y-3.9488
X4.3826Y-4.0188
X4.4004Y-1.5114
X4.43Y-4.34
X4.43Y-4.42
X4.4476Y-1.5114
X4.45Y-2.79
X4.45Y-2.86
X4.45Y-2.93
X4.45Y-3.0
X4.45Y-3.07
X4.45Y-4.71
X4.45Y-4.79
X4.4526Y-3.2488
X4.4526Y-3.3188
X4.4526Y-3.3888
X4.4526Y-3.4588
X4.4526Y-3.5288
X4.4526Y-3.5988
X4.4526Y-3.6688
X4.4526Y-3.7388
X4.4526Y-3.8088
X4.4526Y-3.8788
X4.4526Y-3.9488
X4.4526Y-4.0188
X4.4526Y-4.0888
X4.4909Y-1.5114
X4.51Y-4.34
X4.51Y-4.42
X4.51Y-4.5
X4.52Y-2.79
X4.52Y-2.86
X4.52Y-2.93
X4.52Y-3.0
X4.52Y-3.07
X4.52Y-4.71
X4.52Y-4.79
X4.5226Y-3.2488
X4.5226Y-3.3188
X4.5226Y-3.3888
X4.5226Y-3.4588
X4.5226Y-3.5288
X4.5226Y-3.5988
X4.5226Y-3.6688
X4.53Y-3.95
X4.53Y-4.02
X4.56Y-3.76
X4.59Y-2.79
X4.59Y-2.86
X4.59Y-2.93
X4.59Y-3.0
X4.59Y-3.07
X4.59Y-4.34
X4.59Y-4.42
X4.59Y-4.5
X4.59Y-4.63
X4.59Y-4.71
X4.59Y-4.79
X4.5926Y-3.2488
X4.5926Y-3.3188
X4.5926Y-3.3888
X4.5926Y-3.4588
X4.5926Y-3.5288
X4.5926Y-3.5988
X4.5926Y-3.6688
X4.61Y-3.76
X4.65Y-2.13
X4.65Y-2.18
X4.66Y-2.79
X4.66Y-2.86
X4.66Y-2.93
X4.66Y-3.0
X4.66Y-3.07
X4.66Y-3.76
X4.6626Y-3.2488
X4.6626Y-3.3188
X4.6626Y-3.3888
X4.6626Y-3.4588
X4.6626Y-3.5288
X4.6626Y-3.5988
X4.6626Y-3.6688
X4.6683Y-1.5927
X4.6693Y-1.6545
X4.6695Y-1.7221
X4.67Y-4.34
X4.67Y-4.42
X4.67Y-4.5
X4.67Y-4.63
X4.67Y-4.71
X4.67Y-4.79
X4.71Y-2.13
X4.71Y-2.18
X4.71Y-3.76
X4.73Y-2.79
X4.73Y-2.86
X4.73Y-2.93
X4.73Y-3.0
X4.73Y-3.07
X4.7326Y-3.2488
X4.7326Y-3.3188
X4.7326Y-3.3888
X4.7326Y-3.4588
X4.7326Y-3.5288
X4.7326Y-3.5988
X4.7326Y-3.6688
X4.7397Y-1.6537
X4.7405Y-1.5927
X4.7409Y-1.7201
X4.75Y-4.34
X4.75Y-4.42
X4.75Y-4.5
X4.75Y-4.63
X4.75Y-4.71
X4.75Y-4.79
X4.76Y-3.76
X4.77Y-2.13
X4.77Y-2.18
X4.8Y-2.79
X4.8Y-2.86
X4.8Y-2.93
X4.8Y-3.0
X4.8Y-3.07
X4.8026Y-3.2488
X4.8026Y-3.3188
X4.8026Y-3.3888
X4.8026Y-3.4588
X4.8026Y-3.5288
X4.8026Y-3.5988
X4.8026Y-3.6688
X4.8067Y-1.5933
X4.8075Y-1.7195
X4.8083Y-1.6547
X4.8097Y-3.88
X4.83Y-2.26
X4.83Y-2.31
X4.83Y-2.36
X4.83Y-2.41
X4.83Y-4.42
X4.83Y-4.5
X4.83Y-4.63
X4.83Y-4.71
X4.83Y-4.79
X4.85Y-4.55
X4.87Y-2.79
X4.87Y-2.86
X4.87Y-2.93
X4.87Y-3.0
X4.87Y-3.07
X4.8726Y-3.2488
X4.8726Y-3.3188
X4.8726Y-3.3888
X4.8726Y-3.4588
X4.8726Y-3.5288
X4.8726Y-3.5988
X4.8726Y-3.6688
X4.8736Y-1.3815
X4.8761Y-1.2295
X4.88Y-4.51
X4.8899Y-3.7886
X4.8899Y-3.8586
X4.8899Y-3.9286
X4.8899Y-3.9986
X4.8899Y-4.0686
X4.8899Y-4.1386
X4.89Y-2.26
X4.89Y-2.31
X4.89Y-2.36
X4.89Y-2.41
X4.89Y-4.79
X4.94Y-2.86
X4.94Y-2.93
X4.94Y-3.0
X4.94Y-3.07
X4.9599Y-3.7886
X4.9599Y-3.8586
X4.9599Y-3.9286
X4.9599Y-3.9986
X4.9599Y-4.0686
X4.9599Y-4.1386
X4.97Y-4.46
X4.9736Y-3.4555
X4.987Y-1.3803
X4.9878Y-1.2283
X5.0Y-2.11
X5.0Y-2.17
X5.005Y-3.3555
X5.0079Y-3.2047
X5.01Y-2.86
X5.01Y-2.93
X5.01Y-3.0
X5.01Y-3.07
X5.0399Y-3.7886
X5.0399Y-3.8586
X5.0399Y-3.9286
X5.0399Y-3.9986
X5.0399Y-4.0686
X5.0399Y-4.1386
X5.04Y-3.3555
X5.0425Y-1.0772
X5.05Y-2.11
X5.05Y-2.17
X5.0772Y-1.5488
X5.0775Y-3.705
X5.08Y-2.86
X5.08Y-2.93
X5.08Y-3.0
X5.08Y-3.07
X5.0999Y-4.2086
X5.0999Y-4.2786
X5.0999Y-4.3486
X5.0999Y-4.4186
X5.1Y-2.11
X5.1Y-2.17
X5.1Y-2.22
X5.1Y-2.28
X5.1Y-2.34
X5.1Y-2.4
X5.1099Y-3.7886
X5.1099Y-3.8586
X5.1099Y-3.9286
X5.1099Y-3.9986
X5.1099Y-4.0686
X5.1099Y-4.1386
X5.12Y-3.5125
X5.13Y-4.48
X5.14Y-4.8
X5.1472Y-2.0014
X5.1492Y-1.9494
X5.1713Y-1.5409
X5.1799Y-3.7886
X5.1799Y-3.8586
X5.1799Y-3.9286
X5.1799Y-3.9986
X5.1799Y-4.0686
X5.1799Y-4.1386
X5.1799Y-4.2086
X5.1799Y-4.2786
X5.1799Y-4.3486
X5.1799Y-4.4186
X5.18Y-4.52
X5.19Y-4.74
X5.19Y-4.79
X5.198Y-1.0752
X5.2Y-2.16
X5.2Y-2.23
X5.2Y-2.3
X5.2Y-2.37
X5.2Y-2.44
X5.2Y-2.515
X5.2Y-2.59
X5.2Y-2.66
X5.2Y-2.73
X5.2Y-2.8
X5.2Y-2.87
X5.2Y-2.94
X5.2Y-3.01
X5.21Y-1.9488
X5.2162Y-3.3918
X5.225Y-3.72
X5.2499Y-3.7886
X5.2499Y-3.8586
X5.2499Y-3.9286
X5.2499Y-3.9986
X5.2499Y-4.0686
X5.2499Y-4.1386
X5.2499Y-4.2086
X5.2499Y-4.2786
X5.2499Y-4.3486
X5.2499Y-4.4186
X5.27Y-2.09
X5.27Y-2.16
X5.27Y-2.23
X5.27Y-2.3
X5.27Y-2.37
X5.27Y-2.44
X5.27Y-2.515
X5.27Y-2.59
X5.27Y-2.66
X5.27Y-2.73
X5.27Y-2.8
X5.27Y-2.87
X5.27Y-2.94
X5.27Y-3.01
X5.27Y-3.08
X5.2772Y-1.2661
X5.2772Y-1.328
X5.278Y-1.4768
X5.2783Y-1.4134
X5.2843Y-1.6913
X5.3199Y-3.7886
X5.3199Y-3.8586
X5.3199Y-3.9286
X5.3199Y-3.9986
X5.3199Y-4.0686
X5.3199Y-4.1386
X5.3199Y-4.2086
X5.3199Y-4.2786
X5.3199Y-4.3486
X5.3199Y-4.4186
X5.32Y-3.66
X5.32Y-3.72
X5.3315Y-2.0287
X5.3328Y-4.4892
X5.3328Y-4.5592
X5.3328Y-4.6292
X5.3328Y-4.6992
X5.3328Y-4.7692
X5.34Y-2.09
X5.34Y-2.16
X5.34Y-2.23
X5.34Y-2.3
X5.34Y-2.37
X5.34Y-2.44
X5.34Y-2.515
X5.34Y-2.59
X5.34Y-2.66
X5.34Y-2.73
X5.34Y-2.8
X5.34Y-2.87
X5.34Y-2.94
X5.34Y-3.01
X5.34Y-3.08
X5.34Y-3.15
X5.34Y-3.22
X5.34Y-3.29
X5.34Y-3.36
X5.34Y-3.43
X5.3523Y-1.7381
X5.3661Y-1.2835
X5.3661Y-1.3268
X5.3728Y-4.5992
X5.3728Y-4.6592
X5.3828Y-4.7292
X5.3828Y-4.7992
X5.3899Y-3.7886
X5.3899Y-3.8586
X5.3899Y-3.9286
X5.3899Y-3.9986
X5.3899Y-4.0686
X5.3899Y-4.1386
X5.3899Y-4.2086
X5.3899Y-4.2786
X5.3899Y-4.3486
X5.3899Y-4.4186
X5.39Y-3.66
X5.39Y-3.72
X5.3928Y-4.5492
X5.4028Y-4.4892
X5.41Y-2.09
X5.41Y-2.16
X5.41Y-2.3
X5.41Y-2.37
X5.41Y-2.44
X5.41Y-2.52
X5.41Y-2.59
X5.41Y-2.66
X5.41Y-2.8
X5.41Y-2.87
X5.41Y-2.94
X5.41Y-3.01
X5.41Y-3.08
X5.41Y-3.15
X5.41Y-3.22
X5.41Y-3.29
X5.41Y-3.36
X5.41Y-3.43
X5.4428Y-4.7992
X5.4599Y-3.7886
X5.4599Y-3.8586
X5.4599Y-3.9286
X5.4599Y-3.9986
X5.4599Y-4.0686
X5.4599Y-4.1386
X5.4599Y-4.2086
X5.4599Y-4.2786
X5.4599Y-4.3486
X5.46Y-3.66
X5.46Y-3.72
X5.4748Y-1.5447
X5.48Y-2.09
X5.48Y-2.16
X5.48Y-2.23
X5.48Y-2.3
X5.48Y-2.37
X5.48Y-2.44
X5.48Y-2.52
X5.48Y-2.59
X5.48Y-2.66
X5.48Y-2.8
X5.48Y-2.87
X5.48Y-2.94
X5.48Y-3.01
X5.48Y-3.08
X5.48Y-3.15
X5.48Y-3.22
X5.48Y-3.29
X5.48Y-3.36
X5.48Y-3.43
X5.4817Y-1.7407
X5.4817Y-1.7959
X5.4828Y-4.4692
X5.4857Y-1.9199
X5.498Y-1.8543
X5.5299Y-3.7886
X5.5299Y-3.8586
X5.5299Y-3.9286
X5.5299Y-3.9986
X5.5299Y-4.0686
X5.5299Y-4.1386
X5.5299Y-4.2086
X5.5299Y-4.2786
X5.5299Y-4.3486
X5.53Y-3.66
X5.53Y-3.72
X5.5388Y-1.9179
X5.5453Y-1.8043
X5.55Y-2.09
X5.55Y-2.16
X5.55Y-2.23
X5.55Y-2.3
X5.55Y-2.37
X5.55Y-2.44
X5.55Y-2.52
X5.55Y-2.59
X5.55Y-2.66
X5.55Y-2.8
X5.55Y-2.87
X5.55Y-2.94
X5.55Y-3.01
X5.55Y-3.08
X5.55Y-3.15
X5.55Y-3.22
X5.55Y-3.29
X5.55Y-3.36
X5.55Y-3.43
X5.5551Y-1.9803
X5.5999Y-3.7886
X5.5999Y-3.8586
X5.5999Y-3.9286
X5.5999Y-3.9986
X5.5999Y-4.0686
X5.5999Y-4.1386
X5.5999Y-4.2086
X5.5999Y-4.2786
X5.5999Y-4.3486
X5.6Y-3.66
X5.6Y-3.72
X5.62Y-2.09
X5.62Y-2.16
X5.62Y-2.23
X5.62Y-2.3
X5.62Y-2.37
X5.62Y-2.44
X5.62Y-2.52
X5.62Y-2.59
X5.62Y-3.01
X5.62Y-3.08
X5.62Y-3.15
X5.62Y-3.22
X5.62Y-3.29
X5.62Y-3.36
X5.62Y-3.43
X5.6228Y-4.4692
X5.6302Y-1.463
X5.6699Y-3.7886
X5.6699Y-3.8586
X5.6699Y-3.9286
X5.6699Y-3.9986
X5.6699Y-4.0686
X5.6699Y-4.1386
X5.6699Y-4.2086
X5.6699Y-4.2786
X5.6699Y-4.3486
X5.6811Y-2.9094
X5.6828Y-4.8092
X5.6845Y-2.8055
X5.69Y-2.09
X5.69Y-2.16
X5.69Y-2.23
X5.69Y-2.3
X5.69Y-2.37
X5.69Y-2.44
X5.69Y-2.52
X5.69Y-2.59
X5.69Y-3.01
X5.69Y-3.08
X5.69Y-3.15
X5.69Y-3.22
X5.69Y-3.29
X5.69Y-3.36
X5.69Y-3.43
X5.69Y-3.662
X5.6928Y-4.4892
X5.7199Y-1.7565
X5.7199Y-1.8549
X5.7228Y-4.5392
X5.725Y-2.8055
X5.7328Y-4.7792
X5.7399Y-3.7886
X5.7399Y-3.8586
X5.7399Y-3.9286
X5.7399Y-3.9986
X5.7399Y-4.0686
X5.7399Y-4.1386
X5.7399Y-4.2086
X5.7428Y-4.7292
X5.749Y-1.5218
X5.76Y-2.09
X5.76Y-2.16
X5.76Y-2.23
X5.76Y-2.3
X5.76Y-2.37
X5.76Y-2.44
X5.76Y-2.52
X5.76Y-2.59
X5.764Y-3.6615
X5.77Y-1.04
X5.77Y-1.12
X5.8031Y-2.9094
X5.81Y-1.08
X5.8207Y-4.0775
X5.8398Y-4.474
X5.85Y-1.04
X5.85Y-1.12
X5.85Y-3.02
X5.85Y-3.07
X5.86Y-2.22
X5.865Y-2.8634
X5.8695Y-1.8293
X5.87Y-3.47
X5.87Y-3.54
X5.87Y-3.6
X5.87Y-3.66
X5.87Y-3.72
X5.87Y-3.78
X5.88Y-2.62
X5.8958Y-4.4648
X5.9Y-3.02
X5.9Y-3.07
X5.906Y-4.1855
X5.91Y-2.17
X5.91Y-2.22
X5.9173Y-2.063
X5.9207Y-2.7613
X5.9213Y-2.8007
X5.9224Y-1.9084
X5.9226Y-1.9482
X5.93Y-2.62
X5.93Y-3.47
X5.93Y-3.54
X5.93Y-3.6
X5.93Y-3.66
X5.93Y-3.72
X5.93Y-3.78
X5.95Y-3.07
X5.9562Y-1.7868
X5.9575Y-4.1855
X5.96Y-2.22
X5.99Y-2.62
X5.99Y-3.47
X5.99Y-3.54
X5.99Y-3.6
X5.99Y-3.66
X5.99Y-3.72
X5.99Y-3.78
X6.0085Y-4.186
X6.0121Y-2.0167
X6.0221Y-2.8879
X6.05Y-2.62
X6.05Y-3.47
X6.05Y-3.54
X6.05Y-3.6
X6.05Y-3.66
X6.05Y-3.72
X6.05Y-3.78
X6.05Y-3.84
X6.05Y-3.9
X6.058Y-4.1855
X6.0784Y-3.2649
X6.08Y-2.23
X6.0835Y-3.0669
X6.09Y-2.42
X6.0959Y-1.6226
X6.11Y-3.54
X6.11Y-3.6
X6.11Y-3.66
X6.11Y-3.72
X6.11Y-3.78
X6.11Y-3.84
X6.11Y-3.9
X6.1165Y-3.47
X6.1181Y-2.5079
X6.1181Y-3.3583
X6.1197Y-2.2091
X6.12Y-3.42
X6.1677Y-3.0382
X6.17Y-3.6
X6.17Y-3.66
X6.17Y-3.72
X6.17Y-3.78
X6.17Y-3.84
X6.17Y-3.9
X6.174Y-2.9965
X6.18Y-3.42
X6.1823Y-2.185
X6.1844Y-1.8088
X6.1844Y-1.8513
X6.1844Y-1.8938
X6.2106Y-2.1472
X6.2165Y-3.0252
X6.2268Y-2.8205
X6.2346Y-2.1894
X6.2555Y-3.0531
X6.2575Y-2.837
X6.2634Y-3.2657
X6.2642Y-3.0028
X6.2652Y-1.6088
X6.2697Y-2.1524
X6.27Y-2.22
X6.27Y-3.1
X6.2756Y-2.4201
T2
X6.11Y-2.3236
X6.1317Y-2.2714
X6.1317Y-2.3758
X6.1839Y-2.2498
X6.1839Y-2.3974
X6.2361Y-2.2714
X6.2361Y-2.3758
X6.2577Y-2.3236
X6.0904Y-3.1689
X6.112Y-3.1167
X6.112Y-3.2211
X6.1642Y-3.0951
X6.1642Y-3.2427
X6.2164Y-3.1167
X6.2164Y-3.2211
X6.238Y-3.1689
T3
X5.4426Y-4.6463
X5.4772Y-4.5628
X5.4772Y-4.7298
X5.5607Y-4.5282
X5.5607Y-4.7644
X5.6443Y-4.5628
X5.6443Y-4.7298
X5.6788Y-4.6463
X4.8996Y-4.6461
X4.9342Y-4.5625
X4.9342Y-4.7296
X5.0177Y-4.528
X5.0177Y-4.7642
X5.1012Y-4.5625
X5.1012Y-4.7296
X5.1358Y-4.6461
T4
X4.05Y-1.35
X4.05Y-1.4
X4.05Y-1.45
X4.05Y-1.5
X4.05Y-1.55
X4.05Y-1.6
X4.05Y-1.65
X4.05Y-1.7
X4.05Y-1.75
T5
X4.2296Y-2.163
X4.2296Y-2.6158
X4.6012Y-2.1628
X4.6012Y-2.6156
T6
X4.5957Y-1.872
X4.6957Y-1.872
X4.7957Y-1.872
T7
X3.67Y-1.11
X3.67Y-1.21
X3.77Y-1.11
X3.77Y-1.21
X3.87Y-1.11
X3.87Y-1.21
X4.3819Y-1.1614
X4.3819Y-1.2614
X4.4819Y-1.1614
X4.4819Y-1.2614
X4.5819Y-1.1614
X4.5819Y-1.2614
T8
X3.0726Y-3.0633
X3.0706Y-2.8225
X3.07Y-2.34
X3.075Y-3.8077
X3.0666Y-2.5829
X3.8435Y-4.7389
X3.075Y-4.0601
X3.075Y-3.5602
X3.075Y-3.3066
X4.0641Y-4.7389
T9
X6.1839Y-2.3236
X6.1642Y-3.1689
T10
X5.5607Y-4.6463
X5.0177Y-4.6461
T0
M30
