M48
; DRILL file {KiCad (5.1.12)-1} date 06/02/22 00:13:12
; FORMAT={-:-/ absolute / inch / decimal}
; #@! TF.CreationDate,2022-06-02T00:13:12+02:00
; #@! TF.GenerationSoftware,Kicad,Pcbnew,(5.1.12)-1
; #@! TF.FileFunction,Plated,1,4,PTH
FMAT,2
INCH
T1C0.0157
T2C0.0236
T3C0.0394
T4C0.1969
%
G90
G05
T1
X4.9409Y-4.4563
X5.0Y-4.9957
X5.0Y-5.4587
X5.0252Y-4.4906
X5.0445Y-5.5126
X5.1378Y-5.5165
X5.1858Y-4.7984
X5.1874Y-5.2673
X5.1913Y-4.4327
X5.2346Y-5.0228
X5.313Y-4.8776
X5.3142Y-5.335
X5.3146Y-4.8185
X5.3157Y-5.2319
X5.4042Y-4.8785
X5.4043Y-4.3996
X5.438Y-4.8584
X5.4571Y-5.0056
X5.4759Y-5.0401
X5.5106Y-4.6732
X5.5567Y-4.7173
X5.5972Y-4.4882
X5.6028Y-4.5425
X5.6415Y-4.4984
X5.8004Y-4.3984
X5.8142Y-4.6736
X5.8264Y-5.1291
X5.8543Y-4.5177
X5.8638Y-4.4303
X5.8661Y-4.6969
X5.8898Y-5.2177
T2
X4.524Y-3.9933
X4.524Y-5.7256
X4.5673Y-3.8889
X4.5673Y-4.0977
X4.5673Y-5.6212
X4.5673Y-5.83
X4.6717Y-3.8457
X4.6717Y-4.1409
X4.6717Y-5.578
X4.6717Y-5.8732
X4.776Y-3.8889
X4.776Y-4.0977
X4.776Y-5.6212
X4.776Y-5.83
X4.8193Y-3.9933
X4.8193Y-5.7256
X5.902Y-3.9933
X5.902Y-5.7256
X5.9452Y-3.8889
X5.9452Y-4.0977
X5.9452Y-5.6212
X5.9452Y-5.83
X6.0496Y-3.8457
X6.0496Y-4.1409
X6.0496Y-5.578
X6.0496Y-5.8732
X6.154Y-3.8889
X6.154Y-4.0977
X6.154Y-5.6212
X6.154Y-5.83
X6.1972Y-3.9933
X6.1972Y-5.7256
T3
X4.75Y-5.2
X4.75Y-5.35
X4.76Y-4.64
X4.76Y-4.8
X4.85Y-5.2
X4.85Y-5.35
X4.86Y-4.64
X4.86Y-4.8
X4.95Y-5.2
X4.95Y-5.35
X4.96Y-4.64
X4.96Y-4.8
X5.53Y-4.12
X5.53Y-4.22
X5.53Y-4.32
X5.7Y-4.12
X5.7Y-4.22
X5.7Y-4.32
X5.76Y-5.39
X6.035Y-4.576
X6.15Y-4.75
X6.15Y-4.85
X6.15Y-4.95
X6.15Y-5.05
X6.15Y-5.15
T4
X4.6717Y-3.9933
X4.6717Y-5.7256
X6.0496Y-3.9933
X6.0496Y-5.7256
T0
M30
