%TF.GenerationSoftware,KiCad,Pcbnew,(5.1.12)-1*%
%TF.CreationDate,2022-06-02T00:13:14+02:00*%
%TF.ProjectId,strain gauge messurment,73747261-696e-4206-9761-756765206d65,rev?*%
%TF.SameCoordinates,Original*%
%TF.FileFunction,Copper,L2,Inr*%
%TF.FilePolarity,Positive*%
%FSLAX46Y46*%
G04 Gerber Fmt 4.6, Leading zero omitted, Abs format (unit mm)*
G04 Created by KiCad (PCBNEW (5.1.12)-1) date 2022-06-02 00:13:14*
%MOMM*%
%LPD*%
G01*
G04 APERTURE LIST*
%TA.AperFunction,ComponentPad*%
%ADD10O,1.700000X1.700000*%
%TD*%
%TA.AperFunction,ComponentPad*%
%ADD11R,1.700000X1.700000*%
%TD*%
%TA.AperFunction,ComponentPad*%
%ADD12C,0.900000*%
%TD*%
%TA.AperFunction,ComponentPad*%
%ADD13C,10.000000*%
%TD*%
%TA.AperFunction,ViaPad*%
%ADD14C,0.800000*%
%TD*%
%TA.AperFunction,Conductor*%
%ADD15C,0.250000*%
%TD*%
%TA.AperFunction,Conductor*%
%ADD16C,0.254000*%
%TD*%
%TA.AperFunction,Conductor*%
%ADD17C,0.100000*%
%TD*%
G04 APERTURE END LIST*
D10*
%TO.N,Net-(IC1-Pad21)*%
%TO.C,J9*%
X156210000Y-120650000D03*
%TO.N,Net-(IC1-Pad20)*%
X156210000Y-123190000D03*
%TO.N,Net-(IC1-Pad19)*%
X156210000Y-125730000D03*
%TO.N,Net-(IC1-Pad18)*%
X156210000Y-128270000D03*
D11*
%TO.N,Net-(IC1-Pad17)*%
X156210000Y-130810000D03*
%TD*%
D12*
%TO.N,GND*%
%TO.C,H4*%
X156311650Y-142778350D03*
X153660000Y-141680000D03*
X151008350Y-142778350D03*
X149910000Y-145430000D03*
X151008350Y-148081650D03*
X153660000Y-149180000D03*
X156311650Y-148081650D03*
X157410000Y-145430000D03*
D13*
X153660000Y-145430000D03*
%TD*%
D12*
%TO.N,GND*%
%TO.C,H3*%
X156311650Y-98778350D03*
X153660000Y-97680000D03*
X151008350Y-98778350D03*
X149910000Y-101430000D03*
X151008350Y-104081650D03*
X153660000Y-105180000D03*
X156311650Y-104081650D03*
X157410000Y-101430000D03*
D13*
X153660000Y-101430000D03*
%TD*%
D12*
%TO.N,GND*%
%TO.C,H2*%
X121311650Y-142778350D03*
X118660000Y-141680000D03*
X116008350Y-142778350D03*
X114910000Y-145430000D03*
X116008350Y-148081650D03*
X118660000Y-149180000D03*
X121311650Y-148081650D03*
X122410000Y-145430000D03*
D13*
X118660000Y-145430000D03*
%TD*%
D12*
%TO.N,GND*%
%TO.C,H1*%
X121311650Y-98778350D03*
X118660000Y-97680000D03*
X116008350Y-98778350D03*
X114910000Y-101430000D03*
X116008350Y-104081650D03*
X118660000Y-105180000D03*
X121311650Y-104081650D03*
X122410000Y-101430000D03*
D13*
X118660000Y-101430000D03*
%TD*%
D10*
%TO.N,GND*%
%TO.C,J6*%
X120650000Y-135890000D03*
%TO.N,Net-(J6-Pad2)*%
X123190000Y-135890000D03*
D11*
%TO.N,-V5*%
X125730000Y-135890000D03*
%TD*%
D10*
%TO.N,GND*%
%TO.C,J5*%
X120650000Y-132080000D03*
%TO.N,Net-(J5-Pad2)*%
X123190000Y-132080000D03*
D11*
%TO.N,-V4*%
X125730000Y-132080000D03*
%TD*%
D10*
%TO.N,GND*%
%TO.C,J4*%
X120904000Y-121920000D03*
%TO.N,Net-(J4-Pad2)*%
X123444000Y-121920000D03*
D11*
%TO.N,-V3*%
X125984000Y-121920000D03*
%TD*%
D10*
%TO.N,GND*%
%TO.C,J3*%
X120904000Y-117856000D03*
%TO.N,Net-(J3-Pad2)*%
X123444000Y-117856000D03*
D11*
%TO.N,-V2*%
X125984000Y-117856000D03*
%TD*%
D10*
%TO.N,GND*%
%TO.C,J2*%
X140462000Y-104648000D03*
%TO.N,Net-(J2-Pad2)*%
X140462000Y-107188000D03*
D11*
%TO.N,-V1*%
X140462000Y-109728000D03*
%TD*%
D10*
%TO.N,GND*%
%TO.C,J1*%
X144780000Y-104648000D03*
%TO.N,Net-(J1-Pad2)*%
X144780000Y-107188000D03*
D11*
%TO.N,-V0*%
X144780000Y-109728000D03*
%TD*%
%TO.N,12V*%
%TO.C,J8*%
X146304000Y-136906000D03*
%TD*%
%TO.N,3.3V*%
%TO.C,J7*%
X153290000Y-116230000D03*
%TD*%
D14*
%TO.N,GND*%
X143293000Y-114260000D03*
X148940000Y-112530000D03*
X149600000Y-132530000D03*
X128130000Y-140020000D03*
X132960000Y-127580000D03*
X127640000Y-114060000D03*
X149000000Y-119300000D03*
%TO.N,10V*%
X147330000Y-111720000D03*
X142170000Y-114000000D03*
X137270000Y-111750000D03*
X131860000Y-112590000D03*
X125500000Y-113190000D03*
X127000000Y-126890000D03*
X127000000Y-138650000D03*
X130500000Y-140120000D03*
X148700000Y-114750000D03*
%TO.N,+V3*%
X134950000Y-123890000D03*
X137265553Y-123913335D03*
%TO.N,-V3*%
X131720000Y-121880000D03*
X134990000Y-122390000D03*
X138125292Y-123402597D03*
%TO.N,+V5*%
X134980000Y-135510000D03*
X139088491Y-128019635D03*
%TO.N,-V5*%
X131760000Y-133790000D03*
X135020000Y-132890000D03*
X138610998Y-127140998D03*
%TO.N,+V1*%
X139970000Y-118700000D03*
X141140000Y-119820000D03*
%TO.N,3.3V*%
X147680000Y-118710000D03*
X147990000Y-130280000D03*
%TO.N,-V1*%
X142310000Y-115380000D03*
%TD*%
D15*
%TO.N,+V3*%
X134973335Y-123913335D02*
X134950000Y-123890000D01*
X137265553Y-123913335D02*
X134973335Y-123913335D01*
%TO.N,-V3*%
X126024000Y-121880000D02*
X125984000Y-121920000D01*
X131720000Y-121880000D02*
X126024000Y-121880000D01*
X134990000Y-122390000D02*
X137040000Y-122390000D01*
X137112695Y-122390000D02*
X137040000Y-122390000D01*
X138125292Y-123402597D02*
X137112695Y-122390000D01*
%TO.N,+V5*%
X139088491Y-129894511D02*
X136760000Y-132223002D01*
X139088491Y-128019635D02*
X139088491Y-129894511D01*
X136760000Y-133730000D02*
X134980000Y-135510000D01*
X136760000Y-132223002D02*
X136760000Y-133730000D01*
%TO.N,-V5*%
X129660000Y-135890000D02*
X131760000Y-133790000D01*
X125730000Y-135890000D02*
X129660000Y-135890000D01*
X135020000Y-130731996D02*
X138610998Y-127140998D01*
X135020000Y-132890000D02*
X135020000Y-130731996D01*
%TO.N,+V1*%
X140020000Y-118700000D02*
X141140000Y-119820000D01*
X139970000Y-118700000D02*
X140020000Y-118700000D01*
%TO.N,-V1*%
X140462000Y-113532000D02*
X142310000Y-115380000D01*
X140462000Y-109728000D02*
X140462000Y-113532000D01*
%TD*%
D16*
%TO.N,GND*%
X149005635Y-98205387D02*
X148465976Y-99175368D01*
X148125921Y-100231994D01*
X147998538Y-101334659D01*
X148088721Y-102440987D01*
X148393006Y-103508464D01*
X148899698Y-104496067D01*
X149005635Y-104654613D01*
X149679661Y-105230734D01*
X153480395Y-101430000D01*
X153466253Y-101415858D01*
X153645858Y-101236253D01*
X153660000Y-101250395D01*
X153674143Y-101236253D01*
X153853748Y-101415858D01*
X153839605Y-101430000D01*
X153853748Y-101444143D01*
X153674143Y-101623748D01*
X153660000Y-101609605D01*
X149859266Y-105410339D01*
X150435387Y-106084365D01*
X151405368Y-106624024D01*
X152461994Y-106964079D01*
X153564659Y-107091462D01*
X154670987Y-107001279D01*
X155511500Y-106761690D01*
X155511500Y-119331976D01*
X155506589Y-119334010D01*
X155263368Y-119496525D01*
X155056525Y-119703368D01*
X154894010Y-119946589D01*
X154782068Y-120216842D01*
X154725000Y-120503740D01*
X154725000Y-120796260D01*
X154782068Y-121083158D01*
X154894010Y-121353411D01*
X155056525Y-121596632D01*
X155263368Y-121803475D01*
X155437760Y-121920000D01*
X155263368Y-122036525D01*
X155056525Y-122243368D01*
X154894010Y-122486589D01*
X154782068Y-122756842D01*
X154725000Y-123043740D01*
X154725000Y-123336260D01*
X154782068Y-123623158D01*
X154894010Y-123893411D01*
X155056525Y-124136632D01*
X155263368Y-124343475D01*
X155437760Y-124460000D01*
X155263368Y-124576525D01*
X155056525Y-124783368D01*
X154894010Y-125026589D01*
X154782068Y-125296842D01*
X154725000Y-125583740D01*
X154725000Y-125876260D01*
X154782068Y-126163158D01*
X154894010Y-126433411D01*
X155056525Y-126676632D01*
X155263368Y-126883475D01*
X155437760Y-127000000D01*
X155263368Y-127116525D01*
X155056525Y-127323368D01*
X154894010Y-127566589D01*
X154782068Y-127836842D01*
X154725000Y-128123740D01*
X154725000Y-128416260D01*
X154782068Y-128703158D01*
X154894010Y-128973411D01*
X155056525Y-129216632D01*
X155188380Y-129348487D01*
X155115820Y-129370498D01*
X155005506Y-129429463D01*
X154908815Y-129508815D01*
X154829463Y-129605506D01*
X154770498Y-129715820D01*
X154734188Y-129835518D01*
X154721928Y-129960000D01*
X154721928Y-131660000D01*
X154734188Y-131784482D01*
X154770498Y-131904180D01*
X154829463Y-132014494D01*
X154908815Y-132111185D01*
X155005506Y-132190537D01*
X155115820Y-132249502D01*
X155235518Y-132285812D01*
X155360000Y-132298072D01*
X155511500Y-132298072D01*
X155511500Y-140106236D01*
X154858006Y-139895921D01*
X153755341Y-139768538D01*
X152649013Y-139858721D01*
X151581536Y-140163006D01*
X150593933Y-140669698D01*
X150435387Y-140775635D01*
X149859266Y-141449661D01*
X153660000Y-145250395D01*
X153674143Y-145236253D01*
X153853748Y-145415858D01*
X153839605Y-145430000D01*
X153853748Y-145444143D01*
X153674143Y-145623748D01*
X153660000Y-145609605D01*
X153645858Y-145623748D01*
X153466253Y-145444143D01*
X153480395Y-145430000D01*
X149679661Y-141629266D01*
X149005635Y-142205387D01*
X148465976Y-143175368D01*
X148125921Y-144231994D01*
X147998538Y-145334659D01*
X148088721Y-146440987D01*
X148393006Y-147508464D01*
X148877244Y-148452302D01*
X123449308Y-148412068D01*
X123854024Y-147684632D01*
X124194079Y-146628006D01*
X124321462Y-145525341D01*
X124231279Y-144419013D01*
X123926994Y-143351536D01*
X123420302Y-142363933D01*
X123314365Y-142205387D01*
X122640339Y-141629266D01*
X118839605Y-145430000D01*
X118853748Y-145444143D01*
X118674143Y-145623748D01*
X118660000Y-145609605D01*
X118645858Y-145623748D01*
X118466253Y-145444143D01*
X118480395Y-145430000D01*
X118466253Y-145415858D01*
X118645858Y-145236253D01*
X118660000Y-145250395D01*
X122460734Y-141449661D01*
X121884613Y-140775635D01*
X120914632Y-140235976D01*
X120237522Y-140018061D01*
X129465000Y-140018061D01*
X129465000Y-140221939D01*
X129504774Y-140421898D01*
X129582795Y-140610256D01*
X129696063Y-140779774D01*
X129840226Y-140923937D01*
X130009744Y-141037205D01*
X130198102Y-141115226D01*
X130398061Y-141155000D01*
X130601939Y-141155000D01*
X130801898Y-141115226D01*
X130990256Y-141037205D01*
X131159774Y-140923937D01*
X131303937Y-140779774D01*
X131417205Y-140610256D01*
X131495226Y-140421898D01*
X131535000Y-140221939D01*
X131535000Y-140018061D01*
X131495226Y-139818102D01*
X131417205Y-139629744D01*
X131303937Y-139460226D01*
X131159774Y-139316063D01*
X130990256Y-139202795D01*
X130801898Y-139124774D01*
X130601939Y-139085000D01*
X130398061Y-139085000D01*
X130198102Y-139124774D01*
X130009744Y-139202795D01*
X129840226Y-139316063D01*
X129696063Y-139460226D01*
X129582795Y-139629744D01*
X129504774Y-139818102D01*
X129465000Y-140018061D01*
X120237522Y-140018061D01*
X119858006Y-139895921D01*
X118755341Y-139768538D01*
X117649013Y-139858721D01*
X116581536Y-140163006D01*
X115633500Y-140649398D01*
X115633500Y-138548061D01*
X125965000Y-138548061D01*
X125965000Y-138751939D01*
X126004774Y-138951898D01*
X126082795Y-139140256D01*
X126196063Y-139309774D01*
X126340226Y-139453937D01*
X126509744Y-139567205D01*
X126698102Y-139645226D01*
X126898061Y-139685000D01*
X127101939Y-139685000D01*
X127301898Y-139645226D01*
X127490256Y-139567205D01*
X127659774Y-139453937D01*
X127803937Y-139309774D01*
X127917205Y-139140256D01*
X127995226Y-138951898D01*
X128035000Y-138751939D01*
X128035000Y-138548061D01*
X127995226Y-138348102D01*
X127917205Y-138159744D01*
X127803937Y-137990226D01*
X127659774Y-137846063D01*
X127490256Y-137732795D01*
X127301898Y-137654774D01*
X127101939Y-137615000D01*
X126898061Y-137615000D01*
X126698102Y-137654774D01*
X126509744Y-137732795D01*
X126340226Y-137846063D01*
X126196063Y-137990226D01*
X126082795Y-138159744D01*
X126004774Y-138348102D01*
X125965000Y-138548061D01*
X115633500Y-138548061D01*
X115633500Y-136246891D01*
X119208519Y-136246891D01*
X119305843Y-136521252D01*
X119454822Y-136771355D01*
X119649731Y-136987588D01*
X119883080Y-137161641D01*
X120145901Y-137286825D01*
X120293110Y-137331476D01*
X120523000Y-137210155D01*
X120523000Y-136017000D01*
X119329186Y-136017000D01*
X119208519Y-136246891D01*
X115633500Y-136246891D01*
X115633500Y-135533109D01*
X119208519Y-135533109D01*
X119329186Y-135763000D01*
X120523000Y-135763000D01*
X120523000Y-134569845D01*
X120777000Y-134569845D01*
X120777000Y-135763000D01*
X120797000Y-135763000D01*
X120797000Y-136017000D01*
X120777000Y-136017000D01*
X120777000Y-137210155D01*
X121006890Y-137331476D01*
X121154099Y-137286825D01*
X121416920Y-137161641D01*
X121650269Y-136987588D01*
X121845178Y-136771355D01*
X121914805Y-136654466D01*
X122036525Y-136836632D01*
X122243368Y-137043475D01*
X122486589Y-137205990D01*
X122756842Y-137317932D01*
X123043740Y-137375000D01*
X123336260Y-137375000D01*
X123623158Y-137317932D01*
X123893411Y-137205990D01*
X124136632Y-137043475D01*
X124268487Y-136911620D01*
X124290498Y-136984180D01*
X124349463Y-137094494D01*
X124428815Y-137191185D01*
X124525506Y-137270537D01*
X124635820Y-137329502D01*
X124755518Y-137365812D01*
X124880000Y-137378072D01*
X126580000Y-137378072D01*
X126704482Y-137365812D01*
X126824180Y-137329502D01*
X126934494Y-137270537D01*
X127031185Y-137191185D01*
X127110537Y-137094494D01*
X127169502Y-136984180D01*
X127205812Y-136864482D01*
X127218072Y-136740000D01*
X127218072Y-136650000D01*
X129622678Y-136650000D01*
X129660000Y-136653676D01*
X129697322Y-136650000D01*
X129697333Y-136650000D01*
X129808986Y-136639003D01*
X129952247Y-136595546D01*
X130084276Y-136524974D01*
X130200001Y-136430001D01*
X130223804Y-136400998D01*
X131216741Y-135408061D01*
X133945000Y-135408061D01*
X133945000Y-135611939D01*
X133984774Y-135811898D01*
X134062795Y-136000256D01*
X134176063Y-136169774D01*
X134320226Y-136313937D01*
X134489744Y-136427205D01*
X134678102Y-136505226D01*
X134878061Y-136545000D01*
X135081939Y-136545000D01*
X135281898Y-136505226D01*
X135470256Y-136427205D01*
X135639774Y-136313937D01*
X135783937Y-136169774D01*
X135859958Y-136056000D01*
X144815928Y-136056000D01*
X144815928Y-137756000D01*
X144828188Y-137880482D01*
X144864498Y-138000180D01*
X144923463Y-138110494D01*
X145002815Y-138207185D01*
X145099506Y-138286537D01*
X145209820Y-138345502D01*
X145329518Y-138381812D01*
X145454000Y-138394072D01*
X147154000Y-138394072D01*
X147278482Y-138381812D01*
X147398180Y-138345502D01*
X147508494Y-138286537D01*
X147605185Y-138207185D01*
X147684537Y-138110494D01*
X147743502Y-138000180D01*
X147779812Y-137880482D01*
X147792072Y-137756000D01*
X147792072Y-136056000D01*
X147779812Y-135931518D01*
X147743502Y-135811820D01*
X147684537Y-135701506D01*
X147605185Y-135604815D01*
X147508494Y-135525463D01*
X147398180Y-135466498D01*
X147278482Y-135430188D01*
X147154000Y-135417928D01*
X145454000Y-135417928D01*
X145329518Y-135430188D01*
X145209820Y-135466498D01*
X145099506Y-135525463D01*
X145002815Y-135604815D01*
X144923463Y-135701506D01*
X144864498Y-135811820D01*
X144828188Y-135931518D01*
X144815928Y-136056000D01*
X135859958Y-136056000D01*
X135897205Y-136000256D01*
X135975226Y-135811898D01*
X136015000Y-135611939D01*
X136015000Y-135549801D01*
X137271003Y-134293799D01*
X137300001Y-134270001D01*
X137326332Y-134237917D01*
X137394974Y-134154277D01*
X137465546Y-134022247D01*
X137495045Y-133925000D01*
X137509003Y-133878986D01*
X137520000Y-133767333D01*
X137520000Y-133767324D01*
X137523676Y-133730001D01*
X137520000Y-133692678D01*
X137520000Y-132537803D01*
X139599494Y-130458310D01*
X139628492Y-130434512D01*
X139723465Y-130318787D01*
X139794037Y-130186758D01*
X139796675Y-130178061D01*
X146955000Y-130178061D01*
X146955000Y-130381939D01*
X146994774Y-130581898D01*
X147072795Y-130770256D01*
X147186063Y-130939774D01*
X147330226Y-131083937D01*
X147499744Y-131197205D01*
X147688102Y-131275226D01*
X147888061Y-131315000D01*
X148091939Y-131315000D01*
X148291898Y-131275226D01*
X148480256Y-131197205D01*
X148649774Y-131083937D01*
X148793937Y-130939774D01*
X148907205Y-130770256D01*
X148985226Y-130581898D01*
X149025000Y-130381939D01*
X149025000Y-130178061D01*
X148985226Y-129978102D01*
X148907205Y-129789744D01*
X148793937Y-129620226D01*
X148649774Y-129476063D01*
X148480256Y-129362795D01*
X148291898Y-129284774D01*
X148091939Y-129245000D01*
X147888061Y-129245000D01*
X147688102Y-129284774D01*
X147499744Y-129362795D01*
X147330226Y-129476063D01*
X147186063Y-129620226D01*
X147072795Y-129789744D01*
X146994774Y-129978102D01*
X146955000Y-130178061D01*
X139796675Y-130178061D01*
X139837494Y-130043497D01*
X139848491Y-129931844D01*
X139852168Y-129894511D01*
X139848491Y-129857178D01*
X139848491Y-128723346D01*
X139892428Y-128679409D01*
X140005696Y-128509891D01*
X140083717Y-128321533D01*
X140123491Y-128121574D01*
X140123491Y-127917696D01*
X140083717Y-127717737D01*
X140005696Y-127529379D01*
X139892428Y-127359861D01*
X139748265Y-127215698D01*
X139645998Y-127147366D01*
X139645998Y-127039059D01*
X139606224Y-126839100D01*
X139528203Y-126650742D01*
X139414935Y-126481224D01*
X139270772Y-126337061D01*
X139101254Y-126223793D01*
X138912896Y-126145772D01*
X138712937Y-126105998D01*
X138509059Y-126105998D01*
X138309100Y-126145772D01*
X138120742Y-126223793D01*
X137951224Y-126337061D01*
X137807061Y-126481224D01*
X137693793Y-126650742D01*
X137615772Y-126839100D01*
X137575998Y-127039059D01*
X137575998Y-127101196D01*
X134508998Y-130168197D01*
X134480000Y-130191995D01*
X134456202Y-130220993D01*
X134456201Y-130220994D01*
X134385026Y-130307720D01*
X134314454Y-130439750D01*
X134287234Y-130529485D01*
X134270998Y-130583010D01*
X134260001Y-130694663D01*
X134256324Y-130731996D01*
X134260001Y-130769328D01*
X134260000Y-132186289D01*
X134216063Y-132230226D01*
X134102795Y-132399744D01*
X134024774Y-132588102D01*
X133985000Y-132788061D01*
X133985000Y-132991939D01*
X134024774Y-133191898D01*
X134102795Y-133380256D01*
X134216063Y-133549774D01*
X134360226Y-133693937D01*
X134529744Y-133807205D01*
X134718102Y-133885226D01*
X134918061Y-133925000D01*
X135121939Y-133925000D01*
X135321898Y-133885226D01*
X135510256Y-133807205D01*
X135679774Y-133693937D01*
X135823937Y-133549774D01*
X135937205Y-133380256D01*
X136000001Y-133228655D01*
X136000001Y-133415197D01*
X134940199Y-134475000D01*
X134878061Y-134475000D01*
X134678102Y-134514774D01*
X134489744Y-134592795D01*
X134320226Y-134706063D01*
X134176063Y-134850226D01*
X134062795Y-135019744D01*
X133984774Y-135208102D01*
X133945000Y-135408061D01*
X131216741Y-135408061D01*
X131799803Y-134825000D01*
X131861939Y-134825000D01*
X132061898Y-134785226D01*
X132250256Y-134707205D01*
X132419774Y-134593937D01*
X132563937Y-134449774D01*
X132677205Y-134280256D01*
X132755226Y-134091898D01*
X132795000Y-133891939D01*
X132795000Y-133688061D01*
X132755226Y-133488102D01*
X132677205Y-133299744D01*
X132563937Y-133130226D01*
X132419774Y-132986063D01*
X132250256Y-132872795D01*
X132061898Y-132794774D01*
X131861939Y-132755000D01*
X131658061Y-132755000D01*
X131458102Y-132794774D01*
X131269744Y-132872795D01*
X131100226Y-132986063D01*
X130956063Y-133130226D01*
X130842795Y-133299744D01*
X130764774Y-133488102D01*
X130725000Y-133688061D01*
X130725000Y-133750197D01*
X129345199Y-135130000D01*
X127218072Y-135130000D01*
X127218072Y-135040000D01*
X127205812Y-134915518D01*
X127169502Y-134795820D01*
X127110537Y-134685506D01*
X127031185Y-134588815D01*
X126934494Y-134509463D01*
X126824180Y-134450498D01*
X126704482Y-134414188D01*
X126580000Y-134401928D01*
X124880000Y-134401928D01*
X124755518Y-134414188D01*
X124635820Y-134450498D01*
X124525506Y-134509463D01*
X124428815Y-134588815D01*
X124349463Y-134685506D01*
X124290498Y-134795820D01*
X124268487Y-134868380D01*
X124136632Y-134736525D01*
X123893411Y-134574010D01*
X123623158Y-134462068D01*
X123336260Y-134405000D01*
X123043740Y-134405000D01*
X122756842Y-134462068D01*
X122486589Y-134574010D01*
X122243368Y-134736525D01*
X122036525Y-134943368D01*
X121914805Y-135125534D01*
X121845178Y-135008645D01*
X121650269Y-134792412D01*
X121416920Y-134618359D01*
X121154099Y-134493175D01*
X121006890Y-134448524D01*
X120777000Y-134569845D01*
X120523000Y-134569845D01*
X120293110Y-134448524D01*
X120145901Y-134493175D01*
X119883080Y-134618359D01*
X119649731Y-134792412D01*
X119454822Y-135008645D01*
X119305843Y-135258748D01*
X119208519Y-135533109D01*
X115633500Y-135533109D01*
X115633500Y-132436891D01*
X119208519Y-132436891D01*
X119305843Y-132711252D01*
X119454822Y-132961355D01*
X119649731Y-133177588D01*
X119883080Y-133351641D01*
X120145901Y-133476825D01*
X120293110Y-133521476D01*
X120523000Y-133400155D01*
X120523000Y-132207000D01*
X119329186Y-132207000D01*
X119208519Y-132436891D01*
X115633500Y-132436891D01*
X115633500Y-131723109D01*
X119208519Y-131723109D01*
X119329186Y-131953000D01*
X120523000Y-131953000D01*
X120523000Y-130759845D01*
X120777000Y-130759845D01*
X120777000Y-131953000D01*
X120797000Y-131953000D01*
X120797000Y-132207000D01*
X120777000Y-132207000D01*
X120777000Y-133400155D01*
X121006890Y-133521476D01*
X121154099Y-133476825D01*
X121416920Y-133351641D01*
X121650269Y-133177588D01*
X121845178Y-132961355D01*
X121914805Y-132844466D01*
X122036525Y-133026632D01*
X122243368Y-133233475D01*
X122486589Y-133395990D01*
X122756842Y-133507932D01*
X123043740Y-133565000D01*
X123336260Y-133565000D01*
X123623158Y-133507932D01*
X123893411Y-133395990D01*
X124136632Y-133233475D01*
X124268487Y-133101620D01*
X124290498Y-133174180D01*
X124349463Y-133284494D01*
X124428815Y-133381185D01*
X124525506Y-133460537D01*
X124635820Y-133519502D01*
X124755518Y-133555812D01*
X124880000Y-133568072D01*
X126580000Y-133568072D01*
X126704482Y-133555812D01*
X126824180Y-133519502D01*
X126934494Y-133460537D01*
X127031185Y-133381185D01*
X127110537Y-133284494D01*
X127169502Y-133174180D01*
X127205812Y-133054482D01*
X127218072Y-132930000D01*
X127218072Y-131230000D01*
X127205812Y-131105518D01*
X127169502Y-130985820D01*
X127110537Y-130875506D01*
X127031185Y-130778815D01*
X126934494Y-130699463D01*
X126824180Y-130640498D01*
X126704482Y-130604188D01*
X126580000Y-130591928D01*
X124880000Y-130591928D01*
X124755518Y-130604188D01*
X124635820Y-130640498D01*
X124525506Y-130699463D01*
X124428815Y-130778815D01*
X124349463Y-130875506D01*
X124290498Y-130985820D01*
X124268487Y-131058380D01*
X124136632Y-130926525D01*
X123893411Y-130764010D01*
X123623158Y-130652068D01*
X123336260Y-130595000D01*
X123043740Y-130595000D01*
X122756842Y-130652068D01*
X122486589Y-130764010D01*
X122243368Y-130926525D01*
X122036525Y-131133368D01*
X121914805Y-131315534D01*
X121845178Y-131198645D01*
X121650269Y-130982412D01*
X121416920Y-130808359D01*
X121154099Y-130683175D01*
X121006890Y-130638524D01*
X120777000Y-130759845D01*
X120523000Y-130759845D01*
X120293110Y-130638524D01*
X120145901Y-130683175D01*
X119883080Y-130808359D01*
X119649731Y-130982412D01*
X119454822Y-131198645D01*
X119305843Y-131448748D01*
X119208519Y-131723109D01*
X115633500Y-131723109D01*
X115633500Y-126788061D01*
X125965000Y-126788061D01*
X125965000Y-126991939D01*
X126004774Y-127191898D01*
X126082795Y-127380256D01*
X126196063Y-127549774D01*
X126340226Y-127693937D01*
X126509744Y-127807205D01*
X126698102Y-127885226D01*
X126898061Y-127925000D01*
X127101939Y-127925000D01*
X127301898Y-127885226D01*
X127490256Y-127807205D01*
X127659774Y-127693937D01*
X127803937Y-127549774D01*
X127917205Y-127380256D01*
X127995226Y-127191898D01*
X128035000Y-126991939D01*
X128035000Y-126788061D01*
X127995226Y-126588102D01*
X127917205Y-126399744D01*
X127803937Y-126230226D01*
X127659774Y-126086063D01*
X127490256Y-125972795D01*
X127301898Y-125894774D01*
X127101939Y-125855000D01*
X126898061Y-125855000D01*
X126698102Y-125894774D01*
X126509744Y-125972795D01*
X126340226Y-126086063D01*
X126196063Y-126230226D01*
X126082795Y-126399744D01*
X126004774Y-126588102D01*
X125965000Y-126788061D01*
X115633500Y-126788061D01*
X115633500Y-123788061D01*
X133915000Y-123788061D01*
X133915000Y-123991939D01*
X133954774Y-124191898D01*
X134032795Y-124380256D01*
X134146063Y-124549774D01*
X134290226Y-124693937D01*
X134459744Y-124807205D01*
X134648102Y-124885226D01*
X134848061Y-124925000D01*
X135051939Y-124925000D01*
X135251898Y-124885226D01*
X135440256Y-124807205D01*
X135609774Y-124693937D01*
X135630376Y-124673335D01*
X136561842Y-124673335D01*
X136605779Y-124717272D01*
X136775297Y-124830540D01*
X136963655Y-124908561D01*
X137163614Y-124948335D01*
X137367492Y-124948335D01*
X137567451Y-124908561D01*
X137755809Y-124830540D01*
X137925327Y-124717272D01*
X138069490Y-124573109D01*
X138160036Y-124437597D01*
X138227231Y-124437597D01*
X138427190Y-124397823D01*
X138615548Y-124319802D01*
X138785066Y-124206534D01*
X138929229Y-124062371D01*
X139042497Y-123892853D01*
X139120518Y-123704495D01*
X139160292Y-123504536D01*
X139160292Y-123300658D01*
X139120518Y-123100699D01*
X139042497Y-122912341D01*
X138929229Y-122742823D01*
X138785066Y-122598660D01*
X138615548Y-122485392D01*
X138427190Y-122407371D01*
X138227231Y-122367597D01*
X138165094Y-122367597D01*
X137676498Y-121879002D01*
X137652696Y-121849999D01*
X137536971Y-121755026D01*
X137404942Y-121684454D01*
X137261681Y-121640997D01*
X137150028Y-121630000D01*
X137150017Y-121630000D01*
X137112695Y-121626324D01*
X137075373Y-121630000D01*
X135693711Y-121630000D01*
X135649774Y-121586063D01*
X135480256Y-121472795D01*
X135291898Y-121394774D01*
X135091939Y-121355000D01*
X134888061Y-121355000D01*
X134688102Y-121394774D01*
X134499744Y-121472795D01*
X134330226Y-121586063D01*
X134186063Y-121730226D01*
X134072795Y-121899744D01*
X133994774Y-122088102D01*
X133955000Y-122288061D01*
X133955000Y-122491939D01*
X133994774Y-122691898D01*
X134072795Y-122880256D01*
X134186063Y-123049774D01*
X134256289Y-123120000D01*
X134146063Y-123230226D01*
X134032795Y-123399744D01*
X133954774Y-123588102D01*
X133915000Y-123788061D01*
X115633500Y-123788061D01*
X115633500Y-122276891D01*
X119462519Y-122276891D01*
X119559843Y-122551252D01*
X119708822Y-122801355D01*
X119903731Y-123017588D01*
X120137080Y-123191641D01*
X120399901Y-123316825D01*
X120547110Y-123361476D01*
X120777000Y-123240155D01*
X120777000Y-122047000D01*
X119583186Y-122047000D01*
X119462519Y-122276891D01*
X115633500Y-122276891D01*
X115633500Y-121563109D01*
X119462519Y-121563109D01*
X119583186Y-121793000D01*
X120777000Y-121793000D01*
X120777000Y-120599845D01*
X121031000Y-120599845D01*
X121031000Y-121793000D01*
X121051000Y-121793000D01*
X121051000Y-122047000D01*
X121031000Y-122047000D01*
X121031000Y-123240155D01*
X121260890Y-123361476D01*
X121408099Y-123316825D01*
X121670920Y-123191641D01*
X121904269Y-123017588D01*
X122099178Y-122801355D01*
X122168805Y-122684466D01*
X122290525Y-122866632D01*
X122497368Y-123073475D01*
X122740589Y-123235990D01*
X123010842Y-123347932D01*
X123297740Y-123405000D01*
X123590260Y-123405000D01*
X123877158Y-123347932D01*
X124147411Y-123235990D01*
X124390632Y-123073475D01*
X124522487Y-122941620D01*
X124544498Y-123014180D01*
X124603463Y-123124494D01*
X124682815Y-123221185D01*
X124779506Y-123300537D01*
X124889820Y-123359502D01*
X125009518Y-123395812D01*
X125134000Y-123408072D01*
X126834000Y-123408072D01*
X126958482Y-123395812D01*
X127078180Y-123359502D01*
X127188494Y-123300537D01*
X127285185Y-123221185D01*
X127364537Y-123124494D01*
X127423502Y-123014180D01*
X127459812Y-122894482D01*
X127472072Y-122770000D01*
X127472072Y-122640000D01*
X131016289Y-122640000D01*
X131060226Y-122683937D01*
X131229744Y-122797205D01*
X131418102Y-122875226D01*
X131618061Y-122915000D01*
X131821939Y-122915000D01*
X132021898Y-122875226D01*
X132210256Y-122797205D01*
X132379774Y-122683937D01*
X132523937Y-122539774D01*
X132637205Y-122370256D01*
X132715226Y-122181898D01*
X132755000Y-121981939D01*
X132755000Y-121778061D01*
X132715226Y-121578102D01*
X132637205Y-121389744D01*
X132523937Y-121220226D01*
X132379774Y-121076063D01*
X132210256Y-120962795D01*
X132021898Y-120884774D01*
X131821939Y-120845000D01*
X131618061Y-120845000D01*
X131418102Y-120884774D01*
X131229744Y-120962795D01*
X131060226Y-121076063D01*
X131016289Y-121120000D01*
X127472072Y-121120000D01*
X127472072Y-121070000D01*
X127459812Y-120945518D01*
X127423502Y-120825820D01*
X127364537Y-120715506D01*
X127285185Y-120618815D01*
X127188494Y-120539463D01*
X127078180Y-120480498D01*
X126958482Y-120444188D01*
X126834000Y-120431928D01*
X125134000Y-120431928D01*
X125009518Y-120444188D01*
X124889820Y-120480498D01*
X124779506Y-120539463D01*
X124682815Y-120618815D01*
X124603463Y-120715506D01*
X124544498Y-120825820D01*
X124522487Y-120898380D01*
X124390632Y-120766525D01*
X124147411Y-120604010D01*
X123877158Y-120492068D01*
X123590260Y-120435000D01*
X123297740Y-120435000D01*
X123010842Y-120492068D01*
X122740589Y-120604010D01*
X122497368Y-120766525D01*
X122290525Y-120973368D01*
X122168805Y-121155534D01*
X122099178Y-121038645D01*
X121904269Y-120822412D01*
X121670920Y-120648359D01*
X121408099Y-120523175D01*
X121260890Y-120478524D01*
X121031000Y-120599845D01*
X120777000Y-120599845D01*
X120547110Y-120478524D01*
X120399901Y-120523175D01*
X120137080Y-120648359D01*
X119903731Y-120822412D01*
X119708822Y-121038645D01*
X119559843Y-121288748D01*
X119462519Y-121563109D01*
X115633500Y-121563109D01*
X115633500Y-118212891D01*
X119462519Y-118212891D01*
X119559843Y-118487252D01*
X119708822Y-118737355D01*
X119903731Y-118953588D01*
X120137080Y-119127641D01*
X120399901Y-119252825D01*
X120547110Y-119297476D01*
X120777000Y-119176155D01*
X120777000Y-117983000D01*
X119583186Y-117983000D01*
X119462519Y-118212891D01*
X115633500Y-118212891D01*
X115633500Y-117499109D01*
X119462519Y-117499109D01*
X119583186Y-117729000D01*
X120777000Y-117729000D01*
X120777000Y-116535845D01*
X121031000Y-116535845D01*
X121031000Y-117729000D01*
X121051000Y-117729000D01*
X121051000Y-117983000D01*
X121031000Y-117983000D01*
X121031000Y-119176155D01*
X121260890Y-119297476D01*
X121408099Y-119252825D01*
X121670920Y-119127641D01*
X121904269Y-118953588D01*
X122099178Y-118737355D01*
X122168805Y-118620466D01*
X122290525Y-118802632D01*
X122497368Y-119009475D01*
X122740589Y-119171990D01*
X123010842Y-119283932D01*
X123297740Y-119341000D01*
X123590260Y-119341000D01*
X123877158Y-119283932D01*
X124147411Y-119171990D01*
X124390632Y-119009475D01*
X124522487Y-118877620D01*
X124544498Y-118950180D01*
X124603463Y-119060494D01*
X124682815Y-119157185D01*
X124779506Y-119236537D01*
X124889820Y-119295502D01*
X125009518Y-119331812D01*
X125134000Y-119344072D01*
X126834000Y-119344072D01*
X126958482Y-119331812D01*
X127078180Y-119295502D01*
X127188494Y-119236537D01*
X127285185Y-119157185D01*
X127364537Y-119060494D01*
X127423502Y-118950180D01*
X127459812Y-118830482D01*
X127472072Y-118706000D01*
X127472072Y-118598061D01*
X138935000Y-118598061D01*
X138935000Y-118801939D01*
X138974774Y-119001898D01*
X139052795Y-119190256D01*
X139166063Y-119359774D01*
X139310226Y-119503937D01*
X139479744Y-119617205D01*
X139668102Y-119695226D01*
X139868061Y-119735000D01*
X139980199Y-119735000D01*
X140105000Y-119859802D01*
X140105000Y-119921939D01*
X140144774Y-120121898D01*
X140222795Y-120310256D01*
X140336063Y-120479774D01*
X140480226Y-120623937D01*
X140649744Y-120737205D01*
X140838102Y-120815226D01*
X141038061Y-120855000D01*
X141241939Y-120855000D01*
X141441898Y-120815226D01*
X141630256Y-120737205D01*
X141799774Y-120623937D01*
X141943937Y-120479774D01*
X142057205Y-120310256D01*
X142135226Y-120121898D01*
X142175000Y-119921939D01*
X142175000Y-119718061D01*
X142135226Y-119518102D01*
X142057205Y-119329744D01*
X141943937Y-119160226D01*
X141799774Y-119016063D01*
X141630256Y-118902795D01*
X141441898Y-118824774D01*
X141241939Y-118785000D01*
X141179802Y-118785000D01*
X141005000Y-118610199D01*
X141005000Y-118608061D01*
X146645000Y-118608061D01*
X146645000Y-118811939D01*
X146684774Y-119011898D01*
X146762795Y-119200256D01*
X146876063Y-119369774D01*
X147020226Y-119513937D01*
X147189744Y-119627205D01*
X147378102Y-119705226D01*
X147578061Y-119745000D01*
X147781939Y-119745000D01*
X147981898Y-119705226D01*
X148170256Y-119627205D01*
X148339774Y-119513937D01*
X148483937Y-119369774D01*
X148597205Y-119200256D01*
X148675226Y-119011898D01*
X148715000Y-118811939D01*
X148715000Y-118608061D01*
X148675226Y-118408102D01*
X148597205Y-118219744D01*
X148483937Y-118050226D01*
X148339774Y-117906063D01*
X148170256Y-117792795D01*
X147981898Y-117714774D01*
X147781939Y-117675000D01*
X147578061Y-117675000D01*
X147378102Y-117714774D01*
X147189744Y-117792795D01*
X147020226Y-117906063D01*
X146876063Y-118050226D01*
X146762795Y-118219744D01*
X146684774Y-118408102D01*
X146645000Y-118608061D01*
X141005000Y-118608061D01*
X141005000Y-118598061D01*
X140965226Y-118398102D01*
X140887205Y-118209744D01*
X140773937Y-118040226D01*
X140629774Y-117896063D01*
X140460256Y-117782795D01*
X140271898Y-117704774D01*
X140071939Y-117665000D01*
X139868061Y-117665000D01*
X139668102Y-117704774D01*
X139479744Y-117782795D01*
X139310226Y-117896063D01*
X139166063Y-118040226D01*
X139052795Y-118209744D01*
X138974774Y-118398102D01*
X138935000Y-118598061D01*
X127472072Y-118598061D01*
X127472072Y-117006000D01*
X127459812Y-116881518D01*
X127423502Y-116761820D01*
X127364537Y-116651506D01*
X127285185Y-116554815D01*
X127188494Y-116475463D01*
X127078180Y-116416498D01*
X126958482Y-116380188D01*
X126834000Y-116367928D01*
X125134000Y-116367928D01*
X125009518Y-116380188D01*
X124889820Y-116416498D01*
X124779506Y-116475463D01*
X124682815Y-116554815D01*
X124603463Y-116651506D01*
X124544498Y-116761820D01*
X124522487Y-116834380D01*
X124390632Y-116702525D01*
X124147411Y-116540010D01*
X123877158Y-116428068D01*
X123590260Y-116371000D01*
X123297740Y-116371000D01*
X123010842Y-116428068D01*
X122740589Y-116540010D01*
X122497368Y-116702525D01*
X122290525Y-116909368D01*
X122168805Y-117091534D01*
X122099178Y-116974645D01*
X121904269Y-116758412D01*
X121670920Y-116584359D01*
X121408099Y-116459175D01*
X121260890Y-116414524D01*
X121031000Y-116535845D01*
X120777000Y-116535845D01*
X120547110Y-116414524D01*
X120399901Y-116459175D01*
X120137080Y-116584359D01*
X119903731Y-116758412D01*
X119708822Y-116974645D01*
X119559843Y-117224748D01*
X119462519Y-117499109D01*
X115633500Y-117499109D01*
X115633500Y-113088061D01*
X124465000Y-113088061D01*
X124465000Y-113291939D01*
X124504774Y-113491898D01*
X124582795Y-113680256D01*
X124696063Y-113849774D01*
X124840226Y-113993937D01*
X125009744Y-114107205D01*
X125198102Y-114185226D01*
X125398061Y-114225000D01*
X125601939Y-114225000D01*
X125801898Y-114185226D01*
X125990256Y-114107205D01*
X126159774Y-113993937D01*
X126303937Y-113849774D01*
X126417205Y-113680256D01*
X126495226Y-113491898D01*
X126535000Y-113291939D01*
X126535000Y-113088061D01*
X126495226Y-112888102D01*
X126417205Y-112699744D01*
X126303937Y-112530226D01*
X126261772Y-112488061D01*
X130825000Y-112488061D01*
X130825000Y-112691939D01*
X130864774Y-112891898D01*
X130942795Y-113080256D01*
X131056063Y-113249774D01*
X131200226Y-113393937D01*
X131369744Y-113507205D01*
X131558102Y-113585226D01*
X131758061Y-113625000D01*
X131961939Y-113625000D01*
X132161898Y-113585226D01*
X132350256Y-113507205D01*
X132519774Y-113393937D01*
X132663937Y-113249774D01*
X132777205Y-113080256D01*
X132855226Y-112891898D01*
X132895000Y-112691939D01*
X132895000Y-112488061D01*
X132855226Y-112288102D01*
X132777205Y-112099744D01*
X132663937Y-111930226D01*
X132519774Y-111786063D01*
X132350256Y-111672795D01*
X132290544Y-111648061D01*
X136235000Y-111648061D01*
X136235000Y-111851939D01*
X136274774Y-112051898D01*
X136352795Y-112240256D01*
X136466063Y-112409774D01*
X136610226Y-112553937D01*
X136779744Y-112667205D01*
X136968102Y-112745226D01*
X137168061Y-112785000D01*
X137371939Y-112785000D01*
X137571898Y-112745226D01*
X137760256Y-112667205D01*
X137929774Y-112553937D01*
X138073937Y-112409774D01*
X138187205Y-112240256D01*
X138265226Y-112051898D01*
X138305000Y-111851939D01*
X138305000Y-111648061D01*
X138265226Y-111448102D01*
X138187205Y-111259744D01*
X138073937Y-111090226D01*
X137929774Y-110946063D01*
X137760256Y-110832795D01*
X137571898Y-110754774D01*
X137371939Y-110715000D01*
X137168061Y-110715000D01*
X136968102Y-110754774D01*
X136779744Y-110832795D01*
X136610226Y-110946063D01*
X136466063Y-111090226D01*
X136352795Y-111259744D01*
X136274774Y-111448102D01*
X136235000Y-111648061D01*
X132290544Y-111648061D01*
X132161898Y-111594774D01*
X131961939Y-111555000D01*
X131758061Y-111555000D01*
X131558102Y-111594774D01*
X131369744Y-111672795D01*
X131200226Y-111786063D01*
X131056063Y-111930226D01*
X130942795Y-112099744D01*
X130864774Y-112288102D01*
X130825000Y-112488061D01*
X126261772Y-112488061D01*
X126159774Y-112386063D01*
X125990256Y-112272795D01*
X125801898Y-112194774D01*
X125601939Y-112155000D01*
X125398061Y-112155000D01*
X125198102Y-112194774D01*
X125009744Y-112272795D01*
X124840226Y-112386063D01*
X124696063Y-112530226D01*
X124582795Y-112699744D01*
X124504774Y-112888102D01*
X124465000Y-113088061D01*
X115633500Y-113088061D01*
X115633500Y-108878000D01*
X138973928Y-108878000D01*
X138973928Y-110578000D01*
X138986188Y-110702482D01*
X139022498Y-110822180D01*
X139081463Y-110932494D01*
X139160815Y-111029185D01*
X139257506Y-111108537D01*
X139367820Y-111167502D01*
X139487518Y-111203812D01*
X139612000Y-111216072D01*
X139702000Y-111216072D01*
X139702001Y-113494668D01*
X139698324Y-113532000D01*
X139712998Y-113680985D01*
X139756454Y-113824246D01*
X139827026Y-113956276D01*
X139898201Y-114043002D01*
X139922000Y-114072001D01*
X139950998Y-114095799D01*
X141275000Y-115419802D01*
X141275000Y-115481939D01*
X141314774Y-115681898D01*
X141392795Y-115870256D01*
X141506063Y-116039774D01*
X141650226Y-116183937D01*
X141819744Y-116297205D01*
X142008102Y-116375226D01*
X142208061Y-116415000D01*
X142411939Y-116415000D01*
X142611898Y-116375226D01*
X142800256Y-116297205D01*
X142969774Y-116183937D01*
X143113937Y-116039774D01*
X143227205Y-115870256D01*
X143305226Y-115681898D01*
X143345000Y-115481939D01*
X143345000Y-115278061D01*
X143305226Y-115078102D01*
X143227205Y-114889744D01*
X143113937Y-114720226D01*
X143041772Y-114648061D01*
X147665000Y-114648061D01*
X147665000Y-114851939D01*
X147704774Y-115051898D01*
X147782795Y-115240256D01*
X147896063Y-115409774D01*
X148040226Y-115553937D01*
X148209744Y-115667205D01*
X148398102Y-115745226D01*
X148598061Y-115785000D01*
X148801939Y-115785000D01*
X149001898Y-115745226D01*
X149190256Y-115667205D01*
X149359774Y-115553937D01*
X149503937Y-115409774D01*
X149523831Y-115380000D01*
X151801928Y-115380000D01*
X151801928Y-117080000D01*
X151814188Y-117204482D01*
X151850498Y-117324180D01*
X151909463Y-117434494D01*
X151988815Y-117531185D01*
X152085506Y-117610537D01*
X152195820Y-117669502D01*
X152315518Y-117705812D01*
X152440000Y-117718072D01*
X154140000Y-117718072D01*
X154264482Y-117705812D01*
X154384180Y-117669502D01*
X154494494Y-117610537D01*
X154591185Y-117531185D01*
X154670537Y-117434494D01*
X154729502Y-117324180D01*
X154765812Y-117204482D01*
X154778072Y-117080000D01*
X154778072Y-115380000D01*
X154765812Y-115255518D01*
X154729502Y-115135820D01*
X154670537Y-115025506D01*
X154591185Y-114928815D01*
X154494494Y-114849463D01*
X154384180Y-114790498D01*
X154264482Y-114754188D01*
X154140000Y-114741928D01*
X152440000Y-114741928D01*
X152315518Y-114754188D01*
X152195820Y-114790498D01*
X152085506Y-114849463D01*
X151988815Y-114928815D01*
X151909463Y-115025506D01*
X151850498Y-115135820D01*
X151814188Y-115255518D01*
X151801928Y-115380000D01*
X149523831Y-115380000D01*
X149617205Y-115240256D01*
X149695226Y-115051898D01*
X149735000Y-114851939D01*
X149735000Y-114648061D01*
X149695226Y-114448102D01*
X149617205Y-114259744D01*
X149503937Y-114090226D01*
X149359774Y-113946063D01*
X149190256Y-113832795D01*
X149001898Y-113754774D01*
X148801939Y-113715000D01*
X148598061Y-113715000D01*
X148398102Y-113754774D01*
X148209744Y-113832795D01*
X148040226Y-113946063D01*
X147896063Y-114090226D01*
X147782795Y-114259744D01*
X147704774Y-114448102D01*
X147665000Y-114648061D01*
X143041772Y-114648061D01*
X143005799Y-114612088D01*
X143087205Y-114490256D01*
X143165226Y-114301898D01*
X143205000Y-114101939D01*
X143205000Y-113898061D01*
X143165226Y-113698102D01*
X143087205Y-113509744D01*
X142973937Y-113340226D01*
X142829774Y-113196063D01*
X142660256Y-113082795D01*
X142471898Y-113004774D01*
X142271939Y-112965000D01*
X142068061Y-112965000D01*
X141868102Y-113004774D01*
X141679744Y-113082795D01*
X141510226Y-113196063D01*
X141366063Y-113340226D01*
X141357637Y-113352836D01*
X141222000Y-113217199D01*
X141222000Y-111618061D01*
X146295000Y-111618061D01*
X146295000Y-111821939D01*
X146334774Y-112021898D01*
X146412795Y-112210256D01*
X146526063Y-112379774D01*
X146670226Y-112523937D01*
X146839744Y-112637205D01*
X147028102Y-112715226D01*
X147228061Y-112755000D01*
X147431939Y-112755000D01*
X147631898Y-112715226D01*
X147820256Y-112637205D01*
X147989774Y-112523937D01*
X148133937Y-112379774D01*
X148247205Y-112210256D01*
X148325226Y-112021898D01*
X148365000Y-111821939D01*
X148365000Y-111618061D01*
X148325226Y-111418102D01*
X148247205Y-111229744D01*
X148133937Y-111060226D01*
X147989774Y-110916063D01*
X147820256Y-110802795D01*
X147631898Y-110724774D01*
X147431939Y-110685000D01*
X147228061Y-110685000D01*
X147028102Y-110724774D01*
X146839744Y-110802795D01*
X146670226Y-110916063D01*
X146526063Y-111060226D01*
X146412795Y-111229744D01*
X146334774Y-111418102D01*
X146295000Y-111618061D01*
X141222000Y-111618061D01*
X141222000Y-111216072D01*
X141312000Y-111216072D01*
X141436482Y-111203812D01*
X141556180Y-111167502D01*
X141666494Y-111108537D01*
X141763185Y-111029185D01*
X141842537Y-110932494D01*
X141901502Y-110822180D01*
X141937812Y-110702482D01*
X141950072Y-110578000D01*
X141950072Y-108878000D01*
X143291928Y-108878000D01*
X143291928Y-110578000D01*
X143304188Y-110702482D01*
X143340498Y-110822180D01*
X143399463Y-110932494D01*
X143478815Y-111029185D01*
X143575506Y-111108537D01*
X143685820Y-111167502D01*
X143805518Y-111203812D01*
X143930000Y-111216072D01*
X145630000Y-111216072D01*
X145754482Y-111203812D01*
X145874180Y-111167502D01*
X145984494Y-111108537D01*
X146081185Y-111029185D01*
X146160537Y-110932494D01*
X146219502Y-110822180D01*
X146255812Y-110702482D01*
X146268072Y-110578000D01*
X146268072Y-108878000D01*
X146255812Y-108753518D01*
X146219502Y-108633820D01*
X146160537Y-108523506D01*
X146081185Y-108426815D01*
X145984494Y-108347463D01*
X145874180Y-108288498D01*
X145801620Y-108266487D01*
X145933475Y-108134632D01*
X146095990Y-107891411D01*
X146207932Y-107621158D01*
X146265000Y-107334260D01*
X146265000Y-107041740D01*
X146207932Y-106754842D01*
X146095990Y-106484589D01*
X145933475Y-106241368D01*
X145726632Y-106034525D01*
X145544466Y-105912805D01*
X145661355Y-105843178D01*
X145877588Y-105648269D01*
X146051641Y-105414920D01*
X146176825Y-105152099D01*
X146221476Y-105004890D01*
X146100155Y-104775000D01*
X144907000Y-104775000D01*
X144907000Y-104795000D01*
X144653000Y-104795000D01*
X144653000Y-104775000D01*
X143459845Y-104775000D01*
X143338524Y-105004890D01*
X143383175Y-105152099D01*
X143508359Y-105414920D01*
X143682412Y-105648269D01*
X143898645Y-105843178D01*
X144015534Y-105912805D01*
X143833368Y-106034525D01*
X143626525Y-106241368D01*
X143464010Y-106484589D01*
X143352068Y-106754842D01*
X143295000Y-107041740D01*
X143295000Y-107334260D01*
X143352068Y-107621158D01*
X143464010Y-107891411D01*
X143626525Y-108134632D01*
X143758380Y-108266487D01*
X143685820Y-108288498D01*
X143575506Y-108347463D01*
X143478815Y-108426815D01*
X143399463Y-108523506D01*
X143340498Y-108633820D01*
X143304188Y-108753518D01*
X143291928Y-108878000D01*
X141950072Y-108878000D01*
X141937812Y-108753518D01*
X141901502Y-108633820D01*
X141842537Y-108523506D01*
X141763185Y-108426815D01*
X141666494Y-108347463D01*
X141556180Y-108288498D01*
X141483620Y-108266487D01*
X141615475Y-108134632D01*
X141777990Y-107891411D01*
X141889932Y-107621158D01*
X141947000Y-107334260D01*
X141947000Y-107041740D01*
X141889932Y-106754842D01*
X141777990Y-106484589D01*
X141615475Y-106241368D01*
X141408632Y-106034525D01*
X141226466Y-105912805D01*
X141343355Y-105843178D01*
X141559588Y-105648269D01*
X141733641Y-105414920D01*
X141858825Y-105152099D01*
X141903476Y-105004890D01*
X141782155Y-104775000D01*
X140589000Y-104775000D01*
X140589000Y-104795000D01*
X140335000Y-104795000D01*
X140335000Y-104775000D01*
X139141845Y-104775000D01*
X139020524Y-105004890D01*
X139065175Y-105152099D01*
X139190359Y-105414920D01*
X139364412Y-105648269D01*
X139580645Y-105843178D01*
X139697534Y-105912805D01*
X139515368Y-106034525D01*
X139308525Y-106241368D01*
X139146010Y-106484589D01*
X139034068Y-106754842D01*
X138977000Y-107041740D01*
X138977000Y-107334260D01*
X139034068Y-107621158D01*
X139146010Y-107891411D01*
X139308525Y-108134632D01*
X139440380Y-108266487D01*
X139367820Y-108288498D01*
X139257506Y-108347463D01*
X139160815Y-108426815D01*
X139081463Y-108523506D01*
X139022498Y-108633820D01*
X138986188Y-108753518D01*
X138973928Y-108878000D01*
X115633500Y-108878000D01*
X115633500Y-106194587D01*
X116405368Y-106624024D01*
X117461994Y-106964079D01*
X118564659Y-107091462D01*
X119670987Y-107001279D01*
X120738464Y-106696994D01*
X121726067Y-106190302D01*
X121884613Y-106084365D01*
X122460734Y-105410339D01*
X118660000Y-101609605D01*
X118645858Y-101623748D01*
X118466253Y-101444143D01*
X118480395Y-101430000D01*
X118466253Y-101415858D01*
X118645858Y-101236253D01*
X118660000Y-101250395D01*
X118674143Y-101236253D01*
X118853748Y-101415858D01*
X118839605Y-101430000D01*
X122640339Y-105230734D01*
X123314365Y-104654613D01*
X123516603Y-104291110D01*
X139020524Y-104291110D01*
X139141845Y-104521000D01*
X140335000Y-104521000D01*
X140335000Y-103327186D01*
X140589000Y-103327186D01*
X140589000Y-104521000D01*
X141782155Y-104521000D01*
X141903476Y-104291110D01*
X143338524Y-104291110D01*
X143459845Y-104521000D01*
X144653000Y-104521000D01*
X144653000Y-103327186D01*
X144907000Y-103327186D01*
X144907000Y-104521000D01*
X146100155Y-104521000D01*
X146221476Y-104291110D01*
X146176825Y-104143901D01*
X146051641Y-103881080D01*
X145877588Y-103647731D01*
X145661355Y-103452822D01*
X145411252Y-103303843D01*
X145136891Y-103206519D01*
X144907000Y-103327186D01*
X144653000Y-103327186D01*
X144423109Y-103206519D01*
X144148748Y-103303843D01*
X143898645Y-103452822D01*
X143682412Y-103647731D01*
X143508359Y-103881080D01*
X143383175Y-104143901D01*
X143338524Y-104291110D01*
X141903476Y-104291110D01*
X141858825Y-104143901D01*
X141733641Y-103881080D01*
X141559588Y-103647731D01*
X141343355Y-103452822D01*
X141093252Y-103303843D01*
X140818891Y-103206519D01*
X140589000Y-103327186D01*
X140335000Y-103327186D01*
X140105109Y-103206519D01*
X139830748Y-103303843D01*
X139580645Y-103452822D01*
X139364412Y-103647731D01*
X139190359Y-103881080D01*
X139065175Y-104143901D01*
X139020524Y-104291110D01*
X123516603Y-104291110D01*
X123854024Y-103684632D01*
X124194079Y-102628006D01*
X124321462Y-101525341D01*
X124231279Y-100419013D01*
X123926994Y-99351536D01*
X123420302Y-98363933D01*
X123314365Y-98205387D01*
X123199843Y-98107500D01*
X149120157Y-98107500D01*
X149005635Y-98205387D01*
%TA.AperFunction,Conductor*%
D17*
G36*
X149005635Y-98205387D02*
G01*
X148465976Y-99175368D01*
X148125921Y-100231994D01*
X147998538Y-101334659D01*
X148088721Y-102440987D01*
X148393006Y-103508464D01*
X148899698Y-104496067D01*
X149005635Y-104654613D01*
X149679661Y-105230734D01*
X153480395Y-101430000D01*
X153466253Y-101415858D01*
X153645858Y-101236253D01*
X153660000Y-101250395D01*
X153674143Y-101236253D01*
X153853748Y-101415858D01*
X153839605Y-101430000D01*
X153853748Y-101444143D01*
X153674143Y-101623748D01*
X153660000Y-101609605D01*
X149859266Y-105410339D01*
X150435387Y-106084365D01*
X151405368Y-106624024D01*
X152461994Y-106964079D01*
X153564659Y-107091462D01*
X154670987Y-107001279D01*
X155511500Y-106761690D01*
X155511500Y-119331976D01*
X155506589Y-119334010D01*
X155263368Y-119496525D01*
X155056525Y-119703368D01*
X154894010Y-119946589D01*
X154782068Y-120216842D01*
X154725000Y-120503740D01*
X154725000Y-120796260D01*
X154782068Y-121083158D01*
X154894010Y-121353411D01*
X155056525Y-121596632D01*
X155263368Y-121803475D01*
X155437760Y-121920000D01*
X155263368Y-122036525D01*
X155056525Y-122243368D01*
X154894010Y-122486589D01*
X154782068Y-122756842D01*
X154725000Y-123043740D01*
X154725000Y-123336260D01*
X154782068Y-123623158D01*
X154894010Y-123893411D01*
X155056525Y-124136632D01*
X155263368Y-124343475D01*
X155437760Y-124460000D01*
X155263368Y-124576525D01*
X155056525Y-124783368D01*
X154894010Y-125026589D01*
X154782068Y-125296842D01*
X154725000Y-125583740D01*
X154725000Y-125876260D01*
X154782068Y-126163158D01*
X154894010Y-126433411D01*
X155056525Y-126676632D01*
X155263368Y-126883475D01*
X155437760Y-127000000D01*
X155263368Y-127116525D01*
X155056525Y-127323368D01*
X154894010Y-127566589D01*
X154782068Y-127836842D01*
X154725000Y-128123740D01*
X154725000Y-128416260D01*
X154782068Y-128703158D01*
X154894010Y-128973411D01*
X155056525Y-129216632D01*
X155188380Y-129348487D01*
X155115820Y-129370498D01*
X155005506Y-129429463D01*
X154908815Y-129508815D01*
X154829463Y-129605506D01*
X154770498Y-129715820D01*
X154734188Y-129835518D01*
X154721928Y-129960000D01*
X154721928Y-131660000D01*
X154734188Y-131784482D01*
X154770498Y-131904180D01*
X154829463Y-132014494D01*
X154908815Y-132111185D01*
X155005506Y-132190537D01*
X155115820Y-132249502D01*
X155235518Y-132285812D01*
X155360000Y-132298072D01*
X155511500Y-132298072D01*
X155511500Y-140106236D01*
X154858006Y-139895921D01*
X153755341Y-139768538D01*
X152649013Y-139858721D01*
X151581536Y-140163006D01*
X150593933Y-140669698D01*
X150435387Y-140775635D01*
X149859266Y-141449661D01*
X153660000Y-145250395D01*
X153674143Y-145236253D01*
X153853748Y-145415858D01*
X153839605Y-145430000D01*
X153853748Y-145444143D01*
X153674143Y-145623748D01*
X153660000Y-145609605D01*
X153645858Y-145623748D01*
X153466253Y-145444143D01*
X153480395Y-145430000D01*
X149679661Y-141629266D01*
X149005635Y-142205387D01*
X148465976Y-143175368D01*
X148125921Y-144231994D01*
X147998538Y-145334659D01*
X148088721Y-146440987D01*
X148393006Y-147508464D01*
X148877244Y-148452302D01*
X123449308Y-148412068D01*
X123854024Y-147684632D01*
X124194079Y-146628006D01*
X124321462Y-145525341D01*
X124231279Y-144419013D01*
X123926994Y-143351536D01*
X123420302Y-142363933D01*
X123314365Y-142205387D01*
X122640339Y-141629266D01*
X118839605Y-145430000D01*
X118853748Y-145444143D01*
X118674143Y-145623748D01*
X118660000Y-145609605D01*
X118645858Y-145623748D01*
X118466253Y-145444143D01*
X118480395Y-145430000D01*
X118466253Y-145415858D01*
X118645858Y-145236253D01*
X118660000Y-145250395D01*
X122460734Y-141449661D01*
X121884613Y-140775635D01*
X120914632Y-140235976D01*
X120237522Y-140018061D01*
X129465000Y-140018061D01*
X129465000Y-140221939D01*
X129504774Y-140421898D01*
X129582795Y-140610256D01*
X129696063Y-140779774D01*
X129840226Y-140923937D01*
X130009744Y-141037205D01*
X130198102Y-141115226D01*
X130398061Y-141155000D01*
X130601939Y-141155000D01*
X130801898Y-141115226D01*
X130990256Y-141037205D01*
X131159774Y-140923937D01*
X131303937Y-140779774D01*
X131417205Y-140610256D01*
X131495226Y-140421898D01*
X131535000Y-140221939D01*
X131535000Y-140018061D01*
X131495226Y-139818102D01*
X131417205Y-139629744D01*
X131303937Y-139460226D01*
X131159774Y-139316063D01*
X130990256Y-139202795D01*
X130801898Y-139124774D01*
X130601939Y-139085000D01*
X130398061Y-139085000D01*
X130198102Y-139124774D01*
X130009744Y-139202795D01*
X129840226Y-139316063D01*
X129696063Y-139460226D01*
X129582795Y-139629744D01*
X129504774Y-139818102D01*
X129465000Y-140018061D01*
X120237522Y-140018061D01*
X119858006Y-139895921D01*
X118755341Y-139768538D01*
X117649013Y-139858721D01*
X116581536Y-140163006D01*
X115633500Y-140649398D01*
X115633500Y-138548061D01*
X125965000Y-138548061D01*
X125965000Y-138751939D01*
X126004774Y-138951898D01*
X126082795Y-139140256D01*
X126196063Y-139309774D01*
X126340226Y-139453937D01*
X126509744Y-139567205D01*
X126698102Y-139645226D01*
X126898061Y-139685000D01*
X127101939Y-139685000D01*
X127301898Y-139645226D01*
X127490256Y-139567205D01*
X127659774Y-139453937D01*
X127803937Y-139309774D01*
X127917205Y-139140256D01*
X127995226Y-138951898D01*
X128035000Y-138751939D01*
X128035000Y-138548061D01*
X127995226Y-138348102D01*
X127917205Y-138159744D01*
X127803937Y-137990226D01*
X127659774Y-137846063D01*
X127490256Y-137732795D01*
X127301898Y-137654774D01*
X127101939Y-137615000D01*
X126898061Y-137615000D01*
X126698102Y-137654774D01*
X126509744Y-137732795D01*
X126340226Y-137846063D01*
X126196063Y-137990226D01*
X126082795Y-138159744D01*
X126004774Y-138348102D01*
X125965000Y-138548061D01*
X115633500Y-138548061D01*
X115633500Y-136246891D01*
X119208519Y-136246891D01*
X119305843Y-136521252D01*
X119454822Y-136771355D01*
X119649731Y-136987588D01*
X119883080Y-137161641D01*
X120145901Y-137286825D01*
X120293110Y-137331476D01*
X120523000Y-137210155D01*
X120523000Y-136017000D01*
X119329186Y-136017000D01*
X119208519Y-136246891D01*
X115633500Y-136246891D01*
X115633500Y-135533109D01*
X119208519Y-135533109D01*
X119329186Y-135763000D01*
X120523000Y-135763000D01*
X120523000Y-134569845D01*
X120777000Y-134569845D01*
X120777000Y-135763000D01*
X120797000Y-135763000D01*
X120797000Y-136017000D01*
X120777000Y-136017000D01*
X120777000Y-137210155D01*
X121006890Y-137331476D01*
X121154099Y-137286825D01*
X121416920Y-137161641D01*
X121650269Y-136987588D01*
X121845178Y-136771355D01*
X121914805Y-136654466D01*
X122036525Y-136836632D01*
X122243368Y-137043475D01*
X122486589Y-137205990D01*
X122756842Y-137317932D01*
X123043740Y-137375000D01*
X123336260Y-137375000D01*
X123623158Y-137317932D01*
X123893411Y-137205990D01*
X124136632Y-137043475D01*
X124268487Y-136911620D01*
X124290498Y-136984180D01*
X124349463Y-137094494D01*
X124428815Y-137191185D01*
X124525506Y-137270537D01*
X124635820Y-137329502D01*
X124755518Y-137365812D01*
X124880000Y-137378072D01*
X126580000Y-137378072D01*
X126704482Y-137365812D01*
X126824180Y-137329502D01*
X126934494Y-137270537D01*
X127031185Y-137191185D01*
X127110537Y-137094494D01*
X127169502Y-136984180D01*
X127205812Y-136864482D01*
X127218072Y-136740000D01*
X127218072Y-136650000D01*
X129622678Y-136650000D01*
X129660000Y-136653676D01*
X129697322Y-136650000D01*
X129697333Y-136650000D01*
X129808986Y-136639003D01*
X129952247Y-136595546D01*
X130084276Y-136524974D01*
X130200001Y-136430001D01*
X130223804Y-136400998D01*
X131216741Y-135408061D01*
X133945000Y-135408061D01*
X133945000Y-135611939D01*
X133984774Y-135811898D01*
X134062795Y-136000256D01*
X134176063Y-136169774D01*
X134320226Y-136313937D01*
X134489744Y-136427205D01*
X134678102Y-136505226D01*
X134878061Y-136545000D01*
X135081939Y-136545000D01*
X135281898Y-136505226D01*
X135470256Y-136427205D01*
X135639774Y-136313937D01*
X135783937Y-136169774D01*
X135859958Y-136056000D01*
X144815928Y-136056000D01*
X144815928Y-137756000D01*
X144828188Y-137880482D01*
X144864498Y-138000180D01*
X144923463Y-138110494D01*
X145002815Y-138207185D01*
X145099506Y-138286537D01*
X145209820Y-138345502D01*
X145329518Y-138381812D01*
X145454000Y-138394072D01*
X147154000Y-138394072D01*
X147278482Y-138381812D01*
X147398180Y-138345502D01*
X147508494Y-138286537D01*
X147605185Y-138207185D01*
X147684537Y-138110494D01*
X147743502Y-138000180D01*
X147779812Y-137880482D01*
X147792072Y-137756000D01*
X147792072Y-136056000D01*
X147779812Y-135931518D01*
X147743502Y-135811820D01*
X147684537Y-135701506D01*
X147605185Y-135604815D01*
X147508494Y-135525463D01*
X147398180Y-135466498D01*
X147278482Y-135430188D01*
X147154000Y-135417928D01*
X145454000Y-135417928D01*
X145329518Y-135430188D01*
X145209820Y-135466498D01*
X145099506Y-135525463D01*
X145002815Y-135604815D01*
X144923463Y-135701506D01*
X144864498Y-135811820D01*
X144828188Y-135931518D01*
X144815928Y-136056000D01*
X135859958Y-136056000D01*
X135897205Y-136000256D01*
X135975226Y-135811898D01*
X136015000Y-135611939D01*
X136015000Y-135549801D01*
X137271003Y-134293799D01*
X137300001Y-134270001D01*
X137326332Y-134237917D01*
X137394974Y-134154277D01*
X137465546Y-134022247D01*
X137495045Y-133925000D01*
X137509003Y-133878986D01*
X137520000Y-133767333D01*
X137520000Y-133767324D01*
X137523676Y-133730001D01*
X137520000Y-133692678D01*
X137520000Y-132537803D01*
X139599494Y-130458310D01*
X139628492Y-130434512D01*
X139723465Y-130318787D01*
X139794037Y-130186758D01*
X139796675Y-130178061D01*
X146955000Y-130178061D01*
X146955000Y-130381939D01*
X146994774Y-130581898D01*
X147072795Y-130770256D01*
X147186063Y-130939774D01*
X147330226Y-131083937D01*
X147499744Y-131197205D01*
X147688102Y-131275226D01*
X147888061Y-131315000D01*
X148091939Y-131315000D01*
X148291898Y-131275226D01*
X148480256Y-131197205D01*
X148649774Y-131083937D01*
X148793937Y-130939774D01*
X148907205Y-130770256D01*
X148985226Y-130581898D01*
X149025000Y-130381939D01*
X149025000Y-130178061D01*
X148985226Y-129978102D01*
X148907205Y-129789744D01*
X148793937Y-129620226D01*
X148649774Y-129476063D01*
X148480256Y-129362795D01*
X148291898Y-129284774D01*
X148091939Y-129245000D01*
X147888061Y-129245000D01*
X147688102Y-129284774D01*
X147499744Y-129362795D01*
X147330226Y-129476063D01*
X147186063Y-129620226D01*
X147072795Y-129789744D01*
X146994774Y-129978102D01*
X146955000Y-130178061D01*
X139796675Y-130178061D01*
X139837494Y-130043497D01*
X139848491Y-129931844D01*
X139852168Y-129894511D01*
X139848491Y-129857178D01*
X139848491Y-128723346D01*
X139892428Y-128679409D01*
X140005696Y-128509891D01*
X140083717Y-128321533D01*
X140123491Y-128121574D01*
X140123491Y-127917696D01*
X140083717Y-127717737D01*
X140005696Y-127529379D01*
X139892428Y-127359861D01*
X139748265Y-127215698D01*
X139645998Y-127147366D01*
X139645998Y-127039059D01*
X139606224Y-126839100D01*
X139528203Y-126650742D01*
X139414935Y-126481224D01*
X139270772Y-126337061D01*
X139101254Y-126223793D01*
X138912896Y-126145772D01*
X138712937Y-126105998D01*
X138509059Y-126105998D01*
X138309100Y-126145772D01*
X138120742Y-126223793D01*
X137951224Y-126337061D01*
X137807061Y-126481224D01*
X137693793Y-126650742D01*
X137615772Y-126839100D01*
X137575998Y-127039059D01*
X137575998Y-127101196D01*
X134508998Y-130168197D01*
X134480000Y-130191995D01*
X134456202Y-130220993D01*
X134456201Y-130220994D01*
X134385026Y-130307720D01*
X134314454Y-130439750D01*
X134287234Y-130529485D01*
X134270998Y-130583010D01*
X134260001Y-130694663D01*
X134256324Y-130731996D01*
X134260001Y-130769328D01*
X134260000Y-132186289D01*
X134216063Y-132230226D01*
X134102795Y-132399744D01*
X134024774Y-132588102D01*
X133985000Y-132788061D01*
X133985000Y-132991939D01*
X134024774Y-133191898D01*
X134102795Y-133380256D01*
X134216063Y-133549774D01*
X134360226Y-133693937D01*
X134529744Y-133807205D01*
X134718102Y-133885226D01*
X134918061Y-133925000D01*
X135121939Y-133925000D01*
X135321898Y-133885226D01*
X135510256Y-133807205D01*
X135679774Y-133693937D01*
X135823937Y-133549774D01*
X135937205Y-133380256D01*
X136000001Y-133228655D01*
X136000001Y-133415197D01*
X134940199Y-134475000D01*
X134878061Y-134475000D01*
X134678102Y-134514774D01*
X134489744Y-134592795D01*
X134320226Y-134706063D01*
X134176063Y-134850226D01*
X134062795Y-135019744D01*
X133984774Y-135208102D01*
X133945000Y-135408061D01*
X131216741Y-135408061D01*
X131799803Y-134825000D01*
X131861939Y-134825000D01*
X132061898Y-134785226D01*
X132250256Y-134707205D01*
X132419774Y-134593937D01*
X132563937Y-134449774D01*
X132677205Y-134280256D01*
X132755226Y-134091898D01*
X132795000Y-133891939D01*
X132795000Y-133688061D01*
X132755226Y-133488102D01*
X132677205Y-133299744D01*
X132563937Y-133130226D01*
X132419774Y-132986063D01*
X132250256Y-132872795D01*
X132061898Y-132794774D01*
X131861939Y-132755000D01*
X131658061Y-132755000D01*
X131458102Y-132794774D01*
X131269744Y-132872795D01*
X131100226Y-132986063D01*
X130956063Y-133130226D01*
X130842795Y-133299744D01*
X130764774Y-133488102D01*
X130725000Y-133688061D01*
X130725000Y-133750197D01*
X129345199Y-135130000D01*
X127218072Y-135130000D01*
X127218072Y-135040000D01*
X127205812Y-134915518D01*
X127169502Y-134795820D01*
X127110537Y-134685506D01*
X127031185Y-134588815D01*
X126934494Y-134509463D01*
X126824180Y-134450498D01*
X126704482Y-134414188D01*
X126580000Y-134401928D01*
X124880000Y-134401928D01*
X124755518Y-134414188D01*
X124635820Y-134450498D01*
X124525506Y-134509463D01*
X124428815Y-134588815D01*
X124349463Y-134685506D01*
X124290498Y-134795820D01*
X124268487Y-134868380D01*
X124136632Y-134736525D01*
X123893411Y-134574010D01*
X123623158Y-134462068D01*
X123336260Y-134405000D01*
X123043740Y-134405000D01*
X122756842Y-134462068D01*
X122486589Y-134574010D01*
X122243368Y-134736525D01*
X122036525Y-134943368D01*
X121914805Y-135125534D01*
X121845178Y-135008645D01*
X121650269Y-134792412D01*
X121416920Y-134618359D01*
X121154099Y-134493175D01*
X121006890Y-134448524D01*
X120777000Y-134569845D01*
X120523000Y-134569845D01*
X120293110Y-134448524D01*
X120145901Y-134493175D01*
X119883080Y-134618359D01*
X119649731Y-134792412D01*
X119454822Y-135008645D01*
X119305843Y-135258748D01*
X119208519Y-135533109D01*
X115633500Y-135533109D01*
X115633500Y-132436891D01*
X119208519Y-132436891D01*
X119305843Y-132711252D01*
X119454822Y-132961355D01*
X119649731Y-133177588D01*
X119883080Y-133351641D01*
X120145901Y-133476825D01*
X120293110Y-133521476D01*
X120523000Y-133400155D01*
X120523000Y-132207000D01*
X119329186Y-132207000D01*
X119208519Y-132436891D01*
X115633500Y-132436891D01*
X115633500Y-131723109D01*
X119208519Y-131723109D01*
X119329186Y-131953000D01*
X120523000Y-131953000D01*
X120523000Y-130759845D01*
X120777000Y-130759845D01*
X120777000Y-131953000D01*
X120797000Y-131953000D01*
X120797000Y-132207000D01*
X120777000Y-132207000D01*
X120777000Y-133400155D01*
X121006890Y-133521476D01*
X121154099Y-133476825D01*
X121416920Y-133351641D01*
X121650269Y-133177588D01*
X121845178Y-132961355D01*
X121914805Y-132844466D01*
X122036525Y-133026632D01*
X122243368Y-133233475D01*
X122486589Y-133395990D01*
X122756842Y-133507932D01*
X123043740Y-133565000D01*
X123336260Y-133565000D01*
X123623158Y-133507932D01*
X123893411Y-133395990D01*
X124136632Y-133233475D01*
X124268487Y-133101620D01*
X124290498Y-133174180D01*
X124349463Y-133284494D01*
X124428815Y-133381185D01*
X124525506Y-133460537D01*
X124635820Y-133519502D01*
X124755518Y-133555812D01*
X124880000Y-133568072D01*
X126580000Y-133568072D01*
X126704482Y-133555812D01*
X126824180Y-133519502D01*
X126934494Y-133460537D01*
X127031185Y-133381185D01*
X127110537Y-133284494D01*
X127169502Y-133174180D01*
X127205812Y-133054482D01*
X127218072Y-132930000D01*
X127218072Y-131230000D01*
X127205812Y-131105518D01*
X127169502Y-130985820D01*
X127110537Y-130875506D01*
X127031185Y-130778815D01*
X126934494Y-130699463D01*
X126824180Y-130640498D01*
X126704482Y-130604188D01*
X126580000Y-130591928D01*
X124880000Y-130591928D01*
X124755518Y-130604188D01*
X124635820Y-130640498D01*
X124525506Y-130699463D01*
X124428815Y-130778815D01*
X124349463Y-130875506D01*
X124290498Y-130985820D01*
X124268487Y-131058380D01*
X124136632Y-130926525D01*
X123893411Y-130764010D01*
X123623158Y-130652068D01*
X123336260Y-130595000D01*
X123043740Y-130595000D01*
X122756842Y-130652068D01*
X122486589Y-130764010D01*
X122243368Y-130926525D01*
X122036525Y-131133368D01*
X121914805Y-131315534D01*
X121845178Y-131198645D01*
X121650269Y-130982412D01*
X121416920Y-130808359D01*
X121154099Y-130683175D01*
X121006890Y-130638524D01*
X120777000Y-130759845D01*
X120523000Y-130759845D01*
X120293110Y-130638524D01*
X120145901Y-130683175D01*
X119883080Y-130808359D01*
X119649731Y-130982412D01*
X119454822Y-131198645D01*
X119305843Y-131448748D01*
X119208519Y-131723109D01*
X115633500Y-131723109D01*
X115633500Y-126788061D01*
X125965000Y-126788061D01*
X125965000Y-126991939D01*
X126004774Y-127191898D01*
X126082795Y-127380256D01*
X126196063Y-127549774D01*
X126340226Y-127693937D01*
X126509744Y-127807205D01*
X126698102Y-127885226D01*
X126898061Y-127925000D01*
X127101939Y-127925000D01*
X127301898Y-127885226D01*
X127490256Y-127807205D01*
X127659774Y-127693937D01*
X127803937Y-127549774D01*
X127917205Y-127380256D01*
X127995226Y-127191898D01*
X128035000Y-126991939D01*
X128035000Y-126788061D01*
X127995226Y-126588102D01*
X127917205Y-126399744D01*
X127803937Y-126230226D01*
X127659774Y-126086063D01*
X127490256Y-125972795D01*
X127301898Y-125894774D01*
X127101939Y-125855000D01*
X126898061Y-125855000D01*
X126698102Y-125894774D01*
X126509744Y-125972795D01*
X126340226Y-126086063D01*
X126196063Y-126230226D01*
X126082795Y-126399744D01*
X126004774Y-126588102D01*
X125965000Y-126788061D01*
X115633500Y-126788061D01*
X115633500Y-123788061D01*
X133915000Y-123788061D01*
X133915000Y-123991939D01*
X133954774Y-124191898D01*
X134032795Y-124380256D01*
X134146063Y-124549774D01*
X134290226Y-124693937D01*
X134459744Y-124807205D01*
X134648102Y-124885226D01*
X134848061Y-124925000D01*
X135051939Y-124925000D01*
X135251898Y-124885226D01*
X135440256Y-124807205D01*
X135609774Y-124693937D01*
X135630376Y-124673335D01*
X136561842Y-124673335D01*
X136605779Y-124717272D01*
X136775297Y-124830540D01*
X136963655Y-124908561D01*
X137163614Y-124948335D01*
X137367492Y-124948335D01*
X137567451Y-124908561D01*
X137755809Y-124830540D01*
X137925327Y-124717272D01*
X138069490Y-124573109D01*
X138160036Y-124437597D01*
X138227231Y-124437597D01*
X138427190Y-124397823D01*
X138615548Y-124319802D01*
X138785066Y-124206534D01*
X138929229Y-124062371D01*
X139042497Y-123892853D01*
X139120518Y-123704495D01*
X139160292Y-123504536D01*
X139160292Y-123300658D01*
X139120518Y-123100699D01*
X139042497Y-122912341D01*
X138929229Y-122742823D01*
X138785066Y-122598660D01*
X138615548Y-122485392D01*
X138427190Y-122407371D01*
X138227231Y-122367597D01*
X138165094Y-122367597D01*
X137676498Y-121879002D01*
X137652696Y-121849999D01*
X137536971Y-121755026D01*
X137404942Y-121684454D01*
X137261681Y-121640997D01*
X137150028Y-121630000D01*
X137150017Y-121630000D01*
X137112695Y-121626324D01*
X137075373Y-121630000D01*
X135693711Y-121630000D01*
X135649774Y-121586063D01*
X135480256Y-121472795D01*
X135291898Y-121394774D01*
X135091939Y-121355000D01*
X134888061Y-121355000D01*
X134688102Y-121394774D01*
X134499744Y-121472795D01*
X134330226Y-121586063D01*
X134186063Y-121730226D01*
X134072795Y-121899744D01*
X133994774Y-122088102D01*
X133955000Y-122288061D01*
X133955000Y-122491939D01*
X133994774Y-122691898D01*
X134072795Y-122880256D01*
X134186063Y-123049774D01*
X134256289Y-123120000D01*
X134146063Y-123230226D01*
X134032795Y-123399744D01*
X133954774Y-123588102D01*
X133915000Y-123788061D01*
X115633500Y-123788061D01*
X115633500Y-122276891D01*
X119462519Y-122276891D01*
X119559843Y-122551252D01*
X119708822Y-122801355D01*
X119903731Y-123017588D01*
X120137080Y-123191641D01*
X120399901Y-123316825D01*
X120547110Y-123361476D01*
X120777000Y-123240155D01*
X120777000Y-122047000D01*
X119583186Y-122047000D01*
X119462519Y-122276891D01*
X115633500Y-122276891D01*
X115633500Y-121563109D01*
X119462519Y-121563109D01*
X119583186Y-121793000D01*
X120777000Y-121793000D01*
X120777000Y-120599845D01*
X121031000Y-120599845D01*
X121031000Y-121793000D01*
X121051000Y-121793000D01*
X121051000Y-122047000D01*
X121031000Y-122047000D01*
X121031000Y-123240155D01*
X121260890Y-123361476D01*
X121408099Y-123316825D01*
X121670920Y-123191641D01*
X121904269Y-123017588D01*
X122099178Y-122801355D01*
X122168805Y-122684466D01*
X122290525Y-122866632D01*
X122497368Y-123073475D01*
X122740589Y-123235990D01*
X123010842Y-123347932D01*
X123297740Y-123405000D01*
X123590260Y-123405000D01*
X123877158Y-123347932D01*
X124147411Y-123235990D01*
X124390632Y-123073475D01*
X124522487Y-122941620D01*
X124544498Y-123014180D01*
X124603463Y-123124494D01*
X124682815Y-123221185D01*
X124779506Y-123300537D01*
X124889820Y-123359502D01*
X125009518Y-123395812D01*
X125134000Y-123408072D01*
X126834000Y-123408072D01*
X126958482Y-123395812D01*
X127078180Y-123359502D01*
X127188494Y-123300537D01*
X127285185Y-123221185D01*
X127364537Y-123124494D01*
X127423502Y-123014180D01*
X127459812Y-122894482D01*
X127472072Y-122770000D01*
X127472072Y-122640000D01*
X131016289Y-122640000D01*
X131060226Y-122683937D01*
X131229744Y-122797205D01*
X131418102Y-122875226D01*
X131618061Y-122915000D01*
X131821939Y-122915000D01*
X132021898Y-122875226D01*
X132210256Y-122797205D01*
X132379774Y-122683937D01*
X132523937Y-122539774D01*
X132637205Y-122370256D01*
X132715226Y-122181898D01*
X132755000Y-121981939D01*
X132755000Y-121778061D01*
X132715226Y-121578102D01*
X132637205Y-121389744D01*
X132523937Y-121220226D01*
X132379774Y-121076063D01*
X132210256Y-120962795D01*
X132021898Y-120884774D01*
X131821939Y-120845000D01*
X131618061Y-120845000D01*
X131418102Y-120884774D01*
X131229744Y-120962795D01*
X131060226Y-121076063D01*
X131016289Y-121120000D01*
X127472072Y-121120000D01*
X127472072Y-121070000D01*
X127459812Y-120945518D01*
X127423502Y-120825820D01*
X127364537Y-120715506D01*
X127285185Y-120618815D01*
X127188494Y-120539463D01*
X127078180Y-120480498D01*
X126958482Y-120444188D01*
X126834000Y-120431928D01*
X125134000Y-120431928D01*
X125009518Y-120444188D01*
X124889820Y-120480498D01*
X124779506Y-120539463D01*
X124682815Y-120618815D01*
X124603463Y-120715506D01*
X124544498Y-120825820D01*
X124522487Y-120898380D01*
X124390632Y-120766525D01*
X124147411Y-120604010D01*
X123877158Y-120492068D01*
X123590260Y-120435000D01*
X123297740Y-120435000D01*
X123010842Y-120492068D01*
X122740589Y-120604010D01*
X122497368Y-120766525D01*
X122290525Y-120973368D01*
X122168805Y-121155534D01*
X122099178Y-121038645D01*
X121904269Y-120822412D01*
X121670920Y-120648359D01*
X121408099Y-120523175D01*
X121260890Y-120478524D01*
X121031000Y-120599845D01*
X120777000Y-120599845D01*
X120547110Y-120478524D01*
X120399901Y-120523175D01*
X120137080Y-120648359D01*
X119903731Y-120822412D01*
X119708822Y-121038645D01*
X119559843Y-121288748D01*
X119462519Y-121563109D01*
X115633500Y-121563109D01*
X115633500Y-118212891D01*
X119462519Y-118212891D01*
X119559843Y-118487252D01*
X119708822Y-118737355D01*
X119903731Y-118953588D01*
X120137080Y-119127641D01*
X120399901Y-119252825D01*
X120547110Y-119297476D01*
X120777000Y-119176155D01*
X120777000Y-117983000D01*
X119583186Y-117983000D01*
X119462519Y-118212891D01*
X115633500Y-118212891D01*
X115633500Y-117499109D01*
X119462519Y-117499109D01*
X119583186Y-117729000D01*
X120777000Y-117729000D01*
X120777000Y-116535845D01*
X121031000Y-116535845D01*
X121031000Y-117729000D01*
X121051000Y-117729000D01*
X121051000Y-117983000D01*
X121031000Y-117983000D01*
X121031000Y-119176155D01*
X121260890Y-119297476D01*
X121408099Y-119252825D01*
X121670920Y-119127641D01*
X121904269Y-118953588D01*
X122099178Y-118737355D01*
X122168805Y-118620466D01*
X122290525Y-118802632D01*
X122497368Y-119009475D01*
X122740589Y-119171990D01*
X123010842Y-119283932D01*
X123297740Y-119341000D01*
X123590260Y-119341000D01*
X123877158Y-119283932D01*
X124147411Y-119171990D01*
X124390632Y-119009475D01*
X124522487Y-118877620D01*
X124544498Y-118950180D01*
X124603463Y-119060494D01*
X124682815Y-119157185D01*
X124779506Y-119236537D01*
X124889820Y-119295502D01*
X125009518Y-119331812D01*
X125134000Y-119344072D01*
X126834000Y-119344072D01*
X126958482Y-119331812D01*
X127078180Y-119295502D01*
X127188494Y-119236537D01*
X127285185Y-119157185D01*
X127364537Y-119060494D01*
X127423502Y-118950180D01*
X127459812Y-118830482D01*
X127472072Y-118706000D01*
X127472072Y-118598061D01*
X138935000Y-118598061D01*
X138935000Y-118801939D01*
X138974774Y-119001898D01*
X139052795Y-119190256D01*
X139166063Y-119359774D01*
X139310226Y-119503937D01*
X139479744Y-119617205D01*
X139668102Y-119695226D01*
X139868061Y-119735000D01*
X139980199Y-119735000D01*
X140105000Y-119859802D01*
X140105000Y-119921939D01*
X140144774Y-120121898D01*
X140222795Y-120310256D01*
X140336063Y-120479774D01*
X140480226Y-120623937D01*
X140649744Y-120737205D01*
X140838102Y-120815226D01*
X141038061Y-120855000D01*
X141241939Y-120855000D01*
X141441898Y-120815226D01*
X141630256Y-120737205D01*
X141799774Y-120623937D01*
X141943937Y-120479774D01*
X142057205Y-120310256D01*
X142135226Y-120121898D01*
X142175000Y-119921939D01*
X142175000Y-119718061D01*
X142135226Y-119518102D01*
X142057205Y-119329744D01*
X141943937Y-119160226D01*
X141799774Y-119016063D01*
X141630256Y-118902795D01*
X141441898Y-118824774D01*
X141241939Y-118785000D01*
X141179802Y-118785000D01*
X141005000Y-118610199D01*
X141005000Y-118608061D01*
X146645000Y-118608061D01*
X146645000Y-118811939D01*
X146684774Y-119011898D01*
X146762795Y-119200256D01*
X146876063Y-119369774D01*
X147020226Y-119513937D01*
X147189744Y-119627205D01*
X147378102Y-119705226D01*
X147578061Y-119745000D01*
X147781939Y-119745000D01*
X147981898Y-119705226D01*
X148170256Y-119627205D01*
X148339774Y-119513937D01*
X148483937Y-119369774D01*
X148597205Y-119200256D01*
X148675226Y-119011898D01*
X148715000Y-118811939D01*
X148715000Y-118608061D01*
X148675226Y-118408102D01*
X148597205Y-118219744D01*
X148483937Y-118050226D01*
X148339774Y-117906063D01*
X148170256Y-117792795D01*
X147981898Y-117714774D01*
X147781939Y-117675000D01*
X147578061Y-117675000D01*
X147378102Y-117714774D01*
X147189744Y-117792795D01*
X147020226Y-117906063D01*
X146876063Y-118050226D01*
X146762795Y-118219744D01*
X146684774Y-118408102D01*
X146645000Y-118608061D01*
X141005000Y-118608061D01*
X141005000Y-118598061D01*
X140965226Y-118398102D01*
X140887205Y-118209744D01*
X140773937Y-118040226D01*
X140629774Y-117896063D01*
X140460256Y-117782795D01*
X140271898Y-117704774D01*
X140071939Y-117665000D01*
X139868061Y-117665000D01*
X139668102Y-117704774D01*
X139479744Y-117782795D01*
X139310226Y-117896063D01*
X139166063Y-118040226D01*
X139052795Y-118209744D01*
X138974774Y-118398102D01*
X138935000Y-118598061D01*
X127472072Y-118598061D01*
X127472072Y-117006000D01*
X127459812Y-116881518D01*
X127423502Y-116761820D01*
X127364537Y-116651506D01*
X127285185Y-116554815D01*
X127188494Y-116475463D01*
X127078180Y-116416498D01*
X126958482Y-116380188D01*
X126834000Y-116367928D01*
X125134000Y-116367928D01*
X125009518Y-116380188D01*
X124889820Y-116416498D01*
X124779506Y-116475463D01*
X124682815Y-116554815D01*
X124603463Y-116651506D01*
X124544498Y-116761820D01*
X124522487Y-116834380D01*
X124390632Y-116702525D01*
X124147411Y-116540010D01*
X123877158Y-116428068D01*
X123590260Y-116371000D01*
X123297740Y-116371000D01*
X123010842Y-116428068D01*
X122740589Y-116540010D01*
X122497368Y-116702525D01*
X122290525Y-116909368D01*
X122168805Y-117091534D01*
X122099178Y-116974645D01*
X121904269Y-116758412D01*
X121670920Y-116584359D01*
X121408099Y-116459175D01*
X121260890Y-116414524D01*
X121031000Y-116535845D01*
X120777000Y-116535845D01*
X120547110Y-116414524D01*
X120399901Y-116459175D01*
X120137080Y-116584359D01*
X119903731Y-116758412D01*
X119708822Y-116974645D01*
X119559843Y-117224748D01*
X119462519Y-117499109D01*
X115633500Y-117499109D01*
X115633500Y-113088061D01*
X124465000Y-113088061D01*
X124465000Y-113291939D01*
X124504774Y-113491898D01*
X124582795Y-113680256D01*
X124696063Y-113849774D01*
X124840226Y-113993937D01*
X125009744Y-114107205D01*
X125198102Y-114185226D01*
X125398061Y-114225000D01*
X125601939Y-114225000D01*
X125801898Y-114185226D01*
X125990256Y-114107205D01*
X126159774Y-113993937D01*
X126303937Y-113849774D01*
X126417205Y-113680256D01*
X126495226Y-113491898D01*
X126535000Y-113291939D01*
X126535000Y-113088061D01*
X126495226Y-112888102D01*
X126417205Y-112699744D01*
X126303937Y-112530226D01*
X126261772Y-112488061D01*
X130825000Y-112488061D01*
X130825000Y-112691939D01*
X130864774Y-112891898D01*
X130942795Y-113080256D01*
X131056063Y-113249774D01*
X131200226Y-113393937D01*
X131369744Y-113507205D01*
X131558102Y-113585226D01*
X131758061Y-113625000D01*
X131961939Y-113625000D01*
X132161898Y-113585226D01*
X132350256Y-113507205D01*
X132519774Y-113393937D01*
X132663937Y-113249774D01*
X132777205Y-113080256D01*
X132855226Y-112891898D01*
X132895000Y-112691939D01*
X132895000Y-112488061D01*
X132855226Y-112288102D01*
X132777205Y-112099744D01*
X132663937Y-111930226D01*
X132519774Y-111786063D01*
X132350256Y-111672795D01*
X132290544Y-111648061D01*
X136235000Y-111648061D01*
X136235000Y-111851939D01*
X136274774Y-112051898D01*
X136352795Y-112240256D01*
X136466063Y-112409774D01*
X136610226Y-112553937D01*
X136779744Y-112667205D01*
X136968102Y-112745226D01*
X137168061Y-112785000D01*
X137371939Y-112785000D01*
X137571898Y-112745226D01*
X137760256Y-112667205D01*
X137929774Y-112553937D01*
X138073937Y-112409774D01*
X138187205Y-112240256D01*
X138265226Y-112051898D01*
X138305000Y-111851939D01*
X138305000Y-111648061D01*
X138265226Y-111448102D01*
X138187205Y-111259744D01*
X138073937Y-111090226D01*
X137929774Y-110946063D01*
X137760256Y-110832795D01*
X137571898Y-110754774D01*
X137371939Y-110715000D01*
X137168061Y-110715000D01*
X136968102Y-110754774D01*
X136779744Y-110832795D01*
X136610226Y-110946063D01*
X136466063Y-111090226D01*
X136352795Y-111259744D01*
X136274774Y-111448102D01*
X136235000Y-111648061D01*
X132290544Y-111648061D01*
X132161898Y-111594774D01*
X131961939Y-111555000D01*
X131758061Y-111555000D01*
X131558102Y-111594774D01*
X131369744Y-111672795D01*
X131200226Y-111786063D01*
X131056063Y-111930226D01*
X130942795Y-112099744D01*
X130864774Y-112288102D01*
X130825000Y-112488061D01*
X126261772Y-112488061D01*
X126159774Y-112386063D01*
X125990256Y-112272795D01*
X125801898Y-112194774D01*
X125601939Y-112155000D01*
X125398061Y-112155000D01*
X125198102Y-112194774D01*
X125009744Y-112272795D01*
X124840226Y-112386063D01*
X124696063Y-112530226D01*
X124582795Y-112699744D01*
X124504774Y-112888102D01*
X124465000Y-113088061D01*
X115633500Y-113088061D01*
X115633500Y-108878000D01*
X138973928Y-108878000D01*
X138973928Y-110578000D01*
X138986188Y-110702482D01*
X139022498Y-110822180D01*
X139081463Y-110932494D01*
X139160815Y-111029185D01*
X139257506Y-111108537D01*
X139367820Y-111167502D01*
X139487518Y-111203812D01*
X139612000Y-111216072D01*
X139702000Y-111216072D01*
X139702001Y-113494668D01*
X139698324Y-113532000D01*
X139712998Y-113680985D01*
X139756454Y-113824246D01*
X139827026Y-113956276D01*
X139898201Y-114043002D01*
X139922000Y-114072001D01*
X139950998Y-114095799D01*
X141275000Y-115419802D01*
X141275000Y-115481939D01*
X141314774Y-115681898D01*
X141392795Y-115870256D01*
X141506063Y-116039774D01*
X141650226Y-116183937D01*
X141819744Y-116297205D01*
X142008102Y-116375226D01*
X142208061Y-116415000D01*
X142411939Y-116415000D01*
X142611898Y-116375226D01*
X142800256Y-116297205D01*
X142969774Y-116183937D01*
X143113937Y-116039774D01*
X143227205Y-115870256D01*
X143305226Y-115681898D01*
X143345000Y-115481939D01*
X143345000Y-115278061D01*
X143305226Y-115078102D01*
X143227205Y-114889744D01*
X143113937Y-114720226D01*
X143041772Y-114648061D01*
X147665000Y-114648061D01*
X147665000Y-114851939D01*
X147704774Y-115051898D01*
X147782795Y-115240256D01*
X147896063Y-115409774D01*
X148040226Y-115553937D01*
X148209744Y-115667205D01*
X148398102Y-115745226D01*
X148598061Y-115785000D01*
X148801939Y-115785000D01*
X149001898Y-115745226D01*
X149190256Y-115667205D01*
X149359774Y-115553937D01*
X149503937Y-115409774D01*
X149523831Y-115380000D01*
X151801928Y-115380000D01*
X151801928Y-117080000D01*
X151814188Y-117204482D01*
X151850498Y-117324180D01*
X151909463Y-117434494D01*
X151988815Y-117531185D01*
X152085506Y-117610537D01*
X152195820Y-117669502D01*
X152315518Y-117705812D01*
X152440000Y-117718072D01*
X154140000Y-117718072D01*
X154264482Y-117705812D01*
X154384180Y-117669502D01*
X154494494Y-117610537D01*
X154591185Y-117531185D01*
X154670537Y-117434494D01*
X154729502Y-117324180D01*
X154765812Y-117204482D01*
X154778072Y-117080000D01*
X154778072Y-115380000D01*
X154765812Y-115255518D01*
X154729502Y-115135820D01*
X154670537Y-115025506D01*
X154591185Y-114928815D01*
X154494494Y-114849463D01*
X154384180Y-114790498D01*
X154264482Y-114754188D01*
X154140000Y-114741928D01*
X152440000Y-114741928D01*
X152315518Y-114754188D01*
X152195820Y-114790498D01*
X152085506Y-114849463D01*
X151988815Y-114928815D01*
X151909463Y-115025506D01*
X151850498Y-115135820D01*
X151814188Y-115255518D01*
X151801928Y-115380000D01*
X149523831Y-115380000D01*
X149617205Y-115240256D01*
X149695226Y-115051898D01*
X149735000Y-114851939D01*
X149735000Y-114648061D01*
X149695226Y-114448102D01*
X149617205Y-114259744D01*
X149503937Y-114090226D01*
X149359774Y-113946063D01*
X149190256Y-113832795D01*
X149001898Y-113754774D01*
X148801939Y-113715000D01*
X148598061Y-113715000D01*
X148398102Y-113754774D01*
X148209744Y-113832795D01*
X148040226Y-113946063D01*
X147896063Y-114090226D01*
X147782795Y-114259744D01*
X147704774Y-114448102D01*
X147665000Y-114648061D01*
X143041772Y-114648061D01*
X143005799Y-114612088D01*
X143087205Y-114490256D01*
X143165226Y-114301898D01*
X143205000Y-114101939D01*
X143205000Y-113898061D01*
X143165226Y-113698102D01*
X143087205Y-113509744D01*
X142973937Y-113340226D01*
X142829774Y-113196063D01*
X142660256Y-113082795D01*
X142471898Y-113004774D01*
X142271939Y-112965000D01*
X142068061Y-112965000D01*
X141868102Y-113004774D01*
X141679744Y-113082795D01*
X141510226Y-113196063D01*
X141366063Y-113340226D01*
X141357637Y-113352836D01*
X141222000Y-113217199D01*
X141222000Y-111618061D01*
X146295000Y-111618061D01*
X146295000Y-111821939D01*
X146334774Y-112021898D01*
X146412795Y-112210256D01*
X146526063Y-112379774D01*
X146670226Y-112523937D01*
X146839744Y-112637205D01*
X147028102Y-112715226D01*
X147228061Y-112755000D01*
X147431939Y-112755000D01*
X147631898Y-112715226D01*
X147820256Y-112637205D01*
X147989774Y-112523937D01*
X148133937Y-112379774D01*
X148247205Y-112210256D01*
X148325226Y-112021898D01*
X148365000Y-111821939D01*
X148365000Y-111618061D01*
X148325226Y-111418102D01*
X148247205Y-111229744D01*
X148133937Y-111060226D01*
X147989774Y-110916063D01*
X147820256Y-110802795D01*
X147631898Y-110724774D01*
X147431939Y-110685000D01*
X147228061Y-110685000D01*
X147028102Y-110724774D01*
X146839744Y-110802795D01*
X146670226Y-110916063D01*
X146526063Y-111060226D01*
X146412795Y-111229744D01*
X146334774Y-111418102D01*
X146295000Y-111618061D01*
X141222000Y-111618061D01*
X141222000Y-111216072D01*
X141312000Y-111216072D01*
X141436482Y-111203812D01*
X141556180Y-111167502D01*
X141666494Y-111108537D01*
X141763185Y-111029185D01*
X141842537Y-110932494D01*
X141901502Y-110822180D01*
X141937812Y-110702482D01*
X141950072Y-110578000D01*
X141950072Y-108878000D01*
X143291928Y-108878000D01*
X143291928Y-110578000D01*
X143304188Y-110702482D01*
X143340498Y-110822180D01*
X143399463Y-110932494D01*
X143478815Y-111029185D01*
X143575506Y-111108537D01*
X143685820Y-111167502D01*
X143805518Y-111203812D01*
X143930000Y-111216072D01*
X145630000Y-111216072D01*
X145754482Y-111203812D01*
X145874180Y-111167502D01*
X145984494Y-111108537D01*
X146081185Y-111029185D01*
X146160537Y-110932494D01*
X146219502Y-110822180D01*
X146255812Y-110702482D01*
X146268072Y-110578000D01*
X146268072Y-108878000D01*
X146255812Y-108753518D01*
X146219502Y-108633820D01*
X146160537Y-108523506D01*
X146081185Y-108426815D01*
X145984494Y-108347463D01*
X145874180Y-108288498D01*
X145801620Y-108266487D01*
X145933475Y-108134632D01*
X146095990Y-107891411D01*
X146207932Y-107621158D01*
X146265000Y-107334260D01*
X146265000Y-107041740D01*
X146207932Y-106754842D01*
X146095990Y-106484589D01*
X145933475Y-106241368D01*
X145726632Y-106034525D01*
X145544466Y-105912805D01*
X145661355Y-105843178D01*
X145877588Y-105648269D01*
X146051641Y-105414920D01*
X146176825Y-105152099D01*
X146221476Y-105004890D01*
X146100155Y-104775000D01*
X144907000Y-104775000D01*
X144907000Y-104795000D01*
X144653000Y-104795000D01*
X144653000Y-104775000D01*
X143459845Y-104775000D01*
X143338524Y-105004890D01*
X143383175Y-105152099D01*
X143508359Y-105414920D01*
X143682412Y-105648269D01*
X143898645Y-105843178D01*
X144015534Y-105912805D01*
X143833368Y-106034525D01*
X143626525Y-106241368D01*
X143464010Y-106484589D01*
X143352068Y-106754842D01*
X143295000Y-107041740D01*
X143295000Y-107334260D01*
X143352068Y-107621158D01*
X143464010Y-107891411D01*
X143626525Y-108134632D01*
X143758380Y-108266487D01*
X143685820Y-108288498D01*
X143575506Y-108347463D01*
X143478815Y-108426815D01*
X143399463Y-108523506D01*
X143340498Y-108633820D01*
X143304188Y-108753518D01*
X143291928Y-108878000D01*
X141950072Y-108878000D01*
X141937812Y-108753518D01*
X141901502Y-108633820D01*
X141842537Y-108523506D01*
X141763185Y-108426815D01*
X141666494Y-108347463D01*
X141556180Y-108288498D01*
X141483620Y-108266487D01*
X141615475Y-108134632D01*
X141777990Y-107891411D01*
X141889932Y-107621158D01*
X141947000Y-107334260D01*
X141947000Y-107041740D01*
X141889932Y-106754842D01*
X141777990Y-106484589D01*
X141615475Y-106241368D01*
X141408632Y-106034525D01*
X141226466Y-105912805D01*
X141343355Y-105843178D01*
X141559588Y-105648269D01*
X141733641Y-105414920D01*
X141858825Y-105152099D01*
X141903476Y-105004890D01*
X141782155Y-104775000D01*
X140589000Y-104775000D01*
X140589000Y-104795000D01*
X140335000Y-104795000D01*
X140335000Y-104775000D01*
X139141845Y-104775000D01*
X139020524Y-105004890D01*
X139065175Y-105152099D01*
X139190359Y-105414920D01*
X139364412Y-105648269D01*
X139580645Y-105843178D01*
X139697534Y-105912805D01*
X139515368Y-106034525D01*
X139308525Y-106241368D01*
X139146010Y-106484589D01*
X139034068Y-106754842D01*
X138977000Y-107041740D01*
X138977000Y-107334260D01*
X139034068Y-107621158D01*
X139146010Y-107891411D01*
X139308525Y-108134632D01*
X139440380Y-108266487D01*
X139367820Y-108288498D01*
X139257506Y-108347463D01*
X139160815Y-108426815D01*
X139081463Y-108523506D01*
X139022498Y-108633820D01*
X138986188Y-108753518D01*
X138973928Y-108878000D01*
X115633500Y-108878000D01*
X115633500Y-106194587D01*
X116405368Y-106624024D01*
X117461994Y-106964079D01*
X118564659Y-107091462D01*
X119670987Y-107001279D01*
X120738464Y-106696994D01*
X121726067Y-106190302D01*
X121884613Y-106084365D01*
X122460734Y-105410339D01*
X118660000Y-101609605D01*
X118645858Y-101623748D01*
X118466253Y-101444143D01*
X118480395Y-101430000D01*
X118466253Y-101415858D01*
X118645858Y-101236253D01*
X118660000Y-101250395D01*
X118674143Y-101236253D01*
X118853748Y-101415858D01*
X118839605Y-101430000D01*
X122640339Y-105230734D01*
X123314365Y-104654613D01*
X123516603Y-104291110D01*
X139020524Y-104291110D01*
X139141845Y-104521000D01*
X140335000Y-104521000D01*
X140335000Y-103327186D01*
X140589000Y-103327186D01*
X140589000Y-104521000D01*
X141782155Y-104521000D01*
X141903476Y-104291110D01*
X143338524Y-104291110D01*
X143459845Y-104521000D01*
X144653000Y-104521000D01*
X144653000Y-103327186D01*
X144907000Y-103327186D01*
X144907000Y-104521000D01*
X146100155Y-104521000D01*
X146221476Y-104291110D01*
X146176825Y-104143901D01*
X146051641Y-103881080D01*
X145877588Y-103647731D01*
X145661355Y-103452822D01*
X145411252Y-103303843D01*
X145136891Y-103206519D01*
X144907000Y-103327186D01*
X144653000Y-103327186D01*
X144423109Y-103206519D01*
X144148748Y-103303843D01*
X143898645Y-103452822D01*
X143682412Y-103647731D01*
X143508359Y-103881080D01*
X143383175Y-104143901D01*
X143338524Y-104291110D01*
X141903476Y-104291110D01*
X141858825Y-104143901D01*
X141733641Y-103881080D01*
X141559588Y-103647731D01*
X141343355Y-103452822D01*
X141093252Y-103303843D01*
X140818891Y-103206519D01*
X140589000Y-103327186D01*
X140335000Y-103327186D01*
X140105109Y-103206519D01*
X139830748Y-103303843D01*
X139580645Y-103452822D01*
X139364412Y-103647731D01*
X139190359Y-103881080D01*
X139065175Y-104143901D01*
X139020524Y-104291110D01*
X123516603Y-104291110D01*
X123854024Y-103684632D01*
X124194079Y-102628006D01*
X124321462Y-101525341D01*
X124231279Y-100419013D01*
X123926994Y-99351536D01*
X123420302Y-98363933D01*
X123314365Y-98205387D01*
X123199843Y-98107500D01*
X149120157Y-98107500D01*
X149005635Y-98205387D01*
G37*
%TD.AperFunction*%
%TD*%
M02*
