%FSLAX45Y45*%
G04 Gerber Fmt 4.5, Leading zero omitted, Abs format (unit mm)*
G04 Created by KiCad (PCBNEW (5.1.12)-1) date 2022-06-04 11:27:31*
%MOMM*%
%LPD*%
G01*
G04 APERTURE LIST*
%TA.AperFunction,Profile*%
%ADD10C,0.050000*%
%TD*%
%ADD11C,0.200000*%
%ADD12C,0.300000*%
G04 APERTURE END LIST*
D10*
X14732000Y-7874000D02*
X14732000Y-7620000D01*
X9525000Y-10033000D02*
X9525000Y-9779000D01*
X9906000Y-10414000D02*
X10160000Y-10414000D01*
X9906000Y-7239000D02*
X10160000Y-7239000D01*
X9525000Y-9779000D02*
X9525000Y-7620000D01*
X9906000Y-10414000D02*
G75*
G02*
X9525000Y-10033000I0J381000D01*
G01*
X9525000Y-7620000D02*
G75*
G02*
X9906000Y-7239000I381000J0D01*
G01*
X14351000Y-10414000D02*
X10160000Y-10414000D01*
X14732000Y-10033000D02*
G75*
G02*
X14351000Y-10414000I-381000J0D01*
G01*
X14732000Y-7874000D02*
X14732000Y-10033000D01*
X14351000Y-7239000D02*
G75*
G02*
X14732000Y-7620000I0J-381000D01*
G01*
X10160000Y-7239000D02*
X14351000Y-7239000D01*
D11*
X10030875Y-7744875D02*
X10070875Y-7784875D01*
X10070875Y-7744875D02*
X10030875Y-7784875D01*
X10150400Y-8118400D02*
X10190400Y-8158400D01*
X10190400Y-8118400D02*
X10150400Y-8158400D01*
X10411100Y-8110900D02*
X10451100Y-8150900D01*
X10451100Y-8110900D02*
X10411100Y-8150900D01*
X10991000Y-7600000D02*
X11031000Y-7640000D01*
X11031000Y-7600000D02*
X10991000Y-7640000D01*
X10991000Y-10140000D02*
X11031000Y-10180000D01*
X11031000Y-10140000D02*
X10991000Y-10180000D01*
X11039327Y-7483327D02*
X11079327Y-7523327D01*
X11079327Y-7483327D02*
X11039327Y-7523327D01*
X11039327Y-7716673D02*
X11079327Y-7756673D01*
X11079327Y-7716673D02*
X11039327Y-7756673D01*
X11039327Y-10023327D02*
X11079327Y-10063327D01*
X11079327Y-10023327D02*
X11039327Y-10063327D01*
X11039327Y-10256673D02*
X11079327Y-10296673D01*
X11079327Y-10256673D02*
X11039327Y-10296673D01*
X11064750Y-8834250D02*
X11104750Y-8874250D01*
X11104750Y-8834250D02*
X11064750Y-8874250D01*
X11156000Y-7435000D02*
X11196000Y-7475000D01*
X11196000Y-7435000D02*
X11156000Y-7475000D01*
X11156000Y-7765000D02*
X11196000Y-7805000D01*
X11196000Y-7765000D02*
X11156000Y-7805000D01*
X11156000Y-9975000D02*
X11196000Y-10015000D01*
X11196000Y-9975000D02*
X11156000Y-10015000D01*
X11156000Y-10305000D02*
X11196000Y-10345000D01*
X11196000Y-10305000D02*
X11156000Y-10345000D01*
X11272673Y-7483327D02*
X11312673Y-7523327D01*
X11312673Y-7483327D02*
X11272673Y-7523327D01*
X11272673Y-7716673D02*
X11312673Y-7756673D01*
X11312673Y-7716673D02*
X11272673Y-7756673D01*
X11272673Y-10023327D02*
X11312673Y-10063327D01*
X11312673Y-10023327D02*
X11272673Y-10063327D01*
X11272673Y-10256673D02*
X11312673Y-10296673D01*
X11312673Y-10256673D02*
X11272673Y-10296673D01*
X11315840Y-8775841D02*
X11355840Y-8815841D01*
X11355840Y-8775841D02*
X11315840Y-8815841D01*
X11321000Y-7600000D02*
X11361000Y-7640000D01*
X11361000Y-7600000D02*
X11321000Y-7640000D01*
X11321000Y-10140000D02*
X11361000Y-10180000D01*
X11361000Y-10140000D02*
X11321000Y-10180000D01*
X11410000Y-8997000D02*
X11450000Y-9037000D01*
X11450000Y-8997000D02*
X11410000Y-9037000D01*
X11554875Y-8125875D02*
X11594875Y-8165875D01*
X11594875Y-8125875D02*
X11554875Y-8165875D01*
X11664000Y-8870000D02*
X11704000Y-8910000D01*
X11704000Y-8870000D02*
X11664000Y-8910000D01*
X11894800Y-8131200D02*
X11934800Y-8171200D01*
X11934800Y-8131200D02*
X11894800Y-8171200D01*
X12045000Y-7473000D02*
X12085000Y-7513000D01*
X12085000Y-7473000D02*
X12045000Y-7513000D01*
X12172000Y-9281000D02*
X12212000Y-9321000D01*
X12212000Y-9281000D02*
X12172000Y-9321000D01*
X12553000Y-8489000D02*
X12593000Y-8529000D01*
X12593000Y-8489000D02*
X12553000Y-8529000D01*
X12775000Y-9029000D02*
X12815000Y-9069000D01*
X12815000Y-9029000D02*
X12775000Y-9069000D01*
X12924000Y-8262000D02*
X12964000Y-8302000D01*
X12964000Y-8262000D02*
X12924000Y-8302000D01*
X13188000Y-8235000D02*
X13228000Y-8275000D01*
X13228000Y-8235000D02*
X13188000Y-8275000D01*
X13796000Y-7981000D02*
X13836000Y-8021000D01*
X13836000Y-7981000D02*
X13796000Y-8021000D01*
X14166000Y-7600000D02*
X14206000Y-7640000D01*
X14206000Y-7600000D02*
X14166000Y-7640000D01*
X14166000Y-10140000D02*
X14206000Y-10180000D01*
X14206000Y-10140000D02*
X14166000Y-10180000D01*
X14214327Y-7483327D02*
X14254327Y-7523327D01*
X14254327Y-7483327D02*
X14214327Y-7523327D01*
X14214327Y-7716673D02*
X14254327Y-7756673D01*
X14254327Y-7716673D02*
X14214327Y-7756673D01*
X14214327Y-10023327D02*
X14254327Y-10063327D01*
X14254327Y-10023327D02*
X14214327Y-10063327D01*
X14214327Y-10256673D02*
X14254327Y-10296673D01*
X14254327Y-10256673D02*
X14214327Y-10296673D01*
X14331000Y-7435000D02*
X14371000Y-7475000D01*
X14371000Y-7435000D02*
X14331000Y-7475000D01*
X14331000Y-7765000D02*
X14371000Y-7805000D01*
X14371000Y-7765000D02*
X14331000Y-7805000D01*
X14331000Y-9975000D02*
X14371000Y-10015000D01*
X14371000Y-9975000D02*
X14331000Y-10015000D01*
X14331000Y-10305000D02*
X14371000Y-10345000D01*
X14371000Y-10305000D02*
X14331000Y-10345000D01*
X14447673Y-7483327D02*
X14487673Y-7523327D01*
X14487673Y-7483327D02*
X14447673Y-7523327D01*
X14447673Y-7716673D02*
X14487673Y-7756673D01*
X14487673Y-7716673D02*
X14447673Y-7756673D01*
X14447673Y-10023327D02*
X14487673Y-10063327D01*
X14487673Y-10023327D02*
X14447673Y-10063327D01*
X14447673Y-10256673D02*
X14487673Y-10296673D01*
X14487673Y-10256673D02*
X14447673Y-10296673D01*
X14496000Y-7600000D02*
X14536000Y-7640000D01*
X14536000Y-7600000D02*
X14496000Y-7640000D01*
X14496000Y-10140000D02*
X14536000Y-10180000D01*
X14536000Y-10140000D02*
X14496000Y-10180000D01*
X9960500Y-9145000D02*
G75*
G03*
X9960500Y-9145000I-40000J0D01*
G01*
X9960500Y-9399000D02*
G75*
G03*
X9960500Y-9399000I-40000J0D01*
G01*
X9960500Y-9653000D02*
G75*
G03*
X9960500Y-9653000I-40000J0D01*
G01*
X10597500Y-9145000D02*
G75*
G03*
X10597500Y-9145000I-40000J0D01*
G01*
X10597500Y-9399000D02*
G75*
G03*
X10597500Y-9399000I-40000J0D01*
G01*
X10597500Y-9653000D02*
G75*
G03*
X10597500Y-9653000I-40000J0D01*
G01*
X11654000Y-9094000D02*
X11654000Y-9194000D01*
X11604000Y-9144000D02*
X11704000Y-9144000D01*
X11654000Y-9348000D02*
X11654000Y-9448000D01*
X11604000Y-9398000D02*
X11704000Y-9398000D01*
X11654000Y-9602000D02*
X11654000Y-9702000D01*
X11604000Y-9652000D02*
X11704000Y-9652000D01*
X11908000Y-9094000D02*
X11908000Y-9194000D01*
X11858000Y-9144000D02*
X11958000Y-9144000D01*
X11908000Y-9348000D02*
X11908000Y-9448000D01*
X11858000Y-9398000D02*
X11958000Y-9398000D01*
X11908000Y-9602000D02*
X11908000Y-9702000D01*
X11858000Y-9652000D02*
X11958000Y-9652000D01*
X14469498Y-8774498D02*
X14469498Y-8675502D01*
X14370502Y-8675502D01*
X14370502Y-8774498D01*
X14469498Y-8774498D01*
X14469498Y-9374498D02*
X14469498Y-9275502D01*
X14370502Y-9275502D01*
X14370502Y-9374498D01*
X14469498Y-9374498D01*
X11176000Y-7730000D02*
X11286000Y-7620000D01*
X11176000Y-7510000D01*
X11066000Y-7620000D01*
X11176000Y-7730000D01*
X11176000Y-10270000D02*
X11286000Y-10160000D01*
X11176000Y-10050000D01*
X11066000Y-10160000D01*
X11176000Y-10270000D01*
X14351000Y-7730000D02*
X14461000Y-7620000D01*
X14351000Y-7510000D01*
X14241000Y-7620000D01*
X14351000Y-7730000D01*
X14351000Y-10270000D02*
X14461000Y-10160000D01*
X14351000Y-10050000D01*
X14241000Y-10160000D01*
X14351000Y-10270000D01*
X13313500Y-8873500D02*
X13546500Y-9106500D01*
X13546500Y-8873500D02*
X13313500Y-9106500D01*
X13546500Y-8990000D02*
G75*
G03*
X13546500Y-8990000I-116500J0D01*
G01*
X13853500Y-8338500D02*
X14086500Y-8571500D01*
X14086500Y-8338500D02*
X13853500Y-8571500D01*
X14086500Y-8455000D02*
G75*
G03*
X14086500Y-8455000I-116500J0D01*
G01*
X13853500Y-9408500D02*
X14086500Y-9641500D01*
X14086500Y-9408500D02*
X13853500Y-9641500D01*
X14086500Y-9525000D02*
G75*
G03*
X14086500Y-9525000I-116500J0D01*
G01*
D12*
X9808928Y-10882214D02*
X9808928Y-10582214D01*
X9880357Y-10582214D01*
X9923214Y-10596500D01*
X9951786Y-10625072D01*
X9966071Y-10653643D01*
X9980357Y-10710786D01*
X9980357Y-10753643D01*
X9966071Y-10810786D01*
X9951786Y-10839357D01*
X9923214Y-10867929D01*
X9880357Y-10882214D01*
X9808928Y-10882214D01*
X10108928Y-10882214D02*
X10108928Y-10682214D01*
X10108928Y-10739357D02*
X10123214Y-10710786D01*
X10137500Y-10696500D01*
X10166071Y-10682214D01*
X10194643Y-10682214D01*
X10294643Y-10882214D02*
X10294643Y-10682214D01*
X10294643Y-10582214D02*
X10280357Y-10596500D01*
X10294643Y-10610786D01*
X10308928Y-10596500D01*
X10294643Y-10582214D01*
X10294643Y-10610786D01*
X10480357Y-10882214D02*
X10451786Y-10867929D01*
X10437500Y-10839357D01*
X10437500Y-10582214D01*
X10637500Y-10882214D02*
X10608928Y-10867929D01*
X10594643Y-10839357D01*
X10594643Y-10582214D01*
X10980357Y-10882214D02*
X10980357Y-10582214D01*
X11080357Y-10796500D01*
X11180357Y-10582214D01*
X11180357Y-10882214D01*
X11451786Y-10882214D02*
X11451786Y-10725072D01*
X11437500Y-10696500D01*
X11408928Y-10682214D01*
X11351786Y-10682214D01*
X11323214Y-10696500D01*
X11451786Y-10867929D02*
X11423214Y-10882214D01*
X11351786Y-10882214D01*
X11323214Y-10867929D01*
X11308928Y-10839357D01*
X11308928Y-10810786D01*
X11323214Y-10782214D01*
X11351786Y-10767929D01*
X11423214Y-10767929D01*
X11451786Y-10753643D01*
X11594643Y-10682214D02*
X11594643Y-10982214D01*
X11594643Y-10696500D02*
X11623214Y-10682214D01*
X11680357Y-10682214D01*
X11708928Y-10696500D01*
X11723214Y-10710786D01*
X11737500Y-10739357D01*
X11737500Y-10825072D01*
X11723214Y-10853643D01*
X11708928Y-10867929D01*
X11680357Y-10882214D01*
X11623214Y-10882214D01*
X11594643Y-10867929D01*
X11866071Y-10853643D02*
X11880357Y-10867929D01*
X11866071Y-10882214D01*
X11851786Y-10867929D01*
X11866071Y-10853643D01*
X11866071Y-10882214D01*
X11866071Y-10696500D02*
X11880357Y-10710786D01*
X11866071Y-10725072D01*
X11851786Y-10710786D01*
X11866071Y-10696500D01*
X11866071Y-10725072D01*
X9482500Y-11356500D02*
X9522500Y-11396500D01*
X9522500Y-11356500D02*
X9482500Y-11396500D01*
X9866071Y-11212214D02*
X9894643Y-11212214D01*
X9923214Y-11226500D01*
X9937500Y-11240786D01*
X9951786Y-11269357D01*
X9966071Y-11326500D01*
X9966071Y-11397929D01*
X9951786Y-11455071D01*
X9937500Y-11483643D01*
X9923214Y-11497929D01*
X9894643Y-11512214D01*
X9866071Y-11512214D01*
X9837500Y-11497929D01*
X9823214Y-11483643D01*
X9808928Y-11455071D01*
X9794643Y-11397929D01*
X9794643Y-11326500D01*
X9808928Y-11269357D01*
X9823214Y-11240786D01*
X9837500Y-11226500D01*
X9866071Y-11212214D01*
X10094643Y-11483643D02*
X10108928Y-11497929D01*
X10094643Y-11512214D01*
X10080357Y-11497929D01*
X10094643Y-11483643D01*
X10094643Y-11512214D01*
X10366071Y-11312214D02*
X10366071Y-11512214D01*
X10294643Y-11197929D02*
X10223214Y-11412214D01*
X10408928Y-11412214D01*
X10580357Y-11212214D02*
X10608928Y-11212214D01*
X10637500Y-11226500D01*
X10651786Y-11240786D01*
X10666071Y-11269357D01*
X10680357Y-11326500D01*
X10680357Y-11397929D01*
X10666071Y-11455071D01*
X10651786Y-11483643D01*
X10637500Y-11497929D01*
X10608928Y-11512214D01*
X10580357Y-11512214D01*
X10551786Y-11497929D01*
X10537500Y-11483643D01*
X10523214Y-11455071D01*
X10508928Y-11397929D01*
X10508928Y-11326500D01*
X10523214Y-11269357D01*
X10537500Y-11240786D01*
X10551786Y-11226500D01*
X10580357Y-11212214D01*
X10866071Y-11212214D02*
X10894643Y-11212214D01*
X10923214Y-11226500D01*
X10937500Y-11240786D01*
X10951786Y-11269357D01*
X10966071Y-11326500D01*
X10966071Y-11397929D01*
X10951786Y-11455071D01*
X10937500Y-11483643D01*
X10923214Y-11497929D01*
X10894643Y-11512214D01*
X10866071Y-11512214D01*
X10837500Y-11497929D01*
X10823214Y-11483643D01*
X10808928Y-11455071D01*
X10794643Y-11397929D01*
X10794643Y-11326500D01*
X10808928Y-11269357D01*
X10823214Y-11240786D01*
X10837500Y-11226500D01*
X10866071Y-11212214D01*
X11094643Y-11512214D02*
X11094643Y-11312214D01*
X11094643Y-11340786D02*
X11108928Y-11326500D01*
X11137500Y-11312214D01*
X11180357Y-11312214D01*
X11208928Y-11326500D01*
X11223214Y-11355071D01*
X11223214Y-11512214D01*
X11223214Y-11355071D02*
X11237500Y-11326500D01*
X11266071Y-11312214D01*
X11308928Y-11312214D01*
X11337500Y-11326500D01*
X11351786Y-11355071D01*
X11351786Y-11512214D01*
X11494643Y-11512214D02*
X11494643Y-11312214D01*
X11494643Y-11340786D02*
X11508928Y-11326500D01*
X11537500Y-11312214D01*
X11580357Y-11312214D01*
X11608928Y-11326500D01*
X11623214Y-11355071D01*
X11623214Y-11512214D01*
X11623214Y-11355071D02*
X11637500Y-11326500D01*
X11666071Y-11312214D01*
X11708928Y-11312214D01*
X11737500Y-11326500D01*
X11751786Y-11355071D01*
X11751786Y-11512214D01*
X12337500Y-11197929D02*
X12080357Y-11583643D01*
X12723214Y-11212214D02*
X12751786Y-11212214D01*
X12780357Y-11226500D01*
X12794643Y-11240786D01*
X12808928Y-11269357D01*
X12823214Y-11326500D01*
X12823214Y-11397929D01*
X12808928Y-11455071D01*
X12794643Y-11483643D01*
X12780357Y-11497929D01*
X12751786Y-11512214D01*
X12723214Y-11512214D01*
X12694643Y-11497929D01*
X12680357Y-11483643D01*
X12666071Y-11455071D01*
X12651786Y-11397929D01*
X12651786Y-11326500D01*
X12666071Y-11269357D01*
X12680357Y-11240786D01*
X12694643Y-11226500D01*
X12723214Y-11212214D01*
X12951786Y-11483643D02*
X12966071Y-11497929D01*
X12951786Y-11512214D01*
X12937500Y-11497929D01*
X12951786Y-11483643D01*
X12951786Y-11512214D01*
X13151786Y-11212214D02*
X13180357Y-11212214D01*
X13208928Y-11226500D01*
X13223214Y-11240786D01*
X13237500Y-11269357D01*
X13251786Y-11326500D01*
X13251786Y-11397929D01*
X13237500Y-11455071D01*
X13223214Y-11483643D01*
X13208928Y-11497929D01*
X13180357Y-11512214D01*
X13151786Y-11512214D01*
X13123214Y-11497929D01*
X13108928Y-11483643D01*
X13094643Y-11455071D01*
X13080357Y-11397929D01*
X13080357Y-11326500D01*
X13094643Y-11269357D01*
X13108928Y-11240786D01*
X13123214Y-11226500D01*
X13151786Y-11212214D01*
X13537500Y-11512214D02*
X13366071Y-11512214D01*
X13451786Y-11512214D02*
X13451786Y-11212214D01*
X13423214Y-11255071D01*
X13394643Y-11283643D01*
X13366071Y-11297929D01*
X13808928Y-11212214D02*
X13666071Y-11212214D01*
X13651786Y-11355071D01*
X13666071Y-11340786D01*
X13694643Y-11326500D01*
X13766071Y-11326500D01*
X13794643Y-11340786D01*
X13808928Y-11355071D01*
X13823214Y-11383643D01*
X13823214Y-11455071D01*
X13808928Y-11483643D01*
X13794643Y-11497929D01*
X13766071Y-11512214D01*
X13694643Y-11512214D01*
X13666071Y-11497929D01*
X13651786Y-11483643D01*
X13923214Y-11212214D02*
X14123214Y-11212214D01*
X13994643Y-11512214D01*
X14223214Y-11212214D02*
X14223214Y-11269357D01*
X14337500Y-11212214D02*
X14337500Y-11269357D01*
X14780357Y-11626500D02*
X14766071Y-11612214D01*
X14737500Y-11569357D01*
X14723214Y-11540786D01*
X14708928Y-11497929D01*
X14694643Y-11426500D01*
X14694643Y-11369357D01*
X14708928Y-11297929D01*
X14723214Y-11255071D01*
X14737500Y-11226500D01*
X14766071Y-11183643D01*
X14780357Y-11169357D01*
X15023214Y-11312214D02*
X15023214Y-11512214D01*
X14951786Y-11197929D02*
X14880357Y-11412214D01*
X15066071Y-11412214D01*
X15223214Y-11340786D02*
X15194643Y-11326500D01*
X15180357Y-11312214D01*
X15166071Y-11283643D01*
X15166071Y-11269357D01*
X15180357Y-11240786D01*
X15194643Y-11226500D01*
X15223214Y-11212214D01*
X15280357Y-11212214D01*
X15308928Y-11226500D01*
X15323214Y-11240786D01*
X15337500Y-11269357D01*
X15337500Y-11283643D01*
X15323214Y-11312214D01*
X15308928Y-11326500D01*
X15280357Y-11340786D01*
X15223214Y-11340786D01*
X15194643Y-11355071D01*
X15180357Y-11369357D01*
X15166071Y-11397929D01*
X15166071Y-11455071D01*
X15180357Y-11483643D01*
X15194643Y-11497929D01*
X15223214Y-11512214D01*
X15280357Y-11512214D01*
X15308928Y-11497929D01*
X15323214Y-11483643D01*
X15337500Y-11455071D01*
X15337500Y-11397929D01*
X15323214Y-11369357D01*
X15308928Y-11355071D01*
X15280357Y-11340786D01*
X15694643Y-11512214D02*
X15694643Y-11212214D01*
X15823214Y-11512214D02*
X15823214Y-11355071D01*
X15808928Y-11326500D01*
X15780357Y-11312214D01*
X15737500Y-11312214D01*
X15708928Y-11326500D01*
X15694643Y-11340786D01*
X16008928Y-11512214D02*
X15980357Y-11497929D01*
X15966071Y-11483643D01*
X15951786Y-11455071D01*
X15951786Y-11369357D01*
X15966071Y-11340786D01*
X15980357Y-11326500D01*
X16008928Y-11312214D01*
X16051786Y-11312214D01*
X16080357Y-11326500D01*
X16094643Y-11340786D01*
X16108928Y-11369357D01*
X16108928Y-11455071D01*
X16094643Y-11483643D01*
X16080357Y-11497929D01*
X16051786Y-11512214D01*
X16008928Y-11512214D01*
X16280357Y-11512214D02*
X16251786Y-11497929D01*
X16237500Y-11469357D01*
X16237500Y-11212214D01*
X16508928Y-11497929D02*
X16480357Y-11512214D01*
X16423214Y-11512214D01*
X16394643Y-11497929D01*
X16380357Y-11469357D01*
X16380357Y-11355071D01*
X16394643Y-11326500D01*
X16423214Y-11312214D01*
X16480357Y-11312214D01*
X16508928Y-11326500D01*
X16523214Y-11355071D01*
X16523214Y-11383643D01*
X16380357Y-11412214D01*
X16637500Y-11497929D02*
X16666071Y-11512214D01*
X16723214Y-11512214D01*
X16751786Y-11497929D01*
X16766071Y-11469357D01*
X16766071Y-11455071D01*
X16751786Y-11426500D01*
X16723214Y-11412214D01*
X16680357Y-11412214D01*
X16651786Y-11397929D01*
X16637500Y-11369357D01*
X16637500Y-11355071D01*
X16651786Y-11326500D01*
X16680357Y-11312214D01*
X16723214Y-11312214D01*
X16751786Y-11326500D01*
X16866071Y-11626500D02*
X16880357Y-11612214D01*
X16908928Y-11569357D01*
X16923214Y-11540786D01*
X16937500Y-11497929D01*
X16951786Y-11426500D01*
X16951786Y-11369357D01*
X16937500Y-11297929D01*
X16923214Y-11255071D01*
X16908928Y-11226500D01*
X16880357Y-11183643D01*
X16866071Y-11169357D01*
X9522500Y-11772500D02*
G75*
G03*
X9522500Y-11772500I-40000J0D01*
G01*
X9866071Y-11608214D02*
X9894643Y-11608214D01*
X9923214Y-11622500D01*
X9937500Y-11636786D01*
X9951786Y-11665357D01*
X9966071Y-11722500D01*
X9966071Y-11793929D01*
X9951786Y-11851071D01*
X9937500Y-11879643D01*
X9923214Y-11893929D01*
X9894643Y-11908214D01*
X9866071Y-11908214D01*
X9837500Y-11893929D01*
X9823214Y-11879643D01*
X9808928Y-11851071D01*
X9794643Y-11793929D01*
X9794643Y-11722500D01*
X9808928Y-11665357D01*
X9823214Y-11636786D01*
X9837500Y-11622500D01*
X9866071Y-11608214D01*
X10094643Y-11879643D02*
X10108928Y-11893929D01*
X10094643Y-11908214D01*
X10080357Y-11893929D01*
X10094643Y-11879643D01*
X10094643Y-11908214D01*
X10280357Y-11736786D02*
X10251786Y-11722500D01*
X10237500Y-11708214D01*
X10223214Y-11679643D01*
X10223214Y-11665357D01*
X10237500Y-11636786D01*
X10251786Y-11622500D01*
X10280357Y-11608214D01*
X10337500Y-11608214D01*
X10366071Y-11622500D01*
X10380357Y-11636786D01*
X10394643Y-11665357D01*
X10394643Y-11679643D01*
X10380357Y-11708214D01*
X10366071Y-11722500D01*
X10337500Y-11736786D01*
X10280357Y-11736786D01*
X10251786Y-11751071D01*
X10237500Y-11765357D01*
X10223214Y-11793929D01*
X10223214Y-11851071D01*
X10237500Y-11879643D01*
X10251786Y-11893929D01*
X10280357Y-11908214D01*
X10337500Y-11908214D01*
X10366071Y-11893929D01*
X10380357Y-11879643D01*
X10394643Y-11851071D01*
X10394643Y-11793929D01*
X10380357Y-11765357D01*
X10366071Y-11751071D01*
X10337500Y-11736786D01*
X10580357Y-11608214D02*
X10608928Y-11608214D01*
X10637500Y-11622500D01*
X10651786Y-11636786D01*
X10666071Y-11665357D01*
X10680357Y-11722500D01*
X10680357Y-11793929D01*
X10666071Y-11851071D01*
X10651786Y-11879643D01*
X10637500Y-11893929D01*
X10608928Y-11908214D01*
X10580357Y-11908214D01*
X10551786Y-11893929D01*
X10537500Y-11879643D01*
X10523214Y-11851071D01*
X10508928Y-11793929D01*
X10508928Y-11722500D01*
X10523214Y-11665357D01*
X10537500Y-11636786D01*
X10551786Y-11622500D01*
X10580357Y-11608214D01*
X10866071Y-11608214D02*
X10894643Y-11608214D01*
X10923214Y-11622500D01*
X10937500Y-11636786D01*
X10951786Y-11665357D01*
X10966071Y-11722500D01*
X10966071Y-11793929D01*
X10951786Y-11851071D01*
X10937500Y-11879643D01*
X10923214Y-11893929D01*
X10894643Y-11908214D01*
X10866071Y-11908214D01*
X10837500Y-11893929D01*
X10823214Y-11879643D01*
X10808928Y-11851071D01*
X10794643Y-11793929D01*
X10794643Y-11722500D01*
X10808928Y-11665357D01*
X10823214Y-11636786D01*
X10837500Y-11622500D01*
X10866071Y-11608214D01*
X11094643Y-11908214D02*
X11094643Y-11708214D01*
X11094643Y-11736786D02*
X11108928Y-11722500D01*
X11137500Y-11708214D01*
X11180357Y-11708214D01*
X11208928Y-11722500D01*
X11223214Y-11751071D01*
X11223214Y-11908214D01*
X11223214Y-11751071D02*
X11237500Y-11722500D01*
X11266071Y-11708214D01*
X11308928Y-11708214D01*
X11337500Y-11722500D01*
X11351786Y-11751071D01*
X11351786Y-11908214D01*
X11494643Y-11908214D02*
X11494643Y-11708214D01*
X11494643Y-11736786D02*
X11508928Y-11722500D01*
X11537500Y-11708214D01*
X11580357Y-11708214D01*
X11608928Y-11722500D01*
X11623214Y-11751071D01*
X11623214Y-11908214D01*
X11623214Y-11751071D02*
X11637500Y-11722500D01*
X11666071Y-11708214D01*
X11708928Y-11708214D01*
X11737500Y-11722500D01*
X11751786Y-11751071D01*
X11751786Y-11908214D01*
X12337500Y-11593929D02*
X12080357Y-11979643D01*
X12723214Y-11608214D02*
X12751786Y-11608214D01*
X12780357Y-11622500D01*
X12794643Y-11636786D01*
X12808928Y-11665357D01*
X12823214Y-11722500D01*
X12823214Y-11793929D01*
X12808928Y-11851071D01*
X12794643Y-11879643D01*
X12780357Y-11893929D01*
X12751786Y-11908214D01*
X12723214Y-11908214D01*
X12694643Y-11893929D01*
X12680357Y-11879643D01*
X12666071Y-11851071D01*
X12651786Y-11793929D01*
X12651786Y-11722500D01*
X12666071Y-11665357D01*
X12680357Y-11636786D01*
X12694643Y-11622500D01*
X12723214Y-11608214D01*
X12951786Y-11879643D02*
X12966071Y-11893929D01*
X12951786Y-11908214D01*
X12937500Y-11893929D01*
X12951786Y-11879643D01*
X12951786Y-11908214D01*
X13151786Y-11608214D02*
X13180357Y-11608214D01*
X13208928Y-11622500D01*
X13223214Y-11636786D01*
X13237500Y-11665357D01*
X13251786Y-11722500D01*
X13251786Y-11793929D01*
X13237500Y-11851071D01*
X13223214Y-11879643D01*
X13208928Y-11893929D01*
X13180357Y-11908214D01*
X13151786Y-11908214D01*
X13123214Y-11893929D01*
X13108928Y-11879643D01*
X13094643Y-11851071D01*
X13080357Y-11793929D01*
X13080357Y-11722500D01*
X13094643Y-11665357D01*
X13108928Y-11636786D01*
X13123214Y-11622500D01*
X13151786Y-11608214D01*
X13351786Y-11608214D02*
X13537500Y-11608214D01*
X13437500Y-11722500D01*
X13480357Y-11722500D01*
X13508928Y-11736786D01*
X13523214Y-11751071D01*
X13537500Y-11779643D01*
X13537500Y-11851071D01*
X13523214Y-11879643D01*
X13508928Y-11893929D01*
X13480357Y-11908214D01*
X13394643Y-11908214D01*
X13366071Y-11893929D01*
X13351786Y-11879643D01*
X13823214Y-11908214D02*
X13651786Y-11908214D01*
X13737500Y-11908214D02*
X13737500Y-11608214D01*
X13708928Y-11651071D01*
X13680357Y-11679643D01*
X13651786Y-11693929D01*
X14094643Y-11608214D02*
X13951786Y-11608214D01*
X13937500Y-11751071D01*
X13951786Y-11736786D01*
X13980357Y-11722500D01*
X14051786Y-11722500D01*
X14080357Y-11736786D01*
X14094643Y-11751071D01*
X14108928Y-11779643D01*
X14108928Y-11851071D01*
X14094643Y-11879643D01*
X14080357Y-11893929D01*
X14051786Y-11908214D01*
X13980357Y-11908214D01*
X13951786Y-11893929D01*
X13937500Y-11879643D01*
X14223214Y-11608214D02*
X14223214Y-11665357D01*
X14337500Y-11608214D02*
X14337500Y-11665357D01*
X14780357Y-12022500D02*
X14766071Y-12008214D01*
X14737500Y-11965357D01*
X14723214Y-11936786D01*
X14708928Y-11893929D01*
X14694643Y-11822500D01*
X14694643Y-11765357D01*
X14708928Y-11693929D01*
X14723214Y-11651071D01*
X14737500Y-11622500D01*
X14766071Y-11579643D01*
X14780357Y-11565357D01*
X15023214Y-11608214D02*
X14966071Y-11608214D01*
X14937500Y-11622500D01*
X14923214Y-11636786D01*
X14894643Y-11679643D01*
X14880357Y-11736786D01*
X14880357Y-11851071D01*
X14894643Y-11879643D01*
X14908928Y-11893929D01*
X14937500Y-11908214D01*
X14994643Y-11908214D01*
X15023214Y-11893929D01*
X15037500Y-11879643D01*
X15051786Y-11851071D01*
X15051786Y-11779643D01*
X15037500Y-11751071D01*
X15023214Y-11736786D01*
X14994643Y-11722500D01*
X14937500Y-11722500D01*
X14908928Y-11736786D01*
X14894643Y-11751071D01*
X14880357Y-11779643D01*
X15408928Y-11908214D02*
X15408928Y-11608214D01*
X15537500Y-11908214D02*
X15537500Y-11751071D01*
X15523214Y-11722500D01*
X15494643Y-11708214D01*
X15451786Y-11708214D01*
X15423214Y-11722500D01*
X15408928Y-11736786D01*
X15723214Y-11908214D02*
X15694643Y-11893929D01*
X15680357Y-11879643D01*
X15666071Y-11851071D01*
X15666071Y-11765357D01*
X15680357Y-11736786D01*
X15694643Y-11722500D01*
X15723214Y-11708214D01*
X15766071Y-11708214D01*
X15794643Y-11722500D01*
X15808928Y-11736786D01*
X15823214Y-11765357D01*
X15823214Y-11851071D01*
X15808928Y-11879643D01*
X15794643Y-11893929D01*
X15766071Y-11908214D01*
X15723214Y-11908214D01*
X15994643Y-11908214D02*
X15966071Y-11893929D01*
X15951786Y-11865357D01*
X15951786Y-11608214D01*
X16223214Y-11893929D02*
X16194643Y-11908214D01*
X16137500Y-11908214D01*
X16108928Y-11893929D01*
X16094643Y-11865357D01*
X16094643Y-11751071D01*
X16108928Y-11722500D01*
X16137500Y-11708214D01*
X16194643Y-11708214D01*
X16223214Y-11722500D01*
X16237500Y-11751071D01*
X16237500Y-11779643D01*
X16094643Y-11808214D01*
X16351786Y-11893929D02*
X16380357Y-11908214D01*
X16437500Y-11908214D01*
X16466071Y-11893929D01*
X16480357Y-11865357D01*
X16480357Y-11851071D01*
X16466071Y-11822500D01*
X16437500Y-11808214D01*
X16394643Y-11808214D01*
X16366071Y-11793929D01*
X16351786Y-11765357D01*
X16351786Y-11751071D01*
X16366071Y-11722500D01*
X16394643Y-11708214D01*
X16437500Y-11708214D01*
X16466071Y-11722500D01*
X16580357Y-12022500D02*
X16594643Y-12008214D01*
X16623214Y-11965357D01*
X16637500Y-11936786D01*
X16651786Y-11893929D01*
X16666071Y-11822500D01*
X16666071Y-11765357D01*
X16651786Y-11693929D01*
X16637500Y-11651071D01*
X16623214Y-11622500D01*
X16594643Y-11579643D01*
X16580357Y-11565357D01*
X9472500Y-12118500D02*
X9472500Y-12218500D01*
X9422500Y-12168500D02*
X9522500Y-12168500D01*
X9966071Y-12304214D02*
X9794643Y-12304214D01*
X9880357Y-12304214D02*
X9880357Y-12004214D01*
X9851786Y-12047071D01*
X9823214Y-12075643D01*
X9794643Y-12089929D01*
X10094643Y-12275643D02*
X10108928Y-12289929D01*
X10094643Y-12304214D01*
X10080357Y-12289929D01*
X10094643Y-12275643D01*
X10094643Y-12304214D01*
X10294643Y-12004214D02*
X10323214Y-12004214D01*
X10351786Y-12018500D01*
X10366071Y-12032786D01*
X10380357Y-12061357D01*
X10394643Y-12118500D01*
X10394643Y-12189929D01*
X10380357Y-12247071D01*
X10366071Y-12275643D01*
X10351786Y-12289929D01*
X10323214Y-12304214D01*
X10294643Y-12304214D01*
X10266071Y-12289929D01*
X10251786Y-12275643D01*
X10237500Y-12247071D01*
X10223214Y-12189929D01*
X10223214Y-12118500D01*
X10237500Y-12061357D01*
X10251786Y-12032786D01*
X10266071Y-12018500D01*
X10294643Y-12004214D01*
X10580357Y-12004214D02*
X10608928Y-12004214D01*
X10637500Y-12018500D01*
X10651786Y-12032786D01*
X10666071Y-12061357D01*
X10680357Y-12118500D01*
X10680357Y-12189929D01*
X10666071Y-12247071D01*
X10651786Y-12275643D01*
X10637500Y-12289929D01*
X10608928Y-12304214D01*
X10580357Y-12304214D01*
X10551786Y-12289929D01*
X10537500Y-12275643D01*
X10523214Y-12247071D01*
X10508928Y-12189929D01*
X10508928Y-12118500D01*
X10523214Y-12061357D01*
X10537500Y-12032786D01*
X10551786Y-12018500D01*
X10580357Y-12004214D01*
X10866071Y-12004214D02*
X10894643Y-12004214D01*
X10923214Y-12018500D01*
X10937500Y-12032786D01*
X10951786Y-12061357D01*
X10966071Y-12118500D01*
X10966071Y-12189929D01*
X10951786Y-12247071D01*
X10937500Y-12275643D01*
X10923214Y-12289929D01*
X10894643Y-12304214D01*
X10866071Y-12304214D01*
X10837500Y-12289929D01*
X10823214Y-12275643D01*
X10808928Y-12247071D01*
X10794643Y-12189929D01*
X10794643Y-12118500D01*
X10808928Y-12061357D01*
X10823214Y-12032786D01*
X10837500Y-12018500D01*
X10866071Y-12004214D01*
X11094643Y-12304214D02*
X11094643Y-12104214D01*
X11094643Y-12132786D02*
X11108928Y-12118500D01*
X11137500Y-12104214D01*
X11180357Y-12104214D01*
X11208928Y-12118500D01*
X11223214Y-12147071D01*
X11223214Y-12304214D01*
X11223214Y-12147071D02*
X11237500Y-12118500D01*
X11266071Y-12104214D01*
X11308928Y-12104214D01*
X11337500Y-12118500D01*
X11351786Y-12147071D01*
X11351786Y-12304214D01*
X11494643Y-12304214D02*
X11494643Y-12104214D01*
X11494643Y-12132786D02*
X11508928Y-12118500D01*
X11537500Y-12104214D01*
X11580357Y-12104214D01*
X11608928Y-12118500D01*
X11623214Y-12147071D01*
X11623214Y-12304214D01*
X11623214Y-12147071D02*
X11637500Y-12118500D01*
X11666071Y-12104214D01*
X11708928Y-12104214D01*
X11737500Y-12118500D01*
X11751786Y-12147071D01*
X11751786Y-12304214D01*
X12337500Y-11989929D02*
X12080357Y-12375643D01*
X12723214Y-12004214D02*
X12751786Y-12004214D01*
X12780357Y-12018500D01*
X12794643Y-12032786D01*
X12808928Y-12061357D01*
X12823214Y-12118500D01*
X12823214Y-12189929D01*
X12808928Y-12247071D01*
X12794643Y-12275643D01*
X12780357Y-12289929D01*
X12751786Y-12304214D01*
X12723214Y-12304214D01*
X12694643Y-12289929D01*
X12680357Y-12275643D01*
X12666071Y-12247071D01*
X12651786Y-12189929D01*
X12651786Y-12118500D01*
X12666071Y-12061357D01*
X12680357Y-12032786D01*
X12694643Y-12018500D01*
X12723214Y-12004214D01*
X12951786Y-12275643D02*
X12966071Y-12289929D01*
X12951786Y-12304214D01*
X12937500Y-12289929D01*
X12951786Y-12275643D01*
X12951786Y-12304214D01*
X13151786Y-12004214D02*
X13180357Y-12004214D01*
X13208928Y-12018500D01*
X13223214Y-12032786D01*
X13237500Y-12061357D01*
X13251786Y-12118500D01*
X13251786Y-12189929D01*
X13237500Y-12247071D01*
X13223214Y-12275643D01*
X13208928Y-12289929D01*
X13180357Y-12304214D01*
X13151786Y-12304214D01*
X13123214Y-12289929D01*
X13108928Y-12275643D01*
X13094643Y-12247071D01*
X13080357Y-12189929D01*
X13080357Y-12118500D01*
X13094643Y-12061357D01*
X13108928Y-12032786D01*
X13123214Y-12018500D01*
X13151786Y-12004214D01*
X13351786Y-12004214D02*
X13537500Y-12004214D01*
X13437500Y-12118500D01*
X13480357Y-12118500D01*
X13508928Y-12132786D01*
X13523214Y-12147071D01*
X13537500Y-12175643D01*
X13537500Y-12247071D01*
X13523214Y-12275643D01*
X13508928Y-12289929D01*
X13480357Y-12304214D01*
X13394643Y-12304214D01*
X13366071Y-12289929D01*
X13351786Y-12275643D01*
X13680357Y-12304214D02*
X13737500Y-12304214D01*
X13766071Y-12289929D01*
X13780357Y-12275643D01*
X13808928Y-12232786D01*
X13823214Y-12175643D01*
X13823214Y-12061357D01*
X13808928Y-12032786D01*
X13794643Y-12018500D01*
X13766071Y-12004214D01*
X13708928Y-12004214D01*
X13680357Y-12018500D01*
X13666071Y-12032786D01*
X13651786Y-12061357D01*
X13651786Y-12132786D01*
X13666071Y-12161357D01*
X13680357Y-12175643D01*
X13708928Y-12189929D01*
X13766071Y-12189929D01*
X13794643Y-12175643D01*
X13808928Y-12161357D01*
X13823214Y-12132786D01*
X14080357Y-12104214D02*
X14080357Y-12304214D01*
X14008928Y-11989929D02*
X13937500Y-12204214D01*
X14123214Y-12204214D01*
X14223214Y-12004214D02*
X14223214Y-12061357D01*
X14337500Y-12004214D02*
X14337500Y-12061357D01*
X14780357Y-12418500D02*
X14766071Y-12404214D01*
X14737500Y-12361357D01*
X14723214Y-12332786D01*
X14708928Y-12289929D01*
X14694643Y-12218500D01*
X14694643Y-12161357D01*
X14708928Y-12089929D01*
X14723214Y-12047071D01*
X14737500Y-12018500D01*
X14766071Y-11975643D01*
X14780357Y-11961357D01*
X15023214Y-12004214D02*
X14966071Y-12004214D01*
X14937500Y-12018500D01*
X14923214Y-12032786D01*
X14894643Y-12075643D01*
X14880357Y-12132786D01*
X14880357Y-12247071D01*
X14894643Y-12275643D01*
X14908928Y-12289929D01*
X14937500Y-12304214D01*
X14994643Y-12304214D01*
X15023214Y-12289929D01*
X15037500Y-12275643D01*
X15051786Y-12247071D01*
X15051786Y-12175643D01*
X15037500Y-12147071D01*
X15023214Y-12132786D01*
X14994643Y-12118500D01*
X14937500Y-12118500D01*
X14908928Y-12132786D01*
X14894643Y-12147071D01*
X14880357Y-12175643D01*
X15408928Y-12304214D02*
X15408928Y-12004214D01*
X15537500Y-12304214D02*
X15537500Y-12147071D01*
X15523214Y-12118500D01*
X15494643Y-12104214D01*
X15451786Y-12104214D01*
X15423214Y-12118500D01*
X15408928Y-12132786D01*
X15723214Y-12304214D02*
X15694643Y-12289929D01*
X15680357Y-12275643D01*
X15666071Y-12247071D01*
X15666071Y-12161357D01*
X15680357Y-12132786D01*
X15694643Y-12118500D01*
X15723214Y-12104214D01*
X15766071Y-12104214D01*
X15794643Y-12118500D01*
X15808928Y-12132786D01*
X15823214Y-12161357D01*
X15823214Y-12247071D01*
X15808928Y-12275643D01*
X15794643Y-12289929D01*
X15766071Y-12304214D01*
X15723214Y-12304214D01*
X15994643Y-12304214D02*
X15966071Y-12289929D01*
X15951786Y-12261357D01*
X15951786Y-12004214D01*
X16223214Y-12289929D02*
X16194643Y-12304214D01*
X16137500Y-12304214D01*
X16108928Y-12289929D01*
X16094643Y-12261357D01*
X16094643Y-12147071D01*
X16108928Y-12118500D01*
X16137500Y-12104214D01*
X16194643Y-12104214D01*
X16223214Y-12118500D01*
X16237500Y-12147071D01*
X16237500Y-12175643D01*
X16094643Y-12204214D01*
X16351786Y-12289929D02*
X16380357Y-12304214D01*
X16437500Y-12304214D01*
X16466071Y-12289929D01*
X16480357Y-12261357D01*
X16480357Y-12247071D01*
X16466071Y-12218500D01*
X16437500Y-12204214D01*
X16394643Y-12204214D01*
X16366071Y-12189929D01*
X16351786Y-12161357D01*
X16351786Y-12147071D01*
X16366071Y-12118500D01*
X16394643Y-12104214D01*
X16437500Y-12104214D01*
X16466071Y-12118500D01*
X16580357Y-12418500D02*
X16594643Y-12404214D01*
X16623214Y-12361357D01*
X16637500Y-12332786D01*
X16651786Y-12289929D01*
X16666071Y-12218500D01*
X16666071Y-12161357D01*
X16651786Y-12089929D01*
X16637500Y-12047071D01*
X16623214Y-12018500D01*
X16594643Y-11975643D01*
X16580357Y-11961357D01*
X9501998Y-12613998D02*
X9501998Y-12515002D01*
X9403002Y-12515002D01*
X9403002Y-12613998D01*
X9501998Y-12613998D01*
X9966071Y-12700214D02*
X9794643Y-12700214D01*
X9880357Y-12700214D02*
X9880357Y-12400214D01*
X9851786Y-12443071D01*
X9823214Y-12471643D01*
X9794643Y-12485929D01*
X10094643Y-12671643D02*
X10108928Y-12685929D01*
X10094643Y-12700214D01*
X10080357Y-12685929D01*
X10094643Y-12671643D01*
X10094643Y-12700214D01*
X10366071Y-12500214D02*
X10366071Y-12700214D01*
X10294643Y-12385929D02*
X10223214Y-12600214D01*
X10408928Y-12600214D01*
X10580357Y-12400214D02*
X10608928Y-12400214D01*
X10637500Y-12414500D01*
X10651786Y-12428786D01*
X10666071Y-12457357D01*
X10680357Y-12514500D01*
X10680357Y-12585929D01*
X10666071Y-12643071D01*
X10651786Y-12671643D01*
X10637500Y-12685929D01*
X10608928Y-12700214D01*
X10580357Y-12700214D01*
X10551786Y-12685929D01*
X10537500Y-12671643D01*
X10523214Y-12643071D01*
X10508928Y-12585929D01*
X10508928Y-12514500D01*
X10523214Y-12457357D01*
X10537500Y-12428786D01*
X10551786Y-12414500D01*
X10580357Y-12400214D01*
X10866071Y-12400214D02*
X10894643Y-12400214D01*
X10923214Y-12414500D01*
X10937500Y-12428786D01*
X10951786Y-12457357D01*
X10966071Y-12514500D01*
X10966071Y-12585929D01*
X10951786Y-12643071D01*
X10937500Y-12671643D01*
X10923214Y-12685929D01*
X10894643Y-12700214D01*
X10866071Y-12700214D01*
X10837500Y-12685929D01*
X10823214Y-12671643D01*
X10808928Y-12643071D01*
X10794643Y-12585929D01*
X10794643Y-12514500D01*
X10808928Y-12457357D01*
X10823214Y-12428786D01*
X10837500Y-12414500D01*
X10866071Y-12400214D01*
X11094643Y-12700214D02*
X11094643Y-12500214D01*
X11094643Y-12528786D02*
X11108928Y-12514500D01*
X11137500Y-12500214D01*
X11180357Y-12500214D01*
X11208928Y-12514500D01*
X11223214Y-12543071D01*
X11223214Y-12700214D01*
X11223214Y-12543071D02*
X11237500Y-12514500D01*
X11266071Y-12500214D01*
X11308928Y-12500214D01*
X11337500Y-12514500D01*
X11351786Y-12543071D01*
X11351786Y-12700214D01*
X11494643Y-12700214D02*
X11494643Y-12500214D01*
X11494643Y-12528786D02*
X11508928Y-12514500D01*
X11537500Y-12500214D01*
X11580357Y-12500214D01*
X11608928Y-12514500D01*
X11623214Y-12543071D01*
X11623214Y-12700214D01*
X11623214Y-12543071D02*
X11637500Y-12514500D01*
X11666071Y-12500214D01*
X11708928Y-12500214D01*
X11737500Y-12514500D01*
X11751786Y-12543071D01*
X11751786Y-12700214D01*
X12337500Y-12385929D02*
X12080357Y-12771643D01*
X12723214Y-12400214D02*
X12751786Y-12400214D01*
X12780357Y-12414500D01*
X12794643Y-12428786D01*
X12808928Y-12457357D01*
X12823214Y-12514500D01*
X12823214Y-12585929D01*
X12808928Y-12643071D01*
X12794643Y-12671643D01*
X12780357Y-12685929D01*
X12751786Y-12700214D01*
X12723214Y-12700214D01*
X12694643Y-12685929D01*
X12680357Y-12671643D01*
X12666071Y-12643071D01*
X12651786Y-12585929D01*
X12651786Y-12514500D01*
X12666071Y-12457357D01*
X12680357Y-12428786D01*
X12694643Y-12414500D01*
X12723214Y-12400214D01*
X12951786Y-12671643D02*
X12966071Y-12685929D01*
X12951786Y-12700214D01*
X12937500Y-12685929D01*
X12951786Y-12671643D01*
X12951786Y-12700214D01*
X13151786Y-12400214D02*
X13180357Y-12400214D01*
X13208928Y-12414500D01*
X13223214Y-12428786D01*
X13237500Y-12457357D01*
X13251786Y-12514500D01*
X13251786Y-12585929D01*
X13237500Y-12643071D01*
X13223214Y-12671643D01*
X13208928Y-12685929D01*
X13180357Y-12700214D01*
X13151786Y-12700214D01*
X13123214Y-12685929D01*
X13108928Y-12671643D01*
X13094643Y-12643071D01*
X13080357Y-12585929D01*
X13080357Y-12514500D01*
X13094643Y-12457357D01*
X13108928Y-12428786D01*
X13123214Y-12414500D01*
X13151786Y-12400214D01*
X13523214Y-12400214D02*
X13380357Y-12400214D01*
X13366071Y-12543071D01*
X13380357Y-12528786D01*
X13408928Y-12514500D01*
X13480357Y-12514500D01*
X13508928Y-12528786D01*
X13523214Y-12543071D01*
X13537500Y-12571643D01*
X13537500Y-12643071D01*
X13523214Y-12671643D01*
X13508928Y-12685929D01*
X13480357Y-12700214D01*
X13408928Y-12700214D01*
X13380357Y-12685929D01*
X13366071Y-12671643D01*
X13808928Y-12400214D02*
X13666071Y-12400214D01*
X13651786Y-12543071D01*
X13666071Y-12528786D01*
X13694643Y-12514500D01*
X13766071Y-12514500D01*
X13794643Y-12528786D01*
X13808928Y-12543071D01*
X13823214Y-12571643D01*
X13823214Y-12643071D01*
X13808928Y-12671643D01*
X13794643Y-12685929D01*
X13766071Y-12700214D01*
X13694643Y-12700214D01*
X13666071Y-12685929D01*
X13651786Y-12671643D01*
X14108928Y-12700214D02*
X13937500Y-12700214D01*
X14023214Y-12700214D02*
X14023214Y-12400214D01*
X13994643Y-12443071D01*
X13966071Y-12471643D01*
X13937500Y-12485929D01*
X14223214Y-12400214D02*
X14223214Y-12457357D01*
X14337500Y-12400214D02*
X14337500Y-12457357D01*
X14780357Y-12814500D02*
X14766071Y-12800214D01*
X14737500Y-12757357D01*
X14723214Y-12728786D01*
X14708928Y-12685929D01*
X14694643Y-12614500D01*
X14694643Y-12557357D01*
X14708928Y-12485929D01*
X14723214Y-12443071D01*
X14737500Y-12414500D01*
X14766071Y-12371643D01*
X14780357Y-12357357D01*
X14880357Y-12428786D02*
X14894643Y-12414500D01*
X14923214Y-12400214D01*
X14994643Y-12400214D01*
X15023214Y-12414500D01*
X15037500Y-12428786D01*
X15051786Y-12457357D01*
X15051786Y-12485929D01*
X15037500Y-12528786D01*
X14866071Y-12700214D01*
X15051786Y-12700214D01*
X15408928Y-12700214D02*
X15408928Y-12400214D01*
X15537500Y-12700214D02*
X15537500Y-12543071D01*
X15523214Y-12514500D01*
X15494643Y-12500214D01*
X15451786Y-12500214D01*
X15423214Y-12514500D01*
X15408928Y-12528786D01*
X15723214Y-12700214D02*
X15694643Y-12685929D01*
X15680357Y-12671643D01*
X15666071Y-12643071D01*
X15666071Y-12557357D01*
X15680357Y-12528786D01*
X15694643Y-12514500D01*
X15723214Y-12500214D01*
X15766071Y-12500214D01*
X15794643Y-12514500D01*
X15808928Y-12528786D01*
X15823214Y-12557357D01*
X15823214Y-12643071D01*
X15808928Y-12671643D01*
X15794643Y-12685929D01*
X15766071Y-12700214D01*
X15723214Y-12700214D01*
X15994643Y-12700214D02*
X15966071Y-12685929D01*
X15951786Y-12657357D01*
X15951786Y-12400214D01*
X16223214Y-12685929D02*
X16194643Y-12700214D01*
X16137500Y-12700214D01*
X16108928Y-12685929D01*
X16094643Y-12657357D01*
X16094643Y-12543071D01*
X16108928Y-12514500D01*
X16137500Y-12500214D01*
X16194643Y-12500214D01*
X16223214Y-12514500D01*
X16237500Y-12543071D01*
X16237500Y-12571643D01*
X16094643Y-12600214D01*
X16351786Y-12685929D02*
X16380357Y-12700214D01*
X16437500Y-12700214D01*
X16466071Y-12685929D01*
X16480357Y-12657357D01*
X16480357Y-12643071D01*
X16466071Y-12614500D01*
X16437500Y-12600214D01*
X16394643Y-12600214D01*
X16366071Y-12585929D01*
X16351786Y-12557357D01*
X16351786Y-12543071D01*
X16366071Y-12514500D01*
X16394643Y-12500214D01*
X16437500Y-12500214D01*
X16466071Y-12514500D01*
X16580357Y-12814500D02*
X16594643Y-12800214D01*
X16623214Y-12757357D01*
X16637500Y-12728786D01*
X16651786Y-12685929D01*
X16666071Y-12614500D01*
X16666071Y-12557357D01*
X16651786Y-12485929D01*
X16637500Y-12443071D01*
X16623214Y-12414500D01*
X16594643Y-12371643D01*
X16580357Y-12357357D01*
X9412500Y-13070500D02*
X9522500Y-12960500D01*
X9412500Y-12850500D01*
X9302500Y-12960500D01*
X9412500Y-13070500D01*
X9794643Y-12824786D02*
X9808928Y-12810500D01*
X9837500Y-12796214D01*
X9908928Y-12796214D01*
X9937500Y-12810500D01*
X9951786Y-12824786D01*
X9966071Y-12853357D01*
X9966071Y-12881929D01*
X9951786Y-12924786D01*
X9780357Y-13096214D01*
X9966071Y-13096214D01*
X10094643Y-13067643D02*
X10108928Y-13081929D01*
X10094643Y-13096214D01*
X10080357Y-13081929D01*
X10094643Y-13067643D01*
X10094643Y-13096214D01*
X10223214Y-12824786D02*
X10237500Y-12810500D01*
X10266071Y-12796214D01*
X10337500Y-12796214D01*
X10366071Y-12810500D01*
X10380357Y-12824786D01*
X10394643Y-12853357D01*
X10394643Y-12881929D01*
X10380357Y-12924786D01*
X10208928Y-13096214D01*
X10394643Y-13096214D01*
X10580357Y-12796214D02*
X10608928Y-12796214D01*
X10637500Y-12810500D01*
X10651786Y-12824786D01*
X10666071Y-12853357D01*
X10680357Y-12910500D01*
X10680357Y-12981929D01*
X10666071Y-13039071D01*
X10651786Y-13067643D01*
X10637500Y-13081929D01*
X10608928Y-13096214D01*
X10580357Y-13096214D01*
X10551786Y-13081929D01*
X10537500Y-13067643D01*
X10523214Y-13039071D01*
X10508928Y-12981929D01*
X10508928Y-12910500D01*
X10523214Y-12853357D01*
X10537500Y-12824786D01*
X10551786Y-12810500D01*
X10580357Y-12796214D01*
X10866071Y-12796214D02*
X10894643Y-12796214D01*
X10923214Y-12810500D01*
X10937500Y-12824786D01*
X10951786Y-12853357D01*
X10966071Y-12910500D01*
X10966071Y-12981929D01*
X10951786Y-13039071D01*
X10937500Y-13067643D01*
X10923214Y-13081929D01*
X10894643Y-13096214D01*
X10866071Y-13096214D01*
X10837500Y-13081929D01*
X10823214Y-13067643D01*
X10808928Y-13039071D01*
X10794643Y-12981929D01*
X10794643Y-12910500D01*
X10808928Y-12853357D01*
X10823214Y-12824786D01*
X10837500Y-12810500D01*
X10866071Y-12796214D01*
X11094643Y-13096214D02*
X11094643Y-12896214D01*
X11094643Y-12924786D02*
X11108928Y-12910500D01*
X11137500Y-12896214D01*
X11180357Y-12896214D01*
X11208928Y-12910500D01*
X11223214Y-12939071D01*
X11223214Y-13096214D01*
X11223214Y-12939071D02*
X11237500Y-12910500D01*
X11266071Y-12896214D01*
X11308928Y-12896214D01*
X11337500Y-12910500D01*
X11351786Y-12939071D01*
X11351786Y-13096214D01*
X11494643Y-13096214D02*
X11494643Y-12896214D01*
X11494643Y-12924786D02*
X11508928Y-12910500D01*
X11537500Y-12896214D01*
X11580357Y-12896214D01*
X11608928Y-12910500D01*
X11623214Y-12939071D01*
X11623214Y-13096214D01*
X11623214Y-12939071D02*
X11637500Y-12910500D01*
X11666071Y-12896214D01*
X11708928Y-12896214D01*
X11737500Y-12910500D01*
X11751786Y-12939071D01*
X11751786Y-13096214D01*
X12337500Y-12781929D02*
X12080357Y-13167643D01*
X12723214Y-12796214D02*
X12751786Y-12796214D01*
X12780357Y-12810500D01*
X12794643Y-12824786D01*
X12808928Y-12853357D01*
X12823214Y-12910500D01*
X12823214Y-12981929D01*
X12808928Y-13039071D01*
X12794643Y-13067643D01*
X12780357Y-13081929D01*
X12751786Y-13096214D01*
X12723214Y-13096214D01*
X12694643Y-13081929D01*
X12680357Y-13067643D01*
X12666071Y-13039071D01*
X12651786Y-12981929D01*
X12651786Y-12910500D01*
X12666071Y-12853357D01*
X12680357Y-12824786D01*
X12694643Y-12810500D01*
X12723214Y-12796214D01*
X12951786Y-13067643D02*
X12966071Y-13081929D01*
X12951786Y-13096214D01*
X12937500Y-13081929D01*
X12951786Y-13067643D01*
X12951786Y-13096214D01*
X13151786Y-12796214D02*
X13180357Y-12796214D01*
X13208928Y-12810500D01*
X13223214Y-12824786D01*
X13237500Y-12853357D01*
X13251786Y-12910500D01*
X13251786Y-12981929D01*
X13237500Y-13039071D01*
X13223214Y-13067643D01*
X13208928Y-13081929D01*
X13180357Y-13096214D01*
X13151786Y-13096214D01*
X13123214Y-13081929D01*
X13108928Y-13067643D01*
X13094643Y-13039071D01*
X13080357Y-12981929D01*
X13080357Y-12910500D01*
X13094643Y-12853357D01*
X13108928Y-12824786D01*
X13123214Y-12810500D01*
X13151786Y-12796214D01*
X13423214Y-12924786D02*
X13394643Y-12910500D01*
X13380357Y-12896214D01*
X13366071Y-12867643D01*
X13366071Y-12853357D01*
X13380357Y-12824786D01*
X13394643Y-12810500D01*
X13423214Y-12796214D01*
X13480357Y-12796214D01*
X13508928Y-12810500D01*
X13523214Y-12824786D01*
X13537500Y-12853357D01*
X13537500Y-12867643D01*
X13523214Y-12896214D01*
X13508928Y-12910500D01*
X13480357Y-12924786D01*
X13423214Y-12924786D01*
X13394643Y-12939071D01*
X13380357Y-12953357D01*
X13366071Y-12981929D01*
X13366071Y-13039071D01*
X13380357Y-13067643D01*
X13394643Y-13081929D01*
X13423214Y-13096214D01*
X13480357Y-13096214D01*
X13508928Y-13081929D01*
X13523214Y-13067643D01*
X13537500Y-13039071D01*
X13537500Y-12981929D01*
X13523214Y-12953357D01*
X13508928Y-12939071D01*
X13480357Y-12924786D01*
X13794643Y-12796214D02*
X13737500Y-12796214D01*
X13708928Y-12810500D01*
X13694643Y-12824786D01*
X13666071Y-12867643D01*
X13651786Y-12924786D01*
X13651786Y-13039071D01*
X13666071Y-13067643D01*
X13680357Y-13081929D01*
X13708928Y-13096214D01*
X13766071Y-13096214D01*
X13794643Y-13081929D01*
X13808928Y-13067643D01*
X13823214Y-13039071D01*
X13823214Y-12967643D01*
X13808928Y-12939071D01*
X13794643Y-12924786D01*
X13766071Y-12910500D01*
X13708928Y-12910500D01*
X13680357Y-12924786D01*
X13666071Y-12939071D01*
X13651786Y-12967643D01*
X14080357Y-12796214D02*
X14023214Y-12796214D01*
X13994643Y-12810500D01*
X13980357Y-12824786D01*
X13951786Y-12867643D01*
X13937500Y-12924786D01*
X13937500Y-13039071D01*
X13951786Y-13067643D01*
X13966071Y-13081929D01*
X13994643Y-13096214D01*
X14051786Y-13096214D01*
X14080357Y-13081929D01*
X14094643Y-13067643D01*
X14108928Y-13039071D01*
X14108928Y-12967643D01*
X14094643Y-12939071D01*
X14080357Y-12924786D01*
X14051786Y-12910500D01*
X13994643Y-12910500D01*
X13966071Y-12924786D01*
X13951786Y-12939071D01*
X13937500Y-12967643D01*
X14223214Y-12796214D02*
X14223214Y-12853357D01*
X14337500Y-12796214D02*
X14337500Y-12853357D01*
X14780357Y-13210500D02*
X14766071Y-13196214D01*
X14737500Y-13153357D01*
X14723214Y-13124786D01*
X14708928Y-13081929D01*
X14694643Y-13010500D01*
X14694643Y-12953357D01*
X14708928Y-12881929D01*
X14723214Y-12839071D01*
X14737500Y-12810500D01*
X14766071Y-12767643D01*
X14780357Y-12753357D01*
X15023214Y-12896214D02*
X15023214Y-13096214D01*
X14951786Y-12781929D02*
X14880357Y-12996214D01*
X15066071Y-12996214D01*
X15408928Y-13096214D02*
X15408928Y-12796214D01*
X15537500Y-13096214D02*
X15537500Y-12939071D01*
X15523214Y-12910500D01*
X15494643Y-12896214D01*
X15451786Y-12896214D01*
X15423214Y-12910500D01*
X15408928Y-12924786D01*
X15723214Y-13096214D02*
X15694643Y-13081929D01*
X15680357Y-13067643D01*
X15666071Y-13039071D01*
X15666071Y-12953357D01*
X15680357Y-12924786D01*
X15694643Y-12910500D01*
X15723214Y-12896214D01*
X15766071Y-12896214D01*
X15794643Y-12910500D01*
X15808928Y-12924786D01*
X15823214Y-12953357D01*
X15823214Y-13039071D01*
X15808928Y-13067643D01*
X15794643Y-13081929D01*
X15766071Y-13096214D01*
X15723214Y-13096214D01*
X15994643Y-13096214D02*
X15966071Y-13081929D01*
X15951786Y-13053357D01*
X15951786Y-12796214D01*
X16223214Y-13081929D02*
X16194643Y-13096214D01*
X16137500Y-13096214D01*
X16108928Y-13081929D01*
X16094643Y-13053357D01*
X16094643Y-12939071D01*
X16108928Y-12910500D01*
X16137500Y-12896214D01*
X16194643Y-12896214D01*
X16223214Y-12910500D01*
X16237500Y-12939071D01*
X16237500Y-12967643D01*
X16094643Y-12996214D01*
X16351786Y-13081929D02*
X16380357Y-13096214D01*
X16437500Y-13096214D01*
X16466071Y-13081929D01*
X16480357Y-13053357D01*
X16480357Y-13039071D01*
X16466071Y-13010500D01*
X16437500Y-12996214D01*
X16394643Y-12996214D01*
X16366071Y-12981929D01*
X16351786Y-12953357D01*
X16351786Y-12939071D01*
X16366071Y-12910500D01*
X16394643Y-12896214D01*
X16437500Y-12896214D01*
X16466071Y-12910500D01*
X16580357Y-13210500D02*
X16594643Y-13196214D01*
X16623214Y-13153357D01*
X16637500Y-13124786D01*
X16651786Y-13081929D01*
X16666071Y-13010500D01*
X16666071Y-12953357D01*
X16651786Y-12881929D01*
X16637500Y-12839071D01*
X16623214Y-12810500D01*
X16594643Y-12767643D01*
X16580357Y-12753357D01*
X9289500Y-13240000D02*
X9522500Y-13473000D01*
X9522500Y-13240000D02*
X9289500Y-13473000D01*
X9522500Y-13356500D02*
G75*
G03*
X9522500Y-13356500I-116500J0D01*
G01*
X9794643Y-13220786D02*
X9808928Y-13206500D01*
X9837500Y-13192214D01*
X9908928Y-13192214D01*
X9937500Y-13206500D01*
X9951786Y-13220786D01*
X9966071Y-13249357D01*
X9966071Y-13277929D01*
X9951786Y-13320786D01*
X9780357Y-13492214D01*
X9966071Y-13492214D01*
X10094643Y-13463643D02*
X10108928Y-13477929D01*
X10094643Y-13492214D01*
X10080357Y-13477929D01*
X10094643Y-13463643D01*
X10094643Y-13492214D01*
X10208928Y-13192214D02*
X10394643Y-13192214D01*
X10294643Y-13306500D01*
X10337500Y-13306500D01*
X10366071Y-13320786D01*
X10380357Y-13335071D01*
X10394643Y-13363643D01*
X10394643Y-13435071D01*
X10380357Y-13463643D01*
X10366071Y-13477929D01*
X10337500Y-13492214D01*
X10251786Y-13492214D01*
X10223214Y-13477929D01*
X10208928Y-13463643D01*
X10494643Y-13192214D02*
X10680357Y-13192214D01*
X10580357Y-13306500D01*
X10623214Y-13306500D01*
X10651786Y-13320786D01*
X10666071Y-13335071D01*
X10680357Y-13363643D01*
X10680357Y-13435071D01*
X10666071Y-13463643D01*
X10651786Y-13477929D01*
X10623214Y-13492214D01*
X10537500Y-13492214D01*
X10508928Y-13477929D01*
X10494643Y-13463643D01*
X10866071Y-13192214D02*
X10894643Y-13192214D01*
X10923214Y-13206500D01*
X10937500Y-13220786D01*
X10951786Y-13249357D01*
X10966071Y-13306500D01*
X10966071Y-13377929D01*
X10951786Y-13435071D01*
X10937500Y-13463643D01*
X10923214Y-13477929D01*
X10894643Y-13492214D01*
X10866071Y-13492214D01*
X10837500Y-13477929D01*
X10823214Y-13463643D01*
X10808928Y-13435071D01*
X10794643Y-13377929D01*
X10794643Y-13306500D01*
X10808928Y-13249357D01*
X10823214Y-13220786D01*
X10837500Y-13206500D01*
X10866071Y-13192214D01*
X11094643Y-13492214D02*
X11094643Y-13292214D01*
X11094643Y-13320786D02*
X11108928Y-13306500D01*
X11137500Y-13292214D01*
X11180357Y-13292214D01*
X11208928Y-13306500D01*
X11223214Y-13335071D01*
X11223214Y-13492214D01*
X11223214Y-13335071D02*
X11237500Y-13306500D01*
X11266071Y-13292214D01*
X11308928Y-13292214D01*
X11337500Y-13306500D01*
X11351786Y-13335071D01*
X11351786Y-13492214D01*
X11494643Y-13492214D02*
X11494643Y-13292214D01*
X11494643Y-13320786D02*
X11508928Y-13306500D01*
X11537500Y-13292214D01*
X11580357Y-13292214D01*
X11608928Y-13306500D01*
X11623214Y-13335071D01*
X11623214Y-13492214D01*
X11623214Y-13335071D02*
X11637500Y-13306500D01*
X11666071Y-13292214D01*
X11708928Y-13292214D01*
X11737500Y-13306500D01*
X11751786Y-13335071D01*
X11751786Y-13492214D01*
X12337500Y-13177929D02*
X12080357Y-13563643D01*
X12723214Y-13192214D02*
X12751786Y-13192214D01*
X12780357Y-13206500D01*
X12794643Y-13220786D01*
X12808928Y-13249357D01*
X12823214Y-13306500D01*
X12823214Y-13377929D01*
X12808928Y-13435071D01*
X12794643Y-13463643D01*
X12780357Y-13477929D01*
X12751786Y-13492214D01*
X12723214Y-13492214D01*
X12694643Y-13477929D01*
X12680357Y-13463643D01*
X12666071Y-13435071D01*
X12651786Y-13377929D01*
X12651786Y-13306500D01*
X12666071Y-13249357D01*
X12680357Y-13220786D01*
X12694643Y-13206500D01*
X12723214Y-13192214D01*
X12951786Y-13463643D02*
X12966071Y-13477929D01*
X12951786Y-13492214D01*
X12937500Y-13477929D01*
X12951786Y-13463643D01*
X12951786Y-13492214D01*
X13151786Y-13192214D02*
X13180357Y-13192214D01*
X13208928Y-13206500D01*
X13223214Y-13220786D01*
X13237500Y-13249357D01*
X13251786Y-13306500D01*
X13251786Y-13377929D01*
X13237500Y-13435071D01*
X13223214Y-13463643D01*
X13208928Y-13477929D01*
X13180357Y-13492214D01*
X13151786Y-13492214D01*
X13123214Y-13477929D01*
X13108928Y-13463643D01*
X13094643Y-13435071D01*
X13080357Y-13377929D01*
X13080357Y-13306500D01*
X13094643Y-13249357D01*
X13108928Y-13220786D01*
X13123214Y-13206500D01*
X13151786Y-13192214D01*
X13394643Y-13492214D02*
X13451786Y-13492214D01*
X13480357Y-13477929D01*
X13494643Y-13463643D01*
X13523214Y-13420786D01*
X13537500Y-13363643D01*
X13537500Y-13249357D01*
X13523214Y-13220786D01*
X13508928Y-13206500D01*
X13480357Y-13192214D01*
X13423214Y-13192214D01*
X13394643Y-13206500D01*
X13380357Y-13220786D01*
X13366071Y-13249357D01*
X13366071Y-13320786D01*
X13380357Y-13349357D01*
X13394643Y-13363643D01*
X13423214Y-13377929D01*
X13480357Y-13377929D01*
X13508928Y-13363643D01*
X13523214Y-13349357D01*
X13537500Y-13320786D01*
X13823214Y-13492214D02*
X13651786Y-13492214D01*
X13737500Y-13492214D02*
X13737500Y-13192214D01*
X13708928Y-13235071D01*
X13680357Y-13263643D01*
X13651786Y-13277929D01*
X13923214Y-13192214D02*
X14123214Y-13192214D01*
X13994643Y-13492214D01*
X14223214Y-13192214D02*
X14223214Y-13249357D01*
X14337500Y-13192214D02*
X14337500Y-13249357D01*
X14780357Y-13606500D02*
X14766071Y-13592214D01*
X14737500Y-13549357D01*
X14723214Y-13520786D01*
X14708928Y-13477929D01*
X14694643Y-13406500D01*
X14694643Y-13349357D01*
X14708928Y-13277929D01*
X14723214Y-13235071D01*
X14737500Y-13206500D01*
X14766071Y-13163643D01*
X14780357Y-13149357D01*
X14866071Y-13192214D02*
X15051786Y-13192214D01*
X14951786Y-13306500D01*
X14994643Y-13306500D01*
X15023214Y-13320786D01*
X15037500Y-13335071D01*
X15051786Y-13363643D01*
X15051786Y-13435071D01*
X15037500Y-13463643D01*
X15023214Y-13477929D01*
X14994643Y-13492214D01*
X14908928Y-13492214D01*
X14880357Y-13477929D01*
X14866071Y-13463643D01*
X15408928Y-13492214D02*
X15408928Y-13192214D01*
X15537500Y-13492214D02*
X15537500Y-13335071D01*
X15523214Y-13306500D01*
X15494643Y-13292214D01*
X15451786Y-13292214D01*
X15423214Y-13306500D01*
X15408928Y-13320786D01*
X15723214Y-13492214D02*
X15694643Y-13477929D01*
X15680357Y-13463643D01*
X15666071Y-13435071D01*
X15666071Y-13349357D01*
X15680357Y-13320786D01*
X15694643Y-13306500D01*
X15723214Y-13292214D01*
X15766071Y-13292214D01*
X15794643Y-13306500D01*
X15808928Y-13320786D01*
X15823214Y-13349357D01*
X15823214Y-13435071D01*
X15808928Y-13463643D01*
X15794643Y-13477929D01*
X15766071Y-13492214D01*
X15723214Y-13492214D01*
X15994643Y-13492214D02*
X15966071Y-13477929D01*
X15951786Y-13449357D01*
X15951786Y-13192214D01*
X16223214Y-13477929D02*
X16194643Y-13492214D01*
X16137500Y-13492214D01*
X16108928Y-13477929D01*
X16094643Y-13449357D01*
X16094643Y-13335071D01*
X16108928Y-13306500D01*
X16137500Y-13292214D01*
X16194643Y-13292214D01*
X16223214Y-13306500D01*
X16237500Y-13335071D01*
X16237500Y-13363643D01*
X16094643Y-13392214D01*
X16351786Y-13477929D02*
X16380357Y-13492214D01*
X16437500Y-13492214D01*
X16466071Y-13477929D01*
X16480357Y-13449357D01*
X16480357Y-13435071D01*
X16466071Y-13406500D01*
X16437500Y-13392214D01*
X16394643Y-13392214D01*
X16366071Y-13377929D01*
X16351786Y-13349357D01*
X16351786Y-13335071D01*
X16366071Y-13306500D01*
X16394643Y-13292214D01*
X16437500Y-13292214D01*
X16466071Y-13306500D01*
X16580357Y-13606500D02*
X16594643Y-13592214D01*
X16623214Y-13549357D01*
X16637500Y-13520786D01*
X16651786Y-13477929D01*
X16666071Y-13406500D01*
X16666071Y-13349357D01*
X16651786Y-13277929D01*
X16637500Y-13235071D01*
X16623214Y-13206500D01*
X16594643Y-13163643D01*
X16580357Y-13149357D01*
M02*
