G04 #@! TF.GenerationSoftware,KiCad,Pcbnew,(5.1.12)-1*
G04 #@! TF.CreationDate,2022-06-04T11:26:48+02:00*
G04 #@! TF.ProjectId,BSPD,42535044-2e6b-4696-9361-645f70636258,rev?*
G04 #@! TF.SameCoordinates,Original*
G04 #@! TF.FileFunction,Copper,L1,Top*
G04 #@! TF.FilePolarity,Positive*
%FSLAX46Y46*%
G04 Gerber Fmt 4.6, Leading zero omitted, Abs format (unit mm)*
G04 Created by KiCad (PCBNEW (5.1.12)-1) date 2022-06-04 11:26:48*
%MOMM*%
%LPD*%
G01*
G04 APERTURE LIST*
G04 #@! TA.AperFunction,SMDPad,CuDef*
%ADD10R,0.900000X0.800000*%
G04 #@! TD*
G04 #@! TA.AperFunction,SMDPad,CuDef*
%ADD11R,1.528000X0.650000*%
G04 #@! TD*
G04 #@! TA.AperFunction,ComponentPad*
%ADD12R,1.700000X1.700000*%
G04 #@! TD*
G04 #@! TA.AperFunction,ComponentPad*
%ADD13O,1.700000X1.700000*%
G04 #@! TD*
G04 #@! TA.AperFunction,ComponentPad*
%ADD14C,2.100000*%
G04 #@! TD*
G04 #@! TA.AperFunction,ComponentPad*
%ADD15C,3.400000*%
G04 #@! TD*
G04 #@! TA.AperFunction,SMDPad,CuDef*
%ADD16R,2.000000X3.800000*%
G04 #@! TD*
G04 #@! TA.AperFunction,SMDPad,CuDef*
%ADD17R,2.000000X1.500000*%
G04 #@! TD*
G04 #@! TA.AperFunction,ComponentPad*
%ADD18C,1.440000*%
G04 #@! TD*
G04 #@! TA.AperFunction,ComponentPad*
%ADD19C,4.400000*%
G04 #@! TD*
G04 #@! TA.AperFunction,ComponentPad*
%ADD20C,0.700000*%
G04 #@! TD*
G04 #@! TA.AperFunction,ViaPad*
%ADD21C,0.800000*%
G04 #@! TD*
G04 #@! TA.AperFunction,Conductor*
%ADD22C,0.250000*%
G04 #@! TD*
G04 #@! TA.AperFunction,Conductor*
%ADD23C,0.500000*%
G04 #@! TD*
G04 APERTURE END LIST*
G04 #@! TA.AperFunction,SMDPad,CuDef*
G36*
G01*
X102420000Y-76995000D02*
X102420000Y-77945000D01*
G75*
G02*
X102170000Y-78195000I-250000J0D01*
G01*
X101670000Y-78195000D01*
G75*
G02*
X101420000Y-77945000I0J250000D01*
G01*
X101420000Y-76995000D01*
G75*
G02*
X101670000Y-76745000I250000J0D01*
G01*
X102170000Y-76745000D01*
G75*
G02*
X102420000Y-76995000I0J-250000D01*
G01*
G37*
G04 #@! TD.AperFunction*
G04 #@! TA.AperFunction,SMDPad,CuDef*
G36*
G01*
X104320000Y-76995000D02*
X104320000Y-77945000D01*
G75*
G02*
X104070000Y-78195000I-250000J0D01*
G01*
X103570000Y-78195000D01*
G75*
G02*
X103320000Y-77945000I0J250000D01*
G01*
X103320000Y-76995000D01*
G75*
G02*
X103570000Y-76745000I250000J0D01*
G01*
X104070000Y-76745000D01*
G75*
G02*
X104320000Y-76995000I0J-250000D01*
G01*
G37*
G04 #@! TD.AperFunction*
G04 #@! TA.AperFunction,SMDPad,CuDef*
G36*
G01*
X117660000Y-76995000D02*
X117660000Y-77945000D01*
G75*
G02*
X117410000Y-78195000I-250000J0D01*
G01*
X116910000Y-78195000D01*
G75*
G02*
X116660000Y-77945000I0J250000D01*
G01*
X116660000Y-76995000D01*
G75*
G02*
X116910000Y-76745000I250000J0D01*
G01*
X117410000Y-76745000D01*
G75*
G02*
X117660000Y-76995000I0J-250000D01*
G01*
G37*
G04 #@! TD.AperFunction*
G04 #@! TA.AperFunction,SMDPad,CuDef*
G36*
G01*
X119560000Y-76995000D02*
X119560000Y-77945000D01*
G75*
G02*
X119310000Y-78195000I-250000J0D01*
G01*
X118810000Y-78195000D01*
G75*
G02*
X118560000Y-77945000I0J250000D01*
G01*
X118560000Y-76995000D01*
G75*
G02*
X118810000Y-76745000I250000J0D01*
G01*
X119310000Y-76745000D01*
G75*
G02*
X119560000Y-76995000I0J-250000D01*
G01*
G37*
G04 #@! TD.AperFunction*
G04 #@! TA.AperFunction,SMDPad,CuDef*
G36*
G01*
X122395000Y-94800000D02*
X121445000Y-94800000D01*
G75*
G02*
X121195000Y-94550000I0J250000D01*
G01*
X121195000Y-94050000D01*
G75*
G02*
X121445000Y-93800000I250000J0D01*
G01*
X122395000Y-93800000D01*
G75*
G02*
X122645000Y-94050000I0J-250000D01*
G01*
X122645000Y-94550000D01*
G75*
G02*
X122395000Y-94800000I-250000J0D01*
G01*
G37*
G04 #@! TD.AperFunction*
G04 #@! TA.AperFunction,SMDPad,CuDef*
G36*
G01*
X122395000Y-96700000D02*
X121445000Y-96700000D01*
G75*
G02*
X121195000Y-96450000I0J250000D01*
G01*
X121195000Y-95950000D01*
G75*
G02*
X121445000Y-95700000I250000J0D01*
G01*
X122395000Y-95700000D01*
G75*
G02*
X122645000Y-95950000I0J-250000D01*
G01*
X122645000Y-96450000D01*
G75*
G02*
X122395000Y-96700000I-250000J0D01*
G01*
G37*
G04 #@! TD.AperFunction*
G04 #@! TA.AperFunction,SMDPad,CuDef*
G36*
G01*
X124935000Y-96700000D02*
X123985000Y-96700000D01*
G75*
G02*
X123735000Y-96450000I0J250000D01*
G01*
X123735000Y-95950000D01*
G75*
G02*
X123985000Y-95700000I250000J0D01*
G01*
X124935000Y-95700000D01*
G75*
G02*
X125185000Y-95950000I0J-250000D01*
G01*
X125185000Y-96450000D01*
G75*
G02*
X124935000Y-96700000I-250000J0D01*
G01*
G37*
G04 #@! TD.AperFunction*
G04 #@! TA.AperFunction,SMDPad,CuDef*
G36*
G01*
X124935000Y-94800000D02*
X123985000Y-94800000D01*
G75*
G02*
X123735000Y-94550000I0J250000D01*
G01*
X123735000Y-94050000D01*
G75*
G02*
X123985000Y-93800000I250000J0D01*
G01*
X124935000Y-93800000D01*
G75*
G02*
X125185000Y-94050000I0J-250000D01*
G01*
X125185000Y-94550000D01*
G75*
G02*
X124935000Y-94800000I-250000J0D01*
G01*
G37*
G04 #@! TD.AperFunction*
G04 #@! TA.AperFunction,SMDPad,CuDef*
G36*
G01*
X129065000Y-95700000D02*
X130015000Y-95700000D01*
G75*
G02*
X130265000Y-95950000I0J-250000D01*
G01*
X130265000Y-96450000D01*
G75*
G02*
X130015000Y-96700000I-250000J0D01*
G01*
X129065000Y-96700000D01*
G75*
G02*
X128815000Y-96450000I0J250000D01*
G01*
X128815000Y-95950000D01*
G75*
G02*
X129065000Y-95700000I250000J0D01*
G01*
G37*
G04 #@! TD.AperFunction*
G04 #@! TA.AperFunction,SMDPad,CuDef*
G36*
G01*
X129065000Y-93800000D02*
X130015000Y-93800000D01*
G75*
G02*
X130265000Y-94050000I0J-250000D01*
G01*
X130265000Y-94550000D01*
G75*
G02*
X130015000Y-94800000I-250000J0D01*
G01*
X129065000Y-94800000D01*
G75*
G02*
X128815000Y-94550000I0J250000D01*
G01*
X128815000Y-94050000D01*
G75*
G02*
X129065000Y-93800000I250000J0D01*
G01*
G37*
G04 #@! TD.AperFunction*
G04 #@! TA.AperFunction,SMDPad,CuDef*
G36*
G01*
X126525000Y-93800000D02*
X127475000Y-93800000D01*
G75*
G02*
X127725000Y-94050000I0J-250000D01*
G01*
X127725000Y-94550000D01*
G75*
G02*
X127475000Y-94800000I-250000J0D01*
G01*
X126525000Y-94800000D01*
G75*
G02*
X126275000Y-94550000I0J250000D01*
G01*
X126275000Y-94050000D01*
G75*
G02*
X126525000Y-93800000I250000J0D01*
G01*
G37*
G04 #@! TD.AperFunction*
G04 #@! TA.AperFunction,SMDPad,CuDef*
G36*
G01*
X126525000Y-95700000D02*
X127475000Y-95700000D01*
G75*
G02*
X127725000Y-95950000I0J-250000D01*
G01*
X127725000Y-96450000D01*
G75*
G02*
X127475000Y-96700000I-250000J0D01*
G01*
X126525000Y-96700000D01*
G75*
G02*
X126275000Y-96450000I0J250000D01*
G01*
X126275000Y-95950000D01*
G75*
G02*
X126525000Y-95700000I250000J0D01*
G01*
G37*
G04 #@! TD.AperFunction*
G04 #@! TA.AperFunction,SMDPad,CuDef*
G36*
G01*
X139225000Y-76650000D02*
X140175000Y-76650000D01*
G75*
G02*
X140425000Y-76900000I0J-250000D01*
G01*
X140425000Y-77400000D01*
G75*
G02*
X140175000Y-77650000I-250000J0D01*
G01*
X139225000Y-77650000D01*
G75*
G02*
X138975000Y-77400000I0J250000D01*
G01*
X138975000Y-76900000D01*
G75*
G02*
X139225000Y-76650000I250000J0D01*
G01*
G37*
G04 #@! TD.AperFunction*
G04 #@! TA.AperFunction,SMDPad,CuDef*
G36*
G01*
X139225000Y-74750000D02*
X140175000Y-74750000D01*
G75*
G02*
X140425000Y-75000000I0J-250000D01*
G01*
X140425000Y-75500000D01*
G75*
G02*
X140175000Y-75750000I-250000J0D01*
G01*
X139225000Y-75750000D01*
G75*
G02*
X138975000Y-75500000I0J250000D01*
G01*
X138975000Y-75000000D01*
G75*
G02*
X139225000Y-74750000I250000J0D01*
G01*
G37*
G04 #@! TD.AperFunction*
G04 #@! TA.AperFunction,SMDPad,CuDef*
G36*
G01*
X127795000Y-74750000D02*
X128745000Y-74750000D01*
G75*
G02*
X128995000Y-75000000I0J-250000D01*
G01*
X128995000Y-75500000D01*
G75*
G02*
X128745000Y-75750000I-250000J0D01*
G01*
X127795000Y-75750000D01*
G75*
G02*
X127545000Y-75500000I0J250000D01*
G01*
X127545000Y-75000000D01*
G75*
G02*
X127795000Y-74750000I250000J0D01*
G01*
G37*
G04 #@! TD.AperFunction*
G04 #@! TA.AperFunction,SMDPad,CuDef*
G36*
G01*
X127795000Y-76650000D02*
X128745000Y-76650000D01*
G75*
G02*
X128995000Y-76900000I0J-250000D01*
G01*
X128995000Y-77400000D01*
G75*
G02*
X128745000Y-77650000I-250000J0D01*
G01*
X127795000Y-77650000D01*
G75*
G02*
X127545000Y-77400000I0J250000D01*
G01*
X127545000Y-76900000D01*
G75*
G02*
X127795000Y-76650000I250000J0D01*
G01*
G37*
G04 #@! TD.AperFunction*
D10*
X107950000Y-86240000D03*
X107950000Y-83940000D03*
X111760000Y-83940000D03*
X111760000Y-86240000D03*
D11*
X98889000Y-83185000D03*
X98889000Y-84455000D03*
X98889000Y-85725000D03*
X98889000Y-86995000D03*
X104311000Y-86995000D03*
X104311000Y-85725000D03*
X104311000Y-84455000D03*
X104311000Y-83185000D03*
X115399000Y-83185000D03*
X115399000Y-84455000D03*
X115399000Y-85725000D03*
X115399000Y-86995000D03*
X120821000Y-86995000D03*
X120821000Y-85725000D03*
X120821000Y-84455000D03*
X120821000Y-83185000D03*
D12*
X119080000Y-96520000D03*
D13*
X116540000Y-96520000D03*
X119080000Y-93980000D03*
X116540000Y-93980000D03*
X119080000Y-91440000D03*
X116540000Y-91440000D03*
D14*
X144200000Y-87250000D03*
D15*
X139700000Y-84550000D03*
X134300000Y-89900000D03*
X139700000Y-95250000D03*
D14*
X144200000Y-93250000D03*
D10*
X136890000Y-79690000D03*
X136890000Y-77790000D03*
X134890000Y-78740000D03*
X131080000Y-77790000D03*
X131080000Y-79690000D03*
X133080000Y-78740000D03*
G04 #@! TA.AperFunction,SMDPad,CuDef*
G36*
G01*
X112160000Y-95700001D02*
X112160000Y-94799999D01*
G75*
G02*
X112409999Y-94550000I249999J0D01*
G01*
X112935001Y-94550000D01*
G75*
G02*
X113185000Y-94799999I0J-249999D01*
G01*
X113185000Y-95700001D01*
G75*
G02*
X112935001Y-95950000I-249999J0D01*
G01*
X112409999Y-95950000D01*
G75*
G02*
X112160000Y-95700001I0J249999D01*
G01*
G37*
G04 #@! TD.AperFunction*
G04 #@! TA.AperFunction,SMDPad,CuDef*
G36*
G01*
X110335000Y-95700001D02*
X110335000Y-94799999D01*
G75*
G02*
X110584999Y-94550000I249999J0D01*
G01*
X111110001Y-94550000D01*
G75*
G02*
X111360000Y-94799999I0J-249999D01*
G01*
X111360000Y-95700001D01*
G75*
G02*
X111110001Y-95950000I-249999J0D01*
G01*
X110584999Y-95950000D01*
G75*
G02*
X110335000Y-95700001I0J249999D01*
G01*
G37*
G04 #@! TD.AperFunction*
G04 #@! TA.AperFunction,SMDPad,CuDef*
G36*
G01*
X110335000Y-93160001D02*
X110335000Y-92259999D01*
G75*
G02*
X110584999Y-92010000I249999J0D01*
G01*
X111110001Y-92010000D01*
G75*
G02*
X111360000Y-92259999I0J-249999D01*
G01*
X111360000Y-93160001D01*
G75*
G02*
X111110001Y-93410000I-249999J0D01*
G01*
X110584999Y-93410000D01*
G75*
G02*
X110335000Y-93160001I0J249999D01*
G01*
G37*
G04 #@! TD.AperFunction*
G04 #@! TA.AperFunction,SMDPad,CuDef*
G36*
G01*
X112160000Y-93160001D02*
X112160000Y-92259999D01*
G75*
G02*
X112409999Y-92010000I249999J0D01*
G01*
X112935001Y-92010000D01*
G75*
G02*
X113185000Y-92259999I0J-249999D01*
G01*
X113185000Y-93160001D01*
G75*
G02*
X112935001Y-93410000I-249999J0D01*
G01*
X112409999Y-93410000D01*
G75*
G02*
X112160000Y-93160001I0J249999D01*
G01*
G37*
G04 #@! TD.AperFunction*
G04 #@! TA.AperFunction,SMDPad,CuDef*
G36*
G01*
X110335000Y-98240001D02*
X110335000Y-97339999D01*
G75*
G02*
X110584999Y-97090000I249999J0D01*
G01*
X111110001Y-97090000D01*
G75*
G02*
X111360000Y-97339999I0J-249999D01*
G01*
X111360000Y-98240001D01*
G75*
G02*
X111110001Y-98490000I-249999J0D01*
G01*
X110584999Y-98490000D01*
G75*
G02*
X110335000Y-98240001I0J249999D01*
G01*
G37*
G04 #@! TD.AperFunction*
G04 #@! TA.AperFunction,SMDPad,CuDef*
G36*
G01*
X112160000Y-98240001D02*
X112160000Y-97339999D01*
G75*
G02*
X112409999Y-97090000I249999J0D01*
G01*
X112935001Y-97090000D01*
G75*
G02*
X113185000Y-97339999I0J-249999D01*
G01*
X113185000Y-98240001D01*
G75*
G02*
X112935001Y-98490000I-249999J0D01*
G01*
X112409999Y-98490000D01*
G75*
G02*
X112160000Y-98240001I0J249999D01*
G01*
G37*
G04 #@! TD.AperFunction*
G04 #@! TA.AperFunction,SMDPad,CuDef*
G36*
G01*
X112160000Y-90620001D02*
X112160000Y-89719999D01*
G75*
G02*
X112409999Y-89470000I249999J0D01*
G01*
X112935001Y-89470000D01*
G75*
G02*
X113185000Y-89719999I0J-249999D01*
G01*
X113185000Y-90620001D01*
G75*
G02*
X112935001Y-90870000I-249999J0D01*
G01*
X112409999Y-90870000D01*
G75*
G02*
X112160000Y-90620001I0J249999D01*
G01*
G37*
G04 #@! TD.AperFunction*
G04 #@! TA.AperFunction,SMDPad,CuDef*
G36*
G01*
X110335000Y-90620001D02*
X110335000Y-89719999D01*
G75*
G02*
X110584999Y-89470000I249999J0D01*
G01*
X111110001Y-89470000D01*
G75*
G02*
X111360000Y-89719999I0J-249999D01*
G01*
X111360000Y-90620001D01*
G75*
G02*
X111110001Y-90870000I-249999J0D01*
G01*
X110584999Y-90870000D01*
G75*
G02*
X110335000Y-90620001I0J249999D01*
G01*
G37*
G04 #@! TD.AperFunction*
G04 #@! TA.AperFunction,SMDPad,CuDef*
G36*
G01*
X100485000Y-79559999D02*
X100485000Y-80460001D01*
G75*
G02*
X100235001Y-80710000I-249999J0D01*
G01*
X99709999Y-80710000D01*
G75*
G02*
X99460000Y-80460001I0J249999D01*
G01*
X99460000Y-79559999D01*
G75*
G02*
X99709999Y-79310000I249999J0D01*
G01*
X100235001Y-79310000D01*
G75*
G02*
X100485000Y-79559999I0J-249999D01*
G01*
G37*
G04 #@! TD.AperFunction*
G04 #@! TA.AperFunction,SMDPad,CuDef*
G36*
G01*
X98660000Y-79559999D02*
X98660000Y-80460001D01*
G75*
G02*
X98410001Y-80710000I-249999J0D01*
G01*
X97884999Y-80710000D01*
G75*
G02*
X97635000Y-80460001I0J249999D01*
G01*
X97635000Y-79559999D01*
G75*
G02*
X97884999Y-79310000I249999J0D01*
G01*
X98410001Y-79310000D01*
G75*
G02*
X98660000Y-79559999I0J-249999D01*
G01*
G37*
G04 #@! TD.AperFunction*
G04 #@! TA.AperFunction,SMDPad,CuDef*
G36*
G01*
X112875000Y-80460001D02*
X112875000Y-79559999D01*
G75*
G02*
X113124999Y-79310000I249999J0D01*
G01*
X113650001Y-79310000D01*
G75*
G02*
X113900000Y-79559999I0J-249999D01*
G01*
X113900000Y-80460001D01*
G75*
G02*
X113650001Y-80710000I-249999J0D01*
G01*
X113124999Y-80710000D01*
G75*
G02*
X112875000Y-80460001I0J249999D01*
G01*
G37*
G04 #@! TD.AperFunction*
G04 #@! TA.AperFunction,SMDPad,CuDef*
G36*
G01*
X114700000Y-80460001D02*
X114700000Y-79559999D01*
G75*
G02*
X114949999Y-79310000I249999J0D01*
G01*
X115475001Y-79310000D01*
G75*
G02*
X115725000Y-79559999I0J-249999D01*
G01*
X115725000Y-80460001D01*
G75*
G02*
X115475001Y-80710000I-249999J0D01*
G01*
X114949999Y-80710000D01*
G75*
G02*
X114700000Y-80460001I0J249999D01*
G01*
G37*
G04 #@! TD.AperFunction*
G04 #@! TA.AperFunction,SMDPad,CuDef*
G36*
G01*
X101445000Y-80460001D02*
X101445000Y-79559999D01*
G75*
G02*
X101694999Y-79310000I249999J0D01*
G01*
X102220001Y-79310000D01*
G75*
G02*
X102470000Y-79559999I0J-249999D01*
G01*
X102470000Y-80460001D01*
G75*
G02*
X102220001Y-80710000I-249999J0D01*
G01*
X101694999Y-80710000D01*
G75*
G02*
X101445000Y-80460001I0J249999D01*
G01*
G37*
G04 #@! TD.AperFunction*
G04 #@! TA.AperFunction,SMDPad,CuDef*
G36*
G01*
X103270000Y-80460001D02*
X103270000Y-79559999D01*
G75*
G02*
X103519999Y-79310000I249999J0D01*
G01*
X104045001Y-79310000D01*
G75*
G02*
X104295000Y-79559999I0J-249999D01*
G01*
X104295000Y-80460001D01*
G75*
G02*
X104045001Y-80710000I-249999J0D01*
G01*
X103519999Y-80710000D01*
G75*
G02*
X103270000Y-80460001I0J249999D01*
G01*
G37*
G04 #@! TD.AperFunction*
G04 #@! TA.AperFunction,SMDPad,CuDef*
G36*
G01*
X116685000Y-80460001D02*
X116685000Y-79559999D01*
G75*
G02*
X116934999Y-79310000I249999J0D01*
G01*
X117460001Y-79310000D01*
G75*
G02*
X117710000Y-79559999I0J-249999D01*
G01*
X117710000Y-80460001D01*
G75*
G02*
X117460001Y-80710000I-249999J0D01*
G01*
X116934999Y-80710000D01*
G75*
G02*
X116685000Y-80460001I0J249999D01*
G01*
G37*
G04 #@! TD.AperFunction*
G04 #@! TA.AperFunction,SMDPad,CuDef*
G36*
G01*
X118510000Y-80460001D02*
X118510000Y-79559999D01*
G75*
G02*
X118759999Y-79310000I249999J0D01*
G01*
X119285001Y-79310000D01*
G75*
G02*
X119535000Y-79559999I0J-249999D01*
G01*
X119535000Y-80460001D01*
G75*
G02*
X119285001Y-80710000I-249999J0D01*
G01*
X118759999Y-80710000D01*
G75*
G02*
X118510000Y-80460001I0J249999D01*
G01*
G37*
G04 #@! TD.AperFunction*
G04 #@! TA.AperFunction,SMDPad,CuDef*
G36*
G01*
X108105000Y-77019999D02*
X108105000Y-77920001D01*
G75*
G02*
X107855001Y-78170000I-249999J0D01*
G01*
X107329999Y-78170000D01*
G75*
G02*
X107080000Y-77920001I0J249999D01*
G01*
X107080000Y-77019999D01*
G75*
G02*
X107329999Y-76770000I249999J0D01*
G01*
X107855001Y-76770000D01*
G75*
G02*
X108105000Y-77019999I0J-249999D01*
G01*
G37*
G04 #@! TD.AperFunction*
G04 #@! TA.AperFunction,SMDPad,CuDef*
G36*
G01*
X106280000Y-77019999D02*
X106280000Y-77920001D01*
G75*
G02*
X106030001Y-78170000I-249999J0D01*
G01*
X105504999Y-78170000D01*
G75*
G02*
X105255000Y-77920001I0J249999D01*
G01*
X105255000Y-77019999D01*
G75*
G02*
X105504999Y-76770000I249999J0D01*
G01*
X106030001Y-76770000D01*
G75*
G02*
X106280000Y-77019999I0J-249999D01*
G01*
G37*
G04 #@! TD.AperFunction*
G04 #@! TA.AperFunction,SMDPad,CuDef*
G36*
G01*
X106280000Y-79559999D02*
X106280000Y-80460001D01*
G75*
G02*
X106030001Y-80710000I-249999J0D01*
G01*
X105504999Y-80710000D01*
G75*
G02*
X105255000Y-80460001I0J249999D01*
G01*
X105255000Y-79559999D01*
G75*
G02*
X105504999Y-79310000I249999J0D01*
G01*
X106030001Y-79310000D01*
G75*
G02*
X106280000Y-79559999I0J-249999D01*
G01*
G37*
G04 #@! TD.AperFunction*
G04 #@! TA.AperFunction,SMDPad,CuDef*
G36*
G01*
X108105000Y-79559999D02*
X108105000Y-80460001D01*
G75*
G02*
X107855001Y-80710000I-249999J0D01*
G01*
X107329999Y-80710000D01*
G75*
G02*
X107080000Y-80460001I0J249999D01*
G01*
X107080000Y-79559999D01*
G75*
G02*
X107329999Y-79310000I249999J0D01*
G01*
X107855001Y-79310000D01*
G75*
G02*
X108105000Y-79559999I0J-249999D01*
G01*
G37*
G04 #@! TD.AperFunction*
G04 #@! TA.AperFunction,SMDPad,CuDef*
G36*
G01*
X123345000Y-77019999D02*
X123345000Y-77920001D01*
G75*
G02*
X123095001Y-78170000I-249999J0D01*
G01*
X122569999Y-78170000D01*
G75*
G02*
X122320000Y-77920001I0J249999D01*
G01*
X122320000Y-77019999D01*
G75*
G02*
X122569999Y-76770000I249999J0D01*
G01*
X123095001Y-76770000D01*
G75*
G02*
X123345000Y-77019999I0J-249999D01*
G01*
G37*
G04 #@! TD.AperFunction*
G04 #@! TA.AperFunction,SMDPad,CuDef*
G36*
G01*
X121520000Y-77019999D02*
X121520000Y-77920001D01*
G75*
G02*
X121270001Y-78170000I-249999J0D01*
G01*
X120744999Y-78170000D01*
G75*
G02*
X120495000Y-77920001I0J249999D01*
G01*
X120495000Y-77019999D01*
G75*
G02*
X120744999Y-76770000I249999J0D01*
G01*
X121270001Y-76770000D01*
G75*
G02*
X121520000Y-77019999I0J-249999D01*
G01*
G37*
G04 #@! TD.AperFunction*
G04 #@! TA.AperFunction,SMDPad,CuDef*
G36*
G01*
X121520000Y-79559999D02*
X121520000Y-80460001D01*
G75*
G02*
X121270001Y-80710000I-249999J0D01*
G01*
X120744999Y-80710000D01*
G75*
G02*
X120495000Y-80460001I0J249999D01*
G01*
X120495000Y-79559999D01*
G75*
G02*
X120744999Y-79310000I249999J0D01*
G01*
X121270001Y-79310000D01*
G75*
G02*
X121520000Y-79559999I0J-249999D01*
G01*
G37*
G04 #@! TD.AperFunction*
G04 #@! TA.AperFunction,SMDPad,CuDef*
G36*
G01*
X123345000Y-79559999D02*
X123345000Y-80460001D01*
G75*
G02*
X123095001Y-80710000I-249999J0D01*
G01*
X122569999Y-80710000D01*
G75*
G02*
X122320000Y-80460001I0J249999D01*
G01*
X122320000Y-79559999D01*
G75*
G02*
X122569999Y-79310000I249999J0D01*
G01*
X123095001Y-79310000D01*
G75*
G02*
X123345000Y-79559999I0J-249999D01*
G01*
G37*
G04 #@! TD.AperFunction*
G04 #@! TA.AperFunction,SMDPad,CuDef*
G36*
G01*
X139249999Y-80410000D02*
X140150001Y-80410000D01*
G75*
G02*
X140400000Y-80659999I0J-249999D01*
G01*
X140400000Y-81185001D01*
G75*
G02*
X140150001Y-81435000I-249999J0D01*
G01*
X139249999Y-81435000D01*
G75*
G02*
X139000000Y-81185001I0J249999D01*
G01*
X139000000Y-80659999D01*
G75*
G02*
X139249999Y-80410000I249999J0D01*
G01*
G37*
G04 #@! TD.AperFunction*
G04 #@! TA.AperFunction,SMDPad,CuDef*
G36*
G01*
X139249999Y-78585000D02*
X140150001Y-78585000D01*
G75*
G02*
X140400000Y-78834999I0J-249999D01*
G01*
X140400000Y-79360001D01*
G75*
G02*
X140150001Y-79610000I-249999J0D01*
G01*
X139249999Y-79610000D01*
G75*
G02*
X139000000Y-79360001I0J249999D01*
G01*
X139000000Y-78834999D01*
G75*
G02*
X139249999Y-78585000I249999J0D01*
G01*
G37*
G04 #@! TD.AperFunction*
G04 #@! TA.AperFunction,SMDPad,CuDef*
G36*
G01*
X127819999Y-80410000D02*
X128720001Y-80410000D01*
G75*
G02*
X128970000Y-80659999I0J-249999D01*
G01*
X128970000Y-81185001D01*
G75*
G02*
X128720001Y-81435000I-249999J0D01*
G01*
X127819999Y-81435000D01*
G75*
G02*
X127570000Y-81185001I0J249999D01*
G01*
X127570000Y-80659999D01*
G75*
G02*
X127819999Y-80410000I249999J0D01*
G01*
G37*
G04 #@! TD.AperFunction*
G04 #@! TA.AperFunction,SMDPad,CuDef*
G36*
G01*
X127819999Y-78585000D02*
X128720001Y-78585000D01*
G75*
G02*
X128970000Y-78834999I0J-249999D01*
G01*
X128970000Y-79360001D01*
G75*
G02*
X128720001Y-79610000I-249999J0D01*
G01*
X127819999Y-79610000D01*
G75*
G02*
X127570000Y-79360001I0J249999D01*
G01*
X127570000Y-78834999D01*
G75*
G02*
X127819999Y-78585000I249999J0D01*
G01*
G37*
G04 #@! TD.AperFunction*
D16*
X130150000Y-88900000D03*
D17*
X123850000Y-88900000D03*
X123850000Y-91200000D03*
X123850000Y-86600000D03*
D18*
X99205001Y-96530001D03*
X99205001Y-93990001D03*
X99205001Y-91450001D03*
X105575001Y-91450001D03*
X105575001Y-93990001D03*
X105575001Y-96530001D03*
D19*
X111760000Y-76200000D03*
D20*
X113410000Y-76200000D03*
X112926726Y-77366726D03*
X111760000Y-77850000D03*
X110593274Y-77366726D03*
X110110000Y-76200000D03*
X110593274Y-75033274D03*
X111760000Y-74550000D03*
X112926726Y-75033274D03*
X144676726Y-75033274D03*
X143510000Y-74550000D03*
X142343274Y-75033274D03*
X141860000Y-76200000D03*
X142343274Y-77366726D03*
X143510000Y-77850000D03*
X144676726Y-77366726D03*
X145160000Y-76200000D03*
D19*
X143510000Y-76200000D03*
X143510000Y-101600000D03*
D20*
X145160000Y-101600000D03*
X144676726Y-102766726D03*
X143510000Y-103250000D03*
X142343274Y-102766726D03*
X141860000Y-101600000D03*
X142343274Y-100433274D03*
X143510000Y-99950000D03*
X144676726Y-100433274D03*
X112926726Y-100433274D03*
X111760000Y-99950000D03*
X110593274Y-100433274D03*
X110110000Y-101600000D03*
X110593274Y-102766726D03*
X111760000Y-103250000D03*
X112926726Y-102766726D03*
X113410000Y-101600000D03*
D19*
X111760000Y-101600000D03*
D21*
X121920000Y-93010000D03*
X127950000Y-90490000D03*
X113358405Y-87958405D03*
X100508750Y-77648750D03*
X120650000Y-74930000D03*
X119148000Y-81512000D03*
X104311000Y-81309000D03*
X129440000Y-82820000D03*
X132080000Y-82550000D03*
X125730000Y-85090000D03*
X116840000Y-88900000D03*
X110847500Y-88542500D03*
X101704000Y-81384000D03*
X115748750Y-81458750D03*
X114300000Y-90170000D03*
X138160000Y-80010000D03*
D22*
X110847500Y-95250000D02*
X110847500Y-92710000D01*
X110847500Y-92710000D02*
X111685010Y-91872490D01*
X97875000Y-86995000D02*
X97611171Y-86731171D01*
X107592500Y-80010000D02*
X107592500Y-80367500D01*
X107950000Y-80367500D02*
X107592500Y-80010000D01*
X107950000Y-83940000D02*
X107950000Y-80367500D01*
X102970010Y-76419990D02*
X101920000Y-77470000D01*
X108068180Y-76419990D02*
X102970010Y-76419990D01*
X108430010Y-76781820D02*
X108068180Y-76419990D01*
X107592500Y-80010000D02*
X108430010Y-79172490D01*
X97349989Y-86469989D02*
X97875000Y-86995000D01*
X100687500Y-77470000D02*
X101920000Y-77470000D01*
X111760000Y-81637500D02*
X113387500Y-80010000D01*
X111760000Y-83940000D02*
X111760000Y-81637500D01*
X111760000Y-84370000D02*
X111760000Y-83940000D01*
X115927500Y-77470000D02*
X117160000Y-77470000D01*
X113387500Y-80010000D02*
X115927500Y-77470000D01*
X123670010Y-79172490D02*
X122832500Y-80010000D01*
X123670010Y-76781820D02*
X123670010Y-79172490D01*
X123308180Y-76419990D02*
X123670010Y-76781820D01*
X117160000Y-77470000D02*
X118210010Y-76419990D01*
X118210010Y-76419990D02*
X123308180Y-76419990D01*
X99972500Y-78185000D02*
X100508750Y-77648750D01*
X99972500Y-80010000D02*
X99972500Y-78185000D01*
X97875000Y-86995000D02*
X98889000Y-86995000D01*
X97309990Y-86429990D02*
X97875000Y-86995000D01*
X97309990Y-79321820D02*
X97309990Y-86429990D01*
X98446810Y-78185000D02*
X97309990Y-79321820D01*
X99972500Y-78185000D02*
X98446810Y-78185000D01*
X139342500Y-81280000D02*
X139700000Y-80922500D01*
X111685010Y-89631800D02*
X113358405Y-87958405D01*
X111685010Y-91872490D02*
X111685010Y-89631800D01*
D23*
X126680000Y-96520000D02*
X127000000Y-96200000D01*
X127000000Y-96200000D02*
X129540000Y-96200000D01*
X126360000Y-96200000D02*
X124460000Y-94300000D01*
X127000000Y-96200000D02*
X126360000Y-96200000D01*
X124460000Y-94300000D02*
X121920000Y-94300000D01*
X124110002Y-86600000D02*
X123850000Y-86600000D01*
X130715010Y-93205008D02*
X124110002Y-86600000D01*
X130715010Y-95024990D02*
X130715010Y-93205008D01*
X129540000Y-96200000D02*
X130715010Y-95024990D01*
X123850000Y-85342500D02*
X128270000Y-80922500D01*
X123850000Y-86600000D02*
X123850000Y-85342500D01*
D22*
X129847500Y-80922500D02*
X131080000Y-79690000D01*
X128270000Y-80922500D02*
X129847500Y-80922500D01*
X139700000Y-80922500D02*
X139700000Y-81280000D01*
D23*
X121920000Y-94300000D02*
X121920000Y-92710000D01*
D22*
X132312500Y-80922500D02*
X131080000Y-79690000D01*
X139700000Y-80922500D02*
X132312500Y-80922500D01*
X100508750Y-77648750D02*
X100687500Y-77470000D01*
D23*
X114435595Y-87958405D02*
X115399000Y-86995000D01*
X113358405Y-87958405D02*
X114435595Y-87958405D01*
X111760000Y-84620000D02*
X111760000Y-83940000D01*
X114135000Y-86995000D02*
X111760000Y-84620000D01*
X115399000Y-86995000D02*
X114135000Y-86995000D01*
X111760000Y-83940000D02*
X107950000Y-83940000D01*
D22*
X111760000Y-96162500D02*
X110847500Y-95250000D01*
X111760000Y-101600000D02*
X111760000Y-96162500D01*
X108430010Y-79172490D02*
X108430010Y-76781820D01*
X111760000Y-78382500D02*
X113387500Y-80010000D01*
X111760000Y-76200000D02*
X111760000Y-78382500D01*
X121130010Y-83494010D02*
X120821000Y-83185000D01*
X120416998Y-83185000D02*
X120821000Y-83185000D01*
X105767500Y-77470000D02*
X105767500Y-78185000D01*
X104311000Y-80538500D02*
X103782500Y-80010000D01*
X104311000Y-83185000D02*
X104311000Y-81109000D01*
X103782500Y-77507500D02*
X103820000Y-77470000D01*
X103820000Y-77470000D02*
X105767500Y-77470000D01*
X103782500Y-80010000D02*
X103782500Y-77507500D01*
X121007500Y-77470000D02*
X119060000Y-77470000D01*
X119060000Y-79972500D02*
X119022500Y-80010000D01*
X119060000Y-77470000D02*
X119060000Y-79972500D01*
X119022500Y-81386500D02*
X119148000Y-81512000D01*
X119022500Y-80010000D02*
X119022500Y-81386500D01*
D23*
X124245020Y-76543644D02*
X122631376Y-74930000D01*
X124245020Y-79167022D02*
X124245020Y-76543644D01*
X122631376Y-74930000D02*
X120650000Y-74930000D01*
D22*
X119148000Y-81512000D02*
X120821000Y-83185000D01*
X104311000Y-81109000D02*
X104311000Y-80538500D01*
X133565002Y-77790000D02*
X136890000Y-77790000D01*
X131025002Y-75250000D02*
X133565002Y-77790000D01*
X128270000Y-75250000D02*
X131025002Y-75250000D01*
X137160000Y-77790000D02*
X139700000Y-75250000D01*
X136890000Y-77790000D02*
X137160000Y-77790000D01*
D23*
X129540000Y-94300000D02*
X127000000Y-94300000D01*
X124110002Y-88900000D02*
X123850000Y-88900000D01*
X127000000Y-91789998D02*
X124110002Y-88900000D01*
X127000000Y-94300000D02*
X127000000Y-91789998D01*
X122399999Y-85363189D02*
X124245020Y-83518168D01*
X122399999Y-87710001D02*
X122399999Y-85363189D01*
X123589998Y-88900000D02*
X122399999Y-87710001D01*
X124245020Y-83518168D02*
X124245020Y-76543644D01*
X123850000Y-88900000D02*
X123589998Y-88900000D01*
X126976356Y-76543644D02*
X128270000Y-75250000D01*
X124245020Y-76543644D02*
X126976356Y-76543644D01*
X121600000Y-96520000D02*
X121920000Y-96200000D01*
X119080000Y-96520000D02*
X121600000Y-96520000D01*
X121920000Y-96200000D02*
X124460000Y-96200000D01*
X123305034Y-91200000D02*
X123850000Y-91200000D01*
X120744990Y-95024990D02*
X121920000Y-96200000D01*
X120744990Y-92805010D02*
X120744990Y-95024990D01*
X122350000Y-91200000D02*
X120744990Y-92805010D01*
X123850000Y-91200000D02*
X122350000Y-91200000D01*
X145700001Y-88750001D02*
X144200000Y-87250000D01*
X145700001Y-93970001D02*
X145700001Y-88750001D01*
X142270001Y-97400001D02*
X145700001Y-93970001D01*
X125660001Y-97400001D02*
X142270001Y-97400001D01*
X124460000Y-96200000D02*
X125660001Y-97400001D01*
D22*
X129440000Y-82820000D02*
X131810000Y-82820000D01*
X131810000Y-82820000D02*
X132080000Y-82550000D01*
X132080000Y-82550000D02*
X132080000Y-82550000D01*
X139700000Y-79097500D02*
X139700000Y-77150000D01*
X133080000Y-78740000D02*
X134890000Y-78740000D01*
X137732502Y-79097500D02*
X139700000Y-79097500D01*
X137375002Y-78740000D02*
X137732502Y-79097500D01*
X134890000Y-78740000D02*
X137375002Y-78740000D01*
X140323191Y-81824999D02*
X128995001Y-81824999D01*
X140725010Y-81423180D02*
X140323191Y-81824999D01*
X140725010Y-80122510D02*
X140725010Y-81423180D01*
X139700000Y-79097500D02*
X140725010Y-80122510D01*
X128995001Y-81824999D02*
X125730000Y-85090000D01*
X125730000Y-85090000D02*
X125730000Y-85090000D01*
X130440000Y-77150000D02*
X131080000Y-77790000D01*
X128270000Y-77150000D02*
X130440000Y-77150000D01*
X128270000Y-79097500D02*
X128270000Y-77150000D01*
X108739990Y-87029990D02*
X107950000Y-86240000D01*
X107195000Y-86995000D02*
X104311000Y-86995000D01*
X107950000Y-86240000D02*
X107195000Y-86995000D01*
X99293002Y-84455000D02*
X98889000Y-84455000D01*
X101833002Y-86995000D02*
X99293002Y-84455000D01*
X104311000Y-86995000D02*
X101833002Y-86995000D01*
X110847500Y-96775690D02*
X110847500Y-97790000D01*
X108739990Y-94668180D02*
X110847500Y-96775690D01*
X108739990Y-87029990D02*
X108739990Y-94668180D01*
X110847500Y-87152500D02*
X111760000Y-86240000D01*
X110847500Y-90170000D02*
X110847500Y-88542500D01*
X115803002Y-84455000D02*
X115399000Y-84455000D01*
X118343002Y-86995000D02*
X115803002Y-84455000D01*
X120821000Y-86995000D02*
X118343002Y-86995000D01*
X118343002Y-87396998D02*
X116840000Y-88900000D01*
X118343002Y-86995000D02*
X118343002Y-87396998D01*
X110847500Y-88542500D02*
X110847500Y-87152500D01*
X99293002Y-83185000D02*
X98889000Y-83185000D01*
X103906998Y-84455000D02*
X104311000Y-84455000D01*
X101173000Y-84455000D02*
X104311000Y-84455000D01*
X99903000Y-83185000D02*
X101173000Y-84455000D01*
X98889000Y-83185000D02*
X99903000Y-83185000D01*
X101957500Y-81130500D02*
X101704000Y-81384000D01*
X101957500Y-80010000D02*
X101957500Y-81130500D01*
X101704000Y-81384000D02*
X99903000Y-83185000D01*
X115399000Y-81808500D02*
X115748750Y-81458750D01*
X115399000Y-83185000D02*
X115399000Y-81808500D01*
X115748750Y-81458750D02*
X117197500Y-80010000D01*
X115803002Y-83185000D02*
X115399000Y-83185000D01*
X117073002Y-84455000D02*
X115803002Y-83185000D01*
X120821000Y-84455000D02*
X117073002Y-84455000D01*
X98147500Y-80010000D02*
X98147500Y-79295000D01*
X97799999Y-80357501D02*
X98147500Y-80010000D01*
X97799999Y-85040001D02*
X97799999Y-80357501D01*
X98484998Y-85725000D02*
X97799999Y-85040001D01*
X98889000Y-85725000D02*
X98484998Y-85725000D01*
X99293002Y-85725000D02*
X98889000Y-85725000D01*
X100250002Y-86682000D02*
X99293002Y-85725000D01*
X100250002Y-95635000D02*
X100250002Y-86682000D01*
X99205001Y-96680001D02*
X100250002Y-95635000D01*
X104750000Y-85725000D02*
X104311000Y-85725000D01*
X107592500Y-78185000D02*
X105767500Y-80010000D01*
X107592500Y-77470000D02*
X107592500Y-78185000D01*
X105325000Y-85725000D02*
X104311000Y-85725000D01*
X105767500Y-85282500D02*
X105325000Y-85725000D01*
X105767500Y-80010000D02*
X105767500Y-85282500D01*
X115399000Y-85725000D02*
X114935000Y-85725000D01*
X114309999Y-80912501D02*
X115212500Y-80010000D01*
X114309999Y-85099999D02*
X114309999Y-80912501D01*
X114935000Y-85725000D02*
X114309999Y-85099999D01*
X115399000Y-85725000D02*
X116205000Y-85725000D01*
X116488001Y-87981999D02*
X114300000Y-90170000D01*
X116488001Y-86008001D02*
X116488001Y-87981999D01*
X116205000Y-85725000D02*
X116488001Y-86008001D01*
X122832500Y-78185000D02*
X121007500Y-80010000D01*
X122832500Y-77470000D02*
X122832500Y-78185000D01*
X121225002Y-85725000D02*
X120821000Y-85725000D01*
X121910001Y-85040001D02*
X121225002Y-85725000D01*
X121910001Y-80912501D02*
X121910001Y-85040001D01*
X121007500Y-80010000D02*
X121910001Y-80912501D01*
X117715001Y-92804999D02*
X119080000Y-91440000D01*
X117715001Y-97395001D02*
X117715001Y-92804999D01*
X119135010Y-98815010D02*
X117715001Y-97395001D01*
X141668178Y-98815010D02*
X119135010Y-98815010D01*
X143535002Y-84550000D02*
X146275011Y-87290009D01*
X146275011Y-94208177D02*
X141668178Y-98815010D01*
X146275011Y-87290009D02*
X146275011Y-94208177D01*
X139700000Y-84550000D02*
X143535002Y-84550000D01*
X137840000Y-79690000D02*
X138160000Y-80010000D01*
X136890000Y-79690000D02*
X137840000Y-79690000D01*
X113030000Y-95250000D02*
X112672500Y-95250000D01*
X112672500Y-97790000D02*
X112672500Y-95250000D01*
X115570000Y-95250000D02*
X116840000Y-96520000D01*
X112672500Y-95250000D02*
X115570000Y-95250000D01*
X112672500Y-90170000D02*
X112672500Y-92710000D01*
X113942500Y-93980000D02*
X112672500Y-92710000D01*
X116840000Y-93980000D02*
X113942500Y-93980000D01*
M02*
