M48
; DRILL file {KiCad (5.1.12)-1} date 06/04/22 11:27:27
; FORMAT={-:-/ absolute / metric / decimal}
; #@! TF.CreationDate,2022-06-04T11:27:27+02:00
; #@! TF.GenerationSoftware,Kicad,Pcbnew,(5.1.12)-1
; #@! TF.FileFunction,Plated,1,2,PTH
FMAT,2
METRIC
T1C0.400
T2C0.800
T3C1.000
T4C1.400
T5C2.200
T6C2.330
%
G90
G05
T1
X100.509Y-77.649
X101.704Y-81.384
X104.311Y-81.309
X110.11Y-76.2
X110.11Y-101.6
X110.593Y-75.033
X110.593Y-77.367
X110.593Y-100.433
X110.593Y-102.767
X110.847Y-88.542
X111.76Y-74.55
X111.76Y-77.85
X111.76Y-99.95
X111.76Y-103.25
X112.927Y-75.033
X112.927Y-77.367
X112.927Y-100.433
X112.927Y-102.767
X113.358Y-87.958
X113.41Y-76.2
X113.41Y-101.6
X114.3Y-90.17
X115.749Y-81.459
X116.84Y-88.9
X119.148Y-81.512
X120.65Y-74.93
X121.92Y-93.01
X125.73Y-85.09
X127.95Y-90.49
X129.44Y-82.82
X132.08Y-82.55
X138.16Y-80.01
X141.86Y-76.2
X141.86Y-101.6
X142.343Y-75.033
X142.343Y-77.367
X142.343Y-100.433
X142.343Y-102.767
X143.51Y-74.55
X143.51Y-77.85
X143.51Y-99.95
X143.51Y-103.25
X144.677Y-75.033
X144.677Y-77.367
X144.677Y-100.433
X144.677Y-102.767
X145.16Y-76.2
X145.16Y-101.6
T2
X99.205Y-91.45
X99.205Y-93.99
X99.205Y-96.53
X105.575Y-91.45
X105.575Y-93.99
X105.575Y-96.53
T3
X116.54Y-91.44
X116.54Y-93.98
X116.54Y-96.52
X119.08Y-91.44
X119.08Y-93.98
X119.08Y-96.52
T4
X144.2Y-87.25
X144.2Y-93.25
T5
X111.76Y-76.2
X111.76Y-101.6
X143.51Y-76.2
X143.51Y-101.6
T6
X134.3Y-89.9
X139.7Y-84.55
X139.7Y-95.25
T0
M30
