G04 #@! TF.GenerationSoftware,KiCad,Pcbnew,(5.1.12)-1*
G04 #@! TF.CreationDate,2022-06-04T11:26:48+02:00*
G04 #@! TF.ProjectId,BSPD,42535044-2e6b-4696-9361-645f70636258,rev?*
G04 #@! TF.SameCoordinates,Original*
G04 #@! TF.FileFunction,Soldermask,Top*
G04 #@! TF.FilePolarity,Negative*
%FSLAX46Y46*%
G04 Gerber Fmt 4.6, Leading zero omitted, Abs format (unit mm)*
G04 Created by KiCad (PCBNEW (5.1.12)-1) date 2022-06-04 11:26:48*
%MOMM*%
%LPD*%
G01*
G04 APERTURE LIST*
%ADD10R,0.900000X0.800000*%
%ADD11R,1.528000X0.650000*%
%ADD12R,1.700000X1.700000*%
%ADD13O,1.700000X1.700000*%
%ADD14C,2.100000*%
%ADD15C,3.400000*%
%ADD16R,2.000000X3.800000*%
%ADD17R,2.000000X1.500000*%
%ADD18C,1.440000*%
%ADD19C,4.400000*%
%ADD20C,0.700000*%
G04 APERTURE END LIST*
G36*
G01*
X102420000Y-76995000D02*
X102420000Y-77945000D01*
G75*
G02*
X102170000Y-78195000I-250000J0D01*
G01*
X101670000Y-78195000D01*
G75*
G02*
X101420000Y-77945000I0J250000D01*
G01*
X101420000Y-76995000D01*
G75*
G02*
X101670000Y-76745000I250000J0D01*
G01*
X102170000Y-76745000D01*
G75*
G02*
X102420000Y-76995000I0J-250000D01*
G01*
G37*
G36*
G01*
X104320000Y-76995000D02*
X104320000Y-77945000D01*
G75*
G02*
X104070000Y-78195000I-250000J0D01*
G01*
X103570000Y-78195000D01*
G75*
G02*
X103320000Y-77945000I0J250000D01*
G01*
X103320000Y-76995000D01*
G75*
G02*
X103570000Y-76745000I250000J0D01*
G01*
X104070000Y-76745000D01*
G75*
G02*
X104320000Y-76995000I0J-250000D01*
G01*
G37*
G36*
G01*
X117660000Y-76995000D02*
X117660000Y-77945000D01*
G75*
G02*
X117410000Y-78195000I-250000J0D01*
G01*
X116910000Y-78195000D01*
G75*
G02*
X116660000Y-77945000I0J250000D01*
G01*
X116660000Y-76995000D01*
G75*
G02*
X116910000Y-76745000I250000J0D01*
G01*
X117410000Y-76745000D01*
G75*
G02*
X117660000Y-76995000I0J-250000D01*
G01*
G37*
G36*
G01*
X119560000Y-76995000D02*
X119560000Y-77945000D01*
G75*
G02*
X119310000Y-78195000I-250000J0D01*
G01*
X118810000Y-78195000D01*
G75*
G02*
X118560000Y-77945000I0J250000D01*
G01*
X118560000Y-76995000D01*
G75*
G02*
X118810000Y-76745000I250000J0D01*
G01*
X119310000Y-76745000D01*
G75*
G02*
X119560000Y-76995000I0J-250000D01*
G01*
G37*
G36*
G01*
X122395000Y-94800000D02*
X121445000Y-94800000D01*
G75*
G02*
X121195000Y-94550000I0J250000D01*
G01*
X121195000Y-94050000D01*
G75*
G02*
X121445000Y-93800000I250000J0D01*
G01*
X122395000Y-93800000D01*
G75*
G02*
X122645000Y-94050000I0J-250000D01*
G01*
X122645000Y-94550000D01*
G75*
G02*
X122395000Y-94800000I-250000J0D01*
G01*
G37*
G36*
G01*
X122395000Y-96700000D02*
X121445000Y-96700000D01*
G75*
G02*
X121195000Y-96450000I0J250000D01*
G01*
X121195000Y-95950000D01*
G75*
G02*
X121445000Y-95700000I250000J0D01*
G01*
X122395000Y-95700000D01*
G75*
G02*
X122645000Y-95950000I0J-250000D01*
G01*
X122645000Y-96450000D01*
G75*
G02*
X122395000Y-96700000I-250000J0D01*
G01*
G37*
G36*
G01*
X124935000Y-96700000D02*
X123985000Y-96700000D01*
G75*
G02*
X123735000Y-96450000I0J250000D01*
G01*
X123735000Y-95950000D01*
G75*
G02*
X123985000Y-95700000I250000J0D01*
G01*
X124935000Y-95700000D01*
G75*
G02*
X125185000Y-95950000I0J-250000D01*
G01*
X125185000Y-96450000D01*
G75*
G02*
X124935000Y-96700000I-250000J0D01*
G01*
G37*
G36*
G01*
X124935000Y-94800000D02*
X123985000Y-94800000D01*
G75*
G02*
X123735000Y-94550000I0J250000D01*
G01*
X123735000Y-94050000D01*
G75*
G02*
X123985000Y-93800000I250000J0D01*
G01*
X124935000Y-93800000D01*
G75*
G02*
X125185000Y-94050000I0J-250000D01*
G01*
X125185000Y-94550000D01*
G75*
G02*
X124935000Y-94800000I-250000J0D01*
G01*
G37*
G36*
G01*
X129065000Y-95700000D02*
X130015000Y-95700000D01*
G75*
G02*
X130265000Y-95950000I0J-250000D01*
G01*
X130265000Y-96450000D01*
G75*
G02*
X130015000Y-96700000I-250000J0D01*
G01*
X129065000Y-96700000D01*
G75*
G02*
X128815000Y-96450000I0J250000D01*
G01*
X128815000Y-95950000D01*
G75*
G02*
X129065000Y-95700000I250000J0D01*
G01*
G37*
G36*
G01*
X129065000Y-93800000D02*
X130015000Y-93800000D01*
G75*
G02*
X130265000Y-94050000I0J-250000D01*
G01*
X130265000Y-94550000D01*
G75*
G02*
X130015000Y-94800000I-250000J0D01*
G01*
X129065000Y-94800000D01*
G75*
G02*
X128815000Y-94550000I0J250000D01*
G01*
X128815000Y-94050000D01*
G75*
G02*
X129065000Y-93800000I250000J0D01*
G01*
G37*
G36*
G01*
X126525000Y-93800000D02*
X127475000Y-93800000D01*
G75*
G02*
X127725000Y-94050000I0J-250000D01*
G01*
X127725000Y-94550000D01*
G75*
G02*
X127475000Y-94800000I-250000J0D01*
G01*
X126525000Y-94800000D01*
G75*
G02*
X126275000Y-94550000I0J250000D01*
G01*
X126275000Y-94050000D01*
G75*
G02*
X126525000Y-93800000I250000J0D01*
G01*
G37*
G36*
G01*
X126525000Y-95700000D02*
X127475000Y-95700000D01*
G75*
G02*
X127725000Y-95950000I0J-250000D01*
G01*
X127725000Y-96450000D01*
G75*
G02*
X127475000Y-96700000I-250000J0D01*
G01*
X126525000Y-96700000D01*
G75*
G02*
X126275000Y-96450000I0J250000D01*
G01*
X126275000Y-95950000D01*
G75*
G02*
X126525000Y-95700000I250000J0D01*
G01*
G37*
G36*
G01*
X139225000Y-76650000D02*
X140175000Y-76650000D01*
G75*
G02*
X140425000Y-76900000I0J-250000D01*
G01*
X140425000Y-77400000D01*
G75*
G02*
X140175000Y-77650000I-250000J0D01*
G01*
X139225000Y-77650000D01*
G75*
G02*
X138975000Y-77400000I0J250000D01*
G01*
X138975000Y-76900000D01*
G75*
G02*
X139225000Y-76650000I250000J0D01*
G01*
G37*
G36*
G01*
X139225000Y-74750000D02*
X140175000Y-74750000D01*
G75*
G02*
X140425000Y-75000000I0J-250000D01*
G01*
X140425000Y-75500000D01*
G75*
G02*
X140175000Y-75750000I-250000J0D01*
G01*
X139225000Y-75750000D01*
G75*
G02*
X138975000Y-75500000I0J250000D01*
G01*
X138975000Y-75000000D01*
G75*
G02*
X139225000Y-74750000I250000J0D01*
G01*
G37*
G36*
G01*
X127795000Y-74750000D02*
X128745000Y-74750000D01*
G75*
G02*
X128995000Y-75000000I0J-250000D01*
G01*
X128995000Y-75500000D01*
G75*
G02*
X128745000Y-75750000I-250000J0D01*
G01*
X127795000Y-75750000D01*
G75*
G02*
X127545000Y-75500000I0J250000D01*
G01*
X127545000Y-75000000D01*
G75*
G02*
X127795000Y-74750000I250000J0D01*
G01*
G37*
G36*
G01*
X127795000Y-76650000D02*
X128745000Y-76650000D01*
G75*
G02*
X128995000Y-76900000I0J-250000D01*
G01*
X128995000Y-77400000D01*
G75*
G02*
X128745000Y-77650000I-250000J0D01*
G01*
X127795000Y-77650000D01*
G75*
G02*
X127545000Y-77400000I0J250000D01*
G01*
X127545000Y-76900000D01*
G75*
G02*
X127795000Y-76650000I250000J0D01*
G01*
G37*
D10*
X107950000Y-86240000D03*
X107950000Y-83940000D03*
X111760000Y-83940000D03*
X111760000Y-86240000D03*
D11*
X98889000Y-83185000D03*
X98889000Y-84455000D03*
X98889000Y-85725000D03*
X98889000Y-86995000D03*
X104311000Y-86995000D03*
X104311000Y-85725000D03*
X104311000Y-84455000D03*
X104311000Y-83185000D03*
X115399000Y-83185000D03*
X115399000Y-84455000D03*
X115399000Y-85725000D03*
X115399000Y-86995000D03*
X120821000Y-86995000D03*
X120821000Y-85725000D03*
X120821000Y-84455000D03*
X120821000Y-83185000D03*
D12*
X119080000Y-96520000D03*
D13*
X116540000Y-96520000D03*
X119080000Y-93980000D03*
X116540000Y-93980000D03*
X119080000Y-91440000D03*
X116540000Y-91440000D03*
D14*
X144200000Y-87250000D03*
D15*
X139700000Y-84550000D03*
X134300000Y-89900000D03*
X139700000Y-95250000D03*
D14*
X144200000Y-93250000D03*
D10*
X136890000Y-79690000D03*
X136890000Y-77790000D03*
X134890000Y-78740000D03*
X131080000Y-77790000D03*
X131080000Y-79690000D03*
X133080000Y-78740000D03*
G36*
G01*
X112160000Y-95700001D02*
X112160000Y-94799999D01*
G75*
G02*
X112409999Y-94550000I249999J0D01*
G01*
X112935001Y-94550000D01*
G75*
G02*
X113185000Y-94799999I0J-249999D01*
G01*
X113185000Y-95700001D01*
G75*
G02*
X112935001Y-95950000I-249999J0D01*
G01*
X112409999Y-95950000D01*
G75*
G02*
X112160000Y-95700001I0J249999D01*
G01*
G37*
G36*
G01*
X110335000Y-95700001D02*
X110335000Y-94799999D01*
G75*
G02*
X110584999Y-94550000I249999J0D01*
G01*
X111110001Y-94550000D01*
G75*
G02*
X111360000Y-94799999I0J-249999D01*
G01*
X111360000Y-95700001D01*
G75*
G02*
X111110001Y-95950000I-249999J0D01*
G01*
X110584999Y-95950000D01*
G75*
G02*
X110335000Y-95700001I0J249999D01*
G01*
G37*
G36*
G01*
X110335000Y-93160001D02*
X110335000Y-92259999D01*
G75*
G02*
X110584999Y-92010000I249999J0D01*
G01*
X111110001Y-92010000D01*
G75*
G02*
X111360000Y-92259999I0J-249999D01*
G01*
X111360000Y-93160001D01*
G75*
G02*
X111110001Y-93410000I-249999J0D01*
G01*
X110584999Y-93410000D01*
G75*
G02*
X110335000Y-93160001I0J249999D01*
G01*
G37*
G36*
G01*
X112160000Y-93160001D02*
X112160000Y-92259999D01*
G75*
G02*
X112409999Y-92010000I249999J0D01*
G01*
X112935001Y-92010000D01*
G75*
G02*
X113185000Y-92259999I0J-249999D01*
G01*
X113185000Y-93160001D01*
G75*
G02*
X112935001Y-93410000I-249999J0D01*
G01*
X112409999Y-93410000D01*
G75*
G02*
X112160000Y-93160001I0J249999D01*
G01*
G37*
G36*
G01*
X110335000Y-98240001D02*
X110335000Y-97339999D01*
G75*
G02*
X110584999Y-97090000I249999J0D01*
G01*
X111110001Y-97090000D01*
G75*
G02*
X111360000Y-97339999I0J-249999D01*
G01*
X111360000Y-98240001D01*
G75*
G02*
X111110001Y-98490000I-249999J0D01*
G01*
X110584999Y-98490000D01*
G75*
G02*
X110335000Y-98240001I0J249999D01*
G01*
G37*
G36*
G01*
X112160000Y-98240001D02*
X112160000Y-97339999D01*
G75*
G02*
X112409999Y-97090000I249999J0D01*
G01*
X112935001Y-97090000D01*
G75*
G02*
X113185000Y-97339999I0J-249999D01*
G01*
X113185000Y-98240001D01*
G75*
G02*
X112935001Y-98490000I-249999J0D01*
G01*
X112409999Y-98490000D01*
G75*
G02*
X112160000Y-98240001I0J249999D01*
G01*
G37*
G36*
G01*
X112160000Y-90620001D02*
X112160000Y-89719999D01*
G75*
G02*
X112409999Y-89470000I249999J0D01*
G01*
X112935001Y-89470000D01*
G75*
G02*
X113185000Y-89719999I0J-249999D01*
G01*
X113185000Y-90620001D01*
G75*
G02*
X112935001Y-90870000I-249999J0D01*
G01*
X112409999Y-90870000D01*
G75*
G02*
X112160000Y-90620001I0J249999D01*
G01*
G37*
G36*
G01*
X110335000Y-90620001D02*
X110335000Y-89719999D01*
G75*
G02*
X110584999Y-89470000I249999J0D01*
G01*
X111110001Y-89470000D01*
G75*
G02*
X111360000Y-89719999I0J-249999D01*
G01*
X111360000Y-90620001D01*
G75*
G02*
X111110001Y-90870000I-249999J0D01*
G01*
X110584999Y-90870000D01*
G75*
G02*
X110335000Y-90620001I0J249999D01*
G01*
G37*
G36*
G01*
X100485000Y-79559999D02*
X100485000Y-80460001D01*
G75*
G02*
X100235001Y-80710000I-249999J0D01*
G01*
X99709999Y-80710000D01*
G75*
G02*
X99460000Y-80460001I0J249999D01*
G01*
X99460000Y-79559999D01*
G75*
G02*
X99709999Y-79310000I249999J0D01*
G01*
X100235001Y-79310000D01*
G75*
G02*
X100485000Y-79559999I0J-249999D01*
G01*
G37*
G36*
G01*
X98660000Y-79559999D02*
X98660000Y-80460001D01*
G75*
G02*
X98410001Y-80710000I-249999J0D01*
G01*
X97884999Y-80710000D01*
G75*
G02*
X97635000Y-80460001I0J249999D01*
G01*
X97635000Y-79559999D01*
G75*
G02*
X97884999Y-79310000I249999J0D01*
G01*
X98410001Y-79310000D01*
G75*
G02*
X98660000Y-79559999I0J-249999D01*
G01*
G37*
G36*
G01*
X112875000Y-80460001D02*
X112875000Y-79559999D01*
G75*
G02*
X113124999Y-79310000I249999J0D01*
G01*
X113650001Y-79310000D01*
G75*
G02*
X113900000Y-79559999I0J-249999D01*
G01*
X113900000Y-80460001D01*
G75*
G02*
X113650001Y-80710000I-249999J0D01*
G01*
X113124999Y-80710000D01*
G75*
G02*
X112875000Y-80460001I0J249999D01*
G01*
G37*
G36*
G01*
X114700000Y-80460001D02*
X114700000Y-79559999D01*
G75*
G02*
X114949999Y-79310000I249999J0D01*
G01*
X115475001Y-79310000D01*
G75*
G02*
X115725000Y-79559999I0J-249999D01*
G01*
X115725000Y-80460001D01*
G75*
G02*
X115475001Y-80710000I-249999J0D01*
G01*
X114949999Y-80710000D01*
G75*
G02*
X114700000Y-80460001I0J249999D01*
G01*
G37*
G36*
G01*
X101445000Y-80460001D02*
X101445000Y-79559999D01*
G75*
G02*
X101694999Y-79310000I249999J0D01*
G01*
X102220001Y-79310000D01*
G75*
G02*
X102470000Y-79559999I0J-249999D01*
G01*
X102470000Y-80460001D01*
G75*
G02*
X102220001Y-80710000I-249999J0D01*
G01*
X101694999Y-80710000D01*
G75*
G02*
X101445000Y-80460001I0J249999D01*
G01*
G37*
G36*
G01*
X103270000Y-80460001D02*
X103270000Y-79559999D01*
G75*
G02*
X103519999Y-79310000I249999J0D01*
G01*
X104045001Y-79310000D01*
G75*
G02*
X104295000Y-79559999I0J-249999D01*
G01*
X104295000Y-80460001D01*
G75*
G02*
X104045001Y-80710000I-249999J0D01*
G01*
X103519999Y-80710000D01*
G75*
G02*
X103270000Y-80460001I0J249999D01*
G01*
G37*
G36*
G01*
X116685000Y-80460001D02*
X116685000Y-79559999D01*
G75*
G02*
X116934999Y-79310000I249999J0D01*
G01*
X117460001Y-79310000D01*
G75*
G02*
X117710000Y-79559999I0J-249999D01*
G01*
X117710000Y-80460001D01*
G75*
G02*
X117460001Y-80710000I-249999J0D01*
G01*
X116934999Y-80710000D01*
G75*
G02*
X116685000Y-80460001I0J249999D01*
G01*
G37*
G36*
G01*
X118510000Y-80460001D02*
X118510000Y-79559999D01*
G75*
G02*
X118759999Y-79310000I249999J0D01*
G01*
X119285001Y-79310000D01*
G75*
G02*
X119535000Y-79559999I0J-249999D01*
G01*
X119535000Y-80460001D01*
G75*
G02*
X119285001Y-80710000I-249999J0D01*
G01*
X118759999Y-80710000D01*
G75*
G02*
X118510000Y-80460001I0J249999D01*
G01*
G37*
G36*
G01*
X108105000Y-77019999D02*
X108105000Y-77920001D01*
G75*
G02*
X107855001Y-78170000I-249999J0D01*
G01*
X107329999Y-78170000D01*
G75*
G02*
X107080000Y-77920001I0J249999D01*
G01*
X107080000Y-77019999D01*
G75*
G02*
X107329999Y-76770000I249999J0D01*
G01*
X107855001Y-76770000D01*
G75*
G02*
X108105000Y-77019999I0J-249999D01*
G01*
G37*
G36*
G01*
X106280000Y-77019999D02*
X106280000Y-77920001D01*
G75*
G02*
X106030001Y-78170000I-249999J0D01*
G01*
X105504999Y-78170000D01*
G75*
G02*
X105255000Y-77920001I0J249999D01*
G01*
X105255000Y-77019999D01*
G75*
G02*
X105504999Y-76770000I249999J0D01*
G01*
X106030001Y-76770000D01*
G75*
G02*
X106280000Y-77019999I0J-249999D01*
G01*
G37*
G36*
G01*
X106280000Y-79559999D02*
X106280000Y-80460001D01*
G75*
G02*
X106030001Y-80710000I-249999J0D01*
G01*
X105504999Y-80710000D01*
G75*
G02*
X105255000Y-80460001I0J249999D01*
G01*
X105255000Y-79559999D01*
G75*
G02*
X105504999Y-79310000I249999J0D01*
G01*
X106030001Y-79310000D01*
G75*
G02*
X106280000Y-79559999I0J-249999D01*
G01*
G37*
G36*
G01*
X108105000Y-79559999D02*
X108105000Y-80460001D01*
G75*
G02*
X107855001Y-80710000I-249999J0D01*
G01*
X107329999Y-80710000D01*
G75*
G02*
X107080000Y-80460001I0J249999D01*
G01*
X107080000Y-79559999D01*
G75*
G02*
X107329999Y-79310000I249999J0D01*
G01*
X107855001Y-79310000D01*
G75*
G02*
X108105000Y-79559999I0J-249999D01*
G01*
G37*
G36*
G01*
X123345000Y-77019999D02*
X123345000Y-77920001D01*
G75*
G02*
X123095001Y-78170000I-249999J0D01*
G01*
X122569999Y-78170000D01*
G75*
G02*
X122320000Y-77920001I0J249999D01*
G01*
X122320000Y-77019999D01*
G75*
G02*
X122569999Y-76770000I249999J0D01*
G01*
X123095001Y-76770000D01*
G75*
G02*
X123345000Y-77019999I0J-249999D01*
G01*
G37*
G36*
G01*
X121520000Y-77019999D02*
X121520000Y-77920001D01*
G75*
G02*
X121270001Y-78170000I-249999J0D01*
G01*
X120744999Y-78170000D01*
G75*
G02*
X120495000Y-77920001I0J249999D01*
G01*
X120495000Y-77019999D01*
G75*
G02*
X120744999Y-76770000I249999J0D01*
G01*
X121270001Y-76770000D01*
G75*
G02*
X121520000Y-77019999I0J-249999D01*
G01*
G37*
G36*
G01*
X121520000Y-79559999D02*
X121520000Y-80460001D01*
G75*
G02*
X121270001Y-80710000I-249999J0D01*
G01*
X120744999Y-80710000D01*
G75*
G02*
X120495000Y-80460001I0J249999D01*
G01*
X120495000Y-79559999D01*
G75*
G02*
X120744999Y-79310000I249999J0D01*
G01*
X121270001Y-79310000D01*
G75*
G02*
X121520000Y-79559999I0J-249999D01*
G01*
G37*
G36*
G01*
X123345000Y-79559999D02*
X123345000Y-80460001D01*
G75*
G02*
X123095001Y-80710000I-249999J0D01*
G01*
X122569999Y-80710000D01*
G75*
G02*
X122320000Y-80460001I0J249999D01*
G01*
X122320000Y-79559999D01*
G75*
G02*
X122569999Y-79310000I249999J0D01*
G01*
X123095001Y-79310000D01*
G75*
G02*
X123345000Y-79559999I0J-249999D01*
G01*
G37*
G36*
G01*
X139249999Y-80410000D02*
X140150001Y-80410000D01*
G75*
G02*
X140400000Y-80659999I0J-249999D01*
G01*
X140400000Y-81185001D01*
G75*
G02*
X140150001Y-81435000I-249999J0D01*
G01*
X139249999Y-81435000D01*
G75*
G02*
X139000000Y-81185001I0J249999D01*
G01*
X139000000Y-80659999D01*
G75*
G02*
X139249999Y-80410000I249999J0D01*
G01*
G37*
G36*
G01*
X139249999Y-78585000D02*
X140150001Y-78585000D01*
G75*
G02*
X140400000Y-78834999I0J-249999D01*
G01*
X140400000Y-79360001D01*
G75*
G02*
X140150001Y-79610000I-249999J0D01*
G01*
X139249999Y-79610000D01*
G75*
G02*
X139000000Y-79360001I0J249999D01*
G01*
X139000000Y-78834999D01*
G75*
G02*
X139249999Y-78585000I249999J0D01*
G01*
G37*
G36*
G01*
X127819999Y-80410000D02*
X128720001Y-80410000D01*
G75*
G02*
X128970000Y-80659999I0J-249999D01*
G01*
X128970000Y-81185001D01*
G75*
G02*
X128720001Y-81435000I-249999J0D01*
G01*
X127819999Y-81435000D01*
G75*
G02*
X127570000Y-81185001I0J249999D01*
G01*
X127570000Y-80659999D01*
G75*
G02*
X127819999Y-80410000I249999J0D01*
G01*
G37*
G36*
G01*
X127819999Y-78585000D02*
X128720001Y-78585000D01*
G75*
G02*
X128970000Y-78834999I0J-249999D01*
G01*
X128970000Y-79360001D01*
G75*
G02*
X128720001Y-79610000I-249999J0D01*
G01*
X127819999Y-79610000D01*
G75*
G02*
X127570000Y-79360001I0J249999D01*
G01*
X127570000Y-78834999D01*
G75*
G02*
X127819999Y-78585000I249999J0D01*
G01*
G37*
D16*
X130150000Y-88900000D03*
D17*
X123850000Y-88900000D03*
X123850000Y-91200000D03*
X123850000Y-86600000D03*
D18*
X99205001Y-96530001D03*
X99205001Y-93990001D03*
X99205001Y-91450001D03*
X105575001Y-91450001D03*
X105575001Y-93990001D03*
X105575001Y-96530001D03*
D19*
X111760000Y-76200000D03*
D20*
X113410000Y-76200000D03*
X112926726Y-77366726D03*
X111760000Y-77850000D03*
X110593274Y-77366726D03*
X110110000Y-76200000D03*
X110593274Y-75033274D03*
X111760000Y-74550000D03*
X112926726Y-75033274D03*
X144676726Y-75033274D03*
X143510000Y-74550000D03*
X142343274Y-75033274D03*
X141860000Y-76200000D03*
X142343274Y-77366726D03*
X143510000Y-77850000D03*
X144676726Y-77366726D03*
X145160000Y-76200000D03*
D19*
X143510000Y-76200000D03*
X143510000Y-101600000D03*
D20*
X145160000Y-101600000D03*
X144676726Y-102766726D03*
X143510000Y-103250000D03*
X142343274Y-102766726D03*
X141860000Y-101600000D03*
X142343274Y-100433274D03*
X143510000Y-99950000D03*
X144676726Y-100433274D03*
X112926726Y-100433274D03*
X111760000Y-99950000D03*
X110593274Y-100433274D03*
X110110000Y-101600000D03*
X110593274Y-102766726D03*
X111760000Y-103250000D03*
X112926726Y-102766726D03*
X113410000Y-101600000D03*
D19*
X111760000Y-101600000D03*
M02*
