G04 #@! TF.GenerationSoftware,KiCad,Pcbnew,(5.1.12)-1*
G04 #@! TF.CreationDate,2022-06-04T11:26:48+02:00*
G04 #@! TF.ProjectId,BSPD,42535044-2e6b-4696-9361-645f70636258,rev?*
G04 #@! TF.SameCoordinates,Original*
G04 #@! TF.FileFunction,Copper,L2,Bot*
G04 #@! TF.FilePolarity,Positive*
%FSLAX46Y46*%
G04 Gerber Fmt 4.6, Leading zero omitted, Abs format (unit mm)*
G04 Created by KiCad (PCBNEW (5.1.12)-1) date 2022-06-04 11:26:48*
%MOMM*%
%LPD*%
G01*
G04 APERTURE LIST*
G04 #@! TA.AperFunction,SMDPad,CuDef*
%ADD10R,1.200000X0.600000*%
G04 #@! TD*
G04 #@! TA.AperFunction,SMDPad,CuDef*
%ADD11R,1.528000X0.650000*%
G04 #@! TD*
G04 #@! TA.AperFunction,ComponentPad*
%ADD12R,1.700000X1.700000*%
G04 #@! TD*
G04 #@! TA.AperFunction,ComponentPad*
%ADD13O,1.700000X1.700000*%
G04 #@! TD*
G04 #@! TA.AperFunction,ComponentPad*
%ADD14C,2.100000*%
G04 #@! TD*
G04 #@! TA.AperFunction,ComponentPad*
%ADD15C,3.400000*%
G04 #@! TD*
G04 #@! TA.AperFunction,SMDPad,CuDef*
%ADD16R,0.900000X0.800000*%
G04 #@! TD*
G04 #@! TA.AperFunction,ComponentPad*
%ADD17C,1.440000*%
G04 #@! TD*
G04 #@! TA.AperFunction,SMDPad,CuDef*
%ADD18R,1.200000X0.900000*%
G04 #@! TD*
G04 #@! TA.AperFunction,ComponentPad*
%ADD19C,4.400000*%
G04 #@! TD*
G04 #@! TA.AperFunction,ComponentPad*
%ADD20C,0.700000*%
G04 #@! TD*
G04 #@! TA.AperFunction,ViaPad*
%ADD21C,0.800000*%
G04 #@! TD*
G04 #@! TA.AperFunction,Conductor*
%ADD22C,0.250000*%
G04 #@! TD*
G04 #@! TA.AperFunction,Conductor*
%ADD23C,0.500000*%
G04 #@! TD*
G04 APERTURE END LIST*
G04 #@! TA.AperFunction,SMDPad,CuDef*
G36*
G01*
X130990000Y-78265000D02*
X130990000Y-79215000D01*
G75*
G02*
X130740000Y-79465000I-250000J0D01*
G01*
X130240000Y-79465000D01*
G75*
G02*
X129990000Y-79215000I0J250000D01*
G01*
X129990000Y-78265000D01*
G75*
G02*
X130240000Y-78015000I250000J0D01*
G01*
X130740000Y-78015000D01*
G75*
G02*
X130990000Y-78265000I0J-250000D01*
G01*
G37*
G04 #@! TD.AperFunction*
G04 #@! TA.AperFunction,SMDPad,CuDef*
G36*
G01*
X129090000Y-78265000D02*
X129090000Y-79215000D01*
G75*
G02*
X128840000Y-79465000I-250000J0D01*
G01*
X128340000Y-79465000D01*
G75*
G02*
X128090000Y-79215000I0J250000D01*
G01*
X128090000Y-78265000D01*
G75*
G02*
X128340000Y-78015000I250000J0D01*
G01*
X128840000Y-78015000D01*
G75*
G02*
X129090000Y-78265000I0J-250000D01*
G01*
G37*
G04 #@! TD.AperFunction*
G04 #@! TA.AperFunction,SMDPad,CuDef*
G36*
G01*
X130015000Y-92890000D02*
X129065000Y-92890000D01*
G75*
G02*
X128815000Y-92640000I0J250000D01*
G01*
X128815000Y-92140000D01*
G75*
G02*
X129065000Y-91890000I250000J0D01*
G01*
X130015000Y-91890000D01*
G75*
G02*
X130265000Y-92140000I0J-250000D01*
G01*
X130265000Y-92640000D01*
G75*
G02*
X130015000Y-92890000I-250000J0D01*
G01*
G37*
G04 #@! TD.AperFunction*
G04 #@! TA.AperFunction,SMDPad,CuDef*
G36*
G01*
X130015000Y-90990000D02*
X129065000Y-90990000D01*
G75*
G02*
X128815000Y-90740000I0J250000D01*
G01*
X128815000Y-90240000D01*
G75*
G02*
X129065000Y-89990000I250000J0D01*
G01*
X130015000Y-89990000D01*
G75*
G02*
X130265000Y-90240000I0J-250000D01*
G01*
X130265000Y-90740000D01*
G75*
G02*
X130015000Y-90990000I-250000J0D01*
G01*
G37*
G04 #@! TD.AperFunction*
D10*
X101620000Y-86040000D03*
X101620000Y-85090000D03*
X101620000Y-84140000D03*
X104120000Y-84140000D03*
X104120000Y-86040000D03*
D11*
X123019000Y-84455000D03*
X123019000Y-85725000D03*
X123019000Y-86995000D03*
X123019000Y-88265000D03*
X128441000Y-88265000D03*
X128441000Y-86995000D03*
X128441000Y-85725000D03*
X128441000Y-84455000D03*
D12*
X119080000Y-96520000D03*
D13*
X116540000Y-96520000D03*
X119080000Y-93980000D03*
X116540000Y-93980000D03*
X119080000Y-91440000D03*
X116540000Y-91440000D03*
D14*
X144200000Y-87250000D03*
D15*
X139700000Y-84550000D03*
X134300000Y-89900000D03*
X139700000Y-95250000D03*
D14*
X144200000Y-93250000D03*
D16*
X130540000Y-95250000D03*
X128540000Y-94300000D03*
X128540000Y-96200000D03*
G04 #@! TA.AperFunction,SMDPad,CuDef*
G36*
G01*
X122320000Y-79190001D02*
X122320000Y-78289999D01*
G75*
G02*
X122569999Y-78040000I249999J0D01*
G01*
X123095001Y-78040000D01*
G75*
G02*
X123345000Y-78289999I0J-249999D01*
G01*
X123345000Y-79190001D01*
G75*
G02*
X123095001Y-79440000I-249999J0D01*
G01*
X122569999Y-79440000D01*
G75*
G02*
X122320000Y-79190001I0J249999D01*
G01*
G37*
G04 #@! TD.AperFunction*
G04 #@! TA.AperFunction,SMDPad,CuDef*
G36*
G01*
X120495000Y-79190001D02*
X120495000Y-78289999D01*
G75*
G02*
X120744999Y-78040000I249999J0D01*
G01*
X121270001Y-78040000D01*
G75*
G02*
X121520000Y-78289999I0J-249999D01*
G01*
X121520000Y-79190001D01*
G75*
G02*
X121270001Y-79440000I-249999J0D01*
G01*
X120744999Y-79440000D01*
G75*
G02*
X120495000Y-79190001I0J249999D01*
G01*
G37*
G04 #@! TD.AperFunction*
G04 #@! TA.AperFunction,SMDPad,CuDef*
G36*
G01*
X129940000Y-81730001D02*
X129940000Y-80829999D01*
G75*
G02*
X130189999Y-80580000I249999J0D01*
G01*
X130715001Y-80580000D01*
G75*
G02*
X130965000Y-80829999I0J-249999D01*
G01*
X130965000Y-81730001D01*
G75*
G02*
X130715001Y-81980000I-249999J0D01*
G01*
X130189999Y-81980000D01*
G75*
G02*
X129940000Y-81730001I0J249999D01*
G01*
G37*
G04 #@! TD.AperFunction*
G04 #@! TA.AperFunction,SMDPad,CuDef*
G36*
G01*
X128115000Y-81730001D02*
X128115000Y-80829999D01*
G75*
G02*
X128364999Y-80580000I249999J0D01*
G01*
X128890001Y-80580000D01*
G75*
G02*
X129140000Y-80829999I0J-249999D01*
G01*
X129140000Y-81730001D01*
G75*
G02*
X128890001Y-81980000I-249999J0D01*
G01*
X128364999Y-81980000D01*
G75*
G02*
X128115000Y-81730001I0J249999D01*
G01*
G37*
G04 #@! TD.AperFunction*
G04 #@! TA.AperFunction,SMDPad,CuDef*
G36*
G01*
X124305000Y-81730001D02*
X124305000Y-80829999D01*
G75*
G02*
X124554999Y-80580000I249999J0D01*
G01*
X125080001Y-80580000D01*
G75*
G02*
X125330000Y-80829999I0J-249999D01*
G01*
X125330000Y-81730001D01*
G75*
G02*
X125080001Y-81980000I-249999J0D01*
G01*
X124554999Y-81980000D01*
G75*
G02*
X124305000Y-81730001I0J249999D01*
G01*
G37*
G04 #@! TD.AperFunction*
G04 #@! TA.AperFunction,SMDPad,CuDef*
G36*
G01*
X126130000Y-81730001D02*
X126130000Y-80829999D01*
G75*
G02*
X126379999Y-80580000I249999J0D01*
G01*
X126905001Y-80580000D01*
G75*
G02*
X127155000Y-80829999I0J-249999D01*
G01*
X127155000Y-81730001D01*
G75*
G02*
X126905001Y-81980000I-249999J0D01*
G01*
X126379999Y-81980000D01*
G75*
G02*
X126130000Y-81730001I0J249999D01*
G01*
G37*
G04 #@! TD.AperFunction*
G04 #@! TA.AperFunction,SMDPad,CuDef*
G36*
G01*
X126130000Y-79190001D02*
X126130000Y-78289999D01*
G75*
G02*
X126379999Y-78040000I249999J0D01*
G01*
X126905001Y-78040000D01*
G75*
G02*
X127155000Y-78289999I0J-249999D01*
G01*
X127155000Y-79190001D01*
G75*
G02*
X126905001Y-79440000I-249999J0D01*
G01*
X126379999Y-79440000D01*
G75*
G02*
X126130000Y-79190001I0J249999D01*
G01*
G37*
G04 #@! TD.AperFunction*
G04 #@! TA.AperFunction,SMDPad,CuDef*
G36*
G01*
X124305000Y-79190001D02*
X124305000Y-78289999D01*
G75*
G02*
X124554999Y-78040000I249999J0D01*
G01*
X125080001Y-78040000D01*
G75*
G02*
X125330000Y-78289999I0J-249999D01*
G01*
X125330000Y-79190001D01*
G75*
G02*
X125080001Y-79440000I-249999J0D01*
G01*
X124554999Y-79440000D01*
G75*
G02*
X124305000Y-79190001I0J249999D01*
G01*
G37*
G04 #@! TD.AperFunction*
G04 #@! TA.AperFunction,SMDPad,CuDef*
G36*
G01*
X122320000Y-81730001D02*
X122320000Y-80829999D01*
G75*
G02*
X122569999Y-80580000I249999J0D01*
G01*
X123095001Y-80580000D01*
G75*
G02*
X123345000Y-80829999I0J-249999D01*
G01*
X123345000Y-81730001D01*
G75*
G02*
X123095001Y-81980000I-249999J0D01*
G01*
X122569999Y-81980000D01*
G75*
G02*
X122320000Y-81730001I0J249999D01*
G01*
G37*
G04 #@! TD.AperFunction*
G04 #@! TA.AperFunction,SMDPad,CuDef*
G36*
G01*
X120495000Y-81730001D02*
X120495000Y-80829999D01*
G75*
G02*
X120744999Y-80580000I249999J0D01*
G01*
X121270001Y-80580000D01*
G75*
G02*
X121520000Y-80829999I0J-249999D01*
G01*
X121520000Y-81730001D01*
G75*
G02*
X121270001Y-81980000I-249999J0D01*
G01*
X120744999Y-81980000D01*
G75*
G02*
X120495000Y-81730001I0J249999D01*
G01*
G37*
G04 #@! TD.AperFunction*
G04 #@! TA.AperFunction,SMDPad,CuDef*
G36*
G01*
X123640001Y-97587500D02*
X122739999Y-97587500D01*
G75*
G02*
X122490000Y-97337501I0J249999D01*
G01*
X122490000Y-96812499D01*
G75*
G02*
X122739999Y-96562500I249999J0D01*
G01*
X123640001Y-96562500D01*
G75*
G02*
X123890000Y-96812499I0J-249999D01*
G01*
X123890000Y-97337501D01*
G75*
G02*
X123640001Y-97587500I-249999J0D01*
G01*
G37*
G04 #@! TD.AperFunction*
G04 #@! TA.AperFunction,SMDPad,CuDef*
G36*
G01*
X123640001Y-95762500D02*
X122739999Y-95762500D01*
G75*
G02*
X122490000Y-95512501I0J249999D01*
G01*
X122490000Y-94987499D01*
G75*
G02*
X122739999Y-94737500I249999J0D01*
G01*
X123640001Y-94737500D01*
G75*
G02*
X123890000Y-94987499I0J-249999D01*
G01*
X123890000Y-95512501D01*
G75*
G02*
X123640001Y-95762500I-249999J0D01*
G01*
G37*
G04 #@! TD.AperFunction*
G04 #@! TA.AperFunction,SMDPad,CuDef*
G36*
G01*
X127155000Y-92259999D02*
X127155000Y-93160001D01*
G75*
G02*
X126905001Y-93410000I-249999J0D01*
G01*
X126379999Y-93410000D01*
G75*
G02*
X126130000Y-93160001I0J249999D01*
G01*
X126130000Y-92259999D01*
G75*
G02*
X126379999Y-92010000I249999J0D01*
G01*
X126905001Y-92010000D01*
G75*
G02*
X127155000Y-92259999I0J-249999D01*
G01*
G37*
G04 #@! TD.AperFunction*
G04 #@! TA.AperFunction,SMDPad,CuDef*
G36*
G01*
X125330000Y-92259999D02*
X125330000Y-93160001D01*
G75*
G02*
X125080001Y-93410000I-249999J0D01*
G01*
X124554999Y-93410000D01*
G75*
G02*
X124305000Y-93160001I0J249999D01*
G01*
X124305000Y-92259999D01*
G75*
G02*
X124554999Y-92010000I249999J0D01*
G01*
X125080001Y-92010000D01*
G75*
G02*
X125330000Y-92259999I0J-249999D01*
G01*
G37*
G04 #@! TD.AperFunction*
G04 #@! TA.AperFunction,SMDPad,CuDef*
G36*
G01*
X126130000Y-90620001D02*
X126130000Y-89719999D01*
G75*
G02*
X126379999Y-89470000I249999J0D01*
G01*
X126905001Y-89470000D01*
G75*
G02*
X127155000Y-89719999I0J-249999D01*
G01*
X127155000Y-90620001D01*
G75*
G02*
X126905001Y-90870000I-249999J0D01*
G01*
X126379999Y-90870000D01*
G75*
G02*
X126130000Y-90620001I0J249999D01*
G01*
G37*
G04 #@! TD.AperFunction*
G04 #@! TA.AperFunction,SMDPad,CuDef*
G36*
G01*
X124305000Y-90620001D02*
X124305000Y-89719999D01*
G75*
G02*
X124554999Y-89470000I249999J0D01*
G01*
X125080001Y-89470000D01*
G75*
G02*
X125330000Y-89719999I0J-249999D01*
G01*
X125330000Y-90620001D01*
G75*
G02*
X125080001Y-90870000I-249999J0D01*
G01*
X124554999Y-90870000D01*
G75*
G02*
X124305000Y-90620001I0J249999D01*
G01*
G37*
G04 #@! TD.AperFunction*
G04 #@! TA.AperFunction,SMDPad,CuDef*
G36*
G01*
X125279999Y-94737500D02*
X126180001Y-94737500D01*
G75*
G02*
X126430000Y-94987499I0J-249999D01*
G01*
X126430000Y-95512501D01*
G75*
G02*
X126180001Y-95762500I-249999J0D01*
G01*
X125279999Y-95762500D01*
G75*
G02*
X125030000Y-95512501I0J249999D01*
G01*
X125030000Y-94987499D01*
G75*
G02*
X125279999Y-94737500I249999J0D01*
G01*
G37*
G04 #@! TD.AperFunction*
G04 #@! TA.AperFunction,SMDPad,CuDef*
G36*
G01*
X125279999Y-96562500D02*
X126180001Y-96562500D01*
G75*
G02*
X126430000Y-96812499I0J-249999D01*
G01*
X126430000Y-97337501D01*
G75*
G02*
X126180001Y-97587500I-249999J0D01*
G01*
X125279999Y-97587500D01*
G75*
G02*
X125030000Y-97337501I0J249999D01*
G01*
X125030000Y-96812499D01*
G75*
G02*
X125279999Y-96562500I249999J0D01*
G01*
G37*
G04 #@! TD.AperFunction*
D17*
X99205001Y-96530001D03*
X99205001Y-93990001D03*
X99205001Y-91450001D03*
X105575001Y-91450001D03*
X105575001Y-93990001D03*
X105575001Y-96530001D03*
D18*
X139700000Y-88520000D03*
X139700000Y-91820000D03*
D19*
X111760000Y-76200000D03*
D20*
X113410000Y-76200000D03*
X112926726Y-77366726D03*
X111760000Y-77850000D03*
X110593274Y-77366726D03*
X110110000Y-76200000D03*
X110593274Y-75033274D03*
X111760000Y-74550000D03*
X112926726Y-75033274D03*
X144676726Y-75033274D03*
X143510000Y-74550000D03*
X142343274Y-75033274D03*
X141860000Y-76200000D03*
X142343274Y-77366726D03*
X143510000Y-77850000D03*
X144676726Y-77366726D03*
X145160000Y-76200000D03*
D19*
X143510000Y-76200000D03*
X143510000Y-101600000D03*
D20*
X145160000Y-101600000D03*
X144676726Y-102766726D03*
X143510000Y-103250000D03*
X142343274Y-102766726D03*
X141860000Y-101600000D03*
X142343274Y-100433274D03*
X143510000Y-99950000D03*
X144676726Y-100433274D03*
X112926726Y-100433274D03*
X111760000Y-99950000D03*
X110593274Y-100433274D03*
X110110000Y-101600000D03*
X110593274Y-102766726D03*
X111760000Y-103250000D03*
X112926726Y-102766726D03*
X113410000Y-101600000D03*
D19*
X111760000Y-101600000D03*
D21*
X121920000Y-93010000D03*
X127950000Y-90490000D03*
X113358405Y-87958405D03*
X100508750Y-77648750D03*
X120650000Y-74930000D03*
X119148000Y-81512000D03*
X104311000Y-81309000D03*
X129440000Y-82820000D03*
X132080000Y-82550000D03*
X125730000Y-85090000D03*
X116840000Y-88900000D03*
X110847500Y-88542500D03*
X101704000Y-81384000D03*
X115748750Y-81458750D03*
X114300000Y-90170000D03*
X138160000Y-80010000D03*
D22*
X126642500Y-78740000D02*
X128590000Y-78740000D01*
X126642500Y-90170000D02*
X127155000Y-90170000D01*
X129540000Y-89364000D02*
X128441000Y-88265000D01*
X129540000Y-90490000D02*
X129540000Y-89364000D01*
X129640010Y-77689990D02*
X128590000Y-78740000D01*
X130978180Y-77689990D02*
X129640010Y-77689990D01*
X131315010Y-78026820D02*
X130978180Y-77689990D01*
X131315010Y-88714990D02*
X131315010Y-78026820D01*
X129540000Y-90490000D02*
X131315010Y-88714990D01*
X129540000Y-90851810D02*
X129540000Y-90490000D01*
X130590010Y-92949990D02*
X129240000Y-94300000D01*
X129240000Y-94300000D02*
X128540000Y-94300000D01*
X130590010Y-91540010D02*
X130590010Y-92949990D01*
X129540000Y-90490000D02*
X130590010Y-91540010D01*
X126962500Y-90490000D02*
X126642500Y-90170000D01*
X127950000Y-90490000D02*
X126962500Y-90490000D01*
X127950000Y-90490000D02*
X129540000Y-90490000D01*
D23*
X113449999Y-88049999D02*
X113358405Y-87958405D01*
X117825684Y-88049999D02*
X113449999Y-88049999D01*
X121920000Y-92144315D02*
X117825684Y-88049999D01*
X121920000Y-92710000D02*
X121920000Y-92144315D01*
D22*
X102429001Y-83330999D02*
X101620000Y-84140000D01*
X102429001Y-79569001D02*
X102429001Y-83330999D01*
X100508750Y-77648750D02*
X102429001Y-79569001D01*
X130765011Y-92774989D02*
X130590010Y-92949990D01*
X135035009Y-92774989D02*
X130765011Y-92774989D01*
X144030001Y-91044999D02*
X136764999Y-91044999D01*
X145709999Y-92724997D02*
X144030001Y-91044999D01*
X145709999Y-99400001D02*
X145709999Y-92724997D01*
X143510000Y-101600000D02*
X145709999Y-99400001D01*
X136325001Y-91484997D02*
X135494999Y-92314999D01*
X136325001Y-90259997D02*
X136325001Y-91484997D01*
X138839999Y-87744999D02*
X136325001Y-90259997D01*
X139502003Y-87744999D02*
X138839999Y-87744999D01*
X143510000Y-83737002D02*
X139502003Y-87744999D01*
X143510000Y-76200000D02*
X143510000Y-83737002D01*
X135494999Y-92314999D02*
X135035009Y-92774989D01*
X136764999Y-91044999D02*
X135494999Y-92314999D01*
X119148000Y-76432000D02*
X120650000Y-74930000D01*
X119148000Y-81512000D02*
X119148000Y-76432000D01*
X123792490Y-82305010D02*
X124817500Y-81280000D01*
X122032510Y-82305010D02*
X123792490Y-82305010D01*
X121007500Y-81280000D02*
X122032510Y-82305010D01*
X123792490Y-83681510D02*
X123019000Y-84455000D01*
X123792490Y-82305010D02*
X123792490Y-83681510D01*
X122614998Y-84455000D02*
X123019000Y-84455000D01*
X126642500Y-92710000D02*
X127000000Y-92352500D01*
X129502500Y-92352500D02*
X129540000Y-92390000D01*
X123423002Y-84455000D02*
X123019000Y-84455000D01*
X129220000Y-92710000D02*
X129540000Y-92390000D01*
X126642500Y-92710000D02*
X129220000Y-92710000D01*
X126418180Y-96087510D02*
X127000000Y-95505690D01*
X124177490Y-96087510D02*
X126418180Y-96087510D01*
X123190000Y-97075000D02*
X124177490Y-96087510D01*
X127000000Y-93067500D02*
X126642500Y-92710000D01*
X127000000Y-95505690D02*
X127000000Y-93067500D01*
X119380000Y-81280000D02*
X119148000Y-81512000D01*
X121007500Y-81280000D02*
X119380000Y-81280000D01*
X124817500Y-83104498D02*
X124817500Y-81280000D01*
X126455001Y-84741999D02*
X124817500Y-83104498D01*
X126455001Y-87349009D02*
X126455001Y-84741999D01*
X125804990Y-87999020D02*
X126455001Y-87349009D01*
X125804990Y-91872490D02*
X125804990Y-87999020D01*
X126642500Y-92710000D02*
X125804990Y-91872490D01*
D23*
X98035000Y-92970000D02*
X98035000Y-78864498D01*
X99205001Y-94140001D02*
X98035000Y-92970000D01*
X105575001Y-94140001D02*
X99205001Y-94140001D01*
X100916751Y-76798749D02*
X104140000Y-80021998D01*
X100100749Y-76798749D02*
X100916751Y-76798749D01*
X98035000Y-78864498D02*
X100100749Y-76798749D01*
X104140000Y-81138000D02*
X104311000Y-81309000D01*
X104140000Y-80021998D02*
X104140000Y-81138000D01*
X103069999Y-84989999D02*
X104120000Y-86040000D01*
X103069999Y-82550001D02*
X103069999Y-84989999D01*
X104311000Y-81309000D02*
X103069999Y-82550001D01*
X104120000Y-86040000D02*
X109540000Y-86040000D01*
X118244749Y-80608749D02*
X119148000Y-81512000D01*
X114971251Y-80608749D02*
X118244749Y-80608749D01*
X109540000Y-86040000D02*
X114971251Y-80608749D01*
X140970000Y-87250000D02*
X139700000Y-88520000D01*
X144200000Y-87250000D02*
X140970000Y-87250000D01*
D22*
X128627500Y-80602500D02*
X128627500Y-81280000D01*
X130490000Y-78740000D02*
X128627500Y-80602500D01*
X129440000Y-82092500D02*
X128627500Y-81280000D01*
X129440000Y-82820000D02*
X129440000Y-82092500D01*
X138885001Y-80358001D02*
X138885001Y-79661999D01*
X136693002Y-82550000D02*
X138885001Y-80358001D01*
X132080000Y-82550000D02*
X136693002Y-82550000D01*
X138885001Y-79661999D02*
X133428001Y-74204999D01*
X118697990Y-75612010D02*
X120105001Y-74204999D01*
X104120000Y-84140000D02*
X110626814Y-84140000D01*
X120301999Y-74204999D02*
X130265001Y-74204999D01*
X110626814Y-83880184D02*
X120301999Y-74204999D01*
X130265001Y-74204999D02*
X120105001Y-74204999D01*
X110626814Y-84140000D02*
X110626814Y-83880184D01*
X133428001Y-74204999D02*
X130265001Y-74204999D01*
X123825000Y-86995000D02*
X123019000Y-86995000D01*
X125730000Y-85090000D02*
X123825000Y-86995000D01*
X111205000Y-88900000D02*
X110847500Y-88542500D01*
X116840000Y-88900000D02*
X111205000Y-88900000D01*
X101084998Y-86040000D02*
X101620000Y-86040000D01*
X100694999Y-85650001D02*
X101084998Y-86040000D01*
X100694999Y-82393001D02*
X100694999Y-85650001D01*
X101704000Y-81384000D02*
X100694999Y-82393001D01*
X101620000Y-85090000D02*
X102470000Y-85090000D01*
X110542499Y-86665001D02*
X115748750Y-81458750D01*
X103175001Y-86665001D02*
X110542499Y-86665001D01*
X102870000Y-86360000D02*
X103175001Y-86665001D01*
X102870000Y-85804998D02*
X102870000Y-86360000D01*
X102155002Y-85090000D02*
X102870000Y-85804998D01*
X101620000Y-85090000D02*
X102155002Y-85090000D01*
X105575001Y-96680001D02*
X112085002Y-90170000D01*
X112085002Y-90170000D02*
X114300000Y-90170000D01*
X123423002Y-85725000D02*
X123019000Y-85725000D01*
X123190000Y-95250000D02*
X125730000Y-95250000D01*
X122555000Y-85725000D02*
X121920000Y-86360000D01*
X123019000Y-85725000D02*
X122555000Y-85725000D01*
X123190000Y-90170000D02*
X121920000Y-88900000D01*
X123190000Y-95250000D02*
X123190000Y-90170000D01*
X121920000Y-86360000D02*
X121920000Y-88900000D01*
X124817500Y-92710000D02*
X124817500Y-90170000D01*
X123019000Y-88884000D02*
X123019000Y-88265000D01*
X124305000Y-90170000D02*
X123019000Y-88884000D01*
X124817500Y-90170000D02*
X124305000Y-90170000D01*
X124817500Y-78740000D02*
X124817500Y-79455000D01*
X124817500Y-79097500D02*
X124817500Y-78740000D01*
X126642500Y-80922500D02*
X124817500Y-79097500D01*
X126642500Y-81280000D02*
X126642500Y-80922500D01*
X126642500Y-81280000D02*
X126642500Y-83462500D01*
X126642500Y-83462500D02*
X127000000Y-83820000D01*
X127000000Y-86568000D02*
X127427000Y-86995000D01*
X127427000Y-86995000D02*
X128441000Y-86995000D01*
X127000000Y-83820000D02*
X127000000Y-86568000D01*
X128845002Y-85725000D02*
X130452500Y-84117502D01*
X130452500Y-84117502D02*
X130452500Y-81280000D01*
X128441000Y-85725000D02*
X128845002Y-85725000D01*
X122832500Y-81280000D02*
X122832500Y-78740000D01*
X127635000Y-84455000D02*
X128441000Y-84455000D01*
X123857510Y-77714990D02*
X122832500Y-78740000D01*
X125318180Y-77714990D02*
X123857510Y-77714990D01*
X125655010Y-78051820D02*
X125318180Y-77714990D01*
X125655010Y-79298600D02*
X125655010Y-78051820D01*
X126366410Y-80010000D02*
X125655010Y-79298600D01*
X127000000Y-80010000D02*
X126366410Y-80010000D01*
X127480010Y-81760010D02*
X127480010Y-80490010D01*
X127480010Y-80490010D02*
X127000000Y-80010000D01*
X128441000Y-82721000D02*
X127480010Y-81760010D01*
X128441000Y-84455000D02*
X128441000Y-82721000D01*
X119080000Y-93980000D02*
X117904999Y-95155001D01*
X117904999Y-97630001D02*
X119334998Y-99060000D01*
X117904999Y-95155001D02*
X117904999Y-97630001D01*
X135890000Y-99060000D02*
X139700000Y-95250000D01*
X119334998Y-99060000D02*
X135890000Y-99060000D01*
X135389981Y-77239981D02*
X138160000Y-80010000D01*
X122507519Y-77239981D02*
X135389981Y-77239981D01*
X121007500Y-78740000D02*
X122507519Y-77239981D01*
X127665000Y-97075000D02*
X128540000Y-96200000D01*
X125730000Y-97075000D02*
X127665000Y-97075000D01*
X144174999Y-93224999D02*
X144200000Y-93250000D01*
X130540000Y-95250000D02*
X132565001Y-93224999D01*
X139700000Y-92469998D02*
X140455001Y-93224999D01*
X139700000Y-91820000D02*
X139700000Y-92469998D01*
X140455001Y-93224999D02*
X144174999Y-93224999D01*
X132565001Y-93224999D02*
X140455001Y-93224999D01*
M02*
