G04 #@! TF.GenerationSoftware,KiCad,Pcbnew,(5.1.12)-1*
G04 #@! TF.CreationDate,2022-06-04T11:26:48+02:00*
G04 #@! TF.ProjectId,BSPD,42535044-2e6b-4696-9361-645f70636258,rev?*
G04 #@! TF.SameCoordinates,Original*
G04 #@! TF.FileFunction,Soldermask,Bot*
G04 #@! TF.FilePolarity,Negative*
%FSLAX46Y46*%
G04 Gerber Fmt 4.6, Leading zero omitted, Abs format (unit mm)*
G04 Created by KiCad (PCBNEW (5.1.12)-1) date 2022-06-04 11:26:48*
%MOMM*%
%LPD*%
G01*
G04 APERTURE LIST*
%ADD10R,1.200000X0.600000*%
%ADD11R,1.528000X0.650000*%
%ADD12R,1.700000X1.700000*%
%ADD13O,1.700000X1.700000*%
%ADD14C,2.100000*%
%ADD15C,3.400000*%
%ADD16R,0.900000X0.800000*%
%ADD17C,1.440000*%
%ADD18R,1.200000X0.900000*%
%ADD19C,4.400000*%
%ADD20C,0.700000*%
G04 APERTURE END LIST*
G36*
G01*
X130990000Y-78265000D02*
X130990000Y-79215000D01*
G75*
G02*
X130740000Y-79465000I-250000J0D01*
G01*
X130240000Y-79465000D01*
G75*
G02*
X129990000Y-79215000I0J250000D01*
G01*
X129990000Y-78265000D01*
G75*
G02*
X130240000Y-78015000I250000J0D01*
G01*
X130740000Y-78015000D01*
G75*
G02*
X130990000Y-78265000I0J-250000D01*
G01*
G37*
G36*
G01*
X129090000Y-78265000D02*
X129090000Y-79215000D01*
G75*
G02*
X128840000Y-79465000I-250000J0D01*
G01*
X128340000Y-79465000D01*
G75*
G02*
X128090000Y-79215000I0J250000D01*
G01*
X128090000Y-78265000D01*
G75*
G02*
X128340000Y-78015000I250000J0D01*
G01*
X128840000Y-78015000D01*
G75*
G02*
X129090000Y-78265000I0J-250000D01*
G01*
G37*
G36*
G01*
X130015000Y-92890000D02*
X129065000Y-92890000D01*
G75*
G02*
X128815000Y-92640000I0J250000D01*
G01*
X128815000Y-92140000D01*
G75*
G02*
X129065000Y-91890000I250000J0D01*
G01*
X130015000Y-91890000D01*
G75*
G02*
X130265000Y-92140000I0J-250000D01*
G01*
X130265000Y-92640000D01*
G75*
G02*
X130015000Y-92890000I-250000J0D01*
G01*
G37*
G36*
G01*
X130015000Y-90990000D02*
X129065000Y-90990000D01*
G75*
G02*
X128815000Y-90740000I0J250000D01*
G01*
X128815000Y-90240000D01*
G75*
G02*
X129065000Y-89990000I250000J0D01*
G01*
X130015000Y-89990000D01*
G75*
G02*
X130265000Y-90240000I0J-250000D01*
G01*
X130265000Y-90740000D01*
G75*
G02*
X130015000Y-90990000I-250000J0D01*
G01*
G37*
D10*
X101620000Y-86040000D03*
X101620000Y-85090000D03*
X101620000Y-84140000D03*
X104120000Y-84140000D03*
X104120000Y-86040000D03*
D11*
X123019000Y-84455000D03*
X123019000Y-85725000D03*
X123019000Y-86995000D03*
X123019000Y-88265000D03*
X128441000Y-88265000D03*
X128441000Y-86995000D03*
X128441000Y-85725000D03*
X128441000Y-84455000D03*
D12*
X119080000Y-96520000D03*
D13*
X116540000Y-96520000D03*
X119080000Y-93980000D03*
X116540000Y-93980000D03*
X119080000Y-91440000D03*
X116540000Y-91440000D03*
D14*
X144200000Y-87250000D03*
D15*
X139700000Y-84550000D03*
X134300000Y-89900000D03*
X139700000Y-95250000D03*
D14*
X144200000Y-93250000D03*
D16*
X130540000Y-95250000D03*
X128540000Y-94300000D03*
X128540000Y-96200000D03*
G36*
G01*
X122320000Y-79190001D02*
X122320000Y-78289999D01*
G75*
G02*
X122569999Y-78040000I249999J0D01*
G01*
X123095001Y-78040000D01*
G75*
G02*
X123345000Y-78289999I0J-249999D01*
G01*
X123345000Y-79190001D01*
G75*
G02*
X123095001Y-79440000I-249999J0D01*
G01*
X122569999Y-79440000D01*
G75*
G02*
X122320000Y-79190001I0J249999D01*
G01*
G37*
G36*
G01*
X120495000Y-79190001D02*
X120495000Y-78289999D01*
G75*
G02*
X120744999Y-78040000I249999J0D01*
G01*
X121270001Y-78040000D01*
G75*
G02*
X121520000Y-78289999I0J-249999D01*
G01*
X121520000Y-79190001D01*
G75*
G02*
X121270001Y-79440000I-249999J0D01*
G01*
X120744999Y-79440000D01*
G75*
G02*
X120495000Y-79190001I0J249999D01*
G01*
G37*
G36*
G01*
X129940000Y-81730001D02*
X129940000Y-80829999D01*
G75*
G02*
X130189999Y-80580000I249999J0D01*
G01*
X130715001Y-80580000D01*
G75*
G02*
X130965000Y-80829999I0J-249999D01*
G01*
X130965000Y-81730001D01*
G75*
G02*
X130715001Y-81980000I-249999J0D01*
G01*
X130189999Y-81980000D01*
G75*
G02*
X129940000Y-81730001I0J249999D01*
G01*
G37*
G36*
G01*
X128115000Y-81730001D02*
X128115000Y-80829999D01*
G75*
G02*
X128364999Y-80580000I249999J0D01*
G01*
X128890001Y-80580000D01*
G75*
G02*
X129140000Y-80829999I0J-249999D01*
G01*
X129140000Y-81730001D01*
G75*
G02*
X128890001Y-81980000I-249999J0D01*
G01*
X128364999Y-81980000D01*
G75*
G02*
X128115000Y-81730001I0J249999D01*
G01*
G37*
G36*
G01*
X124305000Y-81730001D02*
X124305000Y-80829999D01*
G75*
G02*
X124554999Y-80580000I249999J0D01*
G01*
X125080001Y-80580000D01*
G75*
G02*
X125330000Y-80829999I0J-249999D01*
G01*
X125330000Y-81730001D01*
G75*
G02*
X125080001Y-81980000I-249999J0D01*
G01*
X124554999Y-81980000D01*
G75*
G02*
X124305000Y-81730001I0J249999D01*
G01*
G37*
G36*
G01*
X126130000Y-81730001D02*
X126130000Y-80829999D01*
G75*
G02*
X126379999Y-80580000I249999J0D01*
G01*
X126905001Y-80580000D01*
G75*
G02*
X127155000Y-80829999I0J-249999D01*
G01*
X127155000Y-81730001D01*
G75*
G02*
X126905001Y-81980000I-249999J0D01*
G01*
X126379999Y-81980000D01*
G75*
G02*
X126130000Y-81730001I0J249999D01*
G01*
G37*
G36*
G01*
X126130000Y-79190001D02*
X126130000Y-78289999D01*
G75*
G02*
X126379999Y-78040000I249999J0D01*
G01*
X126905001Y-78040000D01*
G75*
G02*
X127155000Y-78289999I0J-249999D01*
G01*
X127155000Y-79190001D01*
G75*
G02*
X126905001Y-79440000I-249999J0D01*
G01*
X126379999Y-79440000D01*
G75*
G02*
X126130000Y-79190001I0J249999D01*
G01*
G37*
G36*
G01*
X124305000Y-79190001D02*
X124305000Y-78289999D01*
G75*
G02*
X124554999Y-78040000I249999J0D01*
G01*
X125080001Y-78040000D01*
G75*
G02*
X125330000Y-78289999I0J-249999D01*
G01*
X125330000Y-79190001D01*
G75*
G02*
X125080001Y-79440000I-249999J0D01*
G01*
X124554999Y-79440000D01*
G75*
G02*
X124305000Y-79190001I0J249999D01*
G01*
G37*
G36*
G01*
X122320000Y-81730001D02*
X122320000Y-80829999D01*
G75*
G02*
X122569999Y-80580000I249999J0D01*
G01*
X123095001Y-80580000D01*
G75*
G02*
X123345000Y-80829999I0J-249999D01*
G01*
X123345000Y-81730001D01*
G75*
G02*
X123095001Y-81980000I-249999J0D01*
G01*
X122569999Y-81980000D01*
G75*
G02*
X122320000Y-81730001I0J249999D01*
G01*
G37*
G36*
G01*
X120495000Y-81730001D02*
X120495000Y-80829999D01*
G75*
G02*
X120744999Y-80580000I249999J0D01*
G01*
X121270001Y-80580000D01*
G75*
G02*
X121520000Y-80829999I0J-249999D01*
G01*
X121520000Y-81730001D01*
G75*
G02*
X121270001Y-81980000I-249999J0D01*
G01*
X120744999Y-81980000D01*
G75*
G02*
X120495000Y-81730001I0J249999D01*
G01*
G37*
G36*
G01*
X123640001Y-97587500D02*
X122739999Y-97587500D01*
G75*
G02*
X122490000Y-97337501I0J249999D01*
G01*
X122490000Y-96812499D01*
G75*
G02*
X122739999Y-96562500I249999J0D01*
G01*
X123640001Y-96562500D01*
G75*
G02*
X123890000Y-96812499I0J-249999D01*
G01*
X123890000Y-97337501D01*
G75*
G02*
X123640001Y-97587500I-249999J0D01*
G01*
G37*
G36*
G01*
X123640001Y-95762500D02*
X122739999Y-95762500D01*
G75*
G02*
X122490000Y-95512501I0J249999D01*
G01*
X122490000Y-94987499D01*
G75*
G02*
X122739999Y-94737500I249999J0D01*
G01*
X123640001Y-94737500D01*
G75*
G02*
X123890000Y-94987499I0J-249999D01*
G01*
X123890000Y-95512501D01*
G75*
G02*
X123640001Y-95762500I-249999J0D01*
G01*
G37*
G36*
G01*
X127155000Y-92259999D02*
X127155000Y-93160001D01*
G75*
G02*
X126905001Y-93410000I-249999J0D01*
G01*
X126379999Y-93410000D01*
G75*
G02*
X126130000Y-93160001I0J249999D01*
G01*
X126130000Y-92259999D01*
G75*
G02*
X126379999Y-92010000I249999J0D01*
G01*
X126905001Y-92010000D01*
G75*
G02*
X127155000Y-92259999I0J-249999D01*
G01*
G37*
G36*
G01*
X125330000Y-92259999D02*
X125330000Y-93160001D01*
G75*
G02*
X125080001Y-93410000I-249999J0D01*
G01*
X124554999Y-93410000D01*
G75*
G02*
X124305000Y-93160001I0J249999D01*
G01*
X124305000Y-92259999D01*
G75*
G02*
X124554999Y-92010000I249999J0D01*
G01*
X125080001Y-92010000D01*
G75*
G02*
X125330000Y-92259999I0J-249999D01*
G01*
G37*
G36*
G01*
X126130000Y-90620001D02*
X126130000Y-89719999D01*
G75*
G02*
X126379999Y-89470000I249999J0D01*
G01*
X126905001Y-89470000D01*
G75*
G02*
X127155000Y-89719999I0J-249999D01*
G01*
X127155000Y-90620001D01*
G75*
G02*
X126905001Y-90870000I-249999J0D01*
G01*
X126379999Y-90870000D01*
G75*
G02*
X126130000Y-90620001I0J249999D01*
G01*
G37*
G36*
G01*
X124305000Y-90620001D02*
X124305000Y-89719999D01*
G75*
G02*
X124554999Y-89470000I249999J0D01*
G01*
X125080001Y-89470000D01*
G75*
G02*
X125330000Y-89719999I0J-249999D01*
G01*
X125330000Y-90620001D01*
G75*
G02*
X125080001Y-90870000I-249999J0D01*
G01*
X124554999Y-90870000D01*
G75*
G02*
X124305000Y-90620001I0J249999D01*
G01*
G37*
G36*
G01*
X125279999Y-94737500D02*
X126180001Y-94737500D01*
G75*
G02*
X126430000Y-94987499I0J-249999D01*
G01*
X126430000Y-95512501D01*
G75*
G02*
X126180001Y-95762500I-249999J0D01*
G01*
X125279999Y-95762500D01*
G75*
G02*
X125030000Y-95512501I0J249999D01*
G01*
X125030000Y-94987499D01*
G75*
G02*
X125279999Y-94737500I249999J0D01*
G01*
G37*
G36*
G01*
X125279999Y-96562500D02*
X126180001Y-96562500D01*
G75*
G02*
X126430000Y-96812499I0J-249999D01*
G01*
X126430000Y-97337501D01*
G75*
G02*
X126180001Y-97587500I-249999J0D01*
G01*
X125279999Y-97587500D01*
G75*
G02*
X125030000Y-97337501I0J249999D01*
G01*
X125030000Y-96812499D01*
G75*
G02*
X125279999Y-96562500I249999J0D01*
G01*
G37*
D17*
X99205001Y-96530001D03*
X99205001Y-93990001D03*
X99205001Y-91450001D03*
X105575001Y-91450001D03*
X105575001Y-93990001D03*
X105575001Y-96530001D03*
D18*
X139700000Y-88520000D03*
X139700000Y-91820000D03*
D19*
X111760000Y-76200000D03*
D20*
X113410000Y-76200000D03*
X112926726Y-77366726D03*
X111760000Y-77850000D03*
X110593274Y-77366726D03*
X110110000Y-76200000D03*
X110593274Y-75033274D03*
X111760000Y-74550000D03*
X112926726Y-75033274D03*
X144676726Y-75033274D03*
X143510000Y-74550000D03*
X142343274Y-75033274D03*
X141860000Y-76200000D03*
X142343274Y-77366726D03*
X143510000Y-77850000D03*
X144676726Y-77366726D03*
X145160000Y-76200000D03*
D19*
X143510000Y-76200000D03*
X143510000Y-101600000D03*
D20*
X145160000Y-101600000D03*
X144676726Y-102766726D03*
X143510000Y-103250000D03*
X142343274Y-102766726D03*
X141860000Y-101600000D03*
X142343274Y-100433274D03*
X143510000Y-99950000D03*
X144676726Y-100433274D03*
X112926726Y-100433274D03*
X111760000Y-99950000D03*
X110593274Y-100433274D03*
X110110000Y-101600000D03*
X110593274Y-102766726D03*
X111760000Y-103250000D03*
X112926726Y-102766726D03*
X113410000Y-101600000D03*
D19*
X111760000Y-101600000D03*
M02*
