G04 #@! TF.GenerationSoftware,KiCad,Pcbnew,(5.1.8)-1*
G04 #@! TF.CreationDate,2021-12-09T12:47:02+01:00*
G04 #@! TF.ProjectId,Prototyp,50726f74-6f74-4797-902e-6b696361645f,rev?*
G04 #@! TF.SameCoordinates,Original*
G04 #@! TF.FileFunction,Copper,L2,Bot*
G04 #@! TF.FilePolarity,Positive*
%FSLAX46Y46*%
G04 Gerber Fmt 4.6, Leading zero omitted, Abs format (unit mm)*
G04 Created by KiCad (PCBNEW (5.1.8)-1) date 2021-12-09 12:47:02*
%MOMM*%
%LPD*%
G01*
G04 APERTURE LIST*
G04 #@! TA.AperFunction,ComponentPad*
%ADD10O,1.700000X1.700000*%
G04 #@! TD*
G04 #@! TA.AperFunction,ComponentPad*
%ADD11R,1.700000X1.700000*%
G04 #@! TD*
G04 #@! TA.AperFunction,ViaPad*
%ADD12C,0.800000*%
G04 #@! TD*
G04 #@! TA.AperFunction,Conductor*
%ADD13C,0.250000*%
G04 #@! TD*
G04 #@! TA.AperFunction,Conductor*
%ADD14C,0.254000*%
G04 #@! TD*
G04 #@! TA.AperFunction,Conductor*
%ADD15C,0.100000*%
G04 #@! TD*
G04 APERTURE END LIST*
D10*
X243332000Y-109347000D03*
X243332000Y-106807000D03*
X240792000Y-109347000D03*
X240792000Y-106807000D03*
X238252000Y-109347000D03*
X238252000Y-106807000D03*
X235712000Y-109347000D03*
D11*
X235712000Y-106807000D03*
D10*
X218059000Y-113284000D03*
X218059000Y-115824000D03*
D11*
X218059000Y-118364000D03*
D10*
X213741000Y-102870000D03*
X213741000Y-105410000D03*
X211201000Y-102870000D03*
X211201000Y-105410000D03*
X208661000Y-102870000D03*
X208661000Y-105410000D03*
X206121000Y-102870000D03*
X206121000Y-105410000D03*
X203581000Y-102870000D03*
X203581000Y-105410000D03*
X201041000Y-102870000D03*
X201041000Y-105410000D03*
X198501000Y-102870000D03*
X198501000Y-105410000D03*
X195961000Y-102870000D03*
X195961000Y-105410000D03*
X193421000Y-102870000D03*
X193421000Y-105410000D03*
X190881000Y-102870000D03*
D11*
X190881000Y-105410000D03*
D10*
X213868000Y-126238000D03*
X213868000Y-128778000D03*
X211328000Y-126238000D03*
X211328000Y-128778000D03*
X208788000Y-126238000D03*
X208788000Y-128778000D03*
X206248000Y-126238000D03*
X206248000Y-128778000D03*
X203708000Y-126238000D03*
X203708000Y-128778000D03*
X201168000Y-126238000D03*
X201168000Y-128778000D03*
X198628000Y-126238000D03*
X198628000Y-128778000D03*
X196088000Y-126238000D03*
X196088000Y-128778000D03*
X193548000Y-126238000D03*
X193548000Y-128778000D03*
X191008000Y-126238000D03*
D11*
X191008000Y-128778000D03*
D12*
X197866000Y-120269000D03*
X200279000Y-112776000D03*
X203581000Y-111887000D03*
X201930000Y-119380000D03*
D13*
X197866000Y-115189000D02*
X200279000Y-112776000D01*
X197866000Y-120269000D02*
X197866000Y-115189000D01*
X201930000Y-113538000D02*
X201930000Y-119380000D01*
X203581000Y-111887000D02*
X201930000Y-113538000D01*
D14*
X244204545Y-100647909D02*
X244555208Y-100753780D01*
X244878625Y-100925744D01*
X245162484Y-101157254D01*
X245395965Y-101439486D01*
X245570183Y-101761695D01*
X245678502Y-102111614D01*
X245720001Y-102506452D01*
X245720000Y-129507721D01*
X245681091Y-129904545D01*
X245575220Y-130255206D01*
X245403257Y-130578623D01*
X245171748Y-130862482D01*
X244889514Y-131095965D01*
X244567304Y-131270184D01*
X244217385Y-131378502D01*
X243822557Y-131420000D01*
X190659279Y-131420000D01*
X190262455Y-131381091D01*
X189911794Y-131275220D01*
X189588377Y-131103257D01*
X189304518Y-130871748D01*
X189071035Y-130589514D01*
X188896816Y-130267304D01*
X188788498Y-129917385D01*
X188747000Y-129522557D01*
X188747000Y-127928000D01*
X189519928Y-127928000D01*
X189519928Y-129628000D01*
X189532188Y-129752482D01*
X189568498Y-129872180D01*
X189627463Y-129982494D01*
X189706815Y-130079185D01*
X189803506Y-130158537D01*
X189913820Y-130217502D01*
X190033518Y-130253812D01*
X190158000Y-130266072D01*
X191858000Y-130266072D01*
X191982482Y-130253812D01*
X192102180Y-130217502D01*
X192212494Y-130158537D01*
X192309185Y-130079185D01*
X192388537Y-129982494D01*
X192447502Y-129872180D01*
X192469513Y-129799620D01*
X192601368Y-129931475D01*
X192844589Y-130093990D01*
X193114842Y-130205932D01*
X193401740Y-130263000D01*
X193694260Y-130263000D01*
X193981158Y-130205932D01*
X194251411Y-130093990D01*
X194494632Y-129931475D01*
X194701475Y-129724632D01*
X194818000Y-129550240D01*
X194934525Y-129724632D01*
X195141368Y-129931475D01*
X195384589Y-130093990D01*
X195654842Y-130205932D01*
X195941740Y-130263000D01*
X196234260Y-130263000D01*
X196521158Y-130205932D01*
X196791411Y-130093990D01*
X197034632Y-129931475D01*
X197241475Y-129724632D01*
X197358000Y-129550240D01*
X197474525Y-129724632D01*
X197681368Y-129931475D01*
X197924589Y-130093990D01*
X198194842Y-130205932D01*
X198481740Y-130263000D01*
X198774260Y-130263000D01*
X199061158Y-130205932D01*
X199331411Y-130093990D01*
X199574632Y-129931475D01*
X199781475Y-129724632D01*
X199898000Y-129550240D01*
X200014525Y-129724632D01*
X200221368Y-129931475D01*
X200464589Y-130093990D01*
X200734842Y-130205932D01*
X201021740Y-130263000D01*
X201314260Y-130263000D01*
X201601158Y-130205932D01*
X201871411Y-130093990D01*
X202114632Y-129931475D01*
X202321475Y-129724632D01*
X202438000Y-129550240D01*
X202554525Y-129724632D01*
X202761368Y-129931475D01*
X203004589Y-130093990D01*
X203274842Y-130205932D01*
X203561740Y-130263000D01*
X203854260Y-130263000D01*
X204141158Y-130205932D01*
X204411411Y-130093990D01*
X204654632Y-129931475D01*
X204861475Y-129724632D01*
X204978000Y-129550240D01*
X205094525Y-129724632D01*
X205301368Y-129931475D01*
X205544589Y-130093990D01*
X205814842Y-130205932D01*
X206101740Y-130263000D01*
X206394260Y-130263000D01*
X206681158Y-130205932D01*
X206951411Y-130093990D01*
X207194632Y-129931475D01*
X207401475Y-129724632D01*
X207518000Y-129550240D01*
X207634525Y-129724632D01*
X207841368Y-129931475D01*
X208084589Y-130093990D01*
X208354842Y-130205932D01*
X208641740Y-130263000D01*
X208934260Y-130263000D01*
X209221158Y-130205932D01*
X209491411Y-130093990D01*
X209734632Y-129931475D01*
X209941475Y-129724632D01*
X210058000Y-129550240D01*
X210174525Y-129724632D01*
X210381368Y-129931475D01*
X210624589Y-130093990D01*
X210894842Y-130205932D01*
X211181740Y-130263000D01*
X211474260Y-130263000D01*
X211761158Y-130205932D01*
X212031411Y-130093990D01*
X212274632Y-129931475D01*
X212481475Y-129724632D01*
X212598000Y-129550240D01*
X212714525Y-129724632D01*
X212921368Y-129931475D01*
X213164589Y-130093990D01*
X213434842Y-130205932D01*
X213721740Y-130263000D01*
X214014260Y-130263000D01*
X214301158Y-130205932D01*
X214571411Y-130093990D01*
X214814632Y-129931475D01*
X215021475Y-129724632D01*
X215183990Y-129481411D01*
X215295932Y-129211158D01*
X215353000Y-128924260D01*
X215353000Y-128631740D01*
X215295932Y-128344842D01*
X215183990Y-128074589D01*
X215021475Y-127831368D01*
X214814632Y-127624525D01*
X214640240Y-127508000D01*
X214814632Y-127391475D01*
X215021475Y-127184632D01*
X215183990Y-126941411D01*
X215295932Y-126671158D01*
X215353000Y-126384260D01*
X215353000Y-126091740D01*
X215295932Y-125804842D01*
X215183990Y-125534589D01*
X215021475Y-125291368D01*
X214814632Y-125084525D01*
X214571411Y-124922010D01*
X214301158Y-124810068D01*
X214014260Y-124753000D01*
X213721740Y-124753000D01*
X213434842Y-124810068D01*
X213164589Y-124922010D01*
X212921368Y-125084525D01*
X212714525Y-125291368D01*
X212598000Y-125465760D01*
X212481475Y-125291368D01*
X212274632Y-125084525D01*
X212031411Y-124922010D01*
X211761158Y-124810068D01*
X211474260Y-124753000D01*
X211181740Y-124753000D01*
X210894842Y-124810068D01*
X210624589Y-124922010D01*
X210381368Y-125084525D01*
X210174525Y-125291368D01*
X210058000Y-125465760D01*
X209941475Y-125291368D01*
X209734632Y-125084525D01*
X209491411Y-124922010D01*
X209221158Y-124810068D01*
X208934260Y-124753000D01*
X208641740Y-124753000D01*
X208354842Y-124810068D01*
X208084589Y-124922010D01*
X207841368Y-125084525D01*
X207634525Y-125291368D01*
X207518000Y-125465760D01*
X207401475Y-125291368D01*
X207194632Y-125084525D01*
X206951411Y-124922010D01*
X206681158Y-124810068D01*
X206394260Y-124753000D01*
X206101740Y-124753000D01*
X205814842Y-124810068D01*
X205544589Y-124922010D01*
X205301368Y-125084525D01*
X205094525Y-125291368D01*
X204978000Y-125465760D01*
X204861475Y-125291368D01*
X204654632Y-125084525D01*
X204411411Y-124922010D01*
X204141158Y-124810068D01*
X203854260Y-124753000D01*
X203561740Y-124753000D01*
X203274842Y-124810068D01*
X203004589Y-124922010D01*
X202761368Y-125084525D01*
X202554525Y-125291368D01*
X202438000Y-125465760D01*
X202321475Y-125291368D01*
X202114632Y-125084525D01*
X201871411Y-124922010D01*
X201601158Y-124810068D01*
X201314260Y-124753000D01*
X201021740Y-124753000D01*
X200734842Y-124810068D01*
X200464589Y-124922010D01*
X200221368Y-125084525D01*
X200014525Y-125291368D01*
X199898000Y-125465760D01*
X199781475Y-125291368D01*
X199574632Y-125084525D01*
X199331411Y-124922010D01*
X199061158Y-124810068D01*
X198774260Y-124753000D01*
X198481740Y-124753000D01*
X198194842Y-124810068D01*
X197924589Y-124922010D01*
X197681368Y-125084525D01*
X197474525Y-125291368D01*
X197358000Y-125465760D01*
X197241475Y-125291368D01*
X197034632Y-125084525D01*
X196791411Y-124922010D01*
X196521158Y-124810068D01*
X196234260Y-124753000D01*
X195941740Y-124753000D01*
X195654842Y-124810068D01*
X195384589Y-124922010D01*
X195141368Y-125084525D01*
X194934525Y-125291368D01*
X194818000Y-125465760D01*
X194701475Y-125291368D01*
X194494632Y-125084525D01*
X194251411Y-124922010D01*
X193981158Y-124810068D01*
X193694260Y-124753000D01*
X193401740Y-124753000D01*
X193114842Y-124810068D01*
X192844589Y-124922010D01*
X192601368Y-125084525D01*
X192394525Y-125291368D01*
X192278000Y-125465760D01*
X192161475Y-125291368D01*
X191954632Y-125084525D01*
X191711411Y-124922010D01*
X191441158Y-124810068D01*
X191154260Y-124753000D01*
X190861740Y-124753000D01*
X190574842Y-124810068D01*
X190304589Y-124922010D01*
X190061368Y-125084525D01*
X189854525Y-125291368D01*
X189692010Y-125534589D01*
X189580068Y-125804842D01*
X189523000Y-126091740D01*
X189523000Y-126384260D01*
X189580068Y-126671158D01*
X189692010Y-126941411D01*
X189854525Y-127184632D01*
X189986380Y-127316487D01*
X189913820Y-127338498D01*
X189803506Y-127397463D01*
X189706815Y-127476815D01*
X189627463Y-127573506D01*
X189568498Y-127683820D01*
X189532188Y-127803518D01*
X189519928Y-127928000D01*
X188747000Y-127928000D01*
X188747000Y-119278061D01*
X200895000Y-119278061D01*
X200895000Y-119481939D01*
X200934774Y-119681898D01*
X201012795Y-119870256D01*
X201126063Y-120039774D01*
X201270226Y-120183937D01*
X201439744Y-120297205D01*
X201628102Y-120375226D01*
X201828061Y-120415000D01*
X202031939Y-120415000D01*
X202231898Y-120375226D01*
X202420256Y-120297205D01*
X202589774Y-120183937D01*
X202733937Y-120039774D01*
X202847205Y-119870256D01*
X202925226Y-119681898D01*
X202965000Y-119481939D01*
X202965000Y-119278061D01*
X202925226Y-119078102D01*
X202847205Y-118889744D01*
X202733937Y-118720226D01*
X202690000Y-118676289D01*
X202690000Y-117514000D01*
X216570928Y-117514000D01*
X216570928Y-119214000D01*
X216583188Y-119338482D01*
X216619498Y-119458180D01*
X216678463Y-119568494D01*
X216757815Y-119665185D01*
X216854506Y-119744537D01*
X216964820Y-119803502D01*
X217084518Y-119839812D01*
X217209000Y-119852072D01*
X218909000Y-119852072D01*
X219033482Y-119839812D01*
X219153180Y-119803502D01*
X219263494Y-119744537D01*
X219360185Y-119665185D01*
X219439537Y-119568494D01*
X219498502Y-119458180D01*
X219534812Y-119338482D01*
X219547072Y-119214000D01*
X219547072Y-117514000D01*
X219534812Y-117389518D01*
X219498502Y-117269820D01*
X219439537Y-117159506D01*
X219360185Y-117062815D01*
X219263494Y-116983463D01*
X219153180Y-116924498D01*
X219072534Y-116900034D01*
X219156588Y-116824269D01*
X219330641Y-116590920D01*
X219455825Y-116328099D01*
X219500476Y-116180890D01*
X219379155Y-115951000D01*
X218186000Y-115951000D01*
X218186000Y-115971000D01*
X217932000Y-115971000D01*
X217932000Y-115951000D01*
X216738845Y-115951000D01*
X216617524Y-116180890D01*
X216662175Y-116328099D01*
X216787359Y-116590920D01*
X216961412Y-116824269D01*
X217045466Y-116900034D01*
X216964820Y-116924498D01*
X216854506Y-116983463D01*
X216757815Y-117062815D01*
X216678463Y-117159506D01*
X216619498Y-117269820D01*
X216583188Y-117389518D01*
X216570928Y-117514000D01*
X202690000Y-117514000D01*
X202690000Y-113852801D01*
X203405061Y-113137740D01*
X216574000Y-113137740D01*
X216574000Y-113430260D01*
X216631068Y-113717158D01*
X216743010Y-113987411D01*
X216905525Y-114230632D01*
X217112368Y-114437475D01*
X217294534Y-114559195D01*
X217177645Y-114628822D01*
X216961412Y-114823731D01*
X216787359Y-115057080D01*
X216662175Y-115319901D01*
X216617524Y-115467110D01*
X216738845Y-115697000D01*
X217932000Y-115697000D01*
X217932000Y-115677000D01*
X218186000Y-115677000D01*
X218186000Y-115697000D01*
X219379155Y-115697000D01*
X219500476Y-115467110D01*
X219455825Y-115319901D01*
X219330641Y-115057080D01*
X219156588Y-114823731D01*
X218940355Y-114628822D01*
X218823466Y-114559195D01*
X219005632Y-114437475D01*
X219212475Y-114230632D01*
X219374990Y-113987411D01*
X219486932Y-113717158D01*
X219544000Y-113430260D01*
X219544000Y-113137740D01*
X219486932Y-112850842D01*
X219374990Y-112580589D01*
X219212475Y-112337368D01*
X219005632Y-112130525D01*
X218762411Y-111968010D01*
X218492158Y-111856068D01*
X218205260Y-111799000D01*
X217912740Y-111799000D01*
X217625842Y-111856068D01*
X217355589Y-111968010D01*
X217112368Y-112130525D01*
X216905525Y-112337368D01*
X216743010Y-112580589D01*
X216631068Y-112850842D01*
X216574000Y-113137740D01*
X203405061Y-113137740D01*
X203620802Y-112922000D01*
X203682939Y-112922000D01*
X203882898Y-112882226D01*
X204071256Y-112804205D01*
X204240774Y-112690937D01*
X204384937Y-112546774D01*
X204498205Y-112377256D01*
X204576226Y-112188898D01*
X204616000Y-111988939D01*
X204616000Y-111785061D01*
X204576226Y-111585102D01*
X204498205Y-111396744D01*
X204384937Y-111227226D01*
X204240774Y-111083063D01*
X204071256Y-110969795D01*
X203882898Y-110891774D01*
X203682939Y-110852000D01*
X203479061Y-110852000D01*
X203279102Y-110891774D01*
X203090744Y-110969795D01*
X202921226Y-111083063D01*
X202777063Y-111227226D01*
X202663795Y-111396744D01*
X202585774Y-111585102D01*
X202546000Y-111785061D01*
X202546000Y-111847198D01*
X201419003Y-112974196D01*
X201389999Y-112997999D01*
X201334871Y-113065174D01*
X201295026Y-113113724D01*
X201224455Y-113245753D01*
X201224454Y-113245754D01*
X201180997Y-113389015D01*
X201170000Y-113500668D01*
X201170000Y-113500678D01*
X201166324Y-113538000D01*
X201170000Y-113575323D01*
X201170001Y-118676288D01*
X201126063Y-118720226D01*
X201012795Y-118889744D01*
X200934774Y-119078102D01*
X200895000Y-119278061D01*
X188747000Y-119278061D01*
X188747000Y-104560000D01*
X189392928Y-104560000D01*
X189392928Y-106260000D01*
X189405188Y-106384482D01*
X189441498Y-106504180D01*
X189500463Y-106614494D01*
X189579815Y-106711185D01*
X189676506Y-106790537D01*
X189786820Y-106849502D01*
X189906518Y-106885812D01*
X190031000Y-106898072D01*
X191731000Y-106898072D01*
X191855482Y-106885812D01*
X191975180Y-106849502D01*
X192085494Y-106790537D01*
X192182185Y-106711185D01*
X192261537Y-106614494D01*
X192320502Y-106504180D01*
X192342513Y-106431620D01*
X192474368Y-106563475D01*
X192717589Y-106725990D01*
X192987842Y-106837932D01*
X193274740Y-106895000D01*
X193567260Y-106895000D01*
X193854158Y-106837932D01*
X194124411Y-106725990D01*
X194367632Y-106563475D01*
X194574475Y-106356632D01*
X194691000Y-106182240D01*
X194807525Y-106356632D01*
X195014368Y-106563475D01*
X195257589Y-106725990D01*
X195527842Y-106837932D01*
X195814740Y-106895000D01*
X196107260Y-106895000D01*
X196394158Y-106837932D01*
X196664411Y-106725990D01*
X196907632Y-106563475D01*
X197114475Y-106356632D01*
X197231000Y-106182240D01*
X197347525Y-106356632D01*
X197554368Y-106563475D01*
X197797589Y-106725990D01*
X198067842Y-106837932D01*
X198354740Y-106895000D01*
X198647260Y-106895000D01*
X198934158Y-106837932D01*
X199204411Y-106725990D01*
X199447632Y-106563475D01*
X199654475Y-106356632D01*
X199771000Y-106182240D01*
X199887525Y-106356632D01*
X200094368Y-106563475D01*
X200337589Y-106725990D01*
X200607842Y-106837932D01*
X200894740Y-106895000D01*
X201187260Y-106895000D01*
X201474158Y-106837932D01*
X201744411Y-106725990D01*
X201987632Y-106563475D01*
X202194475Y-106356632D01*
X202311000Y-106182240D01*
X202427525Y-106356632D01*
X202634368Y-106563475D01*
X202877589Y-106725990D01*
X203147842Y-106837932D01*
X203434740Y-106895000D01*
X203727260Y-106895000D01*
X204014158Y-106837932D01*
X204284411Y-106725990D01*
X204527632Y-106563475D01*
X204734475Y-106356632D01*
X204851000Y-106182240D01*
X204967525Y-106356632D01*
X205174368Y-106563475D01*
X205417589Y-106725990D01*
X205687842Y-106837932D01*
X205974740Y-106895000D01*
X206267260Y-106895000D01*
X206554158Y-106837932D01*
X206824411Y-106725990D01*
X207067632Y-106563475D01*
X207274475Y-106356632D01*
X207391000Y-106182240D01*
X207507525Y-106356632D01*
X207714368Y-106563475D01*
X207957589Y-106725990D01*
X208227842Y-106837932D01*
X208514740Y-106895000D01*
X208807260Y-106895000D01*
X209094158Y-106837932D01*
X209364411Y-106725990D01*
X209607632Y-106563475D01*
X209814475Y-106356632D01*
X209931000Y-106182240D01*
X210047525Y-106356632D01*
X210254368Y-106563475D01*
X210497589Y-106725990D01*
X210767842Y-106837932D01*
X211054740Y-106895000D01*
X211347260Y-106895000D01*
X211634158Y-106837932D01*
X211904411Y-106725990D01*
X212147632Y-106563475D01*
X212354475Y-106356632D01*
X212471000Y-106182240D01*
X212587525Y-106356632D01*
X212794368Y-106563475D01*
X213037589Y-106725990D01*
X213307842Y-106837932D01*
X213594740Y-106895000D01*
X213887260Y-106895000D01*
X214174158Y-106837932D01*
X214444411Y-106725990D01*
X214687632Y-106563475D01*
X214894475Y-106356632D01*
X215056990Y-106113411D01*
X215121777Y-105957000D01*
X234223928Y-105957000D01*
X234223928Y-107657000D01*
X234236188Y-107781482D01*
X234272498Y-107901180D01*
X234331463Y-108011494D01*
X234410815Y-108108185D01*
X234507506Y-108187537D01*
X234617820Y-108246502D01*
X234690380Y-108268513D01*
X234558525Y-108400368D01*
X234396010Y-108643589D01*
X234284068Y-108913842D01*
X234227000Y-109200740D01*
X234227000Y-109493260D01*
X234284068Y-109780158D01*
X234396010Y-110050411D01*
X234558525Y-110293632D01*
X234765368Y-110500475D01*
X235008589Y-110662990D01*
X235278842Y-110774932D01*
X235565740Y-110832000D01*
X235858260Y-110832000D01*
X236145158Y-110774932D01*
X236415411Y-110662990D01*
X236658632Y-110500475D01*
X236865475Y-110293632D01*
X236987195Y-110111466D01*
X237056822Y-110228355D01*
X237251731Y-110444588D01*
X237485080Y-110618641D01*
X237747901Y-110743825D01*
X237895110Y-110788476D01*
X238125000Y-110667155D01*
X238125000Y-109474000D01*
X238105000Y-109474000D01*
X238105000Y-109220000D01*
X238125000Y-109220000D01*
X238125000Y-109200000D01*
X238379000Y-109200000D01*
X238379000Y-109220000D01*
X238399000Y-109220000D01*
X238399000Y-109474000D01*
X238379000Y-109474000D01*
X238379000Y-110667155D01*
X238608890Y-110788476D01*
X238756099Y-110743825D01*
X239018920Y-110618641D01*
X239252269Y-110444588D01*
X239447178Y-110228355D01*
X239516805Y-110111466D01*
X239638525Y-110293632D01*
X239845368Y-110500475D01*
X240088589Y-110662990D01*
X240358842Y-110774932D01*
X240645740Y-110832000D01*
X240938260Y-110832000D01*
X241225158Y-110774932D01*
X241495411Y-110662990D01*
X241738632Y-110500475D01*
X241945475Y-110293632D01*
X242062000Y-110119240D01*
X242178525Y-110293632D01*
X242385368Y-110500475D01*
X242628589Y-110662990D01*
X242898842Y-110774932D01*
X243185740Y-110832000D01*
X243478260Y-110832000D01*
X243765158Y-110774932D01*
X244035411Y-110662990D01*
X244278632Y-110500475D01*
X244485475Y-110293632D01*
X244647990Y-110050411D01*
X244759932Y-109780158D01*
X244817000Y-109493260D01*
X244817000Y-109200740D01*
X244759932Y-108913842D01*
X244647990Y-108643589D01*
X244485475Y-108400368D01*
X244278632Y-108193525D01*
X244104240Y-108077000D01*
X244278632Y-107960475D01*
X244485475Y-107753632D01*
X244647990Y-107510411D01*
X244759932Y-107240158D01*
X244817000Y-106953260D01*
X244817000Y-106660740D01*
X244759932Y-106373842D01*
X244647990Y-106103589D01*
X244485475Y-105860368D01*
X244278632Y-105653525D01*
X244035411Y-105491010D01*
X243765158Y-105379068D01*
X243478260Y-105322000D01*
X243185740Y-105322000D01*
X242898842Y-105379068D01*
X242628589Y-105491010D01*
X242385368Y-105653525D01*
X242178525Y-105860368D01*
X242062000Y-106034760D01*
X241945475Y-105860368D01*
X241738632Y-105653525D01*
X241495411Y-105491010D01*
X241225158Y-105379068D01*
X240938260Y-105322000D01*
X240645740Y-105322000D01*
X240358842Y-105379068D01*
X240088589Y-105491010D01*
X239845368Y-105653525D01*
X239638525Y-105860368D01*
X239522000Y-106034760D01*
X239405475Y-105860368D01*
X239198632Y-105653525D01*
X238955411Y-105491010D01*
X238685158Y-105379068D01*
X238398260Y-105322000D01*
X238105740Y-105322000D01*
X237818842Y-105379068D01*
X237548589Y-105491010D01*
X237305368Y-105653525D01*
X237173513Y-105785380D01*
X237151502Y-105712820D01*
X237092537Y-105602506D01*
X237013185Y-105505815D01*
X236916494Y-105426463D01*
X236806180Y-105367498D01*
X236686482Y-105331188D01*
X236562000Y-105318928D01*
X234862000Y-105318928D01*
X234737518Y-105331188D01*
X234617820Y-105367498D01*
X234507506Y-105426463D01*
X234410815Y-105505815D01*
X234331463Y-105602506D01*
X234272498Y-105712820D01*
X234236188Y-105832518D01*
X234223928Y-105957000D01*
X215121777Y-105957000D01*
X215168932Y-105843158D01*
X215226000Y-105556260D01*
X215226000Y-105263740D01*
X215168932Y-104976842D01*
X215056990Y-104706589D01*
X214894475Y-104463368D01*
X214687632Y-104256525D01*
X214513240Y-104140000D01*
X214687632Y-104023475D01*
X214894475Y-103816632D01*
X215056990Y-103573411D01*
X215168932Y-103303158D01*
X215226000Y-103016260D01*
X215226000Y-102723740D01*
X215168932Y-102436842D01*
X215056990Y-102166589D01*
X214894475Y-101923368D01*
X214687632Y-101716525D01*
X214444411Y-101554010D01*
X214174158Y-101442068D01*
X213887260Y-101385000D01*
X213594740Y-101385000D01*
X213307842Y-101442068D01*
X213037589Y-101554010D01*
X212794368Y-101716525D01*
X212587525Y-101923368D01*
X212471000Y-102097760D01*
X212354475Y-101923368D01*
X212147632Y-101716525D01*
X211904411Y-101554010D01*
X211634158Y-101442068D01*
X211347260Y-101385000D01*
X211054740Y-101385000D01*
X210767842Y-101442068D01*
X210497589Y-101554010D01*
X210254368Y-101716525D01*
X210047525Y-101923368D01*
X209931000Y-102097760D01*
X209814475Y-101923368D01*
X209607632Y-101716525D01*
X209364411Y-101554010D01*
X209094158Y-101442068D01*
X208807260Y-101385000D01*
X208514740Y-101385000D01*
X208227842Y-101442068D01*
X207957589Y-101554010D01*
X207714368Y-101716525D01*
X207507525Y-101923368D01*
X207391000Y-102097760D01*
X207274475Y-101923368D01*
X207067632Y-101716525D01*
X206824411Y-101554010D01*
X206554158Y-101442068D01*
X206267260Y-101385000D01*
X205974740Y-101385000D01*
X205687842Y-101442068D01*
X205417589Y-101554010D01*
X205174368Y-101716525D01*
X204967525Y-101923368D01*
X204851000Y-102097760D01*
X204734475Y-101923368D01*
X204527632Y-101716525D01*
X204284411Y-101554010D01*
X204014158Y-101442068D01*
X203727260Y-101385000D01*
X203434740Y-101385000D01*
X203147842Y-101442068D01*
X202877589Y-101554010D01*
X202634368Y-101716525D01*
X202427525Y-101923368D01*
X202311000Y-102097760D01*
X202194475Y-101923368D01*
X201987632Y-101716525D01*
X201744411Y-101554010D01*
X201474158Y-101442068D01*
X201187260Y-101385000D01*
X200894740Y-101385000D01*
X200607842Y-101442068D01*
X200337589Y-101554010D01*
X200094368Y-101716525D01*
X199887525Y-101923368D01*
X199771000Y-102097760D01*
X199654475Y-101923368D01*
X199447632Y-101716525D01*
X199204411Y-101554010D01*
X198934158Y-101442068D01*
X198647260Y-101385000D01*
X198354740Y-101385000D01*
X198067842Y-101442068D01*
X197797589Y-101554010D01*
X197554368Y-101716525D01*
X197347525Y-101923368D01*
X197231000Y-102097760D01*
X197114475Y-101923368D01*
X196907632Y-101716525D01*
X196664411Y-101554010D01*
X196394158Y-101442068D01*
X196107260Y-101385000D01*
X195814740Y-101385000D01*
X195527842Y-101442068D01*
X195257589Y-101554010D01*
X195014368Y-101716525D01*
X194807525Y-101923368D01*
X194691000Y-102097760D01*
X194574475Y-101923368D01*
X194367632Y-101716525D01*
X194124411Y-101554010D01*
X193854158Y-101442068D01*
X193567260Y-101385000D01*
X193274740Y-101385000D01*
X192987842Y-101442068D01*
X192717589Y-101554010D01*
X192474368Y-101716525D01*
X192267525Y-101923368D01*
X192151000Y-102097760D01*
X192034475Y-101923368D01*
X191827632Y-101716525D01*
X191584411Y-101554010D01*
X191314158Y-101442068D01*
X191027260Y-101385000D01*
X190734740Y-101385000D01*
X190447842Y-101442068D01*
X190177589Y-101554010D01*
X189934368Y-101716525D01*
X189727525Y-101923368D01*
X189565010Y-102166589D01*
X189453068Y-102436842D01*
X189396000Y-102723740D01*
X189396000Y-103016260D01*
X189453068Y-103303158D01*
X189565010Y-103573411D01*
X189727525Y-103816632D01*
X189859380Y-103948487D01*
X189786820Y-103970498D01*
X189676506Y-104029463D01*
X189579815Y-104108815D01*
X189500463Y-104205506D01*
X189441498Y-104315820D01*
X189405188Y-104435518D01*
X189392928Y-104560000D01*
X188747000Y-104560000D01*
X188747000Y-102521279D01*
X188785909Y-102124455D01*
X188891780Y-101773792D01*
X189063744Y-101450375D01*
X189295254Y-101166516D01*
X189577486Y-100933035D01*
X189899695Y-100758817D01*
X190249614Y-100650498D01*
X190644443Y-100609000D01*
X243807721Y-100609000D01*
X244204545Y-100647909D01*
G04 #@! TA.AperFunction,Conductor*
D15*
G36*
X244204545Y-100647909D02*
G01*
X244555208Y-100753780D01*
X244878625Y-100925744D01*
X245162484Y-101157254D01*
X245395965Y-101439486D01*
X245570183Y-101761695D01*
X245678502Y-102111614D01*
X245720001Y-102506452D01*
X245720000Y-129507721D01*
X245681091Y-129904545D01*
X245575220Y-130255206D01*
X245403257Y-130578623D01*
X245171748Y-130862482D01*
X244889514Y-131095965D01*
X244567304Y-131270184D01*
X244217385Y-131378502D01*
X243822557Y-131420000D01*
X190659279Y-131420000D01*
X190262455Y-131381091D01*
X189911794Y-131275220D01*
X189588377Y-131103257D01*
X189304518Y-130871748D01*
X189071035Y-130589514D01*
X188896816Y-130267304D01*
X188788498Y-129917385D01*
X188747000Y-129522557D01*
X188747000Y-127928000D01*
X189519928Y-127928000D01*
X189519928Y-129628000D01*
X189532188Y-129752482D01*
X189568498Y-129872180D01*
X189627463Y-129982494D01*
X189706815Y-130079185D01*
X189803506Y-130158537D01*
X189913820Y-130217502D01*
X190033518Y-130253812D01*
X190158000Y-130266072D01*
X191858000Y-130266072D01*
X191982482Y-130253812D01*
X192102180Y-130217502D01*
X192212494Y-130158537D01*
X192309185Y-130079185D01*
X192388537Y-129982494D01*
X192447502Y-129872180D01*
X192469513Y-129799620D01*
X192601368Y-129931475D01*
X192844589Y-130093990D01*
X193114842Y-130205932D01*
X193401740Y-130263000D01*
X193694260Y-130263000D01*
X193981158Y-130205932D01*
X194251411Y-130093990D01*
X194494632Y-129931475D01*
X194701475Y-129724632D01*
X194818000Y-129550240D01*
X194934525Y-129724632D01*
X195141368Y-129931475D01*
X195384589Y-130093990D01*
X195654842Y-130205932D01*
X195941740Y-130263000D01*
X196234260Y-130263000D01*
X196521158Y-130205932D01*
X196791411Y-130093990D01*
X197034632Y-129931475D01*
X197241475Y-129724632D01*
X197358000Y-129550240D01*
X197474525Y-129724632D01*
X197681368Y-129931475D01*
X197924589Y-130093990D01*
X198194842Y-130205932D01*
X198481740Y-130263000D01*
X198774260Y-130263000D01*
X199061158Y-130205932D01*
X199331411Y-130093990D01*
X199574632Y-129931475D01*
X199781475Y-129724632D01*
X199898000Y-129550240D01*
X200014525Y-129724632D01*
X200221368Y-129931475D01*
X200464589Y-130093990D01*
X200734842Y-130205932D01*
X201021740Y-130263000D01*
X201314260Y-130263000D01*
X201601158Y-130205932D01*
X201871411Y-130093990D01*
X202114632Y-129931475D01*
X202321475Y-129724632D01*
X202438000Y-129550240D01*
X202554525Y-129724632D01*
X202761368Y-129931475D01*
X203004589Y-130093990D01*
X203274842Y-130205932D01*
X203561740Y-130263000D01*
X203854260Y-130263000D01*
X204141158Y-130205932D01*
X204411411Y-130093990D01*
X204654632Y-129931475D01*
X204861475Y-129724632D01*
X204978000Y-129550240D01*
X205094525Y-129724632D01*
X205301368Y-129931475D01*
X205544589Y-130093990D01*
X205814842Y-130205932D01*
X206101740Y-130263000D01*
X206394260Y-130263000D01*
X206681158Y-130205932D01*
X206951411Y-130093990D01*
X207194632Y-129931475D01*
X207401475Y-129724632D01*
X207518000Y-129550240D01*
X207634525Y-129724632D01*
X207841368Y-129931475D01*
X208084589Y-130093990D01*
X208354842Y-130205932D01*
X208641740Y-130263000D01*
X208934260Y-130263000D01*
X209221158Y-130205932D01*
X209491411Y-130093990D01*
X209734632Y-129931475D01*
X209941475Y-129724632D01*
X210058000Y-129550240D01*
X210174525Y-129724632D01*
X210381368Y-129931475D01*
X210624589Y-130093990D01*
X210894842Y-130205932D01*
X211181740Y-130263000D01*
X211474260Y-130263000D01*
X211761158Y-130205932D01*
X212031411Y-130093990D01*
X212274632Y-129931475D01*
X212481475Y-129724632D01*
X212598000Y-129550240D01*
X212714525Y-129724632D01*
X212921368Y-129931475D01*
X213164589Y-130093990D01*
X213434842Y-130205932D01*
X213721740Y-130263000D01*
X214014260Y-130263000D01*
X214301158Y-130205932D01*
X214571411Y-130093990D01*
X214814632Y-129931475D01*
X215021475Y-129724632D01*
X215183990Y-129481411D01*
X215295932Y-129211158D01*
X215353000Y-128924260D01*
X215353000Y-128631740D01*
X215295932Y-128344842D01*
X215183990Y-128074589D01*
X215021475Y-127831368D01*
X214814632Y-127624525D01*
X214640240Y-127508000D01*
X214814632Y-127391475D01*
X215021475Y-127184632D01*
X215183990Y-126941411D01*
X215295932Y-126671158D01*
X215353000Y-126384260D01*
X215353000Y-126091740D01*
X215295932Y-125804842D01*
X215183990Y-125534589D01*
X215021475Y-125291368D01*
X214814632Y-125084525D01*
X214571411Y-124922010D01*
X214301158Y-124810068D01*
X214014260Y-124753000D01*
X213721740Y-124753000D01*
X213434842Y-124810068D01*
X213164589Y-124922010D01*
X212921368Y-125084525D01*
X212714525Y-125291368D01*
X212598000Y-125465760D01*
X212481475Y-125291368D01*
X212274632Y-125084525D01*
X212031411Y-124922010D01*
X211761158Y-124810068D01*
X211474260Y-124753000D01*
X211181740Y-124753000D01*
X210894842Y-124810068D01*
X210624589Y-124922010D01*
X210381368Y-125084525D01*
X210174525Y-125291368D01*
X210058000Y-125465760D01*
X209941475Y-125291368D01*
X209734632Y-125084525D01*
X209491411Y-124922010D01*
X209221158Y-124810068D01*
X208934260Y-124753000D01*
X208641740Y-124753000D01*
X208354842Y-124810068D01*
X208084589Y-124922010D01*
X207841368Y-125084525D01*
X207634525Y-125291368D01*
X207518000Y-125465760D01*
X207401475Y-125291368D01*
X207194632Y-125084525D01*
X206951411Y-124922010D01*
X206681158Y-124810068D01*
X206394260Y-124753000D01*
X206101740Y-124753000D01*
X205814842Y-124810068D01*
X205544589Y-124922010D01*
X205301368Y-125084525D01*
X205094525Y-125291368D01*
X204978000Y-125465760D01*
X204861475Y-125291368D01*
X204654632Y-125084525D01*
X204411411Y-124922010D01*
X204141158Y-124810068D01*
X203854260Y-124753000D01*
X203561740Y-124753000D01*
X203274842Y-124810068D01*
X203004589Y-124922010D01*
X202761368Y-125084525D01*
X202554525Y-125291368D01*
X202438000Y-125465760D01*
X202321475Y-125291368D01*
X202114632Y-125084525D01*
X201871411Y-124922010D01*
X201601158Y-124810068D01*
X201314260Y-124753000D01*
X201021740Y-124753000D01*
X200734842Y-124810068D01*
X200464589Y-124922010D01*
X200221368Y-125084525D01*
X200014525Y-125291368D01*
X199898000Y-125465760D01*
X199781475Y-125291368D01*
X199574632Y-125084525D01*
X199331411Y-124922010D01*
X199061158Y-124810068D01*
X198774260Y-124753000D01*
X198481740Y-124753000D01*
X198194842Y-124810068D01*
X197924589Y-124922010D01*
X197681368Y-125084525D01*
X197474525Y-125291368D01*
X197358000Y-125465760D01*
X197241475Y-125291368D01*
X197034632Y-125084525D01*
X196791411Y-124922010D01*
X196521158Y-124810068D01*
X196234260Y-124753000D01*
X195941740Y-124753000D01*
X195654842Y-124810068D01*
X195384589Y-124922010D01*
X195141368Y-125084525D01*
X194934525Y-125291368D01*
X194818000Y-125465760D01*
X194701475Y-125291368D01*
X194494632Y-125084525D01*
X194251411Y-124922010D01*
X193981158Y-124810068D01*
X193694260Y-124753000D01*
X193401740Y-124753000D01*
X193114842Y-124810068D01*
X192844589Y-124922010D01*
X192601368Y-125084525D01*
X192394525Y-125291368D01*
X192278000Y-125465760D01*
X192161475Y-125291368D01*
X191954632Y-125084525D01*
X191711411Y-124922010D01*
X191441158Y-124810068D01*
X191154260Y-124753000D01*
X190861740Y-124753000D01*
X190574842Y-124810068D01*
X190304589Y-124922010D01*
X190061368Y-125084525D01*
X189854525Y-125291368D01*
X189692010Y-125534589D01*
X189580068Y-125804842D01*
X189523000Y-126091740D01*
X189523000Y-126384260D01*
X189580068Y-126671158D01*
X189692010Y-126941411D01*
X189854525Y-127184632D01*
X189986380Y-127316487D01*
X189913820Y-127338498D01*
X189803506Y-127397463D01*
X189706815Y-127476815D01*
X189627463Y-127573506D01*
X189568498Y-127683820D01*
X189532188Y-127803518D01*
X189519928Y-127928000D01*
X188747000Y-127928000D01*
X188747000Y-119278061D01*
X200895000Y-119278061D01*
X200895000Y-119481939D01*
X200934774Y-119681898D01*
X201012795Y-119870256D01*
X201126063Y-120039774D01*
X201270226Y-120183937D01*
X201439744Y-120297205D01*
X201628102Y-120375226D01*
X201828061Y-120415000D01*
X202031939Y-120415000D01*
X202231898Y-120375226D01*
X202420256Y-120297205D01*
X202589774Y-120183937D01*
X202733937Y-120039774D01*
X202847205Y-119870256D01*
X202925226Y-119681898D01*
X202965000Y-119481939D01*
X202965000Y-119278061D01*
X202925226Y-119078102D01*
X202847205Y-118889744D01*
X202733937Y-118720226D01*
X202690000Y-118676289D01*
X202690000Y-117514000D01*
X216570928Y-117514000D01*
X216570928Y-119214000D01*
X216583188Y-119338482D01*
X216619498Y-119458180D01*
X216678463Y-119568494D01*
X216757815Y-119665185D01*
X216854506Y-119744537D01*
X216964820Y-119803502D01*
X217084518Y-119839812D01*
X217209000Y-119852072D01*
X218909000Y-119852072D01*
X219033482Y-119839812D01*
X219153180Y-119803502D01*
X219263494Y-119744537D01*
X219360185Y-119665185D01*
X219439537Y-119568494D01*
X219498502Y-119458180D01*
X219534812Y-119338482D01*
X219547072Y-119214000D01*
X219547072Y-117514000D01*
X219534812Y-117389518D01*
X219498502Y-117269820D01*
X219439537Y-117159506D01*
X219360185Y-117062815D01*
X219263494Y-116983463D01*
X219153180Y-116924498D01*
X219072534Y-116900034D01*
X219156588Y-116824269D01*
X219330641Y-116590920D01*
X219455825Y-116328099D01*
X219500476Y-116180890D01*
X219379155Y-115951000D01*
X218186000Y-115951000D01*
X218186000Y-115971000D01*
X217932000Y-115971000D01*
X217932000Y-115951000D01*
X216738845Y-115951000D01*
X216617524Y-116180890D01*
X216662175Y-116328099D01*
X216787359Y-116590920D01*
X216961412Y-116824269D01*
X217045466Y-116900034D01*
X216964820Y-116924498D01*
X216854506Y-116983463D01*
X216757815Y-117062815D01*
X216678463Y-117159506D01*
X216619498Y-117269820D01*
X216583188Y-117389518D01*
X216570928Y-117514000D01*
X202690000Y-117514000D01*
X202690000Y-113852801D01*
X203405061Y-113137740D01*
X216574000Y-113137740D01*
X216574000Y-113430260D01*
X216631068Y-113717158D01*
X216743010Y-113987411D01*
X216905525Y-114230632D01*
X217112368Y-114437475D01*
X217294534Y-114559195D01*
X217177645Y-114628822D01*
X216961412Y-114823731D01*
X216787359Y-115057080D01*
X216662175Y-115319901D01*
X216617524Y-115467110D01*
X216738845Y-115697000D01*
X217932000Y-115697000D01*
X217932000Y-115677000D01*
X218186000Y-115677000D01*
X218186000Y-115697000D01*
X219379155Y-115697000D01*
X219500476Y-115467110D01*
X219455825Y-115319901D01*
X219330641Y-115057080D01*
X219156588Y-114823731D01*
X218940355Y-114628822D01*
X218823466Y-114559195D01*
X219005632Y-114437475D01*
X219212475Y-114230632D01*
X219374990Y-113987411D01*
X219486932Y-113717158D01*
X219544000Y-113430260D01*
X219544000Y-113137740D01*
X219486932Y-112850842D01*
X219374990Y-112580589D01*
X219212475Y-112337368D01*
X219005632Y-112130525D01*
X218762411Y-111968010D01*
X218492158Y-111856068D01*
X218205260Y-111799000D01*
X217912740Y-111799000D01*
X217625842Y-111856068D01*
X217355589Y-111968010D01*
X217112368Y-112130525D01*
X216905525Y-112337368D01*
X216743010Y-112580589D01*
X216631068Y-112850842D01*
X216574000Y-113137740D01*
X203405061Y-113137740D01*
X203620802Y-112922000D01*
X203682939Y-112922000D01*
X203882898Y-112882226D01*
X204071256Y-112804205D01*
X204240774Y-112690937D01*
X204384937Y-112546774D01*
X204498205Y-112377256D01*
X204576226Y-112188898D01*
X204616000Y-111988939D01*
X204616000Y-111785061D01*
X204576226Y-111585102D01*
X204498205Y-111396744D01*
X204384937Y-111227226D01*
X204240774Y-111083063D01*
X204071256Y-110969795D01*
X203882898Y-110891774D01*
X203682939Y-110852000D01*
X203479061Y-110852000D01*
X203279102Y-110891774D01*
X203090744Y-110969795D01*
X202921226Y-111083063D01*
X202777063Y-111227226D01*
X202663795Y-111396744D01*
X202585774Y-111585102D01*
X202546000Y-111785061D01*
X202546000Y-111847198D01*
X201419003Y-112974196D01*
X201389999Y-112997999D01*
X201334871Y-113065174D01*
X201295026Y-113113724D01*
X201224455Y-113245753D01*
X201224454Y-113245754D01*
X201180997Y-113389015D01*
X201170000Y-113500668D01*
X201170000Y-113500678D01*
X201166324Y-113538000D01*
X201170000Y-113575323D01*
X201170001Y-118676288D01*
X201126063Y-118720226D01*
X201012795Y-118889744D01*
X200934774Y-119078102D01*
X200895000Y-119278061D01*
X188747000Y-119278061D01*
X188747000Y-104560000D01*
X189392928Y-104560000D01*
X189392928Y-106260000D01*
X189405188Y-106384482D01*
X189441498Y-106504180D01*
X189500463Y-106614494D01*
X189579815Y-106711185D01*
X189676506Y-106790537D01*
X189786820Y-106849502D01*
X189906518Y-106885812D01*
X190031000Y-106898072D01*
X191731000Y-106898072D01*
X191855482Y-106885812D01*
X191975180Y-106849502D01*
X192085494Y-106790537D01*
X192182185Y-106711185D01*
X192261537Y-106614494D01*
X192320502Y-106504180D01*
X192342513Y-106431620D01*
X192474368Y-106563475D01*
X192717589Y-106725990D01*
X192987842Y-106837932D01*
X193274740Y-106895000D01*
X193567260Y-106895000D01*
X193854158Y-106837932D01*
X194124411Y-106725990D01*
X194367632Y-106563475D01*
X194574475Y-106356632D01*
X194691000Y-106182240D01*
X194807525Y-106356632D01*
X195014368Y-106563475D01*
X195257589Y-106725990D01*
X195527842Y-106837932D01*
X195814740Y-106895000D01*
X196107260Y-106895000D01*
X196394158Y-106837932D01*
X196664411Y-106725990D01*
X196907632Y-106563475D01*
X197114475Y-106356632D01*
X197231000Y-106182240D01*
X197347525Y-106356632D01*
X197554368Y-106563475D01*
X197797589Y-106725990D01*
X198067842Y-106837932D01*
X198354740Y-106895000D01*
X198647260Y-106895000D01*
X198934158Y-106837932D01*
X199204411Y-106725990D01*
X199447632Y-106563475D01*
X199654475Y-106356632D01*
X199771000Y-106182240D01*
X199887525Y-106356632D01*
X200094368Y-106563475D01*
X200337589Y-106725990D01*
X200607842Y-106837932D01*
X200894740Y-106895000D01*
X201187260Y-106895000D01*
X201474158Y-106837932D01*
X201744411Y-106725990D01*
X201987632Y-106563475D01*
X202194475Y-106356632D01*
X202311000Y-106182240D01*
X202427525Y-106356632D01*
X202634368Y-106563475D01*
X202877589Y-106725990D01*
X203147842Y-106837932D01*
X203434740Y-106895000D01*
X203727260Y-106895000D01*
X204014158Y-106837932D01*
X204284411Y-106725990D01*
X204527632Y-106563475D01*
X204734475Y-106356632D01*
X204851000Y-106182240D01*
X204967525Y-106356632D01*
X205174368Y-106563475D01*
X205417589Y-106725990D01*
X205687842Y-106837932D01*
X205974740Y-106895000D01*
X206267260Y-106895000D01*
X206554158Y-106837932D01*
X206824411Y-106725990D01*
X207067632Y-106563475D01*
X207274475Y-106356632D01*
X207391000Y-106182240D01*
X207507525Y-106356632D01*
X207714368Y-106563475D01*
X207957589Y-106725990D01*
X208227842Y-106837932D01*
X208514740Y-106895000D01*
X208807260Y-106895000D01*
X209094158Y-106837932D01*
X209364411Y-106725990D01*
X209607632Y-106563475D01*
X209814475Y-106356632D01*
X209931000Y-106182240D01*
X210047525Y-106356632D01*
X210254368Y-106563475D01*
X210497589Y-106725990D01*
X210767842Y-106837932D01*
X211054740Y-106895000D01*
X211347260Y-106895000D01*
X211634158Y-106837932D01*
X211904411Y-106725990D01*
X212147632Y-106563475D01*
X212354475Y-106356632D01*
X212471000Y-106182240D01*
X212587525Y-106356632D01*
X212794368Y-106563475D01*
X213037589Y-106725990D01*
X213307842Y-106837932D01*
X213594740Y-106895000D01*
X213887260Y-106895000D01*
X214174158Y-106837932D01*
X214444411Y-106725990D01*
X214687632Y-106563475D01*
X214894475Y-106356632D01*
X215056990Y-106113411D01*
X215121777Y-105957000D01*
X234223928Y-105957000D01*
X234223928Y-107657000D01*
X234236188Y-107781482D01*
X234272498Y-107901180D01*
X234331463Y-108011494D01*
X234410815Y-108108185D01*
X234507506Y-108187537D01*
X234617820Y-108246502D01*
X234690380Y-108268513D01*
X234558525Y-108400368D01*
X234396010Y-108643589D01*
X234284068Y-108913842D01*
X234227000Y-109200740D01*
X234227000Y-109493260D01*
X234284068Y-109780158D01*
X234396010Y-110050411D01*
X234558525Y-110293632D01*
X234765368Y-110500475D01*
X235008589Y-110662990D01*
X235278842Y-110774932D01*
X235565740Y-110832000D01*
X235858260Y-110832000D01*
X236145158Y-110774932D01*
X236415411Y-110662990D01*
X236658632Y-110500475D01*
X236865475Y-110293632D01*
X236987195Y-110111466D01*
X237056822Y-110228355D01*
X237251731Y-110444588D01*
X237485080Y-110618641D01*
X237747901Y-110743825D01*
X237895110Y-110788476D01*
X238125000Y-110667155D01*
X238125000Y-109474000D01*
X238105000Y-109474000D01*
X238105000Y-109220000D01*
X238125000Y-109220000D01*
X238125000Y-109200000D01*
X238379000Y-109200000D01*
X238379000Y-109220000D01*
X238399000Y-109220000D01*
X238399000Y-109474000D01*
X238379000Y-109474000D01*
X238379000Y-110667155D01*
X238608890Y-110788476D01*
X238756099Y-110743825D01*
X239018920Y-110618641D01*
X239252269Y-110444588D01*
X239447178Y-110228355D01*
X239516805Y-110111466D01*
X239638525Y-110293632D01*
X239845368Y-110500475D01*
X240088589Y-110662990D01*
X240358842Y-110774932D01*
X240645740Y-110832000D01*
X240938260Y-110832000D01*
X241225158Y-110774932D01*
X241495411Y-110662990D01*
X241738632Y-110500475D01*
X241945475Y-110293632D01*
X242062000Y-110119240D01*
X242178525Y-110293632D01*
X242385368Y-110500475D01*
X242628589Y-110662990D01*
X242898842Y-110774932D01*
X243185740Y-110832000D01*
X243478260Y-110832000D01*
X243765158Y-110774932D01*
X244035411Y-110662990D01*
X244278632Y-110500475D01*
X244485475Y-110293632D01*
X244647990Y-110050411D01*
X244759932Y-109780158D01*
X244817000Y-109493260D01*
X244817000Y-109200740D01*
X244759932Y-108913842D01*
X244647990Y-108643589D01*
X244485475Y-108400368D01*
X244278632Y-108193525D01*
X244104240Y-108077000D01*
X244278632Y-107960475D01*
X244485475Y-107753632D01*
X244647990Y-107510411D01*
X244759932Y-107240158D01*
X244817000Y-106953260D01*
X244817000Y-106660740D01*
X244759932Y-106373842D01*
X244647990Y-106103589D01*
X244485475Y-105860368D01*
X244278632Y-105653525D01*
X244035411Y-105491010D01*
X243765158Y-105379068D01*
X243478260Y-105322000D01*
X243185740Y-105322000D01*
X242898842Y-105379068D01*
X242628589Y-105491010D01*
X242385368Y-105653525D01*
X242178525Y-105860368D01*
X242062000Y-106034760D01*
X241945475Y-105860368D01*
X241738632Y-105653525D01*
X241495411Y-105491010D01*
X241225158Y-105379068D01*
X240938260Y-105322000D01*
X240645740Y-105322000D01*
X240358842Y-105379068D01*
X240088589Y-105491010D01*
X239845368Y-105653525D01*
X239638525Y-105860368D01*
X239522000Y-106034760D01*
X239405475Y-105860368D01*
X239198632Y-105653525D01*
X238955411Y-105491010D01*
X238685158Y-105379068D01*
X238398260Y-105322000D01*
X238105740Y-105322000D01*
X237818842Y-105379068D01*
X237548589Y-105491010D01*
X237305368Y-105653525D01*
X237173513Y-105785380D01*
X237151502Y-105712820D01*
X237092537Y-105602506D01*
X237013185Y-105505815D01*
X236916494Y-105426463D01*
X236806180Y-105367498D01*
X236686482Y-105331188D01*
X236562000Y-105318928D01*
X234862000Y-105318928D01*
X234737518Y-105331188D01*
X234617820Y-105367498D01*
X234507506Y-105426463D01*
X234410815Y-105505815D01*
X234331463Y-105602506D01*
X234272498Y-105712820D01*
X234236188Y-105832518D01*
X234223928Y-105957000D01*
X215121777Y-105957000D01*
X215168932Y-105843158D01*
X215226000Y-105556260D01*
X215226000Y-105263740D01*
X215168932Y-104976842D01*
X215056990Y-104706589D01*
X214894475Y-104463368D01*
X214687632Y-104256525D01*
X214513240Y-104140000D01*
X214687632Y-104023475D01*
X214894475Y-103816632D01*
X215056990Y-103573411D01*
X215168932Y-103303158D01*
X215226000Y-103016260D01*
X215226000Y-102723740D01*
X215168932Y-102436842D01*
X215056990Y-102166589D01*
X214894475Y-101923368D01*
X214687632Y-101716525D01*
X214444411Y-101554010D01*
X214174158Y-101442068D01*
X213887260Y-101385000D01*
X213594740Y-101385000D01*
X213307842Y-101442068D01*
X213037589Y-101554010D01*
X212794368Y-101716525D01*
X212587525Y-101923368D01*
X212471000Y-102097760D01*
X212354475Y-101923368D01*
X212147632Y-101716525D01*
X211904411Y-101554010D01*
X211634158Y-101442068D01*
X211347260Y-101385000D01*
X211054740Y-101385000D01*
X210767842Y-101442068D01*
X210497589Y-101554010D01*
X210254368Y-101716525D01*
X210047525Y-101923368D01*
X209931000Y-102097760D01*
X209814475Y-101923368D01*
X209607632Y-101716525D01*
X209364411Y-101554010D01*
X209094158Y-101442068D01*
X208807260Y-101385000D01*
X208514740Y-101385000D01*
X208227842Y-101442068D01*
X207957589Y-101554010D01*
X207714368Y-101716525D01*
X207507525Y-101923368D01*
X207391000Y-102097760D01*
X207274475Y-101923368D01*
X207067632Y-101716525D01*
X206824411Y-101554010D01*
X206554158Y-101442068D01*
X206267260Y-101385000D01*
X205974740Y-101385000D01*
X205687842Y-101442068D01*
X205417589Y-101554010D01*
X205174368Y-101716525D01*
X204967525Y-101923368D01*
X204851000Y-102097760D01*
X204734475Y-101923368D01*
X204527632Y-101716525D01*
X204284411Y-101554010D01*
X204014158Y-101442068D01*
X203727260Y-101385000D01*
X203434740Y-101385000D01*
X203147842Y-101442068D01*
X202877589Y-101554010D01*
X202634368Y-101716525D01*
X202427525Y-101923368D01*
X202311000Y-102097760D01*
X202194475Y-101923368D01*
X201987632Y-101716525D01*
X201744411Y-101554010D01*
X201474158Y-101442068D01*
X201187260Y-101385000D01*
X200894740Y-101385000D01*
X200607842Y-101442068D01*
X200337589Y-101554010D01*
X200094368Y-101716525D01*
X199887525Y-101923368D01*
X199771000Y-102097760D01*
X199654475Y-101923368D01*
X199447632Y-101716525D01*
X199204411Y-101554010D01*
X198934158Y-101442068D01*
X198647260Y-101385000D01*
X198354740Y-101385000D01*
X198067842Y-101442068D01*
X197797589Y-101554010D01*
X197554368Y-101716525D01*
X197347525Y-101923368D01*
X197231000Y-102097760D01*
X197114475Y-101923368D01*
X196907632Y-101716525D01*
X196664411Y-101554010D01*
X196394158Y-101442068D01*
X196107260Y-101385000D01*
X195814740Y-101385000D01*
X195527842Y-101442068D01*
X195257589Y-101554010D01*
X195014368Y-101716525D01*
X194807525Y-101923368D01*
X194691000Y-102097760D01*
X194574475Y-101923368D01*
X194367632Y-101716525D01*
X194124411Y-101554010D01*
X193854158Y-101442068D01*
X193567260Y-101385000D01*
X193274740Y-101385000D01*
X192987842Y-101442068D01*
X192717589Y-101554010D01*
X192474368Y-101716525D01*
X192267525Y-101923368D01*
X192151000Y-102097760D01*
X192034475Y-101923368D01*
X191827632Y-101716525D01*
X191584411Y-101554010D01*
X191314158Y-101442068D01*
X191027260Y-101385000D01*
X190734740Y-101385000D01*
X190447842Y-101442068D01*
X190177589Y-101554010D01*
X189934368Y-101716525D01*
X189727525Y-101923368D01*
X189565010Y-102166589D01*
X189453068Y-102436842D01*
X189396000Y-102723740D01*
X189396000Y-103016260D01*
X189453068Y-103303158D01*
X189565010Y-103573411D01*
X189727525Y-103816632D01*
X189859380Y-103948487D01*
X189786820Y-103970498D01*
X189676506Y-104029463D01*
X189579815Y-104108815D01*
X189500463Y-104205506D01*
X189441498Y-104315820D01*
X189405188Y-104435518D01*
X189392928Y-104560000D01*
X188747000Y-104560000D01*
X188747000Y-102521279D01*
X188785909Y-102124455D01*
X188891780Y-101773792D01*
X189063744Y-101450375D01*
X189295254Y-101166516D01*
X189577486Y-100933035D01*
X189899695Y-100758817D01*
X190249614Y-100650498D01*
X190644443Y-100609000D01*
X243807721Y-100609000D01*
X244204545Y-100647909D01*
G37*
G04 #@! TD.AperFunction*
M02*
