%TF.GenerationSoftware,KiCad,Pcbnew,(5.1.8)-1*%
%TF.CreationDate,2021-12-09T12:46:23+01:00*%
%TF.ProjectId,Prototyp,50726f74-6f74-4797-902e-6b696361645f,rev?*%
%TF.SameCoordinates,Original*%
%TF.FileFunction,Soldermask,Bot*%
%TF.FilePolarity,Negative*%
%FSLAX46Y46*%
G04 Gerber Fmt 4.6, Leading zero omitted, Abs format (unit mm)*
G04 Created by KiCad (PCBNEW (5.1.8)-1) date 2021-12-09 12:46:23*
%MOMM*%
%LPD*%
G01*
G04 APERTURE LIST*
%ADD10O,1.700000X1.700000*%
%ADD11R,1.700000X1.700000*%
G04 APERTURE END LIST*
D10*
%TO.C,J3*%
X243332000Y-109347000D03*
X243332000Y-106807000D03*
X240792000Y-109347000D03*
X240792000Y-106807000D03*
X238252000Y-109347000D03*
X238252000Y-106807000D03*
X235712000Y-109347000D03*
D11*
X235712000Y-106807000D03*
%TD*%
D10*
%TO.C,J4*%
X218059000Y-113284000D03*
X218059000Y-115824000D03*
D11*
X218059000Y-118364000D03*
%TD*%
D10*
%TO.C,J2*%
X213741000Y-102870000D03*
X213741000Y-105410000D03*
X211201000Y-102870000D03*
X211201000Y-105410000D03*
X208661000Y-102870000D03*
X208661000Y-105410000D03*
X206121000Y-102870000D03*
X206121000Y-105410000D03*
X203581000Y-102870000D03*
X203581000Y-105410000D03*
X201041000Y-102870000D03*
X201041000Y-105410000D03*
X198501000Y-102870000D03*
X198501000Y-105410000D03*
X195961000Y-102870000D03*
X195961000Y-105410000D03*
X193421000Y-102870000D03*
X193421000Y-105410000D03*
X190881000Y-102870000D03*
D11*
X190881000Y-105410000D03*
%TD*%
D10*
%TO.C,J1*%
X213868000Y-126238000D03*
X213868000Y-128778000D03*
X211328000Y-126238000D03*
X211328000Y-128778000D03*
X208788000Y-126238000D03*
X208788000Y-128778000D03*
X206248000Y-126238000D03*
X206248000Y-128778000D03*
X203708000Y-126238000D03*
X203708000Y-128778000D03*
X201168000Y-126238000D03*
X201168000Y-128778000D03*
X198628000Y-126238000D03*
X198628000Y-128778000D03*
X196088000Y-126238000D03*
X196088000Y-128778000D03*
X193548000Y-126238000D03*
X193548000Y-128778000D03*
X191008000Y-126238000D03*
D11*
X191008000Y-128778000D03*
%TD*%
M02*
