G04 #@! TF.GenerationSoftware,KiCad,Pcbnew,(5.1.8)-1*
G04 #@! TF.CreationDate,2021-12-09T12:47:02+01:00*
G04 #@! TF.ProjectId,Prototyp,50726f74-6f74-4797-902e-6b696361645f,rev?*
G04 #@! TF.SameCoordinates,Original*
G04 #@! TF.FileFunction,Copper,L1,Top*
G04 #@! TF.FilePolarity,Positive*
%FSLAX46Y46*%
G04 Gerber Fmt 4.6, Leading zero omitted, Abs format (unit mm)*
G04 Created by KiCad (PCBNEW (5.1.8)-1) date 2021-12-09 12:47:02*
%MOMM*%
%LPD*%
G01*
G04 APERTURE LIST*
G04 #@! TA.AperFunction,ComponentPad*
%ADD10O,1.700000X1.700000*%
G04 #@! TD*
G04 #@! TA.AperFunction,ComponentPad*
%ADD11R,1.700000X1.700000*%
G04 #@! TD*
G04 #@! TA.AperFunction,SMDPad,CuDef*
%ADD12R,0.320000X0.800000*%
G04 #@! TD*
G04 #@! TA.AperFunction,ViaPad*
%ADD13C,0.800000*%
G04 #@! TD*
G04 #@! TA.AperFunction,Conductor*
%ADD14C,0.250000*%
G04 #@! TD*
G04 #@! TA.AperFunction,Conductor*
%ADD15C,0.254000*%
G04 #@! TD*
G04 #@! TA.AperFunction,Conductor*
%ADD16C,0.100000*%
G04 #@! TD*
G04 APERTURE END LIST*
D10*
X243332000Y-109347000D03*
X243332000Y-106807000D03*
X240792000Y-109347000D03*
X240792000Y-106807000D03*
X238252000Y-109347000D03*
X238252000Y-106807000D03*
X235712000Y-109347000D03*
D11*
X235712000Y-106807000D03*
D12*
X212419000Y-121758000D03*
X212419000Y-110398000D03*
X211619000Y-121758000D03*
X211619000Y-110398000D03*
X210819000Y-121758000D03*
X210819000Y-110398000D03*
X210019000Y-121758000D03*
X210019000Y-110398000D03*
X209219000Y-121758000D03*
X209219000Y-110398000D03*
X208419000Y-121758000D03*
X208419000Y-110398000D03*
X207619000Y-121758000D03*
X207619000Y-110398000D03*
X206819000Y-121758000D03*
X206819000Y-110398000D03*
X206019000Y-121758000D03*
X206019000Y-110398000D03*
X205219000Y-121758000D03*
X205219000Y-110398000D03*
X204419000Y-121758000D03*
X204419000Y-110398000D03*
X203619000Y-121758000D03*
X203619000Y-110398000D03*
X202819000Y-121758000D03*
X202819000Y-110398000D03*
X202019000Y-121758000D03*
X202019000Y-110398000D03*
X201219000Y-121758000D03*
X201219000Y-110398000D03*
X200419000Y-121758000D03*
X200419000Y-110398000D03*
X199619000Y-121758000D03*
X199619000Y-110398000D03*
X198819000Y-121758000D03*
X198819000Y-110398000D03*
X198019000Y-121758000D03*
X198019000Y-110398000D03*
X197219000Y-121758000D03*
X197219000Y-110398000D03*
X196419000Y-121758000D03*
X196419000Y-110398000D03*
X195619000Y-121758000D03*
X195619000Y-110398000D03*
X194819000Y-121758000D03*
X194819000Y-110398000D03*
X194019000Y-121758000D03*
X194019000Y-110398000D03*
X193219000Y-121758000D03*
X193219000Y-110398000D03*
D10*
X218059000Y-113284000D03*
X218059000Y-115824000D03*
D11*
X218059000Y-118364000D03*
D10*
X213741000Y-102870000D03*
X213741000Y-105410000D03*
X211201000Y-102870000D03*
X211201000Y-105410000D03*
X208661000Y-102870000D03*
X208661000Y-105410000D03*
X206121000Y-102870000D03*
X206121000Y-105410000D03*
X203581000Y-102870000D03*
X203581000Y-105410000D03*
X201041000Y-102870000D03*
X201041000Y-105410000D03*
X198501000Y-102870000D03*
X198501000Y-105410000D03*
X195961000Y-102870000D03*
X195961000Y-105410000D03*
X193421000Y-102870000D03*
X193421000Y-105410000D03*
X190881000Y-102870000D03*
D11*
X190881000Y-105410000D03*
D10*
X213868000Y-126238000D03*
X213868000Y-128778000D03*
X211328000Y-126238000D03*
X211328000Y-128778000D03*
X208788000Y-126238000D03*
X208788000Y-128778000D03*
X206248000Y-126238000D03*
X206248000Y-128778000D03*
X203708000Y-126238000D03*
X203708000Y-128778000D03*
X201168000Y-126238000D03*
X201168000Y-128778000D03*
X198628000Y-126238000D03*
X198628000Y-128778000D03*
X196088000Y-126238000D03*
X196088000Y-128778000D03*
X193548000Y-126238000D03*
X193548000Y-128778000D03*
X191008000Y-126238000D03*
D11*
X191008000Y-128778000D03*
G04 #@! TA.AperFunction,SMDPad,CuDef*
G36*
G01*
X242536000Y-114549400D02*
X242536000Y-114050600D01*
G75*
G02*
X242576600Y-114010000I40600J0D01*
G01*
X244145400Y-114010000D01*
G75*
G02*
X244186000Y-114050600I0J-40600D01*
G01*
X244186000Y-114549400D01*
G75*
G02*
X244145400Y-114590000I-40600J0D01*
G01*
X242576600Y-114590000D01*
G75*
G02*
X242536000Y-114549400I0J40600D01*
G01*
G37*
G04 #@! TD.AperFunction*
G04 #@! TA.AperFunction,SMDPad,CuDef*
G36*
G01*
X242536000Y-115819400D02*
X242536000Y-115320600D01*
G75*
G02*
X242576600Y-115280000I40600J0D01*
G01*
X244145400Y-115280000D01*
G75*
G02*
X244186000Y-115320600I0J-40600D01*
G01*
X244186000Y-115819400D01*
G75*
G02*
X244145400Y-115860000I-40600J0D01*
G01*
X242576600Y-115860000D01*
G75*
G02*
X242536000Y-115819400I0J40600D01*
G01*
G37*
G04 #@! TD.AperFunction*
G04 #@! TA.AperFunction,SMDPad,CuDef*
G36*
G01*
X242536000Y-117089400D02*
X242536000Y-116590600D01*
G75*
G02*
X242576600Y-116550000I40600J0D01*
G01*
X244145400Y-116550000D01*
G75*
G02*
X244186000Y-116590600I0J-40600D01*
G01*
X244186000Y-117089400D01*
G75*
G02*
X244145400Y-117130000I-40600J0D01*
G01*
X242576600Y-117130000D01*
G75*
G02*
X242536000Y-117089400I0J40600D01*
G01*
G37*
G04 #@! TD.AperFunction*
G04 #@! TA.AperFunction,SMDPad,CuDef*
G36*
G01*
X242536000Y-118359400D02*
X242536000Y-117860600D01*
G75*
G02*
X242576600Y-117820000I40600J0D01*
G01*
X244145400Y-117820000D01*
G75*
G02*
X244186000Y-117860600I0J-40600D01*
G01*
X244186000Y-118359400D01*
G75*
G02*
X244145400Y-118400000I-40600J0D01*
G01*
X242576600Y-118400000D01*
G75*
G02*
X242536000Y-118359400I0J40600D01*
G01*
G37*
G04 #@! TD.AperFunction*
G04 #@! TA.AperFunction,SMDPad,CuDef*
G36*
G01*
X235366000Y-118359400D02*
X235366000Y-117860600D01*
G75*
G02*
X235406600Y-117820000I40600J0D01*
G01*
X236975400Y-117820000D01*
G75*
G02*
X237016000Y-117860600I0J-40600D01*
G01*
X237016000Y-118359400D01*
G75*
G02*
X236975400Y-118400000I-40600J0D01*
G01*
X235406600Y-118400000D01*
G75*
G02*
X235366000Y-118359400I0J40600D01*
G01*
G37*
G04 #@! TD.AperFunction*
G04 #@! TA.AperFunction,SMDPad,CuDef*
G36*
G01*
X235366000Y-117089400D02*
X235366000Y-116590600D01*
G75*
G02*
X235406600Y-116550000I40600J0D01*
G01*
X236975400Y-116550000D01*
G75*
G02*
X237016000Y-116590600I0J-40600D01*
G01*
X237016000Y-117089400D01*
G75*
G02*
X236975400Y-117130000I-40600J0D01*
G01*
X235406600Y-117130000D01*
G75*
G02*
X235366000Y-117089400I0J40600D01*
G01*
G37*
G04 #@! TD.AperFunction*
G04 #@! TA.AperFunction,SMDPad,CuDef*
G36*
G01*
X235366000Y-115819400D02*
X235366000Y-115320600D01*
G75*
G02*
X235406600Y-115280000I40600J0D01*
G01*
X236975400Y-115280000D01*
G75*
G02*
X237016000Y-115320600I0J-40600D01*
G01*
X237016000Y-115819400D01*
G75*
G02*
X236975400Y-115860000I-40600J0D01*
G01*
X235406600Y-115860000D01*
G75*
G02*
X235366000Y-115819400I0J40600D01*
G01*
G37*
G04 #@! TD.AperFunction*
G04 #@! TA.AperFunction,SMDPad,CuDef*
G36*
G01*
X235366000Y-114549400D02*
X235366000Y-114050600D01*
G75*
G02*
X235406600Y-114010000I40600J0D01*
G01*
X236975400Y-114010000D01*
G75*
G02*
X237016000Y-114050600I0J-40600D01*
G01*
X237016000Y-114549400D01*
G75*
G02*
X236975400Y-114590000I-40600J0D01*
G01*
X235406600Y-114590000D01*
G75*
G02*
X235366000Y-114549400I0J40600D01*
G01*
G37*
G04 #@! TD.AperFunction*
D13*
X197866000Y-120269000D03*
X200279000Y-112776000D03*
X203581000Y-111887000D03*
X201930000Y-119380000D03*
D14*
X213868000Y-126212590D02*
X213868000Y-126238000D01*
X210819000Y-123163590D02*
X213868000Y-126212590D01*
X210819000Y-121758000D02*
X210819000Y-123163590D01*
X215043001Y-127602999D02*
X213868000Y-128778000D01*
X215043001Y-125422001D02*
X215043001Y-127602999D01*
X211619000Y-121998000D02*
X215043001Y-125422001D01*
X211619000Y-121758000D02*
X211619000Y-121998000D01*
X211328000Y-126236590D02*
X211328000Y-126238000D01*
X209219000Y-124127590D02*
X211328000Y-126236590D01*
X209219000Y-121758000D02*
X209219000Y-124127590D01*
X212503001Y-127602999D02*
X211328000Y-128778000D01*
X212503001Y-125484001D02*
X212503001Y-127602999D01*
X210019000Y-123000000D02*
X212503001Y-125484001D01*
X210019000Y-121758000D02*
X210019000Y-123000000D01*
X207619000Y-125069000D02*
X208788000Y-126238000D01*
X207619000Y-121758000D02*
X207619000Y-125069000D01*
X210152999Y-127413001D02*
X208788000Y-128778000D01*
X210152999Y-125697999D02*
X210152999Y-127413001D01*
X208419000Y-123964000D02*
X210152999Y-125697999D01*
X208419000Y-121758000D02*
X208419000Y-123964000D01*
X206019000Y-126009000D02*
X206248000Y-126238000D01*
X206019000Y-121758000D02*
X206019000Y-126009000D01*
X207423001Y-127602999D02*
X206248000Y-128778000D01*
X207423001Y-125673999D02*
X207423001Y-127602999D01*
X206819000Y-125069998D02*
X207423001Y-125673999D01*
X206819000Y-121758000D02*
X206819000Y-125069998D01*
X204419000Y-125527000D02*
X204419000Y-121758000D01*
X203708000Y-126238000D02*
X204419000Y-125527000D01*
X204883001Y-127602999D02*
X203708000Y-128778000D01*
X204883001Y-125824999D02*
X204883001Y-127602999D01*
X205219000Y-125489000D02*
X204883001Y-125824999D01*
X205219000Y-121758000D02*
X205219000Y-125489000D01*
X202019000Y-125387000D02*
X202019000Y-121758000D01*
X201168000Y-126238000D02*
X202019000Y-125387000D01*
X202343001Y-127602999D02*
X201168000Y-128778000D01*
X202343001Y-125699409D02*
X202343001Y-127602999D01*
X203619000Y-124423410D02*
X202343001Y-125699409D01*
X203619000Y-121758000D02*
X203619000Y-124423410D01*
X199619000Y-125247000D02*
X199619000Y-121758000D01*
X198628000Y-126238000D02*
X199619000Y-125247000D01*
X199803001Y-127602999D02*
X199803001Y-125699409D01*
X201219000Y-124283410D02*
X201219000Y-121758000D01*
X199803001Y-125699409D02*
X201219000Y-124283410D01*
X198628000Y-128778000D02*
X199803001Y-127602999D01*
X198019000Y-124307000D02*
X196088000Y-126238000D01*
X198019000Y-121758000D02*
X198019000Y-124307000D01*
X198819000Y-124143410D02*
X198819000Y-121758000D01*
X197452999Y-125509411D02*
X198819000Y-124143410D01*
X197452999Y-127413001D02*
X197452999Y-125509411D01*
X196088000Y-128778000D02*
X197452999Y-127413001D01*
X196419000Y-123367000D02*
X196419000Y-121758000D01*
X193548000Y-126238000D02*
X196419000Y-123367000D01*
X197219000Y-123203410D02*
X197219000Y-121758000D01*
X194912999Y-125509411D02*
X197219000Y-123203410D01*
X194912999Y-127413001D02*
X194912999Y-125509411D01*
X193548000Y-128778000D02*
X194912999Y-127413001D01*
X194019000Y-123227000D02*
X191008000Y-126238000D01*
X194019000Y-121758000D02*
X194019000Y-123227000D01*
X194819000Y-123063410D02*
X194819000Y-121758000D01*
X192372999Y-128513001D02*
X192372999Y-125509411D01*
X192372999Y-125509411D02*
X194819000Y-123063410D01*
X192108000Y-128778000D02*
X192372999Y-128513001D01*
X191008000Y-128778000D02*
X192108000Y-128778000D01*
X214916001Y-104045001D02*
X213741000Y-102870000D01*
X214916001Y-105974001D02*
X214916001Y-104045001D01*
X211619000Y-109271002D02*
X214916001Y-105974001D01*
X211619000Y-110398000D02*
X211619000Y-109271002D01*
X210819000Y-108332000D02*
X210819000Y-110398000D01*
X213741000Y-105410000D02*
X210819000Y-108332000D01*
X212376001Y-104045001D02*
X211201000Y-102870000D01*
X212376001Y-105974001D02*
X212376001Y-104045001D01*
X210019000Y-108331002D02*
X212376001Y-105974001D01*
X210019000Y-110398000D02*
X210019000Y-108331002D01*
X209219000Y-107392000D02*
X209219000Y-110398000D01*
X211201000Y-105410000D02*
X209219000Y-107392000D01*
X209836001Y-104045001D02*
X208661000Y-102870000D01*
X209836001Y-106012999D02*
X209836001Y-104045001D01*
X208419000Y-107430000D02*
X209836001Y-106012999D01*
X208419000Y-110398000D02*
X208419000Y-107430000D01*
X207619000Y-106452000D02*
X208661000Y-105410000D01*
X207619000Y-110398000D02*
X207619000Y-106452000D01*
X207296001Y-104045001D02*
X206121000Y-102870000D01*
X207296001Y-105974001D02*
X207296001Y-104045001D01*
X206819000Y-106451002D02*
X207296001Y-105974001D01*
X206819000Y-110398000D02*
X206819000Y-106451002D01*
X206019000Y-105512000D02*
X206121000Y-105410000D01*
X206019000Y-110398000D02*
X206019000Y-105512000D01*
X204756001Y-104045001D02*
X203581000Y-102870000D01*
X204756001Y-105784003D02*
X204756001Y-104045001D01*
X205219000Y-106247002D02*
X204756001Y-105784003D01*
X205219000Y-110398000D02*
X205219000Y-106247002D01*
X204419000Y-106248000D02*
X204419000Y-110398000D01*
X203581000Y-105410000D02*
X204419000Y-106248000D01*
X202216001Y-104045001D02*
X201041000Y-102870000D01*
X202216001Y-105784003D02*
X202216001Y-104045001D01*
X203619000Y-107187002D02*
X202216001Y-105784003D01*
X203619000Y-110398000D02*
X203619000Y-107187002D01*
X202019000Y-106388000D02*
X201041000Y-105410000D01*
X202019000Y-110398000D02*
X202019000Y-106388000D01*
X199676001Y-104045001D02*
X198501000Y-102870000D01*
X199676001Y-105784003D02*
X199676001Y-104045001D01*
X201219000Y-107327002D02*
X199676001Y-105784003D01*
X201219000Y-110398000D02*
X201219000Y-107327002D01*
X199619000Y-106528000D02*
X198501000Y-105410000D01*
X199619000Y-110398000D02*
X199619000Y-106528000D01*
X197136001Y-104045001D02*
X195961000Y-102870000D01*
X197136001Y-105948591D02*
X197136001Y-104045001D01*
X198819000Y-107631590D02*
X197136001Y-105948591D01*
X198819000Y-110398000D02*
X198819000Y-107631590D01*
X198019000Y-107468000D02*
X195961000Y-105410000D01*
X198019000Y-110398000D02*
X198019000Y-107468000D01*
X194596001Y-104045001D02*
X193421000Y-102870000D01*
X194596001Y-105948591D02*
X194596001Y-104045001D01*
X197219000Y-108571590D02*
X194596001Y-105948591D01*
X197219000Y-110398000D02*
X197219000Y-108571590D01*
X196419000Y-108408000D02*
X196419000Y-110398000D01*
X193421000Y-105410000D02*
X196419000Y-108408000D01*
X194819000Y-109911590D02*
X194819000Y-110398000D01*
X192056001Y-104045001D02*
X190881000Y-102870000D01*
X192056001Y-105823001D02*
X192056001Y-104045001D01*
X194819000Y-108586000D02*
X192056001Y-105823001D01*
X194819000Y-110398000D02*
X194819000Y-108586000D01*
X194019000Y-110398000D02*
X194019000Y-109748000D01*
X194019000Y-108548000D02*
X190881000Y-105410000D01*
X194019000Y-110398000D02*
X194019000Y-108548000D01*
X243361000Y-109376000D02*
X243332000Y-109347000D01*
X243361000Y-114300000D02*
X243361000Y-109376000D01*
X244511010Y-107986010D02*
X243332000Y-106807000D01*
X244511010Y-115244990D02*
X244511010Y-107986010D01*
X244186000Y-115570000D02*
X244511010Y-115244990D01*
X243361000Y-115570000D02*
X244186000Y-115570000D01*
X242536000Y-116840000D02*
X240792000Y-115096000D01*
X240792000Y-115096000D02*
X240792000Y-109347000D01*
X243361000Y-116840000D02*
X242536000Y-116840000D01*
X239616999Y-107982001D02*
X240792000Y-106807000D01*
X239616999Y-115190999D02*
X239616999Y-107982001D01*
X242536000Y-118110000D02*
X239616999Y-115190999D01*
X243361000Y-118110000D02*
X242536000Y-118110000D01*
X238252000Y-116874000D02*
X238252000Y-109347000D01*
X237016000Y-118110000D02*
X238252000Y-116874000D01*
X236191000Y-118110000D02*
X237016000Y-118110000D01*
X235366000Y-116840000D02*
X236191000Y-116840000D01*
X233680000Y-115154000D02*
X235366000Y-116840000D01*
X235204998Y-105029000D02*
X233680000Y-106553998D01*
X237617000Y-105029000D02*
X235204998Y-105029000D01*
X233680000Y-106553998D02*
X233680000Y-115154000D01*
X238252000Y-105664000D02*
X237617000Y-105029000D01*
X238252000Y-106807000D02*
X238252000Y-105664000D01*
X237341010Y-110976010D02*
X235712000Y-109347000D01*
X237341010Y-115244990D02*
X237341010Y-110976010D01*
X237016000Y-115570000D02*
X237341010Y-115244990D01*
X236191000Y-115570000D02*
X237016000Y-115570000D01*
X234536999Y-107982001D02*
X235712000Y-106807000D01*
X234536999Y-112645999D02*
X234536999Y-107982001D01*
X236191000Y-114300000D02*
X234536999Y-112645999D01*
X193219000Y-110398000D02*
X193219000Y-111048000D01*
X195619000Y-111048000D02*
X195619000Y-110398000D01*
X195619000Y-111048000D02*
X195950000Y-111379000D01*
X200419000Y-111048000D02*
X200419000Y-110398000D01*
X200088000Y-111379000D02*
X200419000Y-111048000D01*
X195950000Y-111379000D02*
X200088000Y-111379000D01*
X195619000Y-111048000D02*
X195619000Y-111086000D01*
X195619000Y-111086000D02*
X195326000Y-111379000D01*
X193550000Y-111379000D02*
X193219000Y-111048000D01*
X195326000Y-111379000D02*
X193550000Y-111379000D01*
X195619000Y-121108000D02*
X195950000Y-120777000D01*
X195619000Y-121758000D02*
X195619000Y-121108000D01*
X200419000Y-121108000D02*
X200419000Y-121758000D01*
X200088000Y-120777000D02*
X200419000Y-121108000D01*
X197866000Y-120777000D02*
X197866000Y-120269000D01*
X195950000Y-120777000D02*
X197866000Y-120777000D01*
X197866000Y-120777000D02*
X200088000Y-120777000D01*
X201149500Y-111905500D02*
X201276500Y-111905500D01*
X200279000Y-112776000D02*
X201149500Y-111905500D01*
X201276500Y-111905500D02*
X202274000Y-112903000D01*
X200419000Y-111048000D02*
X201276500Y-111905500D01*
X202274000Y-112903000D02*
X210439000Y-112903000D01*
X212419000Y-112851000D02*
X212471000Y-112903000D01*
X212419000Y-110398000D02*
X212419000Y-112851000D01*
X210439000Y-112903000D02*
X212471000Y-112903000D01*
X215138000Y-112903000D02*
X218059000Y-115824000D01*
X212471000Y-112903000D02*
X215138000Y-112903000D01*
X193219000Y-121108000D02*
X194058000Y-120269000D01*
X193219000Y-121758000D02*
X193219000Y-121108000D01*
X202819000Y-111125000D02*
X203581000Y-111887000D01*
X202819000Y-110398000D02*
X202819000Y-111125000D01*
X194058000Y-120269000D02*
X194058000Y-120267000D01*
X194945000Y-119380000D02*
X201930000Y-119380000D01*
X194058000Y-120267000D02*
X194945000Y-119380000D01*
X201930000Y-119380000D02*
X202692000Y-119380000D01*
X202819000Y-121758000D02*
X202819000Y-119380000D01*
X202819000Y-119380000D02*
X210386002Y-119380000D01*
X202692000Y-119380000D02*
X202819000Y-119380000D01*
X212419000Y-121758000D02*
X212419000Y-119432000D01*
X212419000Y-119432000D02*
X212471000Y-119380000D01*
X210386002Y-119380000D02*
X212471000Y-119380000D01*
X217043000Y-119380000D02*
X218059000Y-118364000D01*
X212471000Y-119380000D02*
X217043000Y-119380000D01*
D15*
X244204545Y-100647909D02*
X244555208Y-100753780D01*
X244878625Y-100925744D01*
X245162484Y-101157254D01*
X245395965Y-101439486D01*
X245570183Y-101761695D01*
X245678502Y-102111614D01*
X245720001Y-102506452D01*
X245720000Y-129507721D01*
X245681091Y-129904545D01*
X245575220Y-130255206D01*
X245403257Y-130578623D01*
X245171748Y-130862482D01*
X244889514Y-131095965D01*
X244567304Y-131270184D01*
X244217385Y-131378502D01*
X243822557Y-131420000D01*
X190659279Y-131420000D01*
X190262455Y-131381091D01*
X189911794Y-131275220D01*
X189588377Y-131103257D01*
X189304518Y-130871748D01*
X189071035Y-130589514D01*
X188896816Y-130267304D01*
X188788498Y-129917385D01*
X188747000Y-129522557D01*
X188747000Y-127928000D01*
X189519928Y-127928000D01*
X189519928Y-129628000D01*
X189532188Y-129752482D01*
X189568498Y-129872180D01*
X189627463Y-129982494D01*
X189706815Y-130079185D01*
X189803506Y-130158537D01*
X189913820Y-130217502D01*
X190033518Y-130253812D01*
X190158000Y-130266072D01*
X191858000Y-130266072D01*
X191982482Y-130253812D01*
X192102180Y-130217502D01*
X192212494Y-130158537D01*
X192309185Y-130079185D01*
X192388537Y-129982494D01*
X192447502Y-129872180D01*
X192469513Y-129799620D01*
X192601368Y-129931475D01*
X192844589Y-130093990D01*
X193114842Y-130205932D01*
X193401740Y-130263000D01*
X193694260Y-130263000D01*
X193981158Y-130205932D01*
X194251411Y-130093990D01*
X194494632Y-129931475D01*
X194701475Y-129724632D01*
X194818000Y-129550240D01*
X194934525Y-129724632D01*
X195141368Y-129931475D01*
X195384589Y-130093990D01*
X195654842Y-130205932D01*
X195941740Y-130263000D01*
X196234260Y-130263000D01*
X196521158Y-130205932D01*
X196791411Y-130093990D01*
X197034632Y-129931475D01*
X197241475Y-129724632D01*
X197358000Y-129550240D01*
X197474525Y-129724632D01*
X197681368Y-129931475D01*
X197924589Y-130093990D01*
X198194842Y-130205932D01*
X198481740Y-130263000D01*
X198774260Y-130263000D01*
X199061158Y-130205932D01*
X199331411Y-130093990D01*
X199574632Y-129931475D01*
X199781475Y-129724632D01*
X199898000Y-129550240D01*
X200014525Y-129724632D01*
X200221368Y-129931475D01*
X200464589Y-130093990D01*
X200734842Y-130205932D01*
X201021740Y-130263000D01*
X201314260Y-130263000D01*
X201601158Y-130205932D01*
X201871411Y-130093990D01*
X202114632Y-129931475D01*
X202321475Y-129724632D01*
X202438000Y-129550240D01*
X202554525Y-129724632D01*
X202761368Y-129931475D01*
X203004589Y-130093990D01*
X203274842Y-130205932D01*
X203561740Y-130263000D01*
X203854260Y-130263000D01*
X204141158Y-130205932D01*
X204411411Y-130093990D01*
X204654632Y-129931475D01*
X204861475Y-129724632D01*
X204978000Y-129550240D01*
X205094525Y-129724632D01*
X205301368Y-129931475D01*
X205544589Y-130093990D01*
X205814842Y-130205932D01*
X206101740Y-130263000D01*
X206394260Y-130263000D01*
X206681158Y-130205932D01*
X206951411Y-130093990D01*
X207194632Y-129931475D01*
X207401475Y-129724632D01*
X207518000Y-129550240D01*
X207634525Y-129724632D01*
X207841368Y-129931475D01*
X208084589Y-130093990D01*
X208354842Y-130205932D01*
X208641740Y-130263000D01*
X208934260Y-130263000D01*
X209221158Y-130205932D01*
X209491411Y-130093990D01*
X209734632Y-129931475D01*
X209941475Y-129724632D01*
X210058000Y-129550240D01*
X210174525Y-129724632D01*
X210381368Y-129931475D01*
X210624589Y-130093990D01*
X210894842Y-130205932D01*
X211181740Y-130263000D01*
X211474260Y-130263000D01*
X211761158Y-130205932D01*
X212031411Y-130093990D01*
X212274632Y-129931475D01*
X212481475Y-129724632D01*
X212598000Y-129550240D01*
X212714525Y-129724632D01*
X212921368Y-129931475D01*
X213164589Y-130093990D01*
X213434842Y-130205932D01*
X213721740Y-130263000D01*
X214014260Y-130263000D01*
X214301158Y-130205932D01*
X214571411Y-130093990D01*
X214814632Y-129931475D01*
X215021475Y-129724632D01*
X215183990Y-129481411D01*
X215295932Y-129211158D01*
X215353000Y-128924260D01*
X215353000Y-128631740D01*
X215309210Y-128411592D01*
X215554004Y-128166798D01*
X215583002Y-128143000D01*
X215677975Y-128027275D01*
X215748547Y-127895246D01*
X215792004Y-127751985D01*
X215803001Y-127640332D01*
X215803001Y-127640323D01*
X215806677Y-127603000D01*
X215803001Y-127565677D01*
X215803001Y-125459326D01*
X215806677Y-125422001D01*
X215803001Y-125384676D01*
X215803001Y-125384668D01*
X215792004Y-125273015D01*
X215748547Y-125129754D01*
X215677975Y-124997725D01*
X215583002Y-124882000D01*
X215554005Y-124858203D01*
X213143938Y-122448136D01*
X213168502Y-122402180D01*
X213204812Y-122282482D01*
X213217072Y-122158000D01*
X213217072Y-121358000D01*
X213204812Y-121233518D01*
X213179000Y-121148427D01*
X213179000Y-120140000D01*
X217005678Y-120140000D01*
X217043000Y-120143676D01*
X217080322Y-120140000D01*
X217080333Y-120140000D01*
X217191986Y-120129003D01*
X217335247Y-120085546D01*
X217467276Y-120014974D01*
X217583001Y-119920001D01*
X217606804Y-119890998D01*
X217645729Y-119852072D01*
X218909000Y-119852072D01*
X219033482Y-119839812D01*
X219153180Y-119803502D01*
X219263494Y-119744537D01*
X219360185Y-119665185D01*
X219439537Y-119568494D01*
X219498502Y-119458180D01*
X219534812Y-119338482D01*
X219547072Y-119214000D01*
X219547072Y-118400000D01*
X234727928Y-118400000D01*
X234740188Y-118524482D01*
X234776498Y-118644180D01*
X234835463Y-118754494D01*
X234914815Y-118851185D01*
X235011506Y-118930537D01*
X235121820Y-118989502D01*
X235241518Y-119025812D01*
X235366000Y-119038072D01*
X235905250Y-119035000D01*
X236064000Y-118876250D01*
X236064000Y-118237000D01*
X236318000Y-118237000D01*
X236318000Y-118876250D01*
X236476750Y-119035000D01*
X237016000Y-119038072D01*
X237140482Y-119025812D01*
X237260180Y-118989502D01*
X237370494Y-118930537D01*
X237467185Y-118851185D01*
X237546537Y-118754494D01*
X237605502Y-118644180D01*
X237641812Y-118524482D01*
X237654072Y-118400000D01*
X237651000Y-118395750D01*
X237492250Y-118237000D01*
X236318000Y-118237000D01*
X236064000Y-118237000D01*
X234889750Y-118237000D01*
X234731000Y-118395750D01*
X234727928Y-118400000D01*
X219547072Y-118400000D01*
X219547072Y-117514000D01*
X219534812Y-117389518D01*
X219498502Y-117269820D01*
X219439537Y-117159506D01*
X219360185Y-117062815D01*
X219263494Y-116983463D01*
X219153180Y-116924498D01*
X219072534Y-116900034D01*
X219156588Y-116824269D01*
X219330641Y-116590920D01*
X219455825Y-116328099D01*
X219500476Y-116180890D01*
X219379155Y-115951000D01*
X218186000Y-115951000D01*
X218186000Y-115971000D01*
X217932000Y-115971000D01*
X217932000Y-115951000D01*
X216738845Y-115951000D01*
X216617524Y-116180890D01*
X216662175Y-116328099D01*
X216787359Y-116590920D01*
X216961412Y-116824269D01*
X217045466Y-116900034D01*
X216964820Y-116924498D01*
X216854506Y-116983463D01*
X216757815Y-117062815D01*
X216678463Y-117159506D01*
X216619498Y-117269820D01*
X216583188Y-117389518D01*
X216570928Y-117514000D01*
X216570928Y-118620000D01*
X212508322Y-118620000D01*
X212470999Y-118616324D01*
X212433677Y-118620000D01*
X202856333Y-118620000D01*
X202819000Y-118616323D01*
X202781667Y-118620000D01*
X202633711Y-118620000D01*
X202589774Y-118576063D01*
X202420256Y-118462795D01*
X202231898Y-118384774D01*
X202031939Y-118345000D01*
X201828061Y-118345000D01*
X201628102Y-118384774D01*
X201439744Y-118462795D01*
X201270226Y-118576063D01*
X201226289Y-118620000D01*
X194982322Y-118620000D01*
X194944999Y-118616324D01*
X194907676Y-118620000D01*
X194907667Y-118620000D01*
X194796014Y-118630997D01*
X194652753Y-118674454D01*
X194520724Y-118745026D01*
X194520722Y-118745027D01*
X194520723Y-118745027D01*
X194433996Y-118816201D01*
X194433992Y-118816205D01*
X194404999Y-118839999D01*
X194381205Y-118868992D01*
X193547001Y-119703198D01*
X193517999Y-119726999D01*
X193485047Y-119767151D01*
X192707998Y-120544201D01*
X192679000Y-120567999D01*
X192655202Y-120596997D01*
X192655201Y-120596998D01*
X192584026Y-120683724D01*
X192538713Y-120768498D01*
X192513454Y-120815753D01*
X192469997Y-120959014D01*
X192459000Y-121070667D01*
X192459000Y-121070678D01*
X192455324Y-121108000D01*
X192459000Y-121145322D01*
X192459000Y-121148427D01*
X192433188Y-121233518D01*
X192420928Y-121358000D01*
X192420928Y-122158000D01*
X192433188Y-122282482D01*
X192469498Y-122402180D01*
X192528463Y-122512494D01*
X192607815Y-122609185D01*
X192704506Y-122688537D01*
X192814820Y-122747502D01*
X192934518Y-122783812D01*
X193059000Y-122796072D01*
X193259001Y-122796072D01*
X193259001Y-122912197D01*
X191374408Y-124796791D01*
X191154260Y-124753000D01*
X190861740Y-124753000D01*
X190574842Y-124810068D01*
X190304589Y-124922010D01*
X190061368Y-125084525D01*
X189854525Y-125291368D01*
X189692010Y-125534589D01*
X189580068Y-125804842D01*
X189523000Y-126091740D01*
X189523000Y-126384260D01*
X189580068Y-126671158D01*
X189692010Y-126941411D01*
X189854525Y-127184632D01*
X189986380Y-127316487D01*
X189913820Y-127338498D01*
X189803506Y-127397463D01*
X189706815Y-127476815D01*
X189627463Y-127573506D01*
X189568498Y-127683820D01*
X189532188Y-127803518D01*
X189519928Y-127928000D01*
X188747000Y-127928000D01*
X188747000Y-113137740D01*
X216574000Y-113137740D01*
X216574000Y-113430260D01*
X216631068Y-113717158D01*
X216743010Y-113987411D01*
X216905525Y-114230632D01*
X217112368Y-114437475D01*
X217294534Y-114559195D01*
X217177645Y-114628822D01*
X216961412Y-114823731D01*
X216787359Y-115057080D01*
X216662175Y-115319901D01*
X216617524Y-115467110D01*
X216738845Y-115697000D01*
X217932000Y-115697000D01*
X217932000Y-115677000D01*
X218186000Y-115677000D01*
X218186000Y-115697000D01*
X219379155Y-115697000D01*
X219500476Y-115467110D01*
X219455825Y-115319901D01*
X219330641Y-115057080D01*
X219156588Y-114823731D01*
X218940355Y-114628822D01*
X218823466Y-114559195D01*
X219005632Y-114437475D01*
X219212475Y-114230632D01*
X219374990Y-113987411D01*
X219486932Y-113717158D01*
X219544000Y-113430260D01*
X219544000Y-113137740D01*
X219486932Y-112850842D01*
X219374990Y-112580589D01*
X219212475Y-112337368D01*
X219005632Y-112130525D01*
X218762411Y-111968010D01*
X218492158Y-111856068D01*
X218205260Y-111799000D01*
X217912740Y-111799000D01*
X217625842Y-111856068D01*
X217355589Y-111968010D01*
X217112368Y-112130525D01*
X216905525Y-112337368D01*
X216743010Y-112580589D01*
X216631068Y-112850842D01*
X216574000Y-113137740D01*
X188747000Y-113137740D01*
X188747000Y-110783886D01*
X192421084Y-110783886D01*
X192430588Y-110908608D01*
X192464241Y-111029080D01*
X192520751Y-111140672D01*
X192597945Y-111239094D01*
X192692857Y-111320566D01*
X192801840Y-111381956D01*
X192920706Y-111420905D01*
X193027250Y-111433000D01*
X193186000Y-111274250D01*
X193186000Y-110525000D01*
X192582750Y-110525000D01*
X192424000Y-110683750D01*
X192421084Y-110783886D01*
X188747000Y-110783886D01*
X188747000Y-110012114D01*
X192421084Y-110012114D01*
X192424000Y-110112250D01*
X192582750Y-110271000D01*
X193186000Y-110271000D01*
X193186000Y-109521750D01*
X193027250Y-109363000D01*
X192920706Y-109375095D01*
X192801840Y-109414044D01*
X192692857Y-109475434D01*
X192597945Y-109556906D01*
X192520751Y-109655328D01*
X192464241Y-109766920D01*
X192430588Y-109887392D01*
X192421084Y-110012114D01*
X188747000Y-110012114D01*
X188747000Y-104560000D01*
X189392928Y-104560000D01*
X189392928Y-106260000D01*
X189405188Y-106384482D01*
X189441498Y-106504180D01*
X189500463Y-106614494D01*
X189579815Y-106711185D01*
X189676506Y-106790537D01*
X189786820Y-106849502D01*
X189906518Y-106885812D01*
X190031000Y-106898072D01*
X191294271Y-106898072D01*
X193259001Y-108862803D01*
X193259000Y-109514750D01*
X193252000Y-109521750D01*
X193252000Y-109811503D01*
X193233188Y-109873518D01*
X193220928Y-109998000D01*
X193220928Y-110798000D01*
X193233188Y-110922482D01*
X193252000Y-110984497D01*
X193252000Y-111274250D01*
X193410750Y-111433000D01*
X193517294Y-111420905D01*
X193617112Y-111388197D01*
X193734518Y-111423812D01*
X193859000Y-111436072D01*
X194179000Y-111436072D01*
X194303482Y-111423812D01*
X194419000Y-111388770D01*
X194534518Y-111423812D01*
X194659000Y-111436072D01*
X194979000Y-111436072D01*
X195103482Y-111423812D01*
X195220888Y-111388197D01*
X195320706Y-111420905D01*
X195427250Y-111433000D01*
X195586000Y-111274250D01*
X195586000Y-110984497D01*
X195604812Y-110922482D01*
X195617072Y-110798000D01*
X195617072Y-109998000D01*
X195604812Y-109873518D01*
X195586000Y-109811503D01*
X195586000Y-109521750D01*
X195579000Y-109514750D01*
X195579000Y-108642802D01*
X195659000Y-108722802D01*
X195659001Y-109514749D01*
X195652000Y-109521750D01*
X195652000Y-109811503D01*
X195633188Y-109873518D01*
X195620928Y-109998000D01*
X195620928Y-110798000D01*
X195633188Y-110922482D01*
X195652000Y-110984497D01*
X195652000Y-111274250D01*
X195810750Y-111433000D01*
X195917294Y-111420905D01*
X196017112Y-111388197D01*
X196134518Y-111423812D01*
X196259000Y-111436072D01*
X196579000Y-111436072D01*
X196703482Y-111423812D01*
X196819000Y-111388770D01*
X196934518Y-111423812D01*
X197059000Y-111436072D01*
X197379000Y-111436072D01*
X197503482Y-111423812D01*
X197619000Y-111388770D01*
X197734518Y-111423812D01*
X197859000Y-111436072D01*
X198179000Y-111436072D01*
X198303482Y-111423812D01*
X198419000Y-111388770D01*
X198534518Y-111423812D01*
X198659000Y-111436072D01*
X198979000Y-111436072D01*
X199103482Y-111423812D01*
X199219000Y-111388770D01*
X199334518Y-111423812D01*
X199459000Y-111436072D01*
X199779000Y-111436072D01*
X199903482Y-111423812D01*
X200020888Y-111388197D01*
X200120706Y-111420905D01*
X200227250Y-111433000D01*
X200386000Y-111274250D01*
X200386000Y-110984497D01*
X200404812Y-110922482D01*
X200417072Y-110798000D01*
X200417072Y-109998000D01*
X200404812Y-109873518D01*
X200386000Y-109811503D01*
X200386000Y-109521750D01*
X200379000Y-109514750D01*
X200379000Y-107561804D01*
X200459001Y-107641805D01*
X200459000Y-109514750D01*
X200452000Y-109521750D01*
X200452000Y-109811503D01*
X200433188Y-109873518D01*
X200420928Y-109998000D01*
X200420928Y-110798000D01*
X200433188Y-110922482D01*
X200452000Y-110984497D01*
X200452000Y-111274250D01*
X200610750Y-111433000D01*
X200717294Y-111420905D01*
X200817112Y-111388197D01*
X200934518Y-111423812D01*
X201059000Y-111436072D01*
X201379000Y-111436072D01*
X201503482Y-111423812D01*
X201619000Y-111388770D01*
X201734518Y-111423812D01*
X201859000Y-111436072D01*
X202123517Y-111436072D01*
X202184026Y-111549276D01*
X202234669Y-111610984D01*
X202279000Y-111665001D01*
X202307998Y-111688799D01*
X202546000Y-111926801D01*
X202546000Y-111988939D01*
X202585774Y-112188898D01*
X202663795Y-112377256D01*
X202777063Y-112546774D01*
X202921226Y-112690937D01*
X203090744Y-112804205D01*
X203279102Y-112882226D01*
X203479061Y-112922000D01*
X203682939Y-112922000D01*
X203882898Y-112882226D01*
X204071256Y-112804205D01*
X204240774Y-112690937D01*
X204384937Y-112546774D01*
X204498205Y-112377256D01*
X204576226Y-112188898D01*
X204616000Y-111988939D01*
X204616000Y-111785061D01*
X204576226Y-111585102D01*
X204514495Y-111436072D01*
X204579000Y-111436072D01*
X204703482Y-111423812D01*
X204819000Y-111388770D01*
X204934518Y-111423812D01*
X205059000Y-111436072D01*
X205379000Y-111436072D01*
X205503482Y-111423812D01*
X205619000Y-111388770D01*
X205734518Y-111423812D01*
X205859000Y-111436072D01*
X206179000Y-111436072D01*
X206303482Y-111423812D01*
X206419000Y-111388770D01*
X206534518Y-111423812D01*
X206659000Y-111436072D01*
X206979000Y-111436072D01*
X207103482Y-111423812D01*
X207219000Y-111388770D01*
X207334518Y-111423812D01*
X207459000Y-111436072D01*
X207779000Y-111436072D01*
X207903482Y-111423812D01*
X208019000Y-111388770D01*
X208134518Y-111423812D01*
X208259000Y-111436072D01*
X208579000Y-111436072D01*
X208703482Y-111423812D01*
X208819000Y-111388770D01*
X208934518Y-111423812D01*
X209059000Y-111436072D01*
X209379000Y-111436072D01*
X209503482Y-111423812D01*
X209619000Y-111388770D01*
X209734518Y-111423812D01*
X209859000Y-111436072D01*
X210179000Y-111436072D01*
X210303482Y-111423812D01*
X210419000Y-111388770D01*
X210534518Y-111423812D01*
X210659000Y-111436072D01*
X210979000Y-111436072D01*
X211103482Y-111423812D01*
X211219000Y-111388770D01*
X211334518Y-111423812D01*
X211459000Y-111436072D01*
X211779000Y-111436072D01*
X211903482Y-111423812D01*
X212020888Y-111388197D01*
X212120706Y-111420905D01*
X212227250Y-111433000D01*
X212386000Y-111274250D01*
X212386000Y-110984497D01*
X212404812Y-110922482D01*
X212417072Y-110798000D01*
X212417072Y-110525000D01*
X212452000Y-110525000D01*
X212452000Y-111274250D01*
X212610750Y-111433000D01*
X212717294Y-111420905D01*
X212836160Y-111381956D01*
X212945143Y-111320566D01*
X213040055Y-111239094D01*
X213117249Y-111140672D01*
X213173759Y-111029080D01*
X213207412Y-110908608D01*
X213216916Y-110783886D01*
X213214000Y-110683750D01*
X213055250Y-110525000D01*
X212452000Y-110525000D01*
X212417072Y-110525000D01*
X212417072Y-110251000D01*
X212452000Y-110251000D01*
X212452000Y-110271000D01*
X213055250Y-110271000D01*
X213214000Y-110112250D01*
X213216916Y-110012114D01*
X213207412Y-109887392D01*
X213173759Y-109766920D01*
X213117249Y-109655328D01*
X213040055Y-109556906D01*
X212945143Y-109475434D01*
X212836160Y-109414044D01*
X212717294Y-109375095D01*
X212610750Y-109363000D01*
X212546002Y-109427748D01*
X212546002Y-109418801D01*
X215410805Y-106553998D01*
X232916324Y-106553998D01*
X232920000Y-106591320D01*
X232920001Y-115116668D01*
X232916324Y-115154000D01*
X232930998Y-115302985D01*
X232974454Y-115446246D01*
X233045026Y-115578276D01*
X233116201Y-115665002D01*
X233140000Y-115694001D01*
X233168998Y-115717799D01*
X234770564Y-117319366D01*
X234779589Y-117349117D01*
X234839301Y-117460830D01*
X234835463Y-117465506D01*
X234776498Y-117575820D01*
X234740188Y-117695518D01*
X234727928Y-117820000D01*
X234731000Y-117824250D01*
X234889750Y-117983000D01*
X236064000Y-117983000D01*
X236064000Y-117963000D01*
X236318000Y-117963000D01*
X236318000Y-117983000D01*
X237492250Y-117983000D01*
X237651000Y-117824250D01*
X237654072Y-117820000D01*
X237641812Y-117695518D01*
X237605502Y-117575820D01*
X237546537Y-117465506D01*
X237542699Y-117460830D01*
X237602411Y-117349117D01*
X237641032Y-117221802D01*
X237654072Y-117089400D01*
X237654072Y-116590600D01*
X237641032Y-116458198D01*
X237602411Y-116330883D01*
X237539695Y-116213550D01*
X237532678Y-116205000D01*
X237539695Y-116196450D01*
X237602411Y-116079117D01*
X237611436Y-116049365D01*
X237852008Y-115808793D01*
X237881011Y-115784991D01*
X237975984Y-115669266D01*
X238046556Y-115537237D01*
X238090013Y-115393976D01*
X238101010Y-115282323D01*
X238101010Y-115282322D01*
X238104687Y-115244990D01*
X238101010Y-115207657D01*
X238101010Y-111013332D01*
X238104686Y-110976009D01*
X238101010Y-110938686D01*
X238101010Y-110938677D01*
X238090013Y-110827024D01*
X238053038Y-110705132D01*
X238125000Y-110667155D01*
X238125000Y-109474000D01*
X238105000Y-109474000D01*
X238105000Y-109220000D01*
X238125000Y-109220000D01*
X238125000Y-109200000D01*
X238379000Y-109200000D01*
X238379000Y-109220000D01*
X238399000Y-109220000D01*
X238399000Y-109474000D01*
X238379000Y-109474000D01*
X238379000Y-110667155D01*
X238608890Y-110788476D01*
X238756099Y-110743825D01*
X238857000Y-110695765D01*
X238856999Y-115153676D01*
X238853323Y-115190999D01*
X238856999Y-115228321D01*
X238856999Y-115228331D01*
X238867996Y-115339984D01*
X238892576Y-115421014D01*
X238911453Y-115483245D01*
X238982025Y-115615275D01*
X238999035Y-115636001D01*
X239076998Y-115731000D01*
X239106002Y-115754803D01*
X241940564Y-118589366D01*
X241949589Y-118619117D01*
X242012305Y-118736450D01*
X242096706Y-118839294D01*
X242199550Y-118923695D01*
X242316883Y-118986411D01*
X242444198Y-119025032D01*
X242576600Y-119038072D01*
X244145400Y-119038072D01*
X244277802Y-119025032D01*
X244405117Y-118986411D01*
X244522450Y-118923695D01*
X244625294Y-118839294D01*
X244709695Y-118736450D01*
X244772411Y-118619117D01*
X244811032Y-118491802D01*
X244824072Y-118359400D01*
X244824072Y-117860600D01*
X244811032Y-117728198D01*
X244772411Y-117600883D01*
X244709695Y-117483550D01*
X244702678Y-117475000D01*
X244709695Y-117466450D01*
X244772411Y-117349117D01*
X244811032Y-117221802D01*
X244824072Y-117089400D01*
X244824072Y-116590600D01*
X244811032Y-116458198D01*
X244772411Y-116330883D01*
X244709695Y-116213550D01*
X244702678Y-116205000D01*
X244709695Y-116196450D01*
X244772411Y-116079117D01*
X244781436Y-116049365D01*
X245022008Y-115808793D01*
X245051011Y-115784991D01*
X245145984Y-115669266D01*
X245216556Y-115537237D01*
X245260013Y-115393976D01*
X245271010Y-115282323D01*
X245271010Y-115282322D01*
X245274687Y-115244990D01*
X245271010Y-115207657D01*
X245271010Y-108023333D01*
X245274686Y-107986010D01*
X245271010Y-107948687D01*
X245271010Y-107948677D01*
X245260013Y-107837024D01*
X245216556Y-107693763D01*
X245197973Y-107658997D01*
X245145984Y-107561733D01*
X245074809Y-107475007D01*
X245051011Y-107446009D01*
X245022013Y-107422211D01*
X244773210Y-107173408D01*
X244817000Y-106953260D01*
X244817000Y-106660740D01*
X244759932Y-106373842D01*
X244647990Y-106103589D01*
X244485475Y-105860368D01*
X244278632Y-105653525D01*
X244035411Y-105491010D01*
X243765158Y-105379068D01*
X243478260Y-105322000D01*
X243185740Y-105322000D01*
X242898842Y-105379068D01*
X242628589Y-105491010D01*
X242385368Y-105653525D01*
X242178525Y-105860368D01*
X242062000Y-106034760D01*
X241945475Y-105860368D01*
X241738632Y-105653525D01*
X241495411Y-105491010D01*
X241225158Y-105379068D01*
X240938260Y-105322000D01*
X240645740Y-105322000D01*
X240358842Y-105379068D01*
X240088589Y-105491010D01*
X239845368Y-105653525D01*
X239638525Y-105860368D01*
X239522000Y-106034760D01*
X239405475Y-105860368D01*
X239198632Y-105653525D01*
X239001684Y-105521929D01*
X239001003Y-105515014D01*
X238957546Y-105371753D01*
X238886974Y-105239724D01*
X238815799Y-105152997D01*
X238792001Y-105123999D01*
X238763002Y-105100200D01*
X238180803Y-104518002D01*
X238157001Y-104488999D01*
X238041276Y-104394026D01*
X237909247Y-104323454D01*
X237765986Y-104279997D01*
X237654333Y-104269000D01*
X237654322Y-104269000D01*
X237617000Y-104265324D01*
X237579678Y-104269000D01*
X235242321Y-104269000D01*
X235204998Y-104265324D01*
X235167675Y-104269000D01*
X235167665Y-104269000D01*
X235056012Y-104279997D01*
X234912751Y-104323454D01*
X234780722Y-104394026D01*
X234664997Y-104488999D01*
X234641199Y-104517997D01*
X233169003Y-105990194D01*
X233139999Y-106013997D01*
X233103889Y-106057998D01*
X233045026Y-106129722D01*
X232988351Y-106235753D01*
X232974454Y-106261752D01*
X232930997Y-106405013D01*
X232920000Y-106516666D01*
X232920000Y-106516676D01*
X232916324Y-106553998D01*
X215410805Y-106553998D01*
X215427005Y-106537799D01*
X215456002Y-106514002D01*
X215550975Y-106398277D01*
X215621547Y-106266248D01*
X215665004Y-106122987D01*
X215676001Y-106011334D01*
X215676001Y-106011333D01*
X215679678Y-105974001D01*
X215676001Y-105936668D01*
X215676001Y-104082323D01*
X215679677Y-104045000D01*
X215676001Y-104007677D01*
X215676001Y-104007668D01*
X215665004Y-103896015D01*
X215621547Y-103752754D01*
X215550975Y-103620725D01*
X215456002Y-103505000D01*
X215427004Y-103481202D01*
X215182210Y-103236408D01*
X215226000Y-103016260D01*
X215226000Y-102723740D01*
X215168932Y-102436842D01*
X215056990Y-102166589D01*
X214894475Y-101923368D01*
X214687632Y-101716525D01*
X214444411Y-101554010D01*
X214174158Y-101442068D01*
X213887260Y-101385000D01*
X213594740Y-101385000D01*
X213307842Y-101442068D01*
X213037589Y-101554010D01*
X212794368Y-101716525D01*
X212587525Y-101923368D01*
X212471000Y-102097760D01*
X212354475Y-101923368D01*
X212147632Y-101716525D01*
X211904411Y-101554010D01*
X211634158Y-101442068D01*
X211347260Y-101385000D01*
X211054740Y-101385000D01*
X210767842Y-101442068D01*
X210497589Y-101554010D01*
X210254368Y-101716525D01*
X210047525Y-101923368D01*
X209931000Y-102097760D01*
X209814475Y-101923368D01*
X209607632Y-101716525D01*
X209364411Y-101554010D01*
X209094158Y-101442068D01*
X208807260Y-101385000D01*
X208514740Y-101385000D01*
X208227842Y-101442068D01*
X207957589Y-101554010D01*
X207714368Y-101716525D01*
X207507525Y-101923368D01*
X207391000Y-102097760D01*
X207274475Y-101923368D01*
X207067632Y-101716525D01*
X206824411Y-101554010D01*
X206554158Y-101442068D01*
X206267260Y-101385000D01*
X205974740Y-101385000D01*
X205687842Y-101442068D01*
X205417589Y-101554010D01*
X205174368Y-101716525D01*
X204967525Y-101923368D01*
X204851000Y-102097760D01*
X204734475Y-101923368D01*
X204527632Y-101716525D01*
X204284411Y-101554010D01*
X204014158Y-101442068D01*
X203727260Y-101385000D01*
X203434740Y-101385000D01*
X203147842Y-101442068D01*
X202877589Y-101554010D01*
X202634368Y-101716525D01*
X202427525Y-101923368D01*
X202311000Y-102097760D01*
X202194475Y-101923368D01*
X201987632Y-101716525D01*
X201744411Y-101554010D01*
X201474158Y-101442068D01*
X201187260Y-101385000D01*
X200894740Y-101385000D01*
X200607842Y-101442068D01*
X200337589Y-101554010D01*
X200094368Y-101716525D01*
X199887525Y-101923368D01*
X199771000Y-102097760D01*
X199654475Y-101923368D01*
X199447632Y-101716525D01*
X199204411Y-101554010D01*
X198934158Y-101442068D01*
X198647260Y-101385000D01*
X198354740Y-101385000D01*
X198067842Y-101442068D01*
X197797589Y-101554010D01*
X197554368Y-101716525D01*
X197347525Y-101923368D01*
X197231000Y-102097760D01*
X197114475Y-101923368D01*
X196907632Y-101716525D01*
X196664411Y-101554010D01*
X196394158Y-101442068D01*
X196107260Y-101385000D01*
X195814740Y-101385000D01*
X195527842Y-101442068D01*
X195257589Y-101554010D01*
X195014368Y-101716525D01*
X194807525Y-101923368D01*
X194691000Y-102097760D01*
X194574475Y-101923368D01*
X194367632Y-101716525D01*
X194124411Y-101554010D01*
X193854158Y-101442068D01*
X193567260Y-101385000D01*
X193274740Y-101385000D01*
X192987842Y-101442068D01*
X192717589Y-101554010D01*
X192474368Y-101716525D01*
X192267525Y-101923368D01*
X192151000Y-102097760D01*
X192034475Y-101923368D01*
X191827632Y-101716525D01*
X191584411Y-101554010D01*
X191314158Y-101442068D01*
X191027260Y-101385000D01*
X190734740Y-101385000D01*
X190447842Y-101442068D01*
X190177589Y-101554010D01*
X189934368Y-101716525D01*
X189727525Y-101923368D01*
X189565010Y-102166589D01*
X189453068Y-102436842D01*
X189396000Y-102723740D01*
X189396000Y-103016260D01*
X189453068Y-103303158D01*
X189565010Y-103573411D01*
X189727525Y-103816632D01*
X189859380Y-103948487D01*
X189786820Y-103970498D01*
X189676506Y-104029463D01*
X189579815Y-104108815D01*
X189500463Y-104205506D01*
X189441498Y-104315820D01*
X189405188Y-104435518D01*
X189392928Y-104560000D01*
X188747000Y-104560000D01*
X188747000Y-102521279D01*
X188785909Y-102124455D01*
X188891780Y-101773792D01*
X189063744Y-101450375D01*
X189295254Y-101166516D01*
X189577486Y-100933035D01*
X189899695Y-100758817D01*
X190249614Y-100650498D01*
X190644443Y-100609000D01*
X243807721Y-100609000D01*
X244204545Y-100647909D01*
G04 #@! TA.AperFunction,Conductor*
D16*
G36*
X244204545Y-100647909D02*
G01*
X244555208Y-100753780D01*
X244878625Y-100925744D01*
X245162484Y-101157254D01*
X245395965Y-101439486D01*
X245570183Y-101761695D01*
X245678502Y-102111614D01*
X245720001Y-102506452D01*
X245720000Y-129507721D01*
X245681091Y-129904545D01*
X245575220Y-130255206D01*
X245403257Y-130578623D01*
X245171748Y-130862482D01*
X244889514Y-131095965D01*
X244567304Y-131270184D01*
X244217385Y-131378502D01*
X243822557Y-131420000D01*
X190659279Y-131420000D01*
X190262455Y-131381091D01*
X189911794Y-131275220D01*
X189588377Y-131103257D01*
X189304518Y-130871748D01*
X189071035Y-130589514D01*
X188896816Y-130267304D01*
X188788498Y-129917385D01*
X188747000Y-129522557D01*
X188747000Y-127928000D01*
X189519928Y-127928000D01*
X189519928Y-129628000D01*
X189532188Y-129752482D01*
X189568498Y-129872180D01*
X189627463Y-129982494D01*
X189706815Y-130079185D01*
X189803506Y-130158537D01*
X189913820Y-130217502D01*
X190033518Y-130253812D01*
X190158000Y-130266072D01*
X191858000Y-130266072D01*
X191982482Y-130253812D01*
X192102180Y-130217502D01*
X192212494Y-130158537D01*
X192309185Y-130079185D01*
X192388537Y-129982494D01*
X192447502Y-129872180D01*
X192469513Y-129799620D01*
X192601368Y-129931475D01*
X192844589Y-130093990D01*
X193114842Y-130205932D01*
X193401740Y-130263000D01*
X193694260Y-130263000D01*
X193981158Y-130205932D01*
X194251411Y-130093990D01*
X194494632Y-129931475D01*
X194701475Y-129724632D01*
X194818000Y-129550240D01*
X194934525Y-129724632D01*
X195141368Y-129931475D01*
X195384589Y-130093990D01*
X195654842Y-130205932D01*
X195941740Y-130263000D01*
X196234260Y-130263000D01*
X196521158Y-130205932D01*
X196791411Y-130093990D01*
X197034632Y-129931475D01*
X197241475Y-129724632D01*
X197358000Y-129550240D01*
X197474525Y-129724632D01*
X197681368Y-129931475D01*
X197924589Y-130093990D01*
X198194842Y-130205932D01*
X198481740Y-130263000D01*
X198774260Y-130263000D01*
X199061158Y-130205932D01*
X199331411Y-130093990D01*
X199574632Y-129931475D01*
X199781475Y-129724632D01*
X199898000Y-129550240D01*
X200014525Y-129724632D01*
X200221368Y-129931475D01*
X200464589Y-130093990D01*
X200734842Y-130205932D01*
X201021740Y-130263000D01*
X201314260Y-130263000D01*
X201601158Y-130205932D01*
X201871411Y-130093990D01*
X202114632Y-129931475D01*
X202321475Y-129724632D01*
X202438000Y-129550240D01*
X202554525Y-129724632D01*
X202761368Y-129931475D01*
X203004589Y-130093990D01*
X203274842Y-130205932D01*
X203561740Y-130263000D01*
X203854260Y-130263000D01*
X204141158Y-130205932D01*
X204411411Y-130093990D01*
X204654632Y-129931475D01*
X204861475Y-129724632D01*
X204978000Y-129550240D01*
X205094525Y-129724632D01*
X205301368Y-129931475D01*
X205544589Y-130093990D01*
X205814842Y-130205932D01*
X206101740Y-130263000D01*
X206394260Y-130263000D01*
X206681158Y-130205932D01*
X206951411Y-130093990D01*
X207194632Y-129931475D01*
X207401475Y-129724632D01*
X207518000Y-129550240D01*
X207634525Y-129724632D01*
X207841368Y-129931475D01*
X208084589Y-130093990D01*
X208354842Y-130205932D01*
X208641740Y-130263000D01*
X208934260Y-130263000D01*
X209221158Y-130205932D01*
X209491411Y-130093990D01*
X209734632Y-129931475D01*
X209941475Y-129724632D01*
X210058000Y-129550240D01*
X210174525Y-129724632D01*
X210381368Y-129931475D01*
X210624589Y-130093990D01*
X210894842Y-130205932D01*
X211181740Y-130263000D01*
X211474260Y-130263000D01*
X211761158Y-130205932D01*
X212031411Y-130093990D01*
X212274632Y-129931475D01*
X212481475Y-129724632D01*
X212598000Y-129550240D01*
X212714525Y-129724632D01*
X212921368Y-129931475D01*
X213164589Y-130093990D01*
X213434842Y-130205932D01*
X213721740Y-130263000D01*
X214014260Y-130263000D01*
X214301158Y-130205932D01*
X214571411Y-130093990D01*
X214814632Y-129931475D01*
X215021475Y-129724632D01*
X215183990Y-129481411D01*
X215295932Y-129211158D01*
X215353000Y-128924260D01*
X215353000Y-128631740D01*
X215309210Y-128411592D01*
X215554004Y-128166798D01*
X215583002Y-128143000D01*
X215677975Y-128027275D01*
X215748547Y-127895246D01*
X215792004Y-127751985D01*
X215803001Y-127640332D01*
X215803001Y-127640323D01*
X215806677Y-127603000D01*
X215803001Y-127565677D01*
X215803001Y-125459326D01*
X215806677Y-125422001D01*
X215803001Y-125384676D01*
X215803001Y-125384668D01*
X215792004Y-125273015D01*
X215748547Y-125129754D01*
X215677975Y-124997725D01*
X215583002Y-124882000D01*
X215554005Y-124858203D01*
X213143938Y-122448136D01*
X213168502Y-122402180D01*
X213204812Y-122282482D01*
X213217072Y-122158000D01*
X213217072Y-121358000D01*
X213204812Y-121233518D01*
X213179000Y-121148427D01*
X213179000Y-120140000D01*
X217005678Y-120140000D01*
X217043000Y-120143676D01*
X217080322Y-120140000D01*
X217080333Y-120140000D01*
X217191986Y-120129003D01*
X217335247Y-120085546D01*
X217467276Y-120014974D01*
X217583001Y-119920001D01*
X217606804Y-119890998D01*
X217645729Y-119852072D01*
X218909000Y-119852072D01*
X219033482Y-119839812D01*
X219153180Y-119803502D01*
X219263494Y-119744537D01*
X219360185Y-119665185D01*
X219439537Y-119568494D01*
X219498502Y-119458180D01*
X219534812Y-119338482D01*
X219547072Y-119214000D01*
X219547072Y-118400000D01*
X234727928Y-118400000D01*
X234740188Y-118524482D01*
X234776498Y-118644180D01*
X234835463Y-118754494D01*
X234914815Y-118851185D01*
X235011506Y-118930537D01*
X235121820Y-118989502D01*
X235241518Y-119025812D01*
X235366000Y-119038072D01*
X235905250Y-119035000D01*
X236064000Y-118876250D01*
X236064000Y-118237000D01*
X236318000Y-118237000D01*
X236318000Y-118876250D01*
X236476750Y-119035000D01*
X237016000Y-119038072D01*
X237140482Y-119025812D01*
X237260180Y-118989502D01*
X237370494Y-118930537D01*
X237467185Y-118851185D01*
X237546537Y-118754494D01*
X237605502Y-118644180D01*
X237641812Y-118524482D01*
X237654072Y-118400000D01*
X237651000Y-118395750D01*
X237492250Y-118237000D01*
X236318000Y-118237000D01*
X236064000Y-118237000D01*
X234889750Y-118237000D01*
X234731000Y-118395750D01*
X234727928Y-118400000D01*
X219547072Y-118400000D01*
X219547072Y-117514000D01*
X219534812Y-117389518D01*
X219498502Y-117269820D01*
X219439537Y-117159506D01*
X219360185Y-117062815D01*
X219263494Y-116983463D01*
X219153180Y-116924498D01*
X219072534Y-116900034D01*
X219156588Y-116824269D01*
X219330641Y-116590920D01*
X219455825Y-116328099D01*
X219500476Y-116180890D01*
X219379155Y-115951000D01*
X218186000Y-115951000D01*
X218186000Y-115971000D01*
X217932000Y-115971000D01*
X217932000Y-115951000D01*
X216738845Y-115951000D01*
X216617524Y-116180890D01*
X216662175Y-116328099D01*
X216787359Y-116590920D01*
X216961412Y-116824269D01*
X217045466Y-116900034D01*
X216964820Y-116924498D01*
X216854506Y-116983463D01*
X216757815Y-117062815D01*
X216678463Y-117159506D01*
X216619498Y-117269820D01*
X216583188Y-117389518D01*
X216570928Y-117514000D01*
X216570928Y-118620000D01*
X212508322Y-118620000D01*
X212470999Y-118616324D01*
X212433677Y-118620000D01*
X202856333Y-118620000D01*
X202819000Y-118616323D01*
X202781667Y-118620000D01*
X202633711Y-118620000D01*
X202589774Y-118576063D01*
X202420256Y-118462795D01*
X202231898Y-118384774D01*
X202031939Y-118345000D01*
X201828061Y-118345000D01*
X201628102Y-118384774D01*
X201439744Y-118462795D01*
X201270226Y-118576063D01*
X201226289Y-118620000D01*
X194982322Y-118620000D01*
X194944999Y-118616324D01*
X194907676Y-118620000D01*
X194907667Y-118620000D01*
X194796014Y-118630997D01*
X194652753Y-118674454D01*
X194520724Y-118745026D01*
X194520722Y-118745027D01*
X194520723Y-118745027D01*
X194433996Y-118816201D01*
X194433992Y-118816205D01*
X194404999Y-118839999D01*
X194381205Y-118868992D01*
X193547001Y-119703198D01*
X193517999Y-119726999D01*
X193485047Y-119767151D01*
X192707998Y-120544201D01*
X192679000Y-120567999D01*
X192655202Y-120596997D01*
X192655201Y-120596998D01*
X192584026Y-120683724D01*
X192538713Y-120768498D01*
X192513454Y-120815753D01*
X192469997Y-120959014D01*
X192459000Y-121070667D01*
X192459000Y-121070678D01*
X192455324Y-121108000D01*
X192459000Y-121145322D01*
X192459000Y-121148427D01*
X192433188Y-121233518D01*
X192420928Y-121358000D01*
X192420928Y-122158000D01*
X192433188Y-122282482D01*
X192469498Y-122402180D01*
X192528463Y-122512494D01*
X192607815Y-122609185D01*
X192704506Y-122688537D01*
X192814820Y-122747502D01*
X192934518Y-122783812D01*
X193059000Y-122796072D01*
X193259001Y-122796072D01*
X193259001Y-122912197D01*
X191374408Y-124796791D01*
X191154260Y-124753000D01*
X190861740Y-124753000D01*
X190574842Y-124810068D01*
X190304589Y-124922010D01*
X190061368Y-125084525D01*
X189854525Y-125291368D01*
X189692010Y-125534589D01*
X189580068Y-125804842D01*
X189523000Y-126091740D01*
X189523000Y-126384260D01*
X189580068Y-126671158D01*
X189692010Y-126941411D01*
X189854525Y-127184632D01*
X189986380Y-127316487D01*
X189913820Y-127338498D01*
X189803506Y-127397463D01*
X189706815Y-127476815D01*
X189627463Y-127573506D01*
X189568498Y-127683820D01*
X189532188Y-127803518D01*
X189519928Y-127928000D01*
X188747000Y-127928000D01*
X188747000Y-113137740D01*
X216574000Y-113137740D01*
X216574000Y-113430260D01*
X216631068Y-113717158D01*
X216743010Y-113987411D01*
X216905525Y-114230632D01*
X217112368Y-114437475D01*
X217294534Y-114559195D01*
X217177645Y-114628822D01*
X216961412Y-114823731D01*
X216787359Y-115057080D01*
X216662175Y-115319901D01*
X216617524Y-115467110D01*
X216738845Y-115697000D01*
X217932000Y-115697000D01*
X217932000Y-115677000D01*
X218186000Y-115677000D01*
X218186000Y-115697000D01*
X219379155Y-115697000D01*
X219500476Y-115467110D01*
X219455825Y-115319901D01*
X219330641Y-115057080D01*
X219156588Y-114823731D01*
X218940355Y-114628822D01*
X218823466Y-114559195D01*
X219005632Y-114437475D01*
X219212475Y-114230632D01*
X219374990Y-113987411D01*
X219486932Y-113717158D01*
X219544000Y-113430260D01*
X219544000Y-113137740D01*
X219486932Y-112850842D01*
X219374990Y-112580589D01*
X219212475Y-112337368D01*
X219005632Y-112130525D01*
X218762411Y-111968010D01*
X218492158Y-111856068D01*
X218205260Y-111799000D01*
X217912740Y-111799000D01*
X217625842Y-111856068D01*
X217355589Y-111968010D01*
X217112368Y-112130525D01*
X216905525Y-112337368D01*
X216743010Y-112580589D01*
X216631068Y-112850842D01*
X216574000Y-113137740D01*
X188747000Y-113137740D01*
X188747000Y-110783886D01*
X192421084Y-110783886D01*
X192430588Y-110908608D01*
X192464241Y-111029080D01*
X192520751Y-111140672D01*
X192597945Y-111239094D01*
X192692857Y-111320566D01*
X192801840Y-111381956D01*
X192920706Y-111420905D01*
X193027250Y-111433000D01*
X193186000Y-111274250D01*
X193186000Y-110525000D01*
X192582750Y-110525000D01*
X192424000Y-110683750D01*
X192421084Y-110783886D01*
X188747000Y-110783886D01*
X188747000Y-110012114D01*
X192421084Y-110012114D01*
X192424000Y-110112250D01*
X192582750Y-110271000D01*
X193186000Y-110271000D01*
X193186000Y-109521750D01*
X193027250Y-109363000D01*
X192920706Y-109375095D01*
X192801840Y-109414044D01*
X192692857Y-109475434D01*
X192597945Y-109556906D01*
X192520751Y-109655328D01*
X192464241Y-109766920D01*
X192430588Y-109887392D01*
X192421084Y-110012114D01*
X188747000Y-110012114D01*
X188747000Y-104560000D01*
X189392928Y-104560000D01*
X189392928Y-106260000D01*
X189405188Y-106384482D01*
X189441498Y-106504180D01*
X189500463Y-106614494D01*
X189579815Y-106711185D01*
X189676506Y-106790537D01*
X189786820Y-106849502D01*
X189906518Y-106885812D01*
X190031000Y-106898072D01*
X191294271Y-106898072D01*
X193259001Y-108862803D01*
X193259000Y-109514750D01*
X193252000Y-109521750D01*
X193252000Y-109811503D01*
X193233188Y-109873518D01*
X193220928Y-109998000D01*
X193220928Y-110798000D01*
X193233188Y-110922482D01*
X193252000Y-110984497D01*
X193252000Y-111274250D01*
X193410750Y-111433000D01*
X193517294Y-111420905D01*
X193617112Y-111388197D01*
X193734518Y-111423812D01*
X193859000Y-111436072D01*
X194179000Y-111436072D01*
X194303482Y-111423812D01*
X194419000Y-111388770D01*
X194534518Y-111423812D01*
X194659000Y-111436072D01*
X194979000Y-111436072D01*
X195103482Y-111423812D01*
X195220888Y-111388197D01*
X195320706Y-111420905D01*
X195427250Y-111433000D01*
X195586000Y-111274250D01*
X195586000Y-110984497D01*
X195604812Y-110922482D01*
X195617072Y-110798000D01*
X195617072Y-109998000D01*
X195604812Y-109873518D01*
X195586000Y-109811503D01*
X195586000Y-109521750D01*
X195579000Y-109514750D01*
X195579000Y-108642802D01*
X195659000Y-108722802D01*
X195659001Y-109514749D01*
X195652000Y-109521750D01*
X195652000Y-109811503D01*
X195633188Y-109873518D01*
X195620928Y-109998000D01*
X195620928Y-110798000D01*
X195633188Y-110922482D01*
X195652000Y-110984497D01*
X195652000Y-111274250D01*
X195810750Y-111433000D01*
X195917294Y-111420905D01*
X196017112Y-111388197D01*
X196134518Y-111423812D01*
X196259000Y-111436072D01*
X196579000Y-111436072D01*
X196703482Y-111423812D01*
X196819000Y-111388770D01*
X196934518Y-111423812D01*
X197059000Y-111436072D01*
X197379000Y-111436072D01*
X197503482Y-111423812D01*
X197619000Y-111388770D01*
X197734518Y-111423812D01*
X197859000Y-111436072D01*
X198179000Y-111436072D01*
X198303482Y-111423812D01*
X198419000Y-111388770D01*
X198534518Y-111423812D01*
X198659000Y-111436072D01*
X198979000Y-111436072D01*
X199103482Y-111423812D01*
X199219000Y-111388770D01*
X199334518Y-111423812D01*
X199459000Y-111436072D01*
X199779000Y-111436072D01*
X199903482Y-111423812D01*
X200020888Y-111388197D01*
X200120706Y-111420905D01*
X200227250Y-111433000D01*
X200386000Y-111274250D01*
X200386000Y-110984497D01*
X200404812Y-110922482D01*
X200417072Y-110798000D01*
X200417072Y-109998000D01*
X200404812Y-109873518D01*
X200386000Y-109811503D01*
X200386000Y-109521750D01*
X200379000Y-109514750D01*
X200379000Y-107561804D01*
X200459001Y-107641805D01*
X200459000Y-109514750D01*
X200452000Y-109521750D01*
X200452000Y-109811503D01*
X200433188Y-109873518D01*
X200420928Y-109998000D01*
X200420928Y-110798000D01*
X200433188Y-110922482D01*
X200452000Y-110984497D01*
X200452000Y-111274250D01*
X200610750Y-111433000D01*
X200717294Y-111420905D01*
X200817112Y-111388197D01*
X200934518Y-111423812D01*
X201059000Y-111436072D01*
X201379000Y-111436072D01*
X201503482Y-111423812D01*
X201619000Y-111388770D01*
X201734518Y-111423812D01*
X201859000Y-111436072D01*
X202123517Y-111436072D01*
X202184026Y-111549276D01*
X202234669Y-111610984D01*
X202279000Y-111665001D01*
X202307998Y-111688799D01*
X202546000Y-111926801D01*
X202546000Y-111988939D01*
X202585774Y-112188898D01*
X202663795Y-112377256D01*
X202777063Y-112546774D01*
X202921226Y-112690937D01*
X203090744Y-112804205D01*
X203279102Y-112882226D01*
X203479061Y-112922000D01*
X203682939Y-112922000D01*
X203882898Y-112882226D01*
X204071256Y-112804205D01*
X204240774Y-112690937D01*
X204384937Y-112546774D01*
X204498205Y-112377256D01*
X204576226Y-112188898D01*
X204616000Y-111988939D01*
X204616000Y-111785061D01*
X204576226Y-111585102D01*
X204514495Y-111436072D01*
X204579000Y-111436072D01*
X204703482Y-111423812D01*
X204819000Y-111388770D01*
X204934518Y-111423812D01*
X205059000Y-111436072D01*
X205379000Y-111436072D01*
X205503482Y-111423812D01*
X205619000Y-111388770D01*
X205734518Y-111423812D01*
X205859000Y-111436072D01*
X206179000Y-111436072D01*
X206303482Y-111423812D01*
X206419000Y-111388770D01*
X206534518Y-111423812D01*
X206659000Y-111436072D01*
X206979000Y-111436072D01*
X207103482Y-111423812D01*
X207219000Y-111388770D01*
X207334518Y-111423812D01*
X207459000Y-111436072D01*
X207779000Y-111436072D01*
X207903482Y-111423812D01*
X208019000Y-111388770D01*
X208134518Y-111423812D01*
X208259000Y-111436072D01*
X208579000Y-111436072D01*
X208703482Y-111423812D01*
X208819000Y-111388770D01*
X208934518Y-111423812D01*
X209059000Y-111436072D01*
X209379000Y-111436072D01*
X209503482Y-111423812D01*
X209619000Y-111388770D01*
X209734518Y-111423812D01*
X209859000Y-111436072D01*
X210179000Y-111436072D01*
X210303482Y-111423812D01*
X210419000Y-111388770D01*
X210534518Y-111423812D01*
X210659000Y-111436072D01*
X210979000Y-111436072D01*
X211103482Y-111423812D01*
X211219000Y-111388770D01*
X211334518Y-111423812D01*
X211459000Y-111436072D01*
X211779000Y-111436072D01*
X211903482Y-111423812D01*
X212020888Y-111388197D01*
X212120706Y-111420905D01*
X212227250Y-111433000D01*
X212386000Y-111274250D01*
X212386000Y-110984497D01*
X212404812Y-110922482D01*
X212417072Y-110798000D01*
X212417072Y-110525000D01*
X212452000Y-110525000D01*
X212452000Y-111274250D01*
X212610750Y-111433000D01*
X212717294Y-111420905D01*
X212836160Y-111381956D01*
X212945143Y-111320566D01*
X213040055Y-111239094D01*
X213117249Y-111140672D01*
X213173759Y-111029080D01*
X213207412Y-110908608D01*
X213216916Y-110783886D01*
X213214000Y-110683750D01*
X213055250Y-110525000D01*
X212452000Y-110525000D01*
X212417072Y-110525000D01*
X212417072Y-110251000D01*
X212452000Y-110251000D01*
X212452000Y-110271000D01*
X213055250Y-110271000D01*
X213214000Y-110112250D01*
X213216916Y-110012114D01*
X213207412Y-109887392D01*
X213173759Y-109766920D01*
X213117249Y-109655328D01*
X213040055Y-109556906D01*
X212945143Y-109475434D01*
X212836160Y-109414044D01*
X212717294Y-109375095D01*
X212610750Y-109363000D01*
X212546002Y-109427748D01*
X212546002Y-109418801D01*
X215410805Y-106553998D01*
X232916324Y-106553998D01*
X232920000Y-106591320D01*
X232920001Y-115116668D01*
X232916324Y-115154000D01*
X232930998Y-115302985D01*
X232974454Y-115446246D01*
X233045026Y-115578276D01*
X233116201Y-115665002D01*
X233140000Y-115694001D01*
X233168998Y-115717799D01*
X234770564Y-117319366D01*
X234779589Y-117349117D01*
X234839301Y-117460830D01*
X234835463Y-117465506D01*
X234776498Y-117575820D01*
X234740188Y-117695518D01*
X234727928Y-117820000D01*
X234731000Y-117824250D01*
X234889750Y-117983000D01*
X236064000Y-117983000D01*
X236064000Y-117963000D01*
X236318000Y-117963000D01*
X236318000Y-117983000D01*
X237492250Y-117983000D01*
X237651000Y-117824250D01*
X237654072Y-117820000D01*
X237641812Y-117695518D01*
X237605502Y-117575820D01*
X237546537Y-117465506D01*
X237542699Y-117460830D01*
X237602411Y-117349117D01*
X237641032Y-117221802D01*
X237654072Y-117089400D01*
X237654072Y-116590600D01*
X237641032Y-116458198D01*
X237602411Y-116330883D01*
X237539695Y-116213550D01*
X237532678Y-116205000D01*
X237539695Y-116196450D01*
X237602411Y-116079117D01*
X237611436Y-116049365D01*
X237852008Y-115808793D01*
X237881011Y-115784991D01*
X237975984Y-115669266D01*
X238046556Y-115537237D01*
X238090013Y-115393976D01*
X238101010Y-115282323D01*
X238101010Y-115282322D01*
X238104687Y-115244990D01*
X238101010Y-115207657D01*
X238101010Y-111013332D01*
X238104686Y-110976009D01*
X238101010Y-110938686D01*
X238101010Y-110938677D01*
X238090013Y-110827024D01*
X238053038Y-110705132D01*
X238125000Y-110667155D01*
X238125000Y-109474000D01*
X238105000Y-109474000D01*
X238105000Y-109220000D01*
X238125000Y-109220000D01*
X238125000Y-109200000D01*
X238379000Y-109200000D01*
X238379000Y-109220000D01*
X238399000Y-109220000D01*
X238399000Y-109474000D01*
X238379000Y-109474000D01*
X238379000Y-110667155D01*
X238608890Y-110788476D01*
X238756099Y-110743825D01*
X238857000Y-110695765D01*
X238856999Y-115153676D01*
X238853323Y-115190999D01*
X238856999Y-115228321D01*
X238856999Y-115228331D01*
X238867996Y-115339984D01*
X238892576Y-115421014D01*
X238911453Y-115483245D01*
X238982025Y-115615275D01*
X238999035Y-115636001D01*
X239076998Y-115731000D01*
X239106002Y-115754803D01*
X241940564Y-118589366D01*
X241949589Y-118619117D01*
X242012305Y-118736450D01*
X242096706Y-118839294D01*
X242199550Y-118923695D01*
X242316883Y-118986411D01*
X242444198Y-119025032D01*
X242576600Y-119038072D01*
X244145400Y-119038072D01*
X244277802Y-119025032D01*
X244405117Y-118986411D01*
X244522450Y-118923695D01*
X244625294Y-118839294D01*
X244709695Y-118736450D01*
X244772411Y-118619117D01*
X244811032Y-118491802D01*
X244824072Y-118359400D01*
X244824072Y-117860600D01*
X244811032Y-117728198D01*
X244772411Y-117600883D01*
X244709695Y-117483550D01*
X244702678Y-117475000D01*
X244709695Y-117466450D01*
X244772411Y-117349117D01*
X244811032Y-117221802D01*
X244824072Y-117089400D01*
X244824072Y-116590600D01*
X244811032Y-116458198D01*
X244772411Y-116330883D01*
X244709695Y-116213550D01*
X244702678Y-116205000D01*
X244709695Y-116196450D01*
X244772411Y-116079117D01*
X244781436Y-116049365D01*
X245022008Y-115808793D01*
X245051011Y-115784991D01*
X245145984Y-115669266D01*
X245216556Y-115537237D01*
X245260013Y-115393976D01*
X245271010Y-115282323D01*
X245271010Y-115282322D01*
X245274687Y-115244990D01*
X245271010Y-115207657D01*
X245271010Y-108023333D01*
X245274686Y-107986010D01*
X245271010Y-107948687D01*
X245271010Y-107948677D01*
X245260013Y-107837024D01*
X245216556Y-107693763D01*
X245197973Y-107658997D01*
X245145984Y-107561733D01*
X245074809Y-107475007D01*
X245051011Y-107446009D01*
X245022013Y-107422211D01*
X244773210Y-107173408D01*
X244817000Y-106953260D01*
X244817000Y-106660740D01*
X244759932Y-106373842D01*
X244647990Y-106103589D01*
X244485475Y-105860368D01*
X244278632Y-105653525D01*
X244035411Y-105491010D01*
X243765158Y-105379068D01*
X243478260Y-105322000D01*
X243185740Y-105322000D01*
X242898842Y-105379068D01*
X242628589Y-105491010D01*
X242385368Y-105653525D01*
X242178525Y-105860368D01*
X242062000Y-106034760D01*
X241945475Y-105860368D01*
X241738632Y-105653525D01*
X241495411Y-105491010D01*
X241225158Y-105379068D01*
X240938260Y-105322000D01*
X240645740Y-105322000D01*
X240358842Y-105379068D01*
X240088589Y-105491010D01*
X239845368Y-105653525D01*
X239638525Y-105860368D01*
X239522000Y-106034760D01*
X239405475Y-105860368D01*
X239198632Y-105653525D01*
X239001684Y-105521929D01*
X239001003Y-105515014D01*
X238957546Y-105371753D01*
X238886974Y-105239724D01*
X238815799Y-105152997D01*
X238792001Y-105123999D01*
X238763002Y-105100200D01*
X238180803Y-104518002D01*
X238157001Y-104488999D01*
X238041276Y-104394026D01*
X237909247Y-104323454D01*
X237765986Y-104279997D01*
X237654333Y-104269000D01*
X237654322Y-104269000D01*
X237617000Y-104265324D01*
X237579678Y-104269000D01*
X235242321Y-104269000D01*
X235204998Y-104265324D01*
X235167675Y-104269000D01*
X235167665Y-104269000D01*
X235056012Y-104279997D01*
X234912751Y-104323454D01*
X234780722Y-104394026D01*
X234664997Y-104488999D01*
X234641199Y-104517997D01*
X233169003Y-105990194D01*
X233139999Y-106013997D01*
X233103889Y-106057998D01*
X233045026Y-106129722D01*
X232988351Y-106235753D01*
X232974454Y-106261752D01*
X232930997Y-106405013D01*
X232920000Y-106516666D01*
X232920000Y-106516676D01*
X232916324Y-106553998D01*
X215410805Y-106553998D01*
X215427005Y-106537799D01*
X215456002Y-106514002D01*
X215550975Y-106398277D01*
X215621547Y-106266248D01*
X215665004Y-106122987D01*
X215676001Y-106011334D01*
X215676001Y-106011333D01*
X215679678Y-105974001D01*
X215676001Y-105936668D01*
X215676001Y-104082323D01*
X215679677Y-104045000D01*
X215676001Y-104007677D01*
X215676001Y-104007668D01*
X215665004Y-103896015D01*
X215621547Y-103752754D01*
X215550975Y-103620725D01*
X215456002Y-103505000D01*
X215427004Y-103481202D01*
X215182210Y-103236408D01*
X215226000Y-103016260D01*
X215226000Y-102723740D01*
X215168932Y-102436842D01*
X215056990Y-102166589D01*
X214894475Y-101923368D01*
X214687632Y-101716525D01*
X214444411Y-101554010D01*
X214174158Y-101442068D01*
X213887260Y-101385000D01*
X213594740Y-101385000D01*
X213307842Y-101442068D01*
X213037589Y-101554010D01*
X212794368Y-101716525D01*
X212587525Y-101923368D01*
X212471000Y-102097760D01*
X212354475Y-101923368D01*
X212147632Y-101716525D01*
X211904411Y-101554010D01*
X211634158Y-101442068D01*
X211347260Y-101385000D01*
X211054740Y-101385000D01*
X210767842Y-101442068D01*
X210497589Y-101554010D01*
X210254368Y-101716525D01*
X210047525Y-101923368D01*
X209931000Y-102097760D01*
X209814475Y-101923368D01*
X209607632Y-101716525D01*
X209364411Y-101554010D01*
X209094158Y-101442068D01*
X208807260Y-101385000D01*
X208514740Y-101385000D01*
X208227842Y-101442068D01*
X207957589Y-101554010D01*
X207714368Y-101716525D01*
X207507525Y-101923368D01*
X207391000Y-102097760D01*
X207274475Y-101923368D01*
X207067632Y-101716525D01*
X206824411Y-101554010D01*
X206554158Y-101442068D01*
X206267260Y-101385000D01*
X205974740Y-101385000D01*
X205687842Y-101442068D01*
X205417589Y-101554010D01*
X205174368Y-101716525D01*
X204967525Y-101923368D01*
X204851000Y-102097760D01*
X204734475Y-101923368D01*
X204527632Y-101716525D01*
X204284411Y-101554010D01*
X204014158Y-101442068D01*
X203727260Y-101385000D01*
X203434740Y-101385000D01*
X203147842Y-101442068D01*
X202877589Y-101554010D01*
X202634368Y-101716525D01*
X202427525Y-101923368D01*
X202311000Y-102097760D01*
X202194475Y-101923368D01*
X201987632Y-101716525D01*
X201744411Y-101554010D01*
X201474158Y-101442068D01*
X201187260Y-101385000D01*
X200894740Y-101385000D01*
X200607842Y-101442068D01*
X200337589Y-101554010D01*
X200094368Y-101716525D01*
X199887525Y-101923368D01*
X199771000Y-102097760D01*
X199654475Y-101923368D01*
X199447632Y-101716525D01*
X199204411Y-101554010D01*
X198934158Y-101442068D01*
X198647260Y-101385000D01*
X198354740Y-101385000D01*
X198067842Y-101442068D01*
X197797589Y-101554010D01*
X197554368Y-101716525D01*
X197347525Y-101923368D01*
X197231000Y-102097760D01*
X197114475Y-101923368D01*
X196907632Y-101716525D01*
X196664411Y-101554010D01*
X196394158Y-101442068D01*
X196107260Y-101385000D01*
X195814740Y-101385000D01*
X195527842Y-101442068D01*
X195257589Y-101554010D01*
X195014368Y-101716525D01*
X194807525Y-101923368D01*
X194691000Y-102097760D01*
X194574475Y-101923368D01*
X194367632Y-101716525D01*
X194124411Y-101554010D01*
X193854158Y-101442068D01*
X193567260Y-101385000D01*
X193274740Y-101385000D01*
X192987842Y-101442068D01*
X192717589Y-101554010D01*
X192474368Y-101716525D01*
X192267525Y-101923368D01*
X192151000Y-102097760D01*
X192034475Y-101923368D01*
X191827632Y-101716525D01*
X191584411Y-101554010D01*
X191314158Y-101442068D01*
X191027260Y-101385000D01*
X190734740Y-101385000D01*
X190447842Y-101442068D01*
X190177589Y-101554010D01*
X189934368Y-101716525D01*
X189727525Y-101923368D01*
X189565010Y-102166589D01*
X189453068Y-102436842D01*
X189396000Y-102723740D01*
X189396000Y-103016260D01*
X189453068Y-103303158D01*
X189565010Y-103573411D01*
X189727525Y-103816632D01*
X189859380Y-103948487D01*
X189786820Y-103970498D01*
X189676506Y-104029463D01*
X189579815Y-104108815D01*
X189500463Y-104205506D01*
X189441498Y-104315820D01*
X189405188Y-104435518D01*
X189392928Y-104560000D01*
X188747000Y-104560000D01*
X188747000Y-102521279D01*
X188785909Y-102124455D01*
X188891780Y-101773792D01*
X189063744Y-101450375D01*
X189295254Y-101166516D01*
X189577486Y-100933035D01*
X189899695Y-100758817D01*
X190249614Y-100650498D01*
X190644443Y-100609000D01*
X243807721Y-100609000D01*
X244204545Y-100647909D01*
G37*
G04 #@! TD.AperFunction*
D15*
X201270226Y-120183937D02*
X201439744Y-120297205D01*
X201628102Y-120375226D01*
X201828061Y-120415000D01*
X202031939Y-120415000D01*
X202059001Y-120409617D01*
X202059000Y-120719928D01*
X201859000Y-120719928D01*
X201734518Y-120732188D01*
X201619000Y-120767230D01*
X201503482Y-120732188D01*
X201379000Y-120719928D01*
X201059000Y-120719928D01*
X200934518Y-120732188D01*
X200817112Y-120767803D01*
X200717294Y-120735095D01*
X200610750Y-120723000D01*
X200452000Y-120881750D01*
X200452000Y-121171503D01*
X200433188Y-121233518D01*
X200420928Y-121358000D01*
X200420928Y-122158000D01*
X200433188Y-122282482D01*
X200452000Y-122344497D01*
X200452000Y-122634250D01*
X200459001Y-122641251D01*
X200459000Y-123968608D01*
X200379000Y-124048608D01*
X200379000Y-122641250D01*
X200386000Y-122634250D01*
X200386000Y-122344497D01*
X200404812Y-122282482D01*
X200417072Y-122158000D01*
X200417072Y-121358000D01*
X200404812Y-121233518D01*
X200386000Y-121171503D01*
X200386000Y-120881750D01*
X200227250Y-120723000D01*
X200120706Y-120735095D01*
X200020888Y-120767803D01*
X199903482Y-120732188D01*
X199779000Y-120719928D01*
X199459000Y-120719928D01*
X199334518Y-120732188D01*
X199219000Y-120767230D01*
X199103482Y-120732188D01*
X198979000Y-120719928D01*
X198659000Y-120719928D01*
X198534518Y-120732188D01*
X198419000Y-120767230D01*
X198303482Y-120732188D01*
X198179000Y-120719928D01*
X197859000Y-120719928D01*
X197734518Y-120732188D01*
X197619000Y-120767230D01*
X197503482Y-120732188D01*
X197379000Y-120719928D01*
X197059000Y-120719928D01*
X196934518Y-120732188D01*
X196819000Y-120767230D01*
X196703482Y-120732188D01*
X196579000Y-120719928D01*
X196259000Y-120719928D01*
X196134518Y-120732188D01*
X196017112Y-120767803D01*
X195917294Y-120735095D01*
X195810750Y-120723000D01*
X195652000Y-120881750D01*
X195652000Y-121171503D01*
X195633188Y-121233518D01*
X195620928Y-121358000D01*
X195620928Y-122158000D01*
X195633188Y-122282482D01*
X195652000Y-122344497D01*
X195652000Y-122634250D01*
X195659000Y-122641250D01*
X195659000Y-123052198D01*
X195575563Y-123135635D01*
X195579000Y-123100743D01*
X195579000Y-123100735D01*
X195582676Y-123063410D01*
X195579000Y-123026085D01*
X195579000Y-122641250D01*
X195586000Y-122634250D01*
X195586000Y-122344497D01*
X195604812Y-122282482D01*
X195617072Y-122158000D01*
X195617072Y-121358000D01*
X195604812Y-121233518D01*
X195586000Y-121171503D01*
X195586000Y-120881750D01*
X195427250Y-120723000D01*
X195320706Y-120735095D01*
X195220888Y-120767803D01*
X195103482Y-120732188D01*
X194979000Y-120719928D01*
X194679873Y-120719928D01*
X195259802Y-120140000D01*
X201226289Y-120140000D01*
X201270226Y-120183937D01*
G04 #@! TA.AperFunction,Conductor*
D16*
G36*
X201270226Y-120183937D02*
G01*
X201439744Y-120297205D01*
X201628102Y-120375226D01*
X201828061Y-120415000D01*
X202031939Y-120415000D01*
X202059001Y-120409617D01*
X202059000Y-120719928D01*
X201859000Y-120719928D01*
X201734518Y-120732188D01*
X201619000Y-120767230D01*
X201503482Y-120732188D01*
X201379000Y-120719928D01*
X201059000Y-120719928D01*
X200934518Y-120732188D01*
X200817112Y-120767803D01*
X200717294Y-120735095D01*
X200610750Y-120723000D01*
X200452000Y-120881750D01*
X200452000Y-121171503D01*
X200433188Y-121233518D01*
X200420928Y-121358000D01*
X200420928Y-122158000D01*
X200433188Y-122282482D01*
X200452000Y-122344497D01*
X200452000Y-122634250D01*
X200459001Y-122641251D01*
X200459000Y-123968608D01*
X200379000Y-124048608D01*
X200379000Y-122641250D01*
X200386000Y-122634250D01*
X200386000Y-122344497D01*
X200404812Y-122282482D01*
X200417072Y-122158000D01*
X200417072Y-121358000D01*
X200404812Y-121233518D01*
X200386000Y-121171503D01*
X200386000Y-120881750D01*
X200227250Y-120723000D01*
X200120706Y-120735095D01*
X200020888Y-120767803D01*
X199903482Y-120732188D01*
X199779000Y-120719928D01*
X199459000Y-120719928D01*
X199334518Y-120732188D01*
X199219000Y-120767230D01*
X199103482Y-120732188D01*
X198979000Y-120719928D01*
X198659000Y-120719928D01*
X198534518Y-120732188D01*
X198419000Y-120767230D01*
X198303482Y-120732188D01*
X198179000Y-120719928D01*
X197859000Y-120719928D01*
X197734518Y-120732188D01*
X197619000Y-120767230D01*
X197503482Y-120732188D01*
X197379000Y-120719928D01*
X197059000Y-120719928D01*
X196934518Y-120732188D01*
X196819000Y-120767230D01*
X196703482Y-120732188D01*
X196579000Y-120719928D01*
X196259000Y-120719928D01*
X196134518Y-120732188D01*
X196017112Y-120767803D01*
X195917294Y-120735095D01*
X195810750Y-120723000D01*
X195652000Y-120881750D01*
X195652000Y-121171503D01*
X195633188Y-121233518D01*
X195620928Y-121358000D01*
X195620928Y-122158000D01*
X195633188Y-122282482D01*
X195652000Y-122344497D01*
X195652000Y-122634250D01*
X195659000Y-122641250D01*
X195659000Y-123052198D01*
X195575563Y-123135635D01*
X195579000Y-123100743D01*
X195579000Y-123100735D01*
X195582676Y-123063410D01*
X195579000Y-123026085D01*
X195579000Y-122641250D01*
X195586000Y-122634250D01*
X195586000Y-122344497D01*
X195604812Y-122282482D01*
X195617072Y-122158000D01*
X195617072Y-121358000D01*
X195604812Y-121233518D01*
X195586000Y-121171503D01*
X195586000Y-120881750D01*
X195427250Y-120723000D01*
X195320706Y-120735095D01*
X195220888Y-120767803D01*
X195103482Y-120732188D01*
X194979000Y-120719928D01*
X194679873Y-120719928D01*
X195259802Y-120140000D01*
X201226289Y-120140000D01*
X201270226Y-120183937D01*
G37*
G04 #@! TD.AperFunction*
M02*
