M48
; DRILL file {KiCad (5.1.8)-1} date 12/09/21 12:48:04
; FORMAT={-:-/ absolute / metric / decimal}
; #@! TF.CreationDate,2021-12-09T12:48:04+01:00
; #@! TF.GenerationSoftware,Kicad,Pcbnew,(5.1.8)-1
; #@! TF.FileFunction,Plated,1,2,PTH
FMAT,2
METRIC
T1C0.400
T2C1.000
%
G90
G05
T1
X197.866Y-120.269
X200.279Y-112.776
X201.93Y-119.38
X203.581Y-111.887
T2
X218.059Y-113.284
X218.059Y-115.824
X218.059Y-118.364
X191.008Y-126.238
X191.008Y-128.778
X193.548Y-126.238
X193.548Y-128.778
X196.088Y-126.238
X196.088Y-128.778
X198.628Y-126.238
X198.628Y-128.778
X201.168Y-126.238
X201.168Y-128.778
X203.708Y-126.238
X203.708Y-128.778
X206.248Y-126.238
X206.248Y-128.778
X208.788Y-126.238
X208.788Y-128.778
X211.328Y-126.238
X211.328Y-128.778
X213.868Y-126.238
X213.868Y-128.778
X190.881Y-102.87
X190.881Y-105.41
X193.421Y-102.87
X193.421Y-105.41
X195.961Y-102.87
X195.961Y-105.41
X198.501Y-102.87
X198.501Y-105.41
X201.041Y-102.87
X201.041Y-105.41
X203.581Y-102.87
X203.581Y-105.41
X206.121Y-102.87
X206.121Y-105.41
X208.661Y-102.87
X208.661Y-105.41
X211.201Y-102.87
X211.201Y-105.41
X213.741Y-102.87
X213.741Y-105.41
X235.712Y-106.807
X235.712Y-109.347
X238.252Y-106.807
X238.252Y-109.347
X240.792Y-106.807
X240.792Y-109.347
X243.332Y-106.807
X243.332Y-109.347
T0
M30
